<svg width="23" height="23" viewBox="0 0 23 23" fill="none" xmlns="http://www.w3.org/2000/svg">
<path d="M16.49 11.34H6.17999V11.6C6.17999 13.2391 5.52891 14.811 4.36993 15.97C3.21096 17.1289 1.63904 17.78 0 17.78V22.6801H6.17999C6.23849 21.3521 6.80717 20.098 7.76752 19.179C8.72786 18.26 10.0058 17.7471 11.335 17.7471C12.6642 17.7471 13.9421 18.26 14.9025 19.179C15.8628 20.098 16.4315 21.3521 16.49 22.6801H22.67V17.53C21.03 17.5274 19.4582 16.8741 18.2995 15.7135C17.1408 14.5529 16.49 12.98 16.49 11.34ZM22.67 6.19V11.34H16.49C16.4315 10.0121 15.8628 8.75802 14.9025 7.83905C13.9421 6.92008 12.6642 6.4071 11.335 6.4071C10.0058 6.4071 8.72786 6.92008 7.76752 7.83905C6.80717 8.75802 6.23849 10.0121 6.17999 11.34H0V6.45001C1.63996 6.44736 3.21186 5.79405 4.37054 4.63348C5.52923 3.47292 6.17999 1.89997 6.17999 0.26001V0H16.49C16.49 1.63996 17.1408 3.21291 18.2995 4.37347C19.4582 5.53404 21.03 6.18735 22.67 6.19Z" fill="#A5CF4F"/>
</svg>
