<svg width="737" height="845" viewBox="0 0 737 845" fill="none" xmlns="http://www.w3.org/2000/svg">
<path d="M367.933 736.018C416.264 736.037 464.125 726.535 508.782 708.054C553.439 689.572 594.018 662.473 628.2 628.306C662.381 594.138 689.496 553.571 707.996 508.921C726.496 464.272 736.018 416.415 736.018 368.084C638.422 368.084 544.821 406.844 475.796 475.84C406.771 544.837 367.973 638.422 367.933 736.018ZM0.000278812 367.631C-0.0592482 415.987 9.41366 463.88 27.8774 508.572C46.3411 553.264 73.4335 593.878 107.605 628.092C141.777 662.306 182.358 689.448 227.027 707.967C271.697 726.486 319.578 736.018 367.933 736.018C367.933 638.436 329.17 544.851 260.169 475.85C191.168 406.849 97.5822 368.084 0.000278812 368.084M367.933 368.084C367.953 319.754 358.451 271.893 339.97 227.235C321.488 182.578 294.39 142.001 260.222 107.819C226.055 73.637 185.487 46.5216 140.837 28.0218C96.1876 9.52196 48.3307 -4.06892e-06 0.000278812 0C0.000270602 97.5959 38.7598 191.197 107.756 260.221C176.753 329.246 270.338 368.044 367.933 368.084ZM367.933 368.084C367.933 270.462 406.714 176.839 475.743 107.81C544.772 38.7803 638.396 0 736.018 0C736.018 97.622 697.238 191.246 628.209 260.275C559.18 329.304 465.555 368.084 367.933 368.084Z" fill="#A4CE4E" fill-opacity="0.1"/>
<path d="M367.933 1522.04C416.264 1522.05 464.125 1512.55 508.782 1494.07C553.439 1475.59 594.018 1448.49 628.2 1414.32C662.381 1380.16 689.496 1339.59 707.996 1294.94C726.496 1250.29 736.018 1202.43 736.018 1154.1C638.422 1154.1 544.821 1192.86 475.796 1261.86C406.771 1330.85 367.973 1424.44 367.933 1522.04ZM0.000278812 1153.65C-0.0592482 1202 9.41366 1249.9 27.8774 1294.59C46.3411 1339.28 73.4335 1379.9 107.605 1414.11C141.777 1448.32 182.358 1475.47 227.027 1493.98C271.697 1512.5 319.578 1522.04 367.933 1522.04C367.933 1424.45 329.17 1330.87 260.169 1261.87C191.168 1192.87 97.5822 1154.1 0.000278812 1154.1M367.933 1154.1C367.953 1105.77 358.451 1057.91 339.97 1013.25C321.488 968.596 294.39 928.018 260.222 893.836C226.055 859.655 185.487 832.539 140.837 814.039C96.1876 795.54 48.3307 786.018 0.000278812 786.018C0.000270602 883.613 38.7598 977.214 107.756 1046.24C176.753 1115.26 270.338 1154.06 367.933 1154.1ZM367.933 1154.1C367.933 1056.48 406.714 962.856 475.743 893.827C544.772 824.798 638.396 786.018 736.018 786.018C736.018 883.64 697.238 977.263 628.209 1046.29C559.18 1115.32 465.555 1154.1 367.933 1154.1Z" fill="#A4CE4E" fill-opacity="0.1"/>
</svg>
