<svg width="23" height="23" viewBox="0 0 23 23" fill="none" xmlns="http://www.w3.org/2000/svg">
<path d="M22.64 11.28C22.64 11.8953 22.3956 12.4854 21.9605 12.9205C21.5254 13.3556 20.9353 13.6 20.32 13.6C19.0895 13.5706 17.9066 13.1187 16.97 12.32C15.97 11.67 14.77 10.16 11.78 11.12C11.78 11.12 11.78 11.12 11.78 11.17C12.91 11.02 15.78 11.12 18.93 15.29C20.02 16.75 20.2 18.4 19.29 19.29C19.0752 19.5065 18.8198 19.6783 18.5383 19.7956C18.2569 19.9129 17.9549 19.9732 17.65 19.9732C17.3451 19.9732 17.0432 19.9129 16.7617 19.7956C16.4802 19.6783 16.2248 19.5065 16.01 19.29C15.1602 18.3983 14.6475 17.2386 14.56 16.01C14.28 14.82 14.56 12.93 11.74 11.5C12.65 12.19 14.62 14.31 13.88 19.5C13.63 21.3 12.59 22.59 11.31 22.59C10.6947 22.59 10.1046 22.3455 9.66949 21.9105C9.23441 21.4754 8.98999 20.8853 8.98999 20.27C9.02134 19.0381 9.47705 17.8548 10.28 16.92C10.92 15.92 12.43 14.72 11.48 11.74H11.42C11.58 12.87 11.42 15.74 7.29999 18.89C5.83999 19.98 4.18999 20.16 3.29999 19.25C3.08351 19.0353 2.91169 18.7798 2.79443 18.4983C2.67718 18.2168 2.61682 17.9149 2.61682 17.61C2.61682 17.3051 2.67718 17.0032 2.79443 16.7217C2.91169 16.4402 3.08351 16.1848 3.29999 15.97C4.19435 15.1228 5.35196 14.6075 6.58002 14.51C7.77002 14.24 9.66003 14.51 11.09 11.7C10.4 12.61 8.28003 14.58 3.09003 13.84C1.29003 13.58 0 12.55 0 11.26C0 10.6447 0.24442 10.0546 0.679504 9.61951C1.11459 9.18442 1.7047 8.94 2.32001 8.94C3.55095 8.97619 4.73268 9.43123 5.66998 10.23C6.66998 10.88 7.86998 12.39 10.85 11.43C9.71998 11.58 6.85001 11.43 3.70001 7.29999C2.61001 5.84999 2.43003 4.19999 3.34003 3.29999C3.55477 3.08351 3.8102 2.91169 4.09167 2.79443C4.37315 2.67718 4.67506 2.61682 4.97998 2.61682C5.2849 2.61682 5.58681 2.67718 5.86829 2.79443C6.14976 2.91169 6.40525 3.08351 6.62 3.29999C7.46719 4.19435 7.98248 5.35196 8.08002 6.58002C8.35002 7.77002 8.08002 9.65003 10.89 11.09C9.98001 10.4 8.01 8.28003 8.75 3.09003C9.01 1.28003 10.05 0 11.33 0C11.9453 0 12.5354 0.24442 12.9705 0.679504C13.4056 1.11459 13.65 1.7047 13.65 2.32001C13.6138 3.55095 13.1587 4.73268 12.36 5.66998C11.71 6.66998 10.2 7.85998 11.16 10.85H11.22C11.06 9.71998 11.22 6.85001 15.34 3.70001C16.79 2.61001 18.44 2.43003 19.34 3.34003C19.7724 3.77636 20.0149 4.36572 20.0149 4.97998C20.0149 5.59424 19.7724 6.18366 19.34 6.62C18.4461 7.46629 17.2876 7.97842 16.06 8.07001C14.86 8.35001 12.98 8.07001 11.54 10.89C12.23 9.98001 14.35 8.01 19.54 8.75C21.35 9 22.64 10.04 22.64 11.32V11.28Z" fill="#A5CF4F"/>
</svg>
