<svg width="669" height="635" viewBox="0 0 669 635" fill="none" xmlns="http://www.w3.org/2000/svg">
<path d="M662.324 1.33789V546.917C662.337 558.019 660.154 569.014 655.898 579.268C651.643 589.522 645.401 598.833 637.532 606.663C629.662 614.494 620.32 620.69 610.045 624.894C599.77 629.098 588.765 631.227 577.663 631.159L0.832273 628.347M669.164 8.69662L662.323 1.35737L655.503 8.69662M8.18717 621.567L0.807989 628.367L8.12734 635.228" stroke="#1E4387" stroke-width="0.937352" stroke-miterlimit="10"/>
<mask id="mask0_1256_7526" style="mask-type:luminance" maskUnits="userSpaceOnUse" x="0" y="0" width="646" height="613">
<path d="M645.578 0V546.895C645.578 564.35 638.644 581.09 626.302 593.433C613.959 605.776 597.219 612.709 579.764 612.709H0.00140381V65.8141C0.00140381 48.3591 6.93542 31.619 19.278 19.2765C31.6205 6.93397 48.3605 0 65.8155 0L645.578 0Z" fill="white"/>
</mask>
<g mask="url(#mask0_1256_7526)">
<path d="M0.78125 -3.75H648.641V612.629H0.78125V-3.75Z" fill="url(#paint0_linear_1256_7526)"/>
<path opacity="0.57" d="M646.327 229.152L648.641 611.772H190.554L646.327 229.152Z" fill="url(#paint1_linear_1256_7526)"/>
<mask id="mask1_1256_7526" style="mask-type:luminance" maskUnits="userSpaceOnUse" x="-283" y="-321" width="1254" height="1254">
<path d="M303.647 -320.196L970.742 267.928L384.558 932.824L-282.537 344.7L303.647 -320.196Z" fill="url(#paint2_linear_1256_7526)"/>
</mask>
<g mask="url(#mask1_1256_7526)">
<path d="M-0.210938 -19.6289H630.578V497.849H-0.210938V-19.6289Z" fill="url(#paint3_linear_1256_7526)"/>
<mask id="mask2_1256_7526" style="mask-type:luminance" maskUnits="userSpaceOnUse" x="2" y="-20" width="629" height="518">
<path d="M2.23279 -19.6465H630.578V497.832H2.23279V-19.6465Z" fill="white"/>
</mask>
<g mask="url(#mask2_1256_7526)">
<path d="M0.804703 -2.57422H611.383L0.804703 495.718V-2.57422Z" fill="url(#paint4_linear_1256_7526)"/>
</g>
</g>
<mask id="mask3_1256_7526" style="mask-type:luminance" maskUnits="userSpaceOnUse" x="-305" y="-321" width="1256" height="1255">
<path d="M356.552 -320.965L950.188 338.334L289.08 933.598L-304.555 274.299L356.552 -320.965Z" fill="url(#paint5_linear_1256_7526)"/>
</mask>
<g mask="url(#mask3_1256_7526)">
<mask id="mask4_1256_7526" style="mask-type:luminance" maskUnits="userSpaceOnUse" x="0" y="-3" width="648" height="615">
<path d="M530.293 -2.57031H647.602L646.325 229.155L190.552 611.775H0.967896V435.891L530.293 -2.57031Z" fill="white"/>
</mask>
<g mask="url(#mask4_1256_7526)">
<path d="M367.036 -323.054L952.078 345.234L281.524 932.26L-303.519 263.972L367.036 -323.054Z" fill="url(#paint6_linear_1256_7526)"/>
</g>
</g>
</g>
<path d="M406.973 402.862C410.523 402.862 413.993 401.809 416.945 399.837C419.897 397.864 422.197 395.061 423.556 391.781C424.914 388.501 425.27 384.892 424.577 381.41C423.885 377.929 422.175 374.73 419.665 372.22C417.155 369.71 413.956 368 410.474 367.308C406.993 366.615 403.384 366.971 400.104 368.329C396.824 369.688 394.021 371.988 392.048 374.94C390.076 377.892 389.023 381.362 389.023 384.912C389.023 389.673 390.915 394.238 394.281 397.604C397.647 400.97 402.212 402.862 406.973 402.862Z" fill="#A5CF4F"/>
<path d="M402.142 381.782L399.766 383.873L398.344 382.234L402.209 378.971H404.552V390.817H402.142V381.782Z" fill="white"/>
<path d="M412.044 381.782L409.668 383.873L408.246 382.234L412.111 378.971H414.454V390.817H412.044V381.782Z" fill="white"/>
<path d="M431.52 478.649C435.07 478.649 438.54 477.596 441.492 475.624C444.443 473.651 446.744 470.848 448.103 467.568C449.461 464.288 449.817 460.679 449.124 457.198C448.431 453.716 446.722 450.517 444.212 448.007C441.701 445.497 438.503 443.787 435.021 443.095C431.54 442.402 427.931 442.758 424.651 444.116C421.371 445.475 418.568 447.775 416.595 450.727C414.623 453.679 413.57 457.149 413.57 460.699C413.57 465.46 415.461 470.025 418.828 473.391C422.194 476.758 426.759 478.649 431.52 478.649Z" fill="#A5CF4F"/>
<path d="M425.314 457.766L422.938 459.857L421.516 458.218L425.381 454.955H427.723V466.801H425.314V457.766Z" fill="white"/>
<path d="M434.012 459.623H434.831C435.066 459.623 435.294 459.606 435.518 459.573C435.741 459.539 435.941 459.478 436.12 459.389C436.31 459.288 436.46 459.155 436.572 458.987C436.683 458.809 436.739 458.58 436.739 458.301C436.739 457.944 436.594 457.649 436.304 457.414C436.025 457.18 435.679 457.063 435.267 457.063C434.876 457.063 434.553 457.169 434.296 457.381C434.039 457.593 433.872 457.855 433.794 458.167L431.033 457.598C431.167 457.085 431.368 456.65 431.636 456.293C431.903 455.925 432.221 455.63 432.589 455.406C432.957 455.183 433.365 455.022 433.811 454.921C434.268 454.81 434.748 454.754 435.25 454.754C435.774 454.754 436.276 454.821 436.756 454.955C437.247 455.077 437.676 455.278 438.044 455.557C438.412 455.825 438.702 456.165 438.914 456.578C439.137 456.991 439.249 457.481 439.249 458.05C439.249 458.708 439.076 459.272 438.73 459.74C438.384 460.209 437.882 460.51 437.224 460.644V460.694C437.581 460.739 437.894 460.845 438.161 461.012C438.44 461.179 438.674 461.386 438.864 461.631C439.054 461.876 439.199 462.155 439.299 462.468C439.4 462.78 439.45 463.109 439.45 463.455C439.45 464.046 439.333 464.565 439.098 465.011C438.875 465.457 438.568 465.831 438.178 466.132C437.799 466.422 437.347 466.64 436.823 466.785C436.31 466.93 435.763 467.002 435.183 467.002C434.123 467.002 433.208 466.757 432.439 466.266C431.68 465.775 431.178 465 430.933 463.94L433.577 463.321C433.666 463.745 433.844 464.08 434.112 464.325C434.391 464.57 434.798 464.693 435.333 464.693C435.88 464.693 436.282 464.554 436.538 464.275C436.806 463.985 436.94 463.617 436.94 463.17C436.94 462.836 436.867 462.579 436.722 462.401C436.588 462.211 436.41 462.072 436.187 461.982C435.964 461.893 435.713 461.843 435.434 461.832C435.155 461.81 434.876 461.798 434.597 461.798H434.012V459.623Z" fill="white"/>
<path d="M398.879 311.498C402.453 311.518 405.953 310.476 408.934 308.505C411.915 306.534 414.244 303.722 415.625 300.426C417.007 297.129 417.378 293.497 416.693 289.989C416.008 286.482 414.297 283.256 411.777 280.722C409.257 278.188 406.041 276.459 402.537 275.755C399.033 275.05 395.399 275.402 392.095 276.765C388.791 278.128 385.967 280.441 383.979 283.411C381.991 286.382 380.93 289.875 380.93 293.449C380.917 295.815 381.371 298.159 382.268 300.349C383.164 302.538 384.484 304.528 386.152 306.206C387.82 307.883 389.803 309.214 391.987 310.122C394.172 311.031 396.514 311.498 398.879 311.498Z" fill="#A5CF4F"/>
<path d="M392.142 290.24L389.766 292.332L388.344 290.692L392.209 287.429H394.552V299.276H392.142V290.24Z" fill="white"/>
<path d="M397.778 293.353C397.778 292.65 397.839 291.936 397.962 291.211C398.096 290.486 398.324 289.828 398.648 289.236C398.982 288.645 399.434 288.166 400.003 287.797C400.572 287.418 401.297 287.229 402.178 287.229C403.06 287.229 403.785 287.418 404.354 287.797C404.923 288.166 405.369 288.645 405.692 289.236C406.027 289.828 406.256 290.486 406.378 291.211C406.512 291.936 406.579 292.65 406.579 293.353C406.579 294.055 406.512 294.769 406.378 295.494C406.256 296.22 406.027 296.878 405.692 297.469C405.369 298.06 404.923 298.545 404.354 298.925C403.785 299.293 403.06 299.477 402.178 299.477C401.297 299.477 400.572 299.293 400.003 298.925C399.434 298.545 398.982 298.06 398.648 297.469C398.324 296.878 398.096 296.22 397.962 295.494C397.839 294.769 397.778 294.055 397.778 293.353ZM400.288 293.353C400.288 293.665 400.299 294.039 400.321 294.474C400.354 294.909 400.433 295.327 400.555 295.729C400.678 296.13 400.862 296.471 401.107 296.749C401.364 297.028 401.721 297.168 402.178 297.168C402.625 297.168 402.976 297.028 403.232 296.749C403.489 296.471 403.679 296.13 403.801 295.729C403.924 295.327 403.997 294.909 404.019 294.474C404.052 294.039 404.069 293.665 404.069 293.353C404.069 293.04 404.052 292.667 404.019 292.232C403.997 291.797 403.924 291.378 403.801 290.977C403.679 290.575 403.489 290.235 403.232 289.956C402.976 289.677 402.625 289.538 402.178 289.538C401.721 289.538 401.364 289.677 401.107 289.956C400.862 290.235 400.678 290.575 400.555 290.977C400.433 291.378 400.354 291.797 400.321 292.232C400.299 292.667 400.288 293.04 400.288 293.353Z" fill="white"/>
<path d="M278.088 251.33C281.634 251.31 285.094 250.241 288.033 248.257C290.971 246.272 293.257 243.462 294.6 240.181C295.943 236.899 296.284 233.293 295.581 229.818C294.877 226.343 293.159 223.154 290.645 220.654C288.131 218.153 284.933 216.454 281.454 215.769C277.975 215.085 274.371 215.446 271.097 216.807C267.823 218.169 265.025 220.469 263.057 223.419C261.089 226.369 260.039 229.835 260.039 233.381C260.039 235.746 260.507 238.088 261.415 240.273C262.323 242.457 263.654 244.44 265.331 246.108C267.009 247.776 268.999 249.096 271.189 249.992C273.378 250.889 275.723 251.343 278.088 251.33Z" fill="#A5CF4F"/>
<path d="M278.793 231.751C278.926 231.717 279.06 231.69 279.194 231.667C279.328 231.645 279.467 231.634 279.612 231.634C280.17 231.634 280.678 231.734 281.135 231.935C281.592 232.136 281.983 232.409 282.306 232.755C282.63 233.101 282.881 233.513 283.059 233.993C283.238 234.462 283.327 234.964 283.327 235.499C283.327 236.113 283.21 236.67 282.976 237.172C282.753 237.663 282.44 238.087 282.039 238.444C281.648 238.801 281.18 239.08 280.633 239.281C280.098 239.47 279.523 239.565 278.91 239.565C278.285 239.565 277.705 239.47 277.169 239.281C276.634 239.08 276.165 238.801 275.764 238.444C275.373 238.087 275.061 237.663 274.827 237.172C274.604 236.67 274.492 236.113 274.492 235.499C274.492 235.075 274.531 234.69 274.609 234.345C274.687 233.988 274.788 233.653 274.911 233.341C275.044 233.028 275.195 232.733 275.362 232.454C275.541 232.164 275.725 231.868 275.914 231.567L278.508 227.518H281.57L278.793 231.751ZM280.817 235.399C280.817 234.863 280.639 234.423 280.282 234.077C279.936 233.72 279.479 233.541 278.91 233.541C278.341 233.541 277.878 233.72 277.521 234.077C277.175 234.423 277.002 234.863 277.002 235.399C277.002 235.934 277.175 236.38 277.521 236.737C277.878 237.083 278.341 237.256 278.91 237.256C279.479 237.256 279.936 237.083 280.282 236.737C280.639 236.38 280.817 235.934 280.817 235.399Z" fill="white"/>
<path d="M436.176 222.053C439.726 222.053 443.196 221 446.148 219.028C449.1 217.056 451.4 214.252 452.759 210.973C454.117 207.693 454.473 204.084 453.78 200.602C453.088 197.12 451.378 193.922 448.868 191.412C446.358 188.901 443.159 187.192 439.678 186.499C436.196 185.807 432.587 186.162 429.307 187.521C426.027 188.879 423.224 191.18 421.252 194.132C419.279 197.083 418.227 200.554 418.227 204.104C418.227 208.864 420.118 213.43 423.484 216.796C426.85 220.162 431.415 222.053 436.176 222.053Z" fill="#4E5F6D"/>
<path d="M437.355 205.297C437.221 205.33 437.087 205.358 436.953 205.38C436.819 205.403 436.68 205.414 436.535 205.414C435.977 205.414 435.47 205.313 435.012 205.113C434.555 204.912 434.165 204.638 433.841 204.293C433.518 203.947 433.267 203.54 433.088 203.071C432.91 202.591 432.82 202.084 432.82 201.548C432.82 200.935 432.932 200.383 433.155 199.892C433.389 199.39 433.702 198.96 434.092 198.604C434.494 198.247 434.962 197.973 435.498 197.784C436.033 197.583 436.613 197.482 437.238 197.482C437.851 197.482 438.426 197.583 438.961 197.784C439.508 197.973 439.976 198.247 440.367 198.604C440.768 198.96 441.081 199.39 441.304 199.892C441.538 200.383 441.655 200.935 441.655 201.548C441.655 201.972 441.616 202.363 441.538 202.72C441.46 203.066 441.354 203.395 441.22 203.707C441.097 204.019 440.947 204.321 440.768 204.611C440.601 204.889 440.423 205.179 440.233 205.481L437.639 209.53H434.577L437.355 205.297ZM435.33 201.649C435.33 202.184 435.503 202.631 435.849 202.987C436.206 203.333 436.669 203.506 437.238 203.506C437.807 203.506 438.264 203.333 438.61 202.987C438.967 202.631 439.145 202.184 439.145 201.649C439.145 201.113 438.967 200.673 438.61 200.327C438.264 199.97 437.807 199.792 437.238 199.792C436.669 199.792 436.206 199.97 435.849 200.327C435.503 200.673 435.33 201.113 435.33 201.649Z" fill="white"/>
<path d="M298.033 177.537C301.579 177.517 305.04 176.448 307.978 174.464C310.917 172.479 313.202 169.669 314.545 166.388C315.888 163.106 316.23 159.5 315.526 156.025C314.822 152.55 313.105 149.361 310.591 146.861C308.076 144.361 304.878 142.661 301.399 141.976C297.92 141.292 294.316 141.653 291.042 143.014C287.768 144.376 284.971 146.677 283.003 149.626C281.035 152.576 279.984 156.042 279.984 159.588C279.984 161.953 280.452 164.295 281.36 166.48C282.268 168.664 283.6 170.647 285.277 172.315C286.954 173.983 288.945 175.303 291.134 176.199C293.323 177.096 295.668 177.55 298.033 177.537Z" fill="#4E5F6D"/>
<path d="M297.116 163.074H291.945V160.966L296.781 153.604H299.525V160.966H301.048V163.074H299.525V165.45H297.116V163.074ZM297.116 156.883H297.082L294.455 160.966H297.116V156.883Z" fill="white"/>
<path d="M330.625 120.837C334.164 120.806 337.614 119.729 340.543 117.742C343.471 115.755 345.747 112.947 347.084 109.67C348.421 106.393 348.76 102.795 348.057 99.326C347.355 95.8575 345.643 92.674 343.136 90.1757C340.629 87.6774 337.44 85.9759 333.969 85.2849C330.499 84.5939 326.901 84.9444 323.629 86.2923C320.356 87.6401 317.556 89.9252 315.578 92.8603C313.601 95.7954 312.536 99.2494 312.516 102.788C312.503 105.162 312.961 107.515 313.863 109.711C314.765 111.907 316.094 113.902 317.773 115.58C319.451 117.259 321.446 118.588 323.642 119.49C325.838 120.393 328.191 120.851 330.565 120.837" fill="#4E5F6D"/>
<path d="M330.173 102.633H330.992C331.227 102.633 331.455 102.616 331.679 102.583C331.902 102.549 332.102 102.488 332.281 102.399C332.471 102.298 332.621 102.164 332.733 101.997C332.844 101.819 332.9 101.59 332.9 101.311C332.9 100.954 332.755 100.658 332.465 100.424C332.186 100.19 331.84 100.073 331.428 100.073C331.037 100.073 330.714 100.179 330.457 100.391C330.2 100.603 330.033 100.865 329.955 101.177L327.194 100.608C327.328 100.095 327.529 99.66 327.797 99.3031C328.064 98.935 328.382 98.6394 328.75 98.4162C329.118 98.1931 329.526 98.0314 329.972 97.931C330.429 97.8194 330.909 97.7637 331.411 97.7637C331.935 97.7637 332.437 97.8306 332.917 97.9645C333.408 98.0872 333.837 98.288 334.205 98.5668C334.573 98.8346 334.863 99.1748 335.075 99.5875C335.298 100 335.41 100.491 335.41 101.06C335.41 101.718 335.237 102.282 334.891 102.75C334.545 103.219 334.043 103.52 333.385 103.654V103.704C333.742 103.748 334.055 103.854 334.322 104.022C334.601 104.189 334.835 104.395 335.025 104.641C335.215 104.886 335.36 105.165 335.46 105.477C335.561 105.79 335.611 106.119 335.611 106.465C335.611 107.056 335.494 107.575 335.259 108.021C335.036 108.467 334.729 108.841 334.339 109.142C333.96 109.432 333.508 109.649 332.984 109.795C332.471 109.94 331.924 110.012 331.344 110.012C330.284 110.012 329.369 109.767 328.6 109.276C327.841 108.785 327.339 108.01 327.094 106.95L329.738 106.331C329.827 106.755 330.005 107.089 330.273 107.335C330.552 107.58 330.959 107.703 331.494 107.703C332.041 107.703 332.443 107.563 332.699 107.285C332.967 106.995 333.101 106.626 333.101 106.18C333.101 105.846 333.028 105.589 332.883 105.411C332.749 105.221 332.571 105.081 332.348 104.992C332.125 104.903 331.874 104.853 331.595 104.842C331.316 104.819 331.037 104.808 330.758 104.808H330.173V102.633Z" fill="white"/>
<path d="M252.684 106.098C256.23 106.098 259.696 105.048 262.646 103.08C265.595 101.112 267.896 98.3143 269.257 95.0403C270.619 91.7663 270.98 88.1624 270.295 84.6833C269.611 81.2042 267.911 78.0058 265.411 75.4917C262.911 72.9775 259.722 71.2602 256.246 70.5564C252.771 69.8526 249.165 70.1938 245.884 71.5371C242.602 72.8804 239.792 75.1654 237.808 78.104C235.824 81.0426 234.754 84.5031 234.735 88.0488C234.722 90.4143 235.176 92.7591 236.072 94.9483C236.968 97.1376 238.288 99.1281 239.957 100.805C241.625 102.483 243.608 103.814 245.792 104.722C247.976 105.63 250.318 106.098 252.684 106.098Z" fill="#4E5F6D"/>
<path d="M249.312 91.1957L253.914 87.0627C254.148 86.8507 254.383 86.6109 254.617 86.3432C254.851 86.0754 254.968 85.7631 254.968 85.4061C254.968 85.0045 254.823 84.6922 254.533 84.4691C254.243 84.2348 253.903 84.1177 253.512 84.1177C253.044 84.1177 252.676 84.2627 252.408 84.5528C252.151 84.8428 252.006 85.1998 251.973 85.6237L249.463 85.4396C249.497 84.8261 249.625 84.2962 249.848 83.85C250.071 83.3926 250.367 83.0134 250.735 82.7122C251.103 82.411 251.532 82.1879 252.023 82.0429C252.525 81.8867 253.066 81.8086 253.646 81.8086C254.182 81.8086 254.684 81.8867 255.152 82.0429C255.621 82.1879 256.028 82.411 256.374 82.7122C256.72 83.0022 256.987 83.3703 257.177 83.8165C257.378 84.2627 257.478 84.7814 257.478 85.3727C257.478 85.7519 257.439 86.0978 257.361 86.4101C257.283 86.7113 257.171 86.9902 257.026 87.2467C256.892 87.4921 256.731 87.7208 256.541 87.9328C256.351 88.1447 256.145 88.3511 255.922 88.5519L252.324 91.6474H257.578V93.8562H249.312V91.1957Z" fill="white"/>
<path d="M214.176 223.408C217.726 223.408 221.196 222.356 224.148 220.383C227.1 218.411 229.4 215.608 230.759 212.328C232.117 209.048 232.473 205.439 231.78 201.957C231.088 198.476 229.378 195.277 226.868 192.767C224.358 190.257 221.159 188.547 217.678 187.855C214.196 187.162 210.587 187.518 207.307 188.876C204.027 190.235 201.224 192.535 199.252 195.487C197.279 198.439 196.227 201.909 196.227 205.459C196.227 210.22 198.118 214.785 201.484 218.151C204.85 221.517 209.415 223.408 214.176 223.408Z" fill="#A5CF4F"/>
<path d="M218.311 201.685H213.609L213.559 203.509C213.815 203.42 214.167 203.375 214.613 203.375C215.215 203.375 215.767 203.465 216.269 203.643C216.771 203.821 217.201 204.084 217.558 204.429C217.926 204.764 218.21 205.177 218.411 205.668C218.612 206.147 218.712 206.688 218.712 207.291C218.712 207.96 218.595 208.557 218.361 209.081C218.138 209.605 217.825 210.052 217.424 210.42C217.022 210.777 216.543 211.05 215.985 211.24C215.438 211.429 214.841 211.524 214.194 211.524C213.168 211.524 212.309 211.273 211.618 210.771C210.926 210.269 210.452 209.511 210.195 208.496L212.822 207.893C212.889 208.317 213.068 208.663 213.358 208.931C213.648 209.187 214.01 209.315 214.445 209.315C214.981 209.315 215.405 209.148 215.717 208.813C216.041 208.479 216.202 208.055 216.202 207.542C216.202 207.151 216.119 206.833 215.951 206.588C215.795 206.331 215.583 206.131 215.316 205.986C215.059 205.829 214.769 205.723 214.445 205.668C214.122 205.612 213.798 205.584 213.475 205.584C213.062 205.584 212.644 205.623 212.22 205.701C211.807 205.779 211.406 205.885 211.015 206.019L211.149 199.477H218.311V201.685Z" fill="white"/>
<path d="M60.0431 189.248C63.5931 189.248 67.0634 188.196 70.0151 186.223C72.9669 184.251 75.2675 181.448 76.626 178.168C77.9846 174.888 78.34 171.279 77.6474 167.797C76.9549 164.315 75.2454 161.117 72.7351 158.607C70.2249 156.097 67.0266 154.387 63.5448 153.695C60.063 153.002 56.454 153.357 53.1741 154.716C49.8943 156.074 47.0911 158.375 45.1188 161.327C43.1465 164.279 42.0938 167.749 42.0938 171.299C42.0938 176.059 43.9848 180.625 47.351 183.991C50.7171 187.357 55.2826 189.248 60.0431 189.248Z" fill="#A5CF4F"/>
<path d="M59.2905 168.383L56.9145 170.475L55.4922 168.835L59.3575 165.572H61.7V177.419H59.2905V168.383Z" fill="white"/>
<path d="M528.824 433.615C532.374 433.615 535.845 432.563 538.796 430.59C541.748 428.618 544.049 425.815 545.407 422.535C546.766 419.255 547.121 415.646 546.429 412.164C545.736 408.683 544.027 405.484 541.516 402.974C539.006 400.464 535.808 398.754 532.326 398.062C528.844 397.369 525.235 397.725 521.955 399.083C518.676 400.442 515.872 402.742 513.9 405.694C511.928 408.646 510.875 412.116 510.875 415.666C510.875 420.427 512.766 424.992 516.132 428.358C519.498 431.724 524.064 433.615 528.824 433.615Z" fill="#A5CF4F"/>
<path d="M522.197 411.696L519.821 413.787L518.398 412.148L522.264 408.885H524.606V420.732H522.197V411.696Z" fill="white"/>
<path d="M532.852 418.355H527.682V416.247L532.517 408.885H535.262V416.247H536.784V418.355H535.262V420.732H532.852V418.355ZM532.852 412.164H532.819L530.192 416.247H532.852V412.164Z" fill="white"/>
<path d="M566.161 459.881C569.706 459.881 573.173 458.831 576.122 456.863C579.072 454.895 581.372 452.097 582.734 448.823C584.095 445.549 584.456 441.946 583.772 438.467C583.087 434.987 581.388 431.789 578.887 429.275C576.387 426.761 573.198 425.043 569.723 424.34C566.248 423.636 562.642 423.977 559.36 425.32C556.079 426.664 553.269 428.949 551.285 431.887C549.3 434.826 548.231 438.286 548.211 441.832C548.198 444.198 548.653 446.542 549.549 448.732C550.445 450.921 551.765 452.911 553.433 454.589C555.101 456.266 557.084 457.597 559.269 458.505C561.453 459.414 563.795 459.881 566.161 459.881Z" fill="#FAA831"/>
<path d="M560.97 439.616L558.594 441.707L557.172 440.068L561.037 436.805H563.38V448.651H560.97V439.616Z" fill="white"/>
<path d="M574.704 439.013H570.002L569.952 440.837C570.209 440.748 570.56 440.703 571.006 440.703C571.609 440.703 572.161 440.793 572.663 440.971C573.165 441.15 573.594 441.412 573.951 441.758C574.32 442.092 574.604 442.505 574.805 442.996C575.006 443.475 575.106 444.016 575.106 444.619C575.106 445.288 574.989 445.885 574.755 446.409C574.531 446.934 574.219 447.38 573.818 447.748C573.416 448.105 572.936 448.378 572.379 448.568C571.832 448.757 571.235 448.852 570.588 448.852C569.562 448.852 568.703 448.601 568.011 448.099C567.32 447.597 566.846 446.839 566.589 445.824L569.216 445.221C569.283 445.645 569.461 445.991 569.751 446.259C570.042 446.515 570.404 446.644 570.839 446.644C571.375 446.644 571.798 446.476 572.111 446.142C572.434 445.807 572.596 445.383 572.596 444.87C572.596 444.479 572.512 444.162 572.345 443.916C572.189 443.66 571.977 443.459 571.709 443.314C571.453 443.158 571.163 443.052 570.839 442.996C570.516 442.94 570.192 442.912 569.869 442.912C569.456 442.912 569.038 442.951 568.614 443.029C568.201 443.107 567.799 443.213 567.409 443.347L567.543 436.805H574.704V439.013Z" fill="white"/>
<path d="M614.551 393.051C618.101 393.051 621.571 391.998 624.523 390.026C627.475 388.054 629.775 385.25 631.134 381.971C632.492 378.691 632.848 375.082 632.155 371.6C631.463 368.118 629.753 364.92 627.243 362.41C624.733 359.899 621.534 358.19 618.053 357.497C614.571 356.805 610.962 357.16 607.682 358.519C604.402 359.877 601.599 362.178 599.627 365.13C597.654 368.081 596.602 371.552 596.602 375.102C596.602 377.467 597.069 379.809 597.977 381.994C598.886 384.178 600.217 386.161 601.894 387.829C603.571 389.497 605.562 390.817 607.751 391.713C609.94 392.61 612.285 393.064 614.651 393.051" fill="#FAA831"/>
<path d="M617.778 373.231C617.912 373.198 618.045 373.17 618.179 373.148C618.313 373.125 618.453 373.114 618.598 373.114C619.155 373.114 619.663 373.215 620.12 373.415C620.578 373.616 620.968 373.89 621.292 374.235C621.615 374.581 621.866 374.994 622.045 375.474C622.223 375.942 622.312 376.444 622.312 376.98C622.312 377.593 622.195 378.151 621.961 378.653C621.738 379.144 621.425 379.568 621.024 379.925C620.633 380.281 620.165 380.56 619.618 380.761C619.083 380.951 618.508 381.046 617.895 381.046C617.27 381.046 616.69 380.951 616.155 380.761C615.619 380.56 615.151 380.281 614.749 379.925C614.359 379.568 614.046 379.144 613.812 378.653C613.589 378.151 613.477 377.593 613.477 376.98C613.477 376.556 613.516 376.171 613.595 375.825C613.673 375.468 613.773 375.133 613.896 374.821C614.03 374.509 614.18 374.213 614.348 373.934C614.526 373.644 614.71 373.349 614.9 373.047L617.493 368.998H620.555L617.778 373.231ZM619.802 376.879C619.802 376.344 619.624 375.903 619.267 375.557C618.921 375.2 618.464 375.022 617.895 375.022C617.326 375.022 616.863 375.2 616.506 375.557C616.16 375.903 615.987 376.344 615.987 376.879C615.987 377.415 616.16 377.861 616.506 378.218C616.863 378.564 617.326 378.737 617.895 378.737C618.464 378.737 618.921 378.564 619.267 378.218C619.624 377.861 619.802 377.415 619.802 376.879Z" fill="white"/>
<path d="M607.892 371.809L605.516 373.901L604.094 372.261L607.959 368.998H610.302V380.845H607.892V371.809Z" fill="white"/>
<path d="M323.699 346.862C320.149 346.862 316.679 345.809 313.727 343.837C310.775 341.864 308.475 339.061 307.116 335.781C305.758 332.501 305.402 328.892 306.095 325.41C306.787 321.929 308.497 318.73 311.007 316.22C313.517 313.71 316.716 312 320.197 311.308C323.679 310.615 327.288 310.971 330.568 312.329C333.848 313.688 336.651 315.988 338.623 318.94C340.596 321.892 341.648 325.362 341.648 328.912C341.648 333.673 339.757 338.238 336.391 341.604C333.025 344.97 328.46 346.862 323.699 346.862Z" fill="#FAA831"/>
<path d="M327.651 326.39C327.651 325.843 327.55 325.369 327.35 324.968C327.138 324.555 326.853 324.215 326.496 323.947C326.128 323.668 325.704 323.462 325.225 323.328C324.745 323.194 324.232 323.127 323.685 323.127C323.139 323.127 322.625 323.194 322.146 323.328C321.666 323.462 321.248 323.668 320.891 323.947C320.534 324.215 320.249 324.555 320.037 324.968C319.825 325.369 319.719 325.843 319.719 326.39C319.719 327.037 319.898 327.589 320.255 328.046C320.601 328.504 321.092 328.827 321.727 329.017V329.05C321.013 329.24 320.467 329.586 320.088 330.088C319.708 330.579 319.519 331.192 319.519 331.928C319.519 332.497 319.636 332.999 319.87 333.434C320.093 333.869 320.4 334.232 320.79 334.522C321.17 334.801 321.61 335.013 322.112 335.158C322.614 335.303 323.139 335.375 323.685 335.375C324.232 335.375 324.756 335.303 325.258 335.158C325.76 335.013 326.206 334.801 326.597 334.522C326.976 334.232 327.283 333.869 327.517 333.434C327.74 332.999 327.852 332.497 327.852 331.928C327.852 331.192 327.662 330.579 327.283 330.088C326.903 329.586 326.357 329.24 325.643 329.05V329.017C326.279 328.827 326.775 328.504 327.132 328.046C327.478 327.589 327.651 327.037 327.651 326.39ZM325.141 326.741C325.141 327.109 325.007 327.422 324.739 327.678C324.472 327.935 324.12 328.063 323.685 328.063C323.25 328.063 322.899 327.935 322.631 327.678C322.363 327.422 322.229 327.109 322.229 326.741C322.229 326.384 322.363 326.077 322.631 325.821C322.899 325.564 323.25 325.436 323.685 325.436C324.12 325.436 324.472 325.564 324.739 325.821C325.007 326.077 325.141 326.384 325.141 326.741ZM325.342 331.577C325.342 331.99 325.191 332.341 324.89 332.631C324.589 332.921 324.187 333.066 323.685 333.066C323.183 333.066 322.782 332.921 322.48 332.631C322.179 332.341 322.029 331.99 322.029 331.577C322.029 331.153 322.179 330.796 322.48 330.506C322.782 330.216 323.183 330.071 323.685 330.071C324.187 330.071 324.589 330.216 324.89 330.506C325.191 330.796 325.342 331.153 325.342 331.577Z" fill="white"/>
<path d="M186.676 412.836C190.25 412.856 193.749 411.814 196.731 409.843C199.712 407.872 202.041 405.06 203.422 401.763C204.804 398.467 205.175 394.835 204.49 391.327C203.805 387.82 202.094 384.594 199.574 382.06C197.054 379.526 193.838 377.797 190.334 377.092C186.83 376.388 183.196 376.739 179.892 378.103C176.588 379.466 173.763 381.779 171.776 384.749C169.788 387.72 168.727 391.213 168.727 394.787C168.714 397.153 169.168 399.497 170.064 401.687C170.961 403.876 172.281 405.866 173.949 407.544C175.617 409.221 177.6 410.552 179.784 411.46C181.968 412.369 184.311 412.836 186.676 412.836Z" fill="#FAA831"/>
<path d="M189.177 391.251H183.32V388.941H191.988V391.15L187.253 400.788H184.324L189.177 391.251Z" fill="white"/>
<path d="M311.635 541.727C315.205 541.727 318.695 540.668 321.663 538.685C324.631 536.702 326.944 533.883 328.31 530.585C329.676 527.287 330.034 523.658 329.337 520.157C328.641 516.656 326.922 513.44 324.398 510.915C321.874 508.391 318.658 506.672 315.156 505.976C311.655 505.279 308.026 505.637 304.728 507.003C301.43 508.369 298.611 510.682 296.628 513.65C294.645 516.619 293.586 520.108 293.586 523.678C293.573 526.052 294.031 528.405 294.933 530.601C295.836 532.796 297.165 534.791 298.843 536.47C300.522 538.149 302.517 539.478 304.713 540.38C306.908 541.282 309.261 541.74 311.635 541.727Z" fill="#FAA831"/>
<path d="M305.798 519.311L303.422 521.402L302 519.763L305.865 516.5H308.208V528.346H305.798V519.311Z" fill="white"/>
<path d="M311.702 525.686L316.303 521.553C316.537 521.341 316.772 521.101 317.006 520.833C317.24 520.566 317.357 520.253 317.357 519.896C317.357 519.495 317.212 519.182 316.922 518.959C316.632 518.725 316.292 518.608 315.902 518.608C315.433 518.608 315.065 518.753 314.797 519.043C314.541 519.333 314.396 519.69 314.362 520.114L311.852 519.93C311.886 519.316 312.014 518.786 312.237 518.34C312.46 517.883 312.756 517.504 313.124 517.202C313.492 516.901 313.921 516.678 314.412 516.533C314.914 516.377 315.455 516.299 316.035 516.299C316.571 516.299 317.073 516.377 317.541 516.533C318.01 516.678 318.417 516.901 318.763 517.202C319.109 517.492 319.376 517.861 319.566 518.307C319.767 518.753 319.867 519.272 319.867 519.863C319.867 520.242 319.828 520.588 319.75 520.9C319.672 521.202 319.56 521.48 319.415 521.737C319.282 521.982 319.12 522.211 318.93 522.423C318.74 522.635 318.534 522.841 318.311 523.042L314.713 526.138H319.968V528.346H311.702V525.686Z" fill="white"/>
<path d="M41.6427 28.2392C41.1627 28.2392 40.7787 27.8712 40.7787 27.3752C40.7787 26.9112 41.1627 26.5272 41.6427 26.5272C42.1067 26.5272 42.4747 26.8952 42.4747 27.3752C42.4747 27.8552 42.1067 28.2392 41.6427 28.2392ZM39.2747 28.2392C38.7947 28.2392 38.4267 27.8712 38.4267 27.3752C38.4267 26.9112 38.7947 26.5272 39.2747 26.5272C39.7387 26.5272 40.1227 26.8952 40.1227 27.3752C40.1227 27.8552 39.7387 28.2392 39.2747 28.2392ZM45.5787 37.2312H40.7467C37.6747 37.2312 36.5547 35.7752 36.5547 33.5032C36.5547 31.3912 37.8507 29.5352 40.5867 29.5352C42.3467 29.5352 43.8027 30.0952 43.8027 30.0952V36.0632H45.5787V37.2312ZM42.3627 36.0632V31.0712C42.3627 31.0712 41.5787 30.7032 40.4267 30.7032C38.9387 30.7032 38.0427 31.7592 38.0427 33.3432C38.0427 35.1672 38.8907 36.0632 40.9547 36.0632H42.3627Z" fill="black"/>
<path d="M49.8947 39.6152C49.8947 40.0952 49.5267 40.4792 49.0627 40.4792C48.5827 40.4792 48.1987 40.1112 48.1987 39.6152C48.1987 39.1512 48.5827 38.7672 49.0627 38.7672C49.5267 38.7672 49.8947 39.1352 49.8947 39.6152ZM47.5427 39.6152C47.5427 40.0952 47.1587 40.4792 46.6947 40.4792C46.2147 40.4792 45.8467 40.1112 45.8467 39.6152C45.8467 39.1512 46.2147 38.7672 46.6947 38.7672C47.1587 38.7672 47.5427 39.1352 47.5427 39.6152ZM45.3347 37.2312V36.0632H48.5507V29.7112H50.0227V37.2312H45.3347Z" fill="black"/>
<path d="M52.9328 37.2312V25.9512H54.4048V36.0632H56.1648V37.2312H52.9328Z" fill="black"/>
<path d="M55.9284 37.2312V36.0632H56.4564C58.2324 36.0632 59.7044 35.7432 60.8244 35.2312C59.6884 34.1592 58.6164 32.9752 56.9844 32.4472L57.1124 31.4232C58.3604 30.4792 60.1364 29.5032 61.7364 29.5032C63.9124 29.5032 64.8244 30.6872 64.8244 31.9832C64.8244 33.1032 64.1684 34.3192 62.9044 35.2952C63.5764 35.7592 64.3124 36.0632 65.2084 36.0632H66.1844V37.2312H65.0004C63.6404 37.2312 62.6324 36.7352 61.7524 36.0472C60.3764 36.7672 58.5524 37.2312 56.3284 37.2312H55.9284ZM58.4884 31.8872C59.8804 32.4152 60.8884 33.5832 61.9604 34.5432C62.8724 33.8552 63.3524 33.0072 63.3524 32.1752C63.3524 31.3112 62.8084 30.6072 61.5764 30.6072C60.4724 30.6072 59.1924 31.3912 58.4884 31.8872ZM61.4324 27.9512C60.9524 27.9512 60.5684 27.5672 60.5684 27.0872C60.5684 26.6072 60.9524 26.2072 61.4324 26.2072C61.9124 26.2072 62.3124 26.5912 62.3124 27.0872C62.3124 27.5672 61.9124 27.9512 61.4324 27.9512Z" fill="black"/>
<path d="M65.9441 37.2312V36.0632H68.1841V25.9512H69.6561V36.0632H71.4161V37.2312H65.9441Z" fill="black"/>
<path d="M71.1784 37.2312V36.0632H73.4184V25.9512H74.8904V37.2312H71.1784Z" fill="black"/>
<path d="M86.1271 28.2392C85.6471 28.2392 85.2631 27.8712 85.2631 27.3752C85.2631 26.9112 85.6471 26.5272 86.1271 26.5272C86.5911 26.5272 86.9591 26.8952 86.9591 27.3752C86.9591 27.8552 86.5911 28.2392 86.1271 28.2392ZM83.7591 28.2392C83.2791 28.2392 82.9111 27.8712 82.9111 27.3752C82.9111 26.9112 83.2791 26.5272 83.7591 26.5272C84.2231 26.5272 84.6071 26.8952 84.6071 27.3752C84.6071 27.8552 84.2231 28.2392 83.7591 28.2392ZM90.0631 37.2312H85.2311C82.1591 37.2312 81.0391 35.7752 81.0391 33.5032C81.0391 31.3912 82.3351 29.5352 85.0711 29.5352C86.8311 29.5352 88.2871 30.0952 88.2871 30.0952V36.0632H90.0631V37.2312ZM86.8471 36.0632V31.0712C86.8471 31.0712 86.0631 30.7032 84.9111 30.7032C83.4231 30.7032 82.5271 31.7592 82.5271 33.3432C82.5271 35.1672 83.3751 36.0632 85.4391 36.0632H86.8471Z" fill="black"/>
<path d="M98.9551 37.2312H95.5151C93.6751 37.2312 92.6831 36.7352 92.1871 35.8712C91.8351 36.7512 91.0831 37.2312 90.0591 37.2312H89.8191V36.0632H90.1231C90.9391 36.0632 91.5311 35.5992 91.5311 33.7112C91.5311 31.3592 92.8911 29.5352 95.4351 29.5352C97.8351 29.5352 98.9551 30.8792 98.9551 33.3272V37.2312ZM97.5151 36.0632V33.5672C97.5151 31.5032 96.7471 30.7032 95.3231 30.7032C93.8991 30.7032 93.0031 31.7752 93.0031 33.5672C93.0031 35.2632 93.7711 36.0632 95.7071 36.0632H97.5151Z" fill="black"/>
<path d="M101.839 37.2312V25.9512H103.311V36.0632H105.071V37.2312H101.839Z" fill="black"/>
<path d="M115.907 37.2312H104.835V36.0632H106.723C107.059 36.0632 107.347 36.1112 107.347 36.1112C107.347 36.1112 106.691 35.6152 106.691 34.6552C106.691 33.1032 107.795 31.9992 109.571 31.9992C111.475 31.9992 112.371 33.3272 112.371 35.3592V36.0632H114.483V35.7432C114.483 31.7752 112.979 30.1272 109.683 30.1272C108.643 30.1272 107.299 30.3512 106.291 30.6872L106.131 29.6152C107.219 29.2792 108.627 29.0232 109.891 29.0232C113.747 29.0232 115.907 30.9432 115.907 35.7432V37.2312ZM111.091 36.0952V35.4072C111.091 34.0312 110.627 33.0072 109.475 33.0072C108.467 33.0072 107.987 33.6792 107.987 34.4952C107.987 35.5352 108.771 36.0952 109.779 36.0952H111.091Z" fill="black"/>
<path d="M580.354 567.614C579.874 567.614 579.49 567.246 579.49 566.75C579.49 566.286 579.874 565.902 580.354 565.902C580.818 565.902 581.186 566.27 581.186 566.75C581.186 567.23 580.818 567.614 580.354 567.614ZM577.986 567.614C577.506 567.614 577.138 567.246 577.138 566.75C577.138 566.286 577.506 565.902 577.986 565.902C578.45 565.902 578.834 566.27 578.834 566.75C578.834 567.23 578.45 567.614 577.986 567.614ZM584.29 576.606H579.458C576.386 576.606 575.266 575.15 575.266 572.878C575.266 570.766 576.562 568.91 579.298 568.91C581.058 568.91 582.514 569.47 582.514 569.47V575.438H584.29V576.606ZM581.074 575.438V570.446C581.074 570.446 580.29 570.078 579.138 570.078C577.65 570.078 576.754 571.134 576.754 572.718C576.754 574.542 577.602 575.438 579.666 575.438H581.074Z" fill="black"/>
<path d="M593.182 576.606H589.742C587.902 576.606 586.91 576.11 586.414 575.246C586.062 576.126 585.31 576.606 584.286 576.606H584.046V575.438H584.35C585.166 575.438 585.758 574.974 585.758 573.086C585.758 570.734 587.118 568.91 589.662 568.91C592.062 568.91 593.182 570.254 593.182 572.702V576.606ZM591.742 575.438V572.942C591.742 570.878 590.974 570.078 589.55 570.078C588.126 570.078 587.23 571.15 587.23 572.942C587.23 574.638 587.998 575.438 589.934 575.438H591.742Z" fill="black"/>
<path d="M596.066 576.606V565.326H597.538V575.438H599.298V576.606H596.066Z" fill="black"/>
<path d="M610.133 576.606H599.061V575.438H600.949C601.285 575.438 601.573 575.486 601.573 575.486C601.573 575.486 600.917 574.99 600.917 574.03C600.917 572.478 602.021 571.374 603.797 571.374C605.701 571.374 606.597 572.702 606.597 574.734V575.438H608.709V575.118C608.709 571.15 607.205 569.502 603.909 569.502C602.869 569.502 601.525 569.726 600.517 570.062L600.357 568.99C601.445 568.654 602.853 568.398 604.117 568.398C607.973 568.398 610.133 570.318 610.133 575.118V576.606ZM605.317 575.47V574.782C605.317 573.406 604.853 572.382 603.701 572.382C602.693 572.382 602.213 573.054 602.213 573.87C602.213 574.91 602.997 575.47 604.005 575.47H605.317Z" fill="black"/>
<path d="M546.195 28.1816V27.3656L549.779 26.8536V27.6696L546.195 28.1816ZM546.211 26.6776V25.8616L549.795 25.3496V26.1656L546.211 26.6776Z" fill="black"/>
<path d="M547.273 41.1816V29.9016H548.745V41.1816H547.273Z" fill="black"/>
<path d="M551.101 41.1816V40.0136H556.237C556.189 37.0856 555.037 35.4536 552.205 34.5896L552.573 33.3416C555.933 34.3816 557.597 36.2536 557.693 40.0136H558.925V41.1816H551.101Z" fill="black"/>
<path d="M562.482 44.4456C562.002 44.4456 561.618 44.0776 561.618 43.5816C561.618 43.1016 562.002 42.7176 562.482 42.7176C562.962 42.7176 563.362 43.0856 563.362 43.5816C563.362 44.0616 562.962 44.4456 562.482 44.4456ZM558.706 41.1816V40.0136H565.314C565.378 39.4536 565.426 38.8936 565.426 38.3656C565.426 35.9496 564.546 34.7656 561.922 34.7656C561.282 34.7656 560.738 34.7976 560.146 34.8776V33.7256C560.674 33.6456 561.346 33.5976 562.05 33.5976C565.57 33.5976 566.882 35.2136 566.882 38.2536C566.882 39.0216 566.818 40.0296 566.626 41.1816H558.706Z" fill="black"/>
<path d="M577.67 32.1896C577.19 32.1896 576.806 31.8216 576.806 31.3256C576.806 30.8616 577.19 30.4776 577.67 30.4776C578.134 30.4776 578.502 30.8456 578.502 31.3256C578.502 31.8056 578.134 32.1896 577.67 32.1896ZM575.302 32.1896C574.822 32.1896 574.454 31.8216 574.454 31.3256C574.454 30.8616 574.822 30.4776 575.302 30.4776C575.766 30.4776 576.15 30.8456 576.15 31.3256C576.15 31.8056 575.766 32.1896 575.302 32.1896ZM581.606 41.1816H576.774C573.702 41.1816 572.582 39.7256 572.582 37.4536C572.582 35.3416 573.878 33.4856 576.614 33.4856C578.374 33.4856 579.83 34.0456 579.83 34.0456V40.0136H581.606V41.1816ZM578.39 40.0136V35.0216C578.39 35.0216 577.606 34.6536 576.454 34.6536C574.966 34.6536 574.07 35.7096 574.07 37.2936C574.07 39.1176 574.918 40.0136 576.982 40.0136H578.39Z" fill="black"/>
<path d="M590.498 41.1816H587.058C585.218 41.1816 584.226 40.6856 583.73 39.8216C583.378 40.7016 582.626 41.1816 581.602 41.1816H581.362V40.0136H581.666C582.482 40.0136 583.074 39.5496 583.074 37.6616C583.074 35.3096 584.434 33.4856 586.978 33.4856C589.378 33.4856 590.498 34.8296 590.498 37.2776V41.1816ZM589.058 40.0136V37.5176C589.058 35.4536 588.29 34.6536 586.866 34.6536C585.442 34.6536 584.546 35.7256 584.546 37.5176C584.546 39.2136 585.314 40.0136 587.25 40.0136H589.058Z" fill="black"/>
<path d="M593.382 41.1816V29.9016H594.854V40.0136H596.614V41.1816H593.382Z" fill="black"/>
<path d="M607.45 41.1816H596.378V40.0136H598.266C598.602 40.0136 598.89 40.0616 598.89 40.0616C598.89 40.0616 598.234 39.5656 598.234 38.6056C598.234 37.0536 599.338 35.9496 601.114 35.9496C603.018 35.9496 603.914 37.2776 603.914 39.3096V40.0136H606.026V39.6936C606.026 35.7256 604.522 34.0776 601.226 34.0776C600.186 34.0776 598.842 34.3016 597.834 34.6376L597.674 33.5656C598.762 33.2296 600.17 32.9736 601.434 32.9736C605.29 32.9736 607.45 34.8936 607.45 39.6936V41.1816ZM602.634 40.0456V39.3576C602.634 37.9816 602.17 36.9576 601.018 36.9576C600.01 36.9576 599.53 37.6296 599.53 38.4456C599.53 39.4856 600.314 40.0456 601.322 40.0456H602.634Z" fill="black"/>
<defs>
<linearGradient id="paint0_linear_1256_7526" x1="648.641" y1="304.44" x2="0.78125" y2="304.44" gradientUnits="userSpaceOnUse">
<stop stop-color="#DBDBDB"/>
<stop offset="1" stop-color="white"/>
</linearGradient>
<linearGradient id="paint1_linear_1256_7526" x1="629.196" y1="631.217" x2="400.142" y2="402.184" gradientUnits="userSpaceOnUse">
<stop offset="0.15" stop-color="white" stop-opacity="0"/>
<stop offset="0.93" stop-color="#4E5F6E" stop-opacity="0.4"/>
</linearGradient>
<linearGradient id="paint2_linear_1256_7526" x1="152.985" y1="141.396" x2="419.248" y2="376.139" gradientUnits="userSpaceOnUse">
<stop stop-color="white"/>
<stop offset="1"/>
</linearGradient>
<linearGradient id="paint3_linear_1256_7526" x1="886.45" y1="202.504" x2="313.532" y2="-372.622" gradientUnits="userSpaceOnUse">
<stop offset="0.15" stop-color="white" stop-opacity="0"/>
<stop offset="0.23" stop-color="#FBFDF8" stop-opacity="0.04"/>
<stop offset="0.35" stop-color="#F2F8E5" stop-opacity="0.15"/>
<stop offset="0.5" stop-color="#E2F0C7" stop-opacity="0.32"/>
<stop offset="0.67" stop-color="#CCE49C" stop-opacity="0.56"/>
<stop offset="0.86" stop-color="#B1D566" stop-opacity="0.87"/>
<stop offset="0.93" stop-color="#A5CF4F"/>
</linearGradient>
<linearGradient id="paint4_linear_1256_7526" x1="329.82" y1="269.497" x2="35.0077" y2="-35.6219" gradientUnits="userSpaceOnUse">
<stop offset="0.15" stop-color="white" stop-opacity="0"/>
<stop offset="0.23" stop-color="#FBFDF8" stop-opacity="0.04"/>
<stop offset="0.35" stop-color="#F2F8E5" stop-opacity="0.15"/>
<stop offset="0.5" stop-color="#E2F0C7" stop-opacity="0.32"/>
<stop offset="0.67" stop-color="#CCE49C" stop-opacity="0.56"/>
<stop offset="0.86" stop-color="#B1D566" stop-opacity="0.87"/>
<stop offset="0.93" stop-color="#A5CF4F"/>
</linearGradient>
<linearGradient id="paint5_linear_1256_7526" x1="368.212" y1="352.633" x2="465.364" y2="460.531" gradientUnits="userSpaceOnUse">
<stop stop-color="white"/>
<stop offset="1"/>
</linearGradient>
<linearGradient id="paint6_linear_1256_7526" x1="503.068" y1="498.083" x2="292.478" y2="257.527" gradientUnits="userSpaceOnUse">
<stop offset="0.15" stop-color="white"/>
<stop offset="0.22" stop-color="#FFFCF8" stop-opacity="0.98"/>
<stop offset="0.33" stop-color="#FEF4E5" stop-opacity="0.92"/>
<stop offset="0.47" stop-color="#FEE6C5" stop-opacity="0.83"/>
<stop offset="0.62" stop-color="#FDD499" stop-opacity="0.7"/>
<stop offset="0.8" stop-color="#FBBC61" stop-opacity="0.54"/>
<stop offset="0.93" stop-color="#FAA831" stop-opacity="0.4"/>
</linearGradient>
</defs>
</svg>
