<svg width="669" height="635" viewBox="0 0 669 635" fill="none" xmlns="http://www.w3.org/2000/svg">
<path d="M662.324 1.33789V546.917C662.337 558.019 660.154 569.014 655.898 579.268C651.643 589.522 645.401 598.833 637.532 606.663C629.662 614.494 620.32 620.69 610.045 624.894C599.77 629.098 588.765 631.227 577.663 631.159L0.832273 628.347M669.164 8.69662L662.323 1.35737L655.503 8.69662M8.18717 621.567L0.807989 628.367L8.12734 635.228" stroke="#1E4387" stroke-width="0.937352" stroke-miterlimit="10"/>
<mask id="mask0_1735_10125" style="mask-type:luminance" maskUnits="userSpaceOnUse" x="0" y="0" width="646" height="613">
<path d="M645.578 0V546.895C645.578 564.35 638.644 581.09 626.302 593.433C613.959 605.776 597.219 612.709 579.764 612.709H0.00140381V65.8141C0.00140381 48.3591 6.93542 31.619 19.278 19.2765C31.6205 6.93397 48.3605 0 65.8155 0L645.578 0Z" fill="white"/>
</mask>
<g mask="url(#mask0_1735_10125)">
<path d="M0.78125 -3.75H648.641V612.629H0.78125V-3.75Z" fill="url(#paint0_linear_1735_10125)"/>
<path opacity="0.57" d="M646.327 229.152L648.641 611.772H190.554L646.327 229.152Z" fill="url(#paint1_linear_1735_10125)"/>
<mask id="mask1_1735_10125" style="mask-type:luminance" maskUnits="userSpaceOnUse" x="-283" y="-321" width="1254" height="1254">
<path d="M303.647 -320.196L970.742 267.928L384.558 932.824L-282.537 344.7L303.647 -320.196Z" fill="url(#paint2_linear_1735_10125)"/>
</mask>
<g mask="url(#mask1_1735_10125)">
<path d="M-0.210938 -19.6289H630.578V497.849H-0.210938V-19.6289Z" fill="url(#paint3_linear_1735_10125)"/>
<mask id="mask2_1735_10125" style="mask-type:luminance" maskUnits="userSpaceOnUse" x="2" y="-20" width="629" height="518">
<path d="M2.23279 -19.6465H630.578V497.832H2.23279V-19.6465Z" fill="white"/>
</mask>
<g mask="url(#mask2_1735_10125)">
<path d="M0.804688 -2.57422H611.383L0.804688 495.718V-2.57422Z" fill="url(#paint4_linear_1735_10125)"/>
</g>
</g>
<mask id="mask3_1735_10125" style="mask-type:luminance" maskUnits="userSpaceOnUse" x="-305" y="-321" width="1256" height="1255">
<path d="M356.552 -320.965L950.188 338.334L289.08 933.598L-304.555 274.299L356.552 -320.965Z" fill="url(#paint5_linear_1735_10125)"/>
</mask>
<g mask="url(#mask3_1735_10125)">
<mask id="mask4_1735_10125" style="mask-type:luminance" maskUnits="userSpaceOnUse" x="0" y="-3" width="648" height="615">
<path d="M530.293 -2.57031H647.602L646.325 229.155L190.552 611.775H0.967896V435.891L530.293 -2.57031Z" fill="white"/>
</mask>
<g mask="url(#mask4_1735_10125)">
<path d="M367.036 -323.054L952.078 345.234L281.524 932.26L-303.519 263.972L367.036 -323.054Z" fill="url(#paint6_linear_1735_10125)"/>
</g>
</g>
</g>
<path d="M41.6427 28.2392C41.1627 28.2392 40.7787 27.8712 40.7787 27.3752C40.7787 26.9112 41.1627 26.5272 41.6427 26.5272C42.1067 26.5272 42.4747 26.8952 42.4747 27.3752C42.4747 27.8552 42.1067 28.2392 41.6427 28.2392ZM39.2747 28.2392C38.7947 28.2392 38.4267 27.8712 38.4267 27.3752C38.4267 26.9112 38.7947 26.5272 39.2747 26.5272C39.7387 26.5272 40.1227 26.8952 40.1227 27.3752C40.1227 27.8552 39.7387 28.2392 39.2747 28.2392ZM45.5787 37.2312H40.7467C37.6747 37.2312 36.5547 35.7752 36.5547 33.5032C36.5547 31.3912 37.8507 29.5352 40.5867 29.5352C42.3467 29.5352 43.8027 30.0952 43.8027 30.0952V36.0632H45.5787V37.2312ZM42.3627 36.0632V31.0712C42.3627 31.0712 41.5787 30.7032 40.4267 30.7032C38.9387 30.7032 38.0427 31.7592 38.0427 33.3432C38.0427 35.1672 38.8907 36.0632 40.9547 36.0632H42.3627Z" fill="black"/>
<path d="M49.8947 39.6152C49.8947 40.0952 49.5267 40.4792 49.0627 40.4792C48.5827 40.4792 48.1987 40.1112 48.1987 39.6152C48.1987 39.1512 48.5827 38.7672 49.0627 38.7672C49.5267 38.7672 49.8947 39.1352 49.8947 39.6152ZM47.5427 39.6152C47.5427 40.0952 47.1587 40.4792 46.6947 40.4792C46.2147 40.4792 45.8467 40.1112 45.8467 39.6152C45.8467 39.1512 46.2147 38.7672 46.6947 38.7672C47.1587 38.7672 47.5427 39.1352 47.5427 39.6152ZM45.3347 37.2312V36.0632H48.5507V29.7112H50.0227V37.2312H45.3347Z" fill="black"/>
<path d="M52.9328 37.2312V25.9512H54.4048V36.0632H56.1648V37.2312H52.9328Z" fill="black"/>
<path d="M55.9284 37.2312V36.0632H56.4564C58.2324 36.0632 59.7044 35.7432 60.8244 35.2312C59.6884 34.1592 58.6164 32.9752 56.9844 32.4472L57.1124 31.4232C58.3604 30.4792 60.1364 29.5032 61.7364 29.5032C63.9124 29.5032 64.8244 30.6872 64.8244 31.9832C64.8244 33.1032 64.1684 34.3192 62.9044 35.2952C63.5764 35.7592 64.3124 36.0632 65.2084 36.0632H66.1844V37.2312H65.0004C63.6404 37.2312 62.6324 36.7352 61.7524 36.0472C60.3764 36.7672 58.5524 37.2312 56.3284 37.2312H55.9284ZM58.4884 31.8872C59.8804 32.4152 60.8884 33.5832 61.9604 34.5432C62.8724 33.8552 63.3524 33.0072 63.3524 32.1752C63.3524 31.3112 62.8084 30.6072 61.5764 30.6072C60.4724 30.6072 59.1924 31.3912 58.4884 31.8872ZM61.4324 27.9512C60.9524 27.9512 60.5684 27.5672 60.5684 27.0872C60.5684 26.6072 60.9524 26.2072 61.4324 26.2072C61.9124 26.2072 62.3124 26.5912 62.3124 27.0872C62.3124 27.5672 61.9124 27.9512 61.4324 27.9512Z" fill="black"/>
<path d="M65.9441 37.2312V36.0632H68.1841V25.9512H69.6561V36.0632H71.4161V37.2312H65.9441Z" fill="black"/>
<path d="M71.1784 37.2312V36.0632H73.4184V25.9512H74.8904V37.2312H71.1784Z" fill="black"/>
<path d="M86.1271 28.2392C85.6471 28.2392 85.2631 27.8712 85.2631 27.3752C85.2631 26.9112 85.6471 26.5272 86.1271 26.5272C86.5911 26.5272 86.9591 26.8952 86.9591 27.3752C86.9591 27.8552 86.5911 28.2392 86.1271 28.2392ZM83.7591 28.2392C83.2791 28.2392 82.9111 27.8712 82.9111 27.3752C82.9111 26.9112 83.2791 26.5272 83.7591 26.5272C84.2231 26.5272 84.6071 26.8952 84.6071 27.3752C84.6071 27.8552 84.2231 28.2392 83.7591 28.2392ZM90.0631 37.2312H85.2311C82.1591 37.2312 81.0391 35.7752 81.0391 33.5032C81.0391 31.3912 82.3351 29.5352 85.0711 29.5352C86.8311 29.5352 88.2871 30.0952 88.2871 30.0952V36.0632H90.0631V37.2312ZM86.8471 36.0632V31.0712C86.8471 31.0712 86.0631 30.7032 84.9111 30.7032C83.4231 30.7032 82.5271 31.7592 82.5271 33.3432C82.5271 35.1672 83.3751 36.0632 85.4391 36.0632H86.8471Z" fill="black"/>
<path d="M98.9551 37.2312H95.5151C93.6751 37.2312 92.6831 36.7352 92.1871 35.8712C91.8351 36.7512 91.0831 37.2312 90.0591 37.2312H89.8191V36.0632H90.1231C90.9391 36.0632 91.5311 35.5992 91.5311 33.7112C91.5311 31.3592 92.8911 29.5352 95.4351 29.5352C97.8351 29.5352 98.9551 30.8792 98.9551 33.3272V37.2312ZM97.5151 36.0632V33.5672C97.5151 31.5032 96.7471 30.7032 95.3231 30.7032C93.8991 30.7032 93.0031 31.7752 93.0031 33.5672C93.0031 35.2632 93.7711 36.0632 95.7071 36.0632H97.5151Z" fill="black"/>
<path d="M101.839 37.2312V25.9512H103.311V36.0632H105.071V37.2312H101.839Z" fill="black"/>
<path d="M115.907 37.2312H104.835V36.0632H106.723C107.059 36.0632 107.347 36.1112 107.347 36.1112C107.347 36.1112 106.691 35.6152 106.691 34.6552C106.691 33.1032 107.795 31.9992 109.571 31.9992C111.475 31.9992 112.371 33.3272 112.371 35.3592V36.0632H114.483V35.7432C114.483 31.7752 112.979 30.1272 109.683 30.1272C108.643 30.1272 107.299 30.3512 106.291 30.6872L106.131 29.6152C107.219 29.2792 108.627 29.0232 109.891 29.0232C113.747 29.0232 115.907 30.9432 115.907 35.7432V37.2312ZM111.091 36.0952V35.4072C111.091 34.0312 110.627 33.0072 109.475 33.0072C108.467 33.0072 107.987 33.6792 107.987 34.4952C107.987 35.5352 108.771 36.0952 109.779 36.0952H111.091Z" fill="black"/>
<path d="M580.354 567.614C579.874 567.614 579.49 567.246 579.49 566.75C579.49 566.286 579.874 565.902 580.354 565.902C580.818 565.902 581.186 566.27 581.186 566.75C581.186 567.23 580.818 567.614 580.354 567.614ZM577.986 567.614C577.506 567.614 577.138 567.246 577.138 566.75C577.138 566.286 577.506 565.902 577.986 565.902C578.45 565.902 578.834 566.27 578.834 566.75C578.834 567.23 578.45 567.614 577.986 567.614ZM584.29 576.606H579.458C576.386 576.606 575.266 575.15 575.266 572.878C575.266 570.766 576.562 568.91 579.298 568.91C581.058 568.91 582.514 569.47 582.514 569.47V575.438H584.29V576.606ZM581.074 575.438V570.446C581.074 570.446 580.29 570.078 579.138 570.078C577.65 570.078 576.754 571.134 576.754 572.718C576.754 574.542 577.602 575.438 579.666 575.438H581.074Z" fill="black"/>
<path d="M593.182 576.606H589.742C587.902 576.606 586.91 576.11 586.414 575.246C586.062 576.126 585.31 576.606 584.286 576.606H584.046V575.438H584.35C585.166 575.438 585.758 574.974 585.758 573.086C585.758 570.734 587.118 568.91 589.662 568.91C592.062 568.91 593.182 570.254 593.182 572.702V576.606ZM591.742 575.438V572.942C591.742 570.878 590.974 570.078 589.55 570.078C588.126 570.078 587.23 571.15 587.23 572.942C587.23 574.638 587.998 575.438 589.934 575.438H591.742Z" fill="black"/>
<path d="M596.066 576.606V565.326H597.538V575.438H599.298V576.606H596.066Z" fill="black"/>
<path d="M610.133 576.606H599.061V575.438H600.949C601.285 575.438 601.573 575.486 601.573 575.486C601.573 575.486 600.917 574.99 600.917 574.03C600.917 572.478 602.021 571.374 603.797 571.374C605.701 571.374 606.597 572.702 606.597 574.734V575.438H608.709V575.118C608.709 571.15 607.205 569.502 603.909 569.502C602.869 569.502 601.525 569.726 600.517 570.062L600.357 568.99C601.445 568.654 602.853 568.398 604.117 568.398C607.973 568.398 610.133 570.318 610.133 575.118V576.606ZM605.317 575.47V574.782C605.317 573.406 604.853 572.382 603.701 572.382C602.693 572.382 602.213 573.054 602.213 573.87C602.213 574.91 602.997 575.47 604.005 575.47H605.317Z" fill="black"/>
<path d="M546.195 28.1816V27.3656L549.779 26.8536V27.6696L546.195 28.1816ZM546.211 26.6776V25.8616L549.795 25.3496V26.1656L546.211 26.6776Z" fill="black"/>
<path d="M547.273 41.1816V29.9016H548.745V41.1816H547.273Z" fill="black"/>
<path d="M551.101 41.1816V40.0136H556.237C556.189 37.0856 555.037 35.4536 552.205 34.5896L552.573 33.3416C555.933 34.3816 557.597 36.2536 557.693 40.0136H558.925V41.1816H551.101Z" fill="black"/>
<path d="M562.482 44.4456C562.002 44.4456 561.618 44.0776 561.618 43.5816C561.618 43.1016 562.002 42.7176 562.482 42.7176C562.962 42.7176 563.362 43.0856 563.362 43.5816C563.362 44.0616 562.962 44.4456 562.482 44.4456ZM558.706 41.1816V40.0136H565.314C565.378 39.4536 565.426 38.8936 565.426 38.3656C565.426 35.9496 564.546 34.7656 561.922 34.7656C561.282 34.7656 560.738 34.7976 560.146 34.8776V33.7256C560.674 33.6456 561.346 33.5976 562.05 33.5976C565.57 33.5976 566.882 35.2136 566.882 38.2536C566.882 39.0216 566.818 40.0296 566.626 41.1816H558.706Z" fill="black"/>
<path d="M577.67 32.1896C577.19 32.1896 576.806 31.8216 576.806 31.3256C576.806 30.8616 577.19 30.4776 577.67 30.4776C578.134 30.4776 578.502 30.8456 578.502 31.3256C578.502 31.8056 578.134 32.1896 577.67 32.1896ZM575.302 32.1896C574.822 32.1896 574.454 31.8216 574.454 31.3256C574.454 30.8616 574.822 30.4776 575.302 30.4776C575.766 30.4776 576.15 30.8456 576.15 31.3256C576.15 31.8056 575.766 32.1896 575.302 32.1896ZM581.606 41.1816H576.774C573.702 41.1816 572.582 39.7256 572.582 37.4536C572.582 35.3416 573.878 33.4856 576.614 33.4856C578.374 33.4856 579.83 34.0456 579.83 34.0456V40.0136H581.606V41.1816ZM578.39 40.0136V35.0216C578.39 35.0216 577.606 34.6536 576.454 34.6536C574.966 34.6536 574.07 35.7096 574.07 37.2936C574.07 39.1176 574.918 40.0136 576.982 40.0136H578.39Z" fill="black"/>
<path d="M590.498 41.1816H587.058C585.218 41.1816 584.226 40.6856 583.73 39.8216C583.378 40.7016 582.626 41.1816 581.602 41.1816H581.362V40.0136H581.666C582.482 40.0136 583.074 39.5496 583.074 37.6616C583.074 35.3096 584.434 33.4856 586.978 33.4856C589.378 33.4856 590.498 34.8296 590.498 37.2776V41.1816ZM589.058 40.0136V37.5176C589.058 35.4536 588.29 34.6536 586.866 34.6536C585.442 34.6536 584.546 35.7256 584.546 37.5176C584.546 39.2136 585.314 40.0136 587.25 40.0136H589.058Z" fill="black"/>
<path d="M593.382 41.1816V29.9016H594.854V40.0136H596.614V41.1816H593.382Z" fill="black"/>
<path d="M607.45 41.1816H596.378V40.0136H598.266C598.602 40.0136 598.89 40.0616 598.89 40.0616C598.89 40.0616 598.234 39.5656 598.234 38.6056C598.234 37.0536 599.338 35.9496 601.114 35.9496C603.018 35.9496 603.914 37.2776 603.914 39.3096V40.0136H606.026V39.6936C606.026 35.7256 604.522 34.0776 601.226 34.0776C600.186 34.0776 598.842 34.3016 597.834 34.6376L597.674 33.5656C598.762 33.2296 600.17 32.9736 601.434 32.9736C605.29 32.9736 607.45 34.8936 607.45 39.6936V41.1816ZM602.634 40.0456V39.3576C602.634 37.9816 602.17 36.9576 601.018 36.9576C600.01 36.9576 599.53 37.6296 599.53 38.4456C599.53 39.4856 600.314 40.0456 601.322 40.0456H602.634Z" fill="black"/>
<defs>
<linearGradient id="paint0_linear_1735_10125" x1="648.641" y1="304.44" x2="0.78125" y2="304.44" gradientUnits="userSpaceOnUse">
<stop stop-color="#DBDBDB"/>
<stop offset="1" stop-color="white"/>
</linearGradient>
<linearGradient id="paint1_linear_1735_10125" x1="629.196" y1="631.217" x2="400.142" y2="402.184" gradientUnits="userSpaceOnUse">
<stop offset="0.15" stop-color="white" stop-opacity="0"/>
<stop offset="0.93" stop-color="#4E5F6E" stop-opacity="0.4"/>
</linearGradient>
<linearGradient id="paint2_linear_1735_10125" x1="152.985" y1="141.396" x2="419.248" y2="376.139" gradientUnits="userSpaceOnUse">
<stop stop-color="white"/>
<stop offset="1"/>
</linearGradient>
<linearGradient id="paint3_linear_1735_10125" x1="886.45" y1="202.504" x2="313.532" y2="-372.622" gradientUnits="userSpaceOnUse">
<stop offset="0.15" stop-color="white" stop-opacity="0"/>
<stop offset="0.23" stop-color="#FBFDF8" stop-opacity="0.04"/>
<stop offset="0.35" stop-color="#F2F8E5" stop-opacity="0.15"/>
<stop offset="0.5" stop-color="#E2F0C7" stop-opacity="0.32"/>
<stop offset="0.67" stop-color="#CCE49C" stop-opacity="0.56"/>
<stop offset="0.86" stop-color="#B1D566" stop-opacity="0.87"/>
<stop offset="0.93" stop-color="#A5CF4F"/>
</linearGradient>
<linearGradient id="paint4_linear_1735_10125" x1="329.82" y1="269.497" x2="35.0077" y2="-35.6219" gradientUnits="userSpaceOnUse">
<stop offset="0.15" stop-color="white" stop-opacity="0"/>
<stop offset="0.23" stop-color="#FBFDF8" stop-opacity="0.04"/>
<stop offset="0.35" stop-color="#F2F8E5" stop-opacity="0.15"/>
<stop offset="0.5" stop-color="#E2F0C7" stop-opacity="0.32"/>
<stop offset="0.67" stop-color="#CCE49C" stop-opacity="0.56"/>
<stop offset="0.86" stop-color="#B1D566" stop-opacity="0.87"/>
<stop offset="0.93" stop-color="#A5CF4F"/>
</linearGradient>
<linearGradient id="paint5_linear_1735_10125" x1="368.212" y1="352.633" x2="465.364" y2="460.531" gradientUnits="userSpaceOnUse">
<stop stop-color="white"/>
<stop offset="1"/>
</linearGradient>
<linearGradient id="paint6_linear_1735_10125" x1="503.068" y1="498.083" x2="292.478" y2="257.527" gradientUnits="userSpaceOnUse">
<stop offset="0.15" stop-color="white"/>
<stop offset="0.22" stop-color="#FFFCF8" stop-opacity="0.98"/>
<stop offset="0.33" stop-color="#FEF4E5" stop-opacity="0.92"/>
<stop offset="0.47" stop-color="#FEE6C5" stop-opacity="0.83"/>
<stop offset="0.62" stop-color="#FDD499" stop-opacity="0.7"/>
<stop offset="0.8" stop-color="#FBBC61" stop-opacity="0.54"/>
<stop offset="0.93" stop-color="#FAA831" stop-opacity="0.4"/>
</linearGradient>
</defs>
</svg>
