<svg width="22" height="18" viewBox="0 0 22 18" fill="none" xmlns="http://www.w3.org/2000/svg">
<path d="M3.27787 17.0187C3.65212 17.0003 4.01548 16.8871 4.33358 16.6897C4.65168 16.4923 4.91403 16.2171 5.0958 15.8905L10.3208 4.83679H10.7422L15.9672 15.8905C16.1452 16.2177 16.405 16.4936 16.7214 16.6913C17.0378 16.889 17.4001 17.0017 17.7731 17.0187H20.1809C20.3223 17.0428 20.4678 17.025 20.5993 16.9676C20.7307 16.9102 20.8424 16.8156 20.9205 16.6955C20.9987 16.5755 21.0399 16.4354 21.0389 16.2923C21.038 16.1493 20.995 16.0095 20.9153 15.8905L13.9687 1.20019C13.7971 0.859348 13.539 0.569209 13.2201 0.35865C12.9012 0.148091 12.5325 0.0244505 12.1508 0H8.87609C8.49498 0.0267855 8.12731 0.151427 7.80877 0.361727C7.49023 0.572027 7.23167 0.860836 7.0582 1.20019L0.123611 15.8905C0.0439205 16.0095 0.000951174 16.1493 1.56056e-05 16.2923C-0.000919963 16.4354 0.0402295 16.5755 0.118357 16.6955C0.196485 16.8156 0.308164 16.9102 0.439618 16.9676C0.571072 17.025 0.71651 17.0428 0.857984 17.0187H3.27787Z" fill="#A5CF4F"/>
</svg>
