<svg width="280" height="227" viewBox="0 0 280 227" fill="none" xmlns="http://www.w3.org/2000/svg">
<path d="M43.6241 226.861C48.6048 226.615 53.4406 225.106 57.6742 222.474C61.9077 219.843 65.3991 216.175 67.8183 211.821L137.356 64.4748H142.964L212.502 211.821C214.871 216.183 218.329 219.861 222.54 222.496C226.75 225.131 231.572 226.634 236.536 226.861H268.58C270.463 227.182 272.399 226.945 274.149 226.179C275.898 225.414 277.385 224.152 278.424 222.553C279.464 220.953 280.012 219.085 280 217.178C279.987 215.271 279.415 213.407 278.355 211.821L185.904 15.9986C183.621 11.4552 180.186 7.58759 175.942 4.78083C171.697 1.97407 166.791 0.325926 161.71 0H118.129C113.057 0.357053 108.164 2.01853 103.924 4.82184C99.685 7.62515 96.2438 11.475 93.9352 15.9986L1.6451 211.821C0.584523 213.407 0.0126588 215.271 0.000207689 217.178C-0.0122435 219.085 0.535401 220.953 1.57518 222.553C2.61496 224.152 4.10126 225.414 5.85073 226.179C7.6002 226.945 9.53579 227.182 11.4186 226.861H43.6241Z" fill="#A5CF4F" fill-opacity="0.1"/>
</svg>
