<svg width="737" height="737" viewBox="0 0 737 737" fill="none" xmlns="http://www.w3.org/2000/svg">
<path d="M367.933 736.018C416.264 736.037 464.125 726.535 508.782 708.054C553.439 689.572 594.018 662.473 628.2 628.306C662.381 594.138 689.496 553.571 707.996 508.921C726.496 464.272 736.018 416.415 736.018 368.084C638.422 368.084 544.821 406.844 475.796 475.84C406.771 544.837 367.973 638.422 367.933 736.018ZM0.000278812 367.631C-0.0592482 415.987 9.41366 463.88 27.8774 508.572C46.3411 553.264 73.4335 593.878 107.605 628.092C141.777 662.306 182.358 689.448 227.027 707.967C271.697 726.486 319.578 736.018 367.933 736.018C367.933 638.436 329.17 544.851 260.169 475.85C191.168 406.849 97.5822 368.084 0.000278812 368.084M367.933 368.084C367.953 319.754 358.451 271.893 339.97 227.235C321.488 182.578 294.39 142.001 260.222 107.819C226.055 73.637 185.487 46.5216 140.837 28.0218C96.1876 9.52196 48.3307 -4.06892e-06 0.000278812 0C0.000270602 97.5959 38.7598 191.197 107.756 260.221C176.753 329.246 270.338 368.044 367.933 368.084ZM367.933 368.084C367.933 270.462 406.714 176.839 475.743 107.81C544.772 38.7803 638.396 0 736.018 0C736.018 97.622 697.238 191.246 628.209 260.275C559.18 329.304 465.555 368.084 367.933 368.084Z" fill="#A4CE4E" fill-opacity="0.1"/>
</svg>
