<svg width="32" height="21" viewBox="0 0 32 21" fill="none" xmlns="http://www.w3.org/2000/svg">
<path d="M15.9998 0H0V20.5214H15.9998V0Z" fill="#0D6330"/>
<path d="M31.9998 0H16V20.5214H31.9998V0Z" fill="white"/>
<path d="M20.6551 12.862C20.0778 13.8949 19.1732 14.7064 18.0839 15.1688C16.9946 15.6311 15.7825 15.718 14.6384 15.4158C13.4943 15.1135 12.4832 14.4393 11.7644 13.4992C11.0456 12.5592 10.6599 11.4068 10.6681 10.2234C10.6763 9.04012 11.0778 7.89312 11.8095 6.96308C12.5411 6.03304 13.5614 5.37281 14.7096 5.08634C15.8577 4.79988 17.0685 4.90346 18.1514 5.38079C19.2342 5.85811 20.1275 6.68205 20.6905 7.72286C20.1575 7.01131 19.4146 6.48499 18.5666 6.21808C17.7185 5.95117 16.8081 5.95714 15.9636 6.23514C15.1191 6.51314 14.3832 7.04915 13.8595 7.76762C13.3359 8.4861 13.0509 9.35079 13.0447 10.2398C13.0386 11.1289 13.3117 11.9974 13.8254 12.723C14.3391 13.4487 15.0676 13.9948 15.9081 14.2844C16.7487 14.574 17.6589 14.5925 18.5106 14.3373C19.3622 14.0821 20.1123 13.5661 20.6551 12.862Z" fill="#CE002C"/>
<path d="M18.9724 7.72852L18.9801 9.65981L20.8194 10.2495L18.9848 10.8535L18.9925 12.7848L17.8509 11.2269L16.0164 11.8309L17.1454 10.2638L16.0039 8.70589L17.8433 9.29556L18.9724 7.72852Z" fill="#CE002C"/>
</svg>
