<svg width="32" height="22" viewBox="0 0 32 22" fill="none" xmlns="http://www.w3.org/2000/svg">
<path d="M32 0H0V7.11043H32V0Z" fill="#CD1428"/>
<path d="M32 7.11133H0V14.2218H32V7.11133Z" fill="white"/>
<path d="M32 14.2227H0V21.3331H32V14.2227Z" fill="black"/>
<path d="M14.3544 13.2362C14.3606 13.2383 14.3673 13.2386 14.3736 13.2369C14.3799 13.2352 14.3856 13.2317 14.39 13.2268C14.3943 13.2218 14.397 13.2157 14.3979 13.2092C14.3987 13.2028 14.3976 13.1962 14.3947 13.1903C14.3918 13.1844 14.3873 13.1795 14.3816 13.1763C14.3759 13.173 14.3694 13.1715 14.3629 13.172C14.3563 13.1724 14.3501 13.1748 14.3449 13.1788C14.3397 13.1828 14.3358 13.1882 14.3337 13.1944C14.331 13.2027 14.3316 13.2118 14.3355 13.2196C14.3393 13.2274 14.3461 13.2334 14.3544 13.2362Z" fill="#BB8E00"/>
<path d="M14.3669 13.5444C14.3587 13.5419 14.3499 13.5427 14.3422 13.5466C14.3346 13.5505 14.3288 13.5572 14.326 13.5652C14.3232 13.5733 14.3237 13.5822 14.3273 13.5899C14.3309 13.5977 14.3373 13.6037 14.3453 13.6068C14.3494 13.6083 14.3537 13.6089 14.358 13.6087C14.3623 13.6084 14.3665 13.6074 14.3704 13.6055C14.3743 13.6036 14.3778 13.601 14.3806 13.5977C14.3835 13.5945 14.3857 13.5907 14.3871 13.5866C14.3899 13.5783 14.3893 13.5693 14.3856 13.5614C14.3818 13.5535 14.3751 13.5474 14.3669 13.5444Z" fill="#BB8E00"/>
<path d="M14.4576 13.5701C14.4494 13.5673 14.4403 13.5679 14.4325 13.5718C14.4246 13.5757 14.4187 13.5825 14.4158 13.5907C14.4137 13.5969 14.4135 13.6036 14.4152 13.6099C14.4169 13.6163 14.4204 13.622 14.4253 13.6263C14.4302 13.6306 14.4363 13.6334 14.4428 13.6342C14.4493 13.6351 14.4559 13.634 14.4618 13.6311C14.4677 13.6282 14.4725 13.6236 14.4758 13.6179C14.4791 13.6122 14.4806 13.6057 14.4801 13.5992C14.4797 13.5926 14.4773 13.5864 14.4733 13.5812C14.4693 13.576 14.4638 13.5721 14.4576 13.5701Z" fill="#BB8E00"/>
<path d="M14.6065 13.6132C14.6004 13.611 14.5937 13.6107 14.5874 13.6124C14.581 13.614 14.5753 13.6175 14.571 13.6223C14.5666 13.6272 14.5638 13.6332 14.5628 13.6397C14.5619 13.6462 14.5629 13.6528 14.5657 13.6587C14.5686 13.6646 14.5731 13.6695 14.5787 13.6728C14.5843 13.6762 14.5908 13.6778 14.5973 13.6774C14.6038 13.6771 14.6101 13.6748 14.6154 13.6709C14.6206 13.667 14.6246 13.6616 14.6267 13.6554C14.6295 13.6472 14.629 13.6381 14.6252 13.6302C14.6215 13.6223 14.6147 13.6162 14.6065 13.6132Z" fill="#BB8E00"/>
<path d="M14.335 13.3183C14.3412 13.3204 14.3479 13.3206 14.3542 13.3189C14.3605 13.3172 14.3661 13.3137 14.3704 13.3088C14.3747 13.3039 14.3775 13.2978 14.3783 13.2913C14.3792 13.2849 14.3781 13.2783 14.3753 13.2724C14.3724 13.2666 14.3679 13.2617 14.3622 13.2584C14.3566 13.2551 14.3501 13.2536 14.3436 13.254C14.3371 13.2544 14.3308 13.2567 14.3256 13.2606C14.3204 13.2645 14.3165 13.2699 14.3144 13.2761C14.3129 13.2802 14.3123 13.2846 14.3126 13.2889C14.3128 13.2933 14.3139 13.2976 14.3159 13.3015C14.3178 13.3054 14.3205 13.3089 14.3238 13.3118C14.327 13.3147 14.3309 13.3169 14.335 13.3183Z" fill="#BB8E00"/>
<path d="M16.2982 13.4682C16.3029 13.4688 16.3076 13.4684 16.312 13.467C16.3165 13.4656 16.3206 13.4632 16.3241 13.4601C16.3276 13.457 16.3304 13.4532 16.3323 13.449C16.3342 13.4447 16.3352 13.4401 16.3352 13.4354C16.3352 13.4307 16.3342 13.4261 16.3323 13.4219C16.3304 13.4176 16.3276 13.4138 16.3241 13.4107C16.3206 13.4076 16.3165 13.4053 16.312 13.4039C16.3076 13.4025 16.3029 13.402 16.2982 13.4026C16.2896 13.4026 16.2813 13.406 16.2752 13.4121C16.2691 13.4182 16.2656 13.4265 16.2656 13.4352C16.2656 13.4395 16.2664 13.4438 16.268 13.4478C16.2696 13.4518 16.272 13.4555 16.275 13.4585C16.278 13.4616 16.2817 13.4641 16.2857 13.4657C16.2896 13.4674 16.2939 13.4682 16.2982 13.4682Z" fill="#BB8E00"/>
<path d="M16.4193 13.7734C16.415 13.7734 16.4107 13.7743 16.4067 13.776C16.4028 13.7776 16.3991 13.7801 16.3961 13.7831C16.3931 13.7862 16.3907 13.7899 16.3891 13.7939C16.3875 13.7979 16.3867 13.8022 16.3867 13.8065C16.3868 13.8152 16.3903 13.8234 16.3964 13.8296C16.4025 13.8358 16.4107 13.8393 16.4193 13.8396C16.4281 13.8396 16.4365 13.8361 16.4427 13.8299C16.4489 13.8237 16.4524 13.8153 16.4524 13.8065C16.4524 13.7977 16.4489 13.7893 16.4427 13.7831C16.4365 13.7769 16.4281 13.7734 16.4193 13.7734Z" fill="#BB8E00"/>
<path d="M16.4979 13.7695C16.4891 13.7695 16.4807 13.773 16.4745 13.7792C16.4683 13.7854 16.4648 13.7938 16.4648 13.8026C16.4648 13.8114 16.4683 13.8198 16.4745 13.826C16.4807 13.8322 16.4891 13.8357 16.4979 13.8357C16.5067 13.8357 16.5151 13.8322 16.5213 13.826C16.5275 13.8198 16.531 13.8114 16.531 13.8026C16.531 13.7938 16.5275 13.7854 16.5213 13.7792C16.5151 13.773 16.5067 13.7695 16.4979 13.7695Z" fill="#BB8E00"/>
<path d="M16.3433 13.5209C16.3433 13.5166 16.3424 13.5123 16.3407 13.5083C16.3391 13.5043 16.3366 13.5007 16.3335 13.4977C16.3305 13.4946 16.3268 13.4922 16.3228 13.4906C16.3188 13.489 16.3145 13.4882 16.3102 13.4883C16.3015 13.4883 16.2932 13.4917 16.2871 13.4978C16.281 13.5039 16.2776 13.5122 16.2776 13.5209C16.277 13.5255 16.2775 13.5302 16.2789 13.5347C16.2803 13.5391 16.2826 13.5432 16.2857 13.5467C16.2888 13.5502 16.2926 13.553 16.2969 13.5549C16.3011 13.5568 16.3057 13.5578 16.3104 13.5578C16.3151 13.5578 16.3197 13.5568 16.324 13.5549C16.3282 13.553 16.332 13.5502 16.3351 13.5467C16.3382 13.5432 16.3406 13.5391 16.342 13.5347C16.3434 13.5302 16.3438 13.5255 16.3433 13.5209Z" fill="#BB8E00"/>
<path d="M17.6473 13.5723C17.6358 13.573 17.6248 13.5772 17.6159 13.5845C17.607 13.5917 17.6006 13.6016 17.5977 13.6127C17.5977 13.6306 17.6197 13.6416 17.6436 13.6416C17.6531 13.6425 17.6627 13.6396 17.6701 13.6335C17.6775 13.6274 17.6822 13.6186 17.6831 13.609C17.6834 13.6042 17.6827 13.5994 17.681 13.5948C17.6794 13.5903 17.6768 13.5861 17.6734 13.5827C17.67 13.5792 17.6659 13.5765 17.6614 13.5747C17.6569 13.5729 17.6521 13.5721 17.6473 13.5723Z" fill="#BB8E00"/>
<path d="M15.289 13.3467C15.2555 13.3651 15.2601 13.3734 15.2743 13.3927C15.2886 13.4119 15.2867 13.4078 15.2807 13.462C15.2734 13.5277 15.2582 13.6282 15.2509 13.6751C15.2472 13.6976 15.2417 13.715 15.2261 13.7141C15.2105 13.7132 15.2027 13.6953 15.2027 13.6507C15.2028 13.6472 15.2016 13.6437 15.1993 13.641C15.197 13.6383 15.1938 13.6365 15.1903 13.636L15.1402 13.6282C15.1341 13.6207 15.1306 13.6113 15.1301 13.6016C15.1301 13.5842 15.148 13.574 15.1893 13.5796C15.221 13.5837 15.2233 13.5566 15.2123 13.5295C15.1972 13.4909 15.1586 13.4873 15.1554 13.4661C15.1521 13.445 15.1342 13.3927 15.1058 13.3871C15.0773 13.3816 15.0419 13.4243 15.0309 13.4427C15.0199 13.4611 14.985 13.4505 14.9547 13.4808C14.9345 13.502 14.9266 13.5267 14.9579 13.5355C14.9987 13.5456 15.0107 13.5612 15.0038 13.5777C14.9988 13.5881 14.9906 13.5966 14.9804 13.6021L14.9101 13.5897C14.904 13.5885 14.8983 13.5855 14.894 13.5809C14.8897 13.5764 14.887 13.5706 14.8862 13.5644C14.8807 13.5052 14.8587 13.4546 14.8477 13.4546C14.8366 13.4546 14.8054 13.4863 14.8017 13.5166C14.7981 13.547 14.8307 13.5336 14.8201 13.5965C14.8168 13.6189 14.8054 13.6393 14.788 13.6538C14.7707 13.6683 14.7486 13.6759 14.7259 13.6751C14.6892 13.6751 14.691 13.6898 14.703 13.699C14.7202 13.7086 14.7395 13.714 14.7593 13.7145C14.7791 13.7151 14.7987 13.7108 14.8164 13.7022C14.8347 13.6914 14.8503 13.6769 14.8624 13.6595C14.8704 13.6523 14.8802 13.6473 14.8908 13.6452C14.9014 13.6431 14.9123 13.6439 14.9225 13.6475C14.9533 13.6535 14.9684 13.6562 14.9969 13.6608C15.0016 13.6616 15.0064 13.6612 15.0109 13.6595C15.0153 13.6578 15.0192 13.6549 15.0222 13.6512C15.0318 13.6393 15.0451 13.6246 15.0552 13.6259C15.0653 13.6273 15.0672 13.6374 15.0741 13.6581C15.0757 13.663 15.0785 13.6674 15.0824 13.6708C15.0863 13.6742 15.091 13.6765 15.0961 13.6774L15.1315 13.6824C15.1338 13.6828 15.1359 13.6839 15.1374 13.6857C15.1389 13.6875 15.1398 13.6897 15.1398 13.6921C15.1398 13.738 15.1512 13.7789 15.1972 13.7839C15.2431 13.789 15.2821 13.7784 15.2977 13.7003C15.3189 13.5929 15.3437 13.383 15.3437 13.3568C15.3524 13.3118 15.3225 13.3288 15.289 13.3467ZM15.114 13.5304C15.1071 13.5391 15.0897 13.5364 15.08 13.535C15.0626 13.5323 15.0442 13.5189 15.0465 13.5098C15.0488 13.5006 15.0612 13.5015 15.075 13.4854C15.0888 13.4693 15.0952 13.4767 15.0984 13.4914C15.1044 13.5176 15.1228 13.5217 15.114 13.5309V13.5304Z" fill="#BB8E00"/>
<path d="M15.4201 13.697C15.4247 13.6511 15.4316 13.5487 15.4413 13.484C15.4491 13.4298 15.4472 13.4307 15.4652 13.4183C15.4831 13.4059 15.49 13.399 15.462 13.3724C15.4339 13.3457 15.4096 13.3223 15.4013 13.3664C15.3963 13.3921 15.3678 13.5878 15.3595 13.697C15.3559 13.7264 15.4169 13.7306 15.4201 13.697Z" fill="#BB8E00"/>
<path d="M16.5449 13.5454C16.515 13.5693 16.5205 13.5776 16.5375 13.5914C16.5545 13.6051 16.555 13.6093 16.5545 13.6515C16.5543 13.6576 16.552 13.6634 16.5478 13.6679C16.5437 13.6724 16.5381 13.6752 16.532 13.6759H16.4967C16.4883 13.6765 16.4801 13.6738 16.4737 13.6684C16.4673 13.663 16.4634 13.6553 16.4627 13.6469C16.4544 13.5441 16.4489 13.4077 16.4452 13.3815C16.4397 13.3356 16.4135 13.3595 16.3841 13.3843C16.3547 13.4091 16.3612 13.4159 16.3786 13.4302C16.3961 13.4444 16.392 13.4426 16.3984 13.4968C16.4057 13.5592 16.4057 13.5767 16.369 13.5914C16.3322 13.6061 16.3056 13.6258 16.3047 13.7241C16.3047 13.7263 16.3051 13.7284 16.306 13.7304C16.3069 13.7325 16.3081 13.7343 16.3097 13.7358C16.3113 13.7373 16.3132 13.7384 16.3152 13.7392C16.3173 13.7399 16.3195 13.7403 16.3217 13.7401C16.4135 13.736 16.5054 13.7305 16.5972 13.7227C16.6024 13.7222 16.6072 13.7197 16.6105 13.7158C16.6139 13.7118 16.6155 13.7067 16.6152 13.7016C16.6106 13.6295 16.606 13.5638 16.6037 13.5473C16.6 13.505 16.5738 13.5211 16.5449 13.5454ZM16.3956 13.686H16.3713C16.3693 13.686 16.3674 13.6852 16.3659 13.6838C16.3645 13.6825 16.3636 13.6806 16.3635 13.6786C16.3637 13.6725 16.366 13.6667 16.37 13.6621C16.374 13.6575 16.3795 13.6544 16.3855 13.6534C16.3993 13.6534 16.4011 13.657 16.402 13.6644C16.4024 13.6688 16.4024 13.6733 16.402 13.6777C16.4022 13.6787 16.4021 13.6797 16.4018 13.6807C16.4015 13.6816 16.4011 13.6825 16.4004 13.6833C16.3998 13.6841 16.399 13.6847 16.3981 13.6852C16.3972 13.6856 16.3962 13.6859 16.3952 13.686H16.3956Z" fill="#BB8E00"/>
<path d="M14.7267 13.5744C14.7451 13.5041 14.7634 13.4403 14.7671 13.4233C14.7754 13.3774 14.7418 13.3981 14.7065 13.4123C14.6711 13.4265 14.6697 13.4385 14.6817 13.4582C14.6936 13.478 14.6945 13.478 14.6817 13.5133C14.679 13.5208 14.6737 13.5271 14.6668 13.531C14.6599 13.535 14.6518 13.5364 14.644 13.5349L14.5861 13.5207C14.5827 13.5199 14.5795 13.5184 14.5767 13.5163C14.5739 13.5143 14.5715 13.5117 14.5697 13.5087C14.5679 13.5057 14.5667 13.5024 14.5663 13.4989C14.5658 13.4954 14.566 13.4919 14.5669 13.4885C14.5802 13.4389 14.5944 13.3861 14.5972 13.3742C14.6073 13.3283 14.5705 13.3618 14.5342 13.3742C14.498 13.3866 14.5012 13.3971 14.5127 13.416C14.5241 13.4348 14.5264 13.432 14.5127 13.4697C14.5081 13.4816 14.4938 13.4973 14.4814 13.494L14.458 13.4876C14.454 13.4866 14.4503 13.4848 14.447 13.4823C14.4437 13.4799 14.4409 13.4768 14.4388 13.4732C14.4368 13.4697 14.4354 13.4658 14.4348 13.4617C14.4342 13.4576 14.4345 13.4535 14.4355 13.4495C14.4608 13.3489 14.4929 13.2199 14.498 13.196C14.5072 13.1501 14.4778 13.1597 14.4419 13.1735C14.4061 13.1873 14.4089 13.1969 14.4208 13.2153C14.4328 13.2337 14.4323 13.2318 14.4208 13.2856C14.4093 13.3393 14.4038 13.3641 14.3643 13.3659C14.3248 13.3678 14.2954 13.3737 14.2633 13.4628C14.2621 13.4657 14.2616 13.4689 14.2617 13.472C14.2619 13.4751 14.2627 13.4782 14.264 13.481C14.2654 13.4838 14.2674 13.4863 14.2698 13.4883C14.2722 13.4903 14.275 13.4918 14.278 13.4927C14.4124 13.5328 14.5491 13.5684 14.6881 13.5997C14.6965 13.6011 14.7052 13.5993 14.7123 13.5946C14.7195 13.5899 14.7246 13.5827 14.7267 13.5744ZM14.3694 13.4486C14.3687 13.4502 14.3674 13.4515 14.3658 13.4523C14.3642 13.453 14.3624 13.4532 14.3606 13.4527L14.3368 13.4463C14.3358 13.4461 14.3349 13.4457 14.3341 13.4451C14.3333 13.4445 14.3326 13.4437 14.3322 13.4428C14.3317 13.4419 14.3315 13.441 14.3315 13.44C14.3315 13.439 14.3317 13.438 14.3322 13.4371C14.3342 13.4314 14.3382 13.4266 14.3434 13.4235C14.3486 13.4204 14.3547 13.4192 14.3606 13.4201C14.3744 13.4201 14.3744 13.4288 14.373 13.4362C14.3717 13.4435 14.3712 13.4431 14.3694 13.4486Z" fill="#BB8E00"/>
<path d="M16.2035 13.5643C16.1782 13.5693 16.1536 13.5774 16.1304 13.5886C16.1143 13.5921 16.0996 13.6002 16.088 13.612C16.0764 13.6237 16.0685 13.6386 16.0652 13.6547C16.0625 13.6749 16.0592 13.6827 16.0432 13.6809C16.0271 13.6791 16.0234 13.6758 16.0266 13.6166C16.0266 13.5923 16.0028 13.5863 15.9867 13.5858L15.7722 13.5803C15.7226 13.5803 15.7148 13.5652 15.7125 13.5303C15.7102 13.4954 15.6735 13.5041 15.651 13.5183C15.6284 13.5326 15.6238 13.5528 15.6335 13.5643C15.6446 13.5789 15.6506 13.5968 15.6505 13.6152C15.6505 13.6373 15.6477 13.6781 15.6179 13.6777H15.6142C15.6084 13.6773 15.6028 13.6751 15.5983 13.6714C15.5937 13.6677 15.5905 13.6627 15.5889 13.657C15.5733 13.5904 15.554 13.5569 15.543 13.556C15.5224 13.556 15.4888 13.5955 15.4893 13.6138C15.4893 13.6409 15.5256 13.6377 15.5292 13.6979C15.5297 13.7108 15.5275 13.7237 15.5229 13.7358C15.5183 13.7479 15.5113 13.759 15.5024 13.7683C15.4934 13.7777 15.4827 13.7852 15.4708 13.7903C15.459 13.7955 15.4462 13.7983 15.4333 13.7985C15.3942 13.7985 15.3768 13.815 15.4034 13.8255C15.426 13.833 15.4498 13.8358 15.4735 13.8337C15.4972 13.8317 15.5202 13.8248 15.5412 13.8136C15.5625 13.7981 15.5793 13.7772 15.5899 13.753C15.5991 13.7355 15.6133 13.7323 15.6413 13.7337C15.7088 13.7383 15.7722 13.7438 15.8402 13.7456C15.8468 13.7465 15.8531 13.7491 15.8584 13.7532C15.8636 13.7573 15.8676 13.7628 15.87 13.7691C15.8898 13.815 15.9081 13.8439 15.9486 13.8458C15.989 13.8476 16.0216 13.8136 16.0363 13.7645C16.0375 13.7601 16.0403 13.7564 16.0441 13.754C16.0479 13.7515 16.0525 13.7505 16.0569 13.7512C16.0919 13.7512 16.1718 13.747 16.2108 13.7461C16.2144 13.746 16.218 13.7453 16.2213 13.7438C16.2246 13.7423 16.2276 13.7402 16.23 13.7375C16.2325 13.7348 16.2343 13.7317 16.2355 13.7283C16.2367 13.7249 16.2372 13.7212 16.237 13.7176C16.2315 13.6662 16.2241 13.5656 16.2035 13.5643ZM15.9279 13.7447C15.9271 13.7305 15.9271 13.7162 15.9279 13.702C15.9279 13.6978 15.9263 13.6938 15.9233 13.6908C15.9204 13.6878 15.9165 13.6861 15.9123 13.6859C15.8737 13.6859 15.7745 13.6818 15.7492 13.6795C15.724 13.6772 15.7088 13.6754 15.7102 13.6607C15.7116 13.646 15.7345 13.6396 15.7975 13.6419C15.8434 13.6419 15.9091 13.6492 15.9426 13.6515C15.9482 13.652 15.9535 13.6545 15.9573 13.6587C15.9612 13.6629 15.9633 13.6683 15.9633 13.674C15.9633 13.6942 15.9633 13.7241 15.9633 13.7415C15.9646 13.7695 15.9325 13.7796 15.9302 13.7447H15.9279ZM16.1649 13.6763C16.1648 13.678 16.164 13.6797 16.1627 13.6809C16.1614 13.6821 16.1597 13.6827 16.158 13.6827H16.1332C16.1322 13.6827 16.1312 13.6825 16.1303 13.6821C16.1294 13.6817 16.1286 13.6811 16.128 13.6804C16.1273 13.6797 16.1268 13.6788 16.1265 13.6778C16.1262 13.6769 16.1262 13.6759 16.1263 13.6749C16.1268 13.6689 16.1294 13.6632 16.1336 13.6588C16.1377 13.6544 16.1433 13.6515 16.1493 13.6506C16.163 13.6506 16.1649 13.6556 16.1653 13.663C16.1658 13.6703 16.1676 13.6703 16.1672 13.6763H16.1649Z" fill="#BB8E00"/>
<path d="M17.7319 13.463C17.727 13.4576 17.7202 13.4543 17.713 13.4538C17.7058 13.4532 17.6986 13.4553 17.6929 13.4598C17.6798 13.4728 17.6641 13.4829 17.6469 13.4896C17.6414 13.4905 17.6358 13.4903 17.6304 13.4888C17.625 13.4874 17.62 13.4849 17.6157 13.4813C17.5877 13.4621 17.5753 13.4317 17.5666 13.3633C17.5542 13.2655 17.5408 13.2145 17.4825 13.1985C17.4379 13.189 17.3915 13.1927 17.3489 13.209C17.3458 13.2102 17.3431 13.212 17.3408 13.2143C17.3386 13.2166 17.3368 13.2194 17.3357 13.2225C17.3347 13.2255 17.3342 13.2288 17.3345 13.232C17.3348 13.2352 17.3358 13.2384 17.3374 13.2412C17.3452 13.255 17.3555 13.2672 17.3677 13.2774C17.3712 13.2802 17.3756 13.2817 17.3801 13.2817C17.3846 13.2817 17.3889 13.2802 17.3925 13.2774C17.4219 13.2549 17.4531 13.2439 17.477 13.2706C17.5003 13.3062 17.5127 13.3478 17.5128 13.3904C17.5169 13.425 17.5254 13.459 17.5381 13.4914C17.5392 13.4943 17.5398 13.4973 17.5397 13.5003C17.5395 13.5034 17.5388 13.5064 17.5374 13.5091C17.5361 13.5118 17.5342 13.5142 17.5319 13.5162C17.5295 13.5181 17.5268 13.5196 17.5238 13.5204H17.5197C17.5138 13.5217 17.5077 13.5215 17.5019 13.5198C17.4961 13.5182 17.4909 13.515 17.4866 13.5107C17.4785 13.4998 17.468 13.4908 17.4559 13.4845C17.4438 13.4781 17.4305 13.4745 17.4168 13.474C17.3792 13.479 17.3576 13.5199 17.3351 13.5557C17.3322 13.5604 17.3276 13.5637 17.3222 13.5649C17.3187 13.5657 17.315 13.5655 17.3116 13.5643C17.3081 13.5631 17.3051 13.5609 17.3029 13.558C17.2855 13.5355 17.2699 13.5038 17.2547 13.4868C17.2314 13.4679 17.2025 13.4574 17.1725 13.457C17.1601 13.457 17.1619 13.4152 17.1495 13.3766C17.1371 13.3381 17.1238 13.344 17.1068 13.3619C17.0898 13.3799 17.0724 13.3941 17.0747 13.412C17.077 13.4299 17.0995 13.4354 17.1059 13.4538C17.1123 13.4722 17.0797 13.4777 17.0526 13.508C17.0338 13.538 17.0227 13.5722 17.0205 13.6076C17.0197 13.6114 17.0177 13.6149 17.0148 13.6175C17.0119 13.6202 17.0083 13.6218 17.0044 13.6223C17.0001 13.623 16.9957 13.6222 16.9919 13.6202C16.9881 13.6181 16.9851 13.6148 16.9833 13.6108C16.9758 13.5924 16.9707 13.5731 16.9681 13.5534C16.9654 13.5286 16.958 13.5075 16.9057 13.5332C16.883 13.542 16.8637 13.5577 16.8506 13.578C16.8374 13.5984 16.8309 13.6224 16.8322 13.6467V13.677C16.8324 13.68 16.8333 13.683 16.8347 13.6857C16.8361 13.6884 16.838 13.6908 16.8404 13.6927C16.8427 13.6946 16.8455 13.6961 16.8484 13.6969C16.8513 13.6978 16.8544 13.698 16.8574 13.6976L16.9107 13.6907C16.9127 13.6904 16.9148 13.6905 16.9168 13.6911C16.9187 13.6916 16.9205 13.6926 16.922 13.694C16.9235 13.6954 16.9247 13.6971 16.9255 13.699C16.9262 13.7009 16.9265 13.7029 16.9263 13.705C16.9236 13.7408 16.891 13.7536 16.8584 13.7596C16.8354 13.7633 16.8303 13.7835 16.8524 13.7881C16.8734 13.7923 16.8952 13.7908 16.9155 13.7838C16.9357 13.7768 16.9538 13.7645 16.9677 13.7481C16.9783 13.7348 16.9852 13.719 16.9879 13.7022C16.9929 13.6783 17.0131 13.6737 17.0338 13.6705L17.0976 13.6604C17.1072 13.6586 17.1171 13.6593 17.1263 13.6625C17.1355 13.6658 17.1437 13.6714 17.15 13.6788C17.1771 13.7091 17.2148 13.7426 17.2492 13.7371C17.2979 13.7293 17.3112 13.6839 17.3144 13.6379C17.3148 13.6325 17.3169 13.6274 17.3205 13.6234C17.3241 13.6193 17.3289 13.6165 17.3342 13.6154C17.3386 13.6145 17.3432 13.6147 17.3476 13.6159C17.352 13.6171 17.356 13.6193 17.3594 13.6223C17.3695 13.6322 17.3817 13.6395 17.3951 13.6436C17.4085 13.6478 17.4227 13.6486 17.4366 13.6462C17.4651 13.6359 17.4902 13.618 17.5091 13.5943C17.5238 13.579 17.5424 13.5682 17.5629 13.5631C17.6267 13.5475 17.6906 13.5305 17.7535 13.5126C17.7559 13.5119 17.7581 13.5107 17.7598 13.509C17.7616 13.5072 17.7628 13.505 17.7634 13.5026C17.764 13.5002 17.764 13.4977 17.7633 13.4953C17.7626 13.493 17.7613 13.4908 17.7594 13.4891L17.7319 13.463ZM16.9208 13.6366L16.8979 13.6393C16.8966 13.6395 16.8952 13.6394 16.894 13.6391C16.8927 13.6387 16.8916 13.638 16.8906 13.6372C16.8896 13.6363 16.8889 13.6352 16.8884 13.634C16.8879 13.6327 16.8877 13.6314 16.8878 13.6301C16.8877 13.6235 16.8895 13.617 16.8929 13.6114C16.8963 13.6057 16.9012 13.6011 16.907 13.598C16.9199 13.5925 16.9254 13.6095 16.9282 13.626C16.9282 13.6281 16.9275 13.6302 16.9262 13.6319C16.9248 13.6336 16.9229 13.6347 16.9208 13.6352V13.6366ZM17.1156 13.6058H17.111C17.1065 13.6065 17.102 13.6055 17.0983 13.6031C17.0945 13.6006 17.0918 13.5968 17.0907 13.5925C17.0889 13.5866 17.0884 13.5804 17.0894 13.5744C17.0903 13.5683 17.0927 13.5626 17.0963 13.5576C17.1082 13.5433 17.1257 13.5452 17.1298 13.5677C17.1309 13.5751 17.1309 13.5827 17.1298 13.5902C17.1292 13.5937 17.1275 13.597 17.1249 13.5995C17.1224 13.6021 17.1191 13.6038 17.1156 13.6044V13.6058ZM17.1909 13.581C17.1853 13.5689 17.1829 13.5556 17.184 13.5424C17.184 13.5282 17.206 13.5323 17.2226 13.5493C17.2266 13.5541 17.2299 13.5595 17.2322 13.5654C17.2331 13.5675 17.2334 13.5698 17.2333 13.5721C17.2332 13.5744 17.2325 13.5766 17.2314 13.5786C17.2303 13.5807 17.2288 13.5824 17.227 13.5838C17.2251 13.5851 17.223 13.5861 17.2207 13.5865L17.2079 13.5893C17.2044 13.5897 17.2008 13.589 17.1977 13.5873C17.1947 13.5856 17.1923 13.5829 17.1909 13.5796V13.581ZM17.212 13.654C17.2074 13.6439 17.2579 13.6287 17.2579 13.6503C17.2579 13.6719 17.2212 13.6719 17.212 13.6526V13.654ZM17.4269 13.5851C17.4168 13.5851 17.3989 13.575 17.3998 13.5695C17.4018 13.5635 17.4053 13.558 17.4101 13.5538C17.4149 13.5496 17.4207 13.5468 17.4269 13.5456C17.4384 13.5456 17.4554 13.5553 17.454 13.5645C17.4517 13.5698 17.4479 13.5744 17.4431 13.5778C17.4384 13.5812 17.4328 13.5833 17.4269 13.5837V13.5851Z" fill="#BB8E00"/>
<path d="M16.7058 13.5195C16.6897 13.5195 16.6598 13.5898 16.6598 13.6045C16.6598 13.6192 16.7214 13.6307 16.7232 13.6876C16.726 13.7524 16.658 13.7794 16.6396 13.7895C16.6213 13.7997 16.6107 13.818 16.6676 13.8162C16.6838 13.8162 16.6997 13.8131 16.7146 13.807C16.7295 13.8008 16.7431 13.7918 16.7545 13.7804C16.7659 13.769 16.7749 13.7555 16.7811 13.7406C16.7872 13.7257 16.7903 13.7097 16.7903 13.6936C16.7903 13.6601 16.7827 13.627 16.7681 13.5968C16.7534 13.5667 16.7321 13.5402 16.7058 13.5195Z" fill="#BB8E00"/>
<path d="M17.4552 12.9675H17.4594C17.5025 12.9574 17.5466 12.9463 17.5893 12.9353C17.5941 12.934 17.5982 12.9309 17.6007 12.9266C17.6032 12.9223 17.6039 12.9172 17.6026 12.9124C17.6021 12.91 17.601 12.9078 17.5995 12.9058C17.5981 12.9039 17.5963 12.9022 17.5942 12.901C17.5921 12.8998 17.5898 12.8989 17.5873 12.8986C17.5849 12.8983 17.5825 12.8984 17.5801 12.899C17.5374 12.9101 17.4938 12.9211 17.4506 12.9312C17.4464 12.9325 17.4428 12.9353 17.4405 12.939C17.4381 12.9427 17.4371 12.9471 17.4376 12.9515C17.4382 12.9558 17.4402 12.9599 17.4435 12.9629C17.4467 12.9659 17.4508 12.9677 17.4552 12.9679V12.9675Z" fill="#BB8E00"/>
<path d="M17.1988 13.0199H17.202L17.3333 12.9942C17.3358 12.9937 17.3381 12.9928 17.3402 12.9914C17.3423 12.9899 17.344 12.9881 17.3454 12.986C17.3468 12.984 17.3477 12.9816 17.3482 12.9791C17.3486 12.9767 17.3486 12.9742 17.348 12.9717C17.3475 12.9693 17.3466 12.9671 17.3452 12.965C17.3438 12.963 17.3421 12.9613 17.34 12.96C17.338 12.9586 17.3357 12.9577 17.3332 12.9573C17.3308 12.9569 17.3284 12.9569 17.326 12.9575C17.2828 12.9662 17.2387 12.9749 17.1951 12.9827C17.1902 12.9837 17.1859 12.9866 17.1831 12.9907C17.1802 12.9948 17.1791 12.9999 17.1799 13.0048C17.1808 13.0091 17.1832 13.013 17.1866 13.0158C17.19 13.0185 17.1944 13.02 17.1988 13.0199Z" fill="#BB8E00"/>
<path d="M16.5627 13.0952C16.6087 13.0952 16.6546 13.0897 16.6964 13.0865C16.6989 13.0863 16.7013 13.0857 16.7035 13.0846C16.7057 13.0835 16.7077 13.0819 16.7093 13.08C16.7109 13.0782 16.7122 13.076 16.713 13.0736C16.7137 13.0713 16.714 13.0688 16.7138 13.0663C16.7134 13.0614 16.711 13.0568 16.7072 13.0535C16.7035 13.0503 16.6986 13.0486 16.6936 13.0489C16.6477 13.0525 16.605 13.0553 16.5609 13.058C16.5585 13.0581 16.556 13.0586 16.5538 13.0597C16.5516 13.0607 16.5496 13.0621 16.5479 13.0639C16.5462 13.0657 16.5449 13.0678 16.5441 13.0701C16.5432 13.0724 16.5429 13.0749 16.543 13.0773C16.5431 13.0798 16.5437 13.0822 16.5448 13.0845C16.5458 13.0867 16.5473 13.0887 16.5492 13.0904C16.551 13.092 16.5531 13.0933 16.5555 13.0942C16.5578 13.095 16.5603 13.0954 16.5627 13.0952Z" fill="#BB8E00"/>
<path d="M16.2812 13.0833C16.2814 13.0882 16.2834 13.0929 16.2869 13.0963C16.2904 13.0997 16.2952 13.1017 16.3001 13.1017C16.346 13.1017 16.3896 13.1017 16.4342 13.1017C16.4367 13.1016 16.4391 13.1011 16.4414 13.1C16.4436 13.099 16.4457 13.0976 16.4474 13.0958C16.4491 13.094 16.4504 13.0919 16.4513 13.0896C16.4522 13.0873 16.4526 13.0848 16.4526 13.0824C16.4523 13.0775 16.4502 13.0728 16.4466 13.0695C16.443 13.0661 16.4382 13.0643 16.4333 13.0645C16.3873 13.0645 16.3442 13.0645 16.3001 13.0645C16.2951 13.0645 16.2903 13.0664 16.2868 13.07C16.2832 13.0735 16.2813 13.0783 16.2812 13.0833Z" fill="#BB8E00"/>
<path d="M14.4125 12.932C14.4552 12.943 14.4993 12.954 14.5425 12.9641H14.5471C14.5514 12.9638 14.5555 12.9619 14.5587 12.9589C14.5618 12.9559 14.5638 12.9518 14.5643 12.9475C14.5648 12.9431 14.5637 12.9388 14.5613 12.9351C14.559 12.9314 14.5554 12.9287 14.5512 12.9274C14.508 12.9173 14.4644 12.9063 14.4221 12.8953C14.4198 12.8946 14.4173 12.8944 14.4148 12.8947C14.4123 12.895 14.41 12.8958 14.4078 12.897C14.4057 12.8983 14.4038 12.8999 14.4023 12.9019C14.4008 12.9039 14.3998 12.9062 14.3992 12.9086C14.3985 12.911 14.3983 12.9135 14.3986 12.916C14.3989 12.9185 14.3997 12.9209 14.4009 12.9231C14.4021 12.9253 14.4038 12.9272 14.4058 12.9287C14.4078 12.9302 14.4101 12.9314 14.4125 12.932Z" fill="#BB8E00"/>
<path d="M14.6636 12.9942L14.7949 13.0199H14.7986C14.8029 13.0199 14.8071 13.0184 14.8105 13.0156C14.8138 13.0129 14.8161 13.009 14.817 13.0048C14.8178 12.9999 14.8167 12.9948 14.8138 12.9907C14.811 12.9866 14.8067 12.9837 14.8018 12.9827C14.7582 12.9749 14.7141 12.9662 14.6709 12.9575C14.6685 12.9569 14.6661 12.9569 14.6637 12.9573C14.6613 12.9577 14.659 12.9586 14.6569 12.96C14.6549 12.9613 14.6531 12.963 14.6517 12.965C14.6503 12.9671 14.6494 12.9693 14.6489 12.9717C14.6483 12.9742 14.6483 12.9767 14.6487 12.9791C14.6492 12.9816 14.6501 12.984 14.6515 12.986C14.6529 12.9881 14.6546 12.9899 14.6567 12.9914C14.6588 12.9928 14.6611 12.9937 14.6636 12.9942Z" fill="#BB8E00"/>
<path d="M15.3036 13.0865C15.3495 13.0897 15.3927 13.093 15.4372 13.0953C15.4421 13.0953 15.4467 13.0934 15.4502 13.0901C15.4537 13.0867 15.4558 13.0822 15.4561 13.0773C15.4562 13.0749 15.4558 13.0725 15.455 13.0701C15.4541 13.0678 15.4528 13.0657 15.4512 13.0639C15.4495 13.0621 15.4475 13.0607 15.4452 13.0597C15.443 13.0587 15.4406 13.0581 15.4381 13.0581C15.3922 13.0553 15.3495 13.0526 15.3054 13.0489C15.3029 13.0487 15.3005 13.049 15.2981 13.0498C15.2957 13.0506 15.2936 13.0518 15.2917 13.0534C15.2898 13.055 15.2883 13.057 15.2872 13.0592C15.2861 13.0614 15.2854 13.0639 15.2852 13.0663C15.285 13.0688 15.2853 13.0713 15.2861 13.0736C15.2869 13.076 15.2881 13.0782 15.2897 13.08C15.2914 13.0819 15.2933 13.0835 15.2956 13.0846C15.2978 13.0857 15.3002 13.0864 15.3027 13.0865H15.3036Z" fill="#BB8E00"/>
<path d="M15.5614 13.0997C15.6073 13.0997 15.6509 13.0997 15.6955 13.0997C15.7004 13.0997 15.7051 13.0978 15.7086 13.0944C15.7121 13.0909 15.7142 13.0863 15.7143 13.0813C15.7143 13.0764 15.7123 13.0716 15.7088 13.068C15.7052 13.0645 15.7004 13.0625 15.6955 13.0625C15.6495 13.0625 15.6068 13.0625 15.5623 13.0625C15.5598 13.0624 15.5574 13.0628 15.5551 13.0636C15.5528 13.0644 15.5506 13.0657 15.5488 13.0674C15.547 13.0691 15.5456 13.0711 15.5446 13.0733C15.5436 13.0756 15.543 13.078 15.543 13.0804C15.5429 13.0829 15.5433 13.0854 15.5442 13.0877C15.5451 13.09 15.5465 13.0921 15.5482 13.0939C15.5499 13.0957 15.5519 13.0971 15.5542 13.0981C15.5564 13.0991 15.5589 13.0997 15.5614 13.0997Z" fill="#BB8E00"/>
<path d="M18.3127 8.84654C18.3058 8.68444 18.2328 8.55356 18.1125 8.48836C17.9921 8.42315 17.7505 8.39054 17.3358 8.63622C17.1356 8.7547 16.9399 8.85159 16.6235 8.83644C16.5431 8.69867 16.4453 8.42315 16.4536 7.98689C16.4591 7.70218 16.4403 7.52768 16.3245 7.43308C16.2088 7.33848 15.9162 7.29532 15.8675 7.29532C15.8491 7.29342 15.8307 7.29837 15.8157 7.30921C15.8007 7.32005 15.7902 7.33603 15.7863 7.3541C15.7118 7.33139 15.6344 7.31994 15.5566 7.32012C15.4983 7.32012 15.3426 7.32012 15.3426 7.54972C15.3426 7.5759 15.3426 7.62503 15.3798 7.62503C15.3928 7.62437 15.4052 7.61918 15.4147 7.61034C15.4263 7.60086 15.4397 7.59378 15.454 7.58952C15.4684 7.58526 15.4834 7.58391 15.4983 7.58554C15.564 7.58554 15.7073 7.66728 15.7073 7.91066C15.7073 8.09986 15.6705 8.39605 15.3743 8.83919C15.0602 8.85343 14.8654 8.75699 14.6656 8.63897C14.2523 8.39329 14.0144 8.42314 13.889 8.49111C13.7636 8.55907 13.6957 8.68719 13.6888 8.8493L13.5156 13.0143C13.5155 13.0184 13.5166 13.0224 13.5187 13.0258C13.5208 13.0293 13.5239 13.032 13.5276 13.0337C13.5312 13.0355 13.5353 13.0361 13.5393 13.0355C13.5433 13.0349 13.5471 13.0331 13.5501 13.0304L14.8383 11.864L14.5687 12.8155C14.5297 12.8063 14.4907 12.7967 14.4521 12.7866C14.4165 12.7773 14.3787 12.7825 14.3469 12.8008L14.3391 12.8059C14.3049 12.797 14.2689 12.7981 14.2353 12.8092C14.2017 12.8203 14.1721 12.8408 14.1499 12.8683C14.1248 12.9035 14.1083 12.944 14.1016 12.9866C14.0949 13.0292 14.0982 13.0729 14.1113 13.114L14.098 13.1489C14.0617 13.1562 14.0276 13.1718 13.9983 13.1944C13.969 13.217 13.9453 13.2461 13.929 13.2793C13.9051 13.3183 13.8977 13.3252 13.8725 13.3252C13.8637 13.3236 13.8547 13.3256 13.8474 13.3307C13.84 13.3358 13.835 13.3436 13.8334 13.3523C13.8319 13.3611 13.8338 13.3701 13.8389 13.3775C13.844 13.3848 13.8518 13.3898 13.8605 13.3914C13.8849 13.3978 13.889 13.4079 13.8978 13.4534C13.9019 13.4919 13.9152 13.529 13.9364 13.5614C13.9576 13.5939 13.9863 13.6209 14.0199 13.6402V13.6862C14.0199 13.7244 14.0326 13.7616 14.056 13.7919C14.0793 13.8222 14.112 13.844 14.149 13.8538C14.6082 13.9759 15.2824 14.0457 16.0012 14.0457C16.72 14.0457 17.3951 13.9759 17.8534 13.8538C17.8904 13.844 17.9231 13.8222 17.9464 13.7919C17.9698 13.7616 17.9824 13.7244 17.9825 13.6862V13.6402C18.0161 13.6209 18.0448 13.5939 18.066 13.5614C18.0872 13.529 18.1005 13.4919 18.1046 13.4534C18.1134 13.4074 18.1175 13.3978 18.1418 13.3914C18.15 13.3892 18.1571 13.384 18.1616 13.3768C18.1661 13.3697 18.1677 13.3611 18.1662 13.3528C18.1648 13.3444 18.1603 13.3369 18.1536 13.3318C18.1468 13.3266 18.1383 13.3243 18.1299 13.3252C18.1046 13.3252 18.0973 13.3193 18.0739 13.2793C18.0574 13.2461 18.0336 13.2171 18.0042 13.1945C17.9749 13.1719 17.9407 13.1563 17.9044 13.1489L17.8911 13.114C17.9044 13.0729 17.9078 13.0292 17.9011 12.9866C17.8944 12.9439 17.8777 12.9034 17.8525 12.8683C17.8303 12.8408 17.8007 12.8203 17.7671 12.8092C17.7335 12.7981 17.6975 12.797 17.6633 12.8059L17.6555 12.8008C17.6236 12.7825 17.5859 12.7773 17.5503 12.7866C17.5117 12.7967 17.4727 12.8063 17.4337 12.8155L17.1641 11.864L18.4528 13.0304C18.4557 13.0332 18.4595 13.035 18.4635 13.0356C18.4675 13.0363 18.4716 13.0357 18.4752 13.0339C18.4789 13.0322 18.482 13.0294 18.484 13.0259C18.4861 13.0224 18.487 13.0184 18.4868 13.0143L18.3127 8.84654ZM15.958 7.44732C15.9671 7.44732 15.976 7.45002 15.9835 7.45506C15.9911 7.46011 15.997 7.46728 16.0005 7.47567C16.0039 7.48406 16.0048 7.49329 16.0031 7.5022C16.0013 7.51111 15.9969 7.51929 15.9905 7.52571C15.9841 7.53214 15.9759 7.53651 15.967 7.53828C15.9581 7.54005 15.9488 7.53914 15.9405 7.53566C15.9321 7.53219 15.9249 7.5263 15.9198 7.51875C15.9148 7.5112 15.9121 7.50232 15.9121 7.49324C15.9121 7.48106 15.9169 7.46938 15.9256 7.46077C15.9342 7.45216 15.9458 7.44732 15.958 7.44732ZM15.7435 7.90653C15.7437 7.87392 15.7411 7.84135 15.7357 7.80918C15.7344 7.79943 15.7344 7.78954 15.7357 7.77979C15.7394 7.75315 15.7504 7.7426 15.7817 7.7426C15.8151 7.74284 15.8484 7.74794 15.8804 7.75775C15.8804 7.75775 15.7238 7.46201 15.5208 7.46201C15.4551 7.46201 15.4106 7.5263 15.3913 7.5612C15.3907 7.56281 15.3896 7.56414 15.3881 7.56495C15.3866 7.56576 15.3848 7.56599 15.3832 7.56559C15.3815 7.56519 15.3801 7.56419 15.3791 7.56279C15.3782 7.56139 15.3777 7.55968 15.378 7.55799V7.54559C15.378 7.39359 15.4776 7.38625 15.5392 7.38625C15.6871 7.38625 15.772 7.55845 15.9006 7.54834C15.9231 7.58967 15.9465 7.60575 15.9686 7.60575C16.0076 7.60575 16.0145 7.55018 16.0499 7.53457C16.1138 7.5117 16.1813 7.50065 16.2492 7.50196C16.2681 7.50168 16.2869 7.50368 16.3052 7.50793C16.3207 7.5118 16.3349 7.51928 16.3469 7.52973C16.3589 7.54019 16.3682 7.55334 16.3741 7.56809C16.4118 7.66315 16.42 7.7977 16.415 7.9846C16.4053 8.47779 16.5367 8.80475 16.6405 8.92966C16.5657 8.92555 16.4926 8.90568 16.426 8.87134C16.3622 8.77031 16.2823 8.56091 16.257 8.13293H16.2194C16.24 8.48055 16.3011 8.7423 16.3952 8.89063C16.398 8.89889 16.4063 8.9269 16.4251 8.98247C16.3243 8.96392 16.2296 8.92068 16.1495 8.85664C16.1179 8.60694 16.1077 8.35498 16.1192 8.10354H16.082C16.0701 8.3562 16.0802 8.60942 16.1123 8.86032C16.0708 8.89731 16.0325 8.93788 15.998 8.98155C15.9704 8.95262 15.9121 8.8897 15.8749 8.85435C15.9586 8.60453 16.0005 8.34264 15.9989 8.0792H15.9617C15.9631 8.3412 15.9209 8.60161 15.8368 8.84975C15.772 8.91328 15.6966 8.96503 15.614 9.00267C15.6228 8.96272 15.6375 8.89935 15.6499 8.85067C15.8166 8.58663 15.8795 8.11869 15.8795 8.09894L15.8423 8.09435C15.8395 8.11363 15.7794 8.57193 15.6177 8.82909L15.6044 8.83736C15.5257 8.89225 15.4355 8.92866 15.3408 8.94389C15.7018 8.44473 15.7435 8.1141 15.7435 7.90653ZM15.0087 11.3929L15.0781 11.5472C15.0793 11.5499 15.0813 11.5523 15.0837 11.5541C15.0861 11.556 15.0889 11.5572 15.0918 11.5577H15.0955C15.1003 11.5576 15.1048 11.5559 15.1084 11.5527L15.349 11.3231L15.3904 11.706C15.3908 11.7097 15.3922 11.7132 15.3946 11.7161C15.397 11.719 15.4001 11.7211 15.4037 11.7221H15.4087C15.4115 11.7221 15.4143 11.7215 15.4169 11.7203C15.4194 11.7192 15.4217 11.7174 15.4234 11.7152L15.5755 11.5224L15.6898 11.9453L15.4877 12.2456L15.4037 11.8199C15.4031 11.8164 15.4014 11.8131 15.399 11.8105C15.3965 11.8079 15.3934 11.8061 15.3899 11.8052C15.3864 11.8043 15.3827 11.8045 15.3792 11.8057C15.3758 11.807 15.3728 11.8092 15.3706 11.8121L15.1915 12.0459L15.107 11.7736C15.106 11.7705 15.1043 11.7678 15.102 11.7656C15.0996 11.7634 15.0968 11.7619 15.0937 11.7612C15.0906 11.7603 15.0874 11.7602 15.0843 11.761C15.0812 11.7618 15.0784 11.7635 15.0762 11.7657L14.837 11.9999L15.0087 11.3929ZM16.9652 10.2407C16.995 10.1379 17.019 10.0335 17.0368 9.92798L17.1237 11.7189L17.0038 11.296L16.9652 10.2407ZM16.9762 11.3368L16.8991 11.5077L16.6566 11.2744L16.7025 10.8643C16.7346 10.8088 16.765 10.7518 16.7943 10.6935V10.6898L16.9762 11.3368ZM16.0021 11.6234C15.6778 11.3639 15.416 11.0348 15.236 10.6605C15.0561 10.2862 14.9625 9.87627 14.9623 9.46096C15.2333 9.48438 15.823 9.32963 16.0021 9.1611C16.1684 9.31815 16.691 9.46326 16.9813 9.46326C17.0029 9.46326 17.0226 9.46326 17.0414 9.46326C17.0413 9.8786 16.9478 10.2886 16.7679 10.663C16.5881 11.0373 16.3263 11.3665 16.0021 11.6261V11.6234ZM16.9441 12.9014L16.8922 12.9078L16.7865 12.7361C16.7846 12.7332 16.7819 12.7308 16.7788 12.7293C16.7756 12.7277 16.7721 12.7271 16.7686 12.7273C16.7652 12.7277 16.7619 12.7291 16.7592 12.7312C16.7565 12.7333 16.7543 12.7361 16.753 12.7393L16.6795 12.9294C16.6207 12.934 16.562 12.9372 16.5032 12.94L16.4508 12.7232L16.5316 12.3402L16.7186 12.6185C16.7205 12.6214 16.7232 12.6237 16.7264 12.6252C16.7295 12.6266 16.733 12.6272 16.7365 12.6268C16.74 12.6263 16.7432 12.6249 16.746 12.6227C16.7487 12.6205 16.7508 12.6176 16.7521 12.6144L16.8545 12.3232L17.0382 12.6226L16.9441 12.9014ZM17.0662 12.6598L17.215 12.8578C17.1388 12.8724 17.0621 12.8848 16.9854 12.8959L17.0662 12.6598ZM16.8513 12.9129C16.8054 12.9179 16.7645 12.922 16.7209 12.9257L16.7741 12.788L16.8513 12.9129ZM16.1978 13.1167C16.2235 13.1379 16.2391 13.153 16.2359 13.1787C16.2327 13.2045 16.1968 13.2316 16.1629 13.2527C16.1402 13.2646 16.1196 13.2801 16.1018 13.2986C16.0728 13.2366 16.0559 13.1415 16.0898 13.0832C16.0974 13.0701 16.108 13.0591 16.1208 13.0511C16.1336 13.043 16.1482 13.0383 16.1633 13.0373C16.1599 13.0445 16.1582 13.0523 16.1583 13.0603C16.1602 13.0722 16.1648 13.0836 16.1716 13.0936C16.1784 13.1036 16.1873 13.112 16.1978 13.1181V13.1167ZM16.1927 12.9983C16.1656 12.9946 16.138 12.9992 16.1135 13.0113C16.0889 13.0234 16.0686 13.0425 16.0549 13.0662C16.0459 13.083 16.0397 13.1012 16.0366 13.12H15.9603C15.9574 13.1011 15.9512 13.0829 15.942 13.0662C15.8605 13.0251 15.7787 12.9846 15.6967 12.9445C15.6425 12.9445 15.5883 12.9445 15.5337 12.9413L15.5672 12.8036L15.6554 12.8954L15.7895 12.7953L15.9231 11.8434L15.8653 12.7875L15.9984 12.9569L16.1316 12.7875L16.0738 11.8434L16.2079 12.7953L16.3415 12.8954L16.4297 12.8036L16.4632 12.9413C16.409 12.9413 16.3544 12.9441 16.3002 12.9445C16.2793 12.945 16.2587 12.9501 16.2401 12.9597C16.2215 12.9692 16.2053 12.9829 16.1927 12.9997V12.9983ZM15.8377 13.0368C15.8528 13.0379 15.8674 13.0426 15.8802 13.0506C15.893 13.0586 15.9037 13.0697 15.9112 13.0828C15.9438 13.1411 15.9277 13.2361 15.8988 13.2981C15.8813 13.2796 15.8608 13.264 15.8382 13.2522C15.8037 13.2311 15.7683 13.2091 15.7647 13.1783C15.761 13.1475 15.7771 13.1374 15.8028 13.1163C15.8285 13.0952 15.8418 13.0841 15.8423 13.0593C15.8423 13.0521 15.8407 13.0449 15.8377 13.0382V13.0368ZM15.2475 12.7393C15.2463 12.736 15.2442 12.7332 15.2414 12.7311C15.2387 12.729 15.2354 12.7277 15.2319 12.7273C15.2285 12.7271 15.2251 12.7277 15.222 12.7293C15.2189 12.7308 15.2163 12.7332 15.2145 12.7361L15.1084 12.9078L15.0569 12.9014L14.961 12.6226L15.1447 12.3232L15.2475 12.6144C15.2487 12.6176 15.2508 12.6205 15.2534 12.6226C15.2561 12.6248 15.2593 12.6262 15.2627 12.6268C15.2662 12.6272 15.2697 12.6266 15.2728 12.6252C15.276 12.6237 15.2787 12.6214 15.2806 12.6185L15.4675 12.3402L15.5484 12.7232L15.496 12.94C15.4372 12.9372 15.3784 12.934 15.3196 12.9294L15.2475 12.7393ZM15.2797 12.9257C15.2361 12.922 15.1929 12.9179 15.1493 12.9129L15.2264 12.788L15.2797 12.9257ZM15.0151 12.8959C14.9384 12.8848 14.8617 12.8724 14.7855 12.8578L14.9343 12.6598L15.0151 12.8959ZM15.507 11.1697C15.5557 11.2337 15.6068 11.2949 15.6604 11.3534L15.4225 11.6551L15.3835 11.2877L15.507 11.1697ZM15.3784 11.2418L15.3454 10.935C15.3885 11.0054 15.4345 11.0737 15.4831 11.1398L15.3784 11.2418ZM15.6861 11.3796C15.7275 11.4255 15.7706 11.4677 15.8152 11.5095L15.7348 11.8769L15.7174 11.9026L15.6044 11.4843L15.6861 11.3796ZM15.4983 12.2948L15.7128 11.9733L15.5686 12.6277L15.4983 12.2948ZM16.432 12.63L16.2878 11.9756L16.5023 12.2971L16.432 12.63ZM16.2832 11.9012L16.2657 11.8755L16.1858 11.5118C16.2317 11.47 16.274 11.4264 16.3163 11.3814L16.3962 11.4829L16.2832 11.9012ZM16.342 11.3534C16.3959 11.2946 16.447 11.2334 16.4954 11.1697L16.6175 11.2868L16.578 11.6542L16.342 11.3534ZM16.5183 11.1398C16.5664 11.0749 16.6123 11.008 16.6561 10.9392L16.624 11.2399L16.5183 11.1398ZM15.344 11.2726L15.1015 11.5058L15.0243 11.335L15.208 10.6838C15.208 10.6866 15.2103 10.6894 15.2117 10.6917C15.239 10.7474 15.2679 10.802 15.2985 10.8556L15.344 11.2726ZM14.9642 9.91145C14.9821 10.0185 15.006 10.1244 15.0358 10.2288L14.9968 11.2946L14.8769 11.7175L14.9642 9.91145ZM15.0804 11.8112L15.1667 12.089C15.1677 12.0923 15.1695 12.0952 15.172 12.0975C15.1745 12.0997 15.1776 12.1013 15.1809 12.1019C15.1844 12.1026 15.188 12.1023 15.1912 12.101C15.1945 12.0997 15.1973 12.0974 15.1993 12.0945L15.3752 11.8649L15.4583 12.287L15.2719 12.5625L15.1685 12.2695C15.1673 12.2662 15.1652 12.2633 15.1625 12.2611C15.1597 12.2589 15.1564 12.2576 15.1529 12.2571C15.1494 12.2568 15.1458 12.2575 15.1426 12.2591C15.1395 12.2607 15.1368 12.2632 15.135 12.2663L14.9481 12.5689L14.8204 12.0638L15.0804 11.8112ZM14.7988 12.1327L14.9201 12.6148L14.7446 12.8486C14.6987 12.8394 14.6528 12.8293 14.6046 12.8187L14.7988 12.1327ZM14.3648 12.8279C14.3763 12.8211 14.3889 12.8167 14.4021 12.8149C14.4153 12.8131 14.4287 12.8139 14.4415 12.8173C14.8519 12.925 15.2743 12.9798 15.6985 12.9804C15.7231 12.9804 15.7468 12.9893 15.7652 13.0056C15.7836 13.0218 15.7955 13.0442 15.7987 13.0685C15.7925 13.0749 15.7859 13.0809 15.7789 13.0864C15.7631 13.096 15.75 13.1094 15.741 13.1255C15.732 13.1416 15.7273 13.1598 15.7275 13.1783C15.7181 13.1812 15.7084 13.1828 15.6985 13.1829C15.52 13.1824 15.3416 13.1729 15.1639 13.1544C15.1663 13.1458 15.1678 13.1371 15.1685 13.1282C15.1764 13.0277 15.1121 12.9749 15.0634 12.9693C15.0278 12.9686 14.9933 12.9815 14.9672 13.0056C14.941 13.0296 14.9251 13.0629 14.9228 13.0984C14.9224 13.1065 14.9224 13.1146 14.9228 13.1227C14.7442 13.0955 14.5671 13.0589 14.3924 13.013C14.367 13.0061 14.3452 12.9897 14.3318 12.967C14.3387 12.9418 14.3387 12.9152 14.3318 12.8899C14.3301 12.8836 14.3288 12.8771 14.3281 12.8706C14.3364 12.8542 14.3491 12.8403 14.3648 12.8307V12.8279ZM15.1309 13.1255C15.1283 13.1451 15.1215 13.1639 15.1107 13.1805C15.1 13.1971 15.0857 13.2111 15.0689 13.2214C15.0538 13.233 15.0399 13.2461 15.0275 13.2605C15.0188 13.2442 15.0085 13.2288 14.9968 13.2146C14.983 13.2003 14.9725 13.1832 14.9661 13.1645C14.9597 13.1458 14.9574 13.1259 14.9596 13.1062C14.9724 13.03 15.0239 13.0079 15.0514 13.0079H15.0579C15.0854 13.012 15.1378 13.0451 15.1309 13.1282V13.1255ZM14.1784 12.8862C14.1924 12.8681 14.2108 12.8538 14.2318 12.8445C14.2528 12.8353 14.2758 12.8315 14.2987 12.8334C14.2923 12.8431 14.2883 12.8541 14.2871 12.8656C14.2859 12.8771 14.2875 12.8888 14.2918 12.8995C14.2994 12.9219 14.2994 12.9461 14.2918 12.9684C14.2817 12.9955 14.2505 13.0079 14.2174 13.0212C14.1885 13.0306 14.162 13.0463 14.1398 13.0672C14.1342 13.0364 14.1347 13.0048 14.1413 12.9742C14.1479 12.9437 14.1605 12.9147 14.1784 12.889V12.8862ZM18.0151 13.3087C18.0268 13.3303 18.0423 13.3496 18.061 13.3656C18.0496 13.3869 18.0422 13.4101 18.039 13.4341C18.0362 13.4662 18.0249 13.4971 18.0064 13.5236C17.9878 13.55 17.9626 13.5711 17.9333 13.5847C17.928 13.5875 17.9235 13.5917 17.9203 13.5969C17.9172 13.6021 17.9155 13.608 17.9154 13.6141V13.6779C17.9157 13.701 17.9083 13.7235 17.8944 13.7419C17.8805 13.7603 17.861 13.7737 17.8387 13.7799C17.3859 13.9006 16.7158 13.97 16.0017 13.97C15.2875 13.97 14.6179 13.9006 14.1646 13.7799C14.1423 13.7737 14.1228 13.7603 14.1089 13.7419C14.095 13.7235 14.0876 13.701 14.0879 13.6779V13.6141C14.0878 13.608 14.0861 13.6021 14.083 13.5969C14.0798 13.5917 14.0753 13.5875 14.07 13.5847C14.0407 13.5711 14.0155 13.55 13.9969 13.5236C13.9784 13.4971 13.9672 13.4662 13.9643 13.4341C13.9614 13.4101 13.9539 13.3869 13.9423 13.3656C13.961 13.3496 13.9765 13.3303 13.9882 13.3087C14.0012 13.2812 14.0208 13.2574 14.0454 13.2395C14.0699 13.2216 14.0986 13.2102 14.1288 13.2063C14.1348 13.2053 14.1405 13.2028 14.1453 13.199C14.1501 13.1953 14.1539 13.1903 14.1563 13.1847L14.165 13.1613C14.1812 13.119 14.2124 13.0842 14.2527 13.0635C14.2929 13.0429 14.3394 13.0378 14.3832 13.0492C14.563 13.0963 14.7451 13.1339 14.9288 13.1617C14.9378 13.1884 14.9517 13.2131 14.9697 13.2348C14.992 13.2577 15.0044 13.2886 15.0041 13.3206V13.3234C15.0037 13.3283 15.0052 13.3332 15.0083 13.337C15.0114 13.3408 15.0158 13.3434 15.0207 13.3441H15.023C15.0275 13.3441 15.0318 13.3425 15.0352 13.3395C15.0386 13.3366 15.0408 13.3325 15.0413 13.328V13.3252C15.0449 13.3098 15.0516 13.2952 15.0609 13.2823C15.0702 13.2695 15.0819 13.2586 15.0955 13.2504C15.1177 13.2338 15.1368 13.2134 15.152 13.1902C15.335 13.21 15.519 13.2201 15.7031 13.2205C15.7167 13.2205 15.7302 13.2183 15.7431 13.2141C15.7636 13.2432 15.7908 13.2668 15.8225 13.283C15.8593 13.3059 15.8832 13.322 15.8804 13.3413C15.8797 13.3454 15.8805 13.3496 15.8826 13.3532C15.8847 13.3568 15.888 13.3596 15.8919 13.3611H15.8988C15.9017 13.3611 15.9046 13.3604 15.9072 13.3591C15.9098 13.3578 15.9121 13.356 15.9139 13.3537C15.9467 13.3031 15.966 13.2449 15.97 13.1847H16.0398C16.0437 13.2449 16.063 13.3031 16.0958 13.3537C16.0976 13.356 16.0999 13.3578 16.1025 13.3591C16.1052 13.3604 16.108 13.3611 16.111 13.3611H16.1178C16.1218 13.3596 16.1251 13.3568 16.1272 13.3532C16.1293 13.3496 16.13 13.3454 16.1293 13.3413C16.1266 13.322 16.1505 13.3059 16.1872 13.283C16.2189 13.2668 16.2462 13.2432 16.2667 13.2141C16.2796 13.2183 16.293 13.2205 16.3066 13.2205C16.4907 13.2201 16.6747 13.21 16.8577 13.1902C16.8729 13.2134 16.892 13.2338 16.9142 13.2504C16.9278 13.2586 16.9396 13.2695 16.9489 13.2823C16.9582 13.2952 16.9648 13.3098 16.9684 13.3252C16.9684 13.3252 16.9684 13.3252 16.9684 13.328C16.9691 13.3324 16.9713 13.3365 16.9746 13.3394C16.978 13.3423 16.9823 13.344 16.9868 13.3441H16.9891C16.994 13.3435 16.9985 13.341 17.0016 13.3371C17.0047 13.3333 17.0061 13.3283 17.0056 13.3234V13.3252C17.0053 13.2932 17.0177 13.2623 17.0401 13.2394C17.0582 13.2178 17.0722 13.193 17.0814 13.1663C17.265 13.1385 17.4469 13.1009 17.6265 13.0538C17.6703 13.0424 17.7168 13.0475 17.7571 13.0681C17.7973 13.0888 17.8285 13.1236 17.8447 13.1659L17.8534 13.1893C17.8556 13.1947 17.8591 13.1995 17.8636 13.2032C17.8681 13.2069 17.8734 13.2094 17.8791 13.2104C17.9086 13.2147 17.9365 13.2261 17.9605 13.2437C17.9844 13.2613 18.0037 13.2846 18.0165 13.3115L18.0151 13.3087ZM16.8697 13.125C16.8628 13.0419 16.9156 13.0088 16.9418 13.0061H16.9482C16.9767 13.0061 17.0281 13.0281 17.0401 13.1043C17.0423 13.124 17.0402 13.144 17.0337 13.1627C17.0273 13.1815 17.0167 13.1986 17.0029 13.2127C16.9911 13.227 16.9808 13.2424 16.9721 13.2586C16.9597 13.2442 16.9458 13.2312 16.9308 13.2196C16.9144 13.2098 16.9003 13.1965 16.8895 13.1807C16.8788 13.165 16.8715 13.1471 16.8683 13.1282L16.8697 13.125ZM17.7092 12.833C17.7309 12.8323 17.7524 12.8367 17.772 12.8458C17.7917 12.855 17.8088 12.8687 17.8222 12.8858C17.8405 12.9117 17.8535 12.941 17.8605 12.972C17.8674 13.0029 17.8681 13.035 17.8626 13.0662C17.8402 13.0455 17.8136 13.0298 17.7845 13.0203C17.7515 13.007 17.7202 12.9946 17.7106 12.9675C17.7028 12.9452 17.7028 12.9209 17.7106 12.8986C17.7146 12.8878 17.7161 12.8762 17.7149 12.8648C17.7137 12.8533 17.7099 12.8422 17.7037 12.8325L17.7092 12.833ZM17.5572 12.8201C17.5656 12.8179 17.5742 12.8168 17.5829 12.8169C17.6021 12.8168 17.6209 12.8221 17.6371 12.8323C17.6534 12.8425 17.6664 12.857 17.6748 12.8743C17.674 12.8808 17.6728 12.8872 17.6711 12.8936C17.6644 12.9189 17.6644 12.9454 17.6711 12.9707C17.6576 12.9933 17.6359 13.0098 17.6105 13.0166C17.4357 13.0626 17.2587 13.0992 17.08 13.1264C17.0799 13.1182 17.0791 13.1101 17.0777 13.1021C17.0782 13.0841 17.0749 13.0662 17.0678 13.0497C17.0608 13.0331 17.0503 13.0183 17.037 13.0062C17.0237 12.9941 17.008 12.985 16.9908 12.9795C16.9737 12.9741 16.9556 12.9724 16.9378 12.9745C16.9199 12.9767 16.9028 12.9827 16.8874 12.9921C16.8721 13.0015 16.859 13.0141 16.849 13.0291C16.839 13.044 16.8324 13.0609 16.8295 13.0787C16.8267 13.0964 16.8277 13.1146 16.8325 13.1319C16.8331 13.1407 16.8345 13.1495 16.8366 13.1581C16.6592 13.1765 16.4809 13.186 16.3025 13.1865C16.2927 13.1864 16.2829 13.1849 16.2735 13.182C16.2735 13.1635 16.2687 13.1453 16.2596 13.1292C16.2506 13.1131 16.2375 13.0997 16.2216 13.0901C16.2147 13.0846 16.2081 13.0786 16.2019 13.0722C16.205 13.0479 16.2169 13.0255 16.2353 13.0092C16.2538 12.993 16.2775 12.9841 16.302 12.984C16.7257 12.983 17.1475 12.9279 17.5572 12.8201ZM17.3946 12.8201C17.3487 12.8307 17.3028 12.8408 17.2541 12.8499L17.0786 12.6162L17.2003 12.134L17.3946 12.8201ZM17.0511 12.573L16.8637 12.2704C16.8619 12.2674 16.8592 12.2649 16.8561 12.2632C16.8529 12.2616 16.8493 12.2609 16.8458 12.2612C16.8423 12.2617 16.8391 12.2631 16.8363 12.2653C16.8336 12.2675 16.8314 12.2704 16.8302 12.2736L16.7273 12.5666L16.5404 12.2911L16.6235 11.8691L16.7994 12.0987C16.8014 12.1016 16.8042 12.1038 16.8075 12.1051C16.8107 12.1064 16.8143 12.1067 16.8178 12.106C16.8211 12.1053 16.8242 12.1038 16.8268 12.1015C16.8294 12.0993 16.8313 12.0964 16.8325 12.0932L16.9184 11.8153L17.1783 12.0697L17.0511 12.573ZM17.1618 11.999L16.9229 11.7648C16.9206 11.7625 16.9178 11.7609 16.9146 11.7601C16.9115 11.7593 16.9082 11.7594 16.905 11.7602C16.9019 11.761 16.8991 11.7625 16.8967 11.7647C16.8944 11.7668 16.8927 11.7696 16.8917 11.7726L16.8072 12.0449L16.6281 11.8112C16.626 11.8083 16.623 11.806 16.6196 11.8047C16.6162 11.8034 16.6125 11.8032 16.6089 11.804C16.6054 11.8049 16.6022 11.8067 16.5997 11.8094C16.5972 11.8121 16.5956 11.8154 16.595 11.819L16.511 12.2447L16.3089 11.9444L16.4233 11.5214L16.5753 11.7143C16.5771 11.7165 16.5793 11.7182 16.5818 11.7194C16.5844 11.7206 16.5872 11.7212 16.59 11.7212H16.595C16.5986 11.7201 16.6018 11.718 16.6043 11.7152C16.6067 11.7123 16.6083 11.7088 16.6088 11.7051L16.6497 11.3221L16.8903 11.5518C16.894 11.555 16.8988 11.5568 16.9037 11.5568H16.9069C16.9099 11.5563 16.9127 11.555 16.9151 11.5532C16.9175 11.5514 16.9194 11.549 16.9206 11.5462L16.99 11.392L17.1618 11.999ZM18.1758 12.7273L18.0904 12.6502L17.9274 8.81945C17.8548 8.89476 17.7652 8.98017 17.6665 9.0642L17.8043 12.393L17.6913 12.2906L17.5567 9.15283C17.4901 9.20518 17.419 9.25524 17.3514 9.30024L17.4589 12.0803L17.3514 11.983L17.2421 9.36545C17.1884 9.39614 17.1325 9.42299 17.075 9.44581C17.075 9.44581 17.075 9.44122 17.075 9.43892V9.42193L17.0534 9.42469C17.0284 9.42759 17.0032 9.42897 16.9781 9.42882C16.6919 9.42882 16.1514 9.27866 16.0136 9.12528L15.9998 9.11012L15.986 9.12528C15.8308 9.29335 15.1975 9.45821 14.944 9.42469L14.9228 9.42193V9.45086C14.8641 9.42804 14.8071 9.40087 14.7524 9.36958L14.6431 11.9871L14.5357 12.0844L14.6431 9.30437C14.5738 9.25845 14.5054 9.20931 14.4383 9.15696L14.3033 12.2948L14.1903 12.3972L14.3281 9.06834C14.2293 8.9843 14.1398 8.89889 14.0672 8.82358L13.9042 12.6543L13.8192 12.7315L13.9845 8.77031C13.9418 8.77031 13.8578 8.80062 13.7191 8.90348L13.7214 8.85113C13.7274 8.70234 13.7935 8.58295 13.9019 8.52417C14.0185 8.4608 14.2417 8.43233 14.6418 8.67112C14.8406 8.78868 15.0354 8.88603 15.3431 8.87777C15.3252 8.90348 15.3063 8.93011 15.287 8.95675L15.2659 8.98522H15.3013C15.4198 8.98935 15.5387 8.92414 15.6003 8.88603C15.5833 8.95629 15.5667 9.03389 15.5663 9.03481L15.5585 9.07201L15.5924 9.05594C15.687 9.01428 15.7742 8.95786 15.851 8.88879C15.9002 8.93746 15.9814 9.02655 15.9824 9.02655L15.9975 9.04262L16.0108 9.02563C16.047 8.97924 16.0868 8.93579 16.1298 8.89568C16.2214 8.96907 16.3322 9.01465 16.449 9.02701H16.477L16.4674 9.00083C16.4559 8.96823 16.4471 8.94343 16.4412 8.92461C16.5183 8.9553 16.6006 8.97089 16.6837 8.97053H16.736L16.6956 8.93746C16.6754 8.91908 16.6578 8.89807 16.6433 8.87501C16.9546 8.88465 17.1485 8.7873 17.3505 8.66882C17.7506 8.43233 17.9738 8.45851 18.0904 8.52188C18.1993 8.58066 18.2649 8.70005 18.2709 8.84884V8.90119C18.1331 8.79832 18.0482 8.77031 18.0054 8.76801L18.1758 12.7273Z" fill="#BB8E00"/>
<path d="M16.4681 9.43643C16.3762 9.41071 16.1466 9.33954 16.0088 9.23943L16.0024 9.23438L15.9955 9.23943C15.8577 9.33954 15.6281 9.41071 15.5362 9.43643C15.372 9.48546 15.2023 9.51355 15.031 9.52001H15.0195V9.53149C15.0305 9.91879 15.1233 10.2994 15.2919 10.6483C15.4588 10.9942 15.6983 11.3001 15.9941 11.5451L16.0014 11.5511L16.0083 11.5451C16.3041 11.3001 16.5437 10.9942 16.7106 10.6483C16.8793 10.2995 16.9721 9.91883 16.9829 9.53149V9.52001H16.9714C16.8008 9.51346 16.6317 9.48538 16.4681 9.43643ZM16.3206 11.2035C16.2226 11.3184 16.1151 11.4249 15.9992 11.5217C15.883 11.4251 15.7754 11.3186 15.6777 11.2035V9.41255C15.791 9.37614 15.8991 9.32504 15.9992 9.26055C16.0992 9.32513 16.2073 9.37623 16.3206 9.41255V11.2035Z" fill="#BB8E00"/>
</svg>
