<svg width="32" height="22" viewBox="0 0 32 22" fill="none" xmlns="http://www.w3.org/2000/svg">
<path d="M32 0H0V21.3333H32V0Z" fill="#006B34"/>
<path d="M8.25221 6.33447C8.13799 6.37185 8.01703 6.39148 7.89491 6.39247C7.85827 6.21167 8.08145 5.99968 8.13386 5.83594C7.54493 6.11176 7.62157 6.44071 7.70611 6.55864C7.80079 6.68973 8.14739 6.69705 8.25221 6.33447Z" fill="white"/>
<path d="M17.1316 8.06831C17.0733 8.12687 16.9783 8.18686 16.9102 8.25018C17.1453 8.25542 17.3127 8.00213 17.3127 7.81026C17.3127 7.76694 17.3063 7.64648 17.2381 7.64648C17.1866 7.64648 17.1121 7.68933 17.0839 7.88453C17.1213 7.86966 17.1596 7.8593 17.1981 7.85359C17.1981 7.97309 17.1853 8.0126 17.1316 8.06831Z" fill="white"/>
<path d="M17.3127 6.20994C17.2366 6.23767 17.1562 6.25239 17.0749 6.25344C17.0504 6.11781 17.1996 5.95878 17.2347 5.83594C16.841 6.04286 16.8922 6.28927 16.9487 6.37811C17.0113 6.47609 17.2426 6.48194 17.3127 6.20994Z" fill="white"/>
<path d="M8.08835 8.02069C8.42782 8.02069 8.50066 7.79702 8.61273 7.43862C8.70612 7.14626 8.75282 6.8812 8.91065 6.74471C8.76589 7.13613 8.67343 7.95817 9.40608 8.01717C9.47799 8.82071 9.56298 9.66124 9.62602 10.0624C9.70213 9.99014 9.8128 9.94831 9.8128 9.1637C9.8128 8.75599 9.78618 8.34959 9.75209 7.97754C10.079 7.86042 10.248 7.52316 10.3339 7.21054C10.481 7.71997 10.7677 7.84325 11.0927 7.84325C11.4312 7.84325 11.6736 7.65569 11.6736 7.23784C11.6736 6.81075 11.3934 6.66546 11.3467 6.34184C11.4023 6.33406 11.4573 6.32333 11.5116 6.3097C11.4434 6.16043 11.2221 5.8377 11.1324 5.8377C11.0526 5.8377 10.9732 5.97507 10.9732 6.09307C10.9732 6.45632 11.4084 6.96134 11.4084 7.28187C11.4084 7.35496 11.3958 7.52095 11.1315 7.52095C10.835 7.52095 10.495 7.30565 10.4623 6.71785C10.4296 6.13005 10.3115 5.92267 10.2499 5.92267C10.1963 5.93517 10.1489 5.96483 10.116 6.0066C10.083 6.04836 10.0665 6.09963 10.0692 6.15163C10.0692 6.32775 10.2345 6.48714 10.2345 6.85875C10.2345 7.30521 9.96922 7.55046 9.71707 7.63587C9.67037 7.20394 9.62368 6.84334 9.6064 6.61658C9.6064 6.61658 9.72221 6.6474 9.77124 6.65401C9.80532 6.30793 9.59193 5.98564 9.49107 5.83594C9.41122 5.8672 9.26506 5.88613 9.26506 6.13578C9.26506 6.27359 9.31176 6.91599 9.37573 7.65657C9.16046 7.61254 9.00217 7.45711 9.00217 7.1696C9.00217 6.82132 9.17027 6.53469 9.17027 6.27183C8.72153 6.35064 8.57537 6.93888 8.48292 7.24621C8.39046 7.55354 8.35264 7.79702 8.10282 7.79702C7.853 7.79702 7.82265 7.50819 7.80724 7.38094C7.79183 7.25369 7.74467 7.08066 7.92071 6.82044C7.6242 6.96574 7.64894 7.21187 7.64894 7.31622C7.64894 7.42057 7.6214 8.02069 8.08835 8.02069Z" fill="white"/>
<path d="M13.2303 6.83823C13.1374 6.98545 13.0859 7.29563 13.0859 7.44979C13.0859 7.57895 13.0972 8.04376 13.5082 8.04376C13.7599 8.04376 13.8858 7.80812 13.9986 7.43266C14.0929 7.11971 14.1367 6.82388 14.2833 6.69934C14.2382 6.92804 14.1745 7.17665 14.1745 7.38729C14.1745 7.79422 14.4484 8.04977 14.8639 8.04977C15.3033 8.04977 15.5605 7.65812 15.6624 7.241C15.791 7.772 16.0996 7.88033 16.3418 7.88033C16.6229 7.88033 16.9098 7.68867 16.9098 7.24887C16.9098 6.7998 16.6608 6.60074 16.6161 6.25954C16.6733 6.27221 16.7324 6.273 16.7898 6.26185C16.6955 6.04566 16.4961 5.83594 16.4037 5.83594C16.3265 5.83594 16.3008 5.91696 16.3008 6.04056C16.3008 6.48685 16.7271 6.97989 16.7271 7.31924C16.7271 7.40257 16.6649 7.55766 16.4235 7.55766C16.096 7.55766 15.8524 7.26507 15.786 6.67805C15.7166 6.06371 15.7152 5.98362 15.6006 5.84751C15.565 5.86418 15.4134 5.96788 15.4134 6.14612C15.4134 6.3313 15.5907 6.37204 15.5907 6.81462C15.5907 7.48312 15.2108 7.73173 14.9113 7.73173C14.6352 7.73173 14.3785 7.58219 14.3785 7.21646C14.3785 6.85073 14.5431 6.52203 14.5373 6.25352C14.2161 6.25352 14.0446 6.86647 13.9233 7.21091C13.838 7.45396 13.7577 7.83358 13.5303 7.83358C13.3192 7.8308 13.1225 7.58312 13.2303 6.83823Z" fill="white"/>
<path d="M12.2529 9.08898V9.08094C12.3151 8.96539 12.3695 8.84591 12.4158 8.72326C12.4835 8.82654 12.5887 8.96559 12.7494 8.96559C12.9592 8.96559 13.2855 8.78675 13.2855 8.31596C13.2855 8.05709 13.1953 8.02222 13.1366 8.00747C13.0903 8.16209 13.0627 8.32164 13.0544 8.48273C12.9905 8.53984 12.9076 8.57166 12.8216 8.57214C12.7259 8.57214 12.5959 8.54845 12.6307 8.20553C12.4555 8.2328 12.3432 8.42416 12.2272 8.57974C12.2109 8.38615 12.1879 8.18004 12.1617 7.97483C12.808 7.59212 12.9777 7.63191 13.0219 7.4258C12.818 7.43921 12.5065 7.62878 12.1437 7.83355C12.0796 7.34622 12.0051 6.88258 11.9758 6.63176C12.0248 6.64897 12.0748 6.66315 12.1256 6.67424C12.159 6.32237 11.9559 5.9875 11.8548 5.83594C11.7776 5.86723 11.617 5.89451 11.6328 6.1489C11.672 6.765 11.8399 8.11611 11.9446 8.78675C11.6784 8.78675 11.6242 8.63205 11.617 8.34815C11.4748 8.38973 11.2789 8.60389 11.005 8.755C10.8741 8.48675 10.7193 8.31775 10.4363 8.31775C10.2106 8.31775 9.94842 8.55292 9.94842 8.93876C9.94842 9.26335 10.2355 9.31163 10.3776 9.31163C10.5565 9.2966 10.7318 9.25297 10.8967 9.18242C10.9043 9.20966 10.9082 9.23777 10.9084 9.26603C10.9084 9.50657 10.5473 9.77929 10.0689 10.0462C9.69881 10.2483 9.3164 10.4275 8.92391 10.5827C8.74338 10.1884 8.82462 9.46901 9.08594 9.06573C8.70592 9.42341 8.58948 10.0158 8.58948 10.407C8.58854 10.5056 8.60053 10.6039 8.62514 10.6994C8.33268 10.8076 8.06278 10.8952 7.85156 10.9511C7.97527 10.9763 8.10123 10.989 8.22752 10.9891C8.40086 10.9898 8.57403 10.978 8.74564 10.9538C8.90044 11.1621 9.16808 11.2699 9.53862 11.2699C10.6123 11.2632 12.2529 10.5201 12.2529 9.08898ZM10.4498 8.90702C10.2756 8.90702 10.2242 8.85202 10.2242 8.81492C10.2242 8.75948 10.3018 8.71164 10.3979 8.71164C10.4941 8.71164 10.6042 8.7787 10.7035 8.87527C10.6206 8.89624 10.5354 8.90691 10.4498 8.90702ZM9.30574 10.8554C9.27083 10.8557 9.23605 10.8512 9.20238 10.842C9.55532 10.7276 9.80129 10.5635 10.0387 10.4334C10.5749 10.1397 11.1544 9.7784 11.1544 9.20389C11.1546 9.15618 11.1491 9.1086 11.1381 9.06216C11.2474 9.00079 11.3462 8.92279 11.431 8.83101C11.5448 9.06931 11.6869 9.15694 11.9938 9.14398C12.0417 10.3551 10.3352 10.8554 9.30574 10.8554Z" fill="white"/>
<path d="M24.1215 6.48346C24.1713 6.50116 24.2221 6.51581 24.2736 6.52732C24.3075 6.16393 24.0712 5.68556 23.9823 5.68556C23.9255 5.68556 23.7625 5.73173 23.7753 5.98338C23.8106 6.68201 24.0734 8.92148 24.0867 9.53883C24.0954 9.69398 24.0814 9.84956 24.045 10.0006C24.0112 9.60809 23.7579 9.23408 23.0453 8.59825C22.9995 7.72694 22.9156 6.84962 22.8946 6.50885C22.942 6.52905 22.991 6.54527 23.0411 6.55733C23.0477 6.477 23.044 6.39615 23.0301 6.31677C23.3191 6.05634 23.4826 5.85502 23.5261 5.63477C23.3261 5.75329 23.1341 5.88502 22.9514 6.0291C22.8845 5.85548 22.7979 5.72204 22.7462 5.69664C22.6656 5.72019 22.5447 5.74651 22.5447 5.98662C22.5447 6.03279 22.5497 6.16069 22.5589 6.34078C22.3157 6.54071 22.0523 6.76651 21.778 7.00846C21.7546 6.7859 21.7349 6.61044 21.7235 6.51024C21.7733 6.52821 21.8243 6.54286 21.876 6.5541C21.9094 6.19117 21.7038 5.84486 21.6012 5.68833C21.5224 5.72111 21.3594 5.74882 21.3759 6.01155C21.385 6.15931 21.4075 6.42066 21.4377 6.74434C21.2797 6.50146 20.8698 6.1944 20.6207 6.15238C20.5904 6.25052 20.586 6.3549 20.6078 6.45527C20.6297 6.55565 20.677 6.64858 20.7452 6.72495C20.9284 6.92396 21.1331 7.14791 21.3566 7.38432C21.0983 7.6152 20.8359 7.85761 20.5781 8.09772C20.5323 7.45451 20.4526 6.84177 20.4127 6.51855C20.459 6.54547 20.5084 6.56671 20.5597 6.58181C20.5923 6.36386 20.5231 6.12745 20.4503 5.95845C20.3903 5.81993 20.3463 5.72758 20.279 5.72758C20.2236 5.72758 20.0857 5.77375 20.0857 5.97092C20.0857 6.18147 20.1773 7.35015 20.2794 8.37662C20.0395 8.6001 19.8041 8.81989 19.5801 9.02953C19.1871 8.66798 18.8473 8.37154 18.5602 8.10603C18.5144 7.41341 18.4566 6.7859 18.4397 6.50978C18.4871 6.52998 18.5362 6.54619 18.5863 6.55826C18.6197 6.19486 18.4218 5.8384 18.3206 5.68094C18.2423 5.71372 18.0916 5.74697 18.0916 5.98708C18.0916 6.1256 18.1324 6.8764 18.1892 7.7528C17.9967 7.56781 17.8226 7.36429 17.6694 7.14514H17.8924C17.8274 6.90088 17.4184 6.57719 17.1637 6.52686C17.0973 6.57304 17.0657 6.75266 17.2251 7.01816C17.4376 7.37232 17.8022 7.7865 18.2171 8.20531C18.2881 9.24562 18.3747 10.3418 18.4397 10.7532C18.6458 10.6027 18.6229 10.1627 18.6229 9.66674C18.6229 9.33105 18.6082 8.95057 18.5872 8.56916C18.8331 8.80466 19.0855 9.03691 19.3259 9.25578C19.0511 9.53283 18.8679 9.82003 18.8679 10.1844C18.8646 10.276 18.8936 10.3658 18.9499 10.4379C18.932 11.0843 19.232 11.4712 19.5838 11.4712C20.1622 11.4712 19.843 10.4092 20.5794 10.2762C20.7924 11.0201 20.9774 11.0095 21.3347 11.0095C21.8256 11.0095 22.029 10.5875 22.029 10.086C22.029 9.66674 21.9488 8.73262 21.8691 7.91118C22.1361 8.18037 22.4187 8.45327 22.7073 8.71277C22.77 9.58408 22.8401 10.4101 22.8946 10.7551C23.1002 10.6045 23.0778 10.1645 23.0778 9.66858C23.0778 9.46772 23.0727 9.25301 23.064 9.02768C23.3887 9.31904 23.7125 9.66535 23.9168 10.2675C23.5555 10.8059 22.7095 11.0524 22.3509 11.2796C22.661 11.4052 23.664 11.0949 24.0093 10.5962C24.2383 10.2642 24.3547 9.8325 24.3547 9.31996C24.356 8.535 24.1792 6.97983 24.1215 6.48346ZM21.4459 6.8113C21.4524 6.8821 21.4592 6.95505 21.4666 7.03016C21.3997 6.94936 21.3424 6.8764 21.2921 6.80991L21.4459 6.8113ZM19.5196 9.44925C19.5196 9.44925 19.7518 9.59886 19.7518 9.79695C19.7518 9.99504 19.2526 10.0879 19.0987 10.0712C19.1345 9.85144 19.5196 9.44925 19.5196 9.44925ZM21.3516 10.6461C20.9673 10.6461 20.8693 10.3086 20.7782 10.0897C20.7232 9.9581 20.7159 9.91747 20.5684 9.91747C20.1801 9.91747 20.0074 10.309 19.865 10.6563C19.7546 10.9245 19.6648 11.1693 19.4908 11.1693C19.3167 11.1693 19.1583 10.949 19.0827 10.4882C19.505 10.4808 20.0317 10.3409 20.0317 9.79187C20.0317 9.561 19.9085 9.36752 19.7825 9.22438C19.9479 9.07247 20.1279 8.90809 20.3161 8.73678C20.3564 9.12511 20.3962 9.47003 20.4301 9.70137C20.5048 9.62564 20.6097 9.61918 20.6097 8.9164C20.6097 8.77372 20.606 8.62688 20.5996 8.47912C20.9019 8.20208 21.2179 7.9181 21.5266 7.64059C21.6388 8.77603 21.7743 10.0758 21.7885 10.2753C21.805 10.5025 21.5655 10.6461 21.3511 10.6461H21.3516ZM21.8229 7.43142C21.8229 7.41387 21.8197 7.39679 21.8178 7.3797C22.0876 7.13867 22.3464 6.90965 22.579 6.70648C22.6033 7.13129 22.6381 7.69185 22.6775 8.2658C22.3161 7.93472 22.0386 7.66137 21.8224 7.43142H21.8229Z" fill="white"/>
<path d="M13.5438 6.28455C13.5571 6.30967 13.5641 6.33858 13.5641 6.36806C13.5641 6.50118 13.4256 6.71191 13.4256 6.87254C13.4241 6.89391 13.4263 6.91541 13.4322 6.93574C13.4381 6.95607 13.4474 6.9748 13.4597 6.99079C13.472 7.00677 13.4869 7.01969 13.5037 7.02875C13.5204 7.03781 13.5385 7.04282 13.5569 7.04348C13.6372 7.04348 13.6714 6.92559 13.6731 6.79787C13.6355 6.81507 13.5886 6.83913 13.5535 6.85977C13.5535 6.70012 13.6878 6.54588 13.6878 6.38377C13.6878 6.19072 13.6283 6.22167 13.5464 5.95248C13.5172 5.85424 13.3842 5.79185 13.3056 5.87388C13.227 5.95592 13.2756 6.09002 13.4082 6.21283C13.252 6.60237 13.0957 6.60973 12.8828 6.83815C13.1916 6.79345 13.4463 6.45893 13.5438 6.28455ZM13.385 5.94757C13.4059 5.95651 13.4249 5.97044 13.4408 5.98847C13.4567 6.00649 13.4692 6.0282 13.4775 6.0522C13.4565 6.04348 13.4374 6.02963 13.4215 6.01158C13.4055 5.99352 13.3931 5.97169 13.385 5.94757Z" fill="white"/>
<path d="M12.6702 6.64088C12.7319 6.24949 12.4791 6.05683 12.4456 6.04726C12.3902 6.03074 12.3297 6.03449 12.2773 6.0577C12.3076 6.12048 12.3519 6.17702 12.4076 6.22383C12.5413 6.34386 12.5632 6.42648 12.6702 6.64088Z" fill="white"/>
<path d="M22.5396 10.8674C22.3241 10.8604 21.6605 11.0611 21.332 11.2144L21.3616 11.2697C21.6636 11.2065 21.8876 11.1157 22.0736 11.0644C22.3384 10.9912 22.5006 10.9634 22.5396 10.8674Z" fill="white"/>
<path d="M20.121 7.90641C20.1241 7.90012 20.1257 7.89297 20.1255 7.88575C20.1253 7.87853 20.1233 7.87152 20.1198 7.86547C20.1162 7.85943 20.1113 7.85459 20.1055 7.85148C20.0996 7.84838 20.0932 7.84712 20.0867 7.84786C20.0021 7.84786 19.3738 8.19066 18.918 8.55155L18.9736 8.65269C19.8348 8.09857 20.0606 8.08101 20.121 7.90641Z" fill="white"/>
<path d="M8.54232 8.62707C8.62883 8.55787 8.78962 8.5549 8.80868 8.54156C8.82774 8.52821 8.93868 8.42541 8.73537 8.21089C8.53206 7.99638 8.38446 8.05272 8.36051 8.072C8.33657 8.09128 8.25299 8.16789 8.3913 8.5208C8.12544 8.86333 7.72663 8.892 7.64844 9.04226C7.87667 9.09811 8.29112 9.00371 8.54232 8.62707ZM8.70116 8.26674C8.72403 8.29008 8.7416 8.31818 8.75266 8.34907C8.76372 8.37997 8.76799 8.41294 8.76518 8.44567C8.76518 8.46594 8.69872 8.48324 8.62736 8.47483C8.65797 8.4078 8.68267 8.33817 8.70116 8.26674ZM8.4177 8.18816C8.42796 8.17036 8.49736 8.18025 8.55943 8.19705C8.53767 8.26558 8.50936 8.3318 8.47488 8.39476C8.4177 8.32062 8.4045 8.20941 8.4177 8.18816Z" fill="white"/>
<path d="M21.0403 8.87669C21.0173 8.89498 20.9333 8.97258 21.0716 9.32549C20.8052 9.66802 20.4068 9.69668 20.3281 9.84694C20.5564 9.9028 20.9709 9.80839 21.2226 9.43225C21.3091 9.36256 21.47 9.35959 21.4885 9.34625C21.5071 9.3329 21.6185 9.23009 21.4152 9.01558C21.2119 8.80106 21.0643 8.85741 21.0403 8.87669ZM21.1552 9.19796C21.0975 9.12283 21.0848 9.0141 21.0975 8.99284C21.1102 8.97159 21.1777 8.98493 21.2397 9.00174C21.2177 9.06968 21.1894 9.13537 21.1552 9.19796ZM21.3072 9.27952C21.338 9.21251 21.3628 9.14287 21.3815 9.07143C21.4043 9.09479 21.4218 9.1229 21.4328 9.1538C21.4438 9.18471 21.4479 9.21765 21.445 9.25036C21.445 9.27062 21.3785 9.28792 21.3072 9.27952Z" fill="white"/>
<path d="M7.87586 10.2639C7.9696 10.2627 8.05944 10.2396 8.12868 10.1989C8.19791 10.1582 8.24181 10.1027 8.25221 10.0428C8.12791 10.0586 7.89934 10.073 7.89934 10.073C7.89934 9.87431 8.05458 9.83561 8.13879 9.66016C7.84607 9.73388 7.64844 9.92297 7.64844 10.0586C7.64844 10.1751 7.73837 10.2639 7.87586 10.2639Z" fill="white"/>
<path d="M8.14897 9.13311C8.01704 9.22387 7.92787 9.25412 7.85156 9.45441C7.85156 9.45441 7.9628 9.47005 8.00187 9.44554C8.22711 9.30367 8.69919 9.03193 8.85961 8.96151C9.02004 8.8911 9.05911 8.79982 9.05911 8.77322C9.05911 8.74662 9.04808 8.6543 8.96993 8.6543C8.89179 8.6543 8.28043 9.04288 8.14897 9.13311Z" fill="white"/>
<path d="M12.8486 9.66041C12.9293 9.41743 12.9962 9.21646 13.0487 9.21646C13.1013 9.21646 13.1618 9.25588 13.2133 9.29442C13.252 9.2636 13.2774 9.2233 13.2855 9.17965C13.2855 9.14803 13.183 9.05664 13.0758 9.05664C12.9442 9.05664 12.89 9.2013 12.8523 9.28966C12.6729 9.10645 12.555 9.08826 12.503 9.15669C12.451 9.22513 12.4919 9.26627 12.5964 9.32561C12.701 9.38495 12.7828 9.47027 12.8486 9.66041Z" fill="white"/>
<path d="M18.8326 6.10491C18.9385 6.16425 19.0185 6.24957 19.0841 6.43971C19.1646 6.19673 19.2313 5.99576 19.2837 5.99576C19.3361 5.99576 19.3965 6.03517 19.4479 6.07372C19.4865 6.0429 19.5118 6.0026 19.5199 5.95895C19.5199 5.92776 19.4177 5.83594 19.3081 5.83594C19.1768 5.83594 19.1222 5.9806 19.0852 6.06896C18.9062 5.88575 18.7887 5.86756 18.7368 5.93599C18.6849 6.00442 18.7283 6.04557 18.8326 6.10491Z" fill="white"/>
<path d="M14.9208 6.49029C14.8909 6.49564 14.8638 6.51024 14.8435 6.53183C14.8231 6.55342 14.8108 6.5808 14.8083 6.60977C14.7922 6.69969 14.7809 6.79033 14.7743 6.88134C14.6576 6.85961 14.6146 6.82476 14.6146 6.72881C14.6146 6.63286 14.6406 6.62516 14.6439 6.52468C14.5983 6.55227 14.5607 6.59023 14.5342 6.63517C14.5077 6.68011 14.4933 6.73063 14.4922 6.78222C14.4922 6.97593 14.6254 7.04518 14.7143 7.04518C14.8088 7.04518 14.8792 6.961 14.8976 6.93656C14.953 6.99449 15.0294 7.02995 15.1112 7.03567C15.1365 7.0359 15.1615 7.03116 15.1848 7.02172C15.208 7.01229 15.229 6.99838 15.2464 6.98085C15.2639 6.96332 15.2773 6.94255 15.286 6.91982C15.2947 6.8971 15.2984 6.87291 15.2969 6.84875C15.2969 6.73741 15.1915 6.64101 15.1844 6.44141C15.1448 6.46061 15.1092 6.4867 15.0795 6.51835C15.0824 6.65413 15.1268 6.71342 15.1088 6.85871C14.917 6.78855 14.9316 6.67766 14.9208 6.49029Z" fill="white"/>
<path d="M18.918 7.58416C18.918 7.77891 19.0511 7.84791 19.1398 7.84791C19.2342 7.84791 19.3045 7.76348 19.3229 7.73896C19.378 7.79842 19.455 7.83489 19.5376 7.84065C19.5629 7.84082 19.5879 7.836 19.6111 7.82648C19.6343 7.81697 19.6552 7.80296 19.6726 7.78534C19.6899 7.76771 19.7033 7.74684 19.712 7.72403C19.7206 7.70121 19.7242 7.67694 19.7227 7.65271C19.7227 7.54149 19.6179 7.44434 19.6108 7.24414C19.5712 7.2636 19.5357 7.28992 19.506 7.32177C19.5089 7.45796 19.5532 7.50335 19.5414 7.64681C19.3498 7.61639 19.3626 7.47112 19.3559 7.28364C19.3249 7.28952 19.2966 7.30459 19.2749 7.32673C19.2533 7.34887 19.2394 7.37698 19.2351 7.40712C19.2213 7.49057 19.212 7.57467 19.2073 7.65907C19.0822 7.66724 19.0411 7.62547 19.0411 7.52923C19.0411 7.43299 19.0676 7.42527 19.0704 7.32449C19.0245 7.35215 18.9866 7.39038 18.9599 7.43573C18.9333 7.48107 18.9189 7.53209 18.918 7.58416Z" fill="white"/>
<path d="M15.0938 8.39159C15.0938 8.58576 15.227 8.65455 15.3163 8.65455C15.4056 8.65455 15.4807 8.57037 15.4992 8.54593C15.5543 8.60422 15.6308 8.63989 15.7127 8.6455C15.738 8.64573 15.7631 8.64097 15.7864 8.63151C15.8097 8.62205 15.8307 8.6081 15.8482 8.59052C15.8656 8.57294 15.879 8.55211 15.8877 8.52933C15.8963 8.50656 15.9 8.48232 15.8984 8.45812C15.8984 8.34724 15.7931 8.25038 15.786 8.05078C15.7464 8.07015 15.7109 8.09622 15.6811 8.12772C15.6839 8.26351 15.7283 8.32325 15.7104 8.46808C15.5185 8.39431 15.5332 8.28342 15.5214 8.09649C15.4916 8.10176 15.4644 8.11627 15.4441 8.13778C15.4238 8.15929 15.4114 8.18662 15.4089 8.21553C15.3929 8.30545 15.3815 8.39608 15.3749 8.48709C15.2582 8.46537 15.2152 8.43006 15.2152 8.33456C15.2152 8.23906 15.2412 8.23092 15.2445 8.13044C15.1986 8.15843 15.1607 8.197 15.1344 8.24262C15.1081 8.28825 15.0941 8.33946 15.0938 8.39159Z" fill="white"/>
<path d="M14.6228 6.0548C14.7802 6.13537 14.8075 6.147 14.8384 6.43971C14.8753 6.37505 14.8947 6.30236 14.8947 6.22846C14.8947 5.95992 14.6782 5.83594 14.6057 5.83594C14.5784 5.83564 14.5518 5.84494 14.5309 5.86213C14.5101 5.87932 14.4963 5.90324 14.4922 5.92949C14.4922 5.9644 14.5134 5.99931 14.6228 6.0548Z" fill="white"/>
<path d="M20.2556 10.8849C20.4135 10.9655 20.4426 10.9771 20.4712 11.2698C20.5081 11.2051 20.5275 11.1324 20.5275 11.0585C20.5275 10.79 20.311 10.666 20.2386 10.666C20.2118 10.6656 20.1857 10.6743 20.1649 10.6907C20.1441 10.7071 20.13 10.73 20.125 10.7555C20.125 10.7945 20.1467 10.8294 20.2556 10.8849Z" fill="white"/>
<path d="M17.9104 10.8417C17.9104 10.9885 17.968 11.0685 18.0263 11.0685C18.047 11.0701 18.0673 11.0599 18.0832 11.04C18.099 11.0201 18.1091 10.992 18.1114 10.9614C18.1114 10.9162 18.0683 10.8367 18.0111 10.7242C18.0286 10.6335 18.0535 10.5464 18.0854 10.4648C18.0326 10.491 17.9871 10.5419 17.9555 10.6098C17.9239 10.6778 17.9081 10.7592 17.9104 10.8417Z" fill="white"/>
<path d="M10.8222 6.65739C10.7724 6.63827 10.719 6.63544 10.668 6.64923C10.6755 6.72264 10.725 6.82401 10.8277 6.94054C10.9418 7.06871 10.9638 7.20504 11.056 7.44566C11.0828 7.28999 11.0723 7.1287 11.0254 6.97957C10.9764 6.83159 10.8978 6.69234 10.8222 6.65739Z" fill="white"/>
<path d="M23.2579 7.24415C23.2318 7.24374 23.2064 7.25348 23.1864 7.27159C23.1663 7.28971 23.1529 7.31502 23.1484 7.34296C23.1484 7.38277 23.1691 7.42117 23.2743 7.48065C23.4944 7.60569 23.4617 7.78879 23.5203 8.04917C23.5415 7.97731 23.5518 7.90218 23.5509 7.82673C23.5414 7.44225 23.3587 7.24415 23.2579 7.24415Z" fill="white"/>
<path d="M18.9179 7.04527C18.8929 6.98108 18.8702 6.91508 18.8498 6.84754C19.4722 6.41546 19.6375 6.43855 19.7211 6.24308C19.5636 6.21266 19.2229 6.4318 18.8654 6.64248C18.8176 6.67065 18.7149 6.736 18.7149 6.84754C18.7137 6.91401 18.7557 7.03625 18.9179 7.04527Z" fill="white"/>
<path d="M10.5622 6.44149C10.6197 6.44149 10.7561 6.4032 10.8658 6.39286C10.8746 6.36552 10.8728 6.33713 10.8605 6.31041C10.8482 6.28369 10.8259 6.25952 10.7957 6.24023C10.8007 6.31095 10.8028 6.32409 10.7915 6.35204C10.7655 6.36019 10.736 6.36206 10.7081 6.35736C10.6964 6.32713 10.6878 6.2964 10.6823 6.26539C10.6658 6.26394 10.6491 6.26394 10.6327 6.26539C10.6294 6.29843 10.6294 6.33158 10.6327 6.36462C10.6143 6.36826 10.5964 6.37972 10.5567 6.38894C10.5347 6.35341 10.5159 6.317 10.5004 6.27993C10.4807 6.31119 10.4699 6.34466 10.4688 6.3786C10.469 6.39519 10.4789 6.41106 10.4963 6.42281C10.5138 6.43457 10.5374 6.44127 10.5622 6.44149Z" fill="white"/>
<path d="M17.3086 9.44746C17.504 9.47839 17.8567 9.46594 18.0032 9.1897C18.0401 9.19001 18.077 9.18844 18.1136 9.18498C18.0523 9.08317 18.0176 8.97059 18.012 8.85547C17.8728 8.8675 17.8166 8.93537 17.8166 8.98865C17.8166 9.04192 17.8459 9.09862 17.8459 9.16306C17.8464 9.32674 17.5773 9.41181 17.3086 9.44746Z" fill="white"/>
<path d="M14.8944 10.6234C14.8956 10.6029 14.893 10.5824 14.8866 10.5631C14.8802 10.5437 14.8703 10.5261 14.8573 10.5112C14.8444 10.4963 14.8288 10.4845 14.8115 10.4765C14.7942 10.4685 14.7756 10.4646 14.7568 10.4649C14.7174 10.4659 14.6785 10.4755 14.6425 10.4931C14.6425 10.5141 14.6466 10.5585 14.6499 10.5827C14.5569 10.6454 14.4922 10.6871 14.4922 10.7771C14.4922 10.8671 14.6036 10.989 14.6392 11.2699C14.6773 11.2237 14.702 11.1661 14.7101 11.1046C14.7101 11.0311 14.6118 10.8492 14.6118 10.8067C14.6118 10.7242 14.8944 10.7789 14.8944 10.6234Z" fill="white"/>
<path d="M16.9102 10.911C16.9102 10.9842 16.9944 11.0686 17.1955 11.0686C17.4321 11.0686 17.4907 10.8967 17.7152 10.7431C17.4854 10.757 17.4428 10.92 17.2013 10.92C17.1565 10.92 17.097 10.9245 17.097 10.8787C17.097 10.8145 17.4379 10.7032 17.471 10.5501C17.4009 10.4914 17.3114 10.4612 17.2202 10.4652C17.0858 10.4652 17.015 10.5456 16.9648 10.6448C17.0182 10.6574 17.0726 10.6647 17.1274 10.6668C17.0083 10.7305 16.9102 10.8356 16.9102 10.911Z" fill="white"/>
<path d="M18.3158 9.68676C17.7615 9.66743 16.1644 9.67986 15.7817 9.67986C16.0559 9.45032 16.3783 9.28385 16.7257 9.19251C16.7709 9.26917 16.809 9.34973 16.8394 9.43319C16.9187 9.37705 16.9523 9.27305 16.956 9.15708C17.0907 9.15708 17.2105 9.14604 17.2912 9.09588C17.3438 9.064 17.3881 9.02036 17.4204 8.96848C17.4528 8.9166 17.4724 8.85793 17.4776 8.79721C17.4776 8.59058 16.9429 8.36003 16.6949 8.36003C16.5481 8.36003 16.3612 8.59012 16.3612 8.70839C16.3612 8.80641 16.4334 8.8759 16.5299 8.97024C16.0638 9.09495 15.51 9.40098 15.371 9.53812C15.2321 9.67525 15.2065 9.73646 15.1883 9.96057C15.4955 10.0066 16.2721 9.98358 16.7094 9.98358C16.4889 10.0586 16.0176 10.2565 15.8237 10.3688C15.6461 10.4732 15.6162 10.5174 15.5668 10.7369C15.4176 10.6713 15.2964 10.5562 15.2242 10.4116C15.0247 9.97162 15.1025 9.47001 14.8727 8.87084C14.754 8.56989 14.5819 8.29221 14.3646 8.05078C14.2276 8.16951 14.2103 8.36417 14.3646 8.66882C14.5045 8.94815 14.7249 9.34622 14.8242 9.78524C13.9073 10.6223 13.4192 10.8299 13.1339 10.8299C13.0993 10.8308 13.065 10.8227 13.0344 10.8066C13.0039 10.7905 12.9781 10.7668 12.9596 10.7378C13.0805 10.6556 13.1972 10.5682 13.3097 10.4755C13.8099 10.065 14.0854 9.89523 14.0854 9.51879C14.0854 9.32413 13.9292 8.98221 13.8481 8.80043C13.8887 8.79362 13.9287 8.78331 13.9674 8.7696C13.8206 8.47278 13.6626 8.31309 13.5526 8.23716C13.4854 8.2979 13.4127 8.43918 13.4808 8.70425C13.553 8.98497 13.7866 9.40098 13.7866 9.52477C13.7866 9.67756 13.4318 9.9914 12.9046 10.3476C12.9337 10.1451 12.9941 9.94811 13.0836 9.76361C12.8137 9.9371 12.6822 10.2068 12.6641 10.5041C12.0762 10.8658 11.2255 11.2233 10.668 11.4705C11.3672 11.4939 12.0767 11.274 12.7065 10.9007C12.768 11.1046 12.8976 11.2661 13.126 11.2661C13.443 11.2661 14.5278 10.6449 14.8737 10.0462C14.9771 10.6444 15.0974 11.1368 15.9509 11.3375C16.4521 11.4553 16.4637 11.308 16.4637 11.1617C16.4637 11.0733 16.466 10.9675 16.2171 10.9191C16.0383 10.8911 15.8621 10.8484 15.6904 10.7917C15.8456 10.5496 16.1528 10.4327 16.6516 10.3218C17.0832 10.2252 17.5056 10.1377 17.7261 10.0917C18.1731 10.0066 18.2962 9.83678 18.3158 9.68676ZM16.7108 8.60439C16.7807 8.60439 16.8972 8.62372 17.0758 8.765C17.0087 8.83771 16.916 8.88233 16.8166 8.88971C16.7103 8.88971 16.5733 8.75533 16.5733 8.71484C16.5815 8.68447 16.5992 8.65744 16.6239 8.6376C16.6486 8.61777 16.679 8.60614 16.7108 8.60439Z" fill="white"/>
<path d="M21.8819 14.6752H20.3909V14.5147C20.4545 14.4714 20.519 14.3864 20.5218 14.3358C20.5254 14.2576 20.4047 14.0879 20.3228 14.0879C20.2409 14.0879 20.1205 14.2576 20.1242 14.3358C20.1265 14.3864 20.191 14.4714 20.2546 14.5147V14.6752H9.86328C10.1963 15.0601 10.4306 15.1107 12.9441 15.1107H20.2546V15.2707C20.191 15.3167 20.1265 15.3995 20.1242 15.4501C20.1205 15.5283 20.2413 15.698 20.3228 15.698C20.385 15.698 20.4701 15.5991 20.5058 15.5177H20.9633C20.9816 15.5486 21.0075 15.5741 21.0386 15.5919C21.0697 15.6096 21.1048 15.619 21.1405 15.619C21.1763 15.619 21.2114 15.6096 21.2425 15.5919C21.2736 15.5741 21.2995 15.5486 21.3178 15.5177H21.8586C21.882 15.5498 21.913 15.5756 21.9488 15.5928C21.9845 15.61 22.024 15.618 22.0636 15.6161C22.3257 15.6161 22.3413 15.377 22.3413 15.0992C22.3413 14.8214 22.2722 14.6752 21.8819 14.6752ZM21.7996 15.3912H21.316C21.2977 15.3603 21.2718 15.3348 21.2407 15.317C21.2096 15.2993 21.1745 15.2899 21.1387 15.2899C21.103 15.2899 21.0678 15.2993 21.0368 15.317C21.0057 15.3348 20.9797 15.3603 20.9614 15.3912H20.4998C20.472 15.3437 20.4344 15.3026 20.3896 15.2707V15.1107H21.7991C21.7882 15.1583 21.7827 15.2071 21.7827 15.256C21.7829 15.3016 21.7886 15.347 21.7996 15.3912Z" fill="white"/>
</svg>
