<svg width="32" height="22" viewBox="0 0 32 22" fill="none" xmlns="http://www.w3.org/2000/svg">
<path d="M32 0H0V21.3335H32V0Z" fill="#E11414"/>
<path d="M15.5742 10.6654L17.4168 10.0666V8.12891L18.5558 9.69686L20.3988 9.09797L19.2598 10.6654L20.3988 12.2334L18.5558 11.6345L17.4168 13.2024V11.2643L15.5742 10.6654Z" fill="white"/>
<path d="M12.6654 14.9347C12.1049 14.9347 11.5499 14.8244 11.032 14.6099C10.5142 14.3954 10.0436 14.081 9.64731 13.6847C9.25098 13.2884 8.93661 12.8179 8.72214 12.3C8.50768 11.7822 8.39732 11.2272 8.39738 10.6667C8.39738 9.53472 8.84704 8.44914 9.64745 7.64874C10.4478 6.84834 11.5334 6.39868 12.6654 6.39868C13.2595 6.39797 13.8473 6.52167 14.3908 6.76181C14.9343 7.00196 15.4215 7.35323 15.821 7.79303C15.339 7.03942 14.675 6.4193 13.8903 5.98988C13.1055 5.56046 12.2253 5.33557 11.3307 5.33594C10.6307 5.33594 9.9375 5.47382 9.29075 5.74171C8.64399 6.00961 8.05634 6.40227 7.56134 6.89727C6.56163 7.89698 6 9.25286 6 10.6667C6 11.3667 6.13788 12.0599 6.40578 12.7067C6.67367 13.3534 7.06633 13.9411 7.56134 14.4361C8.05634 14.9311 8.64399 15.3237 9.29075 15.5916C9.9375 15.8595 10.6307 15.9974 11.3307 15.9974C12.2253 15.9978 13.1055 15.7729 13.8903 15.3434C14.675 14.914 15.339 14.2939 15.821 13.5403C15.4215 13.9801 14.9343 14.3314 14.3908 14.5715C13.8473 14.8117 13.2595 14.9354 12.6654 14.9347Z" fill="white"/>
</svg>
