<svg width="710" height="655" viewBox="0 0 710 655" fill="none" xmlns="http://www.w3.org/2000/svg">
<g clip-path="url(#clip0_1256_7525)">
<path d="M703.436 21.2422V566.821C703.449 577.923 701.265 588.918 697.01 599.172C692.755 609.426 686.513 618.737 678.643 626.568C670.774 634.398 661.432 640.594 651.157 644.798C640.882 649.002 629.877 651.132 618.775 651.063L41.9442 648.251M710.276 28.6009L703.435 21.2617L696.615 28.6009M49.299 641.471L41.9199 648.272L49.2392 655.132" stroke="#1E4387" stroke-width="0.937352" stroke-miterlimit="10"/>
<mask id="mask0_1256_7525" style="mask-type:luminance" maskUnits="userSpaceOnUse" x="41" y="19" width="646" height="614">
<path d="M686.69 19.9043V566.8C686.69 584.255 679.756 600.995 667.413 613.337C655.071 625.68 638.331 632.614 620.876 632.614H41.1133V85.7184C41.1133 68.2634 48.0473 51.5233 60.3898 39.1808C72.7324 26.8383 89.4724 19.9043 106.927 19.9043H686.69Z" fill="white"/>
</mask>
<g mask="url(#mask0_1256_7525)">
<path d="M41.8931 16.1543H689.753V632.533H41.8931V16.1543Z" fill="url(#paint0_linear_1256_7525)"/>
<path opacity="0.57" d="M687.439 249.057L689.753 631.676H231.666L687.439 249.057Z" fill="url(#paint1_linear_1256_7525)"/>
<mask id="mask1_1256_7525" style="mask-type:luminance" maskUnits="userSpaceOnUse" x="-242" y="-301" width="1254" height="1254">
<path d="M344.759 -300.291L1011.85 287.832L425.67 952.728L-241.425 364.605L344.759 -300.291Z" fill="url(#paint2_linear_1256_7525)"/>
</mask>
<g mask="url(#mask1_1256_7525)">
<path d="M40.9009 0.275391H671.69V517.754H40.9009V0.275391Z" fill="url(#paint3_linear_1256_7525)"/>
<mask id="mask2_1256_7525" style="mask-type:luminance" maskUnits="userSpaceOnUse" x="43" y="0" width="629" height="518">
<path d="M43.3447 0.257812H671.69V517.736H43.3447V0.257812Z" fill="white"/>
</mask>
<g mask="url(#mask2_1256_7525)">
<path d="M62.5409 17.3301H652.495L62.5409 515.623V17.3301Z" fill="url(#paint4_linear_1256_7525)"/>
</g>
</g>
<mask id="mask3_1256_7525" style="mask-type:luminance" maskUnits="userSpaceOnUse" x="-264" y="-302" width="1256" height="1256">
<path d="M397.664 -301.061L991.299 358.238L330.192 953.502L-263.443 294.203L397.664 -301.061Z" fill="url(#paint5_linear_1256_7525)"/>
</mask>
<g mask="url(#mask3_1256_7525)">
<mask id="mask4_1256_7525" style="mask-type:luminance" maskUnits="userSpaceOnUse" x="22" y="0" width="686" height="634">
<path d="M22.8792 0.259766H707.924V633.81H22.8792V0.259766Z" fill="white"/>
</mask>
<g mask="url(#mask4_1256_7525)">
<mask id="mask5_1256_7525" style="mask-type:luminance" maskUnits="userSpaceOnUse" x="42" y="17" width="647" height="615">
<path d="M571.405 17.334H688.713L687.437 249.06L231.664 631.679H42.0798V455.796L571.405 17.334Z" fill="white"/>
</mask>
<g mask="url(#mask5_1256_7525)">
<path d="M408.148 -303.15L993.19 365.139L322.636 952.165L-262.407 283.876L408.148 -303.15Z" fill="url(#paint6_linear_1256_7525)"/>
</g>
</g>
</g>
</g>
<path d="M448.085 422.766C451.635 422.766 455.105 421.713 458.057 419.741C461.008 417.769 463.309 414.965 464.668 411.685C466.026 408.406 466.382 404.797 465.689 401.315C464.996 397.833 463.287 394.635 460.777 392.124C458.266 389.614 455.068 387.905 451.586 387.212C448.105 386.52 444.496 386.875 441.216 388.234C437.936 389.592 435.133 391.893 433.16 394.844C431.188 397.796 430.135 401.266 430.135 404.817C430.135 409.577 432.026 414.142 435.393 417.509C438.759 420.875 443.324 422.766 448.085 422.766Z" fill="#A5CF4F"/>
<path d="M443.254 401.686L440.878 403.778L439.456 402.138L443.321 398.875H445.663V410.722H443.254V401.686Z" fill="white"/>
<path d="M453.156 401.686L450.78 403.778L449.358 402.138L453.223 398.875H455.566V410.722H453.156V401.686Z" fill="white"/>
<path d="M472.631 498.553C476.182 498.553 479.652 497.5 482.604 495.528C485.555 493.556 487.856 490.752 489.214 487.473C490.573 484.193 490.928 480.584 490.236 477.102C489.543 473.62 487.834 470.422 485.324 467.912C482.813 465.401 479.615 463.692 476.133 462.999C472.651 462.307 469.042 462.662 465.763 464.021C462.483 465.379 459.679 467.68 457.707 470.632C455.735 473.583 454.682 477.054 454.682 480.604C454.682 485.364 456.573 489.93 459.939 493.296C463.306 496.662 467.871 498.553 472.631 498.553Z" fill="#A5CF4F"/>
<path d="M466.426 477.67L464.05 479.762L462.628 478.122L466.493 474.859H468.835V486.706H466.426V477.67Z" fill="white"/>
<path d="M475.123 479.527H475.943C476.178 479.527 476.406 479.511 476.629 479.477C476.853 479.444 477.053 479.382 477.232 479.293C477.421 479.193 477.572 479.059 477.684 478.892C477.795 478.713 477.851 478.484 477.851 478.206C477.851 477.849 477.706 477.553 477.416 477.319C477.137 477.084 476.791 476.967 476.378 476.967C475.988 476.967 475.664 477.073 475.408 477.285C475.151 477.497 474.984 477.759 474.906 478.072L472.145 477.503C472.279 476.99 472.48 476.555 472.747 476.198C473.015 475.829 473.333 475.534 473.701 475.311C474.069 475.088 474.476 474.926 474.923 474.826C475.38 474.714 475.86 474.658 476.362 474.658C476.886 474.658 477.388 474.725 477.868 474.859C478.358 474.982 478.788 475.182 479.156 475.461C479.524 475.729 479.814 476.069 480.026 476.482C480.249 476.895 480.361 477.386 480.361 477.955C480.361 478.613 480.188 479.176 479.842 479.645C479.496 480.113 478.994 480.414 478.336 480.548V480.598C478.693 480.643 479.005 480.749 479.273 480.916C479.552 481.084 479.786 481.29 479.976 481.535C480.166 481.781 480.311 482.06 480.411 482.372C480.511 482.684 480.562 483.013 480.562 483.359C480.562 483.95 480.444 484.469 480.21 484.915C479.987 485.362 479.68 485.735 479.29 486.036C478.911 486.327 478.459 486.544 477.935 486.689C477.421 486.834 476.875 486.907 476.295 486.907C475.235 486.907 474.32 486.661 473.551 486.17C472.792 485.68 472.29 484.904 472.045 483.844L474.688 483.225C474.778 483.649 474.956 483.984 475.224 484.229C475.503 484.475 475.91 484.597 476.445 484.597C476.992 484.597 477.394 484.458 477.65 484.179C477.918 483.889 478.052 483.521 478.052 483.075C478.052 482.74 477.979 482.484 477.834 482.305C477.7 482.115 477.522 481.976 477.299 481.887C477.076 481.798 476.825 481.747 476.546 481.736C476.267 481.714 475.988 481.703 475.709 481.703H475.123V479.527Z" fill="white"/>
<path d="M439.991 331.402C443.565 331.422 447.064 330.38 450.046 328.409C453.027 326.438 455.356 323.626 456.737 320.33C458.119 317.034 458.49 313.401 457.805 309.894C457.12 306.386 455.409 303.161 452.889 300.627C450.369 298.092 447.153 296.363 443.649 295.659C440.145 294.954 436.511 295.306 433.207 296.669C429.903 298.032 427.078 300.345 425.091 303.316C423.103 306.286 422.042 309.779 422.042 313.353C422.029 315.719 422.483 318.064 423.379 320.253C424.276 322.442 425.596 324.433 427.264 326.11C428.932 327.787 430.915 329.118 433.099 330.027C435.283 330.935 437.626 331.402 439.991 331.402Z" fill="#A5CF4F"/>
<path d="M433.254 310.145L430.878 312.236L429.456 310.596L433.321 307.334H435.663V319.18H433.254V310.145Z" fill="white"/>
<path d="M438.889 313.257C438.889 312.554 438.951 311.84 439.074 311.115C439.207 310.39 439.436 309.732 439.76 309.141C440.094 308.55 440.546 308.07 441.115 307.702C441.684 307.322 442.409 307.133 443.29 307.133C444.171 307.133 444.897 307.322 445.465 307.702C446.034 308.07 446.481 308.55 446.804 309.141C447.139 309.732 447.367 310.39 447.49 311.115C447.624 311.84 447.691 312.554 447.691 313.257C447.691 313.96 447.624 314.674 447.49 315.399C447.367 316.124 447.139 316.782 446.804 317.373C446.481 317.964 446.034 318.45 445.465 318.829C444.897 319.197 444.171 319.381 443.29 319.381C442.409 319.381 441.684 319.197 441.115 318.829C440.546 318.45 440.094 317.964 439.76 317.373C439.436 316.782 439.207 316.124 439.074 315.399C438.951 314.674 438.889 313.96 438.889 313.257ZM441.399 313.257C441.399 313.569 441.411 313.943 441.433 314.378C441.466 314.813 441.544 315.231 441.667 315.633C441.79 316.035 441.974 316.375 442.219 316.654C442.476 316.933 442.833 317.072 443.29 317.072C443.736 317.072 444.088 316.933 444.344 316.654C444.601 316.375 444.791 316.035 444.913 315.633C445.036 315.231 445.108 314.813 445.131 314.378C445.164 313.943 445.181 313.569 445.181 313.257C445.181 312.945 445.164 312.571 445.131 312.136C445.108 311.701 445.036 311.283 444.913 310.881C444.791 310.479 444.601 310.139 444.344 309.86C444.088 309.581 443.736 309.442 443.29 309.442C442.833 309.442 442.476 309.581 442.219 309.86C441.974 310.139 441.79 310.479 441.667 310.881C441.544 311.283 441.466 311.701 441.433 312.136C441.411 312.571 441.399 312.945 441.399 313.257Z" fill="white"/>
<path d="M319.2 271.234C322.746 271.215 326.206 270.145 329.145 268.161C332.083 266.177 334.368 263.367 335.712 260.085C337.055 256.804 337.396 253.198 336.692 249.723C335.989 246.247 334.271 243.058 331.757 240.558C329.243 238.058 326.045 236.358 322.565 235.674C319.086 234.989 315.483 235.35 312.209 236.712C308.935 238.073 306.137 240.374 304.169 243.323C302.201 246.273 301.151 249.739 301.151 253.285C301.151 255.651 301.618 257.993 302.527 260.177C303.435 262.361 304.766 264.344 306.443 266.012C308.121 267.68 310.111 269.001 312.3 269.897C314.49 270.793 316.834 271.247 319.2 271.234Z" fill="#A5CF4F"/>
<path d="M319.904 251.655C320.038 251.622 320.172 251.594 320.306 251.572C320.44 251.549 320.579 251.538 320.724 251.538C321.282 251.538 321.79 251.639 322.247 251.839C322.704 252.04 323.095 252.313 323.418 252.659C323.742 253.005 323.993 253.418 324.171 253.897C324.35 254.366 324.439 254.868 324.439 255.403C324.439 256.017 324.322 256.575 324.088 257.077C323.864 257.567 323.552 257.991 323.151 258.348C322.76 258.705 322.292 258.984 321.745 259.185C321.21 259.375 320.635 259.469 320.022 259.469C319.397 259.469 318.817 259.375 318.281 259.185C317.746 258.984 317.277 258.705 316.876 258.348C316.485 257.991 316.173 257.567 315.939 257.077C315.716 256.575 315.604 256.017 315.604 255.403C315.604 254.979 315.643 254.595 315.721 254.249C315.799 253.892 315.9 253.557 316.022 253.245C316.156 252.933 316.307 252.637 316.474 252.358C316.653 252.068 316.837 251.772 317.026 251.471L319.62 247.422H322.682L319.904 251.655ZM321.929 255.303C321.929 254.768 321.751 254.327 321.394 253.981C321.048 253.624 320.59 253.446 320.022 253.446C319.453 253.446 318.99 253.624 318.633 253.981C318.287 254.327 318.114 254.768 318.114 255.303C318.114 255.838 318.287 256.285 318.633 256.642C318.99 256.987 319.453 257.16 320.022 257.16C320.59 257.16 321.048 256.987 321.394 256.642C321.751 256.285 321.929 255.838 321.929 255.303Z" fill="white"/>
<path d="M477.288 241.957C480.838 241.957 484.308 240.905 487.26 238.932C490.212 236.96 492.512 234.157 493.871 230.877C495.229 227.597 495.585 223.988 494.892 220.506C494.2 217.024 492.49 213.826 489.98 211.316C487.47 208.806 484.271 207.096 480.789 206.403C477.308 205.711 473.699 206.066 470.419 207.425C467.139 208.783 464.336 211.084 462.363 214.036C460.391 216.988 459.338 220.458 459.338 224.008C459.338 228.768 461.23 233.334 464.596 236.7C467.962 240.066 472.527 241.957 477.288 241.957Z" fill="#4E5F6D"/>
<path d="M478.467 225.201C478.333 225.234 478.199 225.262 478.065 225.285C477.931 225.307 477.792 225.318 477.647 225.318C477.089 225.318 476.582 225.218 476.124 225.017C475.667 224.816 475.276 224.543 474.953 224.197C474.629 223.851 474.378 223.444 474.2 222.975C474.021 222.496 473.932 221.988 473.932 221.453C473.932 220.839 474.044 220.287 474.267 219.796C474.501 219.294 474.813 218.865 475.204 218.508C475.605 218.151 476.074 217.878 476.609 217.688C477.145 217.487 477.725 217.387 478.35 217.387C478.963 217.387 479.538 217.487 480.073 217.688C480.62 217.878 481.088 218.151 481.479 218.508C481.88 218.865 482.193 219.294 482.416 219.796C482.65 220.287 482.767 220.839 482.767 221.453C482.767 221.877 482.728 222.267 482.65 222.624C482.572 222.97 482.466 223.299 482.332 223.611C482.209 223.924 482.059 224.225 481.88 224.515C481.713 224.794 481.534 225.084 481.345 225.385L478.751 229.434H475.689L478.467 225.201ZM476.442 221.553C476.442 222.089 476.615 222.535 476.961 222.892C477.318 223.238 477.781 223.411 478.35 223.411C478.919 223.411 479.376 223.238 479.722 222.892C480.079 222.535 480.257 222.089 480.257 221.553C480.257 221.018 480.079 220.577 479.722 220.231C479.376 219.874 478.919 219.696 478.35 219.696C477.781 219.696 477.318 219.874 476.961 220.231C476.615 220.577 476.442 221.018 476.442 221.553Z" fill="white"/>
<path d="M339.145 197.441C342.691 197.422 346.151 196.352 349.09 194.368C352.029 192.384 354.314 189.574 355.657 186.292C357 183.011 357.342 179.405 356.638 175.93C355.934 172.454 354.217 169.265 351.702 166.765C349.188 164.265 345.99 162.565 342.511 161.881C339.032 161.196 335.428 161.557 332.154 162.919C328.88 164.28 326.082 166.581 324.114 169.53C322.147 172.48 321.096 175.946 321.096 179.492C321.096 181.858 321.564 184.2 322.472 186.384C323.38 188.568 324.711 190.551 326.389 192.219C328.066 193.888 330.057 195.208 332.246 196.104C334.435 197 336.78 197.454 339.145 197.441Z" fill="#4E5F6D"/>
<path d="M338.228 182.979H333.057V180.87L337.893 173.508H340.637V180.87H342.16V182.979H340.637V185.355H338.228V182.979ZM338.228 176.787H338.194L335.567 180.87H338.228V176.787Z" fill="white"/>
<path d="M371.737 140.742C375.275 140.71 378.726 139.633 381.654 137.646C384.583 135.659 386.859 132.851 388.196 129.574C389.533 126.298 389.871 122.699 389.169 119.23C388.467 115.762 386.754 112.578 384.248 110.08C381.741 107.582 378.552 105.88 375.081 105.189C371.61 104.498 368.013 104.849 364.741 106.197C361.468 107.544 358.668 109.83 356.69 112.765C354.713 115.7 353.648 119.154 353.628 122.693C353.615 125.067 354.072 127.42 354.975 129.615C355.877 131.811 357.206 133.806 358.885 135.485C360.563 137.163 362.558 138.492 364.754 139.395C366.95 140.297 369.303 140.755 371.677 140.742" fill="#4E5F6D"/>
<path d="M371.284 122.537H372.104C372.339 122.537 372.567 122.52 372.79 122.487C373.014 122.454 373.214 122.392 373.393 122.303C373.582 122.203 373.733 122.069 373.845 121.901C373.956 121.723 374.012 121.494 374.012 121.215C374.012 120.858 373.867 120.563 373.577 120.328C373.298 120.094 372.952 119.977 372.539 119.977C372.149 119.977 371.825 120.083 371.569 120.295C371.312 120.507 371.145 120.769 371.067 121.081L368.306 120.513C368.44 119.999 368.641 119.564 368.908 119.207C369.176 118.839 369.494 118.544 369.862 118.321C370.23 118.097 370.637 117.936 371.084 117.835C371.541 117.724 372.021 117.668 372.523 117.668C373.047 117.668 373.549 117.735 374.029 117.869C374.519 117.991 374.949 118.192 375.317 118.471C375.685 118.739 375.975 119.079 376.187 119.492C376.41 119.905 376.522 120.395 376.522 120.964C376.522 121.622 376.349 122.186 376.003 122.654C375.657 123.123 375.155 123.424 374.497 123.558V123.608C374.854 123.653 375.166 123.759 375.434 123.926C375.713 124.093 375.947 124.3 376.137 124.545C376.327 124.791 376.472 125.069 376.572 125.382C376.672 125.694 376.723 126.023 376.723 126.369C376.723 126.96 376.605 127.479 376.371 127.925C376.148 128.371 375.841 128.745 375.451 129.046C375.072 129.336 374.62 129.554 374.096 129.699C373.582 129.844 373.036 129.916 372.456 129.916C371.396 129.916 370.481 129.671 369.712 129.18C368.953 128.689 368.451 127.914 368.206 126.854L370.849 126.235C370.939 126.659 371.117 126.994 371.385 127.239C371.664 127.485 372.071 127.607 372.606 127.607C373.153 127.607 373.555 127.468 373.811 127.189C374.079 126.899 374.213 126.531 374.213 126.085C374.213 125.75 374.14 125.493 373.995 125.315C373.861 125.125 373.683 124.986 373.46 124.897C373.237 124.807 372.986 124.757 372.707 124.746C372.428 124.724 372.149 124.712 371.87 124.712H371.284V122.537Z" fill="white"/>
<path d="M293.796 126.002C297.342 126.002 300.808 124.952 303.758 122.984C306.707 121.016 309.008 118.219 310.369 114.945C311.731 111.671 312.092 108.067 311.407 104.588C310.723 101.109 309.023 97.9101 306.523 95.396C304.022 92.8818 300.834 91.1645 297.358 90.4607C293.883 89.7569 290.277 90.0981 286.996 91.4414C283.714 92.7846 280.904 95.0697 278.92 98.0083C276.936 100.947 275.866 104.407 275.847 107.953C275.833 110.319 276.288 112.663 277.184 114.853C278.08 117.042 279.4 119.032 281.068 120.71C282.736 122.387 284.72 123.718 286.904 124.626C289.088 125.535 291.43 126.002 293.796 126.002Z" fill="#4E5F6D"/>
<path d="M290.424 111.1L295.026 106.967C295.26 106.755 295.494 106.515 295.729 106.247C295.963 105.98 296.08 105.667 296.08 105.31C296.08 104.909 295.935 104.596 295.645 104.373C295.355 104.139 295.015 104.022 294.624 104.022C294.156 104.022 293.788 104.167 293.52 104.457C293.263 104.747 293.118 105.104 293.085 105.528L290.575 105.344C290.608 104.73 290.737 104.2 290.96 103.754C291.183 103.297 291.479 102.918 291.847 102.616C292.215 102.315 292.644 102.092 293.135 101.947C293.637 101.791 294.178 101.713 294.758 101.713C295.294 101.713 295.796 101.791 296.264 101.947C296.733 102.092 297.14 102.315 297.486 102.616C297.831 102.906 298.099 103.275 298.289 103.721C298.49 104.167 298.59 104.686 298.59 105.277C298.59 105.656 298.551 106.002 298.473 106.314C298.395 106.616 298.283 106.894 298.138 107.151C298.004 107.396 297.843 107.625 297.653 107.837C297.463 108.049 297.257 108.255 297.034 108.456L293.436 111.552H298.69V113.76H290.424V111.1Z" fill="white"/>
<path d="M255.288 243.313C258.838 243.313 262.308 242.26 265.26 240.288C268.212 238.315 270.512 235.512 271.871 232.232C273.229 228.952 273.585 225.343 272.892 221.862C272.2 218.38 270.49 215.182 267.98 212.671C265.47 210.161 262.271 208.452 258.789 207.759C255.308 207.066 251.699 207.422 248.419 208.78C245.139 210.139 242.336 212.44 240.363 215.391C238.391 218.343 237.338 221.813 237.338 225.363C237.338 230.124 239.23 234.689 242.596 238.055C245.962 241.422 250.527 243.313 255.288 243.313Z" fill="#A5CF4F"/>
<path d="M259.423 221.59H254.721L254.67 223.413C254.927 223.324 255.278 223.28 255.725 223.28C256.327 223.28 256.879 223.369 257.381 223.547C257.883 223.726 258.313 223.988 258.67 224.334C259.038 224.668 259.322 225.081 259.523 225.572C259.724 226.052 259.824 226.593 259.824 227.195C259.824 227.864 259.707 228.461 259.473 228.985C259.25 229.51 258.937 229.956 258.536 230.324C258.134 230.681 257.654 230.954 257.097 231.144C256.55 231.334 255.953 231.428 255.306 231.428C254.28 231.428 253.421 231.177 252.729 230.675C252.038 230.173 251.564 229.415 251.307 228.4L253.934 227.797C254.001 228.221 254.18 228.567 254.47 228.835C254.76 229.091 255.122 229.22 255.557 229.22C256.093 229.22 256.517 229.052 256.829 228.718C257.152 228.383 257.314 227.959 257.314 227.446C257.314 227.056 257.231 226.738 257.063 226.492C256.907 226.236 256.695 226.035 256.427 225.89C256.171 225.734 255.881 225.628 255.557 225.572C255.234 225.516 254.91 225.488 254.587 225.488C254.174 225.488 253.756 225.527 253.332 225.605C252.919 225.684 252.518 225.789 252.127 225.923L252.261 219.381H259.423V221.59Z" fill="white"/>
<path d="M101.155 209.153C104.705 209.153 108.175 208.1 111.127 206.128C114.079 204.155 116.379 201.352 117.738 198.072C119.096 194.792 119.452 191.183 118.759 187.701C118.067 184.22 116.357 181.021 113.847 178.511C111.337 176.001 108.139 174.291 104.657 173.599C101.175 172.906 97.5658 173.262 94.286 174.62C91.0062 175.979 88.2029 178.279 86.2307 181.231C84.2584 184.183 83.2056 187.653 83.2056 191.203C83.2056 195.964 85.0967 200.529 88.4629 203.895C91.829 207.261 96.3945 209.153 101.155 209.153Z" fill="#A5CF4F"/>
<path d="M100.402 188.288L98.0263 190.379L96.6041 188.739L100.469 185.477H102.812V197.323H100.402V188.288Z" fill="white"/>
<path d="M569.936 453.52C573.486 453.52 576.957 452.467 579.908 450.495C582.86 448.522 585.161 445.719 586.519 442.439C587.878 439.16 588.233 435.55 587.541 432.069C586.848 428.587 585.139 425.389 582.628 422.878C580.118 420.368 576.92 418.659 573.438 417.966C569.956 417.273 566.347 417.629 563.067 418.987C559.787 420.346 556.984 422.647 555.012 425.598C553.04 428.55 551.987 432.02 551.987 435.57C551.987 440.331 553.878 444.896 557.244 448.262C560.61 451.629 565.176 453.52 569.936 453.52Z" fill="#A5CF4F"/>
<path d="M563.309 431.6L560.933 433.692L559.51 432.052L563.376 428.789H565.718V440.636H563.309V431.6Z" fill="white"/>
<path d="M573.964 438.26H568.794V436.151L573.629 428.789H576.374V436.151H577.896V438.26H576.374V440.636H573.964V438.26ZM573.964 432.069H573.931L571.303 436.151H573.964V432.069Z" fill="white"/>
<path d="M607.272 479.785C610.818 479.785 614.285 478.735 617.234 476.767C620.184 474.799 622.484 472.002 623.846 468.728C625.207 465.454 625.568 461.85 624.884 458.371C624.199 454.892 622.5 451.693 619.999 449.179C617.499 446.665 614.31 444.948 610.835 444.244C607.36 443.54 603.754 443.881 600.472 445.225C597.191 446.568 594.381 448.853 592.396 451.792C590.412 454.73 589.343 458.191 589.323 461.736C589.31 464.102 589.765 466.447 590.661 468.636C591.557 470.825 592.877 472.816 594.545 474.493C596.213 476.17 598.196 477.501 600.38 478.41C602.565 479.318 604.907 479.785 607.272 479.785Z" fill="#FAA831"/>
<path d="M602.082 459.52L599.706 461.612L598.284 459.972L602.149 456.709H604.492V468.556H602.082V459.52Z" fill="white"/>
<path d="M615.816 458.918H611.114L611.064 460.742C611.321 460.652 611.672 460.608 612.118 460.608C612.721 460.608 613.273 460.697 613.775 460.875C614.277 461.054 614.706 461.316 615.063 461.662C615.431 461.997 615.716 462.409 615.917 462.9C616.117 463.38 616.218 463.921 616.218 464.523C616.218 465.192 616.101 465.789 615.866 466.314C615.643 466.838 615.331 467.284 614.929 467.652C614.528 468.009 614.048 468.282 613.49 468.472C612.944 468.662 612.347 468.757 611.7 468.757C610.674 468.757 609.815 468.506 609.123 468.004C608.432 467.502 607.957 466.743 607.701 465.728L610.328 465.126C610.395 465.549 610.573 465.895 610.863 466.163C611.153 466.42 611.516 466.548 611.951 466.548C612.486 466.548 612.91 466.381 613.223 466.046C613.546 465.711 613.708 465.287 613.708 464.774C613.708 464.384 613.624 464.066 613.457 463.82C613.301 463.564 613.089 463.363 612.821 463.218C612.565 463.062 612.275 462.956 611.951 462.9C611.628 462.844 611.304 462.816 610.981 462.816C610.568 462.816 610.149 462.855 609.726 462.934C609.313 463.012 608.911 463.118 608.521 463.251L608.655 456.709H615.816V458.918Z" fill="white"/>
<path d="M655.663 412.955C659.213 412.955 662.683 411.903 665.635 409.93C668.587 407.958 670.887 405.155 672.246 401.875C673.604 398.595 673.96 394.986 673.267 391.504C672.575 388.022 670.865 384.824 668.355 382.314C665.845 379.804 662.646 378.094 659.164 377.402C655.683 376.709 652.074 377.064 648.794 378.423C645.514 379.782 642.711 382.082 640.738 385.034C638.766 387.986 637.713 391.456 637.713 395.006C637.713 397.372 638.181 399.714 639.089 401.898C639.997 404.082 641.329 406.065 643.006 407.733C644.683 409.401 646.674 410.722 648.863 411.618C651.052 412.514 653.397 412.968 655.762 412.955" fill="#FAA831"/>
<path d="M658.89 393.136C659.023 393.102 659.157 393.074 659.291 393.052C659.425 393.03 659.565 393.019 659.71 393.019C660.267 393.019 660.775 393.119 661.232 393.32C661.69 393.521 662.08 393.794 662.403 394.14C662.727 394.486 662.978 394.898 663.156 395.378C663.335 395.846 663.424 396.348 663.424 396.884C663.424 397.497 663.307 398.055 663.073 398.557C662.85 399.048 662.537 399.472 662.136 399.829C661.745 400.186 661.277 400.465 660.73 400.665C660.195 400.855 659.62 400.95 659.007 400.95C658.382 400.95 657.802 400.855 657.267 400.665C656.731 400.465 656.263 400.186 655.861 399.829C655.471 399.472 655.158 399.048 654.924 398.557C654.701 398.055 654.589 397.497 654.589 396.884C654.589 396.46 654.628 396.075 654.706 395.729C654.785 395.372 654.885 395.038 655.008 394.725C655.141 394.413 655.292 394.117 655.459 393.839C655.638 393.548 655.822 393.253 656.012 392.952L658.605 388.902H661.667L658.89 393.136ZM660.914 396.783C660.914 396.248 660.736 395.807 660.379 395.462C660.033 395.105 659.576 394.926 659.007 394.926C658.438 394.926 657.975 395.105 657.618 395.462C657.272 395.807 657.099 396.248 657.099 396.783C657.099 397.319 657.272 397.765 657.618 398.122C657.975 398.468 658.438 398.641 659.007 398.641C659.576 398.641 660.033 398.468 660.379 398.122C660.736 397.765 660.914 397.319 660.914 396.783Z" fill="white"/>
<path d="M649.004 391.713L646.628 393.805L645.206 392.165L649.071 388.902H651.413V400.749H649.004V391.713Z" fill="white"/>
<path d="M364.811 366.766C361.261 366.766 357.791 365.713 354.839 363.741C351.887 361.769 349.587 358.965 348.228 355.685C346.869 352.406 346.514 348.797 347.207 345.315C347.899 341.833 349.609 338.635 352.119 336.124C354.629 333.614 357.827 331.905 361.309 331.212C364.791 330.52 368.4 330.875 371.68 332.234C374.96 333.592 377.763 335.893 379.735 338.844C381.708 341.796 382.76 345.266 382.76 348.817C382.76 353.577 380.869 358.142 377.503 361.509C374.137 364.875 369.571 366.766 364.811 366.766Z" fill="#FAA831"/>
<path d="M368.763 346.294C368.763 345.748 368.662 345.273 368.461 344.872C368.25 344.459 367.965 344.119 367.608 343.851C367.24 343.572 366.816 343.366 366.336 343.232C365.857 343.098 365.344 343.031 364.797 343.031C364.25 343.031 363.737 343.098 363.258 343.232C362.778 343.366 362.36 343.572 362.003 343.851C361.646 344.119 361.361 344.459 361.149 344.872C360.937 345.273 360.831 345.748 360.831 346.294C360.831 346.941 361.01 347.493 361.367 347.951C361.713 348.408 362.203 348.732 362.839 348.921V348.955C362.125 349.144 361.579 349.49 361.199 349.992C360.82 350.483 360.631 351.096 360.631 351.833C360.631 352.402 360.748 352.904 360.982 353.339C361.205 353.774 361.512 354.136 361.902 354.426C362.281 354.705 362.722 354.917 363.224 355.062C363.726 355.207 364.25 355.28 364.797 355.28C365.344 355.28 365.868 355.207 366.37 355.062C366.872 354.917 367.318 354.705 367.708 354.426C368.088 354.136 368.395 353.774 368.629 353.339C368.852 352.904 368.963 352.402 368.963 351.833C368.963 351.096 368.774 350.483 368.395 349.992C368.015 349.49 367.469 349.144 366.755 348.955V348.921C367.391 348.732 367.887 348.408 368.244 347.951C368.59 347.493 368.763 346.941 368.763 346.294ZM366.253 346.646C366.253 347.014 366.119 347.326 365.851 347.583C365.583 347.839 365.232 347.967 364.797 347.967C364.362 347.967 364.011 347.839 363.743 347.583C363.475 347.326 363.341 347.014 363.341 346.646C363.341 346.289 363.475 345.982 363.743 345.725C364.011 345.469 364.362 345.34 364.797 345.34C365.232 345.34 365.583 345.469 365.851 345.725C366.119 345.982 366.253 346.289 366.253 346.646ZM366.454 351.481C366.454 351.894 366.303 352.245 366.002 352.535C365.701 352.825 365.299 352.97 364.797 352.97C364.295 352.97 363.893 352.825 363.592 352.535C363.291 352.245 363.14 351.894 363.14 351.481C363.14 351.057 363.291 350.7 363.592 350.41C363.893 350.12 364.295 349.975 364.797 349.975C365.299 349.975 365.701 350.12 366.002 350.41C366.303 350.7 366.454 351.057 366.454 351.481Z" fill="white"/>
<path d="M227.788 432.74C231.362 432.76 234.861 431.718 237.843 429.747C240.824 427.776 243.153 424.964 244.534 421.668C245.915 418.372 246.287 414.739 245.602 411.232C244.917 407.724 243.206 404.499 240.686 401.964C238.165 399.43 234.95 397.701 231.446 396.997C227.942 396.292 224.308 396.644 221.004 398.007C217.7 399.37 214.875 401.683 212.888 404.654C210.9 407.624 209.839 411.117 209.839 414.691C209.826 417.057 210.28 419.402 211.176 421.591C212.072 423.78 213.393 425.771 215.061 427.448C216.729 429.125 218.712 430.456 220.896 431.365C223.08 432.273 225.422 432.74 227.788 432.74Z" fill="#FAA831"/>
<path d="M230.289 411.155H224.432V408.846H233.1V411.054L228.364 420.692H225.436L230.289 411.155Z" fill="white"/>
<path d="M352.747 561.631C356.317 561.631 359.806 560.573 362.775 558.589C365.743 556.606 368.056 553.787 369.422 550.489C370.788 547.191 371.146 543.562 370.449 540.061C369.753 536.56 368.034 533.344 365.51 530.82C362.985 528.295 359.769 526.576 356.268 525.88C352.767 525.184 349.138 525.541 345.84 526.907C342.542 528.273 339.723 530.587 337.74 533.555C335.757 536.523 334.698 540.012 334.698 543.582C334.685 545.956 335.143 548.309 336.045 550.505C336.947 552.701 338.276 554.696 339.955 556.374C341.634 558.053 343.629 559.382 345.824 560.284C348.02 561.187 350.373 561.645 352.747 561.631Z" fill="#FAA831"/>
<path d="M346.91 539.215L344.534 541.307L343.112 539.667L346.977 536.404H349.32V548.251H346.91V539.215Z" fill="white"/>
<path d="M352.813 545.59L357.415 541.457C357.649 541.245 357.883 541.005 358.118 540.738C358.352 540.47 358.469 540.158 358.469 539.801C358.469 539.399 358.324 539.087 358.034 538.864C357.744 538.629 357.404 538.512 357.013 538.512C356.545 538.512 356.177 538.657 355.909 538.947C355.652 539.237 355.507 539.594 355.474 540.018L352.964 539.834C352.998 539.221 353.126 538.691 353.349 538.245C353.572 537.787 353.868 537.408 354.236 537.107C354.604 536.806 355.033 536.582 355.524 536.437C356.026 536.281 356.567 536.203 357.147 536.203C357.683 536.203 358.185 536.281 358.653 536.437C359.122 536.582 359.529 536.806 359.875 537.107C360.22 537.397 360.488 537.765 360.678 538.211C360.879 538.657 360.979 539.176 360.979 539.767C360.979 540.146 360.94 540.492 360.862 540.805C360.784 541.106 360.672 541.385 360.527 541.641C360.393 541.887 360.232 542.115 360.042 542.327C359.852 542.539 359.646 542.746 359.423 542.946L355.825 546.042H361.079V548.251H352.813V545.59Z" fill="white"/>
<path d="M82.7546 48.1435C82.2746 48.1435 81.8906 47.7755 81.8906 47.2795C81.8906 46.8155 82.2746 46.4315 82.7546 46.4315C83.2186 46.4315 83.5866 46.7995 83.5866 47.2795C83.5866 47.7595 83.2186 48.1435 82.7546 48.1435ZM80.3866 48.1435C79.9066 48.1435 79.5386 47.7755 79.5386 47.2795C79.5386 46.8155 79.9066 46.4315 80.3866 46.4315C80.8506 46.4315 81.2346 46.7995 81.2346 47.2795C81.2346 47.7595 80.8506 48.1435 80.3866 48.1435ZM86.6906 57.1355H81.8586C78.7866 57.1355 77.6666 55.6795 77.6666 53.4075C77.6666 51.2955 78.9626 49.4395 81.6986 49.4395C83.4586 49.4395 84.9146 49.9995 84.9146 49.9995V55.9675H86.6906V57.1355ZM83.4746 55.9675V50.9755C83.4746 50.9755 82.6906 50.6075 81.5386 50.6075C80.0506 50.6075 79.1546 51.6635 79.1546 53.2475C79.1546 55.0715 80.0026 55.9675 82.0666 55.9675H83.4746Z" fill="black"/>
<path d="M91.0066 59.5195C91.0066 59.9995 90.6386 60.3835 90.1746 60.3835C89.6946 60.3835 89.3106 60.0155 89.3106 59.5195C89.3106 59.0555 89.6946 58.6715 90.1746 58.6715C90.6386 58.6715 91.0066 59.0395 91.0066 59.5195ZM88.6546 59.5195C88.6546 59.9995 88.2706 60.3835 87.8066 60.3835C87.3266 60.3835 86.9586 60.0155 86.9586 59.5195C86.9586 59.0555 87.3266 58.6715 87.8066 58.6715C88.2706 58.6715 88.6546 59.0395 88.6546 59.5195ZM86.4466 57.1355V55.9675H89.6626V49.6155H91.1346V57.1355H86.4466Z" fill="black"/>
<path d="M94.0447 57.1355V45.8555H95.5167V55.9675H97.2767V57.1355H94.0447Z" fill="black"/>
<path d="M97.0403 57.1355V55.9675H97.5683C99.3443 55.9675 100.816 55.6475 101.936 55.1355C100.8 54.0635 99.7283 52.8795 98.0963 52.3515L98.2243 51.3275C99.4723 50.3835 101.248 49.4075 102.848 49.4075C105.024 49.4075 105.936 50.5915 105.936 51.8875C105.936 53.0075 105.28 54.2235 104.016 55.1995C104.688 55.6635 105.424 55.9675 106.32 55.9675H107.296V57.1355H106.112C104.752 57.1355 103.744 56.6395 102.864 55.9515C101.488 56.6715 99.6643 57.1355 97.4403 57.1355H97.0403ZM99.6003 51.7915C100.992 52.3195 102 53.4875 103.072 54.4475C103.984 53.7595 104.464 52.9115 104.464 52.0795C104.464 51.2155 103.92 50.5115 102.688 50.5115C101.584 50.5115 100.304 51.2955 99.6003 51.7915ZM102.544 47.8555C102.064 47.8555 101.68 47.4715 101.68 46.9915C101.68 46.5115 102.064 46.1115 102.544 46.1115C103.024 46.1115 103.424 46.4955 103.424 46.9915C103.424 47.4715 103.024 47.8555 102.544 47.8555Z" fill="black"/>
<path d="M107.056 57.1355V55.9675H109.296V45.8555H110.768V55.9675H112.528V57.1355H107.056Z" fill="black"/>
<path d="M112.29 57.1355V55.9675H114.53V45.8555H116.002V57.1355H112.29Z" fill="black"/>
<path d="M127.239 48.1435C126.759 48.1435 126.375 47.7755 126.375 47.2795C126.375 46.8155 126.759 46.4315 127.239 46.4315C127.703 46.4315 128.071 46.7995 128.071 47.2795C128.071 47.7595 127.703 48.1435 127.239 48.1435ZM124.871 48.1435C124.391 48.1435 124.023 47.7755 124.023 47.2795C124.023 46.8155 124.391 46.4315 124.871 46.4315C125.335 46.4315 125.719 46.7995 125.719 47.2795C125.719 47.7595 125.335 48.1435 124.871 48.1435ZM131.175 57.1355H126.343C123.271 57.1355 122.151 55.6795 122.151 53.4075C122.151 51.2955 123.447 49.4395 126.183 49.4395C127.943 49.4395 129.399 49.9995 129.399 49.9995V55.9675H131.175V57.1355ZM127.959 55.9675V50.9755C127.959 50.9755 127.175 50.6075 126.023 50.6075C124.535 50.6075 123.639 51.6635 123.639 53.2475C123.639 55.0715 124.487 55.9675 126.551 55.9675H127.959Z" fill="black"/>
<path d="M140.067 57.1355H136.627C134.787 57.1355 133.795 56.6395 133.299 55.7755C132.947 56.6555 132.195 57.1355 131.171 57.1355H130.931V55.9675H131.235C132.051 55.9675 132.643 55.5035 132.643 53.6155C132.643 51.2635 134.003 49.4395 136.547 49.4395C138.947 49.4395 140.067 50.7835 140.067 53.2315V57.1355ZM138.627 55.9675V53.4715C138.627 51.4075 137.859 50.6075 136.435 50.6075C135.011 50.6075 134.115 51.6795 134.115 53.4715C134.115 55.1675 134.883 55.9675 136.819 55.9675H138.627Z" fill="black"/>
<path d="M142.951 57.1355V45.8555H144.423V55.9675H146.183V57.1355H142.951Z" fill="black"/>
<path d="M157.019 57.1355H145.947V55.9675H147.835C148.171 55.9675 148.459 56.0155 148.459 56.0155C148.459 56.0155 147.803 55.5195 147.803 54.5595C147.803 53.0075 148.907 51.9035 150.683 51.9035C152.587 51.9035 153.483 53.2315 153.483 55.2635V55.9675H155.595V55.6475C155.595 51.6795 154.091 50.0315 150.795 50.0315C149.755 50.0315 148.411 50.2555 147.403 50.5915L147.243 49.5195C148.331 49.1835 149.739 48.9275 151.003 48.9275C154.859 48.9275 157.019 50.8475 157.019 55.6475V57.1355ZM152.203 55.9995V55.3115C152.203 53.9355 151.739 52.9115 150.587 52.9115C149.579 52.9115 149.099 53.5835 149.099 54.3995C149.099 55.4395 149.883 55.9995 150.891 55.9995H152.203Z" fill="black"/>
<path d="M621.466 587.518C620.986 587.518 620.602 587.15 620.602 586.654C620.602 586.19 620.986 585.806 621.466 585.806C621.93 585.806 622.298 586.174 622.298 586.654C622.298 587.134 621.93 587.518 621.466 587.518ZM619.098 587.518C618.618 587.518 618.25 587.15 618.25 586.654C618.25 586.19 618.618 585.806 619.098 585.806C619.562 585.806 619.946 586.174 619.946 586.654C619.946 587.134 619.562 587.518 619.098 587.518ZM625.402 596.51H620.57C617.498 596.51 616.378 595.054 616.378 592.782C616.378 590.67 617.674 588.814 620.41 588.814C622.17 588.814 623.626 589.374 623.626 589.374V595.342H625.402V596.51ZM622.186 595.342V590.35C622.186 590.35 621.402 589.982 620.25 589.982C618.762 589.982 617.866 591.038 617.866 592.622C617.866 594.446 618.714 595.342 620.778 595.342H622.186Z" fill="black"/>
<path d="M634.294 596.51H630.854C629.014 596.51 628.022 596.014 627.526 595.15C627.174 596.03 626.422 596.51 625.398 596.51H625.158V595.342H625.462C626.278 595.342 626.87 594.878 626.87 592.99C626.87 590.638 628.23 588.814 630.774 588.814C633.174 588.814 634.294 590.158 634.294 592.606V596.51ZM632.854 595.342V592.846C632.854 590.782 632.086 589.982 630.662 589.982C629.238 589.982 628.342 591.054 628.342 592.846C628.342 594.542 629.11 595.342 631.046 595.342H632.854Z" fill="black"/>
<path d="M637.178 596.51V585.23H638.65V595.342H640.41V596.51H637.178Z" fill="black"/>
<path d="M651.245 596.51H640.173V595.342H642.061C642.397 595.342 642.685 595.39 642.685 595.39C642.685 595.39 642.029 594.894 642.029 593.934C642.029 592.382 643.133 591.278 644.909 591.278C646.813 591.278 647.709 592.606 647.709 594.638V595.342H649.821V595.022C649.821 591.054 648.317 589.406 645.021 589.406C643.981 589.406 642.637 589.63 641.629 589.966L641.469 588.894C642.557 588.558 643.965 588.302 645.229 588.302C649.085 588.302 651.245 590.222 651.245 595.022V596.51ZM646.429 595.374V594.686C646.429 593.31 645.965 592.286 644.813 592.286C643.805 592.286 643.325 592.958 643.325 593.774C643.325 594.814 644.109 595.374 645.117 595.374H646.429Z" fill="black"/>
<path d="M587.307 48.0859V47.2699L590.891 46.7579V47.5739L587.307 48.0859ZM587.323 46.5819V45.7659L590.907 45.2539V46.0699L587.323 46.5819Z" fill="black"/>
<path d="M588.385 61.0859V49.8059H589.857V61.0859H588.385Z" fill="black"/>
<path d="M592.212 61.0859V59.9179H597.348C597.3 56.9899 596.148 55.3579 593.316 54.4939L593.684 53.2459C597.044 54.2859 598.708 56.1579 598.804 59.9179H600.036V61.0859H592.212Z" fill="black"/>
<path d="M603.594 64.3499C603.114 64.3499 602.73 63.9819 602.73 63.4859C602.73 63.0059 603.114 62.6219 603.594 62.6219C604.074 62.6219 604.474 62.9899 604.474 63.4859C604.474 63.9659 604.074 64.3499 603.594 64.3499ZM599.818 61.0859V59.9179H606.426C606.49 59.3579 606.538 58.7979 606.538 58.2699C606.538 55.8539 605.658 54.6699 603.034 54.6699C602.394 54.6699 601.85 54.7019 601.258 54.7819V53.6299C601.786 53.5499 602.458 53.5019 603.162 53.5019C606.682 53.5019 607.994 55.1179 607.994 58.1579C607.994 58.9259 607.93 59.9339 607.738 61.0859H599.818Z" fill="black"/>
<path d="M618.782 52.0939C618.302 52.0939 617.918 51.7259 617.918 51.2299C617.918 50.7659 618.302 50.3819 618.782 50.3819C619.246 50.3819 619.614 50.7499 619.614 51.2299C619.614 51.7099 619.246 52.0939 618.782 52.0939ZM616.414 52.0939C615.934 52.0939 615.566 51.7259 615.566 51.2299C615.566 50.7659 615.934 50.3819 616.414 50.3819C616.878 50.3819 617.262 50.7499 617.262 51.2299C617.262 51.7099 616.878 52.0939 616.414 52.0939ZM622.718 61.0859H617.886C614.814 61.0859 613.694 59.6299 613.694 57.3579C613.694 55.2459 614.99 53.3899 617.726 53.3899C619.486 53.3899 620.942 53.9499 620.942 53.9499V59.9179H622.718V61.0859ZM619.502 59.9179V54.9259C619.502 54.9259 618.718 54.5579 617.566 54.5579C616.078 54.5579 615.182 55.6139 615.182 57.1979C615.182 59.0219 616.03 59.9179 618.094 59.9179H619.502Z" fill="black"/>
<path d="M631.61 61.0859H628.17C626.33 61.0859 625.338 60.5899 624.842 59.7259C624.49 60.6059 623.738 61.0859 622.714 61.0859H622.474V59.9179H622.778C623.594 59.9179 624.186 59.4539 624.186 57.5659C624.186 55.2139 625.546 53.3899 628.09 53.3899C630.49 53.3899 631.61 54.7339 631.61 57.1819V61.0859ZM630.17 59.9179V57.4219C630.17 55.3579 629.402 54.5579 627.978 54.5579C626.554 54.5579 625.658 55.6299 625.658 57.4219C625.658 59.1179 626.426 59.9179 628.362 59.9179H630.17Z" fill="black"/>
<path d="M634.494 61.0859V49.8059H635.966V59.9179H637.726V61.0859H634.494Z" fill="black"/>
<path d="M648.562 61.0859H637.49V59.9179H639.378C639.714 59.9179 640.002 59.9659 640.002 59.9659C640.002 59.9659 639.346 59.4699 639.346 58.5099C639.346 56.9579 640.45 55.8539 642.226 55.8539C644.13 55.8539 645.026 57.1819 645.026 59.2139V59.9179H647.138V59.5979C647.138 55.6299 645.634 53.9819 642.338 53.9819C641.298 53.9819 639.954 54.2059 638.946 54.5419L638.786 53.4699C639.874 53.1339 641.282 52.8779 642.546 52.8779C646.402 52.8779 648.562 54.7979 648.562 59.5979V61.0859ZM643.746 59.9499V59.2619C643.746 57.8859 643.282 56.8619 642.13 56.8619C641.122 56.8619 640.642 57.5339 640.642 58.3499C640.642 59.3899 641.426 59.9499 642.434 59.9499H643.746Z" fill="black"/>
</g>
<defs>
<linearGradient id="paint0_linear_1256_7525" x1="689.753" y1="324.344" x2="41.8931" y2="324.344" gradientUnits="userSpaceOnUse">
<stop stop-color="#DBDBDB"/>
<stop offset="1" stop-color="white"/>
</linearGradient>
<linearGradient id="paint1_linear_1256_7525" x1="670.307" y1="651.121" x2="441.254" y2="422.088" gradientUnits="userSpaceOnUse">
<stop offset="0.15" stop-color="white" stop-opacity="0"/>
<stop offset="0.93" stop-color="#4E5F6E" stop-opacity="0.4"/>
</linearGradient>
<linearGradient id="paint2_linear_1256_7525" x1="194.097" y1="161.3" x2="460.36" y2="396.043" gradientUnits="userSpaceOnUse">
<stop stop-color="white"/>
<stop offset="1"/>
</linearGradient>
<linearGradient id="paint3_linear_1256_7525" x1="927.561" y1="222.408" x2="354.644" y2="-352.718" gradientUnits="userSpaceOnUse">
<stop offset="0.15" stop-color="white" stop-opacity="0"/>
<stop offset="0.23" stop-color="#FBFDF8" stop-opacity="0.04"/>
<stop offset="0.35" stop-color="#F2F8E5" stop-opacity="0.15"/>
<stop offset="0.5" stop-color="#E2F0C7" stop-opacity="0.32"/>
<stop offset="0.67" stop-color="#CCE49C" stop-opacity="0.56"/>
<stop offset="0.86" stop-color="#B1D566" stop-opacity="0.87"/>
<stop offset="0.93" stop-color="#A5CF4F"/>
</linearGradient>
<linearGradient id="paint4_linear_1256_7525" x1="380.443" y1="289.402" x2="85.4562" y2="-5.58521" gradientUnits="userSpaceOnUse">
<stop offset="0.15" stop-color="white" stop-opacity="0"/>
<stop offset="0.23" stop-color="#FBFDF8" stop-opacity="0.04"/>
<stop offset="0.35" stop-color="#F2F8E5" stop-opacity="0.15"/>
<stop offset="0.5" stop-color="#E2F0C7" stop-opacity="0.32"/>
<stop offset="0.67" stop-color="#CCE49C" stop-opacity="0.56"/>
<stop offset="0.86" stop-color="#B1D566" stop-opacity="0.87"/>
<stop offset="0.93" stop-color="#A5CF4F"/>
</linearGradient>
<linearGradient id="paint5_linear_1256_7525" x1="409.323" y1="372.537" x2="506.476" y2="480.436" gradientUnits="userSpaceOnUse">
<stop stop-color="white"/>
<stop offset="1"/>
</linearGradient>
<linearGradient id="paint6_linear_1256_7525" x1="544.18" y1="517.987" x2="333.589" y2="277.431" gradientUnits="userSpaceOnUse">
<stop offset="0.15" stop-color="white"/>
<stop offset="0.22" stop-color="#FFFCF8" stop-opacity="0.98"/>
<stop offset="0.33" stop-color="#FEF4E5" stop-opacity="0.92"/>
<stop offset="0.47" stop-color="#FEE6C5" stop-opacity="0.83"/>
<stop offset="0.62" stop-color="#FDD499" stop-opacity="0.7"/>
<stop offset="0.8" stop-color="#FBBC61" stop-opacity="0.54"/>
<stop offset="0.93" stop-color="#FAA831" stop-opacity="0.4"/>
</linearGradient>
<clipPath id="clip0_1256_7525">
<rect width="709.995" height="654.152" fill="white" transform="matrix(-1 0 0 1 709.995 0)"/>
</clipPath>
</defs>
</svg>
