<svg width="710" height="655" viewBox="0 0 710 655" fill="none" xmlns="http://www.w3.org/2000/svg">
<g clip-path="url(#clip0_1269_7621)">
<mask id="mask0_1269_7621" style="mask-type:luminance" maskUnits="userSpaceOnUse" x="23" y="19" width="646" height="614">
<path d="M23.3047 19.9043V566.8C23.3047 584.255 30.2387 600.995 42.5812 613.337C54.9237 625.68 71.6638 632.614 89.1188 632.614H668.881V85.7184C668.881 68.2634 661.947 51.5233 649.605 39.1808C637.262 26.8383 620.522 19.9043 603.067 19.9043H23.3047Z" fill="white"/>
</mask>
<g mask="url(#mask0_1269_7621)">
<path d="M669.808 16.1543H20.2422V632.533H669.808V16.1543Z" fill="url(#paint0_linear_1269_7621)"/>
<path opacity="0.57" d="M22.5557 249.057L20.2422 631.676H478.328L22.5557 249.057Z" fill="url(#paint1_linear_1269_7621)"/>
<mask id="mask1_1269_7621" style="mask-type:luminance" maskUnits="userSpaceOnUse" x="-302" y="-301" width="1254" height="1254">
<path d="M365.236 -300.291L-301.859 287.832L284.325 952.728L951.42 364.605L365.236 -300.291Z" fill="url(#paint2_linear_1269_7621)"/>
</mask>
<g mask="url(#mask1_1269_7621)">
<path d="M668.883 0.275391H38.3047V517.754H668.883V0.275391Z" fill="url(#paint3_linear_1269_7621)"/>
<mask id="mask2_1269_7621" style="mask-type:luminance" maskUnits="userSpaceOnUse" x="38" y="0" width="629" height="518">
<path d="M666.65 0.257812H38.3047V517.736H666.65V0.257812Z" fill="white"/>
</mask>
<g mask="url(#mask2_1269_7621)">
<path d="M668.656 17.3301H57.5L668.656 515.623V17.3301Z" fill="url(#paint4_linear_1269_7621)"/>
</g>
</g>
<mask id="mask3_1269_7621" style="mask-type:luminance" maskUnits="userSpaceOnUse" x="-282" y="-302" width="1256" height="1256">
<path d="M312.331 -301.061L-281.305 358.238L379.802 953.502L973.438 294.203L312.331 -301.061Z" fill="url(#paint5_linear_1269_7621)"/>
</mask>
<g mask="url(#mask3_1269_7621)">
<mask id="mask4_1269_7621" style="mask-type:luminance" maskUnits="userSpaceOnUse" x="2" y="0" width="686" height="634">
<path d="M687.115 0.259766H2.07031V633.81H687.115V0.259766Z" fill="white"/>
</mask>
<g mask="url(#mask4_1269_7621)">
<mask id="mask5_1269_7621" style="mask-type:luminance" maskUnits="userSpaceOnUse" x="21" y="17" width="647" height="615">
<path d="M138.59 17.334H21.2812L22.5576 249.06L478.33 631.679H667.915V455.796L138.59 17.334Z" fill="white"/>
</mask>
<g mask="url(#mask5_1269_7621)">
<path d="M301.847 -303.15L-283.195 365.139L387.359 952.165L972.401 283.876L301.847 -303.15Z" fill="url(#paint6_linear_1269_7621)"/>
</g>
</g>
</g>
</g>
<path d="M6.55887 21.2422V566.821C6.5455 577.923 8.72926 588.918 12.9843 599.172C17.2394 609.426 23.4816 618.737 31.3512 626.568C39.2209 634.398 48.5624 640.594 58.8375 644.798C69.1126 649.002 80.1181 651.132 91.2198 651.063L668.051 648.251M-0.28125 28.6009L6.55941 21.2617L13.3802 28.6009M660.696 641.471L668.075 648.272L660.755 655.132" stroke="#1E4387" stroke-width="0.937352" stroke-miterlimit="10"/>
<path d="M261.91 422.766C265.46 422.766 268.931 421.713 271.882 419.741C274.834 417.769 277.135 414.965 278.493 411.685C279.852 408.406 280.207 404.797 279.515 401.315C278.822 397.833 277.113 394.635 274.602 392.124C272.092 389.614 268.894 387.905 265.412 387.212C261.93 386.52 258.321 386.875 255.041 388.234C251.762 389.592 248.958 391.893 246.986 394.844C245.014 397.796 243.961 401.266 243.961 404.817C243.961 409.577 245.852 414.142 249.218 417.509C252.584 420.875 257.15 422.766 261.91 422.766Z" fill="#A5CF4F"/>
<path d="M257.08 401.686L254.704 403.778L253.281 402.138L257.147 398.875H259.489V410.722H257.08V401.686Z" fill="white"/>
<path d="M266.982 401.686L264.606 403.778L263.184 402.138L267.049 398.875H269.391V410.722H266.982V401.686Z" fill="white"/>
<path d="M237.363 498.553C240.913 498.553 244.384 497.5 247.335 495.528C250.287 493.556 252.588 490.752 253.946 487.473C255.305 484.193 255.66 480.584 254.968 477.102C254.275 473.62 252.566 470.422 250.055 467.912C247.545 465.401 244.347 463.692 240.865 462.999C237.383 462.307 233.774 462.662 230.494 464.021C227.215 465.379 224.411 467.68 222.439 470.632C220.467 473.583 219.414 477.054 219.414 480.604C219.414 485.364 221.305 489.93 224.671 493.296C228.037 496.662 232.603 498.553 237.363 498.553Z" fill="#A5CF4F"/>
<path d="M231.158 477.67L228.782 479.762L227.359 478.122L231.225 474.859H233.567V486.706H231.158V477.67Z" fill="white"/>
<path d="M239.855 479.527H240.675C240.909 479.527 241.138 479.511 241.361 479.477C241.584 479.444 241.785 479.382 241.964 479.293C242.153 479.193 242.304 479.059 242.415 478.892C242.527 478.713 242.583 478.484 242.583 478.206C242.583 477.849 242.438 477.553 242.148 477.319C241.869 477.084 241.523 476.967 241.11 476.967C240.72 476.967 240.396 477.073 240.14 477.285C239.883 477.497 239.716 477.759 239.638 478.072L236.877 477.503C237.011 476.99 237.212 476.555 237.479 476.198C237.747 475.829 238.065 475.534 238.433 475.311C238.801 475.088 239.208 474.926 239.655 474.826C240.112 474.714 240.592 474.658 241.094 474.658C241.618 474.658 242.12 474.725 242.6 474.859C243.09 474.982 243.52 475.182 243.888 475.461C244.256 475.729 244.546 476.069 244.758 476.482C244.981 476.895 245.093 477.386 245.093 477.955C245.093 478.613 244.92 479.176 244.574 479.645C244.228 480.113 243.726 480.414 243.068 480.548V480.598C243.425 480.643 243.737 480.749 244.005 480.916C244.284 481.084 244.518 481.29 244.708 481.535C244.897 481.781 245.042 482.06 245.143 482.372C245.243 482.684 245.293 483.013 245.293 483.359C245.293 483.95 245.176 484.469 244.942 484.915C244.719 485.362 244.412 485.735 244.022 486.036C243.643 486.327 243.191 486.544 242.666 486.689C242.153 486.834 241.607 486.907 241.027 486.907C239.967 486.907 239.052 486.661 238.282 486.17C237.524 485.68 237.022 484.904 236.777 483.844L239.42 483.225C239.51 483.649 239.688 483.984 239.956 484.229C240.235 484.475 240.642 484.597 241.177 484.597C241.724 484.597 242.125 484.458 242.382 484.179C242.65 483.889 242.784 483.521 242.784 483.075C242.784 482.74 242.711 482.484 242.566 482.305C242.432 482.115 242.254 481.976 242.031 481.887C241.807 481.798 241.556 481.747 241.278 481.736C240.999 481.714 240.72 481.703 240.441 481.703H239.855V479.527Z" fill="white"/>
<path d="M269.801 331.402C273.375 331.422 276.874 330.38 279.856 328.409C282.837 326.438 285.166 323.626 286.547 320.33C287.929 317.034 288.3 313.401 287.615 309.894C286.93 306.386 285.219 303.161 282.699 300.627C280.179 298.092 276.963 296.363 273.459 295.659C269.955 294.954 266.321 295.306 263.017 296.669C259.713 298.032 256.888 300.345 254.901 303.316C252.913 306.286 251.852 309.779 251.852 313.353C251.839 315.719 252.293 318.064 253.189 320.253C254.086 322.442 255.406 324.433 257.074 326.11C258.742 327.787 260.725 329.118 262.909 330.027C265.093 330.935 267.436 331.402 269.801 331.402Z" fill="#A5CF4F"/>
<path d="M263.064 310.145L260.688 312.236L259.266 310.596L263.131 307.334H265.473V319.18H263.064V310.145Z" fill="white"/>
<path d="M268.699 313.257C268.699 312.554 268.761 311.84 268.884 311.115C269.017 310.39 269.246 309.732 269.57 309.141C269.904 308.55 270.356 308.07 270.925 307.702C271.494 307.322 272.219 307.133 273.1 307.133C273.981 307.133 274.707 307.322 275.275 307.702C275.844 308.07 276.291 308.55 276.614 309.141C276.949 309.732 277.177 310.39 277.3 311.115C277.434 311.84 277.501 312.554 277.501 313.257C277.501 313.96 277.434 314.674 277.3 315.399C277.177 316.124 276.949 316.782 276.614 317.373C276.291 317.964 275.844 318.45 275.275 318.829C274.707 319.197 273.981 319.381 273.1 319.381C272.219 319.381 271.494 319.197 270.925 318.829C270.356 318.45 269.904 317.964 269.57 317.373C269.246 316.782 269.017 316.124 268.884 315.399C268.761 314.674 268.699 313.96 268.699 313.257ZM271.209 313.257C271.209 313.569 271.221 313.943 271.243 314.378C271.276 314.813 271.354 315.231 271.477 315.633C271.6 316.035 271.784 316.375 272.029 316.654C272.286 316.933 272.643 317.072 273.1 317.072C273.546 317.072 273.898 316.933 274.154 316.654C274.411 316.375 274.601 316.035 274.723 315.633C274.846 315.231 274.918 314.813 274.941 314.378C274.974 313.943 274.991 313.569 274.991 313.257C274.991 312.945 274.974 312.571 274.941 312.136C274.918 311.701 274.846 311.283 274.723 310.881C274.601 310.479 274.411 310.139 274.154 309.86C273.898 309.581 273.546 309.442 273.1 309.442C272.643 309.442 272.286 309.581 272.029 309.86C271.784 310.139 271.6 310.479 271.477 310.881C271.354 311.283 271.276 311.701 271.243 312.136C271.221 312.571 271.209 312.945 271.209 313.257Z" fill="white"/>
<path d="M390.994 271.234C394.54 271.215 398.001 270.145 400.939 268.161C403.878 266.177 406.163 263.367 407.506 260.085C408.849 256.804 409.191 253.198 408.487 249.723C407.783 246.247 406.066 243.058 403.551 240.558C401.037 238.058 397.839 236.358 394.36 235.674C390.881 234.989 387.277 235.35 384.003 236.712C380.729 238.073 377.931 240.374 375.964 243.323C373.996 246.273 372.945 249.739 372.945 253.285C372.945 255.651 373.413 257.993 374.321 260.177C375.229 262.361 376.56 264.344 378.238 266.012C379.915 267.68 381.906 269.001 384.095 269.897C386.284 270.793 388.629 271.247 390.994 271.234Z" fill="#A5CF4F"/>
<path d="M391.699 251.655C391.833 251.622 391.966 251.594 392.1 251.572C392.234 251.549 392.374 251.538 392.519 251.538C393.076 251.538 393.584 251.639 394.041 251.839C394.499 252.04 394.889 252.313 395.213 252.659C395.536 253.005 395.787 253.418 395.966 253.897C396.144 254.366 396.233 254.868 396.233 255.403C396.233 256.017 396.116 256.575 395.882 257.077C395.659 257.567 395.346 257.991 394.945 258.348C394.554 258.705 394.086 258.984 393.539 259.185C393.004 259.375 392.429 259.469 391.816 259.469C391.191 259.469 390.611 259.375 390.076 259.185C389.54 258.984 389.072 258.705 388.67 258.348C388.28 257.991 387.967 257.567 387.733 257.077C387.51 256.575 387.398 256.017 387.398 255.403C387.398 254.979 387.437 254.595 387.516 254.249C387.594 253.892 387.694 253.557 387.817 253.245C387.951 252.933 388.101 252.637 388.269 252.358C388.447 252.068 388.631 251.772 388.821 251.471L391.414 247.422H394.476L391.699 251.655ZM393.723 255.303C393.723 254.768 393.545 254.327 393.188 253.981C392.842 253.624 392.385 253.446 391.816 253.446C391.247 253.446 390.784 253.624 390.427 253.981C390.081 254.327 389.908 254.768 389.908 255.303C389.908 255.838 390.081 256.285 390.427 256.642C390.784 256.987 391.247 257.16 391.816 257.16C392.385 257.16 392.842 256.987 393.188 256.642C393.545 256.285 393.723 255.838 393.723 255.303Z" fill="white"/>
<path d="M232.707 241.957C236.257 241.957 239.727 240.905 242.679 238.932C245.631 236.96 247.932 234.157 249.29 230.877C250.649 227.597 251.004 223.988 250.312 220.506C249.619 217.024 247.909 213.826 245.399 211.316C242.889 208.806 239.691 207.096 236.209 206.403C232.727 205.711 229.118 206.066 225.838 207.425C222.558 208.783 219.755 211.084 217.783 214.036C215.811 216.988 214.758 220.458 214.758 224.008C214.758 228.768 216.649 233.334 220.015 236.7C223.381 240.066 227.947 241.957 232.707 241.957Z" fill="#4E5F6D"/>
<path d="M233.886 225.201C233.752 225.234 233.618 225.262 233.485 225.285C233.351 225.307 233.211 225.318 233.066 225.318C232.508 225.318 232.001 225.218 231.544 225.017C231.086 224.816 230.696 224.543 230.372 224.197C230.049 223.851 229.798 223.444 229.619 222.975C229.441 222.496 229.352 221.988 229.352 221.453C229.352 220.839 229.463 220.287 229.686 219.796C229.92 219.294 230.233 218.865 230.623 218.508C231.025 218.151 231.493 217.878 232.029 217.688C232.564 217.487 233.144 217.387 233.769 217.387C234.383 217.387 234.957 217.487 235.492 217.688C236.039 217.878 236.508 218.151 236.898 218.508C237.3 218.865 237.612 219.294 237.835 219.796C238.069 220.287 238.186 220.839 238.186 221.453C238.186 221.877 238.147 222.267 238.069 222.624C237.991 222.97 237.885 223.299 237.751 223.611C237.629 223.924 237.478 224.225 237.3 224.515C237.132 224.794 236.954 225.084 236.764 225.385L234.171 229.434H231.109L233.886 225.201ZM231.861 221.553C231.861 222.089 232.034 222.535 232.38 222.892C232.737 223.238 233.2 223.411 233.769 223.411C234.338 223.411 234.795 223.238 235.141 222.892C235.498 222.535 235.677 222.089 235.677 221.553C235.677 221.018 235.498 220.577 235.141 220.231C234.795 219.874 234.338 219.696 233.769 219.696C233.2 219.696 232.737 219.874 232.38 220.231C232.034 220.577 231.861 221.018 231.861 221.553Z" fill="white"/>
<path d="M371.049 197.441C374.595 197.422 378.055 196.352 380.994 194.368C383.932 192.384 386.217 189.574 387.561 186.292C388.904 183.011 389.245 179.405 388.541 175.93C387.838 172.454 386.12 169.265 383.606 166.765C381.092 164.265 377.894 162.565 374.415 161.881C370.935 161.196 367.332 161.557 364.058 162.919C360.784 164.28 357.986 166.581 356.018 169.53C354.05 172.48 353 175.946 353 179.492C353 181.858 353.468 184.2 354.376 186.384C355.284 188.568 356.615 190.551 358.292 192.219C359.97 193.888 361.96 195.208 364.15 196.104C366.339 197 368.684 197.454 371.049 197.441Z" fill="#4E5F6D"/>
<path d="M370.131 182.979H364.961V180.87L369.797 173.508H372.541V180.87H374.064V182.979H372.541V185.355H370.131V182.979ZM370.131 176.787H370.098L367.471 180.87H370.131V176.787Z" fill="white"/>
<path d="M338.578 140.742C342.117 140.71 345.567 139.633 348.496 137.646C351.424 135.659 353.7 132.851 355.037 129.574C356.374 126.298 356.713 122.699 356.01 119.23C355.308 115.762 353.596 112.578 351.089 110.08C348.583 107.582 345.393 105.88 341.923 105.189C338.452 104.498 334.854 104.849 331.582 106.197C328.31 107.544 325.509 109.83 323.532 112.765C321.554 115.7 320.489 119.154 320.469 122.693C320.456 125.067 320.914 127.42 321.816 129.615C322.718 131.811 324.047 133.806 325.726 135.485C327.405 137.163 329.4 138.492 331.595 139.395C333.791 140.297 336.144 140.755 338.518 140.742" fill="#4E5F6D"/>
<path d="M338.126 122.537H338.946C339.18 122.537 339.409 122.52 339.632 122.487C339.855 122.454 340.056 122.392 340.234 122.303C340.424 122.203 340.574 122.069 340.686 121.901C340.797 121.723 340.853 121.494 340.853 121.215C340.853 120.858 340.708 120.563 340.418 120.328C340.139 120.094 339.793 119.977 339.381 119.977C338.99 119.977 338.667 120.083 338.41 120.295C338.154 120.507 337.986 120.769 337.908 121.081L335.147 120.513C335.281 119.999 335.482 119.564 335.75 119.207C336.017 118.839 336.335 118.544 336.703 118.321C337.072 118.097 337.479 117.936 337.925 117.835C338.382 117.724 338.862 117.668 339.364 117.668C339.888 117.668 340.39 117.735 340.87 117.869C341.361 117.991 341.79 118.192 342.158 118.471C342.526 118.739 342.816 119.079 343.028 119.492C343.251 119.905 343.363 120.395 343.363 120.964C343.363 121.622 343.19 122.186 342.844 122.654C342.499 123.123 341.997 123.424 341.338 123.558V123.608C341.695 123.653 342.008 123.759 342.275 123.926C342.554 124.093 342.789 124.3 342.978 124.545C343.168 124.791 343.313 125.069 343.413 125.382C343.514 125.694 343.564 126.023 343.564 126.369C343.564 126.96 343.447 127.479 343.212 127.925C342.989 128.371 342.683 128.745 342.292 129.046C341.913 129.336 341.461 129.554 340.937 129.699C340.424 129.844 339.877 129.916 339.297 129.916C338.237 129.916 337.323 129.671 336.553 129.18C335.794 128.689 335.292 127.914 335.047 126.854L337.691 126.235C337.78 126.659 337.958 126.994 338.226 127.239C338.505 127.485 338.912 127.607 339.448 127.607C339.994 127.607 340.396 127.468 340.652 127.189C340.92 126.899 341.054 126.531 341.054 126.085C341.054 125.75 340.981 125.493 340.836 125.315C340.703 125.125 340.524 124.986 340.301 124.897C340.078 124.807 339.827 124.757 339.548 124.746C339.269 124.724 338.99 124.712 338.711 124.712H338.126V122.537Z" fill="white"/>
<path d="M416.2 126.002C419.745 126.002 423.212 124.952 426.161 122.984C429.111 121.016 431.411 118.219 432.773 114.945C434.134 111.671 434.495 108.067 433.811 104.588C433.126 101.109 431.427 97.9101 428.926 95.396C426.426 92.8818 423.237 91.1645 419.762 90.4607C416.287 89.7569 412.681 90.0981 409.399 91.4414C406.118 92.7846 403.308 95.0697 401.324 98.0083C399.339 100.947 398.27 104.407 398.25 107.953C398.237 110.319 398.692 112.663 399.588 114.853C400.484 117.042 401.804 119.032 403.472 120.71C405.14 122.387 407.123 123.718 409.308 124.626C411.492 125.535 413.834 126.002 416.2 126.002Z" fill="#4E5F6D"/>
<path d="M412.828 111.1L417.43 106.967C417.664 106.755 417.898 106.515 418.132 106.247C418.367 105.98 418.484 105.667 418.484 105.31C418.484 104.909 418.339 104.596 418.049 104.373C417.759 104.139 417.418 104.022 417.028 104.022C416.56 104.022 416.191 104.167 415.924 104.457C415.667 104.747 415.522 105.104 415.489 105.528L412.979 105.344C413.012 104.73 413.14 104.2 413.364 103.754C413.587 103.297 413.882 102.918 414.25 102.616C414.619 102.315 415.048 102.092 415.539 101.947C416.041 101.791 416.582 101.713 417.162 101.713C417.697 101.713 418.199 101.791 418.668 101.947C419.136 102.092 419.544 102.315 419.889 102.616C420.235 102.906 420.503 103.275 420.693 103.721C420.893 104.167 420.994 104.686 420.994 105.277C420.994 105.656 420.955 106.002 420.877 106.314C420.798 106.616 420.687 106.894 420.542 107.151C420.408 107.396 420.246 107.625 420.057 107.837C419.867 108.049 419.661 108.255 419.438 108.456L415.84 111.552H421.094V113.76H412.828V111.1Z" fill="white"/>
<path d="M454.707 243.313C458.257 243.313 461.727 242.26 464.679 240.288C467.631 238.315 469.932 235.512 471.29 232.232C472.649 228.952 473.004 225.343 472.312 221.862C471.619 218.38 469.909 215.182 467.399 212.671C464.889 210.161 461.691 208.452 458.209 207.759C454.727 207.066 451.118 207.422 447.838 208.78C444.558 210.139 441.755 212.44 439.783 215.391C437.811 218.343 436.758 221.813 436.758 225.363C436.758 230.124 438.649 234.689 442.015 238.055C445.381 241.422 449.947 243.313 454.707 243.313Z" fill="#A5CF4F"/>
<path d="M458.842 221.59H454.14L454.09 223.413C454.346 223.324 454.698 223.28 455.144 223.28C455.746 223.28 456.299 223.369 456.801 223.547C457.303 223.726 457.732 223.988 458.089 224.334C458.457 224.668 458.742 225.081 458.942 225.572C459.143 226.052 459.244 226.593 459.244 227.195C459.244 227.864 459.126 228.461 458.892 228.985C458.669 229.51 458.357 229.956 457.955 230.324C457.554 230.681 457.074 230.954 456.516 231.144C455.969 231.334 455.373 231.428 454.726 231.428C453.699 231.428 452.84 231.177 452.149 230.675C451.457 230.173 450.983 229.415 450.727 228.4L453.354 227.797C453.421 228.221 453.599 228.567 453.889 228.835C454.179 229.091 454.542 229.22 454.977 229.22C455.512 229.22 455.936 229.052 456.248 228.718C456.572 228.383 456.734 227.959 456.734 227.446C456.734 227.056 456.65 226.738 456.483 226.492C456.326 226.236 456.115 226.035 455.847 225.89C455.59 225.734 455.3 225.628 454.977 225.572C454.653 225.516 454.33 225.488 454.006 225.488C453.593 225.488 453.175 225.527 452.751 225.605C452.338 225.684 451.937 225.789 451.546 225.923L451.68 219.381H458.842V221.59Z" fill="white"/>
<path d="M608.84 209.153C612.39 209.153 615.86 208.1 618.812 206.128C621.764 204.155 624.064 201.352 625.423 198.072C626.781 194.792 627.137 191.183 626.444 187.701C625.752 184.22 624.042 181.021 621.532 178.511C619.022 176.001 615.824 174.291 612.342 173.599C608.86 172.906 605.251 173.262 601.971 174.62C598.691 175.979 595.888 178.279 593.916 181.231C591.943 184.183 590.891 187.653 590.891 191.203C590.891 195.964 592.782 200.529 596.148 203.895C599.514 207.261 604.079 209.153 608.84 209.153Z" fill="#A5CF4F"/>
<path d="M608.087 188.288L605.711 190.379L604.289 188.739L608.154 185.477H610.497V197.323H608.087V188.288Z" fill="white"/>
<path d="M140.059 453.52C143.609 453.52 147.079 452.467 150.031 450.495C152.983 448.522 155.283 445.719 156.642 442.439C158 439.16 158.356 435.55 157.663 432.069C156.971 428.587 155.261 425.389 152.751 422.878C150.24 420.368 147.042 418.659 143.56 417.966C140.079 417.273 136.47 417.629 133.19 418.987C129.91 420.346 127.107 422.647 125.134 425.598C123.162 428.55 122.109 432.02 122.109 435.57C122.109 440.331 124 444.896 127.367 448.262C130.733 451.629 135.298 453.52 140.059 453.52Z" fill="#A5CF4F"/>
<path d="M133.431 431.6L131.055 433.692L129.633 432.052L133.498 428.789H135.841V440.636H133.431V431.6Z" fill="white"/>
<path d="M144.087 438.26H138.916V436.151L143.752 428.789H146.496V436.151H148.019V438.26H146.496V440.636H144.087V438.26ZM144.087 432.069H144.053L141.426 436.151H144.087V432.069Z" fill="white"/>
<path d="M102.723 479.785C106.269 479.785 109.735 478.735 112.685 476.767C115.634 474.799 117.935 472.002 119.296 468.728C120.658 465.454 121.019 461.85 120.334 458.371C119.65 454.892 117.95 451.693 115.45 449.179C112.95 446.665 109.761 444.948 106.285 444.244C102.81 443.54 99.2044 443.881 95.9229 445.225C92.6414 446.568 89.8313 448.853 87.8471 451.792C85.8628 454.73 84.7934 458.191 84.7737 461.736C84.7606 464.102 85.2151 466.447 86.1113 468.636C87.0074 470.825 88.3275 472.816 89.9956 474.493C91.6636 476.17 93.6468 477.501 95.831 478.41C98.0152 479.318 100.357 479.785 102.723 479.785Z" fill="#FAA831"/>
<path d="M97.5327 459.52L95.1567 461.612L93.7344 459.972L97.5996 456.709H99.9422V468.556H97.5327V459.52Z" fill="white"/>
<path d="M111.267 458.918H106.565L106.515 460.742C106.771 460.652 107.123 460.608 107.569 460.608C108.171 460.608 108.724 460.697 109.225 460.875C109.727 461.054 110.157 461.316 110.514 461.662C110.882 461.997 111.166 462.409 111.367 462.9C111.568 463.38 111.668 463.921 111.668 464.523C111.668 465.192 111.551 465.789 111.317 466.314C111.094 466.838 110.782 467.284 110.38 467.652C109.978 468.009 109.499 468.282 108.941 468.472C108.394 468.662 107.798 468.757 107.151 468.757C106.124 468.757 105.265 468.506 104.574 468.004C103.882 467.502 103.408 466.743 103.152 465.728L105.779 465.126C105.845 465.549 106.024 465.895 106.314 466.163C106.604 466.42 106.967 466.548 107.402 466.548C107.937 466.548 108.361 466.381 108.673 466.046C108.997 465.711 109.159 465.287 109.159 464.774C109.159 464.384 109.075 464.066 108.908 463.82C108.751 463.564 108.539 463.363 108.272 463.218C108.015 463.062 107.725 462.956 107.402 462.9C107.078 462.844 106.755 462.816 106.431 462.816C106.018 462.816 105.6 462.855 105.176 462.934C104.763 463.012 104.362 463.118 103.971 463.251L104.105 456.709H111.267V458.918Z" fill="white"/>
<path d="M54.3321 412.955C57.8822 412.955 61.3525 411.903 64.3042 409.93C67.256 407.958 69.5566 405.155 70.9151 401.875C72.2737 398.595 72.6291 394.986 71.9365 391.504C71.244 388.022 69.5344 384.824 67.0242 382.314C64.5139 379.804 61.3157 378.094 57.8339 377.402C54.352 376.709 50.743 377.064 47.4632 378.423C44.1834 379.782 41.3801 382.082 39.4078 385.034C37.4355 387.986 36.3828 391.456 36.3828 395.006C36.3828 397.372 36.8503 399.714 37.7586 401.898C38.6669 404.082 39.9979 406.065 41.6752 407.733C43.3526 409.401 45.3431 410.722 47.5323 411.618C49.7215 412.514 52.0663 412.968 54.4318 412.955" fill="#FAA831"/>
<path d="M57.559 393.136C57.6928 393.102 57.8267 393.074 57.9606 393.052C58.0944 393.03 58.2339 393.019 58.3789 393.019C58.9366 393.019 59.4442 393.119 59.9016 393.32C60.3589 393.521 60.7494 393.794 61.0729 394.14C61.3964 394.486 61.6474 394.898 61.8258 395.378C62.0043 395.846 62.0936 396.348 62.0936 396.884C62.0936 397.497 61.9764 398.055 61.7422 398.557C61.5191 399.048 61.2067 399.472 60.8051 399.829C60.4147 400.186 59.9462 400.465 59.3996 400.665C58.8641 400.855 58.2896 400.95 57.6761 400.95C57.0514 400.95 56.4714 400.855 55.9359 400.665C55.4005 400.465 54.9319 400.186 54.5304 399.829C54.1399 399.472 53.8276 399.048 53.5933 398.557C53.3702 398.055 53.2587 397.497 53.2587 396.884C53.2587 396.46 53.2977 396.075 53.3758 395.729C53.4539 395.372 53.5543 395.038 53.677 394.725C53.8109 394.413 53.9614 394.117 54.1288 393.839C54.3073 393.548 54.4913 393.253 54.681 392.952L57.2745 388.902H60.3366L57.559 393.136ZM59.5836 396.783C59.5836 396.248 59.4052 395.807 59.0482 395.462C58.7024 395.105 58.245 394.926 57.6761 394.926C57.1072 394.926 56.6443 395.105 56.2873 395.462C55.9415 395.807 55.7686 396.248 55.7686 396.783C55.7686 397.319 55.9415 397.765 56.2873 398.122C56.6443 398.468 57.1072 398.641 57.6761 398.641C58.245 398.641 58.7024 398.468 59.0482 398.122C59.4052 397.765 59.5836 397.319 59.5836 396.783Z" fill="white"/>
<path d="M47.6733 391.713L45.2973 393.805L43.875 392.165L47.7403 388.902H50.0828V400.749H47.6733V391.713Z" fill="white"/>
<path d="M345.184 366.766C348.734 366.766 352.204 365.713 355.156 363.741C358.108 361.769 360.408 358.965 361.767 355.685C363.125 352.406 363.481 348.797 362.788 345.315C362.096 341.833 360.386 338.635 357.876 336.124C355.366 333.614 352.167 331.905 348.685 331.212C345.204 330.52 341.595 330.875 338.315 332.234C335.035 333.592 332.232 335.893 330.259 338.844C328.287 341.796 327.234 345.266 327.234 348.817C327.234 353.577 329.125 358.142 332.492 361.509C335.858 364.875 340.423 366.766 345.184 366.766Z" fill="#FAA831"/>
<path d="M341.232 346.294C341.232 345.748 341.332 345.273 341.533 344.872C341.745 344.459 342.03 344.119 342.387 343.851C342.755 343.572 343.179 343.366 343.658 343.232C344.138 343.098 344.651 343.031 345.198 343.031C345.744 343.031 346.257 343.098 346.737 343.232C347.217 343.366 347.635 343.572 347.992 343.851C348.349 344.119 348.633 344.459 348.845 344.872C349.057 345.273 349.163 345.748 349.163 346.294C349.163 346.941 348.985 347.493 348.628 347.951C348.282 348.408 347.791 348.732 347.155 348.921V348.955C347.869 349.144 348.416 349.49 348.795 349.992C349.175 350.483 349.364 351.096 349.364 351.833C349.364 352.402 349.247 352.904 349.013 353.339C348.79 353.774 348.483 354.136 348.092 354.426C347.713 354.705 347.273 354.917 346.771 355.062C346.269 355.207 345.744 355.28 345.198 355.28C344.651 355.28 344.127 355.207 343.625 355.062C343.123 354.917 342.677 354.705 342.286 354.426C341.907 354.136 341.6 353.774 341.366 353.339C341.143 352.904 341.031 352.402 341.031 351.833C341.031 351.096 341.221 350.483 341.6 349.992C341.979 349.49 342.526 349.144 343.24 348.955V348.921C342.604 348.732 342.108 348.408 341.751 347.951C341.405 347.493 341.232 346.941 341.232 346.294ZM343.742 346.646C343.742 347.014 343.876 347.326 344.144 347.583C344.411 347.839 344.763 347.967 345.198 347.967C345.633 347.967 345.984 347.839 346.252 347.583C346.52 347.326 346.653 347.014 346.653 346.646C346.653 346.289 346.52 345.982 346.252 345.725C345.984 345.469 345.633 345.34 345.198 345.34C344.763 345.34 344.411 345.469 344.144 345.725C343.876 345.982 343.742 346.289 343.742 346.646ZM343.541 351.481C343.541 351.894 343.692 352.245 343.993 352.535C344.294 352.825 344.696 352.97 345.198 352.97C345.7 352.97 346.101 352.825 346.402 352.535C346.704 352.245 346.854 351.894 346.854 351.481C346.854 351.057 346.704 350.7 346.402 350.41C346.101 350.12 345.7 349.975 345.198 349.975C344.696 349.975 344.294 350.12 343.993 350.41C343.692 350.7 343.541 351.057 343.541 351.481Z" fill="white"/>
<path d="M482.004 432.74C485.578 432.76 489.078 431.718 492.059 429.747C495.04 427.776 497.369 424.964 498.75 421.668C500.132 418.372 500.503 414.739 499.818 411.232C499.133 407.724 497.422 404.499 494.902 401.964C492.382 399.43 489.166 397.701 485.662 396.997C482.158 396.292 478.524 396.644 475.22 398.007C471.916 399.37 469.092 401.683 467.104 404.654C465.116 407.624 464.055 411.117 464.055 414.691C464.042 417.057 464.496 419.402 465.393 421.591C466.289 423.78 467.609 425.771 469.277 427.448C470.945 429.125 472.928 430.456 475.112 431.365C477.297 432.273 479.639 432.74 482.004 432.74Z" fill="#FAA831"/>
<path d="M484.505 411.155H478.648V408.846H487.316V411.054L482.581 420.692H479.652L484.505 411.155Z" fill="white"/>
<path d="M357.245 561.631C360.814 561.631 364.304 560.573 367.272 558.589C370.24 556.606 372.554 553.787 373.92 550.489C375.286 547.191 375.643 543.562 374.947 540.061C374.25 536.56 372.531 533.344 370.007 530.82C367.483 528.295 364.267 526.576 360.766 525.88C357.265 525.184 353.636 525.541 350.338 526.907C347.04 528.273 344.221 530.587 342.237 533.555C340.254 536.523 339.196 540.012 339.196 543.582C339.182 545.956 339.64 548.309 340.543 550.505C341.445 552.701 342.774 554.696 344.453 556.374C346.131 558.053 348.126 559.382 350.322 560.284C352.518 561.187 354.871 561.645 357.245 561.631Z" fill="#FAA831"/>
<path d="M351.408 539.215L349.032 541.307L347.609 539.667L351.475 536.404H353.817V548.251H351.408V539.215Z" fill="white"/>
<path d="M357.311 545.59L361.912 541.457C362.147 541.245 362.381 541.005 362.615 540.738C362.85 540.47 362.967 540.158 362.967 539.801C362.967 539.399 362.822 539.087 362.532 538.864C362.242 538.629 361.901 538.512 361.511 538.512C361.042 538.512 360.674 538.657 360.407 538.947C360.15 539.237 360.005 539.594 359.971 540.018L357.462 539.834C357.495 539.221 357.623 538.691 357.846 538.245C358.07 537.787 358.365 537.408 358.733 537.107C359.101 536.806 359.531 536.582 360.022 536.437C360.524 536.281 361.065 536.203 361.645 536.203C362.18 536.203 362.682 536.281 363.151 536.437C363.619 536.582 364.026 536.806 364.372 537.107C364.718 537.397 364.986 537.765 365.175 538.211C365.376 538.657 365.477 539.176 365.477 539.767C365.477 540.146 365.438 540.492 365.359 540.805C365.281 541.106 365.17 541.385 365.025 541.641C364.891 541.887 364.729 542.115 364.54 542.327C364.35 542.539 364.144 542.746 363.92 542.946L360.323 546.042H365.577V548.251H357.311V545.59Z" fill="white"/>
<path d="M534.562 44.7246H536.559L539.7 52.2075H539.756L542.869 44.7246H544.865V54.6087H543.525V46.4836H543.497L540.161 54.6087H539.267L535.931 46.4836H535.903V54.6087H534.562V44.7246Z" fill="black"/>
<path d="M548.01 51.3C548.01 51.6351 548.061 51.9469 548.164 52.2354C548.266 52.5146 548.41 52.7566 548.596 52.9613C548.783 53.1568 549.011 53.315 549.28 53.436C549.55 53.5477 549.853 53.6035 550.188 53.6035C550.523 53.6035 550.825 53.5477 551.095 53.436C551.365 53.315 551.593 53.1568 551.779 52.9613C551.966 52.7566 552.11 52.5146 552.212 52.2354C552.315 51.9469 552.366 51.6351 552.366 51.3C552.366 50.965 552.315 50.6579 552.212 50.3786C552.11 50.0901 551.966 49.8481 551.779 49.6527C551.593 49.4479 551.365 49.2897 551.095 49.178C550.825 49.057 550.523 48.9965 550.188 48.9965C549.853 48.9965 549.55 49.057 549.28 49.178C549.011 49.2897 548.783 49.4479 548.596 49.6527C548.41 49.8481 548.266 50.0901 548.164 50.3786C548.061 50.6579 548.01 50.965 548.01 51.3ZM546.67 51.3C546.67 50.8161 546.758 50.3647 546.935 49.9459C547.121 49.527 547.372 49.1594 547.689 48.843C548.005 48.5265 548.378 48.2799 548.806 48.1031C549.234 47.9169 549.695 47.8239 550.188 47.8239C550.681 47.8239 551.142 47.9169 551.57 48.1031C551.998 48.2799 552.37 48.5265 552.687 48.843C553.003 49.1594 553.25 49.527 553.427 49.9459C553.613 50.3647 553.706 50.8161 553.706 51.3C553.706 51.784 553.613 52.2401 553.427 52.6682C553.25 53.087 553.003 53.4546 552.687 53.7711C552.37 54.0782 551.998 54.3248 551.57 54.511C551.142 54.6878 550.681 54.7762 550.188 54.7762C549.695 54.7762 549.234 54.6878 548.806 54.511C548.378 54.3248 548.005 54.0782 547.689 53.7711C547.372 53.4546 547.121 53.087 546.935 52.6682C546.758 52.2401 546.67 51.784 546.67 51.3Z" fill="black"/>
<path d="M558.798 49.6527C558.649 49.4665 558.463 49.313 558.24 49.192C558.026 49.0617 557.76 48.9965 557.444 48.9965C557.146 48.9965 556.885 49.0617 556.662 49.192C556.448 49.313 556.341 49.4945 556.341 49.7365C556.341 49.9319 556.401 50.0901 556.522 50.2111C556.653 50.3321 556.802 50.4298 556.969 50.5043C557.146 50.5787 557.332 50.6346 557.528 50.6718C557.723 50.709 557.891 50.7416 558.03 50.7695C558.3 50.8347 558.551 50.9138 558.784 51.0069C559.026 51.0999 559.231 51.2209 559.398 51.3698C559.575 51.5188 559.71 51.7002 559.803 51.9143C559.906 52.1284 559.957 52.389 559.957 52.6961C559.957 53.0684 559.878 53.3895 559.719 53.6594C559.561 53.92 559.356 54.134 559.105 54.3016C558.854 54.4691 558.565 54.5901 558.24 54.6645C557.923 54.739 557.602 54.7762 557.276 54.7762C556.727 54.7762 556.243 54.6925 555.824 54.5249C555.415 54.3574 555.047 54.0503 554.722 53.6035L555.671 52.8217C555.876 53.0265 556.104 53.208 556.355 53.3662C556.606 53.5244 556.913 53.6035 557.276 53.6035C557.435 53.6035 557.593 53.5896 557.751 53.5617C557.919 53.5244 558.063 53.4732 558.184 53.4081C558.314 53.3336 558.416 53.2452 558.491 53.1428C558.575 53.0311 558.617 52.9055 558.617 52.7659C558.617 52.5798 558.556 52.4262 558.435 52.3052C558.323 52.1842 558.184 52.0911 558.016 52.026C557.858 51.9515 557.686 51.8957 557.5 51.8585C557.323 51.8119 557.165 51.7747 557.025 51.7468C556.755 51.6816 556.499 51.6072 556.257 51.5234C556.015 51.4396 555.801 51.328 555.615 51.1884C555.429 51.0487 555.28 50.8719 555.168 50.6579C555.057 50.4438 555.001 50.1785 555.001 49.8621C555.001 49.5177 555.071 49.2199 555.21 48.9686C555.359 48.708 555.55 48.494 555.783 48.3264C556.025 48.1589 556.294 48.0333 556.592 47.9495C556.899 47.8657 557.207 47.8239 557.514 47.8239C557.96 47.8239 558.389 47.9076 558.798 48.0751C559.208 48.2427 559.533 48.5219 559.775 48.9128L558.798 49.6527Z" fill="black"/>
<path d="M565.029 49.0803H563.228V52.0818C563.228 52.268 563.233 52.4541 563.242 52.6403C563.252 52.8171 563.284 52.98 563.34 53.1289C563.405 53.2685 563.498 53.3848 563.619 53.4779C563.749 53.5617 563.936 53.6035 564.178 53.6035C564.326 53.6035 564.48 53.5896 564.638 53.5617C564.796 53.5337 564.941 53.4825 565.071 53.4081V54.5529C564.922 54.6366 564.727 54.6925 564.485 54.7204C564.252 54.7576 564.071 54.7762 563.94 54.7762C563.456 54.7762 563.079 54.7111 562.809 54.5808C562.549 54.4412 562.353 54.2643 562.223 54.0503C562.102 53.8362 562.028 53.5989 562 53.3383C561.981 53.0684 561.972 52.7985 561.972 52.5286V49.0803H560.52V47.9914H561.972V46.1346H563.228V47.9914H565.029V49.0803Z" fill="black"/>
<path d="M570.857 44.7246H572.197V54.6087H570.857V44.7246Z" fill="black"/>
<path d="M574.421 47.9914H575.594V49.0245H575.622C575.65 48.9314 575.72 48.8151 575.831 48.6755C575.952 48.5358 576.101 48.4055 576.278 48.2846C576.464 48.1543 576.678 48.0472 576.92 47.9635C577.171 47.8704 577.446 47.8239 577.744 47.8239C578.237 47.8239 578.651 47.9262 578.986 48.131C579.321 48.3357 579.596 48.6429 579.81 49.0524C580.024 48.6429 580.327 48.3357 580.717 48.131C581.108 47.9262 581.504 47.8239 581.904 47.8239C582.416 47.8239 582.835 47.9076 583.161 48.0751C583.486 48.2427 583.742 48.466 583.928 48.7453C584.115 49.0152 584.24 49.3269 584.305 49.6806C584.38 50.025 584.417 50.3833 584.417 50.7556V54.6087H583.161V50.9231C583.161 50.6718 583.142 50.4298 583.105 50.1972C583.077 49.9645 583.012 49.7597 582.909 49.5829C582.807 49.4061 582.663 49.2664 582.476 49.1641C582.29 49.0524 582.044 48.9965 581.737 48.9965C581.132 48.9965 580.699 49.1827 580.438 49.555C580.178 49.9272 580.047 50.4066 580.047 50.9929V54.6087H578.791V51.1465C578.791 50.83 578.772 50.5415 578.735 50.2809C578.707 50.0203 578.642 49.7969 578.54 49.6108C578.447 49.4154 578.307 49.2664 578.121 49.1641C577.944 49.0524 577.702 48.9965 577.395 48.9965C577.171 48.9965 576.953 49.0431 576.739 49.1361C576.534 49.2199 576.352 49.3502 576.194 49.527C576.036 49.7039 575.91 49.9319 575.817 50.2111C575.724 50.481 575.678 50.8021 575.678 51.1744V54.6087H574.421V47.9914Z" fill="black"/>
<path d="M586.31 47.9914H587.566V48.9407H587.594C587.836 48.587 588.166 48.3125 588.585 48.117C589.013 47.9216 589.451 47.8239 589.897 47.8239C590.409 47.8239 590.87 47.9123 591.28 48.0891C591.698 48.2659 592.052 48.5126 592.341 48.829C592.638 49.1455 592.866 49.5177 593.025 49.9459C593.183 50.3647 593.262 50.8161 593.262 51.3C593.262 51.7933 593.183 52.254 593.025 52.6821C592.866 53.101 592.638 53.4686 592.341 53.785C592.052 54.0922 591.698 54.3341 591.28 54.511C590.87 54.6878 590.409 54.7762 589.897 54.7762C589.423 54.7762 588.976 54.6785 588.557 54.483C588.138 54.2783 587.817 54.0037 587.594 53.6594H587.566V58.5456H586.31V47.9914ZM589.744 48.9965C589.409 48.9965 589.106 49.057 588.836 49.178C588.566 49.2897 588.338 49.4479 588.152 49.6527C587.966 49.8481 587.822 50.0901 587.72 50.3786C587.617 50.6579 587.566 50.965 587.566 51.3C587.566 51.6351 587.617 51.9469 587.72 52.2354C587.822 52.5146 587.966 52.7566 588.152 52.9613C588.338 53.1568 588.566 53.315 588.836 53.436C589.106 53.5477 589.409 53.6035 589.744 53.6035C590.079 53.6035 590.381 53.5477 590.651 53.436C590.921 53.315 591.149 53.1568 591.335 52.9613C591.521 52.7566 591.666 52.5146 591.768 52.2354C591.87 51.9469 591.922 51.6351 591.922 51.3C591.922 50.965 591.87 50.6579 591.768 50.3786C591.666 50.0901 591.521 49.8481 591.335 49.6527C591.149 49.4479 590.921 49.2897 590.651 49.178C590.381 49.057 590.079 48.9965 589.744 48.9965Z" fill="black"/>
<path d="M595.863 51.3C595.863 51.6351 595.914 51.9469 596.017 52.2354C596.119 52.5146 596.263 52.7566 596.449 52.9613C596.636 53.1568 596.864 53.315 597.134 53.436C597.403 53.5477 597.706 53.6035 598.041 53.6035C598.376 53.6035 598.679 53.5477 598.948 53.436C599.218 53.315 599.446 53.1568 599.633 52.9613C599.819 52.7566 599.963 52.5146 600.065 52.2354C600.168 51.9469 600.219 51.6351 600.219 51.3C600.219 50.965 600.168 50.6579 600.065 50.3786C599.963 50.0901 599.819 49.8481 599.633 49.6527C599.446 49.4479 599.218 49.2897 598.948 49.178C598.679 49.057 598.376 48.9965 598.041 48.9965C597.706 48.9965 597.403 49.057 597.134 49.178C596.864 49.2897 596.636 49.4479 596.449 49.6527C596.263 49.8481 596.119 50.0901 596.017 50.3786C595.914 50.6579 595.863 50.965 595.863 51.3ZM594.523 51.3C594.523 50.8161 594.611 50.3647 594.788 49.9459C594.974 49.527 595.226 49.1594 595.542 48.843C595.858 48.5265 596.231 48.2799 596.659 48.1031C597.087 47.9169 597.548 47.8239 598.041 47.8239C598.534 47.8239 598.995 47.9169 599.423 48.1031C599.851 48.2799 600.223 48.5265 600.54 48.843C600.856 49.1594 601.103 49.527 601.28 49.9459C601.466 50.3647 601.559 50.8161 601.559 51.3C601.559 51.784 601.466 52.2401 601.28 52.6682C601.103 53.087 600.856 53.4546 600.54 53.7711C600.223 54.0782 599.851 54.3248 599.423 54.511C598.995 54.6878 598.534 54.7762 598.041 54.7762C597.548 54.7762 597.087 54.6878 596.659 54.511C596.231 54.3248 595.858 54.0782 595.542 53.7711C595.226 53.4546 594.974 53.087 594.788 52.6682C594.611 52.2401 594.523 51.784 594.523 51.3Z" fill="black"/>
<path d="M603.133 47.9914H604.39V49.0105H604.417C604.501 48.8337 604.613 48.6755 604.753 48.5358C604.892 48.3869 605.046 48.2613 605.213 48.1589C605.39 48.0565 605.581 47.9774 605.786 47.9216C605.99 47.8564 606.195 47.8239 606.4 47.8239C606.605 47.8239 606.791 47.8518 606.958 47.9076L606.902 49.2618C606.8 49.2339 606.698 49.2106 606.595 49.192C606.493 49.1734 606.391 49.1641 606.288 49.1641C605.674 49.1641 605.204 49.3363 604.878 49.6806C604.552 50.025 604.39 50.5601 604.39 51.2861V54.6087H603.133V47.9914Z" fill="black"/>
<path d="M611.846 49.0803H610.045V52.0818C610.045 52.268 610.05 52.4541 610.059 52.6403C610.069 52.8171 610.101 52.98 610.157 53.1289C610.222 53.2685 610.315 53.3848 610.436 53.4779C610.566 53.5617 610.753 53.6035 610.995 53.6035C611.143 53.6035 611.297 53.5896 611.455 53.5617C611.613 53.5337 611.758 53.4825 611.888 53.4081V54.5529C611.739 54.6366 611.544 54.6925 611.302 54.7204C611.069 54.7576 610.888 54.7762 610.757 54.7762C610.273 54.7762 609.896 54.7111 609.626 54.5808C609.366 54.4412 609.17 54.2643 609.04 54.0503C608.919 53.8362 608.845 53.5989 608.817 53.3383C608.798 53.0684 608.789 52.7985 608.789 52.5286V49.0803H607.337V47.9914H608.789V46.1346H610.045V47.9914H611.846V49.0803Z" fill="black"/>
<path d="M613.495 48.8011C613.849 48.4753 614.258 48.2334 614.724 48.0751C615.189 47.9076 615.654 47.8239 616.12 47.8239C616.604 47.8239 617.018 47.8844 617.362 48.0053C617.716 48.1263 618.004 48.2892 618.228 48.494C618.451 48.6987 618.614 48.936 618.716 49.206C618.828 49.4665 618.884 49.7411 618.884 50.0296V53.4081C618.884 53.6408 618.889 53.8548 618.898 54.0503C618.907 54.2457 618.921 54.4319 618.94 54.6087H617.823C617.795 54.2736 617.781 53.9386 617.781 53.6035H617.753C617.474 54.0317 617.143 54.3341 616.762 54.511C616.38 54.6878 615.938 54.7762 615.436 54.7762C615.129 54.7762 614.835 54.7343 614.556 54.6506C614.277 54.5668 614.03 54.4412 613.816 54.2736C613.611 54.1061 613.449 53.9014 613.328 53.6594C613.207 53.4081 613.146 53.1196 613.146 52.7938C613.146 52.3657 613.239 52.0074 613.425 51.7189C613.621 51.4303 613.881 51.1977 614.207 51.0208C614.542 50.8347 614.928 50.7044 615.366 50.6299C615.813 50.5462 616.287 50.5043 616.79 50.5043H617.711V50.2251C617.711 50.0575 617.679 49.89 617.613 49.7225C617.548 49.555 617.451 49.4061 617.32 49.2758C617.19 49.1361 617.027 49.0291 616.832 48.9547C616.636 48.8709 616.404 48.829 616.134 48.829C615.892 48.829 615.678 48.8523 615.491 48.8988C615.315 48.9454 615.152 49.0059 615.003 49.0803C614.854 49.1455 614.719 49.2246 614.598 49.3176C614.477 49.4107 614.361 49.4991 614.249 49.5829L613.495 48.8011ZM617.041 51.4257C616.743 51.4257 616.436 51.4443 616.12 51.4815C615.813 51.5094 615.529 51.5699 615.268 51.663C615.017 51.7561 614.807 51.8864 614.64 52.0539C614.482 52.2214 614.403 52.4355 614.403 52.6961C614.403 53.0777 614.528 53.3522 614.78 53.5198C615.04 53.6873 615.389 53.7711 615.827 53.7711C616.171 53.7711 616.464 53.7152 616.706 53.6035C616.948 53.4825 617.143 53.329 617.292 53.1428C617.441 52.9567 617.548 52.7519 617.613 52.5286C617.679 52.2959 617.711 52.0679 617.711 51.8445V51.4257H617.041Z" fill="black"/>
<path d="M620.707 47.9914H621.963V49.0105H621.991C622.149 48.6568 622.424 48.373 622.815 48.1589C623.205 47.9355 623.657 47.8239 624.169 47.8239C624.485 47.8239 624.788 47.875 625.076 47.9774C625.374 48.0705 625.63 48.2194 625.844 48.4242C626.067 48.6289 626.244 48.8942 626.375 49.2199C626.505 49.5364 626.57 49.9133 626.57 50.3507V54.6087H625.314V50.6997C625.314 50.3926 625.272 50.132 625.188 49.9179C625.104 49.6946 624.992 49.5177 624.853 49.3874C624.713 49.2478 624.55 49.1501 624.364 49.0943C624.187 49.0291 624.001 48.9965 623.806 48.9965C623.545 48.9965 623.303 49.0384 623.08 49.1222C622.856 49.206 622.661 49.3409 622.493 49.527C622.326 49.7039 622.196 49.9319 622.103 50.2111C622.01 50.4903 621.963 50.8207 621.963 51.2023V54.6087H620.707V47.9914Z" fill="black"/>
<path d="M632.01 49.0803H630.209V52.0818C630.209 52.268 630.214 52.4541 630.223 52.6403C630.232 52.8171 630.265 52.98 630.321 53.1289C630.386 53.2685 630.479 53.3848 630.6 53.4779C630.73 53.5617 630.916 53.6035 631.158 53.6035C631.307 53.6035 631.461 53.5896 631.619 53.5617C631.777 53.5337 631.921 53.4825 632.052 53.4081V54.5529C631.903 54.6366 631.707 54.6925 631.465 54.7204C631.233 54.7576 631.051 54.7762 630.921 54.7762C630.437 54.7762 630.06 54.7111 629.79 54.5808C629.53 54.4412 629.334 54.2643 629.204 54.0503C629.083 53.8362 629.008 53.5989 628.98 53.3383C628.962 53.0684 628.953 52.7985 628.953 52.5286V49.0803H627.501V47.9914H628.953V46.1346H630.209V47.9914H632.01V49.0803Z" fill="black"/>
<path d="M58.4922 584.1H59.8324V593.984H58.4922V584.1Z" fill="black"/>
<path d="M62.0566 587.366H63.2293V588.399H63.2572C63.2851 588.306 63.3549 588.19 63.4666 588.05C63.5876 587.911 63.7365 587.781 63.9134 587.66C64.0995 587.529 64.3136 587.422 64.5555 587.338C64.8068 587.245 65.0814 587.199 65.3792 587.199C65.8725 587.199 66.2867 587.301 66.6217 587.506C66.9568 587.711 67.2313 588.018 67.4454 588.427C67.6594 588.018 67.9619 587.711 68.3528 587.506C68.7437 587.301 69.1393 587.199 69.5395 587.199C70.0514 587.199 70.4702 587.283 70.7959 587.45C71.1217 587.618 71.3776 587.841 71.5638 588.12C71.7499 588.39 71.8755 588.702 71.9407 589.056C72.0151 589.4 72.0524 589.758 72.0524 590.131V593.984H70.7959V590.298C70.7959 590.047 70.7773 589.805 70.7401 589.572C70.7122 589.339 70.647 589.135 70.5446 588.958C70.4423 588.781 70.298 588.641 70.1119 588.539C69.9257 588.427 69.6791 588.372 69.3719 588.372C68.767 588.372 68.3342 588.558 68.0736 588.93C67.813 589.302 67.6827 589.782 67.6827 590.368V593.984H66.4263V590.521C66.4263 590.205 66.4076 589.917 66.3704 589.656C66.3425 589.395 66.2774 589.172 66.175 588.986C66.0819 588.79 65.9423 588.641 65.7562 588.539C65.5793 588.427 65.3373 588.372 65.0302 588.372C64.8068 588.372 64.5881 588.418 64.3741 588.511C64.1693 588.595 63.9878 588.725 63.8296 588.902C63.6714 589.079 63.5457 589.307 63.4527 589.586C63.3596 589.856 63.3131 590.177 63.3131 590.549V593.984H62.0566V587.366Z" fill="black"/>
<path d="M73.9449 587.366H75.2014V588.316H75.2293C75.4713 587.962 75.8017 587.687 76.2205 587.492C76.6486 587.297 77.086 587.199 77.5328 587.199C78.0447 587.199 78.5054 587.287 78.9149 587.464C79.3337 587.641 79.6874 587.888 79.9759 588.204C80.2737 588.52 80.5017 588.893 80.6599 589.321C80.8182 589.74 80.8973 590.191 80.8973 590.675C80.8973 591.168 80.8182 591.629 80.6599 592.057C80.5017 592.476 80.2737 592.844 79.9759 593.16C79.6874 593.467 79.3337 593.709 78.9149 593.886C78.5054 594.063 78.0447 594.151 77.5328 594.151C77.0581 594.151 76.6114 594.053 76.1926 593.858C75.7737 593.653 75.4526 593.379 75.2293 593.034H75.2014V597.921H73.9449V587.366ZM77.3792 588.372C77.0441 588.372 76.7417 588.432 76.4718 588.553C76.2019 588.665 75.9738 588.823 75.7877 589.028C75.6016 589.223 75.4573 589.465 75.3549 589.754C75.2525 590.033 75.2014 590.34 75.2014 590.675C75.2014 591.01 75.2525 591.322 75.3549 591.61C75.4573 591.89 75.6016 592.132 75.7877 592.336C75.9738 592.532 76.2019 592.69 76.4718 592.811C76.7417 592.923 77.0441 592.979 77.3792 592.979C77.7143 592.979 78.0167 592.923 78.2866 592.811C78.5565 592.69 78.7846 592.532 78.9707 592.336C79.1569 592.132 79.3011 591.89 79.4035 591.61C79.5059 591.322 79.5571 591.01 79.5571 590.675C79.5571 590.34 79.5059 590.033 79.4035 589.754C79.3011 589.465 79.1569 589.223 78.9707 589.028C78.7846 588.823 78.5565 588.665 78.2866 588.553C78.0167 588.432 77.7143 588.372 77.3792 588.372Z" fill="black"/>
<path d="M83.4985 590.675C83.4985 591.01 83.5497 591.322 83.6521 591.61C83.7545 591.89 83.8987 592.132 84.0849 592.336C84.271 592.532 84.499 592.69 84.7689 592.811C85.0388 592.923 85.3413 592.979 85.6764 592.979C86.0114 592.979 86.3139 592.923 86.5838 592.811C86.8537 592.69 87.0817 592.532 87.2679 592.336C87.454 592.132 87.5983 591.89 87.7006 591.61C87.803 591.322 87.8542 591.01 87.8542 590.675C87.8542 590.34 87.803 590.033 87.7006 589.754C87.5983 589.465 87.454 589.223 87.2679 589.028C87.0817 588.823 86.8537 588.665 86.5838 588.553C86.3139 588.432 86.0114 588.372 85.6764 588.372C85.3413 588.372 85.0388 588.432 84.7689 588.553C84.499 588.665 84.271 588.823 84.0849 589.028C83.8987 589.223 83.7545 589.465 83.6521 589.754C83.5497 590.033 83.4985 590.34 83.4985 590.675ZM82.1583 590.675C82.1583 590.191 82.2467 589.74 82.4235 589.321C82.6097 588.902 82.861 588.534 83.1774 588.218C83.4939 587.902 83.8661 587.655 84.2943 587.478C84.7224 587.292 85.1831 587.199 85.6764 587.199C86.1696 587.199 86.6303 587.292 87.0585 587.478C87.4866 587.655 87.8589 587.902 88.1753 588.218C88.4917 588.534 88.7384 588.902 88.9152 589.321C89.1014 589.74 89.1944 590.191 89.1944 590.675C89.1944 591.159 89.1014 591.615 88.9152 592.043C88.7384 592.462 88.4917 592.83 88.1753 593.146C87.8589 593.453 87.4866 593.7 87.0585 593.886C86.6303 594.063 86.1696 594.151 85.6764 594.151C85.1831 594.151 84.7224 594.063 84.2943 593.886C83.8661 593.7 83.4939 593.453 83.1774 593.146C82.861 592.83 82.6097 592.462 82.4235 592.043C82.2467 591.615 82.1583 591.159 82.1583 590.675Z" fill="black"/>
<path d="M90.7685 587.366H92.0249V588.386H92.0529C92.1366 588.209 92.2483 588.05 92.3879 587.911C92.5275 587.762 92.6811 587.636 92.8486 587.534C93.0254 587.432 93.2162 587.352 93.421 587.297C93.6257 587.231 93.8305 587.199 94.0353 587.199C94.24 587.199 94.4262 587.227 94.5937 587.283L94.5378 588.637C94.4355 588.609 94.3331 588.586 94.2307 588.567C94.1283 588.548 94.0259 588.539 93.9236 588.539C93.3093 588.539 92.8393 588.711 92.5136 589.056C92.1878 589.4 92.0249 589.935 92.0249 590.661V593.984H90.7685V587.366Z" fill="black"/>
<path d="M99.4815 588.455H97.6806V591.457C97.6806 591.643 97.6853 591.829 97.6946 592.015C97.7039 592.192 97.7364 592.355 97.7923 592.504C97.8574 592.643 97.9505 592.76 98.0715 592.853C98.2018 592.937 98.3879 592.979 98.6299 592.979C98.7788 592.979 98.9324 592.965 99.0906 592.937C99.2488 592.909 99.3931 592.858 99.5234 592.783V593.928C99.3745 594.012 99.179 594.067 98.937 594.095C98.7044 594.133 98.5229 594.151 98.3926 594.151C97.9086 594.151 97.5317 594.086 97.2618 593.956C97.0012 593.816 96.8057 593.639 96.6754 593.425C96.5544 593.211 96.48 592.974 96.4521 592.713C96.4335 592.443 96.4241 592.173 96.4241 591.904V588.455H94.9723V587.366H96.4241V585.51H97.6806V587.366H99.4815V588.455Z" fill="black"/>
<path d="M101.13 588.176C101.484 587.85 101.894 587.608 102.359 587.45C102.824 587.283 103.29 587.199 103.755 587.199C104.239 587.199 104.653 587.259 104.998 587.38C105.351 587.501 105.64 587.664 105.863 587.869C106.086 588.074 106.249 588.311 106.352 588.581C106.463 588.842 106.519 589.116 106.519 589.405V592.783C106.519 593.016 106.524 593.23 106.533 593.425C106.543 593.621 106.557 593.807 106.575 593.984H105.458C105.43 593.649 105.416 593.314 105.416 592.979H105.388C105.109 593.407 104.779 593.709 104.397 593.886C104.016 594.063 103.574 594.151 103.071 594.151C102.764 594.151 102.471 594.109 102.192 594.026C101.912 593.942 101.666 593.816 101.452 593.649C101.247 593.481 101.084 593.276 100.963 593.034C100.842 592.783 100.781 592.495 100.781 592.169C100.781 591.741 100.875 591.382 101.061 591.094C101.256 590.805 101.517 590.573 101.842 590.396C102.178 590.21 102.564 590.079 103.001 590.005C103.448 589.921 103.923 589.879 104.425 589.879H105.347V589.6C105.347 589.433 105.314 589.265 105.249 589.097C105.184 588.93 105.086 588.781 104.956 588.651C104.825 588.511 104.663 588.404 104.467 588.33C104.272 588.246 104.039 588.204 103.769 588.204C103.527 588.204 103.313 588.227 103.127 588.274C102.95 588.32 102.787 588.381 102.638 588.455C102.489 588.52 102.354 588.6 102.233 588.693C102.112 588.786 101.996 588.874 101.884 588.958L101.13 588.176ZM104.676 590.801C104.379 590.801 104.072 590.819 103.755 590.857C103.448 590.884 103.164 590.945 102.903 591.038C102.652 591.131 102.443 591.261 102.275 591.429C102.117 591.596 102.038 591.81 102.038 592.071C102.038 592.453 102.164 592.727 102.415 592.895C102.675 593.062 103.024 593.146 103.462 593.146C103.806 593.146 104.099 593.09 104.341 592.979C104.583 592.858 104.779 592.704 104.928 592.518C105.077 592.332 105.184 592.127 105.249 591.904C105.314 591.671 105.347 591.443 105.347 591.22V590.801H104.676Z" fill="black"/>
<path d="M108.342 587.366H109.598V588.386H109.626C109.784 588.032 110.059 587.748 110.45 587.534C110.841 587.311 111.292 587.199 111.804 587.199C112.121 587.199 112.423 587.25 112.712 587.352C113.009 587.445 113.265 587.594 113.479 587.799C113.703 588.004 113.88 588.269 114.01 588.595C114.14 588.911 114.205 589.288 114.205 589.726V593.984H112.949V590.075C112.949 589.768 112.907 589.507 112.823 589.293C112.739 589.07 112.628 588.893 112.488 588.762C112.349 588.623 112.186 588.525 112 588.469C111.823 588.404 111.637 588.372 111.441 588.372C111.181 588.372 110.939 588.413 110.715 588.497C110.492 588.581 110.296 588.716 110.129 588.902C109.961 589.079 109.831 589.307 109.738 589.586C109.645 589.865 109.598 590.196 109.598 590.577V593.984H108.342V587.366Z" fill="black"/>
<path d="M119.645 588.455H117.844V591.457C117.844 591.643 117.849 591.829 117.858 592.015C117.868 592.192 117.9 592.355 117.956 592.504C118.021 592.643 118.114 592.76 118.235 592.853C118.366 592.937 118.552 592.979 118.794 592.979C118.943 592.979 119.096 592.965 119.254 592.937C119.413 592.909 119.557 592.858 119.687 592.783V593.928C119.538 594.012 119.343 594.067 119.101 594.095C118.868 594.133 118.687 594.151 118.556 594.151C118.072 594.151 117.695 594.086 117.426 593.956C117.165 593.816 116.969 593.639 116.839 593.425C116.718 593.211 116.644 592.974 116.616 592.713C116.597 592.443 116.588 592.173 116.588 591.904V588.455H115.136V587.366H116.588V585.51H117.844V587.366H119.645V588.455Z" fill="black"/>
<path d="M44.5859 48.6758H46.1356L49.0394 56.7171H49.0673L52.0828 48.6758H53.5486L49.6536 58.5599H48.3972L44.5859 48.6758Z" fill="black"/>
<path d="M54.5984 55.7119C54.5984 56.0004 54.6589 56.2657 54.7799 56.5077C54.9102 56.7403 55.0777 56.9404 55.2825 57.108C55.4872 57.2755 55.7245 57.4058 55.9945 57.4989C56.2644 57.5919 56.5436 57.6385 56.8321 57.6385C57.223 57.6385 57.5627 57.5501 57.8512 57.3732C58.1397 57.1871 58.405 56.9451 58.647 56.6473L59.5963 57.3732C58.8982 58.276 57.921 58.7274 56.6646 58.7274C56.1434 58.7274 55.6687 58.639 55.2406 58.4621C54.8218 58.2853 54.4634 58.0433 54.1656 57.7362C53.8771 57.4198 53.6537 57.0521 53.4955 56.6333C53.3373 56.2052 53.2582 55.7445 53.2582 55.2512C53.2582 54.7579 53.3419 54.3019 53.5095 53.8831C53.6863 53.4549 53.9236 53.0873 54.2215 52.7802C54.5286 52.4637 54.8916 52.2171 55.3104 52.0403C55.7292 51.8634 56.1852 51.775 56.6785 51.775C57.2649 51.775 57.7581 51.8774 58.1583 52.0822C58.5678 52.2869 58.9029 52.5568 59.1635 52.8919C59.4241 53.2176 59.6102 53.5899 59.7219 54.0087C59.8429 54.4182 59.9034 54.837 59.9034 55.2652V55.7119H54.5984ZM58.5632 54.7067C58.5539 54.4275 58.5074 54.1716 58.4236 53.9389C58.3491 53.7062 58.2328 53.5061 58.0746 53.3386C57.9164 53.1618 57.7163 53.0268 57.4743 52.9338C57.2416 52.8314 56.967 52.7802 56.6506 52.7802C56.3435 52.7802 56.0596 52.8407 55.799 52.9617C55.5477 53.0734 55.3337 53.2223 55.1568 53.4084C54.98 53.5946 54.8404 53.804 54.738 54.0366C54.6449 54.26 54.5984 54.4834 54.5984 54.7067H58.5632Z" fill="black"/>
<path d="M61.4065 51.9426H62.6629V52.9617H62.6908C62.7746 52.7848 62.8863 52.6266 63.0259 52.487C63.1655 52.3381 63.3191 52.2125 63.4866 52.1101C63.6634 52.0077 63.8542 51.9286 64.059 51.8728C64.2637 51.8076 64.4685 51.775 64.6732 51.775C64.878 51.775 65.0641 51.8029 65.2317 51.8588L65.1758 53.213C65.0734 53.185 64.9711 53.1618 64.8687 53.1432C64.7663 53.1245 64.6639 53.1152 64.5616 53.1152C63.9473 53.1152 63.4773 53.2874 63.1515 53.6318C62.8258 53.9761 62.6629 54.5113 62.6629 55.2372V58.5599H61.4065V51.9426Z" fill="black"/>
<path d="M65.7778 51.9426H67.2297L69.1981 57.108H69.226L71.0967 51.9426H72.4509L69.3098 59.9838C69.1981 60.2724 69.0818 60.533 68.9608 60.7656C68.8398 61.0076 68.6955 61.2124 68.528 61.3799C68.3605 61.5474 68.1557 61.6777 67.9137 61.7708C67.681 61.8639 67.3925 61.9104 67.0482 61.9104C66.862 61.9104 66.6712 61.8964 66.4758 61.8685C66.2896 61.8499 66.1082 61.8034 65.9313 61.7289L66.0849 60.5841C66.3362 60.6865 66.5875 60.7377 66.8388 60.7377C67.0342 60.7377 67.1971 60.7098 67.3274 60.654C67.467 60.6074 67.5833 60.533 67.6764 60.4306C67.7788 60.3375 67.8625 60.2258 67.9277 60.0955C67.9928 59.9652 68.058 59.8163 68.1231 59.6488L68.528 58.6017L65.7778 51.9426Z" fill="black"/>
<path d="M77.7604 48.6758H79.1006V58.5599H77.7604V48.6758Z" fill="black"/>
<path d="M81.3248 51.9426H82.4975V52.9756H82.5254C82.5533 52.8826 82.6231 52.7662 82.7348 52.6266C82.8558 52.487 83.0047 52.3567 83.1816 52.2357C83.3677 52.1054 83.5818 51.9984 83.8238 51.9146C84.075 51.8216 84.3496 51.775 84.6474 51.775C85.1407 51.775 85.5549 51.8774 85.8899 52.0822C86.225 52.2869 86.4995 52.594 86.7136 53.0036C86.9277 52.594 87.2301 52.2869 87.621 52.0822C88.0119 51.8774 88.4075 51.775 88.8077 51.775C89.3196 51.775 89.7384 51.8588 90.0641 52.0263C90.3899 52.1938 90.6458 52.4172 90.832 52.6964C91.0181 52.9663 91.1438 53.2781 91.2089 53.6318C91.2834 53.9761 91.3206 54.3345 91.3206 54.7067V58.5599H90.0641V54.8743C90.0641 54.623 90.0455 54.381 90.0083 54.1483C89.9804 53.9156 89.9152 53.7109 89.8128 53.5341C89.7105 53.3572 89.5662 53.2176 89.3801 53.1152C89.1939 53.0036 88.9473 52.9477 88.6402 52.9477C88.0352 52.9477 87.6024 53.1339 87.3418 53.5061C87.0812 53.8784 86.9509 54.3577 86.9509 54.9441V58.5599H85.6945V55.0976C85.6945 54.7812 85.6759 54.4927 85.6386 54.2321C85.6107 53.9715 85.5456 53.7481 85.4432 53.562C85.3501 53.3665 85.2105 53.2176 85.0244 53.1152C84.8475 53.0036 84.6056 52.9477 84.2984 52.9477C84.0751 52.9477 83.8563 52.9943 83.6423 53.0873C83.4375 53.1711 83.256 53.3014 83.0978 53.4782C82.9396 53.6551 82.8139 53.8831 82.7209 54.1623C82.6278 54.4322 82.5813 54.7533 82.5813 55.1256V58.5599H81.3248V51.9426Z" fill="black"/>
<path d="M93.2131 51.9426H94.4696V52.8919H94.4975C94.7395 52.5382 95.0699 52.2636 95.4887 52.0682C95.9168 51.8728 96.3542 51.775 96.801 51.775C97.3129 51.775 97.7736 51.8634 98.1831 52.0403C98.6019 52.2171 98.9556 52.4637 99.2441 52.7802C99.5419 53.0966 99.7699 53.4689 99.9282 53.897C100.086 54.3159 100.165 54.7672 100.165 55.2512C100.165 55.7445 100.086 56.2052 99.9282 56.6333C99.7699 57.0521 99.5419 57.4198 99.2441 57.7362C98.9556 58.0433 98.6019 58.2853 98.1831 58.4621C97.7736 58.639 97.3129 58.7274 96.801 58.7274C96.3263 58.7274 95.8796 58.6297 95.4608 58.4342C95.042 58.2295 94.7209 57.9549 94.4975 57.6105H94.4696V62.4967H93.2131V51.9426ZM96.6474 52.9477C96.3124 52.9477 96.0099 53.0082 95.74 53.1292C95.4701 53.2409 95.2421 53.3991 95.0559 53.6039C94.8698 53.7993 94.7255 54.0413 94.6231 54.3298C94.5208 54.609 94.4696 54.9162 94.4696 55.2512C94.4696 55.5863 94.5208 55.898 94.6231 56.1866C94.7255 56.4658 94.8698 56.7078 95.0559 56.9125C95.2421 57.108 95.4701 57.2662 95.74 57.3872C96.0099 57.4989 96.3124 57.5547 96.6474 57.5547C96.9825 57.5547 97.2849 57.4989 97.5549 57.3872C97.8248 57.2662 98.0528 57.108 98.2389 56.9125C98.4251 56.7078 98.5693 56.4658 98.6717 56.1866C98.7741 55.898 98.8253 55.5863 98.8253 55.2512C98.8253 54.9162 98.7741 54.609 98.6717 54.3298C98.5693 54.0413 98.4251 53.7993 98.2389 53.6039C98.0528 53.3991 97.8248 53.2409 97.5549 53.1292C97.2849 53.0082 96.9825 52.9477 96.6474 52.9477Z" fill="black"/>
<path d="M102.767 55.2512C102.767 55.5863 102.818 55.898 102.92 56.1866C103.023 56.4658 103.167 56.7078 103.353 56.9125C103.539 57.108 103.767 57.2662 104.037 57.3872C104.307 57.4989 104.61 57.5547 104.945 57.5547C105.28 57.5547 105.582 57.4989 105.852 57.3872C106.122 57.2662 106.35 57.108 106.536 56.9125C106.722 56.7078 106.866 56.4658 106.969 56.1866C107.071 55.898 107.122 55.5863 107.122 55.2512C107.122 54.9162 107.071 54.609 106.969 54.3298C106.866 54.0413 106.722 53.7993 106.536 53.6039C106.35 53.3991 106.122 53.2409 105.852 53.1292C105.582 53.0082 105.28 52.9477 104.945 52.9477C104.61 52.9477 104.307 53.0082 104.037 53.1292C103.767 53.2409 103.539 53.3991 103.353 53.6039C103.167 53.7993 103.023 54.0413 102.92 54.3298C102.818 54.609 102.767 54.9162 102.767 55.2512ZM101.427 55.2512C101.427 54.7672 101.515 54.3159 101.692 53.897C101.878 53.4782 102.129 53.1106 102.446 52.7941C102.762 52.4777 103.134 52.2311 103.562 52.0542C103.991 51.8681 104.451 51.775 104.945 51.775C105.438 51.775 105.899 51.8681 106.327 52.0542C106.755 52.2311 107.127 52.4777 107.444 52.7941C107.76 53.1106 108.007 53.4782 108.183 53.897C108.37 54.3159 108.463 54.7672 108.463 55.2512C108.463 55.7352 108.37 56.1912 108.183 56.6193C108.007 57.0382 107.76 57.4058 107.444 57.7222C107.127 58.0294 106.755 58.276 106.327 58.4621C105.899 58.639 105.438 58.7274 104.945 58.7274C104.451 58.7274 103.991 58.639 103.562 58.4621C103.134 58.276 102.762 58.0294 102.446 57.7222C102.129 57.4058 101.878 57.0382 101.692 56.6193C101.515 56.1912 101.427 55.7352 101.427 55.2512Z" fill="black"/>
<path d="M110.037 51.9426H111.293V52.9617H111.321C111.405 52.7848 111.517 52.6266 111.656 52.487C111.796 52.3381 111.949 52.2125 112.117 52.1101C112.294 52.0077 112.484 51.9286 112.689 51.8728C112.894 51.8076 113.099 51.775 113.303 51.775C113.508 51.775 113.694 51.8029 113.862 51.8588L113.806 53.213C113.704 53.185 113.601 53.1618 113.499 53.1432C113.397 53.1245 113.294 53.1152 113.192 53.1152C112.578 53.1152 112.108 53.2874 111.782 53.6318C111.456 53.9761 111.293 54.5113 111.293 55.2372V58.5599H110.037V51.9426Z" fill="black"/>
<path d="M118.75 53.0315H116.949V56.033C116.949 56.2191 116.953 56.4053 116.963 56.5914C116.972 56.7683 117.005 56.9311 117.061 57.08C117.126 57.2197 117.219 57.336 117.34 57.4291C117.47 57.5128 117.656 57.5547 117.898 57.5547C118.047 57.5547 118.201 57.5407 118.359 57.5128C118.517 57.4849 118.661 57.4337 118.792 57.3593V58.504C118.643 58.5878 118.447 58.6436 118.205 58.6715C117.973 58.7088 117.791 58.7274 117.661 58.7274C117.177 58.7274 116.8 58.6622 116.53 58.5319C116.269 58.3923 116.074 58.2155 115.944 58.0014C115.823 57.7874 115.748 57.5501 115.72 57.2895C115.702 57.0195 115.692 56.7496 115.692 56.4797V53.0315H114.24V51.9426H115.692V50.0858H116.949V51.9426H118.75V53.0315Z" fill="black"/>
<path d="M120.399 52.7523C120.752 52.4265 121.162 52.1845 121.627 52.0263C122.093 51.8588 122.558 51.775 123.023 51.775C123.507 51.775 123.921 51.8355 124.266 51.9565C124.619 52.0775 124.908 52.2404 125.131 52.4451C125.355 52.6499 125.518 52.8872 125.62 53.1571C125.732 53.4177 125.787 53.6923 125.787 53.9808V57.3593C125.787 57.5919 125.792 57.806 125.801 58.0014C125.811 58.1969 125.825 58.383 125.843 58.5599H124.726C124.699 58.2248 124.685 57.8898 124.685 57.5547H124.657C124.377 57.9828 124.047 58.2853 123.665 58.4621C123.284 58.639 122.842 58.7274 122.339 58.7274C122.032 58.7274 121.739 58.6855 121.46 58.6017C121.18 58.518 120.934 58.3923 120.72 58.2248C120.515 58.0573 120.352 57.8525 120.231 57.6105C120.11 57.3593 120.05 57.0707 120.05 56.745C120.05 56.3169 120.143 55.9585 120.329 55.67C120.524 55.3815 120.785 55.1488 121.111 54.972C121.446 54.7859 121.832 54.6556 122.269 54.5811C122.716 54.4973 123.191 54.4555 123.693 54.4555H124.615V54.1762C124.615 54.0087 124.582 53.8412 124.517 53.6737C124.452 53.5061 124.354 53.3572 124.224 53.2269C124.094 53.0873 123.931 52.9803 123.735 52.9058C123.54 52.8221 123.307 52.7802 123.037 52.7802C122.795 52.7802 122.581 52.8035 122.395 52.85C122.218 52.8965 122.055 52.957 121.906 53.0315C121.758 53.0966 121.623 53.1757 121.502 53.2688C121.381 53.3619 121.264 53.4503 121.153 53.5341L120.399 52.7523ZM123.945 55.3769C123.647 55.3769 123.34 55.3955 123.023 55.4327C122.716 55.4606 122.432 55.5211 122.172 55.6142C121.92 55.7073 121.711 55.8376 121.543 56.0051C121.385 56.1726 121.306 56.3867 121.306 56.6473C121.306 57.0289 121.432 57.3034 121.683 57.4709C121.944 57.6385 122.293 57.7222 122.73 57.7222C123.074 57.7222 123.368 57.6664 123.61 57.5547C123.852 57.4337 124.047 57.2801 124.196 57.094C124.345 56.9079 124.452 56.7031 124.517 56.4797C124.582 56.2471 124.615 56.019 124.615 55.7957V55.3769H123.945Z" fill="black"/>
<path d="M127.61 51.9426H128.867V52.9617H128.894C129.053 52.608 129.327 52.3241 129.718 52.1101C130.109 51.8867 130.56 51.775 131.072 51.775C131.389 51.775 131.691 51.8262 131.98 51.9286C132.278 52.0217 132.534 52.1706 132.748 52.3753C132.971 52.5801 133.148 52.8453 133.278 53.1711C133.408 53.4875 133.474 53.8645 133.474 54.3019V58.5599H132.217V54.6509C132.217 54.3438 132.175 54.0832 132.091 53.8691C132.008 53.6457 131.896 53.4689 131.756 53.3386C131.617 53.199 131.454 53.1013 131.268 53.0454C131.091 52.9803 130.905 52.9477 130.709 52.9477C130.449 52.9477 130.207 52.9896 129.983 53.0734C129.76 53.1571 129.565 53.2921 129.397 53.4782C129.23 53.6551 129.099 53.8831 129.006 54.1623C128.913 54.4415 128.867 54.7719 128.867 55.1535V58.5599H127.61V51.9426Z" fill="black"/>
<path d="M138.913 53.0315H137.113V56.033C137.113 56.2191 137.117 56.4053 137.127 56.5914C137.136 56.7683 137.168 56.9311 137.224 57.08C137.289 57.2197 137.382 57.336 137.503 57.4291C137.634 57.5128 137.82 57.5547 138.062 57.5547C138.211 57.5547 138.364 57.5407 138.523 57.5128C138.681 57.4849 138.825 57.4337 138.955 57.3593V58.504C138.806 58.5878 138.611 58.6436 138.369 58.6715C138.136 58.7088 137.955 58.7274 137.825 58.7274C137.341 58.7274 136.964 58.6622 136.694 58.5319C136.433 58.3923 136.238 58.2155 136.107 58.0014C135.986 57.7874 135.912 57.5501 135.884 57.2895C135.865 57.0195 135.856 56.7496 135.856 56.4797V53.0315H134.404V51.9426H135.856V50.0858H137.113V51.9426H138.913V53.0315Z" fill="black"/>
</g>
<defs>
<linearGradient id="paint0_linear_1269_7621" x1="20.2422" y1="324.344" x2="669.808" y2="324.344" gradientUnits="userSpaceOnUse">
<stop stop-color="#DBDBDB"/>
<stop offset="1" stop-color="white"/>
</linearGradient>
<linearGradient id="paint1_linear_1269_7621" x1="39.6873" y1="651.121" x2="268.74" y2="422.088" gradientUnits="userSpaceOnUse">
<stop offset="0.15" stop-color="white" stop-opacity="0"/>
<stop offset="0.93" stop-color="#4E5F6E" stop-opacity="0.4"/>
</linearGradient>
<linearGradient id="paint2_linear_1269_7621" x1="515.898" y1="161.3" x2="249.635" y2="396.043" gradientUnits="userSpaceOnUse">
<stop stop-color="white"/>
<stop offset="1"/>
</linearGradient>
<linearGradient id="paint3_linear_1269_7621" x1="-217.481" y1="222.408" x2="355.437" y2="-352.526" gradientUnits="userSpaceOnUse">
<stop offset="0.15" stop-color="white" stop-opacity="0"/>
<stop offset="0.23" stop-color="#FBFDF8" stop-opacity="0.04"/>
<stop offset="0.35" stop-color="#F2F8E5" stop-opacity="0.15"/>
<stop offset="0.5" stop-color="#E2F0C7" stop-opacity="0.32"/>
<stop offset="0.67" stop-color="#CCE49C" stop-opacity="0.56"/>
<stop offset="0.86" stop-color="#B1D566" stop-opacity="0.87"/>
<stop offset="0.93" stop-color="#A5CF4F"/>
</linearGradient>
<linearGradient id="paint4_linear_1269_7621" x1="339.329" y1="289.402" x2="634.132" y2="-15.9964" gradientUnits="userSpaceOnUse">
<stop offset="0.15" stop-color="white" stop-opacity="0"/>
<stop offset="0.23" stop-color="#FBFDF8" stop-opacity="0.04"/>
<stop offset="0.35" stop-color="#F2F8E5" stop-opacity="0.15"/>
<stop offset="0.5" stop-color="#E2F0C7" stop-opacity="0.32"/>
<stop offset="0.67" stop-color="#CCE49C" stop-opacity="0.56"/>
<stop offset="0.86" stop-color="#B1D566" stop-opacity="0.87"/>
<stop offset="0.93" stop-color="#A5CF4F"/>
</linearGradient>
<linearGradient id="paint5_linear_1269_7621" x1="300.671" y1="372.537" x2="203.519" y2="480.436" gradientUnits="userSpaceOnUse">
<stop stop-color="white"/>
<stop offset="1"/>
</linearGradient>
<linearGradient id="paint6_linear_1269_7621" x1="165.814" y1="517.987" x2="376.405" y2="277.431" gradientUnits="userSpaceOnUse">
<stop offset="0.15" stop-color="white"/>
<stop offset="0.22" stop-color="#FFFCF8" stop-opacity="0.98"/>
<stop offset="0.33" stop-color="#FEF4E5" stop-opacity="0.92"/>
<stop offset="0.47" stop-color="#FEE6C5" stop-opacity="0.83"/>
<stop offset="0.62" stop-color="#FDD499" stop-opacity="0.7"/>
<stop offset="0.8" stop-color="#FBBC61" stop-opacity="0.54"/>
<stop offset="0.93" stop-color="#FAA831" stop-opacity="0.4"/>
</linearGradient>
<clipPath id="clip0_1269_7621">
<rect width="709.995" height="654.152" fill="white"/>
</clipPath>
</defs>
</svg>
