<svg width="32" height="32" viewBox="0 0 32 32" fill="none" xmlns="http://www.w3.org/2000/svg">
<path d="M15.6508 31.3016C18.7469 31.3016 21.7734 30.3833 24.3475 28.6629C26.9215 26.9425 28.9275 24.4973 30.1116 21.6366C31.2958 18.7759 31.6048 15.6283 30.9997 12.5919C30.3946 9.55554 28.9025 6.76687 26.7122 4.57867C24.5219 2.39048 21.7318 0.901074 18.6948 0.298892C15.6579 -0.303289 12.5106 0.00880606 9.65101 1.19569C6.79147 2.38258 4.3482 4.39093 2.63029 6.96667C0.91238 9.54241 -0.00298119 12.5698 7.29434e-06 15.6659C6.33535e-06 17.7205 0.404935 19.7549 1.19165 21.6529C1.97836 23.5509 3.13142 25.2752 4.58493 26.7273C6.03843 28.1794 7.76388 29.3308 9.66263 30.1157C11.5614 30.9006 13.5962 31.3035 15.6508 31.3016Z" fill="#A5CF4F"/>
<path d="M14.8818 12.9258L12.7945 14.7632L11.5451 13.3227L14.9406 10.4564H16.9984V20.8633H14.8818V12.9258Z" fill="white"/>
</svg>
