<svg width="32" height="32" viewBox="0 0 32 32" fill="none" xmlns="http://www.w3.org/2000/svg">
<path d="M15.6508 31.3015C18.7462 31.3015 21.7721 30.3836 24.3459 28.6639C26.9196 26.9442 28.9256 24.4999 30.1102 21.6401C31.2948 18.7803 31.6047 15.6334 31.0008 12.5975C30.3969 9.5615 28.9063 6.77281 26.7175 4.58401C24.5287 2.39521 21.74 0.904623 18.7041 0.300734C15.6681 -0.303154 12.5213 0.00677565 9.66148 1.19135C6.80168 2.37592 4.35735 4.38192 2.63763 6.95568C0.917897 9.52943 0 12.5553 0 15.6508C0 19.8016 1.6489 23.7825 4.58399 26.7176C7.51908 29.6526 11.4999 31.3015 15.6508 31.3015Z" fill="#A5CF4F"/>
<path d="M10.6161 12.9258L8.52887 14.7632L7.27945 13.3227L10.6749 10.4564H12.7328V20.8633H10.6161V12.9258ZM15.5667 15.6598C15.5667 15.0425 15.6206 14.4153 15.7284 13.7783C15.846 13.1414 16.0469 12.5632 16.3311 12.0439C16.6251 11.5245 17.0219 11.1031 17.5217 10.7797C18.0215 10.4466 18.6584 10.28 19.4326 10.28C20.2067 10.28 20.8437 10.4466 21.3434 10.7797C21.8432 11.1031 22.2352 11.5245 22.5194 12.0439C22.8133 12.5632 23.0142 13.1414 23.122 13.7783C23.2396 14.4153 23.2984 15.0425 23.2984 15.6598C23.2984 16.2772 23.2396 16.9043 23.122 17.5413C23.0142 18.1783 22.8133 18.7564 22.5194 19.2758C22.2352 19.7952 21.8432 20.2214 21.3434 20.5546C20.8437 20.878 20.2067 21.0397 19.4326 21.0397C18.6584 21.0397 18.0215 20.878 17.5217 20.5546C17.0219 20.2214 16.6251 19.7952 16.3311 19.2758C16.0469 18.7564 15.846 18.1783 15.7284 17.5413C15.6206 16.9043 15.5667 16.2772 15.5667 15.6598ZM17.7716 15.6598C17.7716 15.9342 17.7814 16.2625 17.801 16.6447C17.8304 17.0268 17.899 17.3943 18.0068 17.7471C18.1146 18.0999 18.2762 18.3987 18.4918 18.6437C18.7172 18.8887 19.0308 19.0112 19.4326 19.0112C19.8245 19.0112 20.1332 18.8887 20.3586 18.6437C20.584 18.3987 20.7506 18.0999 20.8584 17.7471C20.9662 17.3943 21.0299 17.0268 21.0495 16.6447C21.0789 16.2625 21.0936 15.9342 21.0936 15.6598C21.0936 15.3854 21.0789 15.0572 21.0495 14.675C21.0299 14.2928 20.9662 13.9253 20.8584 13.5726C20.7506 13.2198 20.584 12.9209 20.3586 12.6759C20.1332 12.4309 19.8245 12.3084 19.4326 12.3084C19.0308 12.3084 18.7172 12.4309 18.4918 12.6759C18.2762 12.9209 18.1146 13.2198 18.0068 13.5726C17.899 13.9253 17.8304 14.2928 17.801 14.675C17.7814 15.0572 17.7716 15.3854 17.7716 15.6598Z" fill="white"/>
</svg>
