<svg width="32" height="32" viewBox="0 0 32 32" fill="none" xmlns="http://www.w3.org/2000/svg">
<path d="M15.6508 31.3016C18.7469 31.3016 21.7734 30.3833 24.3475 28.6629C26.9215 26.9425 28.9275 24.4973 30.1116 21.6366C31.2958 18.7759 31.6048 15.6283 30.9997 12.5919C30.3946 9.55553 28.9025 6.76687 26.7122 4.57868C24.5219 2.39048 21.7318 0.901076 18.6948 0.298895C15.6579 -0.303286 12.5105 0.00879751 9.651 1.19568C6.79146 2.38257 4.34819 4.39091 2.63028 6.96666C0.912369 9.5424 -0.00298119 12.5698 7.29443e-06 15.6659C6.33544e-06 17.7205 0.404936 19.7549 1.19165 21.6529C1.97836 23.5509 3.13141 25.2752 4.58492 26.7273C6.03842 28.1794 7.76387 29.3308 9.66262 30.1157C11.5614 30.9006 13.5962 31.3035 15.6508 31.3016Z" fill="#A5CF4F"/>
<path d="M10.6161 12.9238L8.52887 14.7612L7.27945 13.3207L10.6749 10.4544H12.7328V20.8613H10.6161V12.9238ZM19.315 12.9238L17.2277 14.7612L15.9783 13.3207L19.3738 10.4544H21.4316V20.8613H19.315V12.9238Z" fill="white"/>
</svg>
