<svg width="32" height="32" viewBox="0 0 32 32" fill="none" xmlns="http://www.w3.org/2000/svg">
<path d="M15.6508 31.3016C18.7469 31.3016 21.7734 30.3833 24.3475 28.6629C26.9216 26.9425 28.9275 24.4973 30.1116 21.6366C31.2958 18.7759 31.6048 15.6283 30.9997 12.5919C30.3946 9.55554 28.9025 6.76687 26.7122 4.57867C24.5219 2.39048 21.7318 0.901074 18.6948 0.298892C15.6579 -0.303289 12.5105 0.00880606 9.651 1.19569C6.79146 2.38258 4.34821 4.39093 2.6303 6.96667C0.912392 9.54241 -0.00298119 12.5698 7.29424e-06 15.6659C6.33526e-06 17.7205 0.404959 19.7549 1.19167 21.6529C1.97838 23.5509 3.13141 25.2752 4.58492 26.7273C6.03842 28.1794 7.76387 29.3308 9.66262 30.1157C11.5614 30.9006 13.5962 31.3035 15.6508 31.3016Z" fill="#FAA831"/>
<path d="M10.6396 12.9258L8.55231 14.7632L7.30289 13.3227L10.6984 10.4564H12.7562V20.8633H10.6396V12.9258ZM15.8253 18.5261L19.8676 14.8955C20.0734 14.7093 20.2792 14.4986 20.4849 14.2634C20.6907 14.0282 20.7936 13.7538 20.7936 13.4403C20.7936 13.0875 20.6662 12.8131 20.4114 12.6171C20.1567 12.4113 19.8578 12.3084 19.5148 12.3084C19.1032 12.3084 18.7799 12.4358 18.5447 12.6906C18.3193 12.9454 18.1919 13.259 18.1625 13.6314L15.9576 13.4697C15.987 12.9307 16.0997 12.4652 16.2957 12.0733C16.4917 11.6715 16.7514 11.3383 17.0748 11.0737C17.3981 10.8091 17.7754 10.6132 18.2066 10.4858C18.6476 10.3486 19.1228 10.28 19.6324 10.28C20.1028 10.28 20.5437 10.3486 20.9553 10.4858C21.3669 10.6132 21.7246 10.8091 22.0283 11.0737C22.3321 11.3285 22.5673 11.6519 22.7339 12.0439C22.9103 12.4358 22.9985 12.8915 22.9985 13.4109C22.9985 13.744 22.9642 14.0478 22.8956 14.3222C22.827 14.5868 22.729 14.8318 22.6016 15.0572C22.484 15.2727 22.3419 15.4736 22.1753 15.6598C22.0087 15.846 21.8275 16.0273 21.6315 16.2037L18.4712 18.923H23.0867V20.8633H15.8253V18.5261Z" fill="white"/>
</svg>
