<svg width="32" height="32" viewBox="0 0 32 32" fill="none" xmlns="http://www.w3.org/2000/svg">
<path d="M15.6508 31.3015C18.7462 31.3015 21.7721 30.3836 24.3459 28.6639C26.9197 26.9442 28.9256 24.4999 30.1102 21.6401C31.2948 18.7803 31.6047 15.6334 31.0008 12.5975C30.3969 9.56151 28.9064 6.77281 26.7176 4.58401C24.5288 2.39521 21.74 0.904621 18.7041 0.300733C15.6681 -0.303156 12.5213 0.00677988 9.66146 1.19135C6.80166 2.37592 4.35735 4.38191 2.63763 6.95567C0.917897 9.52943 0 12.5553 0 15.6508C0 19.8016 1.6489 23.7825 4.58399 26.7175C7.51908 29.6526 11.5 31.3015 15.6508 31.3015Z" fill="#A5CF4F"/>
<path d="M10.6396 12.9219L8.55231 14.7593L7.30289 13.3188L10.6984 10.4525H12.7562V20.8594H10.6396V12.9219ZM18.2801 14.5535H19.0003C19.2061 14.5535 19.407 14.5388 19.603 14.5094C19.799 14.48 19.9754 14.4261 20.1322 14.3477C20.2988 14.2595 20.431 14.1419 20.529 13.9949C20.627 13.8381 20.676 13.6372 20.676 13.3923C20.676 13.0787 20.5486 12.819 20.2939 12.6132C20.0489 12.4074 19.7451 12.3045 19.3825 12.3045C19.0395 12.3045 18.7554 12.3976 18.53 12.5838C18.3046 12.77 18.1576 13.0003 18.089 13.2747L15.6637 12.7749C15.7812 12.3241 15.9576 11.942 16.1928 11.6284C16.428 11.305 16.7073 11.0453 17.0307 10.8493C17.354 10.6533 17.7117 10.5113 18.1037 10.4231C18.5055 10.3251 18.9268 10.2761 19.3678 10.2761C19.8284 10.2761 20.2694 10.3349 20.6907 10.4525C21.1219 10.5603 21.4992 10.7366 21.8226 10.9816C22.1459 11.2168 22.4007 11.5157 22.5869 11.8783C22.7829 12.2408 22.8809 12.672 22.8809 13.1718C22.8809 13.7499 22.729 14.2448 22.4252 14.6564C22.1214 15.068 21.6805 15.3325 21.1023 15.4501V15.4942C21.4159 15.5334 21.6903 15.6265 21.9254 15.7735C22.1704 15.9205 22.3762 16.1018 22.5428 16.3174C22.7094 16.533 22.8368 16.7779 22.925 17.0523C23.0132 17.3267 23.0573 17.6158 23.0573 17.9196C23.0573 18.4389 22.9544 18.8946 22.7486 19.2866C22.5526 19.6786 22.2831 20.0068 21.9401 20.2714C21.607 20.5262 21.2101 20.7173 20.7495 20.8447C20.2988 20.9721 19.8186 21.0358 19.309 21.0358C18.3781 21.0358 17.5745 20.8202 16.8984 20.389C16.232 19.9578 15.791 19.2768 15.5755 18.3458L17.8979 17.802C17.9763 18.1744 18.1331 18.4683 18.3683 18.6839C18.6133 18.8995 18.9709 19.0073 19.4413 19.0073C19.9215 19.0073 20.2743 18.8848 20.4996 18.6398C20.7348 18.385 20.8524 18.0617 20.8524 17.6697C20.8524 17.3757 20.7887 17.1503 20.6613 16.9935C20.5437 16.8269 20.3869 16.7044 20.191 16.6261C19.995 16.5477 19.7745 16.5036 19.5295 16.4938C19.2845 16.4742 19.0395 16.4644 18.7946 16.4644H18.2801V14.5535Z" fill="white"/>
</svg>
