<svg width="32" height="32" viewBox="0 0 32 32" fill="none" xmlns="http://www.w3.org/2000/svg">
<path d="M15.6508 31.3016C18.7469 31.3016 21.7734 30.3833 24.3475 28.6629C26.9216 26.9425 28.9275 24.4973 30.1116 21.6366C31.2958 18.7759 31.6048 15.6283 30.9997 12.5919C30.3946 9.55554 28.9025 6.76687 26.7122 4.57867C24.5219 2.39048 21.7318 0.901074 18.6948 0.298892C15.6579 -0.303289 12.5105 0.00880606 9.651 1.19569C6.79146 2.38258 4.34821 4.39093 2.6303 6.96668C0.912392 9.54242 -0.00298119 12.5698 7.29424e-06 15.6659C6.33526e-06 17.7205 0.404959 19.7549 1.19167 21.6529C1.97838 23.5509 3.13141 25.2752 4.58492 26.7273C6.03842 28.1794 7.76387 29.3308 9.66262 30.1157C11.5614 30.9006 13.5962 31.3035 15.6508 31.3016Z" fill="#A5CF4F"/>
<path d="M10.6396 12.9219L8.55231 14.7593L7.30289 13.3188L10.6984 10.4525H12.7562V20.8594H10.6396V12.9219ZM19.9999 18.7721H15.4579V16.92L19.7059 10.4525H22.1165V16.92H23.4541V18.7721H22.1165V20.8594H19.9999V18.7721ZM19.9999 13.3335H19.9705L17.6627 16.92H19.9999V13.3335Z" fill="white"/>
</svg>
