<svg width="32" height="32" viewBox="0 0 32 32" fill="none" xmlns="http://www.w3.org/2000/svg">
<path d="M15.6508 31.3015C18.7462 31.3015 21.7721 30.3836 24.3459 28.6639C26.9197 26.9442 28.9256 24.4999 30.1102 21.6401C31.2948 18.7803 31.6047 15.6334 31.0008 12.5975C30.3969 9.5615 28.9064 6.77281 26.7176 4.58401C24.5288 2.39521 21.74 0.904623 18.7041 0.300734C15.6681 -0.303154 12.5213 0.00677565 9.66146 1.19135C6.80166 2.37592 4.35735 4.38192 2.63763 6.95568C0.917897 9.52943 0 12.5553 0 15.6508C0 19.8016 1.6489 23.7825 4.58399 26.7176C7.51908 29.6526 11.5 31.3015 15.6508 31.3015Z" fill="#FAA831"/>
<path d="M10.6396 12.9258L8.55231 14.7632L7.30289 13.3227L10.6984 10.4564H12.7562V20.8633H10.6396V12.9258ZM22.7045 12.3966H18.5741L18.53 13.9988C18.7554 13.9204 19.064 13.8812 19.456 13.8812C19.9852 13.8812 20.4702 13.9596 20.9112 14.1164C21.3522 14.2732 21.7295 14.5035 22.043 14.8073C22.3664 15.1013 22.6163 15.4638 22.7927 15.895C22.9691 16.3164 23.0573 16.7916 23.0573 17.3208C23.0573 17.9088 22.9544 18.433 22.7486 18.8936C22.5526 19.3542 22.2782 19.7462 21.9254 20.0695C21.5727 20.3831 21.1513 20.6232 20.6613 20.7898C20.1812 20.9564 19.6569 21.0397 19.0885 21.0397C18.187 21.0397 17.4324 20.8192 16.8249 20.3782C16.2173 19.9372 15.8008 19.2709 15.5755 18.3791L17.8832 17.85C17.942 18.2224 18.0988 18.5261 18.3536 18.7613C18.6084 18.9867 18.9268 19.0994 19.309 19.0994C19.7794 19.0994 20.1518 18.9524 20.4261 18.6584C20.7103 18.3644 20.8524 17.9921 20.8524 17.5413C20.8524 17.1983 20.7789 16.919 20.6319 16.7035C20.4947 16.4781 20.3086 16.3017 20.0734 16.1743C19.848 16.0371 19.5932 15.944 19.309 15.895C19.0248 15.846 18.7407 15.8215 18.4565 15.8215C18.0939 15.8215 17.7264 15.8558 17.354 15.9244C16.9915 15.993 16.6387 16.0861 16.2957 16.2037L16.4133 10.4564H22.7045V12.3966Z" fill="white"/>
</svg>
