<svg width="32" height="32" viewBox="0 0 32 32" fill="none" xmlns="http://www.w3.org/2000/svg">
<path d="M15.6508 31.3016C18.7469 31.3016 21.7734 30.3833 24.3475 28.6629C26.9216 26.9425 28.9275 24.4973 30.1116 21.6366C31.2958 18.7759 31.6048 15.6283 30.9997 12.5919C30.3946 9.55553 28.9025 6.76687 26.7122 4.57868C24.5219 2.39048 21.7318 0.901076 18.6948 0.298895C15.6579 -0.303286 12.5105 0.00879751 9.651 1.19568C6.79146 2.38257 4.34821 4.39091 2.6303 6.96666C0.912392 9.5424 -0.00298119 12.5698 7.29424e-06 15.6659C6.33526e-06 17.7205 0.404959 19.7549 1.19167 21.6529C1.97838 23.5509 3.13141 25.2752 4.58492 26.7273C6.03842 28.1794 7.76387 29.3308 9.66262 30.1157C11.5614 30.9006 13.5962 31.3035 15.6508 31.3016Z" fill="#FAA831"/>
<path d="M10.6396 12.9258L8.55231 14.7632L7.30289 13.3227L10.6984 10.4564H12.7562V20.8633H10.6396V12.9258ZM19.3237 14.1752C19.4413 14.1458 19.5589 14.1213 19.6765 14.1017C19.7941 14.0821 19.9166 14.0723 20.044 14.0723C20.5339 14.0723 20.9798 14.1605 21.3816 14.3369C21.7834 14.5133 22.1263 14.7534 22.4105 15.0572C22.6947 15.3609 22.9152 15.7235 23.072 16.1449C23.2288 16.5565 23.3072 16.9974 23.3072 17.4678C23.3072 18.0068 23.2043 18.4967 22.9985 18.9377C22.8025 19.3689 22.5281 19.7413 22.1753 20.0548C21.8324 20.3684 21.4208 20.6134 20.9406 20.7898C20.4702 20.9564 19.9656 21.0397 19.4266 21.0397C18.8778 21.0397 18.3683 20.9564 17.8979 20.7898C17.4275 20.6134 17.016 20.3684 16.6632 20.0548C16.3202 19.7413 16.0458 19.3689 15.84 18.9377C15.6441 18.4967 15.5461 18.0068 15.5461 17.4678C15.5461 17.0954 15.5804 16.7574 15.649 16.4536C15.7176 16.14 15.8057 15.846 15.9135 15.5716C16.0311 15.2972 16.1634 15.0376 16.3104 14.7926C16.4672 14.5378 16.6289 14.2781 16.7955 14.0135L19.0738 10.4564H21.7638L19.3237 14.1752ZM21.1023 17.3796C21.1023 16.9092 20.9455 16.5222 20.6319 16.2184C20.3282 15.9048 19.9264 15.748 19.4266 15.748C18.9268 15.748 18.5202 15.9048 18.2066 16.2184C17.9028 16.5222 17.7509 16.9092 17.7509 17.3796C17.7509 17.85 17.9028 18.242 18.2066 18.5555C18.5202 18.8593 18.9268 19.0112 19.4266 19.0112C19.9264 19.0112 20.3282 18.8593 20.6319 18.5555C20.9455 18.242 21.1023 17.85 21.1023 17.3796Z" fill="white"/>
</svg>
