<svg width="32" height="32" viewBox="0 0 32 32" fill="none" xmlns="http://www.w3.org/2000/svg">
<path d="M15.6508 31.3015C18.7462 31.3015 21.7721 30.3836 24.3459 28.6639C26.9196 26.9442 28.9256 24.4999 30.1102 21.6401C31.2948 18.7803 31.6047 15.6334 31.0008 12.5975C30.3969 9.56151 28.9063 6.77281 26.7175 4.58401C24.5287 2.39521 21.74 0.904621 18.7041 0.300733C15.6681 -0.303156 12.5213 0.00677988 9.66148 1.19135C6.80168 2.37592 4.35736 4.38191 2.63763 6.95567C0.917902 9.52943 0 12.5553 0 15.6508C0 19.8016 1.64892 23.7825 4.584 26.7175C7.51909 29.6526 11.4999 31.3015 15.6508 31.3015Z" fill="#4E5F6D"/>
<path d="M11.3687 18.5222L15.4109 14.8916C15.6167 14.7054 15.8225 14.4947 16.0283 14.2595C16.2341 14.0243 16.337 13.7499 16.337 13.4364C16.337 13.0836 16.2096 12.8092 15.9548 12.6132C15.7 12.4074 15.4011 12.3045 15.0581 12.3045C14.6466 12.3045 14.3232 12.4319 14.088 12.6867C13.8626 12.9415 13.7352 13.2551 13.7058 13.6274L11.501 13.4658C11.5304 12.9268 11.6431 12.4613 11.8391 12.0694C12.035 11.6676 12.2947 11.3344 12.6181 11.0698C12.9415 10.8052 13.3188 10.6092 13.7499 10.4819C14.1909 10.3447 14.6662 10.2761 15.1757 10.2761C15.6461 10.2761 16.0871 10.3447 16.4987 10.4819C16.9102 10.6092 17.2679 10.8052 17.5717 11.0698C17.8755 11.3246 18.1106 11.648 18.2772 12.04C18.4536 12.4319 18.5418 12.8876 18.5418 13.407C18.5418 13.7401 18.5075 14.0439 18.4389 14.3183C18.3703 14.5829 18.2723 14.8279 18.1449 15.0533C18.0274 15.2688 17.8853 15.4697 17.7187 15.6559C17.5521 15.8421 17.3708 16.0234 17.1748 16.1998L14.0145 18.9191H18.63V20.8594H11.3687V18.5222Z" fill="white"/>
</svg>
