<svg width="32" height="32" viewBox="0 0 32 32" fill="none" xmlns="http://www.w3.org/2000/svg">
<path d="M15.6508 31.3016C18.7469 31.3016 21.7734 30.3833 24.3475 28.6629C26.9215 26.9425 28.9275 24.4973 30.1116 21.6366C31.2958 18.7759 31.6048 15.6283 30.9997 12.5919C30.3946 9.55554 28.9025 6.76687 26.7122 4.57867C24.5219 2.39048 21.7318 0.901074 18.6948 0.298892C15.6579 -0.303289 12.5106 0.00880606 9.65101 1.19569C6.79147 2.38258 4.3482 4.39093 2.63029 6.96668C0.91238 9.54242 -0.00298119 12.5698 7.29434e-06 15.6659C6.33535e-06 17.7205 0.404935 19.7549 1.19165 21.6529C1.97836 23.5509 3.13142 25.2752 4.58493 26.7273C6.03843 28.1794 7.76388 29.3308 9.66263 30.1157C11.5614 30.9006 13.5962 31.3035 15.6508 31.3016Z" fill="#4E5F6D"/>
<path d="M13.8234 14.5535H14.5437C14.7495 14.5535 14.9504 14.5388 15.1463 14.5094C15.3423 14.48 15.5187 14.4261 15.6755 14.3477C15.8421 14.2595 15.9744 14.1419 16.0724 13.9949C16.1704 13.8381 16.2194 13.6372 16.2194 13.3923C16.2194 13.0787 16.092 12.819 15.8372 12.6132C15.5922 12.4074 15.2884 12.3045 14.9259 12.3045C14.5829 12.3045 14.2987 12.3976 14.0733 12.5838C13.8479 12.77 13.7009 13.0003 13.6323 13.2747L11.207 12.7749C11.3246 12.3241 11.501 11.942 11.7362 11.6284C11.9714 11.305 12.2506 11.0453 12.574 10.8493C12.8974 10.6533 13.2551 10.5113 13.647 10.4231C14.0488 10.3251 14.4702 10.2761 14.9112 10.2761C15.3717 10.2761 15.8127 10.3349 16.2341 10.4525C16.6652 10.5603 17.0425 10.7366 17.3659 10.9816C17.6893 11.2168 17.9441 11.5157 18.1302 11.8783C18.3262 12.2408 18.4242 12.672 18.4242 13.1718C18.4242 13.7499 18.2723 14.2448 17.9686 14.6564C17.6648 15.068 17.2238 15.3325 16.6456 15.4501V15.4942C16.9592 15.5334 17.2336 15.6265 17.4688 15.7735C17.7138 15.9205 17.9196 16.1018 18.0862 16.3174C18.2527 16.533 18.3801 16.7779 18.4683 17.0523C18.5565 17.3267 18.6006 17.6158 18.6006 17.9196C18.6006 18.4389 18.4977 18.8946 18.2919 19.2866C18.0959 19.6786 17.8265 20.0068 17.4835 20.2714C17.1503 20.5262 16.7534 20.7173 16.2929 20.8447C15.8421 20.9721 15.3619 21.0358 14.8524 21.0358C13.9214 21.0358 13.1179 20.8202 12.4417 20.389C11.7754 19.9578 11.3344 19.2768 11.1188 18.3458L13.4413 17.802C13.5196 18.1744 13.6764 18.4683 13.9116 18.6839C14.1566 18.8995 14.5143 19.0073 14.9847 19.0073C15.4648 19.0073 15.8176 18.8848 16.043 18.6398C16.2782 18.385 16.3958 18.0617 16.3958 17.6697C16.3958 17.3757 16.3321 17.1503 16.2047 16.9935C16.0871 16.8269 15.9303 16.7044 15.7343 16.6261C15.5383 16.5477 15.3178 16.5036 15.0728 16.4938C14.8279 16.4742 14.5829 16.4644 14.3379 16.4644H13.8234V14.5535Z" fill="white"/>
</svg>
