<svg width="32" height="32" viewBox="0 0 32 32" fill="none" xmlns="http://www.w3.org/2000/svg">
<path d="M15.6508 31.3015C18.7462 31.3015 21.7721 30.3836 24.3459 28.6639C26.9196 26.9442 28.9256 24.4999 30.1102 21.6401C31.2948 18.7803 31.6047 15.6334 31.0008 12.5975C30.3969 9.5615 28.9063 6.77281 26.7175 4.58401C24.5287 2.39521 21.74 0.904623 18.7041 0.300734C15.6681 -0.303154 12.5213 0.00677565 9.66148 1.19135C6.80168 2.37592 4.35736 4.38192 2.63763 6.95568C0.917902 9.52943 0 12.5553 0 15.6508C0 19.8016 1.64892 23.7825 4.584 26.7176C7.51909 29.6526 11.4999 31.3015 15.6508 31.3015Z" fill="#4E5F6D"/>
<path d="M15.5432 18.776H11.0012V16.9239L15.2492 10.4564H17.6599V16.9239H18.9975V18.776H17.6599V20.8633H15.5432V18.776ZM15.5432 13.3374H15.5138L13.2061 16.9239H15.5432V13.3374Z" fill="white"/>
</svg>
