<svg width="32" height="32" viewBox="0 0 32 32" fill="none" xmlns="http://www.w3.org/2000/svg">
<path d="M15.6508 31.3016C18.7469 31.3016 21.7734 30.3833 24.3475 28.6629C26.9215 26.9425 28.9275 24.4973 30.1116 21.6366C31.2958 18.7759 31.6048 15.6283 30.9997 12.5919C30.3946 9.55553 28.9025 6.76687 26.7122 4.57868C24.5219 2.39048 21.7318 0.901076 18.6948 0.298895C15.6579 -0.303286 12.5106 0.00879751 9.65101 1.19568C6.79147 2.38257 4.3482 4.39091 2.63029 6.96666C0.91238 9.5424 -0.00298119 12.5698 7.29434e-06 15.6659C6.33535e-06 17.7205 0.404935 19.7549 1.19165 21.6529C1.97836 23.5509 3.13142 25.2752 4.58493 26.7273C6.03843 28.1794 7.76388 29.3308 9.66263 30.1157C11.5614 30.9006 13.5962 31.3035 15.6508 31.3016Z" fill="#A5CF4F"/>
<path d="M18.2478 12.3947H14.1174L14.0733 13.9969C14.2987 13.9185 14.6074 13.8793 14.9994 13.8793C15.5285 13.8793 16.0136 13.9577 16.4546 14.1145C16.8955 14.2713 17.2728 14.5015 17.5864 14.8053C17.9098 15.0993 18.1596 15.4619 18.336 15.8931C18.5124 16.3144 18.6006 16.7897 18.6006 17.3189C18.6006 17.9068 18.4977 18.4311 18.2919 18.8917C18.0959 19.3522 17.8216 19.7442 17.4688 20.0676C17.116 20.3812 16.6946 20.6212 16.2047 20.7878C15.7245 20.9544 15.2002 21.0377 14.6319 21.0377C13.7303 21.0377 12.9758 20.8172 12.3682 20.3763C11.7607 19.9353 11.3442 19.2689 11.1188 18.3772L13.4266 17.848C13.4854 18.2204 13.6421 18.5242 13.8969 18.7594C14.1517 18.9848 14.4702 19.0974 14.8524 19.0974C15.3227 19.0974 15.6951 18.9505 15.9695 18.6565C16.2537 18.3625 16.3958 17.9901 16.3958 17.5393C16.3958 17.1964 16.3223 16.9171 16.1753 16.7015C16.0381 16.4761 15.8519 16.2997 15.6167 16.1723C15.3913 16.0351 15.1365 15.9421 14.8524 15.8931C14.5682 15.8441 14.284 15.8196 13.9998 15.8196C13.6372 15.8196 13.2698 15.8539 12.8974 15.9225C12.5348 15.991 12.182 16.0841 11.8391 16.2017L11.9567 10.4544H18.2478V12.3947Z" fill="white"/>
</svg>
