<svg width="32" height="32" viewBox="0 0 32 32" fill="none" xmlns="http://www.w3.org/2000/svg">
<path d="M15.6508 31.3015C18.7462 31.3015 21.7721 30.3837 24.3459 28.6639C26.9196 26.9442 28.9256 24.4999 30.1102 21.6401C31.2948 18.7803 31.6047 15.6334 31.0008 12.5975C30.3969 9.56151 28.9063 6.77282 26.7175 4.58402C24.5287 2.39522 21.74 0.904623 18.7041 0.300734C15.6681 -0.303154 12.5213 0.00677565 9.66148 1.19135C6.80168 2.37592 4.35736 4.38192 2.63763 6.95568C0.917902 9.52943 0 12.5553 0 15.6508C0 19.8016 1.64892 23.7824 4.584 26.7175C7.51909 29.6526 11.4999 31.3015 15.6508 31.3015Z" fill="#A5CF4F"/>
<path d="M14.8671 14.1752C14.9847 14.1458 15.1022 14.1213 15.2198 14.1017C15.3374 14.0821 15.4599 14.0723 15.5873 14.0723C16.0773 14.0723 16.5232 14.1605 16.9249 14.3369C17.3267 14.5133 17.6697 14.7534 17.9539 15.0572C18.238 15.3609 18.4585 15.7235 18.6153 16.1449C18.7721 16.5565 18.8505 16.9974 18.8505 17.4678C18.8505 18.0068 18.7476 18.4967 18.5418 18.9377C18.3458 19.3689 18.0715 19.7413 17.7187 20.0548C17.3757 20.3684 16.9641 20.6134 16.484 20.7898C16.0136 20.9564 15.5089 21.0397 14.97 21.0397C14.4212 21.0397 13.9116 20.9564 13.4413 20.7898C12.9709 20.6134 12.5593 20.3684 12.2065 20.0548C11.8636 19.7413 11.5892 19.3689 11.3834 18.9377C11.1874 18.4967 11.0894 18.0068 11.0894 17.4678C11.0894 17.0954 11.1237 16.7574 11.1923 16.4536C11.2609 16.14 11.3491 15.846 11.4569 15.5716C11.5745 15.2972 11.7068 15.0376 11.8538 14.7926C12.0105 14.5378 12.1722 14.2781 12.3388 14.0135L14.6172 10.4564H17.3071L14.8671 14.1752ZM16.6456 17.3796C16.6456 16.9092 16.4889 16.5222 16.1753 16.2184C15.8715 15.9048 15.4697 15.748 14.97 15.748C14.4702 15.748 14.0635 15.9048 13.7499 16.2184C13.4462 16.5222 13.2943 16.9092 13.2943 17.3796C13.2943 17.85 13.4462 18.242 13.7499 18.5555C14.0635 18.8593 14.4702 19.0112 14.97 19.0112C15.4697 19.0112 15.8715 18.8593 16.1753 18.5555C16.4889 18.242 16.6456 17.85 16.6456 17.3796Z" fill="white"/>
</svg>
