<svg width="32" height="32" viewBox="0 0 32 32" fill="none" xmlns="http://www.w3.org/2000/svg">
<path d="M15.6508 31.3016C18.7469 31.3016 21.7734 30.3833 24.3475 28.6629C26.9215 26.9425 28.9275 24.4973 30.1116 21.6366C31.2958 18.7759 31.6048 15.6283 30.9997 12.5919C30.3946 9.55554 28.9025 6.76687 26.7122 4.57867C24.5219 2.39048 21.7318 0.901074 18.6948 0.298892C15.6579 -0.303289 12.5105 0.00880606 9.651 1.19569C6.79146 2.38258 4.34819 4.39093 2.63028 6.96667C0.912369 9.54241 -0.00298119 12.5698 7.29443e-06 15.6659C6.33544e-06 17.7205 0.404936 19.7549 1.19165 21.6529C1.97836 23.5509 3.13141 25.2752 4.58492 26.7273C6.03842 28.1794 7.76387 29.3308 9.66262 30.1157C11.5614 30.9006 13.5962 31.3035 15.6508 31.3016Z" fill="#FAA831"/>
<path d="M16.4208 13.5551H11.2761V11.5267H18.8902V13.4669L14.7304 21.9336H12.158L16.4208 13.5551Z" fill="white"/>
</svg>
