<svg width="32" height="32" viewBox="0 0 32 32" fill="none" xmlns="http://www.w3.org/2000/svg">
<path d="M15.6508 31.3015C18.7462 31.3015 21.7721 30.3836 24.3459 28.6639C26.9196 26.9442 28.9256 24.4999 30.1102 21.6401C31.2948 18.7803 31.6047 15.6334 31.0008 12.5975C30.3969 9.56151 28.9063 6.77281 26.7175 4.58401C24.5287 2.39521 21.74 0.904621 18.7041 0.300733C15.6681 -0.303156 12.5213 0.00677988 9.66148 1.19135C6.80168 2.37592 4.35735 4.38191 2.63763 6.95567C0.917897 9.52943 0 12.5553 0 15.6508C0 19.8016 1.6489 23.7825 4.58399 26.7175C7.51908 29.6526 11.4999 31.3015 15.6508 31.3015Z" fill="#FAA831"/>
<path d="M11.5995 13.1424C11.5995 12.6622 11.6877 12.2457 11.8641 11.893C12.0502 11.5304 12.3001 11.2315 12.6137 10.9963C12.9371 10.7513 13.3095 10.57 13.7308 10.4525C14.1522 10.3349 14.603 10.2761 15.0831 10.2761C15.5633 10.2761 16.0141 10.3349 16.4355 10.4525C16.8568 10.57 17.2243 10.7513 17.5379 10.9963C17.8515 11.2315 18.1014 11.5304 18.2875 11.893C18.4737 12.2457 18.5668 12.6622 18.5668 13.1424C18.5668 13.7107 18.41 14.1958 18.0965 14.5976C17.7927 14.9994 17.3615 15.2835 16.8029 15.4501V15.4795C17.4301 15.6461 17.9103 15.9499 18.2434 16.3909C18.5766 16.822 18.7432 17.361 18.7432 18.0078C18.7432 18.5075 18.6403 18.9485 18.4345 19.3307C18.2385 19.7129 17.9691 20.0313 17.6261 20.2861C17.2929 20.5311 16.9058 20.7173 16.4649 20.8447C16.0239 20.9721 15.5633 21.0358 15.0831 21.0358C14.603 21.0358 14.1424 20.9721 13.7014 20.8447C13.2605 20.7173 12.8685 20.5311 12.5255 20.2861C12.1923 20.0313 11.9229 19.7129 11.7171 19.3307C11.5211 18.9485 11.4231 18.5075 11.4231 18.0078C11.4231 17.361 11.5897 16.822 11.9229 16.3909C12.256 15.9499 12.7362 15.6461 13.3634 15.4795V15.4501C12.8048 15.2835 12.3687 14.9994 12.0551 14.5976C11.7514 14.1958 11.5995 13.7107 11.5995 13.1424ZM13.8043 13.4511C13.8043 13.7744 13.9219 14.0488 14.1571 14.2742C14.3923 14.4996 14.701 14.6123 15.0831 14.6123C15.4653 14.6123 15.774 14.4996 16.0092 14.2742C16.2444 14.0488 16.362 13.7744 16.362 13.4511C16.362 13.1375 16.2444 12.868 16.0092 12.6426C15.774 12.4172 15.4653 12.3045 15.0831 12.3045C14.701 12.3045 14.3923 12.4172 14.1571 12.6426C13.9219 12.868 13.8043 13.1375 13.8043 13.4511ZM13.6279 17.6991C13.6279 18.0617 13.7602 18.3703 14.0248 18.6251C14.2894 18.8799 14.6422 19.0073 15.0831 19.0073C15.5241 19.0073 15.8769 18.8799 16.1415 18.6251C16.4061 18.3703 16.5384 18.0617 16.5384 17.6991C16.5384 17.3267 16.4061 17.0131 16.1415 16.7583C15.8769 16.5036 15.5241 16.3762 15.0831 16.3762C14.6422 16.3762 14.2894 16.5036 14.0248 16.7583C13.7602 17.0131 13.6279 17.3267 13.6279 17.6991Z" fill="white"/>
</svg>
