<svg width="32" height="32" viewBox="0 0 32 32" fill="none" xmlns="http://www.w3.org/2000/svg">
<path d="M15.6508 31.3016C18.7469 31.3016 21.7734 30.3833 24.3475 28.6629C26.9215 26.9425 28.9275 24.4973 30.1116 21.6366C31.2958 18.7759 31.6048 15.6283 30.9997 12.5919C30.3946 9.55554 28.9025 6.76687 26.7122 4.57867C24.5219 2.39048 21.7318 0.901074 18.6948 0.298892C15.6579 -0.303289 12.5105 0.00880606 9.651 1.19569C6.79146 2.38258 4.34819 4.39093 2.63028 6.96668C0.912369 9.54242 -0.00298119 12.5698 7.29443e-06 15.6659C6.33544e-06 17.7205 0.404936 19.7549 1.19165 21.6529C1.97836 23.5509 3.13141 25.2752 4.58492 26.7273C6.03842 28.1794 7.76387 29.3308 9.66262 30.1157C11.5614 30.9006 13.5962 31.3035 15.6508 31.3016Z" fill="#4E5F6D"/>
<path d="M15.1316 17.1405C15.0141 17.1699 14.8965 17.1944 14.7789 17.214C14.6613 17.2336 14.5388 17.2434 14.4114 17.2434C13.9214 17.2434 13.4756 17.1552 13.0738 16.9788C12.672 16.8024 12.329 16.5624 12.0448 16.2586C11.7607 15.9548 11.5402 15.5971 11.3834 15.1855C11.2266 14.7642 11.1482 14.3183 11.1482 13.8479C11.1482 13.309 11.2462 12.8239 11.4422 12.3927C11.648 11.9518 11.9224 11.5745 12.2653 11.2609C12.6181 10.9473 13.0297 10.7072 13.5001 10.5407C13.9704 10.3643 14.48 10.2761 15.0288 10.2761C15.5677 10.2761 16.0724 10.3643 16.5428 10.5407C17.0229 10.7072 17.4345 10.9473 17.7775 11.2609C18.1302 11.5745 18.4046 11.9518 18.6006 12.3927C18.8064 12.8239 18.9093 13.309 18.9093 13.8479C18.9093 14.2203 18.875 14.5633 18.8064 14.8769C18.7378 15.1806 18.6447 15.4697 18.5271 15.7441C18.4193 16.0185 18.287 16.2831 18.1302 16.5379C17.9833 16.7828 17.8265 17.0376 17.6599 17.3022L15.3815 20.8594H12.6916L15.1316 17.1405ZM13.3531 13.9361C13.3531 14.4065 13.505 14.7985 13.8087 15.1121C14.1223 15.4158 14.529 15.5677 15.0288 15.5677C15.5285 15.5677 15.9303 15.4158 16.2341 15.1121C16.5477 14.7985 16.7044 14.4065 16.7044 13.9361C16.7044 13.4658 16.5477 13.0787 16.2341 12.7749C15.9303 12.4613 15.5285 12.3045 15.0288 12.3045C14.529 12.3045 14.1223 12.4613 13.8087 12.7749C13.505 13.0787 13.3531 13.4658 13.3531 13.9361Z" fill="white"/>
</svg>
