<svg width="33" height="33" viewBox="0 0 33 33" fill="none" xmlns="http://www.w3.org/2000/svg">
<mask id="mask0_1369_8030" style="mask-type:luminance" maskUnits="userSpaceOnUse" x="0" y="0" width="33" height="33">
<path d="M32.17 0H0V32.17H32.17V0Z" fill="white"/>
</mask>
<g mask="url(#mask0_1369_8030)">
<path d="M21.1486 13.3602H19.1486C19.0697 13.3465 18.9981 13.3054 18.9465 13.2441C18.895 13.1829 18.8667 13.1053 18.8667 13.0252C18.8667 12.9451 18.895 12.8676 18.9465 12.8063C18.9981 12.745 19.0697 12.7039 19.1486 12.6902H21.1486C21.2275 12.7039 21.2991 12.745 21.3507 12.8063C21.4022 12.8676 21.4305 12.9451 21.4305 13.0252C21.4305 13.1053 21.4022 13.1829 21.3507 13.2441C21.2991 13.3054 21.2275 13.3465 21.1486 13.3602ZM19.5286 17.7802C19.4982 17.8133 19.461 17.8393 19.4196 17.8566C19.3782 17.8739 19.3335 17.8819 19.2886 17.8802C19.2453 17.8811 19.2023 17.8727 19.1626 17.8554C19.1229 17.8382 19.0874 17.8125 19.0586 17.7802L17.6386 16.3602C17.6075 16.3295 17.5827 16.2929 17.5658 16.2526C17.549 16.2123 17.5403 16.169 17.5403 16.1252C17.5403 16.0815 17.549 16.0382 17.5658 15.9979C17.5827 15.9575 17.6075 15.9209 17.6386 15.8902C17.7023 15.8267 17.7886 15.7911 17.8786 15.7911C17.9686 15.7911 18.0549 15.8267 18.1186 15.8902L19.5286 17.3002C19.5921 17.364 19.6278 17.4503 19.6278 17.5402C19.6278 17.6302 19.5921 17.7165 19.5286 17.7802ZM17.0386 15.8402C16.8753 15.9731 16.7438 16.1409 16.6538 16.3313C16.5639 16.5216 16.5176 16.7297 16.5186 16.9402V17.7802C16.5186 17.8704 16.4828 17.9569 16.419 18.0206C16.3553 18.0844 16.2688 18.1202 16.1786 18.1202H13.3586C13.2684 18.1202 13.1819 18.0844 13.1182 18.0206C13.0544 17.9569 13.0186 17.8704 13.0186 17.7802V16.9402C13.0195 16.7297 12.9733 16.5216 12.8834 16.3313C12.7934 16.1409 12.6619 15.9731 12.4986 15.8402C11.9196 15.3682 11.5018 14.7278 11.3031 14.0077C11.1043 13.2876 11.1345 12.5235 11.3894 11.8214C11.6444 11.1192 12.1114 10.5137 12.7258 10.0889C13.3403 9.66403 14.0716 9.44083 14.8186 9.45023C15.7503 9.47042 16.6386 9.84821 17.2995 10.5053C17.9603 11.1625 18.3431 12.0486 18.3686 12.9802C18.38 13.5268 18.2661 14.0688 18.0355 14.5646C17.805 15.0604 17.464 15.4967 17.0386 15.8402ZM16.3086 19.2102H13.2186C13.1397 19.1965 13.0681 19.1554 13.0165 19.0941C12.965 19.0329 12.9367 18.9553 12.9367 18.8752C12.9367 18.7951 12.965 18.7176 13.0165 18.6563C13.0681 18.595 13.1397 18.5539 13.2186 18.5402H16.3086C16.3574 18.5318 16.4075 18.5341 16.4554 18.547C16.5032 18.5599 16.5477 18.5832 16.5856 18.6151C16.6235 18.647 16.654 18.6868 16.6749 18.7318C16.6959 18.7767 16.7067 18.8257 16.7067 18.8752C16.7067 18.9248 16.6959 18.9738 16.6749 19.0187C16.654 19.0636 16.6235 19.1035 16.5856 19.1354C16.5477 19.1673 16.5032 19.1905 16.4554 19.2035C16.4075 19.2164 16.3574 19.2187 16.3086 19.2102ZM15.5086 20.2102H13.8786C13.8298 20.2187 13.7797 20.2164 13.7318 20.2035C13.684 20.1905 13.6395 20.1673 13.6016 20.1354C13.5637 20.1035 13.5332 20.0636 13.5123 20.0187C13.4913 19.9738 13.4805 19.9248 13.4805 19.8752C13.4805 19.8257 13.4913 19.7767 13.5123 19.7318C13.5332 19.6868 13.5637 19.647 13.6016 19.6151C13.6395 19.5832 13.684 19.5599 13.7318 19.547C13.7797 19.5341 13.8298 19.5318 13.8786 19.5402H15.5086C15.5574 19.5318 15.6075 19.5341 15.6554 19.547C15.7032 19.5599 15.7477 19.5832 15.7856 19.6151C15.8235 19.647 15.854 19.6868 15.8749 19.7318C15.8959 19.7767 15.9067 19.8257 15.9067 19.8752C15.9067 19.9248 15.8959 19.9738 15.8749 20.0187C15.854 20.0636 15.8235 20.1035 15.7856 20.1354C15.7477 20.1673 15.7032 20.1905 15.6554 20.2035C15.6075 20.2164 15.5574 20.2187 15.5086 20.2102ZM11.9586 16.3602L10.5386 17.7702C10.5097 17.8025 10.4743 17.8282 10.4346 17.8454C10.3949 17.8627 10.3519 17.8711 10.3086 17.8702C10.2637 17.8719 10.219 17.8639 10.1776 17.8466C10.1362 17.8293 10.099 17.8033 10.0686 17.7702C10.0375 17.7395 10.0127 17.7029 9.99585 17.6626C9.97897 17.6223 9.97028 17.579 9.97028 17.5352C9.97028 17.4915 9.97897 17.4482 9.99585 17.4079C10.0127 17.3675 10.0375 17.3309 10.0686 17.3002L11.4786 15.8802C11.5434 15.8226 11.6278 15.792 11.7145 15.7945C11.8011 15.7971 11.8836 15.8326 11.9449 15.894C12.0062 15.9553 12.0418 16.0377 12.0443 16.1244C12.0469 16.211 12.0162 16.2954 11.9586 16.3602ZM8.4186 13.3602C8.33968 13.3465 8.26812 13.3054 8.21655 13.2441C8.16498 13.1829 8.13669 13.1053 8.13669 13.0252C8.13669 12.9451 8.16498 12.8676 8.21655 12.8063C8.26812 12.745 8.33968 12.7039 8.4186 12.6902H10.4186C10.4674 12.6818 10.5175 12.6841 10.5654 12.697C10.6132 12.7099 10.6577 12.7332 10.6956 12.7651C10.7335 12.797 10.764 12.8368 10.7849 12.8818C10.8059 12.9267 10.8167 12.9757 10.8167 13.0252C10.8167 13.0748 10.8059 13.1238 10.7849 13.1687C10.764 13.2136 10.7335 13.2535 10.6956 13.2854C10.6577 13.3173 10.6132 13.3405 10.5654 13.3535C10.5175 13.3664 10.4674 13.3687 10.4186 13.3602H8.4186ZM10.0386 8.27023C10.0693 8.23909 10.1059 8.21436 10.1462 8.19748C10.1866 8.1806 10.2299 8.17191 10.2736 8.17191C10.3173 8.17191 10.3606 8.1806 10.401 8.19748C10.4413 8.21436 10.4779 8.23909 10.5086 8.27023L11.9286 9.68024C11.9921 9.74397 12.0278 9.83026 12.0278 9.92023C12.0278 10.0102 11.9921 10.0965 11.9286 10.1602C11.8649 10.2237 11.7786 10.2594 11.6886 10.2594C11.5986 10.2594 11.5123 10.2237 11.4486 10.1602L10.0386 8.74023C10.0075 8.70953 9.98273 8.67294 9.96585 8.6326C9.94897 8.59226 9.94028 8.54897 9.94028 8.50523C9.94028 8.4615 9.94897 8.4182 9.96585 8.37785C9.98273 8.33751 10.0075 8.30094 10.0386 8.27023ZM14.4386 6.62022C14.4523 6.5413 14.4934 6.46976 14.5547 6.41818C14.616 6.36661 14.6935 6.33832 14.7736 6.33832C14.8537 6.33832 14.9312 6.36661 14.9925 6.41818C15.0538 6.46976 15.0949 6.5413 15.1086 6.62022V8.62022C15.0949 8.69915 15.0538 8.77071 14.9925 8.82228C14.9312 8.87385 14.8537 8.90213 14.7736 8.90213C14.6935 8.90213 14.616 8.87385 14.5547 8.82228C14.4934 8.77071 14.4523 8.69915 14.4386 8.62022V6.62022ZM17.6386 9.62022L19.0486 8.21024C19.1123 8.14673 19.1986 8.11107 19.2886 8.11107C19.3786 8.11107 19.4649 8.14673 19.5286 8.21024C19.5597 8.24094 19.5845 8.27751 19.6014 8.31786C19.6182 8.3582 19.6269 8.4015 19.6269 8.44524C19.6269 8.48897 19.6182 8.53226 19.6014 8.5726C19.5845 8.61294 19.5597 8.64953 19.5286 8.68024L18.1086 10.1002C18.0475 10.1617 17.9652 10.1974 17.8786 10.2002C17.7887 10.1989 17.7028 10.1631 17.6386 10.1002C17.5751 10.0365 17.5394 9.9502 17.5394 9.86023C17.5394 9.77026 17.5751 9.68395 17.6386 9.62022ZM25.0586 15.6202C24.6451 14.7588 24.1844 13.9209 23.6786 13.1102C23.5397 12.8812 23.4671 12.6181 23.4686 12.3502C23.4686 7.35023 19.6786 3.24023 15.0286 3.24023C10.3786 3.24023 6.5786 7.33023 6.5786 12.3602C6.56352 13.8753 6.90614 15.3725 7.5786 16.7302C7.80819 17.1885 8.07579 17.6267 8.3786 18.0402C8.98082 19.1426 9.42517 20.3242 9.6986 21.5502C9.8939 23.6023 9.8939 25.6682 9.6986 27.7202C9.69321 27.8104 9.70582 27.9007 9.7357 27.9859C9.76558 28.0711 9.81214 28.1495 9.87265 28.2165C9.93315 28.2835 10.0064 28.3378 10.0881 28.3763C10.1698 28.4147 10.2584 28.4364 10.3486 28.4402L17.9186 28.7102C18.0083 28.7129 18.0975 28.6976 18.1811 28.6651C18.2648 28.6326 18.341 28.5837 18.4053 28.5212C18.4697 28.4587 18.5208 28.384 18.5558 28.3013C18.5907 28.2187 18.6086 28.1299 18.6086 28.0402V25.5702C18.6108 25.3155 18.6835 25.0662 18.8186 24.8502H18.0886C17.1125 24.845 16.178 24.4542 15.4887 23.763C14.7995 23.0719 14.4112 22.1363 14.4086 21.1602V21.0702C14.408 20.9839 14.4394 20.9005 14.4966 20.8359C14.5538 20.7713 14.6329 20.7301 14.7186 20.7202C14.7649 20.7161 14.8115 20.7215 14.8556 20.7361C14.8997 20.7507 14.9403 20.7742 14.975 20.8052C15.0097 20.8361 15.0377 20.8738 15.0572 20.9159C15.0767 20.9581 15.0874 21.0038 15.0886 21.0502V21.1602C15.0886 21.9559 15.4047 22.7189 15.9673 23.2816C16.5299 23.8442 17.2929 24.1602 18.0886 24.1602L19.9586 24.3602H20.5786C20.9214 24.3615 21.261 24.2953 21.5782 24.1654C21.8953 24.0354 22.1838 23.8443 22.4271 23.6029C22.6704 23.3614 22.8637 23.0744 22.9961 22.7583C23.1285 22.4421 23.1973 22.103 23.1986 21.7602V19.7602C23.1993 19.4469 23.3081 19.1434 23.5067 18.9011C23.7053 18.6588 23.9815 18.4924 24.2886 18.4302C24.805 18.359 25.2797 18.1075 25.6286 17.7202C25.6286 17.7202 25.8486 17.3802 25.0686 15.7202" fill="#A5CF4F"/>
<path d="M14.7656 14.2396C14.5303 14.2396 14.3002 14.1698 14.1045 14.039C13.9088 13.9083 13.7563 13.7224 13.6662 13.505C13.5761 13.2875 13.5526 13.0483 13.5985 12.8174C13.6444 12.5866 13.7577 12.3746 13.9242 12.2081C14.0906 12.0417 14.3026 11.9284 14.5335 11.8825C14.7643 11.8366 15.0036 11.8601 15.221 11.9502C15.4385 12.0402 15.6243 12.1928 15.7551 12.3885C15.8858 12.5842 15.9556 12.8142 15.9556 13.0496C15.9556 13.3652 15.8303 13.6679 15.6071 13.8911C15.3839 14.1142 15.0812 14.2396 14.7656 14.2396ZM14.7656 10.0996C13.982 10.0994 13.2293 10.4058 12.6687 10.9534C12.108 11.501 11.7839 12.2461 11.7656 13.0296C11.7775 13.4737 11.891 13.9092 12.0973 14.3027C12.3035 14.6962 12.5972 15.0372 12.9556 15.2996C13.1967 15.4951 13.391 15.742 13.5242 16.0223C13.6575 16.3027 13.7263 16.6092 13.7256 16.9196V17.4296H15.8656V16.9196C15.865 16.6092 15.9338 16.3027 16.067 16.0223C16.2003 15.742 16.3945 15.4951 16.6356 15.2996C16.9832 15.0202 17.2621 14.665 17.451 14.2611C17.64 13.8572 17.7339 13.4154 17.7256 12.9696C17.6934 12.2154 17.378 11.501 16.8423 10.969C16.3066 10.437 15.5901 10.1266 14.8356 10.0996" fill="#A5CF4F"/>
</g>
</svg>
