<svg width="33" height="33" viewBox="0 0 33 33" fill="none" xmlns="http://www.w3.org/2000/svg">
<mask id="mask0_1369_6788" style="mask-type:luminance" maskUnits="userSpaceOnUse" x="0" y="0" width="33" height="33">
<path d="M32.17 0H0V32.17H32.17V0Z" fill="white"/>
</mask>
<g mask="url(#mask0_1369_6788)">
</g>
<g clip-path="url(#clip0_1369_6788)">
<mask id="mask1_1369_6788" style="mask-type:luminance" maskUnits="userSpaceOnUse" x="0" y="-1" width="33" height="34">
<path d="M32.2091 -0.109375H0.0390625V32.0606H32.2091V-0.109375Z" fill="white"/>
</mask>
<g mask="url(#mask1_1369_6788)">
<path d="M19.1077 11.5307L15.4077 18.8007C15.3795 18.8558 15.3365 18.9019 15.2835 18.9337C15.2304 18.9656 15.1695 18.9818 15.1077 18.9807H15.0377C14.9627 18.9645 14.8958 18.9226 14.8484 18.8624C14.8009 18.8022 14.7759 18.7273 14.7777 18.6507V13.5507H10.4477C10.3898 13.549 10.3333 13.5326 10.2836 13.503C10.2339 13.4733 10.1925 13.4315 10.1635 13.3814C10.1344 13.3314 10.1187 13.2747 10.1176 13.2168C10.1166 13.1589 10.1304 13.1018 10.1577 13.0507L14.5177 5.5007C14.5542 5.43806 14.6098 5.38874 14.6764 5.35995C14.743 5.33117 14.817 5.32442 14.8877 5.3407C14.9578 5.35909 15.0204 5.3988 15.067 5.45433C15.1136 5.50986 15.1418 5.57846 15.1477 5.6507L15.4277 11.0407H18.8177C18.8741 11.0412 18.9295 11.0562 18.9785 11.0842C19.0276 11.1122 19.0686 11.1523 19.0977 11.2007C19.1266 11.2509 19.1419 11.3078 19.1419 11.3657C19.1419 11.4236 19.1266 11.4805 19.0977 11.5307M25.0977 15.6007C24.682 14.7404 24.2214 13.9026 23.7177 13.0907C23.5788 12.8616 23.5061 12.5986 23.5077 12.3307C23.5077 7.3307 19.7177 3.2207 15.0677 3.2207C10.4177 3.2207 6.61766 7.3107 6.61766 12.3407C6.60258 13.8557 6.9452 15.353 7.61766 16.7107C7.84725 17.169 8.11485 17.6072 8.41766 18.0207C9.02161 19.1258 9.46602 20.3109 9.73766 21.5407C9.93296 23.5927 9.93296 25.6587 9.73766 27.7107C9.73226 27.8003 9.74494 27.8901 9.77494 27.9748C9.80493 28.0594 9.85164 28.1372 9.91227 28.2034C9.97291 28.2696 10.0462 28.323 10.1279 28.3603C10.2096 28.3977 10.2979 28.4182 10.3877 28.4207L17.9577 28.6907C18.0477 28.6948 18.1376 28.6804 18.2218 28.6485C18.3061 28.6165 18.3829 28.5677 18.4475 28.5049C18.5122 28.4421 18.5633 28.3668 18.5977 28.2835C18.6321 28.2002 18.6491 28.1108 18.6477 28.0207V25.5607C18.649 25.2935 18.729 25.0327 18.8777 24.8107H18.1377C17.1607 24.8107 16.2237 24.4233 15.532 23.7335C14.8402 23.0436 14.4503 22.1076 14.4477 21.1307V21.0207C14.4475 20.9734 14.4572 20.9266 14.4761 20.8833C14.495 20.8399 14.5228 20.801 14.5576 20.769C14.5924 20.737 14.6335 20.7126 14.6783 20.6974C14.7231 20.6822 14.7706 20.6765 14.8177 20.6807C14.9034 20.6906 14.9825 20.7317 15.0397 20.7963C15.0969 20.8609 15.1282 20.9444 15.1277 21.0307V21.1307C15.1277 21.9264 15.4437 22.6894 16.0063 23.252C16.5689 23.8146 17.332 24.1307 18.1277 24.1307H20.0177C20.0769 24.1174 20.1384 24.1174 20.1977 24.1307H20.5477C20.8904 24.132 21.2301 24.0658 21.5472 23.9359C21.8644 23.8059 22.1529 23.6148 22.3962 23.3733C22.6394 23.1319 22.8328 22.8449 22.9652 22.5287C23.0975 22.2126 23.1664 21.8735 23.1677 21.5307V19.5307C23.1683 19.2174 23.2772 18.9139 23.4758 18.6716C23.6744 18.4292 23.9506 18.2629 24.2577 18.2007C24.7717 18.1289 25.2451 17.8816 25.5977 17.5007C25.5977 17.5007 25.8177 17.1607 25.0377 15.5007" fill="#A5CF4F"/>
</g>
</g>
<defs>
<clipPath id="clip0_1369_6788">
<rect width="19.07" height="25.51" fill="white" transform="translate(6.58594 3.2207)"/>
</clipPath>
</defs>
</svg>
