<svg width="33" height="33" viewBox="0 0 33 33" fill="none" xmlns="http://www.w3.org/2000/svg">
<mask id="mask0_1369_3860" style="mask-type:luminance" maskUnits="userSpaceOnUse" x="0" y="0" width="33" height="33">
<path d="M32.17 0H0V32.17H32.17V0Z" fill="white"/>
</mask>
<g mask="url(#mask0_1369_3860)">
</g>
<g clip-path="url(#clip0_1369_3860)">
<mask id="mask1_1369_3860" style="mask-type:luminance" maskUnits="userSpaceOnUse" x="0" y="-1" width="33" height="34">
<path d="M32.2012 -0.109375H0.03125V32.0606H32.2012V-0.109375Z" fill="white"/>
</mask>
<g mask="url(#mask1_1369_3860)">
<path d="M23.0809 3.3008L18.4409 8.7408C18.4143 8.773 18.3975 8.81209 18.3923 8.85352C18.3871 8.89494 18.3939 8.93698 18.4117 8.97473C18.4295 9.01248 18.4577 9.04439 18.493 9.06671C18.5283 9.08903 18.5692 9.10086 18.6109 9.1008H20.6109C20.6693 9.1008 20.7252 9.12398 20.7665 9.16524C20.8077 9.2065 20.8309 9.26245 20.8309 9.3208V28.5108C20.8309 28.5691 20.8541 28.6251 20.8953 28.6664C20.9366 28.7076 20.9926 28.7308 21.0509 28.7308H25.4909C25.5493 28.7308 25.6052 28.7076 25.6465 28.6664C25.6877 28.6251 25.7109 28.5691 25.7109 28.5108V9.3208C25.7096 9.29239 25.714 9.26399 25.7239 9.23735C25.7339 9.21071 25.7491 9.18636 25.7688 9.16579C25.7884 9.14521 25.812 9.12885 25.8382 9.11768C25.8643 9.1065 25.8925 9.10077 25.9209 9.1008H27.9209C27.9627 9.10086 28.0036 9.08903 28.0388 9.06671C28.0741 9.04439 28.1023 9.01248 28.1201 8.97473C28.138 8.93698 28.1447 8.89494 28.1395 8.85352C28.1343 8.81209 28.1175 8.773 28.0909 8.7408L23.4409 3.3008C23.4213 3.27583 23.3962 3.25565 23.3676 3.24178C23.339 3.2279 23.3077 3.2207 23.2759 3.2207C23.2441 3.2207 23.2128 3.2279 23.1842 3.24178C23.1556 3.25565 23.1306 3.27583 23.1109 3.3008" fill="#A5CF4F"/>
<path d="M15.6756 28.7303H19.2356C19.4107 28.7303 19.5785 28.6608 19.7023 28.537C19.8261 28.4132 19.8956 28.2454 19.8956 28.0703V14.9803C19.8956 14.8053 19.8261 14.6374 19.7023 14.5136C19.5785 14.3898 19.4107 14.3203 19.2356 14.3203H15.6756C15.5006 14.3203 15.3327 14.3898 15.2089 14.5136C15.0852 14.6374 15.0156 14.8053 15.0156 14.9803V28.0703C15.0156 28.2454 15.0852 28.4132 15.2089 28.537C15.3327 28.6608 15.5006 28.7303 15.6756 28.7303Z" fill="#A5CF4F"/>
<path d="M10.0663 28.7309H13.4362C13.6113 28.7309 13.7792 28.6613 13.9029 28.5376C14.0267 28.4138 14.0963 28.2459 14.0963 28.0709V19.5408C14.0937 19.3666 14.0233 19.2002 13.9001 19.077C13.7769 18.9538 13.6105 18.8834 13.4362 18.8809H10.0663C9.89202 18.8834 9.72564 18.9538 9.60242 19.077C9.4792 19.2002 9.40883 19.3666 9.40625 19.5408V28.0709C9.40625 28.2459 9.47579 28.4138 9.59956 28.5376C9.72334 28.6613 9.89121 28.7309 10.0663 28.7309Z" fill="#A5CF4F"/>
<path d="M4.79282 28.7316H7.79282C7.87986 28.733 7.9663 28.7168 8.04698 28.6841C8.12767 28.6515 8.20095 28.6029 8.26251 28.5413C8.32407 28.4798 8.37263 28.4065 8.40532 28.3258C8.43801 28.2451 8.45417 28.1587 8.45282 28.0716V24.2516C8.45283 24.1654 8.43569 24.0801 8.4024 24.0006C8.36912 23.921 8.32033 23.8489 8.25891 23.7884C8.19749 23.7279 8.12465 23.6803 8.04463 23.6482C7.96461 23.6161 7.87901 23.6003 7.79282 23.6016H4.79282C4.61949 23.6016 4.45311 23.6698 4.32962 23.7914C4.20613 23.913 4.13544 24.0783 4.13281 24.2516V28.1116C4.13281 28.2867 4.20235 28.4545 4.32613 28.5783C4.4499 28.7021 4.61777 28.7716 4.79282 28.7716" fill="#A5CF4F"/>
</g>
</g>
<defs>
<clipPath id="clip0_1369_3860">
<rect width="23.97" height="25.51" fill="white" transform="translate(4.13281 3.2207)"/>
</clipPath>
</defs>
</svg>
