<svg width="33" height="33" viewBox="0 0 33 33" fill="none" xmlns="http://www.w3.org/2000/svg">
<mask id="mask0_1369_6359" style="mask-type:luminance" maskUnits="userSpaceOnUse" x="0" y="0" width="33" height="33">
<path d="M32.17 0H0V32.17H32.17V0Z" fill="white"/>
</mask>
<g mask="url(#mask0_1369_6359)">
</g>
<g clip-path="url(#clip0_1369_6359)">
<mask id="mask1_1369_6359" style="mask-type:luminance" maskUnits="userSpaceOnUse" x="0" y="-1" width="33" height="34">
<path d="M32.2012 -0.109375H0.03125V32.0606H32.2012V-0.109375Z" fill="white"/>
</mask>
<g mask="url(#mask1_1369_6359)">
<path d="M16.1203 15.5806C15.5008 15.5825 14.8947 15.4006 14.3787 15.0579C13.8626 14.7152 13.4599 14.227 13.2215 13.6553C12.983 13.0835 12.9196 12.4539 13.0392 11.8461C13.1589 11.2383 13.4562 10.6796 13.8935 10.2409C14.3309 9.80212 14.8886 9.50302 15.496 9.38144C16.1034 9.25985 16.7333 9.32126 17.3058 9.55786C17.8783 9.79447 18.3677 10.1956 18.7121 10.7106C19.0565 11.2255 19.2403 11.8311 19.2403 12.4505C19.2403 13.2789 18.9119 14.0736 18.3271 14.6603C17.7423 15.247 16.9487 15.5779 16.1203 15.5806ZM22.1203 7.81055H10.0703C9.93406 8.52848 9.56747 9.18243 9.02611 9.67326C8.48474 10.1641 7.79812 10.4651 7.07031 10.5305V14.3705C7.79812 14.436 8.48474 14.737 9.02611 15.2278C9.56747 15.7187 9.93406 16.3726 10.0703 17.0905H22.1603C22.2906 16.4283 22.615 15.8198 23.0922 15.3425C23.5695 14.8652 24.178 14.5408 24.8403 14.4106V10.4805C24.1777 10.3548 23.5681 10.0331 23.0903 9.55707C22.6125 9.08107 22.2886 8.47267 22.1603 7.81055" fill="#A5CF4F"/>
<path d="M25.1503 7.5V9.58C24.6233 9.50994 24.134 9.26826 23.758 8.8923C23.3821 8.51635 23.1404 8.02704 23.0703 7.5H25.1503Z" fill="#A5CF4F"/>
<path d="M9.15813 7.5C9.08806 8.02704 8.84638 8.51635 8.47043 8.8923C8.09447 9.26826 7.60517 9.50994 7.07812 9.58V7.5H9.15813Z" fill="#A5CF4F"/>
<path d="M9.15813 17.4003H7.07812V15.3203C7.60517 15.3904 8.09447 15.6321 8.47043 16.008C8.84638 16.384 9.08806 16.8733 9.15813 17.4003Z" fill="#A5CF4F"/>
<path d="M25.1503 15.3203V17.4003H23.0703C23.1404 16.8733 23.3821 16.384 23.758 16.008C24.134 15.6321 24.6233 15.3904 25.1503 15.3203Z" fill="#A5CF4F"/>
<path d="M16.9966 13.1C16.9924 13.3024 16.9134 13.4961 16.775 13.6438C16.6365 13.7915 16.4483 13.8828 16.2466 13.9V14.4H15.9466V13.92C15.6919 13.9173 15.4428 13.8447 15.2266 13.71L15.3366 13.39C15.5403 13.5184 15.7758 13.5876 16.0166 13.59C16.3566 13.59 16.5866 13.4 16.5866 13.13C16.5866 12.86 16.3966 12.71 16.0466 12.57C15.6966 12.43 15.2666 12.16 15.2666 11.74C15.271 11.5466 15.3471 11.3617 15.4801 11.2213C15.6132 11.0808 15.7937 10.9948 15.9866 10.98V10.5H16.2766V10.96C16.4943 10.963 16.7077 11.0215 16.8966 11.13L16.7766 11.44C16.5952 11.3322 16.3875 11.2768 16.1766 11.28C15.8166 11.28 15.6766 11.5 15.6766 11.69C15.6766 11.88 15.8466 12.06 16.2666 12.23C16.6866 12.4 16.9966 12.67 16.9966 13.1Z" fill="#A5CF4F"/>
<path d="M28.3694 19.7207H3.85938C3.72677 19.7207 3.5996 19.7734 3.50583 19.8671C3.41206 19.9609 3.35938 20.0881 3.35938 20.2207C3.35938 20.3533 3.41206 20.4805 3.50583 20.5742C3.5996 20.668 3.72677 20.7207 3.85938 20.7207H28.3694C28.502 20.7207 28.6292 20.668 28.7229 20.5742C28.8167 20.4805 28.8694 20.3533 28.8694 20.2207C28.8694 20.0881 28.8167 19.9609 28.7229 19.8671C28.6292 19.7734 28.502 19.7207 28.3694 19.7207Z" fill="#A5CF4F"/>
<path d="M24.5464 23.4395H7.70638C7.59087 23.4627 7.48696 23.5252 7.41231 23.6163C7.33766 23.7075 7.29687 23.8216 7.29688 23.9395C7.29687 24.0573 7.33766 24.1714 7.41231 24.2626C7.48696 24.3537 7.59087 24.4162 7.70638 24.4395H24.5464C24.6619 24.4162 24.7658 24.3537 24.8404 24.2626C24.9151 24.1714 24.9559 24.0573 24.9559 23.9395C24.9559 23.8216 24.9151 23.7075 24.8404 23.6163C24.7658 23.5252 24.6619 23.4627 24.5464 23.4395Z" fill="#A5CF4F"/>
</g>
</g>
<defs>
<clipPath id="clip0_1369_6359">
<rect width="25.51" height="16.95" fill="white" transform="translate(3.35938 7.5)"/>
</clipPath>
</defs>
</svg>
