<svg width="33" height="33" viewBox="0 0 33 33" fill="none" xmlns="http://www.w3.org/2000/svg">
<mask id="mask0_1369_8041" style="mask-type:luminance" maskUnits="userSpaceOnUse" x="0" y="0" width="33" height="33">
<path d="M32.17 0H0V32.17H32.17V0Z" fill="white"/>
</mask>
<g mask="url(#mask0_1369_8041)">
</g>
<g clip-path="url(#clip0_1369_8041)">
<mask id="mask1_1369_8041" style="mask-type:luminance" maskUnits="userSpaceOnUse" x="0" y="-1" width="33" height="34">
<path d="M32.2012 -0.111328H0.03125V32.0587H32.2012V-0.111328Z" fill="white"/>
</mask>
<g mask="url(#mask1_1369_8041)">
<path d="M16.0175 9.51788C16.5796 9.51986 17.1297 9.35497 17.598 9.04411C18.0664 8.73325 18.432 8.29041 18.6484 7.77165C18.8649 7.25288 18.9226 6.68153 18.8141 6.12997C18.7057 5.57841 18.436 5.07144 18.0392 4.67326C17.6424 4.27508 17.1364 4.00359 16.5852 3.8932C16.0341 3.7828 15.4625 3.83845 14.943 4.05311C14.4235 4.26777 13.9793 4.63177 13.6668 5.09902C13.3543 5.56627 13.1875 6.11574 13.1875 6.67787C13.1875 7.42935 13.4853 8.1502 14.0158 8.68252C14.5462 9.21484 15.266 9.51523 16.0175 9.51788Z" fill="#A5CF4F"/>
<path d="M8.34 22.1878C8.9017 22.1878 9.45078 22.0212 9.91782 21.7092C10.3849 21.3971 10.7489 20.9536 10.9638 20.4346C11.1788 19.9157 11.235 19.3447 11.1254 18.7938C11.0158 18.2428 10.7454 17.7368 10.3482 17.3396C9.95099 16.9424 9.44495 16.672 8.89404 16.5624C8.34314 16.4528 7.77212 16.509 7.25317 16.724C6.73423 16.9389 6.29069 17.303 5.97862 17.77C5.66656 18.237 5.5 18.7861 5.5 19.3478C5.5 20.101 5.7992 20.8234 6.3318 21.356C6.86441 21.8886 7.58678 22.1878 8.34 22.1878Z" fill="#A5CF4F"/>
<path d="M19.3369 21.6584L16.4169 19.5584V16.6484C16.4169 16.5158 16.3642 16.3887 16.2705 16.2949C16.1767 16.2011 16.0495 16.1484 15.9169 16.1484C15.7843 16.1484 15.6571 16.2011 15.5633 16.2949C15.4696 16.3887 15.4169 16.5158 15.4169 16.6484V19.5584L12.5069 21.6584C12.4423 21.7034 12.3896 21.7632 12.353 21.8328C12.3165 21.9024 12.2972 21.9798 12.2969 22.0584C12.2962 22.159 12.3277 22.2571 12.3869 22.3384C12.4239 22.3917 12.4714 22.4368 12.5264 22.4712C12.5814 22.5056 12.6428 22.5284 12.7069 22.5384H12.7869C12.8903 22.538 12.9913 22.5066 13.0769 22.4484L15.9069 20.4484L18.7469 22.4484C18.8282 22.5076 18.9263 22.5392 19.0269 22.5384C19.1055 22.5381 19.1829 22.5188 19.2525 22.4823C19.3222 22.4457 19.382 22.393 19.4269 22.3284C19.4861 22.2471 19.5176 22.149 19.5169 22.0484C19.5185 21.9705 19.5012 21.8934 19.4663 21.8237C19.4315 21.754 19.3802 21.6939 19.3169 21.6484" fill="#A5CF4F"/>
<path d="M23.7072 22.1878C24.2689 22.1878 24.818 22.0212 25.285 21.7092C25.752 21.3971 26.116 20.9536 26.331 20.4346C26.5459 19.9157 26.6022 19.3447 26.4926 18.7938C26.383 18.2428 26.1125 17.7368 25.7154 17.3396C25.3182 16.9424 24.8121 16.672 24.2612 16.5624C23.7103 16.4528 23.1393 16.509 22.6204 16.724C22.1014 16.9389 21.6579 17.303 21.3458 17.77C21.0338 18.237 20.8672 18.7861 20.8672 19.3478C20.8672 20.101 21.1664 20.8234 21.699 21.356C22.2316 21.8886 22.954 22.1878 23.7072 22.1878Z" fill="#A5CF4F"/>
<path d="M10.9975 22.8881H5.91747C5.19766 22.9519 4.53096 23.2934 4.05868 23.8404C3.5864 24.3873 3.34566 25.0967 3.38747 25.8181V28.0581V28.1081H5.58747C5.58275 28.0918 5.58275 28.0745 5.58747 28.0581V26.0581C5.57912 26.0107 5.58125 25.962 5.59373 25.9154C5.6062 25.8689 5.62872 25.8256 5.65969 25.7887C5.69067 25.7518 5.72935 25.7222 5.77302 25.7018C5.81669 25.6814 5.86429 25.6709 5.91247 25.6709C5.96065 25.6709 6.00825 25.6814 6.05192 25.7018C6.09559 25.7222 6.13425 25.7518 6.16523 25.7887C6.1962 25.8256 6.21873 25.8689 6.23121 25.9154C6.24369 25.962 6.24582 26.0107 6.23746 26.0581V28.0581C6.24219 28.0745 6.24219 28.0918 6.23746 28.1081H10.6975C10.6927 28.0918 10.6927 28.0745 10.6975 28.0581V26.0581C10.6975 25.9706 10.7322 25.8867 10.7941 25.8248C10.856 25.7629 10.94 25.7281 11.0275 25.7281C11.115 25.7281 11.1989 25.7629 11.2608 25.8248C11.3227 25.8867 11.3575 25.9706 11.3575 26.0581V28.0581H13.5575V25.8281C13.6135 25.101 13.3837 24.3806 12.9168 23.8204C12.4499 23.2601 11.7828 22.9041 11.0575 22.8281" fill="#A5CF4F"/>
<path d="M26.3647 22.8881H21.2847C20.5648 22.9519 19.8982 23.2934 19.4259 23.8404C18.9536 24.3873 18.7129 25.0967 18.7547 25.8181V28.0581V28.1081H20.9547C20.95 28.0918 20.95 28.0745 20.9547 28.0581V26.0581C20.9533 26.0153 20.9606 25.9726 20.9761 25.9326C20.9916 25.8926 21.0149 25.8561 21.0448 25.8253C21.0746 25.7946 21.1104 25.7701 21.1499 25.7534C21.1894 25.7367 21.2318 25.7281 21.2747 25.7281C21.3622 25.7281 21.4461 25.7629 21.508 25.8248C21.5699 25.8867 21.6047 25.9706 21.6047 26.0581V28.0581C21.6094 28.0745 21.6094 28.0918 21.6047 28.1081H26.0547V26.0581C26.0547 25.9706 26.0894 25.8867 26.1513 25.8248C26.2132 25.7629 26.2971 25.7281 26.3847 25.7281C26.4722 25.7281 26.5561 25.7629 26.618 25.8248C26.6799 25.8867 26.7147 25.9706 26.7147 26.0581V28.0581H28.9147V25.8281C28.9707 25.101 28.7409 24.3806 28.274 23.8204C27.8071 23.2601 27.14 22.9041 26.4147 22.8281" fill="#A5CF4F"/>
<path d="M13.2393 13.418C13.2393 13.3305 13.2741 13.2466 13.3359 13.1847C13.3978 13.1228 13.4818 13.088 13.5693 13.088C13.6568 13.088 13.7408 13.1228 13.8026 13.1847C13.8645 13.2466 13.8993 13.3305 13.8993 13.418V15.418H18.3493V13.418C18.3493 13.3305 18.3841 13.2466 18.446 13.1847C18.5078 13.1228 18.5918 13.088 18.6793 13.088C18.7222 13.088 18.7646 13.0966 18.8041 13.1133C18.8436 13.13 18.8793 13.1545 18.9092 13.1853C18.939 13.2161 18.9624 13.2525 18.9779 13.2925C18.9934 13.3325 19.0006 13.3752 18.9993 13.418V15.418H21.1793V13.248C21.2378 12.5188 21.0075 11.7957 20.5381 11.2345C20.0686 10.6734 19.3975 10.3191 18.6693 10.248H13.5993C12.8777 10.3094 12.2085 10.6499 11.7341 11.1971C11.2597 11.7443 11.0176 12.455 11.0593 13.178V15.4081H13.2593L13.2393 13.418Z" fill="#A5CF4F"/>
</g>
</g>
<defs>
<clipPath id="clip0_1369_8041">
<rect width="25.51" height="24.25" fill="white" transform="translate(3.35938 3.84961)"/>
</clipPath>
</defs>
</svg>
