<svg width="33" height="33" viewBox="0 0 33 33" fill="none" xmlns="http://www.w3.org/2000/svg">
<mask id="mask0_1369_8061" style="mask-type:luminance" maskUnits="userSpaceOnUse" x="0" y="0" width="33" height="33">
<path d="M32.17 0H0V32.17H32.17V0Z" fill="white"/>
</mask>
<g mask="url(#mask0_1369_8061)">
</g>
<g clip-path="url(#clip0_1369_8061)">
<mask id="mask1_1369_8061" style="mask-type:luminance" maskUnits="userSpaceOnUse" x="0" y="-1" width="33" height="34">
<path d="M32.2012 -0.109375H0.03125V32.0606H32.2012V-0.109375Z" fill="white"/>
</mask>
<g mask="url(#mask1_1369_8061)">
<path d="M27.7122 27.5696C26.3222 28.9596 23.8122 29.1096 20.6522 27.9696C19.2873 27.4718 17.977 26.8351 16.7422 26.0696C18.6132 24.8227 20.3551 23.3923 21.9422 21.7996C23.5351 20.21 24.9686 18.4684 26.2222 16.5996C26.9817 17.8343 27.618 19.1405 28.1222 20.4996C29.2522 23.6596 29.1222 26.1696 27.7122 27.5696Z" fill="#A5CF4F"/>
<path d="M15.4914 5.87092C13.6239 7.12219 11.8854 8.5559 10.3014 10.1509C8.69235 11.7338 7.24827 13.4761 5.99139 15.3509C5.22983 14.1139 4.59335 12.8041 4.09138 11.4409C2.95138 8.28093 3.09139 5.77093 4.49139 4.38093C4.93825 3.98196 5.46042 3.67644 6.02717 3.48237C6.59391 3.2883 7.19376 3.20961 7.79139 3.25092C9.09118 3.28581 10.3758 3.53936 11.5914 4.00092C12.9513 4.50301 14.2578 5.13949 15.4914 5.90092" fill="#A5CF4F"/>
<path d="M15.4893 26.0696C14.2579 26.8349 12.951 27.4716 11.5893 27.9696C10.3755 28.4387 9.09018 28.6958 7.78933 28.7296C7.19458 28.7628 6.59916 28.6774 6.03775 28.4782C5.47635 28.2791 4.96018 27.9702 4.51933 27.5696C3.12933 26.1696 2.97933 23.6596 4.11933 20.4996C4.62346 19.1405 5.25985 17.8343 6.01933 16.5996C8.53288 20.3398 11.7491 23.5561 15.4893 26.0696Z" fill="#A5CF4F"/>
<path d="M28.1222 11.4403C27.6202 12.8035 26.9838 14.1133 26.2222 15.3503C23.7053 11.6067 20.4858 8.38718 16.7422 5.87032C17.9792 5.10876 19.289 4.47229 20.6522 3.97033C21.8646 3.50967 23.1457 3.25614 24.4422 3.22033C25.037 3.18597 25.6328 3.2709 26.1943 3.47011C26.7559 3.66932 27.272 3.97879 27.7122 4.38033C29.1122 5.77033 29.2522 8.28033 28.1222 11.4403Z" fill="#A5CF4F"/>
<path d="M21.6041 15.07C21.5375 15.3531 21.4402 15.628 21.3141 15.89C20.4219 17.5064 19.2188 18.9304 17.7741 20.08C17.4941 20.32 16.5441 21.03 16.1241 21.34C15.7041 21.03 14.7541 20.34 14.4741 20.08C13.0294 18.9276 11.8235 17.5044 10.9241 15.89C10.8013 15.6276 10.7074 15.3527 10.6441 15.07C10.5944 14.8359 10.5944 14.5941 10.6441 14.36C10.745 13.8495 11.0252 13.3919 11.4341 13.07C11.7431 12.8072 12.1044 12.6129 12.4941 12.5C13.1118 12.34 13.7627 12.3625 14.368 12.5648C14.9732 12.7671 15.5068 13.1406 15.9041 13.64C15.933 13.6786 15.9708 13.7097 16.0144 13.7306C16.0579 13.7515 16.1058 13.7616 16.1541 13.76C16.2021 13.76 16.2495 13.7493 16.2927 13.7285C16.336 13.7077 16.3741 13.6775 16.4041 13.64C16.8006 13.1396 17.3341 12.7654 17.9396 12.563C18.545 12.3606 19.1964 12.3387 19.8141 12.5C20.2023 12.6164 20.5629 12.8104 20.8741 13.07C21.2799 13.393 21.5566 13.8506 21.6541 14.36C21.6989 14.5945 21.6989 14.8355 21.6541 15.07M21.5241 10.63C19.8854 8.98168 18.0751 7.51332 16.1241 6.25C14.1877 7.50481 12.3938 8.96676 10.7741 10.61C9.13915 12.2337 7.67792 14.0233 6.41406 15.95C7.67515 17.8817 9.13658 19.675 10.7741 21.3C12.3965 22.9403 14.19 24.402 16.1241 25.66C19.9875 23.1174 23.2915 19.8134 25.8341 15.95C24.5702 14.0233 23.109 12.2337 21.4741 10.61" fill="#A5CF4F"/>
</g>
</g>
<defs>
<clipPath id="clip0_1369_8061">
<rect width="25.51" height="25.51" fill="white" transform="translate(3.35938 3.2207)"/>
</clipPath>
</defs>
</svg>
