<svg width="79" height="79" viewBox="0 0 79 79" fill="none" xmlns="http://www.w3.org/2000/svg">
<path d="M39.4919 79C44.6794 79.0021 49.8166 77.9822 54.6098 75.9985C59.4031 74.0148 63.7586 71.1062 67.4274 67.4388C71.0963 63.7714 74.0066 59.4172 75.9923 54.6247C77.978 49.8323 79 44.6956 79 39.5081C68.5246 39.5081 58.478 43.6683 51.0693 51.074C43.6606 58.4797 39.4962 68.5246 39.4919 79ZM2.99261e-05 39.4594C-0.00635937 44.6497 1.01041 49.7903 2.9922 54.5873C4.97399 59.3843 7.88194 63.7435 11.5497 67.4159C15.2175 71.0882 19.5733 74.0015 24.3678 75.9892C29.1624 77.9769 34.3017 79 39.4919 79C39.4919 68.5261 35.3312 58.4812 27.9251 51.075C20.5189 43.6689 10.4739 39.5081 2.99261e-05 39.5081M39.4919 39.5081C39.494 34.3206 38.4741 29.1834 36.4904 24.3902C34.5067 19.5969 31.5982 15.2415 27.9308 11.5727C24.2634 7.90378 19.9091 4.99337 15.1167 3.0077C10.3242 1.02203 5.18754 -4.36735e-07 2.99261e-05 0C2.90449e-05 10.4754 4.16026 20.522 11.566 27.9307C18.9717 35.3394 29.0165 39.5038 39.4919 39.5081ZM39.4919 39.5081C39.4919 29.0299 43.6544 18.9809 51.0636 11.5717C58.4728 4.16247 68.5218 0 79 0C79 10.4782 74.8376 20.5272 67.4284 27.9364C60.0192 35.3456 49.9701 39.5081 39.4919 39.5081Z" fill="#A5CF4F"/>
</svg>
