<svg width="16" height="12" viewBox="0 0 16 12" fill="none" xmlns="http://www.w3.org/2000/svg">
<path d="M2.36817 0.0073595C2.63855 0.020339 2.90106 0.100126 3.13088 0.239236C3.3607 0.378345 3.55024 0.572233 3.68157 0.802409L7.45648 8.59164H7.76091L11.5358 0.802409C11.6644 0.57183 11.8521 0.377388 12.0807 0.2381C12.3093 0.0988121 12.571 0.019351 12.8405 0.0073595H14.5801C14.6823 -0.00961113 14.7874 0.00292206 14.8824 0.0433903C14.9773 0.0838585 15.058 0.150531 15.1145 0.235106C15.1709 0.319681 15.2007 0.418402 15.2 0.519222C15.1993 0.620043 15.1683 0.718556 15.1107 0.802409L10.092 11.1543C9.96801 11.3944 9.78154 11.5989 9.55112 11.7473C9.3207 11.8956 9.05435 11.9828 8.77856 12H6.41271C6.13737 11.9811 5.87174 11.8933 5.64161 11.7451C5.41147 11.5969 5.22467 11.3934 5.09934 11.1543L0.0893055 0.802409C0.0317313 0.718556 0.000687195 0.620043 1.12746e-05 0.519222C-0.000664645 0.418402 0.0290646 0.319681 0.0855097 0.235106C0.141955 0.150531 0.22264 0.0838585 0.317611 0.0433903C0.412582 0.00292206 0.517657 -0.00961113 0.619868 0.0073595H2.36817Z" fill="#4E5F6D"/>
</svg>
