<svg width="17" height="22" viewBox="0 0 17 22" fill="none" xmlns="http://www.w3.org/2000/svg">
<path d="M17 3.28317V18.7168C17.0009 19.3261 16.8223 19.9232 16.485 20.439C16.1476 20.9548 15.6652 21.3682 15.0936 21.6313C14.4154 21.9393 13.6609 22.0579 12.916 21.9736C12.1711 21.8894 11.4658 21.6056 10.8804 21.1547L1.15777 13.4379C0.794356 13.135 0.502893 12.7606 0.303137 12.34C0.103381 11.9194 0 11.4624 0 11C0 10.5376 0.103381 10.0806 0.303137 9.66001C0.502893 9.23939 0.794356 8.86498 1.15777 8.56214L10.8804 0.845308C11.4658 0.394386 12.1711 0.110626 12.916 0.0263653C13.6609 -0.0578938 14.4154 0.0607376 15.0936 0.368738C15.6652 0.631847 16.1476 1.04521 16.485 1.56099C16.8223 2.07677 17.0009 2.67387 17 3.28317Z" fill="#A4CE4E"/>
</svg>
