<svg width="50" height="47" viewBox="0 0 50 47" fill="none" xmlns="http://www.w3.org/2000/svg">
<g clip-path="url(#clip0_1060_5407)">
<path d="M8.55469 22.2461L24.1756 39.6546L18.1756 22.2461H8.55469Z" fill="#A5CF4F"/>
<mask id="mask0_1060_5407" style="mask-type:luminance" maskUnits="userSpaceOnUse" x="7" y="4" width="36" height="39">
<path d="M43 4.5H7V42.5H43V4.5Z" fill="white"/>
</mask>
<g mask="url(#mask0_1060_5407)">
<path d="M8.55469 22.2461L24.1756 39.6546L18.1756 22.2461H8.55469Z" stroke="white" stroke-miterlimit="10"/>
</g>
<path d="M19.6934 22.2461L25.0005 37.589L30.3077 22.2461H19.6934Z" fill="#A5CF4F"/>
<path d="M19.6934 22.2461L25.0005 37.589L30.3077 22.2461H19.6934Z" stroke="white" stroke-miterlimit="10"/>
<path d="M31.8373 22.2461L25.8242 39.6546L41.4451 22.2461H31.8373Z" fill="#A5CF4F"/>
<mask id="mask1_1060_5407" style="mask-type:luminance" maskUnits="userSpaceOnUse" x="7" y="4" width="36" height="39">
<path d="M43 4.5H7V42.5H43V4.5Z" fill="white"/>
</mask>
<g mask="url(#mask1_1060_5407)">
<path d="M31.8373 22.248L25.8242 39.6566L41.4451 22.248H31.8373Z" stroke="white" stroke-miterlimit="10"/>
<path d="M24.9359 10.438C25.1266 10.438 25.3094 10.3627 25.4442 10.2287C25.5791 10.0947 25.6548 9.91295 25.6548 9.72344V5.826C25.6548 5.6365 25.5791 5.45475 25.4442 5.32075C25.3094 5.18675 25.1266 5.11145 24.9359 5.11145C24.841 5.10969 24.7467 5.12699 24.6586 5.16228C24.5706 5.19756 24.4907 5.25012 24.4236 5.31682C24.3564 5.38353 24.3035 5.46301 24.268 5.5505C24.2325 5.63799 24.2151 5.73169 24.2169 5.826V9.72344C24.2169 9.91295 24.2927 10.0947 24.4275 10.2287C24.5623 10.3627 24.7452 10.438 24.9359 10.438Z" fill="#A5CF4F"/>
<path d="M24.9359 10.438C25.1266 10.438 25.3094 10.3627 25.4442 10.2287C25.5791 10.0947 25.6548 9.91295 25.6548 9.72344V5.826C25.6548 5.6365 25.5791 5.45475 25.4442 5.32075C25.3094 5.18675 25.1266 5.11145 24.9359 5.11145C24.841 5.10969 24.7467 5.12699 24.6586 5.16228C24.5706 5.19756 24.4907 5.25012 24.4236 5.31682C24.3564 5.38353 24.3035 5.46301 24.268 5.5505C24.2325 5.63799 24.2151 5.73169 24.2169 5.826V9.72344C24.2169 9.91295 24.2927 10.0947 24.4275 10.2287C24.5623 10.3627 24.7452 10.438 24.9359 10.438Z" stroke="white" stroke-miterlimit="10"/>
<path d="M31.9689 11.36C32.1336 11.4543 32.3293 11.48 32.5131 11.4313C32.6968 11.3826 32.8536 11.2635 32.9493 11.1002L34.897 7.76135C34.9593 7.68994 35.0067 7.60694 35.0365 7.51717C35.0664 7.4274 35.078 7.33266 35.0707 7.23841C35.0634 7.14416 35.0373 7.05228 34.9941 6.9681C34.9508 6.88392 34.8911 6.80913 34.8186 6.74802C34.6704 6.62774 34.4807 6.5699 34.2901 6.5869C34.0995 6.6039 33.9232 6.69439 33.799 6.83897C33.7448 6.89879 33.7046 6.96978 33.6813 7.04684L31.6944 10.3856C31.6479 10.4675 31.6181 10.5577 31.6068 10.651C31.5954 10.7443 31.6027 10.8389 31.6282 10.9294C31.6537 11.0199 31.6969 11.1045 31.7554 11.1784C31.8138 11.2523 31.8864 11.314 31.9689 11.36Z" fill="#A5CF4F"/>
<path d="M31.9689 11.36C32.1336 11.4543 32.3293 11.48 32.5131 11.4313C32.6968 11.3826 32.8536 11.2635 32.9493 11.1002L34.897 7.76135C34.9593 7.68994 35.0067 7.60694 35.0365 7.51717C35.0664 7.4274 35.078 7.33266 35.0707 7.23841C35.0634 7.14416 35.0373 7.05228 34.9941 6.9681C34.9508 6.88392 34.8911 6.80913 34.8186 6.74802C34.6704 6.62774 34.4807 6.5699 34.2901 6.5869C34.0995 6.6039 33.9232 6.69439 33.799 6.83897C33.7448 6.89879 33.7046 6.96978 33.6813 7.04684L31.6944 10.3856C31.6479 10.4675 31.6181 10.5577 31.6068 10.651C31.5954 10.7443 31.6027 10.8389 31.6282 10.9294C31.6537 11.0199 31.6969 11.1045 31.7554 11.1784C31.8138 11.2523 31.8864 11.314 31.9689 11.36Z" stroke="white" stroke-miterlimit="10"/>
<path d="M16.9093 11.1009C17 11.2318 17.132 11.329 17.2845 11.377C17.4369 11.425 17.6011 11.4211 17.7511 11.3659C17.9011 11.3108 18.0283 11.2075 18.1126 11.0724C18.1969 10.9374 18.2335 10.7782 18.2165 10.6202C18.1783 10.5367 18.1301 10.4582 18.0728 10.3863L16.1512 7.04754C16.1203 6.9588 16.0722 6.87696 16.0095 6.80673C15.9468 6.73649 15.8708 6.67921 15.7858 6.63819C15.7008 6.59717 15.6085 6.57321 15.5142 6.56766C15.4199 6.5621 15.3254 6.57508 15.2361 6.60584C15.0582 6.67037 14.9131 6.80209 14.8323 6.97237C14.7515 7.14266 14.7416 7.33772 14.8048 7.51522C14.8322 7.60104 14.8767 7.68054 14.9355 7.74905L16.9093 11.1009Z" fill="#A5CF4F"/>
<path d="M16.9093 11.1009C17 11.2318 17.132 11.329 17.2845 11.377C17.4369 11.425 17.6011 11.4211 17.7511 11.3659C17.9011 11.3108 18.0283 11.2075 18.1126 11.0724C18.1969 10.9374 18.2335 10.7782 18.2165 10.6202C18.1783 10.5367 18.1301 10.4582 18.0728 10.3863L16.1512 7.04754C16.1203 6.9588 16.0722 6.87696 16.0095 6.80673C15.9468 6.73649 15.8708 6.67921 15.7858 6.63819C15.7008 6.59717 15.6085 6.57321 15.5142 6.56766C15.4199 6.5621 15.3254 6.57508 15.2361 6.60584C15.0582 6.67037 14.9131 6.80209 14.8323 6.97237C14.7515 7.14266 14.7416 7.33772 14.8048 7.51522C14.8322 7.60104 14.8767 7.68054 14.9355 7.74905L16.9093 11.1009Z" stroke="white" stroke-miterlimit="10"/>
</g>
<path d="M15.1573 15.0879L8.71289 20.8171H17.6018L15.1573 15.0879Z" fill="#A5CF4F"/>
<mask id="mask2_1060_5407" style="mask-type:luminance" maskUnits="userSpaceOnUse" x="7" y="4" width="36" height="39">
<path d="M43 4.5H7V42.5H43V4.5Z" fill="white"/>
</mask>
<g mask="url(#mask2_1060_5407)">
<path d="M15.1573 15.0879L8.71289 20.8171H17.6018L15.1573 15.0879Z" stroke="white" stroke-miterlimit="10"/>
</g>
<path d="M33.4962 14.582H25.9668L31.091 20.2203L33.4962 14.582Z" fill="#A5CF4F"/>
<path d="M33.4962 14.582H25.9668L31.091 20.2203L33.4962 14.582Z" stroke="white" stroke-miterlimit="10"/>
<path d="M32.3984 20.8171H41.2873L34.8429 15.0879L32.3984 20.8171Z" fill="#A5CF4F"/>
<mask id="mask3_1060_5407" style="mask-type:luminance" maskUnits="userSpaceOnUse" x="7" y="4" width="36" height="39">
<path d="M43 4.5H7V42.5H43V4.5Z" fill="white"/>
</mask>
<g mask="url(#mask3_1060_5407)">
<path d="M32.3984 20.8171H41.2873L34.8429 15.0879L32.3984 20.8171Z" stroke="white" stroke-miterlimit="10"/>
</g>
<path d="M18.9091 20.2203L24.0333 14.582H16.5039L18.9091 20.2203Z" fill="#A5CF4F"/>
<path d="M18.9091 20.2203L24.0333 14.582H16.5039L18.9091 20.2203Z" stroke="white" stroke-miterlimit="10"/>
<path d="M20.3066 20.8301H29.6923L24.9995 15.6465L20.3066 20.8301Z" fill="#A5CF4F"/>
<path d="M20.3066 20.8301H29.6923L24.9995 15.6465L20.3066 20.8301Z" stroke="white" stroke-miterlimit="10"/>
</g>
<defs>
<clipPath id="clip0_1060_5407">
<rect width="36" height="38" fill="white" transform="translate(7 4.5)"/>
</clipPath>
</defs>
</svg>
