<svg width="50" height="47" viewBox="0 0 50 47" fill="none" xmlns="http://www.w3.org/2000/svg">
<g clip-path="url(#clip0_1060_5338)">
<mask id="mask0_1060_5338" style="mask-type:luminance" maskUnits="userSpaceOnUse" x="9" y="4" width="32" height="39">
<path d="M40.5 4.5H9.5V42.5H40.5V4.5Z" fill="white"/>
</mask>
<g mask="url(#mask0_1060_5338)">
<path d="M19.8517 23.5767C19.9502 23.2698 20.1223 22.991 20.3533 22.7641L21.8859 21.249C21.0561 21.1055 20.2917 20.7109 19.6985 20.1196C19.1349 19.5409 18.7541 18.8123 18.6029 18.023C18.4516 17.2336 18.5364 16.4178 18.8469 15.6754C19.1574 14.933 19.68 14.2962 20.3509 13.8428C21.0218 13.3895 21.8118 13.1393 22.6243 13.1229C23.1954 13.1212 23.7608 13.2352 24.2856 13.4578C24.8104 13.6805 25.2834 14.0071 25.6756 14.4176C26.2094 14.9928 26.5712 15.7032 26.7205 16.4697L28.2392 14.9547C28.4701 14.7381 28.7458 14.5737 29.0472 14.4727L26.7762 12.2414C26.6035 12.064 26.5084 11.8265 26.5115 11.5803C26.5103 11.4605 26.5331 11.3416 26.5785 11.2305C26.6239 11.1194 26.6911 11.0183 26.7762 10.933C27.2784 11.082 27.8117 11.0968 28.3216 10.9759C28.8315 10.855 29.2999 10.6027 29.6791 10.2447C30.0583 9.88667 30.3347 9.43572 30.4803 8.93774C30.6259 8.43976 30.6354 7.91254 30.5079 7.40974C30.3804 6.90694 30.1204 6.44649 29.7544 6.07531C29.3884 5.70413 28.9294 5.43545 28.4242 5.29662C27.919 5.15779 27.3856 5.15378 26.8783 5.28498C26.371 5.41617 25.9079 5.67787 25.5362 6.04349C25.1458 6.41752 24.8746 6.89628 24.756 7.4208C24.6166 7.92109 24.6166 8.44935 24.756 8.94964C24.6705 9.03542 24.5685 9.10355 24.4561 9.15004C24.3437 9.19654 24.223 9.22045 24.1012 9.22045C23.9793 9.22045 23.8587 9.19654 23.7463 9.15004C23.6339 9.10355 23.5319 9.03542 23.4463 8.94964L21.1335 6.70461C21.048 6.61883 20.946 6.5507 20.8336 6.5042C20.7212 6.45771 20.6006 6.43376 20.4787 6.43376C20.3568 6.43376 20.2362 6.45771 20.1238 6.5042C20.0114 6.5507 19.9094 6.61883 19.8239 6.70461L11.938 14.5002C11.8512 14.5848 11.7823 14.6856 11.7353 14.7967C11.6882 14.9078 11.6641 15.0271 11.6641 15.1475C11.6641 15.268 11.6882 15.3872 11.7353 15.4984C11.7823 15.6095 11.8512 15.7103 11.938 15.7949L19.8517 23.5767Z" fill="#A5CF4F"/>
<path d="M19.8517 23.5767C19.9502 23.2698 20.1223 22.991 20.3533 22.7641L21.8859 21.249C21.0561 21.1055 20.2917 20.7109 19.6985 20.1196C19.1349 19.5409 18.7541 18.8123 18.6029 18.023C18.4516 17.2336 18.5364 16.4178 18.8469 15.6754C19.1574 14.933 19.68 14.2962 20.3509 13.8428C21.0218 13.3895 21.8118 13.1393 22.6243 13.1229C23.1954 13.1212 23.7608 13.2352 24.2856 13.4578C24.8104 13.6805 25.2834 14.0071 25.6756 14.4176C26.2094 14.9928 26.5712 15.7032 26.7205 16.4697L28.2392 14.9547C28.4701 14.7381 28.7458 14.5737 29.0472 14.4727L26.7762 12.2414C26.6035 12.064 26.5084 11.8265 26.5115 11.5803C26.5103 11.4605 26.5331 11.3416 26.5785 11.2305C26.6239 11.1194 26.6911 11.0183 26.7762 10.933C27.2784 11.082 27.8117 11.0968 28.3216 10.9759C28.8315 10.855 29.2999 10.6027 29.6791 10.2447C30.0583 9.88667 30.3347 9.43572 30.4803 8.93774C30.6259 8.43976 30.6354 7.91254 30.5079 7.40974C30.3804 6.90694 30.1204 6.44649 29.7544 6.07531C29.3884 5.70413 28.9294 5.43545 28.4242 5.29662C27.919 5.15779 27.3856 5.15378 26.8783 5.28498C26.371 5.41617 25.9079 5.67787 25.5362 6.04349C25.1458 6.41752 24.8746 6.89628 24.756 7.4208C24.6166 7.92109 24.6166 8.44935 24.756 8.94964C24.6705 9.03542 24.5685 9.10355 24.4561 9.15004C24.3437 9.19654 24.223 9.22045 24.1012 9.22045C23.9793 9.22045 23.8587 9.19654 23.7463 9.15004C23.6339 9.10355 23.5319 9.03542 23.4463 8.94964L21.1335 6.70461C21.048 6.61883 20.946 6.5507 20.8336 6.5042C20.7212 6.45771 20.6006 6.43376 20.4787 6.43376C20.3568 6.43376 20.2362 6.45771 20.1238 6.5042C20.0114 6.5507 19.9094 6.61883 19.8239 6.70461L11.938 14.5002C11.8512 14.5848 11.7823 14.6856 11.7353 14.7967C11.6882 14.9078 11.6641 15.0271 11.6641 15.1475C11.6641 15.268 11.6882 15.3872 11.7353 15.4984C11.7823 15.6095 11.8512 15.7103 11.938 15.7949L19.8517 23.5767Z" stroke="white" stroke-miterlimit="10"/>
<path d="M26.5121 30.1736C26.4253 30.089 26.3565 29.9882 26.3094 29.8771C26.2624 29.766 26.2382 29.6467 26.2382 29.5263C26.2382 29.4058 26.2624 29.2865 26.3094 29.1754C26.3565 29.0642 26.4253 28.9635 26.5121 28.8789C27.1427 29.0626 27.8172 29.0331 28.4289 28.7951C29.0406 28.5571 29.5545 28.1242 29.8892 27.5649C30.2239 27.0056 30.3603 26.3519 30.2769 25.7073C30.1934 25.0627 29.8948 24.4641 29.4283 24.0062C28.9619 23.5483 28.3542 23.2573 27.7016 23.1793C27.049 23.1013 26.3887 23.2407 25.8253 23.5756C25.2619 23.9104 24.8276 24.4214 24.5911 25.0278C24.3546 25.6341 24.3295 26.3011 24.5198 26.9231C24.4342 27.0089 24.3323 27.077 24.2199 27.1235C24.1075 27.17 23.9868 27.194 23.8649 27.194C23.7431 27.194 23.6224 27.17 23.51 27.1235C23.3976 27.077 23.2957 27.0089 23.2101 26.9231L20.9252 24.6506C20.7489 24.4839 20.5143 24.3909 20.2703 24.3909C20.0264 24.3909 19.7918 24.4839 19.6155 24.6506L17.3166 26.9231C17.2311 27.0089 17.1291 27.077 17.0167 27.1235C16.9043 27.17 16.7837 27.194 16.6618 27.194C16.54 27.194 16.4193 27.17 16.3069 27.1235C16.1944 27.077 16.0925 27.0089 16.007 26.9231C16.1551 26.4336 16.1713 25.9143 16.054 25.4166C15.9367 24.919 15.69 24.4603 15.3382 24.0859C14.7918 23.5356 14.0506 23.2166 13.2708 23.196C12.4911 23.1754 11.7337 23.455 11.1584 23.9757C10.679 24.4332 10.3693 25.0369 10.2792 25.6896C10.1891 26.3423 10.3238 27.006 10.6617 27.5737C10.9995 28.1415 11.5209 28.5804 12.1417 28.8196C12.7626 29.0589 13.4468 29.0846 14.0843 28.8927C14.1711 28.9772 14.24 29.078 14.287 29.1892C14.334 29.3003 14.3583 29.4195 14.3583 29.54C14.3583 29.6605 14.334 29.7798 14.287 29.8909C14.24 30.002 14.1711 30.1028 14.0843 30.1873L11.7854 32.4599C11.6986 32.5445 11.6297 32.6453 11.5827 32.7564C11.5356 32.8675 11.5114 32.9868 11.5114 33.1073C11.5114 33.2277 11.5356 33.347 11.5827 33.4581C11.6297 33.5692 11.6986 33.67 11.7854 33.7546L19.6713 41.5502C19.7568 41.6359 19.8587 41.7041 19.9711 41.7506C20.0836 41.7971 20.2042 41.821 20.3261 41.821C20.4479 41.821 20.5686 41.7971 20.681 41.7506C20.7934 41.7041 20.8954 41.6359 20.9809 41.5502L28.8667 33.7546C28.9535 33.67 29.0224 33.5692 29.0695 33.4581C29.1165 33.347 29.1407 33.2277 29.1407 33.1073C29.1407 32.9868 29.1165 32.8675 29.0695 32.7564C29.0224 32.6453 28.9535 32.5445 28.8667 32.4599L26.5121 30.1736Z" fill="#A5CF4F"/>
<path d="M26.5121 30.1736C26.4253 30.089 26.3565 29.9882 26.3094 29.8771C26.2624 29.766 26.2382 29.6467 26.2382 29.5263C26.2382 29.4058 26.2624 29.2865 26.3094 29.1754C26.3565 29.0642 26.4253 28.9635 26.5121 28.8789C27.1427 29.0626 27.8172 29.0331 28.4289 28.7951C29.0406 28.5571 29.5545 28.1242 29.8892 27.5649C30.2239 27.0056 30.3603 26.3519 30.2769 25.7073C30.1934 25.0627 29.8948 24.4641 29.4283 24.0062C28.9619 23.5483 28.3542 23.2573 27.7016 23.1793C27.049 23.1013 26.3887 23.2407 25.8253 23.5756C25.2619 23.9104 24.8276 24.4214 24.5911 25.0278C24.3546 25.6341 24.3295 26.3011 24.5198 26.9231C24.4342 27.0089 24.3323 27.077 24.2199 27.1235C24.1075 27.17 23.9868 27.194 23.8649 27.194C23.7431 27.194 23.6224 27.17 23.51 27.1235C23.3976 27.077 23.2957 27.0089 23.2101 26.9231L20.9252 24.6506C20.7489 24.4839 20.5143 24.3909 20.2703 24.3909C20.0264 24.3909 19.7918 24.4839 19.6155 24.6506L17.3166 26.9231C17.2311 27.0089 17.1291 27.077 17.0167 27.1235C16.9043 27.17 16.7837 27.194 16.6618 27.194C16.54 27.194 16.4193 27.17 16.3069 27.1235C16.1944 27.077 16.0925 27.0089 16.007 26.9231C16.1551 26.4336 16.1713 25.9143 16.054 25.4166C15.9367 24.919 15.69 24.4603 15.3382 24.0859C14.7918 23.5356 14.0506 23.2166 13.2708 23.196C12.4911 23.1754 11.7337 23.455 11.1584 23.9757C10.679 24.4332 10.3693 25.0369 10.2792 25.6896C10.1891 26.3423 10.3238 27.006 10.6617 27.5737C10.9995 28.1415 11.5209 28.5804 12.1417 28.8196C12.7626 29.0589 13.4468 29.0846 14.0843 28.8927C14.1711 28.9772 14.24 29.078 14.287 29.1892C14.334 29.3003 14.3583 29.4195 14.3583 29.54C14.3583 29.6605 14.334 29.7798 14.287 29.8909C14.24 30.002 14.1711 30.1028 14.0843 30.1873L11.7854 32.4599C11.6986 32.5445 11.6297 32.6453 11.5827 32.7564C11.5356 32.8675 11.5114 32.9868 11.5114 33.1073C11.5114 33.2277 11.5356 33.347 11.5827 33.4581C11.6297 33.5692 11.6986 33.67 11.7854 33.7546L19.6713 41.5502C19.7568 41.6359 19.8587 41.7041 19.9711 41.7506C20.0836 41.7971 20.2042 41.821 20.3261 41.821C20.4479 41.821 20.5686 41.7971 20.681 41.7506C20.7934 41.7041 20.8954 41.6359 20.9809 41.5502L28.8667 33.7546C28.9535 33.67 29.0224 33.5692 29.0695 33.4581C29.1165 33.347 29.1407 33.2277 29.1407 33.1073C29.1407 32.9868 29.1165 32.8675 29.0695 32.7564C29.0224 32.6453 28.9535 32.5445 28.8667 32.4599L26.5121 30.1736Z" stroke="white" stroke-miterlimit="10"/>
<path d="M38.9398 19.2928C39.3123 18.9264 39.5797 18.4688 39.7148 17.9668C39.8498 17.4648 39.8475 16.9363 39.7082 16.4354C39.569 15.9345 39.2977 15.4792 38.922 15.1159C38.5464 14.7526 38.08 14.4945 37.5704 14.3679C37.0607 14.2412 36.5262 14.2505 36.0215 14.395C35.5167 14.5395 35.0598 14.8138 34.6975 15.19C34.3351 15.5663 34.0803 16.0308 33.9591 16.5363C33.8379 17.0417 33.8547 17.57 34.0076 18.0669C33.9221 18.1527 33.8201 18.2208 33.7077 18.2673C33.5953 18.3138 33.4746 18.3378 33.3528 18.3378C33.2309 18.3378 33.1103 18.3138 32.9979 18.2673C32.8855 18.2208 32.7835 18.1527 32.6979 18.0669L30.3991 15.7944C30.3135 15.7086 30.2116 15.6405 30.0992 15.594C29.9868 15.5475 29.8661 15.5235 29.7442 15.5235C29.6224 15.5235 29.5018 15.5475 29.3893 15.594C29.2769 15.6405 29.175 15.7086 29.0894 15.7944L26.8045 18.0669C26.6275 18.2377 26.39 18.3333 26.1427 18.3333C25.8954 18.3333 25.6579 18.2377 25.4809 18.0669C25.6366 17.5791 25.658 17.0591 25.5429 16.5605C25.4278 16.0618 25.1803 15.6024 24.826 15.2297C24.2815 14.6775 23.5413 14.356 22.7615 14.3328C21.9817 14.3097 21.2234 14.5868 20.6463 15.1057C20.1701 15.5629 19.8627 16.1647 19.7732 16.8149C19.6837 17.4651 19.8173 18.1262 20.1527 18.6925C20.488 19.2588 21.0058 19.6976 21.6231 19.9387C22.2405 20.1799 22.9218 20.2095 23.5582 20.0227C23.645 20.1073 23.7139 20.2081 23.7609 20.3192C23.8079 20.4303 23.8322 20.5496 23.8322 20.6701C23.8322 20.7905 23.8079 20.9098 23.7609 21.0209C23.7139 21.132 23.645 21.2328 23.5582 21.3174L21.3708 23.4935C21.5381 23.5832 21.6927 23.6944 21.8305 23.8241L23.3492 25.3391C23.5301 24.398 24.0361 23.5483 24.7808 22.9352C25.5254 22.3222 26.4624 21.984 27.4314 21.9785C28.248 21.9766 29.0472 22.2113 29.7303 22.6534C30.2411 22.9925 30.6697 23.4389 30.9858 23.9608C31.3018 24.4826 31.4974 25.067 31.5586 25.6722C31.6198 26.2773 31.5451 26.8884 31.3399 27.4618C31.1346 28.0351 30.8039 28.5566 30.3712 28.989C29.7737 29.5745 29.0113 29.9682 28.1838 30.1184L29.7164 31.6335C30.0433 31.9501 30.2499 32.3684 30.3015 32.8179L30.4688 32.7078L38.3407 24.8846C38.4274 24.8001 38.4964 24.6993 38.5434 24.5881C38.5904 24.477 38.6146 24.3578 38.6146 24.2373C38.6146 24.1168 38.5904 23.9975 38.5434 23.8864C38.4964 23.7753 38.4274 23.6745 38.3407 23.59L36.0418 21.3174C35.955 21.2328 35.8861 21.132 35.8391 21.0209C35.792 20.9098 35.7678 20.7905 35.7678 20.6701C35.7678 20.5496 35.792 20.4303 35.8391 20.3192C35.8861 20.2081 35.955 20.1073 36.0418 20.0227C36.5549 20.1761 37.1005 20.1893 37.6206 20.0607C38.1406 19.9322 38.6158 19.6668 38.9955 19.2928" fill="#A5CF4F"/>
<path d="M38.9398 19.2928C39.3123 18.9264 39.5797 18.4688 39.7148 17.9668C39.8498 17.4647 39.8475 16.9363 39.7082 16.4354C39.569 15.9345 39.2977 15.4792 38.922 15.1159C38.5464 14.7526 38.08 14.4945 37.5704 14.3679C37.0607 14.2412 36.5262 14.2505 36.0215 14.395C35.5167 14.5395 35.0598 14.8138 34.6975 15.19C34.3351 15.5663 34.0803 16.0308 33.9591 16.5363C33.8379 17.0417 33.8547 17.57 34.0076 18.0669C33.9221 18.1527 33.8201 18.2208 33.7077 18.2673C33.5953 18.3138 33.4746 18.3378 33.3528 18.3378C33.2309 18.3378 33.1103 18.3138 32.9979 18.2673C32.8855 18.2208 32.7835 18.1527 32.6979 18.0669L30.3991 15.7944C30.3135 15.7086 30.2116 15.6405 30.0992 15.594C29.9868 15.5475 29.8661 15.5235 29.7442 15.5235C29.6224 15.5235 29.5018 15.5475 29.3893 15.594C29.2769 15.6405 29.175 15.7086 29.0894 15.7944L26.8045 18.0669C26.6275 18.2377 26.39 18.3333 26.1427 18.3333C25.8954 18.3333 25.6579 18.2377 25.4809 18.0669C25.6366 17.5791 25.658 17.0591 25.5429 16.5605C25.4278 16.0618 25.1803 15.6024 24.826 15.2297C24.2815 14.6775 23.5413 14.356 22.7615 14.3328C21.9817 14.3097 21.2234 14.5868 20.6463 15.1057C20.1701 15.5629 19.8627 16.1647 19.7732 16.8149C19.6837 17.4651 19.8173 18.1262 20.1527 18.6925C20.488 19.2588 21.0058 19.6976 21.6231 19.9387C22.2405 20.1799 22.9218 20.2095 23.5582 20.0227C23.645 20.1073 23.7139 20.2081 23.7609 20.3192C23.8079 20.4303 23.8322 20.5496 23.8322 20.6701C23.8322 20.7905 23.8079 20.9098 23.7609 21.0209C23.7139 21.132 23.645 21.2328 23.5582 21.3174L21.3708 23.4935C21.5381 23.5832 21.6927 23.6944 21.8305 23.8241L23.3492 25.3391C23.5301 24.398 24.0361 23.5483 24.7808 22.9352C25.5254 22.3222 26.4624 21.984 27.4314 21.9785C28.248 21.9766 29.0472 22.2113 29.7303 22.6534C30.2411 22.9925 30.6697 23.4389 30.9858 23.9608C31.3018 24.4826 31.4974 25.067 31.5586 25.6722C31.6198 26.2773 31.5451 26.8884 31.3399 27.4618C31.1346 28.0351 30.8039 28.5566 30.3712 28.989C29.7737 29.5745 29.0113 29.9682 28.1838 30.1184L29.7164 31.6335C30.0433 31.9501 30.2499 32.3684 30.3015 32.8179L30.4688 32.7078L38.3407 24.8846C38.4274 24.8001 38.4964 24.6993 38.5434 24.5881C38.5904 24.477 38.6146 24.3578 38.6146 24.2373C38.6146 24.1168 38.5904 23.9975 38.5434 23.8864C38.4964 23.7753 38.4274 23.6745 38.3407 23.59L36.0418 21.3174C35.955 21.2328 35.8861 21.132 35.8391 21.0209C35.792 20.9098 35.7678 20.7905 35.7678 20.6701C35.7678 20.5496 35.792 20.4303 35.8391 20.3192C35.8861 20.2081 35.955 20.1073 36.0418 20.0227C36.547 20.1656 37.0814 20.1732 37.5906 20.045C38.0998 19.9167 38.5653 19.6572 38.9398 19.2928Z" stroke="white" stroke-miterlimit="10"/>
</g>
</g>
<defs>
<clipPath id="clip0_1060_5338">
<rect width="31" height="38" fill="white" transform="translate(9.5 4.5)"/>
</clipPath>
</defs>
</svg>
