<svg xmlns="http://www.w3.org/2000/svg" version="1.1" xmlns:xlink="http://www.w3.org/1999/xlink" width="1000" height="1000"><metadata><rdf:RDF xmlns:rdf="http://www.w3.org/1999/02/22-rdf-syntax-ns#" xmlns:dc="http://purl.org/dc/elements/1.1/"><rdf:Description><dc:creator>RealFaviconGenerator</dc:creator><dc:source>https://realfavicongenerator.net</dc:source></rdf:Description></rdf:RDF></metadata><g clip-path="url(#SvgjsClipPath1045)"><rect width="1000" height="1000" fill="#ffffff"></rect><g transform="matrix(2.557544757033248,0,0,2.557544757033248,0,287.7237851662404)"><svg xmlns="http://www.w3.org/2000/svg" width="391" height="166" viewBox="0 0 391 166" fill="none"><mask id="mask0_56_808" style="mask-type:luminance" maskUnits="userSpaceOnUse" x="51" y="21" width="289" height="124">
<path d="M339.827 21.9121H51.604V144.278H339.827V21.9121Z" fill="white"></path>
</mask><g mask="url(#mask0_56_808)">
<path d="M292.027 78.4506C292.863 78.4093 293.675 78.1553 294.386 77.7124C295.096 77.2696 295.682 76.6524 296.089 75.9196L307.763 51.1235H308.704L320.378 75.9196C320.776 76.6537 321.357 77.2726 322.064 77.7161C322.77 78.1595 323.58 78.4124 324.413 78.4506H329.793C330.109 78.5046 330.434 78.4647 330.728 78.3359C331.022 78.2071 331.271 77.9948 331.446 77.7256C331.62 77.4563 331.712 77.1421 331.71 76.8211C331.708 76.5002 331.612 76.1866 331.434 75.9196L315.913 42.9658C315.53 42.2012 314.953 41.5503 314.241 41.078C313.528 40.6056 312.704 40.3283 311.851 40.2734H304.535C303.683 40.3335 302.862 40.6131 302.15 41.0849C301.438 41.5566 300.861 42.2045 300.473 42.9658L284.979 75.9196C284.801 76.1866 284.705 76.5002 284.703 76.8211C284.701 77.1421 284.793 77.4563 284.968 77.7256C285.142 77.9948 285.392 78.2071 285.685 78.3359C285.979 78.4647 286.304 78.5046 286.62 78.4506H292.027Z" fill="#A5CF4F"></path>
<path d="M201.082 34.1081H206.596C207.052 34.1355 207.508 34.0658 207.935 33.9036C208.362 33.7415 208.75 33.4906 209.073 33.1675C209.396 32.8443 209.646 32.4563 209.808 32.029C209.97 31.6017 210.04 31.145 210.012 30.6888V25.3041C210.036 24.8442 209.962 24.3843 209.796 23.955C209.629 23.5257 209.373 23.1367 209.045 22.8136C208.717 22.4905 208.325 22.2408 207.893 22.0807C207.462 21.9206 207.001 21.8538 206.542 21.8849H201.028C200.574 21.8613 200.121 21.9339 199.697 22.0978C199.274 22.2617 198.889 22.5132 198.569 22.836C198.25 23.1587 198.001 23.5452 197.841 23.9705C197.68 24.3958 197.612 24.8503 197.639 25.3041V30.6888C197.611 31.1474 197.681 31.6066 197.845 32.0359C198.008 32.4652 198.261 32.8547 198.587 33.1783C198.913 33.5019 199.304 33.7522 199.734 33.9125C200.165 34.0728 200.624 34.1395 201.082 34.1081Z" fill="#4E5F6E"></path>
<path d="M104.245 26.2734H99.0805C98.3671 26.2734 97.683 26.557 97.1785 27.0619C96.6741 27.5668 96.3906 28.2517 96.3906 28.9658V75.1659C96.3906 80.5506 94.9919 87.2005 88.3209 87.2005H81.5424V51.2312C81.5424 50.5172 81.259 49.8323 80.7545 49.3274C80.2501 48.8225 79.5659 48.5389 78.8525 48.5389H73.6879C72.9745 48.5389 72.2903 48.8225 71.7859 49.3274C71.2814 49.8323 70.998 50.5172 70.998 51.2312V87.2005H57.5485C56.7151 87.2387 55.9057 87.4916 55.1988 87.935C54.4918 88.3785 53.9114 88.9971 53.5136 89.7311L51.8459 93.2582C51.6217 93.5275 51.488 93.8607 51.4635 94.2103C51.4391 94.56 51.5253 94.9086 51.7098 95.2065C51.8943 95.5044 52.1678 95.7364 52.4916 95.87C52.8154 96.0036 53.173 96.0318 53.5136 95.9505H88.2134C102.066 95.9505 107.043 85.1812 107.043 75.3004V28.9658C107.043 28.2517 106.759 27.5668 106.255 27.0619C105.75 26.557 105.066 26.2734 104.353 26.2734" fill="#4E5F6E"></path>
<path d="M339.585 93.2043L337.917 89.6776C337.542 88.9116 336.972 88.2588 336.263 87.7858C335.554 87.3129 334.732 87.0366 333.882 86.9853H278.255V77.8583C278.255 77.1442 277.971 76.4593 277.467 75.9544C276.962 75.4495 276.278 75.166 275.565 75.166H270.4C269.687 75.166 269.003 75.4495 268.498 75.9544C267.994 76.4593 267.71 77.1442 267.71 77.8583V86.9853H256.251C249.554 86.9853 248.182 80.4427 248.182 74.9504V28.9658C248.182 28.2517 247.898 27.5668 247.394 27.0619C246.889 26.557 246.205 26.2734 245.492 26.2734H240.247C239.533 26.2734 238.849 26.557 238.345 27.0619C237.84 27.5668 237.557 28.2517 237.557 28.9658V75.166C237.557 85.1544 242.479 95.8158 256.386 95.8158H338.186C338.502 95.8698 338.827 95.8299 339.121 95.7011C339.414 95.5723 339.664 95.3604 339.838 95.0911C340.013 94.8219 340.105 94.5073 340.103 94.1863C340.101 93.8654 340.005 93.5521 339.827 93.2852" fill="#4E5F6E"></path>
<path d="M214.531 74.735C214.531 83.7812 211.841 87.0122 203.772 87.0122C195.702 87.0122 193.012 83.7812 193.012 74.735V61.2735C193.012 52.2273 195.917 48.8619 203.772 48.835C211.626 48.8081 214.531 52.2273 214.531 61.2735V74.735ZM140.532 87.0122C132.624 87.0122 129.773 83.7812 129.773 74.735V61.2735C129.773 52.2273 132.678 48.8619 140.532 48.835C148.387 48.8081 151.292 52.2273 151.292 61.2735V86.9313H140.532M203.826 40.2197C187.955 40.2197 182.306 50.9889 182.306 61.0043V74.8967C182.198 79.1472 183.349 83.3346 185.615 86.9313H162.051V61.2735C162.051 51.2581 156.403 40.5427 140.532 40.4889C124.662 40.435 119.013 51.2581 119.013 61.2735V75.1659C118.837 80.5298 120.769 85.7492 124.393 89.7045C126.516 91.7827 129.046 93.3984 131.824 94.4502C134.601 95.502 137.566 95.9668 140.532 95.8157H151.292V99.4773C151.292 108.497 148.602 111.727 140.532 111.781H136.417C135.703 111.781 135.019 112.065 134.515 112.57C134.01 113.075 133.727 113.76 133.727 114.474V117.65C133.727 118.364 134.01 119.049 134.515 119.554C135.019 120.059 135.703 120.343 136.417 120.343H140.451C143.44 120.498 146.429 120.033 149.229 118.976C152.03 117.92 154.582 116.295 156.725 114.204C160.35 110.249 162.281 105.03 162.105 99.6659V95.7622H203.879C206.845 95.9133 209.81 95.4481 212.588 94.3963C215.365 93.3445 217.896 91.7288 220.019 89.6506C223.631 85.6877 225.56 80.4736 225.399 75.112V61.2735C225.399 51.2581 219.723 40.5427 203.879 40.4889" fill="#4E5F6E"></path>
<path d="M182.71 124.005C182.71 122.228 184.27 120.72 186.826 120.72C188.565 120.85 190.233 121.466 191.64 122.497C192.447 122.901 193.254 123.035 193.846 121.959L194.546 120.747C194.665 120.578 194.747 120.385 194.786 120.182C194.825 119.978 194.82 119.769 194.772 119.567C194.723 119.366 194.633 119.177 194.505 119.014C194.378 118.85 194.218 118.716 194.034 118.62C191.944 117.147 189.462 116.332 186.906 116.278C185.767 116.171 184.618 116.298 183.53 116.651C182.441 117.005 181.437 117.578 180.578 118.334C179.719 119.091 179.023 120.015 178.534 121.05C178.045 122.085 177.773 123.21 177.734 124.355C177.734 132.593 190.511 131.543 190.511 136.578C190.474 137.072 190.338 137.553 190.11 137.993C189.883 138.433 189.568 138.822 189.186 139.136C188.804 139.451 188.362 139.685 187.887 139.823C187.412 139.962 186.913 140.003 186.422 139.943C184.37 139.793 182.419 138.992 180.854 137.655C179.886 137.116 179.24 137.17 178.621 137.978L177.76 139.162C177.606 139.308 177.487 139.488 177.414 139.688C177.34 139.888 177.314 140.102 177.338 140.313C177.361 140.525 177.434 140.728 177.549 140.907C177.664 141.085 177.82 141.235 178.003 141.343C180.429 143.197 183.371 144.25 186.422 144.358C187.556 144.458 188.698 144.325 189.778 143.967C190.858 143.61 191.855 143.036 192.706 142.28C193.557 141.524 194.245 140.602 194.728 139.57C195.21 138.539 195.478 137.42 195.514 136.281C195.514 127.855 182.71 129.12 182.71 124.166" fill="#4E5F6E"></path>
<path d="M294.044 139.351V118.216C294.044 117.852 293.9 117.503 293.643 117.245C293.385 116.988 293.036 116.843 292.673 116.843H290.574C290.211 116.843 289.862 116.988 289.604 117.245C289.347 117.503 289.203 117.852 289.203 118.216V142.124C289.203 142.488 289.347 142.837 289.604 143.095C289.862 143.352 290.211 143.497 290.574 143.497H304.589C304.768 143.501 304.945 143.468 305.112 143.402C305.278 143.336 305.43 143.237 305.557 143.112C305.685 142.987 305.786 142.837 305.856 142.672C305.925 142.507 305.961 142.33 305.961 142.151V140.697C305.954 140.337 305.806 139.995 305.549 139.743C305.293 139.492 304.948 139.351 304.589 139.351H294.044Z" fill="#4E5F6E"></path>
<path d="M316.801 135.285C317.201 135.266 317.588 135.144 317.927 134.932C318.266 134.72 318.546 134.425 318.738 134.074L324.36 122.12H324.817L330.439 134.074C330.636 134.427 330.92 134.723 331.264 134.935C331.607 135.147 331.999 135.268 332.403 135.285H335.093C335.244 135.313 335.401 135.294 335.542 135.233C335.683 135.171 335.803 135.07 335.886 134.94C335.97 134.81 336.013 134.659 336.01 134.505C336.008 134.351 335.96 134.201 335.873 134.074L328.395 118.189C328.201 117.831 327.919 117.529 327.575 117.312C327.231 117.096 326.837 116.971 326.431 116.951H322.827C322.421 116.974 322.028 117.099 321.685 117.316C321.341 117.533 321.059 117.833 320.863 118.189L313.385 134.074C313.308 134.205 313.269 134.355 313.273 134.507C313.277 134.659 313.324 134.807 313.408 134.934C313.492 135.06 313.611 135.16 313.749 135.223C313.888 135.285 314.042 135.307 314.192 135.285H316.801Z" fill="#4E5F6E"></path>
<path d="M309.485 142.393C309.398 142.52 309.35 142.67 309.347 142.824C309.345 142.978 309.388 143.129 309.472 143.259C309.555 143.389 309.675 143.49 309.816 143.552C309.957 143.613 310.113 143.632 310.265 143.604H338.912C339.666 143.604 340.042 143.066 339.719 142.393L338.912 140.67C338.718 140.315 338.434 140.018 338.09 139.805C337.746 139.593 337.353 139.473 336.949 139.458H312.229C311.825 139.476 311.433 139.596 311.089 139.809C310.746 140.021 310.462 140.317 310.265 140.67L309.485 142.393Z" fill="#4E5F6E"></path>
<path d="M206.919 135.285C207.322 135.268 207.714 135.147 208.058 134.935C208.402 134.723 208.686 134.427 208.883 134.074L214.504 122.12H214.962L220.584 134.074C220.778 134.429 221.062 134.726 221.406 134.939C221.75 135.151 222.143 135.27 222.547 135.285H225.237C225.388 135.307 225.541 135.285 225.68 135.223C225.819 135.16 225.937 135.06 226.021 134.934C226.106 134.807 226.153 134.659 226.157 134.507C226.161 134.355 226.122 134.205 226.044 134.074L218.566 118.189C218.371 117.833 218.088 117.533 217.744 117.316C217.401 117.099 217.008 116.974 216.603 116.951H213.079C212.673 116.971 212.279 117.096 211.935 117.312C211.591 117.529 211.309 117.831 211.115 118.189L203.637 134.074C203.55 134.201 203.502 134.351 203.5 134.505C203.497 134.659 203.54 134.81 203.624 134.94C203.707 135.07 203.827 135.171 203.968 135.233C204.11 135.294 204.266 135.313 204.417 135.285H206.919Z" fill="#4E5F6E"></path>
<path d="M199.602 142.393C199.279 143.066 199.602 143.604 200.409 143.604H229.057C229.208 143.632 229.364 143.613 229.506 143.552C229.647 143.49 229.767 143.389 229.85 143.259C229.933 143.129 229.977 142.978 229.974 142.824C229.972 142.67 229.924 142.52 229.837 142.393L229.057 140.67C228.86 140.317 228.576 140.021 228.232 139.809C227.889 139.596 227.496 139.476 227.093 139.458H202.346C201.947 139.478 201.559 139.6 201.22 139.812C200.881 140.024 200.602 140.319 200.409 140.67L199.602 142.393Z" fill="#4E5F6E"></path>
<path d="M253.696 116.951H251.275C250.879 116.967 250.495 117.094 250.167 117.318C249.839 117.542 249.58 117.853 249.419 118.216L242.237 137.412H241.78L234.598 118.243C234.439 117.877 234.181 117.561 233.853 117.333C233.525 117.105 233.141 116.973 232.742 116.951H230.321C230.161 116.933 229.999 116.958 229.853 117.025C229.706 117.092 229.581 117.197 229.49 117.33C229.398 117.463 229.345 117.618 229.335 117.779C229.325 117.94 229.359 118.1 229.433 118.243L238.445 142.339C238.605 142.703 238.864 143.014 239.192 143.237C239.52 143.461 239.904 143.588 240.301 143.604H243.717C244.113 143.588 244.497 143.461 244.825 143.237C245.153 143.014 245.412 142.703 245.573 142.339L254.584 118.108C254.651 117.966 254.68 117.809 254.667 117.653C254.653 117.496 254.599 117.345 254.509 117.217C254.418 117.088 254.296 116.986 254.153 116.92C254.01 116.854 253.853 116.828 253.696 116.843" fill="#4E5F6E"></path>
<path d="M276.372 133.966C276.372 138.597 274.839 140.239 270.481 140.239C266.123 140.239 264.536 138.597 264.536 133.966V126.832C264.536 122.228 266.177 120.505 270.481 120.478C274.785 120.451 276.372 122.228 276.372 126.832V133.966ZM270.481 116.358C269.065 116.223 267.636 116.397 266.293 116.868C264.95 117.339 263.725 118.096 262.702 119.086C261.68 120.077 260.883 121.277 260.369 122.605C259.854 123.933 259.633 125.356 259.722 126.778V133.966C259.631 136.649 260.597 139.259 262.411 141.235C264.649 143.184 267.515 144.258 270.481 144.258C273.447 144.258 276.313 143.184 278.551 141.235C280.353 139.252 281.317 136.646 281.241 133.966V126.724C281.324 125.304 281.1 123.882 280.584 122.556C280.068 121.23 279.272 120.032 278.25 119.042C277.228 118.053 276.005 117.297 274.665 116.824C273.324 116.352 271.897 116.174 270.481 116.304" fill="#4E5F6E"></path>
</g></svg></g></g><defs><clipPath id="SvgjsClipPath1045"><rect width="1000" height="1000" x="0" y="0" rx="350" ry="350"></rect></clipPath></defs></svg>