<svg width="24" height="22" viewBox="0 0 24 22" fill="none" xmlns="http://www.w3.org/2000/svg">
<g clip-path="url(#clip0_1097_17510)">
<mask id="mask0_1097_17510" style="mask-type:luminance" maskUnits="userSpaceOnUse" x="0" y="0" width="24" height="23">
<path d="M24 0H0V22.0112H24V0Z" fill="white"/>
</mask>
<g mask="url(#mask0_1097_17510)">
<path d="M14.6665 2.63239C14.6687 3.15571 14.5141 3.6679 14.2221 4.10411C13.9302 4.54031 13.5141 4.88091 13.0266 5.08271C12.5391 5.28452 12.002 5.33847 11.4835 5.23774C10.965 5.137 10.4884 4.88612 10.1139 4.51685C9.73952 4.14759 9.48416 3.67656 9.38025 3.16345C9.27634 2.65034 9.32853 2.11824 9.53022 1.63454C9.73191 1.15083 10.074 0.737294 10.5132 0.446315C10.9524 0.155336 11.4689 4.6982e-06 11.9973 1.06654e-10C12.7032 -6.27672e-06 13.3805 0.276969 13.8807 0.770317C14.381 1.26367 14.6635 1.93321 14.6665 2.63239Z" fill="#A5CF4F"/>
<path d="M12.0005 7.03555C13.7555 7.037 15.461 7.61184 16.8525 8.67098C16.7498 7.82663 16.4262 7.0235 15.9138 6.34105C15.7718 6.15504 15.6168 5.97911 15.45 5.81458C15.176 5.53878 14.8682 5.29793 14.5339 5.09766C14.204 5.43402 13.8093 5.70142 13.3731 5.88401C12.937 6.06659 12.4683 6.16066 11.9948 6.16066C11.5213 6.16066 11.0526 6.06659 10.6165 5.88401C10.1804 5.70142 9.78564 5.43402 9.4557 5.09766C9.1234 5.30078 8.81598 5.54137 8.53959 5.81458C7.76139 6.58233 7.27068 7.58986 7.14844 8.67098C8.53998 7.61184 10.2455 7.037 12.0005 7.03555Z" fill="#A5CF4F"/>
<path d="M21.772 2.63241C21.7742 3.15574 21.6195 3.66793 21.3276 4.10413C21.0357 4.54034 20.6196 4.88093 20.1321 5.08274C19.6446 5.28454 19.1075 5.3385 18.589 5.23776C18.0705 5.13703 17.5938 4.88614 17.2194 4.51688C16.845 4.14762 16.5896 3.67658 16.4857 3.16347C16.3818 2.65036 16.434 2.11827 16.6357 1.63456C16.8374 1.15086 17.1795 0.737318 17.6187 0.446339C18.0579 0.15536 18.5744 2.85374e-05 19.1028 2.38393e-05C19.4527 -0.0014512 19.7996 0.0655377 20.1234 0.197167C20.4471 0.328796 20.7415 0.522473 20.9895 0.767059C21.2375 1.01165 21.4343 1.30232 21.5686 1.62243C21.7028 1.94254 21.772 2.28578 21.772 2.63241Z" fill="#A5CF4F"/>
<path d="M22.5637 5.81458C22.2873 5.54137 21.9799 5.30078 21.6476 5.09766C21.3176 5.43402 20.9229 5.70142 20.4868 5.88401C20.0506 6.06659 19.582 6.16066 19.1085 6.16066C18.635 6.16066 18.1663 6.06659 17.7302 5.88401C17.294 5.70142 16.8993 5.43402 16.5694 5.09766C16.4482 5.16957 16.3311 5.24813 16.2188 5.33292C16.3771 5.51214 16.5128 5.66894 16.6372 5.83697C17.3162 6.74173 17.7097 7.82522 17.7682 8.95102C17.7742 9.1106 17.7513 9.26997 17.7004 9.4215C17.789 9.50181 17.8721 9.58786 17.9492 9.67912H23.559C23.677 9.67916 23.7904 9.6335 23.8749 9.55188C23.9595 9.47026 24.0084 9.35916 24.0114 9.24227C24.0119 8.60436 23.8841 7.97273 23.6355 7.38423C23.387 6.79574 23.0226 6.26215 22.5637 5.81458Z" fill="#A5CF4F"/>
<path d="M7.55317 2.63239C7.55541 3.15571 7.40078 3.6679 7.10885 4.10411C6.81693 4.54031 6.40083 4.88091 5.9133 5.08271C5.42577 5.28452 4.88872 5.33847 4.37021 5.23774C3.8517 5.137 3.37505 4.88612 3.00063 4.51685C2.62621 4.14759 2.37088 3.67656 2.26697 3.16345C2.16306 2.65034 2.21525 2.11824 2.41694 1.63454C2.61862 1.15083 2.96072 0.737294 3.39991 0.446315C3.83909 0.155336 4.35558 4.6982e-06 4.88398 1.06654e-10C5.58993 -6.27672e-06 6.26715 0.276969 6.76739 0.770317C7.26764 1.26367 7.55018 1.93321 7.55317 2.63239Z" fill="#A5CF4F"/>
<path d="M6.28698 9.4215C6.29108 9.35435 6.29108 9.287 6.28698 9.21985C6.28141 9.13779 6.28141 9.0555 6.28698 8.97344C6.35976 7.61613 6.91224 6.32742 7.84774 5.33292L7.49713 5.09766C7.16719 5.43402 6.77247 5.70142 6.33633 5.88401C5.9002 6.06659 5.43152 6.16066 4.95802 6.16066C4.48452 6.16066 4.01584 6.06659 3.57971 5.88401C3.14357 5.70142 2.74885 5.43402 2.41891 5.09766C2.0846 5.29793 1.77685 5.53878 1.5028 5.81458C1.0459 6.26309 0.683616 6.79708 0.437023 7.38553C0.190431 7.97399 0.0644698 8.60515 0.0664288 9.24227C0.0692963 9.35724 0.116689 9.4667 0.198796 9.54802C0.280904 9.62934 0.391422 9.67628 0.507504 9.67912H6.10601L6.28698 9.4215Z" fill="#A5CF4F"/>
<path d="M14.238 13.2969H9.71397C9.60784 13.2957 9.50481 13.3323 9.42379 13.4002C9.34277 13.4681 9.28918 13.5627 9.27286 13.6665L8.54903 17.4975C8.53731 17.6219 8.57369 17.746 8.65081 17.8448C8.69326 17.8928 8.74533 17.9316 8.80375 17.9586C8.86218 17.9856 8.92565 18.0003 8.9901 18.0016H14.9053C14.9699 18.0007 15.0336 17.9861 15.0921 17.9588C15.1505 17.9315 15.2024 17.8922 15.2442 17.8433C15.286 17.7945 15.3167 17.7374 15.3344 17.6758C15.352 17.6142 15.3561 17.5496 15.3464 17.4863L14.6338 13.6778C14.6195 13.5799 14.573 13.4895 14.5014 13.4206C14.4298 13.3517 14.3372 13.3082 14.238 13.2969Z" fill="#A5CF4F"/>
<path d="M13.3801 11.5815C13.3801 11.231 13.2395 10.8948 12.9892 10.6469C12.7389 10.399 12.3995 10.2598 12.0455 10.2598C11.6916 10.2598 11.3521 10.399 11.1018 10.6469C10.8515 10.8948 10.7109 11.231 10.7109 11.5815V12.4553H13.3801V11.5815Z" fill="#A5CF4F"/>
<path d="M15.9702 18.4606C15.8442 18.6056 15.6879 18.7217 15.5122 18.801C15.3364 18.8803 15.1454 18.9209 14.9523 18.9199H9.03712C8.84412 18.9192 8.65357 18.877 8.47863 18.7962C8.30368 18.7155 8.14853 18.5981 8.02381 18.4523C7.8991 18.3064 7.80781 18.1355 7.75625 17.9512C7.70469 17.767 7.69407 17.5739 7.72515 17.3853L8.43769 13.5655C8.48391 13.2538 8.64197 12.969 8.88291 12.7633C9.12385 12.5576 9.43155 12.4447 9.74966 12.4454V11.5716C9.68768 11.2478 9.6986 10.9145 9.78163 10.5954C9.86465 10.2762 10.0177 9.97914 10.23 9.72533C10.4422 9.47151 10.7084 9.26723 11.0096 9.12699C11.3107 8.98675 11.6393 8.91402 11.9721 8.91402C12.3048 8.91402 12.6335 8.98675 12.9346 9.12699C13.2358 9.26723 13.5019 9.47151 13.7142 9.72533C13.9264 9.97914 14.0795 10.2762 14.1626 10.5954C14.2456 10.9145 14.2565 11.2478 14.1945 11.5716V12.4454C14.5126 12.4447 14.8203 12.5576 15.0613 12.7633C15.3022 12.969 15.4603 13.2538 15.5065 13.5655L16.219 17.3853C16.2582 17.5717 16.2562 17.7643 16.2133 17.9499C16.1704 18.1355 16.0874 18.3097 15.9702 18.4606ZM12.0004 7.91993C10.5929 7.91771 9.21632 8.32904 8.04494 9.1019C6.87355 9.87476 5.95996 10.9744 5.41978 12.2617C4.8796 13.5489 4.7371 14.9659 5.01032 16.3334C5.28354 17.7009 5.96019 18.9574 6.95466 19.9439C7.94912 20.9304 9.21669 21.6026 10.597 21.8753C11.9773 22.1481 13.4083 22.0093 14.7089 21.4763C16.0095 20.9434 17.1212 20.0403 17.9034 18.8813C18.6856 17.7224 19.1031 16.3597 19.1031 14.9657C19.1031 13.099 18.3552 11.3086 17.0235 9.98756C15.6918 8.66653 13.8852 7.9229 12.0004 7.91993Z" fill="#A5CF4F"/>
</g>
</g>
<defs>
<clipPath id="clip0_1097_17510">
<rect width="24" height="22" fill="white"/>
</clipPath>
</defs>
</svg>
