<svg width="24" height="22" viewBox="0 0 24 22" fill="none" xmlns="http://www.w3.org/2000/svg">
<g clip-path="url(#clip0_1097_17483)">
<mask id="mask0_1097_17483" style="mask-type:luminance" maskUnits="userSpaceOnUse" x="0" y="0" width="24" height="22">
<path d="M24 0H0V22H24V0Z" fill="white"/>
</mask>
<g mask="url(#mask0_1097_17483)">
<path d="M12.1983 8.66077C11.951 8.417 11.6364 8.25123 11.294 8.18437C10.9516 8.11751 10.5969 8.15256 10.2746 8.28511C9.95232 8.41767 9.67696 8.64179 9.48324 8.92915C9.28951 9.21652 9.18609 9.55424 9.18609 9.89973C9.18609 10.2452 9.28951 10.583 9.48324 10.8703C9.67696 11.1577 9.95232 11.3818 10.2746 11.5143C10.5969 11.6469 10.9516 11.682 11.294 11.6151C11.6364 11.5483 11.951 11.3825 12.1983 11.1387C12.5283 10.8091 12.7135 10.3638 12.7135 9.89973C12.7135 9.43567 12.5283 8.99037 12.1983 8.66077ZM9.02876 14.0218L8.36208 6.87764C8.34748 6.76714 8.29105 6.66623 8.20421 6.5953C8.11738 6.52438 8.00662 6.48871 7.89425 6.49552C7.78144 6.50723 7.67779 6.56236 7.6056 6.64898C7.53342 6.7356 7.49845 6.84683 7.50827 6.9587L8.17494 14.1029C8.1988 14.2039 8.25883 14.2928 8.34391 14.3533C8.429 14.4138 8.53337 14.4417 8.63763 14.4318C8.7419 14.4219 8.83901 14.3749 8.91093 14.2995C8.98286 14.2241 9.02472 14.1255 9.02876 14.0218ZM6.86501 12.2966C7.1129 12.0524 7.28199 11.7409 7.35086 11.4015C7.41974 11.0621 7.38529 10.7101 7.25188 10.3901C7.11848 10.0701 6.89215 9.79648 6.60152 9.60397C6.3109 9.41145 5.96907 9.3087 5.61939 9.3087C5.26971 9.3087 4.92789 9.41145 4.63726 9.60397C4.34663 9.79648 4.1203 10.0701 3.9869 10.3901C3.85349 10.7101 3.81904 11.0621 3.88792 11.4015C3.9568 11.7409 4.12588 12.0524 4.37377 12.2966C4.53687 12.4594 4.7309 12.5886 4.94468 12.6768C5.15847 12.7649 5.38779 12.8103 5.61939 12.8103C5.85099 12.8103 6.08031 12.7649 6.2941 12.6768C6.50788 12.5886 6.70191 12.4594 6.86501 12.2966ZM24.0112 6.69237L22.6896 7.01658C22.1633 4.8629 21.2627 3.5429 19.9995 3.14922C19.5868 3.02583 19.1539 2.98256 18.7246 3.02183L18.8299 5.98604C18.8049 6.84117 18.4779 7.66057 17.9059 8.30183L7.88255 18.2134C7.75536 18.3401 7.60413 18.4407 7.43752 18.5094C7.27092 18.578 7.09225 18.6133 6.9118 18.6133C6.73135 18.6133 6.55268 18.578 6.38608 18.5094C6.21947 18.4407 6.0682 18.3401 5.94102 18.2134L0.40888 12.7366C0.280509 12.6097 0.17865 12.459 0.109165 12.2931C0.0396806 12.1272 0.00390625 11.9493 0.00390625 11.7698C0.00390625 11.5902 0.0396806 11.4123 0.109165 11.2464C0.17865 11.0805 0.280509 10.9298 0.40888 10.8029L10.4206 0.891309C11.0645 0.31897 11.8946 -0.00562042 12.7598 -0.0234375L17.2393 0.127094C17.499 0.139451 17.7509 0.218577 17.9704 0.356638C18.1898 0.494699 18.3692 0.686962 18.4907 0.91449C17.4504 1.02037 16.4369 1.30646 15.4966 1.75973C14.6222 2.14164 13.8071 2.64457 13.0755 3.25342C12.8713 3.41134 12.7113 3.6183 12.6106 3.85467C12.5098 4.09104 12.4718 4.34897 12.5001 4.60397C12.5284 4.85897 12.622 5.10258 12.7721 5.31168C12.9222 5.52079 13.1238 5.68846 13.3578 5.79876C13.5917 5.90905 13.8503 5.9583 14.1089 5.94187C14.3675 5.92544 14.6175 5.84387 14.8353 5.70487C15.0531 5.56587 15.2314 5.37404 15.3533 5.14765C15.4752 4.92126 15.5366 4.66781 15.5317 4.41132C15.5375 4.33037 15.5375 4.24912 15.5317 4.16817C15.1562 4.39461 14.7967 4.64606 14.4556 4.9208C14.335 5.02191 14.1809 5.0755 14.0229 5.07133C13.845 5.06829 13.6755 4.9962 13.5508 4.87058C13.4261 4.74497 13.3562 4.57585 13.3562 4.39973C13.3544 4.30459 13.3745 4.21028 13.415 4.124C13.4556 4.03772 13.5155 3.96174 13.5902 3.90184C13.7422 3.78605 17.3095 0.833434 20.4323 1.85238C22.1633 2.40817 23.3796 4.02922 24.0229 6.65764M4.9001 11.0229C4.89779 11.1681 4.93932 11.3108 5.01939 11.4325C5.09946 11.5542 5.21441 11.6495 5.34952 11.7061C5.48462 11.7628 5.63375 11.7782 5.77776 11.7504C5.92178 11.7226 6.05411 11.6529 6.15786 11.5502C6.2616 11.4475 6.33204 11.3165 6.36009 11.1739C6.38815 11.0313 6.37258 10.8837 6.31537 10.7499C6.25816 10.6162 6.16191 10.5024 6.03896 10.4231C5.91601 10.3438 5.77195 10.3027 5.62524 10.305C5.43386 10.308 5.25118 10.3846 5.11583 10.5186C4.98049 10.6526 4.90312 10.8334 4.9001 11.0229ZM10.2802 9.86499C10.2802 10.0093 10.3234 10.1503 10.4044 10.2703C10.4854 10.3902 10.6004 10.4837 10.7351 10.539C10.8697 10.5942 11.0179 10.6086 11.1608 10.5804C11.3037 10.5523 11.435 10.4828 11.5381 10.3808C11.6411 10.2788 11.7113 10.1488 11.7397 10.0073C11.7681 9.86582 11.7536 9.71913 11.6978 9.58584C11.642 9.45254 11.5476 9.3386 11.4264 9.25845C11.3052 9.17829 11.1628 9.13551 11.017 9.13551C10.8216 9.13551 10.6342 9.21239 10.496 9.34919C10.3578 9.48599 10.2802 9.67153 10.2802 9.86499ZM15.2977 12.1808L9.92933 21.2934C9.74409 21.6012 9.44416 21.8246 9.09415 21.9156C8.74413 22.0065 8.37202 21.9578 8.05798 21.7797L1.35625 17.9008C1.04302 17.7195 0.815309 17.4226 0.723193 17.0752C0.631077 16.7277 0.682081 16.3583 0.865002 16.0481L1.49659 14.9713L5.39131 18.8387C5.81418 19.2544 6.386 19.4878 6.98197 19.4878C7.57795 19.4878 8.14973 19.2544 8.5726 18.8387L15.2977 12.1808Z" fill="#A5CF4F"/>
</g>
</g>
<defs>
<clipPath id="clip0_1097_17483">
<rect width="24" height="22" fill="white"/>
</clipPath>
</defs>
</svg>
