<svg width="19" height="22" viewBox="0 0 19 22" fill="none" xmlns="http://www.w3.org/2000/svg">
<g clip-path="url(#clip0_1097_17492)">
<mask id="mask0_1097_17492" style="mask-type:luminance" maskUnits="userSpaceOnUse" x="0" y="0" width="19" height="22">
<path d="M19 0H0V22H19V0Z" fill="white"/>
</mask>
<g mask="url(#mask0_1097_17492)">
<path d="M17.5844 15.716C17.5322 15.8414 17.4446 15.9485 17.3325 16.0239C17.2204 16.0994 17.0887 16.1398 16.954 16.1402H15.5163C15.4268 16.1387 15.3379 16.1552 15.2547 16.1888C15.1716 16.2223 15.0959 16.2722 15.0321 16.3356C14.9683 16.399 14.9176 16.4745 14.883 16.5579C14.8484 16.6412 14.8306 16.7307 14.8306 16.8211C14.8139 16.9095 14.8139 17.0004 14.8306 17.0889L16.0029 19.9464L14.897 20.4152L13.7247 17.5466C13.6539 17.3781 13.5199 17.2448 13.3521 17.1758C13.1842 17.1068 12.9961 17.1077 12.8289 17.1782C12.7488 17.216 12.6744 17.2648 12.6077 17.3233L11.5902 18.3502C11.462 18.4777 11.2891 18.5492 11.1091 18.5492C10.9291 18.5492 10.7563 18.4777 10.628 18.3502C10.5023 18.2225 10.4309 18.0503 10.429 17.8703V9.61051C10.4304 9.47539 10.471 9.34363 10.5458 9.23152C10.6205 9.11941 10.7261 9.03185 10.8496 8.97962C10.9731 8.9274 11.109 8.91279 11.2406 8.93762C11.3723 8.96246 11.4938 9.02566 11.5902 9.11938L17.3743 14.957C17.4816 15.0469 17.5593 15.1678 17.5968 15.3034C17.6344 15.439 17.63 15.583 17.5844 15.716ZM7.42083 4.78858H4.43482V2.85757C4.43482 2.45793 4.5921 2.07466 4.87209 1.79207C5.15209 1.50948 5.53183 1.35071 5.92781 1.35071C6.32378 1.35071 6.70356 1.50948 6.98356 1.79207C7.26355 2.07466 7.42083 2.45793 7.42083 2.85757V4.78858ZM18.3917 13.9859L12.6187 8.14828C12.3974 7.93193 12.1337 7.76468 11.8446 7.65719V5.5141C11.846 5.42375 11.8297 5.33401 11.7964 5.25011C11.7632 5.16621 11.7137 5.08984 11.651 5.02542C11.5882 4.96101 11.5133 4.90985 11.4307 4.87493C11.3481 4.84002 11.2595 4.82205 11.17 4.82207H8.78114V2.89105C8.73587 2.15684 8.41498 1.46765 7.88382 0.963892C7.35266 0.460129 6.65119 0.179688 5.92231 0.179688C5.19342 0.179688 4.49192 0.460129 3.96076 0.963892C3.4296 1.46765 3.1087 2.15684 3.06343 2.89105V4.82207H0.685676C0.503822 4.82207 0.329406 4.89496 0.200816 5.02474C0.0722255 5.15452 6.09485e-09 5.33056 6.09485e-09 5.5141V17.0108C-1.20252e-05 17.1011 0.0177884 17.1906 0.0523808 17.274C0.0869732 17.3573 0.13767 17.4329 0.201491 17.4963C0.265311 17.5596 0.340979 17.6095 0.424109 17.6431C0.507239 17.6766 0.596157 17.6932 0.685676 17.6917H9.12398V17.8703C9.12535 18.2783 9.24648 18.6768 9.47208 19.0154C9.69768 19.3541 10.0176 19.6177 10.3916 19.7729C10.7655 19.9282 11.1766 19.9681 11.573 19.8877C11.9693 19.8074 12.3333 19.6103 12.6187 19.3213L12.9063 19.0311L13.9569 21.576C13.9908 21.659 14.0406 21.7344 14.1035 21.7979C14.1664 21.8614 14.2412 21.9117 14.3234 21.9459C14.4056 21.9802 14.4937 21.9976 14.5827 21.9974C14.6716 21.9971 14.7596 21.9791 14.8417 21.9443L17.2084 20.9621C17.292 20.9279 17.3679 20.8772 17.4318 20.813C17.4956 20.7487 17.546 20.6721 17.5801 20.5878C17.6141 20.5035 17.631 20.4132 17.6299 20.3222C17.6287 20.2312 17.6095 20.1414 17.5733 20.058L16.5338 17.5131H16.954C17.3583 17.5117 17.7532 17.3894 18.0887 17.1618C18.4242 16.9341 18.6854 16.6111 18.8392 16.2338C18.993 15.8564 19.0326 15.4415 18.953 15.0414C18.8733 14.6414 18.678 14.2741 18.3917 13.9859Z" fill="#A5CF4F"/>
</g>
</g>
<defs>
<clipPath id="clip0_1097_17492">
<rect width="19" height="22" fill="white"/>
</clipPath>
</defs>
</svg>
