<svg width="23" height="23" viewBox="0 0 23 23" fill="none" xmlns="http://www.w3.org/2000/svg">
<g clip-path="url(#clip0_1097_17552)">
<mask id="mask0_1097_17552" style="mask-type:luminance" maskUnits="userSpaceOnUse" x="0" y="0" width="23" height="23">
<path d="M22.68 0H0V22.68H22.68V0Z" fill="white"/>
</mask>
<g mask="url(#mask0_1097_17552)">
<path d="M16.49 11.3908H6.17999V11.6508C6.17999 13.2898 5.52888 14.8617 4.3699 16.0207C3.21093 17.1797 1.63904 17.8308 0 17.8308V22.7308H6.17999C6.14933 22.0347 6.25995 21.3397 6.50519 20.6875C6.75042 20.0353 7.1252 19.4396 7.6069 18.9362C8.08861 18.4328 8.66728 18.0322 9.30801 17.7585C9.94874 17.4848 10.6383 17.3437 11.335 17.3437C12.0317 17.3437 12.7213 17.4848 13.362 17.7585C14.0027 18.0322 14.5814 18.4328 15.0631 18.9362C15.5448 19.4396 15.9196 20.0353 16.1648 20.6875C16.41 21.3397 16.5207 22.0347 16.49 22.7308H22.68V17.5708C21.8676 17.5721 21.0629 17.4132 20.312 17.1032C19.561 16.7933 18.8785 16.3382 18.3036 15.7643C17.7287 15.1903 17.2726 14.5085 16.9614 13.7581C16.6502 13.0076 16.49 12.2032 16.49 11.3908ZM22.68 6.24078V11.3908H16.49C16.4315 10.0629 15.8628 8.80874 14.9025 7.88977C13.9421 6.9708 12.6642 6.45789 11.335 6.45789C10.0058 6.45789 8.72786 6.9708 7.76752 7.88977C6.80717 8.80874 6.23849 10.0629 6.17999 11.3908H0V6.49078C1.63904 6.49078 3.21093 5.83967 4.3699 4.68069C5.52888 3.52172 6.17999 1.94983 6.17999 0.310791V0.0507812H16.49C16.49 0.863192 16.6502 1.66762 16.9614 2.41806C17.2726 3.1685 17.7287 3.85023 18.3036 4.42422C18.8785 4.99822 19.561 5.45323 20.312 5.76321C21.0629 6.0732 21.8676 6.23209 22.68 6.23077V6.24078Z" fill="white"/>
</g>
</g>
<defs>
<clipPath id="clip0_1097_17552">
<rect width="22.68" height="22.68" fill="white"/>
</clipPath>
</defs>
</svg>
