<svg width="29" height="22" viewBox="0 0 29 22" fill="none" xmlns="http://www.w3.org/2000/svg">
<g clip-path="url(#clip0_1097_17474)">
<mask id="mask0_1097_17474" style="mask-type:luminance" maskUnits="userSpaceOnUse" x="0" y="0" width="29" height="22">
<path d="M29 0H0V22H29V0Z" fill="white"/>
</mask>
<g mask="url(#mask0_1097_17474)">
<path d="M23.7044 19.4563C23.7044 19.7383 23.5936 20.0089 23.3964 20.2083C23.1993 20.4078 22.9318 20.5199 22.653 20.5199C22.3741 20.5199 22.1067 20.4078 21.9096 20.2083C21.7124 20.0089 21.6016 19.7383 21.6016 19.4563V11.7818C21.6016 11.4997 21.7124 11.2292 21.9096 11.0297C22.1067 10.8302 22.3741 10.7182 22.653 10.7182C22.9318 10.7182 23.1993 10.8302 23.3964 11.0297C23.5936 11.2292 23.7044 11.4997 23.7044 11.7818V19.4563ZM18.5938 19.4563C18.5938 19.7383 18.483 20.0089 18.2858 20.2083C18.0887 20.4078 17.8212 20.5199 17.5424 20.5199C17.2635 20.5199 16.9961 20.4078 16.7989 20.2083C16.6017 20.0089 16.491 19.7383 16.491 19.4563V16.3326C16.491 16.0505 16.6017 15.78 16.7989 15.5805C16.9961 15.381 17.2635 15.269 17.5424 15.269C17.8212 15.269 18.0887 15.381 18.2858 15.5805C18.483 15.78 18.5938 16.0505 18.5938 16.3326V19.4563ZM13.4699 19.4563C13.4699 19.7383 13.3591 20.0089 13.1619 20.2083C12.9648 20.4078 12.6973 20.5199 12.4185 20.5199C12.1396 20.5199 11.8722 20.4078 11.675 20.2083C11.4779 20.0089 11.3671 19.7383 11.3671 19.4563V13.1147C11.3671 12.8326 11.4779 12.5621 11.675 12.3626C11.8722 12.1632 12.1396 12.0511 12.4185 12.0511C12.6973 12.0511 12.9648 12.1632 13.1619 12.3626C13.3591 12.5621 13.4699 12.8326 13.4699 13.1147V19.4563ZM8.35928 19.4563C8.35928 19.7383 8.24851 20.0089 8.05133 20.2083C7.85416 20.4078 7.58672 20.5199 7.30787 20.5199C7.02902 20.5199 6.76158 20.4078 6.5644 20.2083C6.36723 20.0089 6.25646 19.7383 6.25646 19.4563V17.0058C6.25646 16.7237 6.36723 16.4532 6.5644 16.2537C6.76158 16.0542 7.02902 15.9422 7.30787 15.9422C7.58672 15.9422 7.85416 16.0542 8.05133 16.2537C8.24851 16.4532 8.35928 16.7237 8.35928 17.0058V19.4563ZM28.3226 6.45013C28.5132 6.45013 28.696 6.37351 28.8307 6.23717C28.9655 6.10082 29.0413 5.91589 29.0413 5.72307V1.83202C29.0413 1.6392 28.9655 1.45423 28.8307 1.31788C28.696 1.18153 28.5132 1.10496 28.3226 1.10496H24.7558C24.5639 1.10493 24.3797 1.18109 24.2428 1.31706C24.1059 1.45303 24.0273 1.63797 24.0238 1.83202C24.0238 1.92927 24.0427 2.02553 24.0795 2.11537C24.1163 2.20521 24.1702 2.28685 24.2382 2.35561C24.3062 2.42438 24.3869 2.47893 24.4757 2.51615C24.5645 2.55336 24.6597 2.57252 24.7558 2.57252H26.5924L16.8237 12.657L12.9775 8.68514C12.9111 8.61388 12.8305 8.55777 12.741 8.52062C12.6514 8.48347 12.5551 8.46612 12.4584 8.46971C12.2897 8.46967 12.1258 8.52651 11.9926 8.63127L1.53183 19.4024V0.822231C1.55591 0.715366 1.55581 0.604362 1.5315 0.497549C1.5072 0.390736 1.45934 0.290871 1.3915 0.20541C1.32367 0.119948 1.23757 0.0511028 1.13973 0.00403482C1.04188 -0.0430331 0.934803 -0.0671023 0.826461 -0.0663909C0.639256 -0.0595288 0.461765 0.0196616 0.330547 0.154912C0.19933 0.290162 0.124377 0.471149 0.121094 0.66063V21.2065C0.124582 21.4006 0.203235 21.5855 0.340133 21.7215C0.477031 21.8574 0.661214 21.9336 0.853065 21.9336H28.4024C28.5779 21.9095 28.7388 21.8219 28.8552 21.6869C28.9717 21.552 29.0359 21.3789 29.0359 21.1998C29.0359 21.0207 28.9717 20.8476 28.8552 20.7127C28.7388 20.5778 28.5779 20.4901 28.4024 20.466H25.8604V5.49416L27.6704 3.6227V5.68268C27.6739 5.87673 27.7526 6.06162 27.8895 6.1976C28.0264 6.33357 28.2106 6.40977 28.4024 6.40974" fill="#A5CF4F"/>
</g>
</g>
<defs>
<clipPath id="clip0_1097_17474">
<rect width="29" height="22" fill="white"/>
</clipPath>
</defs>
</svg>
