<svg width="26" height="26" viewBox="0 0 26 26" fill="none" xmlns="http://www.w3.org/2000/svg">
<g clip-path="url(#clip0_1097_17685)">
<mask id="mask0_1097_17685" style="mask-type:luminance" maskUnits="userSpaceOnUse" x="0" y="0" width="26" height="26">
<path d="M25.81 0.00976562H0V25.8198H25.81V0.00976562Z" fill="white"/>
</mask>
<g mask="url(#mask0_1097_17685)">
<path d="M25.8117 12.9603C25.8117 13.6605 25.5336 14.332 25.0385 14.8271C24.5434 15.3222 23.8719 15.6003 23.1717 15.6003C21.7699 15.5659 20.4234 15.0464 19.3617 14.1303C18.1817 13.4003 16.8617 11.6803 13.4617 12.7703C13.4617 12.7703 13.4617 12.7703 13.4617 12.8303C14.7517 12.6503 18.0417 12.7803 21.6017 17.5203C22.8417 19.1803 23.0417 21.0503 22.0117 22.0803C21.768 22.3273 21.4776 22.5235 21.1574 22.6573C20.8373 22.7912 20.4937 22.8602 20.1467 22.8602C19.7997 22.8602 19.4561 22.7912 19.136 22.6573C18.8158 22.5235 18.5254 22.3273 18.2817 22.0803C17.3157 21.065 16.7294 19.7476 16.6217 18.3503C16.3117 16.9903 16.6217 14.8503 13.4117 13.2103V13.2703C14.4117 14.0603 16.6917 16.4703 15.8517 22.3403C15.5617 24.4003 14.3817 25.8603 12.9217 25.8603C12.2216 25.8603 11.5501 25.5822 11.055 25.0871C10.5599 24.592 10.2817 23.9205 10.2817 23.2203C10.3182 21.8207 10.8335 20.4759 11.7417 19.4103C12.4817 18.2303 14.2017 16.9103 13.1117 13.5103H13.0417C13.2217 14.8003 13.1017 18.0903 8.35172 21.6503C6.70171 22.8903 4.82172 23.1003 3.79172 22.0603C3.2977 21.5654 3.02023 20.8946 3.02023 20.1953C3.02023 19.496 3.2977 18.8253 3.79172 18.3303C4.80962 17.3622 6.1309 16.7757 7.53171 16.6703C8.88171 16.3603 11.0317 16.6703 12.6617 13.4703H12.6017C11.8217 14.4703 9.41171 16.7503 3.53171 15.9103C1.48171 15.6203 0.0117188 14.4403 0.0117188 12.9803C0.0117188 12.2801 0.289847 11.6087 0.784943 11.1136C1.28004 10.6185 1.95153 10.3403 2.6517 10.3403C4.05682 10.3733 5.40697 10.8929 6.47171 11.8103C7.65171 12.5403 8.9717 14.2603 12.3717 13.1703C12.3674 13.1506 12.3674 13.1301 12.3717 13.1103C11.0817 13.2803 7.79172 13.1603 4.23172 8.42032C2.98172 6.76032 2.78171 4.88034 3.81171 3.85034C4.30836 3.35571 4.98075 3.07797 5.6817 3.07797C6.38265 3.07797 7.05507 3.35571 7.55173 3.85034C8.51302 4.87279 9.09833 6.19153 9.2117 7.59033C9.5217 8.94033 9.21171 11.0903 12.4117 12.7303V12.6603C11.4117 11.8803 9.14172 9.47033 9.98172 3.59033C10.2717 1.54033 11.4517 0.0703125 12.9117 0.0703125C13.6119 0.0703125 14.2834 0.348471 14.7785 0.843567C15.2736 1.33866 15.5517 2.01016 15.5517 2.71033C15.5129 4.08432 15.0127 5.40526 14.1317 6.46033C13.3917 7.64033 11.6817 8.96032 12.7717 12.3603H12.8317C12.6517 11.0703 12.8317 7.78034 17.5217 4.22034C19.1817 2.97034 21.0517 2.77032 22.0817 3.80032C22.5764 4.29698 22.8541 4.96937 22.8541 5.67032C22.8541 6.37127 22.5764 7.04366 22.0817 7.54031C21.0664 8.50634 19.749 9.09264 18.3517 9.20032C16.9917 9.51032 14.8517 9.20033 13.2117 12.4003H13.2717C14.0617 11.4003 16.4717 9.13034 22.3417 9.97034C24.4017 10.2603 25.8617 11.4403 25.8617 12.9003L25.8117 12.9603Z" fill="#A5CF4F"/>
</g>
</g>
<defs>
<clipPath id="clip0_1097_17685">
<rect width="25.81" height="25.81" fill="white"/>
</clipPath>
</defs>
</svg>
