<svg width="26" height="26" viewBox="0 0 26 26" fill="none" xmlns="http://www.w3.org/2000/svg">
<g clip-path="url(#clip0_1097_17671)">
<mask id="mask0_1097_17671" style="mask-type:luminance" maskUnits="userSpaceOnUse" x="0" y="0" width="26" height="26">
<path d="M25.64 0H0V25.64H25.64V0Z" fill="white"/>
</mask>
<g mask="url(#mask0_1097_17671)">
<path d="M3.59828 8.81C3.59828 8.49174 3.7247 8.1865 3.94975 7.96146C4.17479 7.73641 4.48003 7.60999 4.79829 7.60999H13.3483V14.42C13.3483 15.2713 13.6865 16.0878 14.2885 16.6898C14.8905 17.2918 15.7069 17.63 16.5583 17.63H22.0383V20.03H16.0383C16.0383 20.2401 15.9969 20.4482 15.9165 20.6423C15.8361 20.8364 15.7182 21.0128 15.5697 21.1614C15.4211 21.3099 15.2447 21.4278 15.0506 21.5082C14.8565 21.5886 14.6484 21.63 14.4383 21.63H11.2283C10.8047 21.6274 10.3993 21.458 10.0998 21.1585C9.80031 20.859 9.6309 20.4535 9.62828 20.03H3.62828L3.59828 8.81ZM18.1583 13.36H20.8283C21.0405 13.36 21.2439 13.4443 21.394 13.5943C21.544 13.7443 21.6283 13.9478 21.6283 14.16C21.6283 14.3722 21.544 14.5756 21.394 14.7257C21.2439 14.8757 21.0405 14.96 20.8283 14.96H18.1583C17.9461 14.96 17.7426 14.8757 17.5926 14.7257C17.4426 14.5756 17.3583 14.3722 17.3583 14.16C17.3583 13.9478 17.4426 13.7443 17.5926 13.5943C17.7426 13.4443 17.9461 13.36 18.1583 13.36ZM4.79829 25.64H20.7983C22.0715 25.6453 23.2951 25.1467 24.2019 24.253C25.1087 23.3593 25.6251 22.1431 25.6383 20.87C25.6383 20.6578 25.554 20.4543 25.404 20.3043C25.2539 20.1543 25.0504 20.07 24.8383 20.07H23.6283V17.43C24.2237 17.1877 24.7327 16.7722 25.0893 16.2373C25.4459 15.7025 25.6336 15.0728 25.6283 14.43V3.19998C25.6256 2.35037 25.2863 1.53648 24.6845 0.936646C24.0828 0.336815 23.2679 -4.12268e-06 22.4183 0H16.5483C15.6987 -4.12268e-06 14.8837 0.336815 14.282 0.936646C13.6803 1.53648 13.3409 2.35037 13.3383 3.19998V6.01001H4.78828C4.42058 6.01001 4.05649 6.08243 3.71678 6.22314C3.37707 6.36386 3.06839 6.5701 2.80839 6.83011C2.54839 7.09011 2.34214 7.39878 2.20143 7.73849C2.06071 8.07821 1.98829 8.4423 1.98829 8.81V20.03H0.788279C0.576106 20.03 0.372635 20.1143 0.222606 20.2643C0.0725765 20.4143 -0.0117083 20.6178 -0.0117083 20.83C-0.0130233 21.4612 0.110146 22.0864 0.350779 22.67C0.591413 23.2535 0.944783 23.7838 1.39064 24.2306C1.83649 24.6773 2.36606 25.0318 2.94908 25.2737C3.53209 25.5155 4.15709 25.64 4.78828 25.64" fill="#A5CF4F"/>
</g>
</g>
<defs>
<clipPath id="clip0_1097_17671">
<rect width="25.64" height="25.64" fill="white"/>
</clipPath>
</defs>
</svg>
