<svg width="23" height="22" viewBox="0 0 23 22" fill="none" xmlns="http://www.w3.org/2000/svg">
<g clip-path="url(#clip0_1097_17501)">
<mask id="mask0_1097_17501" style="mask-type:luminance" maskUnits="userSpaceOnUse" x="0" y="0" width="23" height="22">
<path d="M23 0H0V22H23V0Z" fill="white"/>
</mask>
<g mask="url(#mask0_1097_17501)">
<path d="M16.0991 6.50816L15.1058 5.53835C15.0359 5.46577 14.9519 5.40797 14.8587 5.36848C14.7656 5.329 14.6653 5.30863 14.564 5.30863C14.4627 5.30863 14.3624 5.329 14.2693 5.36848C14.1762 5.40797 14.0921 5.46577 14.0222 5.53835C13.8804 5.68148 13.801 5.87388 13.801 6.07429C13.801 6.27471 13.8804 6.46715 14.0222 6.61027L16.3312 8.88173C16.4759 9.02202 16.6704 9.1006 16.873 9.1006C17.0756 9.1006 17.2701 9.02202 17.4148 8.88173L19.711 6.61027C19.8528 6.46715 19.9322 6.27471 19.9322 6.07429C19.9322 5.87388 19.8528 5.68148 19.711 5.53835C19.6411 5.46577 19.557 5.40797 19.4639 5.36848C19.3708 5.329 19.2705 5.30863 19.1692 5.30863C19.0678 5.30863 18.9676 5.329 18.8744 5.36848C18.7813 5.40797 18.6972 5.46577 18.6274 5.53835L17.6341 6.50816V2.2715C17.6341 1.66907 17.3922 1.09133 16.9616 0.665347C16.531 0.239366 15.9469 3.58367e-05 15.338 3.58367e-05H7.67561C7.37299 -0.00164601 7.07304 0.0558861 6.79297 0.169284C6.5129 0.282683 6.25825 0.449738 6.04367 0.66083C5.82909 0.871922 5.65877 1.1229 5.54257 1.39932C5.42638 1.67574 5.36656 1.97213 5.36657 2.2715V3.02443C5.36657 3.73905 6.14055 3.79006 6.14055 3.79006C6.25927 3.79224 6.3767 3.76544 6.48245 3.71202C6.5882 3.6586 6.679 3.58022 6.74683 3.48381C6.83082 3.38114 6.88439 3.25747 6.90162 3.1265V3.03717V2.28427C6.90501 2.08342 6.98804 1.89193 7.13282 1.75109C7.27761 1.61025 7.47255 1.53135 7.67561 1.53137H15.338C15.5398 1.53137 15.7334 1.61072 15.8762 1.75191C16.0189 1.89311 16.0991 2.08459 16.0991 2.28427V6.50816ZM1.53538 10.2344V9.03486C4.49924 10.141 7.76895 10.141 10.7328 9.03486V10.2344C10.7328 10.2344 10.6683 10.3365 10.6038 10.3875C10.4593 10.5068 10.2986 10.6056 10.1265 10.681C8.86277 11.1905 7.50438 11.4296 6.14055 11.3829C4.77263 11.4284 3.41028 11.1893 2.14167 10.681C1.97121 10.6026 1.81096 10.504 1.66439 10.3875C1.66439 10.3875 1.53538 10.2982 1.53538 10.2344ZM1.53538 7.21004C1.53538 7.14624 1.61279 7.1207 1.66439 7.06965C1.81034 6.9488 1.97061 6.84597 2.14167 6.7634C3.41143 6.26025 4.77359 6.02551 6.14055 6.07429C7.50343 6.02387 8.86171 6.2587 10.1265 6.7634C10.2993 6.84291 10.46 6.94599 10.6038 7.06965C10.6683 7.06965 10.7328 7.14624 10.7328 7.21004C10.7328 7.27385 10.6683 7.29935 10.6038 7.3504C10.4593 7.4697 10.2986 7.5685 10.1265 7.64391C8.86277 8.15334 7.50438 8.39252 6.14055 8.34575C4.77263 8.39125 3.41028 8.15216 2.14167 7.64391C1.97121 7.56545 1.81096 7.46688 1.66439 7.3504C1.66439 7.3504 1.53538 7.26109 1.53538 7.21004ZM10.7328 13.2715C10.7328 13.2715 10.6683 13.3608 10.6038 13.4119C10.46 13.5355 10.2993 13.6386 10.1265 13.7181C8.86171 14.2228 7.50343 14.4577 6.14055 14.4072C4.77359 14.456 3.41143 14.2213 2.14167 13.7181C1.97061 13.6356 1.81034 13.5327 1.66439 13.4119C1.66439 13.4119 1.53538 13.3353 1.53538 13.2715V12.072C4.49924 13.1781 7.76895 13.1781 10.7328 12.072V13.2715ZM10.7328 15.1091V16.3086C10.7328 16.3724 10.6683 16.398 10.6038 16.449C10.4593 16.5683 10.2986 16.6671 10.1265 16.7425C8.86277 17.252 7.50438 17.4911 6.14055 17.4444C4.77263 17.4899 3.41028 17.2508 2.14167 16.7425C1.97121 16.6641 1.81096 16.5655 1.66439 16.449C1.66439 16.449 1.53538 16.3724 1.53538 16.3086V15.1091C4.5024 16.198 7.76579 16.198 10.7328 15.1091ZM10.7328 19.3457C10.7328 19.3457 10.6683 19.4351 10.6038 19.4861C10.4593 19.6054 10.2986 19.7042 10.1265 19.7796C8.86277 20.289 7.50438 20.5283 6.14055 20.4815C4.77263 20.527 3.41028 20.2879 2.14167 19.7796C1.97121 19.7011 1.81096 19.6026 1.66439 19.4861C1.66439 19.4861 1.53538 19.3968 1.53538 19.3457V18.1335C4.49924 19.2396 7.76895 19.2396 10.7328 18.1335V19.3457ZM12.2679 13.2715C12.2679 13.2715 12.3453 13.1822 12.3969 13.1311C12.5434 13.0146 12.7037 12.9161 12.8741 12.8377C14.1428 12.3294 15.5051 12.0903 16.873 12.1358C18.2369 12.089 19.5953 12.3282 20.859 12.8377C21.0311 12.9131 21.1918 13.0118 21.3363 13.1311C21.4008 13.1311 21.4653 13.2205 21.4653 13.2715C21.4653 13.3226 21.4008 13.3608 21.3363 13.4119C21.1924 13.5355 21.0318 13.6386 20.859 13.7181C19.5942 14.2228 18.2359 14.4577 16.873 14.4072C15.5061 14.456 14.1439 14.2213 12.8741 13.7181C12.7031 13.6356 12.5428 13.5327 12.3969 13.4119C12.3969 13.4119 12.2679 13.3353 12.2679 13.2715ZM12.2679 16.9339C13.775 17.2957 15.3224 17.4672 16.873 17.4444C18.6645 17.4934 20.4518 17.2476 22.1619 16.717C22.397 16.6363 22.6221 16.5293 22.8326 16.398C22.8942 16.3533 22.9504 16.3019 23.0003 16.2448V13.0801C23.0005 12.9203 22.9509 12.7644 22.8584 12.6335C22.6737 12.2871 22.4029 11.9929 22.0716 11.7785C20.4872 10.9429 18.7056 10.5419 16.9117 10.6172C15.3353 10.5764 13.7673 10.8588 12.3066 11.4467V7.0186C12.3109 6.85616 12.2559 6.69764 12.1518 6.57199C11.976 6.22343 11.7087 5.92808 11.3778 5.71699C9.75148 4.95236 7.97343 4.55565 6.17279 4.55565C4.37215 4.55565 2.59411 4.95236 0.967796 5.71699C0.636893 5.92808 0.369576 6.22343 0.193851 6.57199C0.0951779 6.7006 0.0409163 6.85715 0.0390625 7.0186V19.7158C0.0392422 19.8599 0.0804856 20.0009 0.158067 20.1228C0.235649 20.2447 0.346418 20.3425 0.477644 20.4049C0.622888 20.5685 0.787429 20.7141 0.967796 20.8388C2.59411 21.6034 4.37215 22.0001 6.17279 22.0001C7.97343 22.0001 9.75148 21.6034 11.3778 20.8388L11.5455 20.724L11.7003 20.8388C13.3266 21.6034 15.1046 22.0001 16.9053 22.0001C18.7059 22.0001 20.484 21.6034 22.1103 20.8388C22.3793 20.6871 22.6055 20.4708 22.7678 20.2098C22.9301 19.9489 23.0234 19.6517 23.039 19.3457V18.0696C21.072 18.7519 18.9953 19.072 16.9117 19.014C15.3637 19.0274 13.8189 18.869 12.3066 18.5418L12.2679 16.9339Z" fill="#A5CF4F"/>
</g>
</g>
<defs>
<clipPath id="clip0_1097_17501">
<rect width="23" height="22" fill="white"/>
</clipPath>
</defs>
</svg>
