<svg width="23" height="23" viewBox="0 0 23 23" fill="none" xmlns="http://www.w3.org/2000/svg">
<g clip-path="url(#clip0_1097_17708)">
<mask id="mask0_1097_17708" style="mask-type:luminance" maskUnits="userSpaceOnUse" x="0" y="0" width="23" height="23">
<path d="M22.68 0H0V22.68H22.68V0Z" fill="white"/>
</mask>
<g mask="url(#mask0_1097_17708)">
<path d="M22.7017 11.3398C22.7017 11.9551 22.4573 12.5452 22.0222 12.9803C21.5871 13.4153 20.997 13.6598 20.3817 13.6598C19.149 13.6325 17.9643 13.1764 17.0317 12.3698C16.0317 11.7198 14.8317 10.2098 11.8417 11.1698C11.8461 11.1895 11.8461 11.21 11.8417 11.2298C12.9717 11.0698 15.8417 11.1798 18.9917 15.3498C20.0817 16.8098 20.2617 18.4498 19.3617 19.3498C18.9254 19.7821 18.336 20.0247 17.7217 20.0247C17.1075 20.0247 16.5181 19.7821 16.0817 19.3498C15.229 18.4591 14.7128 17.2994 14.6217 16.0698C14.3417 14.8698 14.6217 12.9898 11.8017 11.5498V11.6098C12.7117 12.2898 14.6817 14.4098 13.9517 19.6098C13.6917 21.4098 12.6517 22.6998 11.3717 22.6998C10.7564 22.6998 10.1663 22.4553 9.73123 22.0203C9.29615 21.5852 9.05173 20.9951 9.05173 20.3798C9.07895 19.147 9.53514 17.9624 10.3417 17.0298C10.9917 16.0298 12.4917 14.8298 11.5417 11.8398H11.4817C11.6417 12.9698 11.5317 15.8398 7.36172 18.9898C5.90172 20.0898 4.26172 20.2598 3.36172 19.3598C3.14524 19.145 2.97343 18.8895 2.85617 18.6081C2.73891 18.3266 2.67853 18.0247 2.67853 17.7198C2.67853 17.4148 2.73891 17.1129 2.85617 16.8315C2.97343 16.55 3.14524 16.2945 3.36172 16.0798C4.25425 15.2298 5.41286 14.7141 6.64172 14.6198C7.83172 14.3398 9.72173 14.6198 11.1517 11.7998H11.1017C10.4117 12.7098 8.29172 14.6798 3.10172 13.9498C1.30172 13.6898 0.0117188 12.6498 0.0117188 11.3698C0.0117188 10.7545 0.256139 10.1644 0.691223 9.72928C1.12631 9.29419 1.71642 9.04977 2.33173 9.04977C3.56364 9.08113 4.74696 9.5368 5.68173 10.3398C6.68173 10.9898 7.88172 12.4898 10.8617 11.5398C10.8617 11.5398 10.8617 11.5398 10.8617 11.4798C9.72172 11.6398 6.86172 11.5298 3.70172 7.35977C2.61172 5.89977 2.43174 4.25977 3.34174 3.35977C3.77807 2.92742 4.36746 2.68484 4.98172 2.68484C5.59598 2.68484 6.1854 2.92742 6.62173 3.35977C7.4703 4.25322 7.98579 5.41131 8.08173 6.63977C8.35173 7.82977 8.08173 9.71976 10.9017 11.1598C10.8974 11.14 10.8974 11.1195 10.9017 11.0998C9.99173 10.4098 8.02172 8.28976 8.76172 3.09976C9.02172 1.29976 10.0617 0.00976562 11.3417 0.00976562C11.957 0.00976563 12.5471 0.254186 12.9822 0.68927C13.4173 1.12435 13.6617 1.71447 13.6617 2.32977C13.6255 3.56071 13.1705 4.74248 12.3717 5.67978C11.7217 6.67978 10.2117 7.87978 11.1717 10.8698H11.2317C11.0717 9.73978 11.2317 6.86976 15.3517 3.71976C16.8117 2.61976 18.4517 2.44976 19.3517 3.34976C19.7841 3.78609 20.0266 4.37552 20.0266 4.98978C20.0266 5.60404 19.7841 6.19343 19.3517 6.62976C18.4583 7.47833 17.3002 7.99384 16.0717 8.08978C14.8717 8.35978 12.9917 8.08976 11.5517 10.9098H11.6017C12.2917 9.99976 14.4117 8.02978 19.6017 8.76978C21.4117 9.02978 22.7017 10.0698 22.7017 11.3498V11.3398Z" fill="white"/>
</g>
</g>
<defs>
<clipPath id="clip0_1097_17708">
<rect width="22.68" height="22.68" fill="white"/>
</clipPath>
</defs>
</svg>
