<svg width="129" height="116" viewBox="0 0 129 116" fill="none" xmlns="http://www.w3.org/2000/svg">
<path d="M118.391 87.8596C117.665 87.7705 116.93 87.8163 116.221 87.9944C114.705 88.1678 113.188 88.3989 111.671 88.6301C109.291 89.0025 106.91 89.407 104.53 89.8436C102.188 89.9977 99.8455 90.1133 97.5034 90.1133C92.9535 90.1133 88.5189 90.8838 84.065 91.1342C79.6111 91.3846 75.2724 91.4617 70.8569 91.5002C67.6064 91.7283 64.342 91.6574 61.1045 91.2883C58.7047 90.8453 58.1864 88.8612 57.8984 86.7423C57.6104 84.6234 57.3033 82.7935 56.9769 80.8287C56.8234 79.9427 56.6122 79.0758 56.4394 78.1897C56.6314 78.0934 56.8233 78.0356 57.0153 77.9201C59.1417 76.8853 61.1127 75.556 62.8706 73.9713C65.3395 71.4514 66.975 68.2298 67.5549 64.7444C67.7513 63.5909 67.8795 62.4267 67.9389 61.2579C72.124 60.5259 76.3283 59.8517 80.5134 59.1968C84.0842 58.6382 87.6742 57.9832 91.2834 57.7328C95.2573 57.4631 99.1928 57.2128 103.148 56.6349C103.762 56.5386 104.261 55.7295 104.875 55.6332C98.3481 56.5963 91.7825 56.7504 85.2744 57.7328C79.5151 58.5804 73.7558 59.5628 67.9965 60.603C68.0784 56.6706 67.8795 52.7374 67.4013 48.8335C66.883 43.6133 66.1343 38.4124 65.7119 33.1923C66.5182 31.266 67.2861 29.4745 67.9772 27.5675C69.1635 24.5258 69.9008 21.3266 70.1658 18.0711C70.2618 16.6649 71.2025 9.98078 68.918 10C67.9044 10.2615 66.9938 10.8258 66.307 11.6181C65.2243 13.2676 64.5648 15.1602 64.3873 17.1272C63.4485 22.8596 63.3257 28.6966 64.0225 34.4636C62.4867 37.9116 60.7781 41.2826 59.2231 44.5958C57.3033 48.6409 55.3835 52.686 53.5789 56.8083C53.2845 57.476 52.9966 58.1694 52.715 58.8886C52.5423 57.9062 52.3695 56.9623 52.1775 55.9799C51.2176 51.4725 50.0657 47.0228 49.029 42.4961C49.029 42.3034 48.8755 41.1863 48.6643 41.0899C48.1533 41.2873 47.6745 41.5599 47.2437 41.8989L46.9941 42.0338C46.9941 42.0338 46.9941 42.0338 46.9941 42.1494C46.5469 43.1728 46.3558 44.2903 46.4373 45.4048C46.4373 45.1543 47.2628 44.9425 47.762 44.7113C48.1075 46.2909 48.4147 47.986 48.4915 48.2556C49.2594 51.511 50.0657 54.7664 50.7185 58.0603C51.0064 59.5628 51.2176 61.0653 51.4288 62.5678C51.4288 62.8952 51.256 63.2034 51.1792 63.5116L51.064 64.3207C51.0676 63.8868 51.0225 63.4538 50.9296 63.03C50.683 62.1892 50.3816 61.3656 50.0273 60.5644C49.1826 58.4648 48.2804 56.3459 47.2629 54.3041C47.0325 53.8418 46.7637 53.0327 46.1878 53.1098C45.643 53.3109 45.1365 53.6041 44.6903 53.9766H44.5944C44.4026 54.1709 44.2752 54.4198 44.2296 54.6894C44.0141 55.5795 43.8919 56.4898 43.8648 57.4054L43.7113 57.232C43.6079 57.1886 43.497 57.1662 43.3849 57.1662C43.2728 57.1662 43.1619 57.1886 43.0586 57.232C42.5317 57.4499 42.0349 57.7348 41.5803 58.0796H41.4843C40.7414 58.7549 40.2533 59.6665 40.1021 60.6608C39.8514 61.5646 39.7159 62.4966 39.699 63.4346C39.5262 62.8375 39.0654 60.68 38.3551 60.7571C38.0287 60.7571 37.5488 61.2194 37.2608 61.3735L36.7425 61.7009H36.6273C36.5232 61.7672 36.4266 61.8447 36.3393 61.9321C35.8311 62.7289 35.5399 63.6454 35.4946 64.5903C35.7681 64.3887 36.0645 64.2206 36.3777 64.0895C36.4929 64.0895 37.2224 63.7235 37.2224 63.5887C37.2224 63.4538 37.2224 62.9915 37.3568 62.6448C37.9234 64.0807 38.4104 65.5469 38.8158 67.0367C38.8158 67.2678 38.9502 67.499 39.027 67.7301C34.6307 69.04 30.2153 70.3306 25.8382 71.5826L11.7278 75.859C11.1135 76.0516 10.6143 76.668 10 76.8606C19.7141 73.8942 29.4345 70.9727 39.1614 68.0961C39.603 69.5023 40.0445 70.9085 40.4669 72.3146L41.1964 71.8909C41.6763 71.6597 42.2138 71.4286 42.1946 71.313C41.9451 70.0031 41.7915 68.674 41.6379 67.3449L43.6537 66.7478L45.3239 66.2469L45.8998 67.8457L46.6101 67.4412C47.09 67.1908 47.6468 66.9211 47.6276 66.8441C47.4932 66.4588 47.378 66.0543 47.2437 65.6498L49.317 65.0334C49.317 65.5342 49.317 66.035 49.317 66.5166C49.5888 66.3285 49.8782 66.1672 50.1809 66.035C50.2961 66.035 51.0256 65.6498 51.0448 65.5149V65.2838C51.0751 65.9434 51.2113 66.5939 51.448 67.2101C51.6904 67.0292 51.9549 66.8803 52.2351 66.767C52.9454 70.0416 53.8285 73.2585 54.4812 76.5524C54.5964 77.1111 54.6924 77.6889 54.8076 78.2476C53.7869 78.5861 52.7487 78.869 51.6976 79.0951C44.2104 80.8287 36.6465 82.4468 30.1768 86.8001C28.5894 87.7407 27.2568 89.0583 26.296 90.637C25.3353 92.2157 24.7759 94.0071 24.6671 95.8536C24.5696 97.5562 25.0135 99.2459 25.9347 100.679C26.8559 102.112 28.2069 103.215 29.7929 103.828C33.5696 105.064 37.5914 105.349 41.5035 104.657C45.7197 104.118 49.8818 103.215 53.9437 101.96C56.6506 101.151 59.2231 100.13 61.834 99.109C67.5933 96.8552 73.9477 96.1425 79.9183 94.9867C87.1942 93.5613 94.4702 91.8084 101.785 90.4215C104.184 90.2674 106.565 90.0941 108.945 89.8436C111.53 89.7139 114.098 89.3659 116.624 88.8034C116.843 88.7401 117.055 88.6562 117.258 88.553L117.508 88.4182L118.467 87.8789C118.947 87.5899 119.274 87.5321 118.679 87.3202M41.7531 66.7863C41.7531 66.2854 41.6571 65.7846 41.6187 65.2645C41.4748 63.7912 41.4748 62.3074 41.6187 60.8341C41.7195 59.9232 41.939 59.0295 42.2715 58.1759C43.1077 59.5658 43.7535 61.0625 44.1912 62.6255C44.5752 63.6657 44.9399 64.6867 45.3047 65.7076L41.7339 66.7863M48.1267 64.86L47.2629 65.1104C46.8213 63.7043 46.4182 62.2595 46.111 60.8148C45.7729 59.4934 45.6051 58.1339 45.6118 56.7697C45.6344 56.2088 45.6857 55.6495 45.7654 55.0938L46.0534 55.7488C46.6677 57.0586 47.2437 58.3877 47.8004 59.7169C48.3572 61.046 48.7987 62.0669 49.2018 63.2805C49.3294 63.6662 49.4006 64.0685 49.413 64.4747L48.1267 64.86ZM65.8463 16.819C66.0853 15.1229 66.5435 13.4652 67.2093 11.8878C67.3245 11.6759 67.4589 11.4833 67.5741 11.2907C68.0195 11.7395 68.309 12.3204 68.3996 12.9472C68.5182 14.2286 68.5182 15.5183 68.3996 16.7997C68.3584 18.9086 68.1336 21.0098 67.7277 23.0794C67.1579 25.67 66.3745 28.2085 65.3855 30.6689C64.9944 26.0203 65.1233 21.3425 65.7695 16.7227M52.9262 61.6239C53.0606 61.1038 53.2333 60.5837 53.3869 60.0829C55.2082 55.2904 57.2781 50.5968 59.5878 46.0212C61.066 42.8814 62.5827 39.7608 64.0225 36.6017C64.9056 44.6728 66.3454 52.7631 66.115 60.8341L61.546 61.6624C58.7431 62.2018 55.9979 62.9338 53.2526 63.7235C53.1374 63.0301 53.0222 62.3174 52.9262 61.6239ZM53.8861 67.1137C53.6749 66.1313 53.4829 65.1875 53.3293 64.1858C54.9419 63.7428 56.5546 63.319 58.1864 62.9723C60.8165 62.4329 63.4466 61.9706 66.0959 61.4891C66.0959 61.7395 66.0959 61.9899 66.0959 62.221C66.0863 64.8197 65.5228 67.3861 64.4434 69.7483C63.364 72.1104 61.7935 74.2136 59.8374 75.9167C59.3767 76.302 58.8583 76.6102 58.3976 76.9569L58.0712 77.1303L56.305 77.9201C55.5755 74.2987 54.7308 70.7159 53.9437 67.0945M84.2762 93.8695C76.5971 95.3913 68.7643 96.4122 61.4884 99.3401C56.7086 101.238 51.7494 102.645 46.6869 103.539C41.5035 104.483 34.8995 105.466 30.1001 102.673C25.3006 99.8795 25.1662 93.5228 28.1803 89.4969C31.7511 84.7198 38.2975 83.2173 43.8648 81.7919C47.527 81.0618 51.1325 80.0704 54.654 78.8254C55.1659 81.6121 55.6267 84.4052 56.0362 87.2047C56.0446 88.5675 56.4302 89.9013 57.1497 91.0572C57.5759 91.4904 58.089 91.8277 58.6549 92.0469C59.2209 92.2661 59.8268 92.3621 60.4325 92.3285C66.7979 92.6111 73.1735 92.5661 79.5343 92.1937C82.4716 92.0781 85.2937 91.8277 88.2885 91.481C91.5329 91.0957 94.7582 91.1342 98.0026 91.0379C93.4335 91.9625 88.8644 92.9642 84.2762 93.8695Z" fill="#4E5F6E"/>
</svg>
