<svg width="47" height="39" viewBox="0 0 47 39" fill="none" xmlns="http://www.w3.org/2000/svg">
<path d="M7.32371 38.1772C8.15988 38.1358 8.97173 37.8818 9.68246 37.439C10.3932 36.9962 10.9793 36.3789 11.3855 35.6462L23.0596 10.8501H24.0011L35.6753 35.6462C36.073 36.3802 36.6535 36.9992 37.3604 37.4426C38.0673 37.886 38.8767 38.139 39.7101 38.1772H45.0898C45.4059 38.2312 45.731 38.1913 46.0247 38.0625C46.3184 37.9336 46.5679 37.7214 46.7425 37.4521C46.917 37.1829 47.009 36.8686 47.007 36.5477C47.0049 36.2267 46.9089 35.9131 46.7308 35.6462L31.21 2.69231C30.8267 1.92773 30.25 1.27687 29.5375 0.804539C28.8249 0.332205 28.0012 0.0548483 27.1483 0H19.8317C18.9802 0.0600864 18.1587 0.339687 17.447 0.811441C16.7353 1.28319 16.1576 1.93107 15.77 2.69231L0.276183 35.6462C0.098131 35.9131 0.00212519 36.2267 3.48673e-05 36.5477C-0.00205546 36.8686 0.0898843 37.1829 0.264444 37.4521C0.439004 37.7214 0.688527 37.9336 0.982232 38.0625C1.27594 38.1913 1.60089 38.2312 1.91698 38.1772H7.32371Z" fill="#A5CF4F"/>
</svg>
