<svg width="33" height="33" viewBox="0 0 33 33" fill="none" xmlns="http://www.w3.org/2000/svg">
<g clip-path="url(#clip0_850_8549)">
<mask id="mask0_850_8549" style="mask-type:luminance" maskUnits="userSpaceOnUse" x="0" y="0" width="33" height="33">
<path d="M33 0H0V33H33V0Z" fill="white"/>
</mask>
<g mask="url(#mask0_850_8549)">
<path d="M16.5 32.9999C19.7634 32.9999 22.9534 32.0322 25.6668 30.2192C28.3802 28.4062 30.495 25.8292 31.7439 22.8142C32.9927 19.7992 33.3196 16.4818 32.6829 13.2811C32.0463 10.0804 30.4748 7.1403 28.1672 4.83273C25.8596 2.52517 22.9195 0.953643 19.7189 0.316987C16.5182 -0.319669 13.2007 0.00721342 10.1857 1.25606C7.17075 2.50491 4.59377 4.61972 2.78073 7.33314C0.967682 10.0465 0 13.2365 0 16.4999C0 20.876 1.73821 25.073 4.83256 28.1674C7.92691 31.2617 12.1239 32.9999 16.5 32.9999Z" fill="#EF4129"/>
</g>
<mask id="mask1_850_8549" style="mask-type:luminance" maskUnits="userSpaceOnUse" x="0" y="0" width="33" height="33">
<path d="M16.5 33C25.6127 33 33 25.6127 33 16.5C33 7.3873 25.6127 0 16.5 0C7.3873 0 0 7.3873 0 16.5C0 25.6127 7.3873 33 16.5 33Z" fill="white"/>
</mask>
<g mask="url(#mask1_850_8549)">
<path d="M12.1134 24.711V19.1981M16.5199 17.451L12.1134 19.1787L7.70693 17.451V23.0805L12.1134 24.711L16.5199 23.0805M7.6875 17.4704L12.1134 15.5293L16.5005 17.4704L20.9262 15.5293L25.3133 17.4704M16.5199 17.451V23.0805M16.5199 17.451V11.9381M16.5199 17.451L20.9262 15.5098V10.191L16.5199 11.9187L12.1134 10.191V15.5098L16.5199 17.451ZM16.5199 23.0805L20.9262 24.711L25.3327 23.0805V17.451L20.9262 19.1787L16.5199 17.451M12.094 10.2105L16.5199 8.26929L20.9068 10.2105M20.9262 24.711V19.1981M14.8117 19.8581L14.2487 19.4699L13.6857 20.2464V18.5576L14.8503 18.1112L14.8117 19.8581ZM19.218 12.5981L18.6552 12.2099L18.0922 12.9865V11.2976L19.2568 10.8512L19.218 12.5981ZM23.6245 19.8581L23.0617 19.4699L22.4987 20.2464V18.5576L23.6633 18.1112L23.6245 19.8581Z" stroke="white" stroke-width="0.31" stroke-linecap="round" stroke-linejoin="round"/>
</g>
</g>
<defs>
<clipPath id="clip0_850_8549">
<rect width="33" height="33" fill="white"/>
</clipPath>
</defs>
</svg>
