<svg width="33" height="33" viewBox="0 0 33 33" fill="none" xmlns="http://www.w3.org/2000/svg">
<g clip-path="url(#clip0_850_8562)">
<mask id="mask0_850_8562" style="mask-type:luminance" maskUnits="userSpaceOnUse" x="0" y="0" width="33" height="33">
<path d="M33 0H0V33H33V0Z" fill="white"/>
</mask>
<g mask="url(#mask0_850_8562)">
<path d="M16.5 32.9999C19.7634 32.9999 22.9536 32.0322 25.667 30.2192C28.3804 28.4062 30.4953 25.8292 31.7441 22.8142C32.993 19.7992 33.3196 16.4818 32.6829 13.2811C32.0463 10.0804 30.475 7.1403 28.1674 4.83273C25.8599 2.52517 22.9198 0.953643 19.7191 0.316987C16.5184 -0.319669 13.2007 0.00721342 10.1857 1.25606C7.17075 2.50491 4.59377 4.61972 2.78073 7.33314C0.967682 10.0465 0 13.2365 0 16.4999C0 20.876 1.73845 25.073 4.8328 28.1674C7.92715 31.2617 12.1239 32.9999 16.5 32.9999Z" fill="#00587E"/>
</g>
<mask id="mask1_850_8562" style="mask-type:luminance" maskUnits="userSpaceOnUse" x="0" y="0" width="33" height="33">
<path d="M16.5 33C25.6127 33 33 25.6127 33 16.5C33 7.3873 25.6127 0 16.5 0C7.3873 0 0 7.3873 0 16.5C0 25.6127 7.3873 33 16.5 33Z" fill="white"/>
</mask>
<g mask="url(#mask1_850_8562)">
<path d="M10.0356 24.653V18.5771H13.918V24.653M18.7126 8.4248H23.2163M23.8762 16.7717L22.5756 8.4248M19.334 8.4248L18.0527 16.7717M19.2174 23.0611H16.9461V21.5664H19.2174V23.0611ZM23.0997 23.0611H20.8285V21.5664H23.0997V23.0611ZM19.2174 20.0719H16.9461V18.5771H19.2174V20.0719ZM23.0997 20.0719H20.8285V18.5771H23.0997V20.0719ZM25.1961 16.7717V24.7499H7.57031V15.3741L10.2491 13.433V15.3741L12.928 13.433V15.3741L15.6068 13.433V16.694L25.1961 16.7717Z" stroke="white" stroke-width="0.32" stroke-linecap="round" stroke-linejoin="round"/>
</g>
</g>
<defs>
<clipPath id="clip0_850_8562">
<rect width="33" height="33" fill="white"/>
</clipPath>
</defs>
</svg>
