<svg width="33" height="33" viewBox="0 0 33 33" fill="none" xmlns="http://www.w3.org/2000/svg">
<g clip-path="url(#clip0_850_8588)">
<mask id="mask0_850_8588" style="mask-type:luminance" maskUnits="userSpaceOnUse" x="0" y="0" width="33" height="33">
<path d="M33 0H0V33H33V0Z" fill="white"/>
</mask>
<g mask="url(#mask0_850_8588)">
<path d="M16.5 32.9999C19.7634 32.9999 22.9536 32.0322 25.667 30.2192C28.3804 28.4062 30.4953 25.8292 31.7441 22.8142C32.993 19.7992 33.3196 16.4818 32.6829 13.2811C32.0463 10.0804 30.475 7.1403 28.1674 4.83273C25.8599 2.52517 22.9198 0.953643 19.7191 0.316987C16.5184 -0.319669 13.2007 0.00721342 10.1857 1.25606C7.17075 2.50491 4.59377 4.61972 2.78073 7.33314C0.967682 10.0465 0 13.2365 0 16.4999C0 20.876 1.73845 25.073 4.8328 28.1674C7.92715 31.2617 12.1239 32.9999 16.5 32.9999Z" fill="#4E5F6E"/>
</g>
<mask id="mask1_850_8588" style="mask-type:luminance" maskUnits="userSpaceOnUse" x="0" y="0" width="33" height="33">
<path d="M16.5 33C25.6127 33 33 25.6127 33 16.5C33 7.3873 25.6127 0 16.5 0C7.3873 0 0 7.3873 0 16.5C0 25.6127 7.3873 33 16.5 33Z" fill="white"/>
</mask>
<g mask="url(#mask1_850_8588)">
<path d="M16.5032 5.92065V8.21111M18.4443 11.6665V9.72528M14.562 9.72528V11.6665M9.45668 11.6665H23.5691M22.521 17.9364V11.6665M10.505 17.9364V11.6665M26.2868 23.3135C26.0584 23.6114 25.7646 23.8528 25.428 24.019C25.0914 24.1851 24.721 24.2715 24.3456 24.2715C23.9702 24.2715 23.5998 24.1851 23.2632 24.019C22.9265 23.8528 22.6328 23.6114 22.4044 23.3135C22.1738 23.6081 21.8791 23.8464 21.5428 24.0102C21.2065 24.174 20.8373 24.2592 20.4632 24.2592C20.0891 24.2592 19.72 24.174 19.3836 24.0102C19.0473 23.8464 18.7527 23.6081 18.5221 23.3135C18.2937 23.6114 17.9999 23.8528 17.6633 24.019C17.3267 24.1851 16.9563 24.2715 16.5809 24.2715C16.2055 24.2715 15.8351 24.1851 15.4984 24.019C15.1618 23.8528 14.8681 23.6114 14.6397 23.3135C14.4113 23.6114 14.1176 23.8528 13.781 24.019C13.4443 24.1851 13.0739 24.2715 12.6985 24.2715C12.3232 24.2715 11.9527 24.1851 11.6161 24.019C11.2795 23.8528 10.9857 23.6114 10.7574 23.3135C10.529 23.6114 10.2352 23.8528 9.89861 24.019C9.56199 24.1851 9.19155 24.2715 8.81618 24.2715C8.44081 24.2715 8.07036 24.1851 7.73374 24.019C7.39712 23.8528 7.10337 23.6114 6.875 23.3135M16.5809 17.0047V24.323M12.2327 24.323L9.98083 19.0819L16.5809 15.5682L23.2004 19.0819L20.9485 24.3035M20.6379 12.7925H18.6967V13.7437H20.6379V12.7925ZM17.4932 12.7925H15.552V13.7437H17.4932V12.7925ZM14.3291 12.7925H12.3879V13.7437H14.3291V12.7925ZM19.4344 8.21111H13.6108V9.6478H19.4344V8.21111Z" stroke="white" stroke-width="0.32" stroke-linecap="round" stroke-linejoin="round"/>
</g>
</g>
<defs>
<clipPath id="clip0_850_8588">
<rect width="33" height="33" fill="white"/>
</clipPath>
</defs>
</svg>
