<svg width="33" height="33" viewBox="0 0 33 33" fill="none" xmlns="http://www.w3.org/2000/svg">
<g clip-path="url(#clip0_850_8575)">
<mask id="mask0_850_8575" style="mask-type:luminance" maskUnits="userSpaceOnUse" x="0" y="0" width="33" height="33">
<path d="M33 0H0V33H33V0Z" fill="white"/>
</mask>
<g mask="url(#mask0_850_8575)">
<path d="M16.5 32.9999C19.7634 32.9999 22.9536 32.0322 25.667 30.2192C28.3804 28.4062 30.4953 25.8292 31.7441 22.8142C32.993 19.7992 33.3196 16.4818 32.6829 13.2811C32.0463 10.0804 30.475 7.1403 28.1674 4.83273C25.8599 2.52517 22.9198 0.953643 19.7191 0.316987C16.5184 -0.319669 13.2007 0.00721342 10.1857 1.25606C7.17075 2.50491 4.59377 4.61972 2.78073 7.33314C0.967682 10.0465 0 13.2365 0 16.4999C0 20.876 1.73845 25.073 4.8328 28.1674C7.92715 31.2617 12.1239 32.9999 16.5 32.9999Z" fill="#1A5632"/>
</g>
<mask id="mask1_850_8575" style="mask-type:luminance" maskUnits="userSpaceOnUse" x="0" y="0" width="33" height="33">
<path d="M16.5 33C25.6127 33 33 25.6127 33 16.5C33 7.3873 25.6127 0 16.5 0C7.3873 0 0 7.3873 0 16.5C0 25.6127 7.3873 33 16.5 33Z" fill="white"/>
</mask>
<g mask="url(#mask1_850_8575)">
<path d="M22.7127 13.1612L21.6644 19.5089M20.8685 13.1612L20.2474 19.5089M19.0439 13.1612L18.8304 19.5089M17.1996 13.1612L17.4133 19.5089M15.3556 13.1612L15.9766 19.5089M13.5116 13.1612L14.5596 19.5089M22.9456 22.9253H13.0068C12.6413 22.9253 12.2907 22.78 12.0322 22.5216C11.7737 22.2631 11.6284 21.9125 11.6284 21.5469C11.6284 21.1814 11.7737 20.831 12.0322 20.5726C12.2907 20.3141 12.6413 20.1688 13.0068 20.1688H22.9456M13.2398 20.1688L11.6284 12.5207L11.0657 9.8224C10.9366 9.21279 10.602 8.6659 10.1178 8.27363C9.63366 7.88136 9.02937 7.66756 8.40625 7.66772M11.6284 12.5207H24.5956L22.9845 20.1688M22.5767 24.1289C22.5716 24.4447 22.4426 24.7457 22.2175 24.9672C21.9923 25.1888 21.689 25.313 21.3732 25.313C21.0828 25.2758 20.8159 25.1341 20.6225 24.9144C20.429 24.6946 20.3223 24.4119 20.3223 24.1191C20.3223 23.8264 20.429 23.5437 20.6225 23.3239C20.8159 23.1042 21.0828 22.9625 21.3732 22.9253C21.6858 22.9252 21.9862 23.0466 22.2108 23.264C22.4355 23.4813 22.5666 23.7776 22.5767 24.09V24.1289ZM15.7631 24.1289C15.7581 24.4447 15.6291 24.7457 15.4039 24.9672C15.1788 25.1888 14.8755 25.313 14.5596 25.313C14.2692 25.2758 14.0024 25.1341 13.8089 24.9144C13.6155 24.6946 13.5087 24.4119 13.5087 24.1191C13.5087 23.8264 13.6155 23.5437 13.8089 23.3239C14.0024 23.1042 14.2692 22.9625 14.5596 22.9253C14.8722 22.9252 15.1727 23.0466 15.3973 23.264C15.6219 23.4813 15.7531 23.7776 15.7631 24.09V24.1289Z" stroke="white" stroke-width="0.3" stroke-linecap="round" stroke-linejoin="round"/>
</g>
</g>
<defs>
<clipPath id="clip0_850_8575">
<rect width="33" height="33" fill="white"/>
</clipPath>
</defs>
</svg>
