<svg width="579" height="917" viewBox="0 0 579 917" fill="none" xmlns="http://www.w3.org/2000/svg">
<g clip-path="url(#clip0_1089_13820)">
<mask id="mask0_1089_13820" style="mask-type:luminance" maskUnits="userSpaceOnUse" x="0" y="-6" width="649" height="935">
<g clip-path="url(#clip1_1089_13820)">
<rect width="648.959" height="933.4" transform="translate(0 -5.10156)" fill="white"/>
<path d="M600.884 -8.28711H-48.0742V920.349H600.884V-8.28711Z" fill="url(#paint0_linear_1089_13820)"/>
</g>
</mask>
<g mask="url(#mask0_1089_13820)">
<mask id="mask1_1089_13820" style="mask-type:luminance" maskUnits="userSpaceOnUse" x="-22" y="-14" width="264" height="470">
<path d="M241.927 -13.0488H-21.8828V455.028H241.927V-13.0488Z" fill="white"/>
</mask>
<g mask="url(#mask1_1089_13820)">
<path d="M220.04 2.57031H0V453.075H220.04V2.57031Z" fill="#FFEAD0"/>
</g>
</g>
<path d="M47.5147 142.049L34.1406 152.787H60.8888L47.5147 142.049ZM47.5147 152.787L60.8888 163.526H34.1406L47.5147 152.787Z" fill="#A5CF4F"/>
<path d="M83.3541 26H76.5861C70.0581 26 67.7781 23.288 67.7781 18.896C67.7781 17.6 68.0421 16.112 68.4021 15.128L71.7861 14.576C71.2821 15.68 70.9701 17.264 70.9701 18.536C70.9701 21.92 72.4341 23.504 76.9221 23.504H80.1861V14.72H83.3541V26ZM78.2181 12.896C77.3301 12.896 76.6341 12.176 76.6341 11.264C76.6341 10.376 77.3301 9.632 78.2181 9.632C79.1061 9.632 79.8021 10.352 79.8021 11.264C79.8021 12.152 79.1061 12.896 78.2181 12.896ZM74.2341 12.896C73.3461 12.896 72.6501 12.176 72.6501 11.264C72.6501 10.376 73.3461 9.632 74.2341 9.632C75.1461 9.632 75.8421 10.352 75.8421 11.264C75.8421 12.152 75.1461 12.896 74.2341 12.896ZM87.1806 26V9.08H90.3486V26H87.1806ZM93.4868 26V23.504H100.615C100.471 19.952 98.7188 17.744 94.9508 16.784L95.7188 14.144C100.927 15.512 103.711 18.464 103.711 24.416V26H93.4868ZM106.938 26V9.08H110.106V26H106.938ZM111.245 32.096C110.501 32.096 109.829 32 109.229 31.856L109.493 29.336C110.045 29.504 110.669 29.624 111.437 29.624C113.045 29.624 114.005 28.856 114.005 26.264V14.72H117.173V23.504H119.549V26H117.173V26.096C117.173 29.168 116.141 32.096 111.245 32.096ZM126.803 29.6C126.803 30.488 126.107 31.232 125.219 31.232C124.331 31.232 123.635 30.512 123.635 29.6C123.635 28.712 124.331 27.968 125.219 27.968C126.107 27.968 126.803 28.688 126.803 29.6ZM122.843 29.6C122.843 30.488 122.147 31.232 121.235 31.232C120.347 31.232 119.651 30.512 119.651 29.6C119.651 28.712 120.347 27.968 121.235 27.968C122.147 27.968 122.843 28.688 122.843 29.6ZM119.195 26V23.504H123.707V14.72H126.875V26H119.195ZM132.529 8.912L136.033 21.704H132.817L129.385 9.344L132.529 8.912ZM140.953 26H130.369V23.504H137.785V9.08H140.953V26ZM130.609 32.432V30.68C131.041 30.68 131.473 30.704 131.785 30.776C131.617 30.632 131.473 30.344 131.473 29.984C131.473 28.688 132.481 27.512 134.809 27.512C135.433 27.512 136.057 27.584 136.225 27.632L135.937 29.36C135.769 29.336 135.289 29.24 134.785 29.24C134.113 29.24 133.729 29.528 133.729 29.936C133.729 30.416 134.137 30.68 135.241 30.68H136.657V32.432H130.609ZM145.001 26V9.08H148.169V26H145.001ZM171.087 26H166.071C159.543 26 157.263 23.288 157.263 18.896C157.263 17.6 157.527 16.112 157.887 15.128L161.271 14.576C160.767 15.68 160.455 17.264 160.455 18.536C160.455 21.92 161.919 23.504 166.407 23.504H168.039V14.864C168.039 14.864 170.271 14.408 172.863 14.408C177.087 14.408 178.407 16.424 178.407 19.712V23.504H180.423V26H175.335V20.048C175.335 17.744 174.663 16.904 172.671 16.904C171.879 16.904 171.087 17.048 171.087 17.048V26ZM169.047 29.6C169.047 30.488 168.351 31.232 167.463 31.232C166.575 31.232 165.879 30.512 165.879 29.6C165.879 28.712 166.575 27.968 167.463 27.968C168.351 27.968 169.047 28.688 169.047 29.6ZM165.087 29.6C165.087 30.488 164.391 31.232 163.479 31.232C162.591 31.232 161.895 30.512 161.895 29.6C161.895 28.712 162.591 27.968 163.479 27.968C164.391 27.968 165.087 28.688 165.087 29.6ZM187.359 12.608C186.447 12.608 185.703 11.888 185.703 10.952C185.703 10.04 186.447 9.296 187.359 9.296C188.271 9.296 189.015 10.04 189.015 10.952C189.015 11.864 188.271 12.608 187.359 12.608ZM193.095 26H180.062V23.504H181.431C182.271 23.504 182.775 23.672 182.775 23.672C181.887 23.024 181.431 21.944 181.431 20.24C181.431 17.192 183.495 14.408 187.671 14.408C191.415 14.408 193.095 16.568 193.095 19.928V26ZM189.999 23.504V20.312C189.999 17.912 189.039 16.904 187.431 16.904C185.631 16.904 184.575 18.272 184.575 20.144C184.575 22.4 185.679 23.504 188.175 23.504H189.999ZM196.798 26V9.08H199.966V23.504H202.366V26H196.798ZM218.896 20.216C218.896 22.136 218.8 24.152 218.56 26H202V23.504H204.928V14.72H208.096V15.32C208.096 16.376 208.024 17.72 207.832 18.872H207.856C209.032 16.04 211.456 14.408 214.024 14.408C217.336 14.408 218.896 16.616 218.896 20.216ZM215.656 20.576C215.656 18.32 215.08 16.952 213.376 16.952C210.808 16.952 208.672 20.144 208.072 23.504H215.536C215.608 22.544 215.656 21.44 215.656 20.576ZM96.3126 61.272L94.9926 61.968C92.0886 57.384 91.4886 53.592 91.4886 50.184C91.4886 46.824 92.2566 42.672 95.0166 38.304L96.2646 38.952C94.2966 42.336 93.2406 46.176 93.2406 50.064C93.2406 54.192 94.2246 57.84 96.3126 61.272ZM111.297 55.8047C111.344 55.5703 111.398 55.3203 111.461 55.0547C111.539 54.7734 111.633 54.5 111.742 54.2344L118.609 52.7812C118.578 53.0312 118.523 53.3047 118.445 53.6016C118.367 53.8828 118.281 54.125 118.188 54.3281L111.297 55.8047ZM99.1328 54.0703C99.1953 53.7109 99.2578 53.3984 99.3203 53.1328C99.3984 52.8516 99.4688 52.6406 99.5312 52.5L106.328 51.0469V46.8984L100.258 48.1875C100.305 47.9531 100.367 47.7031 100.445 47.4375C100.523 47.1562 100.617 46.8906 100.727 46.6406L106.328 45.4453L106.305 35.5547C106.43 35.4141 106.625 35.2109 106.891 34.9453C107.156 34.6797 107.438 34.4297 107.734 34.1953L107.758 45.1406L111.18 44.4141V36.75C111.32 36.5781 111.508 36.3828 111.742 36.1641C111.992 35.9297 112.289 35.6875 112.633 35.4375V44.1094L118.586 42.8438C118.539 43.0625 118.477 43.3203 118.398 43.6172C118.336 43.8984 118.258 44.1562 118.164 44.3906L112.633 45.5625V49.0781L118.633 47.7891C118.586 48.1172 118.422 48.6406 118.141 49.3594L111.203 50.8594L111.18 45.8672L108.016 46.5469L107.758 46.8047V49.8047C107.742 49.8984 107.727 49.9688 107.711 50.0156L106.492 51.8672C106.492 51.8984 106.414 52.0078 106.258 52.1953C106.102 52.3828 105.883 52.5391 105.602 52.6641C105.148 52.7891 104.539 52.9297 103.773 53.0859L102.484 53.3438L99.1328 54.0703ZM139.813 45.72V55.968C139.813 60.36 137.653 62.544 133.645 62.544C130.573 62.544 127.837 60.864 127.837 55.896C127.837 54.264 128.029 52.68 128.413 51.24L130.309 50.88C129.877 52.488 129.661 54.12 129.661 55.728C129.661 60 131.869 61.08 133.861 61.08C136.213 61.08 137.989 59.856 137.989 56.088V45.72H139.813ZM132.517 46.776C132.517 46.152 133.045 45.6 133.669 45.6C134.293 45.6 134.845 46.128 134.845 46.776C134.845 47.424 134.293 47.928 133.669 47.928C133.021 47.928 132.517 47.424 132.517 46.776ZM147.944 63.072C146.072 63.072 144.152 62.712 144.152 62.712L144.296 61.128C144.296 61.128 146.384 61.632 148.16 61.632C150.824 61.632 152.936 60.624 152.936 57.672V57H150.296C145.712 57 144.056 54.816 144.056 51.384C144.056 48.24 146 45.456 149.984 45.456C152.552 45.456 154.736 46.296 154.736 46.296V55.536H158.072V57H154.736V57.624C154.736 60.24 153.032 63.072 147.944 63.072ZM152.936 55.536V47.52C152.936 47.52 151.664 46.92 149.768 46.92C147.392 46.92 145.904 48.6 145.904 51.168C145.904 54.12 147.272 55.536 150.584 55.536H152.936ZM166.622 57H157.718C157.238 57 156.278 56.736 156.278 56.256C156.278 55.8 157.238 55.536 157.718 55.536H161.438V45.72H163.262V55.536H166.622V57ZM159.518 60.504C159.518 59.88 160.022 59.352 160.646 59.352C161.27 59.352 161.798 59.856 161.798 60.504C161.798 61.128 161.27 61.632 160.646 61.632C160.022 61.632 159.518 61.128 159.518 60.504ZM162.854 60.504C162.854 59.88 163.358 59.352 163.982 59.352C164.606 59.352 165.11 59.856 165.11 60.504C165.11 61.128 164.606 61.632 163.982 61.632C163.358 61.632 162.854 61.128 162.854 60.504ZM166.273 57C165.793 57 164.833 56.736 164.833 56.256C164.833 55.8 165.793 55.536 166.273 55.536H169.993V40.08H171.817V55.536H175.177V57H166.273ZM188.052 57H174.827C174.347 57 173.387 56.736 173.387 56.256C173.387 55.8 174.347 55.536 174.827 55.536H177.66C178.5 55.536 179.052 55.632 179.052 55.632C177.78 54.864 177.108 53.496 177.108 51.336C177.108 48.216 179.124 45.456 183.012 45.456C186.348 45.456 188.052 47.352 188.052 50.784V57ZM186.252 55.536V51.168C186.252 48.096 184.98 46.92 182.82 46.92C180.444 46.92 178.98 48.6 178.98 51.192C178.98 54.144 180.348 55.536 183.66 55.536H186.252ZM195.661 50.064C195.661 53.448 194.893 57.576 192.133 61.968L190.885 61.296C192.877 57.936 193.909 54.072 193.909 50.184C193.909 46.056 192.925 42.408 190.861 38.976L192.181 38.304C195.061 42.888 195.661 46.656 195.661 50.064Z" fill="#4E5F6E"/>
<path d="M73.3672 453.072H111.641V142.049H92.5043C89.9912 142.049 87.5026 142.446 85.1808 143.218C82.859 143.991 80.7494 145.122 78.9723 146.549C77.1953 147.976 75.7856 149.67 74.8239 151.534C73.8622 153.399 73.3672 155.397 73.3672 157.414V453.072Z" fill="#D0E4A5"/>
<path d="M111.641 352.971H73.3672V453.052H111.641V352.971Z" fill="#D0E4A5"/>
<path d="M99 417.433V420.861C99 424.094 97.5236 425.342 95.186 425.43V425.993C95.186 427.328 96.0121 427.785 97.84 427.504L103.57 426.59V427.908L97.9806 428.805C95.643 429.156 94.1139 428.313 94.1139 425.905V425.378C92.1278 425.096 90.546 423.655 90.546 421.124C90.546 418.699 91.9345 417.433 94.4478 417.433H99ZM97.9279 418.751H94.7291C92.4793 418.751 91.6181 419.683 91.6181 421.265C91.6181 423.005 92.8484 424.077 94.7466 424.077C96.9085 424.077 97.9279 423.075 97.9279 420.65V418.751ZM99 407.999V414.783H97.9279L95.1509 412.41C92.866 410.424 91.706 409.897 90.3351 409.897C89.1223 409.897 88.1381 410.582 88.1381 412.112C88.1381 412.885 88.4545 413.781 88.8587 414.484L87.6635 414.678C87.2593 413.852 86.9781 412.938 86.9781 411.778C86.9781 409.633 88.349 408.456 90.1417 408.456C91.8115 408.456 93.2527 409.229 95.7309 411.391L97.8048 413.166H97.8224C97.7697 412.164 97.7521 410.161 97.7521 407.999H99ZM92.9539 397.77C97.2073 397.77 99.1406 399.686 99.1406 402.094C99.1406 404.449 97.6642 406.172 93.1824 406.172C88.929 406.172 86.9957 404.256 86.9957 401.848C86.9957 399.493 88.4896 397.77 92.9539 397.77ZM93.1121 399.177C89.6848 399.177 88.0854 400.143 88.0854 401.971C88.0854 403.553 89.4563 404.766 93.0418 404.766C96.4515 404.766 98.0333 403.799 98.0333 401.971C98.0333 400.389 96.68 399.177 93.1121 399.177ZM99 389.513V396.298H97.9279L95.1509 393.925C92.866 391.939 91.706 391.411 90.3351 391.411C89.1223 391.411 88.1381 392.097 88.1381 393.626C88.1381 394.399 88.4545 395.296 88.8587 395.999L87.6635 396.192C87.2593 395.366 86.9781 394.452 86.9781 393.292C86.9781 391.148 88.349 389.97 90.1417 389.97C91.8115 389.97 93.2527 390.744 95.7309 392.905L97.8048 394.681H97.8224C97.7697 393.679 97.7521 391.675 97.7521 389.513H99ZM95.4848 381.095C97.5939 381.095 99.1406 382.993 99.1406 385.595C99.1406 386.315 99.0703 387.036 98.9473 387.493L97.7345 387.317C97.8927 386.878 97.9806 386.157 97.9806 385.507C97.9806 383.626 96.9085 382.501 95.5551 382.501C94.2018 382.501 93.323 383.679 93.323 385.806C93.323 386.175 93.3406 386.509 93.3757 386.86H92.3036C92.3739 384.136 91.4951 382.958 89.9484 382.958C88.7708 382.958 88.0854 383.749 88.0854 385.032C88.0854 385.806 88.2963 386.491 88.6302 387.141L87.4878 387.247C87.189 386.526 86.9781 385.682 86.9781 384.786C86.9781 382.554 88.2084 381.57 89.7199 381.57C91.0908 381.57 92.1454 382.361 92.6024 383.609H92.6375C92.9539 382.15 93.9733 381.095 95.4848 381.095Z" fill="#231F20"/>
<path d="M127.566 453.072H165.914V249.121H146.703C141.628 249.121 136.76 250.74 133.172 253.622C129.583 256.503 127.566 260.412 127.566 264.487V453.072Z" fill="#D0E4A5"/>
<path d="M165.813 352.971H127.539V453.052H165.813V352.971Z" fill="#D0E4A5"/>
<path d="M153 417.433V420.861C153 424.094 151.524 425.342 149.186 425.43V425.993C149.186 427.328 150.012 427.785 151.84 427.504L157.57 426.59V427.908L151.981 428.805C149.643 429.156 148.114 428.313 148.114 425.905V425.378C146.128 425.096 144.546 423.655 144.546 421.124C144.546 418.699 145.934 417.433 148.448 417.433H153ZM151.928 418.751H148.729C146.479 418.751 145.618 419.683 145.618 421.265C145.618 423.005 146.848 424.077 148.747 424.077C150.908 424.077 151.928 423.075 151.928 420.65V418.751ZM153 407.999V414.783H151.928L149.151 412.41C146.866 410.424 145.706 409.897 144.335 409.897C143.122 409.897 142.138 410.582 142.138 412.112C142.138 412.885 142.454 413.781 142.859 414.484L141.664 414.678C141.259 413.852 140.978 412.938 140.978 411.778C140.978 409.633 142.349 408.456 144.142 408.456C145.811 408.456 147.253 409.229 149.731 411.391L151.805 413.166H151.822C151.77 412.164 151.752 410.161 151.752 407.999H153ZM146.954 397.77C151.207 397.77 153.141 399.686 153.141 402.094C153.141 404.449 151.664 406.172 147.182 406.172C142.929 406.172 140.996 404.256 140.996 401.848C140.996 399.493 142.49 397.77 146.954 397.77ZM147.112 399.177C143.685 399.177 142.085 400.143 142.085 401.971C142.085 403.553 143.456 404.766 147.042 404.766C150.451 404.766 152.033 403.799 152.033 401.971C152.033 400.389 150.68 399.177 147.112 399.177ZM153 389.513V396.298H151.928L149.151 393.925C146.866 391.939 145.706 391.411 144.335 391.411C143.122 391.411 142.138 392.097 142.138 393.626C142.138 394.399 142.454 395.296 142.859 395.999L141.664 396.192C141.259 395.366 140.978 394.452 140.978 393.292C140.978 391.148 142.349 389.97 144.142 389.97C145.811 389.97 147.253 390.744 149.731 392.905L151.805 394.681H151.822C151.77 393.679 151.752 391.675 151.752 389.513H153ZM150.17 379.719V381.775H153V383.093H150.17V388.454L149.133 388.542L141.136 383.568V381.775H148.958V379.719H150.17ZM148.958 383.076H142.402V383.093L149.01 387.224C148.958 386.081 148.958 383.797 148.958 383.076Z" fill="#231F20"/>
<path d="M181.746 453.072H220.045V202.906H200.883C195.805 202.911 190.938 204.535 187.35 207.419C183.762 210.304 181.746 214.214 181.746 218.291V453.072Z" fill="#A5CF4F"/>
<path d="M210 417.451V421.001C210 424.2 208.576 425.483 206.291 425.606V426.098C206.291 427.346 207.047 427.768 208.84 427.469L214.57 426.555V428.137L208.981 429.033C206.608 429.402 205.008 428.541 205.008 426.028V425.536C203.075 425.202 201.546 423.761 201.546 421.212C201.546 418.699 202.987 417.451 205.483 417.451H210ZM208.717 419.033H205.764C203.655 419.033 202.829 419.894 202.829 421.353C202.829 422.987 203.989 423.971 205.747 423.971C207.75 423.971 208.717 423.022 208.717 420.773V419.033ZM210 407.998V414.905H208.699L206.133 412.673C203.848 410.67 202.671 410.16 201.423 410.16C200.298 410.16 199.384 410.828 199.384 412.234C199.384 413.007 199.683 413.886 200.105 414.554L198.664 414.782C198.259 413.974 197.978 413.025 197.978 411.812C197.978 409.597 199.367 408.437 201.177 408.437C202.811 408.437 204.305 409.193 206.713 411.32L208.541 412.884H208.559C208.506 411.83 208.488 410.002 208.488 407.998H210ZM203.954 397.716C208.19 397.716 210.158 399.703 210.158 402.146C210.158 404.677 208.488 406.311 204.182 406.311C199.947 406.311 197.996 404.325 197.996 401.882C197.996 399.333 199.648 397.716 203.954 397.716ZM204.094 399.404C200.808 399.404 199.314 400.283 199.314 401.987C199.314 403.481 200.597 404.624 204.042 404.624C207.328 404.624 208.822 403.727 208.822 402.023C208.822 400.529 207.539 399.404 204.094 399.404ZM210 389.478V396.385H208.699L206.133 394.153C203.848 392.15 202.671 391.64 201.423 391.64C200.298 391.64 199.384 392.308 199.384 393.714C199.384 394.487 199.683 395.366 200.105 396.034L198.664 396.262C198.259 395.454 197.978 394.505 197.978 393.292C197.978 391.077 199.367 389.917 201.177 389.917C202.811 389.917 204.305 390.673 206.713 392.8L208.541 394.364H208.559C208.506 393.31 208.488 391.482 208.488 389.478H210ZM206.081 381.147C208.524 381.147 210.141 383.134 210.141 385.893C210.141 386.526 210.053 387.211 209.965 387.651L208.524 387.475C208.664 387.035 208.752 386.368 208.752 385.77C208.752 383.942 207.768 382.817 206.274 382.817C204.833 382.817 204.077 383.872 204.077 386.244C204.077 386.543 204.077 386.93 204.112 387.246H198.136V381.78H199.648V385.752H202.776C202.759 382.624 204.007 381.147 206.081 381.147Z" fill="white"/>
<path d="M96.1094 175.314V183.223H94.6506L89.6063 178.266C89.4188 178.079 89.2196 177.891 89.0087 177.704C88.7978 177.516 88.5752 177.347 88.3408 177.194C88.1065 177.042 87.8604 176.919 87.6026 176.825C87.3449 176.731 87.0754 176.685 86.7941 176.685C86.4543 176.685 86.1497 176.749 85.8802 176.878C85.6107 176.995 85.3822 177.165 85.1947 177.388C85.0073 177.61 84.8667 177.868 84.7729 178.161C84.6675 178.454 84.6147 178.764 84.6147 179.092C84.6147 179.725 84.7905 180.264 85.142 180.709C85.4935 181.155 85.9681 181.442 86.5657 181.571L86.425 182.906C85.4994 182.731 84.7729 182.309 84.2456 181.641C83.7184 180.961 83.4547 180.141 83.4547 179.18C83.4547 178.676 83.525 178.202 83.6656 177.757C83.7945 177.3 83.9937 176.901 84.2632 176.561C84.5327 176.21 84.8725 175.935 85.2826 175.735C85.681 175.525 86.1497 175.419 86.6887 175.419C87.1691 175.419 87.6085 175.495 88.0069 175.648C88.4053 175.788 88.7802 175.976 89.1317 176.21C89.4833 176.444 89.8172 176.714 90.1336 177.018C90.4499 177.311 90.7604 177.616 91.0651 177.932L94.9494 181.852V175.314H96.1094ZM92.6118 166.742C92.2485 166.742 91.9146 166.807 91.6099 166.936C91.2936 167.065 91.0241 167.246 90.8015 167.481C90.5671 167.703 90.3855 167.984 90.2566 168.324C90.1277 168.652 90.0633 169.016 90.0633 169.414C90.0633 169.824 90.1277 170.193 90.2566 170.521C90.3855 170.849 90.5671 171.131 90.8015 171.365C91.0241 171.588 91.2936 171.763 91.6099 171.892C91.9146 172.021 92.2485 172.086 92.6118 172.086C92.975 172.086 93.3148 172.021 93.6312 171.892C93.9358 171.763 94.2053 171.588 94.4397 171.365C94.6623 171.131 94.8381 170.849 94.9669 170.521C95.0958 170.193 95.1603 169.824 95.1603 169.414C95.1603 169.016 95.0958 168.652 94.9669 168.324C94.8381 167.984 94.6623 167.703 94.4397 167.481C94.2053 167.246 93.9358 167.065 93.6312 166.936C93.3148 166.807 92.975 166.742 92.6118 166.742ZM86.8117 167.199C86.4954 167.199 86.2024 167.258 85.9329 167.375C85.6634 167.481 85.4349 167.633 85.2475 167.832C85.0483 168.031 84.8959 168.266 84.7905 168.535C84.6733 168.805 84.6147 169.098 84.6147 169.414C84.6147 169.73 84.6733 170.023 84.7905 170.293C84.8959 170.562 85.0483 170.797 85.2475 170.996C85.4349 171.195 85.6634 171.353 85.9329 171.47C86.2024 171.576 86.4954 171.629 86.8117 171.629C87.1281 171.629 87.421 171.576 87.6905 171.47C87.96 171.353 88.1944 171.195 88.3936 170.996C88.581 170.797 88.7334 170.562 88.8505 170.293C88.956 170.023 89.0087 169.73 89.0087 169.414C89.0087 169.098 88.956 168.805 88.8505 168.535C88.7334 168.266 88.581 168.031 88.3936 167.832C88.1944 167.633 87.96 167.481 87.6905 167.375C87.421 167.258 87.1281 167.199 86.8117 167.199ZM89.4833 171.031C89.3895 171.3 89.2548 171.552 89.079 171.787C88.8915 172.009 88.6748 172.203 88.4287 172.367C88.1826 172.531 87.9131 172.66 87.6202 172.753C87.3273 172.847 87.0226 172.894 86.7063 172.894C86.2141 172.894 85.7689 172.8 85.3705 172.613C84.9604 172.425 84.6147 172.173 84.3335 171.857C84.0523 171.541 83.8355 171.172 83.6832 170.75C83.5309 170.328 83.4547 169.883 83.4547 169.414C83.4547 168.945 83.5309 168.5 83.6832 168.078C83.8355 167.656 84.0523 167.287 84.3335 166.971C84.6147 166.655 84.9604 166.403 85.3705 166.215C85.7689 166.028 86.2141 165.934 86.7063 165.934C87.0226 165.934 87.3273 165.981 87.6202 166.075C87.9131 166.168 88.1826 166.297 88.4287 166.461C88.6748 166.625 88.8915 166.824 89.079 167.059C89.2548 167.281 89.3895 167.528 89.4833 167.797H89.5184C89.7059 167.094 90.0926 166.532 90.6784 166.11C91.2643 165.688 91.9673 165.477 92.7875 165.477C93.3265 165.477 93.8128 165.588 94.2463 165.811C94.6799 166.022 95.0548 166.309 95.3712 166.672C95.6758 167.024 95.9102 167.44 96.0742 167.92C96.2383 168.389 96.3203 168.887 96.3203 169.414C96.3203 169.941 96.2383 170.445 96.0742 170.926C95.9102 171.394 95.6758 171.81 95.3712 172.173C95.0548 172.525 94.6799 172.812 94.2463 173.035C93.8128 173.246 93.3265 173.351 92.7875 173.351C91.9673 173.351 91.2643 173.14 90.6784 172.718C90.0926 172.296 89.7059 171.734 89.5184 171.031H89.4833ZM84.9311 158.488V158.523L91.9966 162.811V158.488H84.9311ZM91.9966 157.222V155.429H93.1566V157.222H96.1094V158.488H93.1566V163.866H91.7154L83.6656 158.839V157.222H91.9966Z" fill="#231F20"/>
<path d="M150.309 295.095V303.004H148.85L143.806 298.048C143.618 297.86 143.419 297.673 143.208 297.485C142.997 297.298 142.774 297.128 142.54 296.975C142.306 296.823 142.06 296.7 141.802 296.606C141.544 296.513 141.275 296.466 140.993 296.466C140.654 296.466 140.349 296.53 140.079 296.659C139.81 296.776 139.581 296.946 139.394 297.169C139.206 297.391 139.066 297.649 138.972 297.942C138.867 298.235 138.814 298.546 138.814 298.874C138.814 299.506 138.99 300.045 139.341 300.491C139.693 300.936 140.167 301.223 140.765 301.352L140.624 302.688C139.699 302.512 138.972 302.09 138.445 301.422C137.918 300.743 137.654 299.922 137.654 298.962C137.654 298.458 137.724 297.983 137.865 297.538C137.994 297.081 138.193 296.683 138.462 296.343C138.732 295.991 139.072 295.716 139.482 295.517C139.88 295.306 140.349 295.2 140.888 295.2C141.368 295.2 141.808 295.276 142.206 295.429C142.604 295.569 142.979 295.757 143.331 295.991C143.682 296.226 144.016 296.495 144.333 296.8C144.649 297.093 144.96 297.397 145.264 297.714L149.149 301.633V295.095H150.309ZM150.309 287.965V289.23H139.447L141.415 291.463L140.466 292.253L137.865 289.09V287.965H150.309ZM139.025 275.984L150.309 280.993V282.417L139.025 277.302V283.366H137.865V275.984H139.025Z" fill="#231F20"/>
<path d="M204.488 246.95V254.859H203.029L197.985 249.903C197.798 249.716 197.599 249.528 197.388 249.341C197.177 249.153 196.954 248.983 196.72 248.831C196.485 248.679 196.239 248.556 195.982 248.462C195.724 248.368 195.454 248.321 195.173 248.321C194.833 248.321 194.529 248.386 194.259 248.515C193.99 248.632 193.761 248.802 193.574 249.024C193.386 249.247 193.246 249.505 193.152 249.798C193.046 250.091 192.994 250.401 192.994 250.729C192.994 251.362 193.169 251.901 193.521 252.346C193.872 252.791 194.347 253.078 194.945 253.207L194.804 254.543C193.878 254.367 193.152 253.946 192.625 253.278C192.097 252.598 191.834 251.778 191.834 250.817C191.834 250.313 191.904 249.839 192.045 249.393C192.173 248.936 192.373 248.538 192.642 248.198C192.912 247.847 193.251 247.571 193.662 247.372C194.06 247.161 194.529 247.056 195.068 247.056C195.548 247.056 195.987 247.132 196.386 247.284C196.784 247.425 197.159 247.612 197.511 247.847C197.862 248.081 198.196 248.351 198.512 248.655C198.829 248.948 199.139 249.253 199.444 249.569L203.328 253.489V246.95H204.488ZM193.205 237.764V242.861L196.948 242.931C196.843 242.662 196.767 242.386 196.72 242.105C196.673 241.824 196.649 241.543 196.649 241.262C196.649 240.676 196.749 240.143 196.948 239.662C197.147 239.182 197.429 238.772 197.792 238.432C198.143 238.08 198.565 237.811 199.057 237.623C199.538 237.424 200.065 237.325 200.639 237.325C201.237 237.325 201.787 237.43 202.291 237.641C202.783 237.852 203.211 238.145 203.574 238.52C203.926 238.895 204.201 239.34 204.4 239.856C204.6 240.359 204.699 240.91 204.699 241.508C204.699 242.293 204.512 243.002 204.137 243.634C203.762 244.267 203.211 244.753 202.485 245.093L201.94 243.845C202.432 243.611 202.824 243.283 203.117 242.861C203.399 242.439 203.539 241.953 203.539 241.402C203.539 241.004 203.469 240.635 203.328 240.295C203.176 239.955 202.977 239.662 202.731 239.416C202.485 239.158 202.192 238.959 201.852 238.819C201.512 238.666 201.149 238.59 200.762 238.59C200.329 238.59 199.93 238.666 199.567 238.819C199.204 238.971 198.893 239.182 198.636 239.451C198.366 239.721 198.161 240.043 198.02 240.418C197.88 240.793 197.809 241.203 197.809 241.648C197.809 242.094 197.874 242.539 198.003 242.984C198.12 243.418 198.284 243.834 198.495 244.232L192.045 244.109V237.764H193.205ZM195.683 228.507C195.284 228.507 194.921 228.578 194.593 228.718C194.265 228.847 193.984 229.035 193.749 229.281C193.515 229.527 193.333 229.82 193.205 230.16C193.064 230.499 192.994 230.874 192.994 231.284C192.994 231.695 193.064 232.069 193.205 232.409C193.333 232.749 193.515 233.042 193.749 233.288C193.984 233.534 194.265 233.727 194.593 233.868C194.921 233.997 195.284 234.061 195.683 234.061C196.081 234.061 196.444 233.997 196.772 233.868C197.101 233.727 197.388 233.534 197.634 233.288C197.868 233.042 198.05 232.749 198.179 232.409C198.307 232.069 198.372 231.695 198.372 231.284C198.372 230.874 198.307 230.499 198.179 230.16C198.05 229.82 197.868 229.527 197.634 229.281C197.388 229.035 197.101 228.847 196.772 228.718C196.444 228.578 196.081 228.507 195.683 228.507ZM199.145 229.773L199.11 229.808C199.251 230.007 199.356 230.277 199.426 230.617C199.497 230.945 199.532 231.249 199.532 231.53C199.532 232.069 199.438 232.573 199.251 233.042C199.051 233.499 198.782 233.897 198.442 234.237C198.102 234.577 197.698 234.846 197.229 235.046C196.761 235.233 196.245 235.327 195.683 235.327C195.109 235.327 194.587 235.227 194.118 235.028C193.65 234.829 193.246 234.548 192.906 234.184C192.566 233.821 192.302 233.394 192.115 232.901C191.927 232.409 191.834 231.87 191.834 231.284C191.834 230.699 191.927 230.16 192.115 229.667C192.302 229.175 192.566 228.748 192.906 228.384C193.246 228.021 193.65 227.74 194.118 227.541C194.587 227.342 195.109 227.242 195.683 227.242C196.374 227.242 196.978 227.347 197.493 227.558C198.009 227.758 198.518 228.009 199.022 228.314L204.488 231.671V233.165L199.145 229.773Z" fill="white"/>
<mask id="mask2_1089_13820" style="mask-type:luminance" maskUnits="userSpaceOnUse" x="336" y="-16" width="265" height="469">
<path d="M600.372 -15.959H336.562V452.254H600.372V-15.959Z" fill="white"/>
</mask>
<g mask="url(#mask2_1089_13820)">
<path d="M578.489 -0.339844H358.449V450.302H578.489V-0.339844Z" fill="#FFEAD0"/>
</g>
<path d="M408.351 75.4531L394.977 86.1915H421.725L408.351 75.4531ZM408.351 86.1915L421.725 96.9299H394.977L408.351 86.1915Z" fill="#A5CF4F"/>
<path d="M431.82 450.127H470.119V75.4355H450.957C445.88 75.4407 441.012 77.0639 437.424 79.9487C433.836 82.8334 431.82 86.7437 431.82 90.8207V450.127Z" fill="#D0E4A5"/>
<path d="M470.094 350.023H431.82V450.105H470.094V350.023Z" fill="#D0E4A5"/>
<path d="M457 414.433V417.861C457 421.094 455.524 422.342 453.186 422.43V422.993C453.186 424.328 454.012 424.785 455.84 424.504L461.57 423.59V424.908L455.981 425.805C453.643 426.156 452.114 425.313 452.114 422.905V422.378C450.128 422.096 448.546 420.655 448.546 418.124C448.546 415.699 449.934 414.433 452.448 414.433H457ZM455.928 415.751H452.729C450.479 415.751 449.618 416.683 449.618 418.265C449.618 420.005 450.848 421.077 452.747 421.077C454.908 421.077 455.928 420.075 455.928 417.65V415.751ZM457 404.999V411.783H455.928L453.151 409.41C450.866 407.424 449.706 406.897 448.335 406.897C447.122 406.897 446.138 407.582 446.138 409.112C446.138 409.885 446.454 410.781 446.859 411.484L445.664 411.678C445.259 410.852 444.978 409.938 444.978 408.778C444.978 406.633 446.349 405.456 448.142 405.456C449.811 405.456 451.253 406.229 453.731 408.391L455.805 410.166H455.822C455.77 409.164 455.752 407.161 455.752 404.999H457ZM450.954 394.77C455.207 394.77 457.141 396.686 457.141 399.094C457.141 401.449 455.664 403.172 451.182 403.172C446.929 403.172 444.996 401.256 444.996 398.848C444.996 396.493 446.49 394.77 450.954 394.77ZM451.112 396.177C447.685 396.177 446.085 397.143 446.085 398.971C446.085 400.553 447.456 401.766 451.042 401.766C454.451 401.766 456.033 400.799 456.033 398.971C456.033 397.389 454.68 396.177 451.112 396.177ZM457 386.513V393.298H455.928L453.151 390.925C450.866 388.939 449.706 388.411 448.335 388.411C447.122 388.411 446.138 389.097 446.138 390.626C446.138 391.399 446.454 392.296 446.859 392.999L445.664 393.192C445.259 392.366 444.978 391.452 444.978 390.292C444.978 388.148 446.349 386.97 448.142 386.97C449.811 386.97 451.253 387.744 453.731 389.905L455.805 391.681H455.822C455.77 390.679 455.752 388.675 455.752 386.513H457ZM453.485 378.095C455.594 378.095 457.141 379.993 457.141 382.595C457.141 383.315 457.07 384.036 456.947 384.493L455.735 384.317C455.893 383.878 455.981 383.157 455.981 382.507C455.981 380.626 454.908 379.501 453.555 379.501C452.202 379.501 451.323 380.679 451.323 382.806C451.323 383.175 451.341 383.509 451.376 383.86H450.304C450.374 381.136 449.495 379.958 447.948 379.958C446.771 379.958 446.085 380.749 446.085 382.032C446.085 382.806 446.296 383.491 446.63 384.141L445.488 384.247C445.189 383.526 444.978 382.682 444.978 381.786C444.978 379.554 446.208 378.57 447.72 378.57C449.091 378.57 450.145 379.361 450.602 380.609H450.638C450.954 379.15 451.973 378.095 453.485 378.095Z" fill="#231F20"/>
<path d="M486.578 450.125H524.852V596.831H505.715C500.64 596.831 495.772 595.212 492.183 592.33C488.594 589.449 486.578 585.541 486.578 581.465V450.125Z" fill="#D0E4A5"/>
<path d="M540.739 450.318H579.013V706.302H559.852C554.776 706.302 549.909 704.683 546.32 701.802C542.731 698.92 540.715 695.012 540.715 690.936L540.739 450.318Z" fill="#A5CF4F"/>
<path d="M451.057 94.8388C450.694 94.8388 450.36 94.9033 450.055 95.0322C449.739 95.1611 449.469 95.3427 449.247 95.577C449.012 95.7997 448.831 96.0809 448.702 96.4207C448.573 96.7488 448.509 97.112 448.509 97.5104C448.509 97.9205 448.573 98.2896 448.702 98.6177C448.831 98.9457 449.012 99.227 449.247 99.4613C449.469 99.6839 449.739 99.8597 450.055 99.9886C450.36 100.117 450.694 100.182 451.057 100.182C451.42 100.182 451.76 100.117 452.076 99.9886C452.381 99.8597 452.651 99.6839 452.885 99.4613C453.108 99.227 453.283 98.9457 453.412 98.6177C453.541 98.2896 453.606 97.9205 453.606 97.5104C453.606 97.112 453.541 96.7488 453.412 96.4207C453.283 96.0809 453.108 95.7997 452.885 95.577C452.651 95.3427 452.381 95.1611 452.076 95.0322C451.76 94.9033 451.42 94.8388 451.057 94.8388ZM445.257 95.2958C444.941 95.2958 444.648 95.3544 444.378 95.4716C444.109 95.577 443.88 95.7294 443.693 95.9285C443.494 96.1277 443.341 96.3621 443.236 96.6316C443.119 96.9011 443.06 97.194 443.06 97.5104C443.06 97.8267 443.119 98.1197 443.236 98.3892C443.341 98.6587 443.494 98.893 443.693 99.0922C443.88 99.2914 444.109 99.4496 444.378 99.5668C444.648 99.6722 444.941 99.7249 445.257 99.7249C445.573 99.7249 445.866 99.6722 446.136 99.5668C446.405 99.4496 446.64 99.2914 446.839 99.0922C447.026 98.893 447.179 98.6587 447.296 98.3892C447.401 98.1197 447.454 97.8267 447.454 97.5104C447.454 97.194 447.401 96.9011 447.296 96.6316C447.179 96.3621 447.026 96.1277 446.839 95.9285C446.64 95.7294 446.405 95.577 446.136 95.4716C445.866 95.3544 445.573 95.2958 445.257 95.2958ZM447.929 99.1274C447.835 99.3969 447.7 99.6488 447.524 99.8831C447.337 100.106 447.12 100.299 446.874 100.463C446.628 100.627 446.358 100.756 446.066 100.85C445.773 100.944 445.468 100.99 445.152 100.99C444.659 100.99 444.214 100.897 443.816 100.709C443.406 100.522 443.06 100.27 442.779 99.9534C442.498 99.6371 442.281 99.268 442.129 98.8462C441.976 98.4243 441.9 97.9791 441.9 97.5104C441.9 97.0417 441.976 96.5964 442.129 96.1746C442.281 95.7528 442.498 95.3837 442.779 95.0673C443.06 94.751 443.406 94.499 443.816 94.3116C444.214 94.1241 444.659 94.0304 445.152 94.0304C445.468 94.0304 445.773 94.0772 446.066 94.171C446.358 94.2647 446.628 94.3936 446.874 94.5576C447.12 94.7217 447.337 94.9209 447.524 95.1552C447.7 95.3778 447.835 95.6239 447.929 95.8934H447.964C448.151 95.1904 448.538 94.6279 449.124 94.2061C449.71 93.7843 450.413 93.5734 451.233 93.5734C451.772 93.5734 452.258 93.6847 452.692 93.9073C453.125 94.1182 453.5 94.4053 453.816 94.7685C454.121 95.1201 454.355 95.536 454.52 96.0164C454.684 96.4851 454.766 96.9831 454.766 97.5104C454.766 98.0377 454.684 98.5415 454.52 99.0219C454.355 99.4906 454.121 99.9066 453.816 100.27C453.5 100.621 453.125 100.908 452.692 101.131C452.258 101.342 451.772 101.447 451.233 101.447C450.413 101.447 449.71 101.236 449.124 100.815C448.538 100.393 448.151 99.8304 447.964 99.1274H447.929Z" fill="#231F20"/>
<path d="M513 561.433V564.861C513 568.094 511.524 569.342 509.186 569.43V569.993C509.186 571.328 510.012 571.785 511.84 571.504L517.57 570.59V571.908L511.981 572.805C509.643 573.156 508.114 572.313 508.114 569.905V569.378C506.128 569.096 504.546 567.655 504.546 565.124C504.546 562.699 505.934 561.433 508.448 561.433H513ZM511.928 562.751H508.729C506.479 562.751 505.618 563.683 505.618 565.265C505.618 567.005 506.848 568.077 508.747 568.077C510.908 568.077 511.928 567.075 511.928 564.65V562.751ZM513 551.999V558.783H511.928L509.151 556.41C506.866 554.424 505.706 553.897 504.335 553.897C503.122 553.897 502.138 554.582 502.138 556.112C502.138 556.885 502.454 557.781 502.859 558.484L501.664 558.678C501.259 557.852 500.978 556.938 500.978 555.778C500.978 553.633 502.349 552.456 504.142 552.456C505.811 552.456 507.253 553.229 509.731 555.391L511.805 557.166H511.822C511.77 556.164 511.752 554.161 511.752 551.999H513ZM506.954 541.77C511.207 541.77 513.141 543.686 513.141 546.094C513.141 548.449 511.664 550.172 507.182 550.172C502.929 550.172 500.996 548.256 500.996 545.848C500.996 543.493 502.49 541.77 506.954 541.77ZM507.112 543.177C503.685 543.177 502.085 544.143 502.085 545.971C502.085 547.553 503.456 548.766 507.042 548.766C510.451 548.766 512.033 547.799 512.033 545.971C512.033 544.389 510.68 543.177 507.112 543.177ZM513 533.513V540.298H511.928L509.151 537.925C506.866 535.939 505.706 535.411 504.335 535.411C503.122 535.411 502.138 536.097 502.138 537.626C502.138 538.399 502.454 539.296 502.859 539.999L501.664 540.192C501.259 539.366 500.978 538.452 500.978 537.292C500.978 535.148 502.349 533.97 504.142 533.97C505.811 533.97 507.253 534.744 509.731 536.905L511.805 538.681H511.822C511.77 537.679 511.752 535.675 511.752 533.513H513ZM510.17 523.719V525.775H513V527.093H510.17V532.454L509.133 532.542L501.136 527.568V525.775H508.958V523.719H510.17ZM508.958 527.076H502.402V527.093L509.01 531.224C508.958 530.081 508.958 527.797 508.958 527.076Z" fill="#231F20"/>
<path d="M498.709 507.376C499.306 507.751 499.886 508.084 500.449 508.377C501.011 508.659 501.585 508.899 502.171 509.098C502.745 509.297 503.343 509.45 503.964 509.555C504.585 509.649 505.259 509.696 505.985 509.696C506.711 509.696 507.379 509.649 507.989 509.555C508.598 509.45 509.184 509.303 509.746 509.116C510.309 508.928 510.865 508.694 511.416 508.413C511.967 508.131 512.547 507.809 513.156 507.446L513.859 508.377C512.758 509.162 511.527 509.772 510.168 510.205C508.809 510.639 507.415 510.856 505.985 510.856C504.626 510.856 503.261 510.645 501.89 510.223C500.519 509.789 499.259 509.151 498.111 508.307L498.709 507.376ZM511.047 501.123V502.388H500.185L502.153 504.62L501.204 505.411L498.603 502.248V501.123H511.047ZM511.047 491.356V492.622H500.185L502.153 494.854L501.204 495.645L498.603 492.481V491.356H511.047ZM499.763 479.375L511.047 484.385V485.808L499.763 480.694V486.757H498.603V479.375H499.763ZM513.261 477.8C512.664 477.425 512.084 477.097 511.521 476.815C510.959 476.522 510.391 476.276 509.817 476.077C509.231 475.878 508.627 475.731 508.006 475.638C507.385 475.532 506.711 475.48 505.985 475.48C505.259 475.48 504.591 475.532 503.981 475.638C503.372 475.731 502.786 475.872 502.224 476.06C501.661 476.247 501.105 476.481 500.554 476.763C500.003 477.044 499.423 477.366 498.814 477.729L498.111 476.798C499.212 476.013 500.443 475.403 501.802 474.97C503.161 474.536 504.556 474.32 505.985 474.32C507.344 474.32 508.709 474.536 510.08 474.97C511.451 475.392 512.711 476.024 513.859 476.868L513.261 477.8Z" fill="#231F20"/>
<path d="M568 670.433V673.861C568 677.094 566.524 678.342 564.186 678.43V678.993C564.186 680.328 565.012 680.785 566.84 680.504L572.57 679.59V680.908L566.981 681.805C564.643 682.156 563.114 681.313 563.114 678.905V678.378C561.128 678.096 559.546 676.655 559.546 674.124C559.546 671.699 560.934 670.433 563.448 670.433H568ZM566.928 671.751H563.729C561.479 671.751 560.618 672.683 560.618 674.265C560.618 676.005 561.848 677.077 563.747 677.077C565.908 677.077 566.928 676.075 566.928 673.65V671.751ZM568 660.999V667.783H566.928L564.151 665.41C561.866 663.424 560.706 662.897 559.335 662.897C558.122 662.897 557.138 663.582 557.138 665.112C557.138 665.885 557.454 666.781 557.859 667.484L556.664 667.678C556.259 666.852 555.978 665.938 555.978 664.778C555.978 662.633 557.349 661.456 559.142 661.456C560.811 661.456 562.253 662.229 564.731 664.391L566.805 666.166H566.822C566.77 665.164 566.752 663.161 566.752 660.999H568ZM561.954 650.77C566.207 650.77 568.141 652.686 568.141 655.094C568.141 657.449 566.664 659.172 562.182 659.172C557.929 659.172 555.996 657.256 555.996 654.848C555.996 652.493 557.49 650.77 561.954 650.77ZM562.112 652.177C558.685 652.177 557.085 653.143 557.085 654.971C557.085 656.553 558.456 657.766 562.042 657.766C565.451 657.766 567.033 656.799 567.033 654.971C567.033 653.389 565.68 652.177 562.112 652.177ZM568 642.513V649.298H566.928L564.151 646.925C561.866 644.939 560.706 644.411 559.335 644.411C558.122 644.411 557.138 645.097 557.138 646.626C557.138 647.399 557.454 648.296 557.859 648.999L556.664 649.192C556.259 648.366 555.978 647.452 555.978 646.292C555.978 644.148 557.349 642.97 559.142 642.97C560.811 642.97 562.253 643.744 564.731 645.905L566.805 647.681H566.822C566.77 646.679 566.752 644.675 566.752 642.513H568ZM564.116 634.148C566.524 634.148 568.123 636.099 568.123 638.788C568.123 639.438 568.053 640.124 567.947 640.546L566.735 640.37C566.875 639.948 566.981 639.262 566.981 638.665C566.981 636.732 565.926 635.536 564.309 635.536C562.762 635.536 561.936 636.644 561.936 639.192C561.936 639.456 561.936 639.825 561.971 640.124H556.136V634.816H557.419L557.402 638.876H560.847C560.811 635.624 562.077 634.148 564.116 634.148Z" fill="white"/>
<path d="M552.877 497.79C553.474 498.165 554.054 498.499 554.617 498.791C555.179 499.073 555.753 499.313 556.339 499.512C556.913 499.711 557.511 499.864 558.132 499.969C558.753 500.063 559.427 500.11 560.153 500.11C560.879 500.11 561.547 500.063 562.157 499.969C562.766 499.864 563.352 499.717 563.914 499.53C564.477 499.342 565.033 499.108 565.584 498.827C566.135 498.545 566.715 498.223 567.324 497.86L568.027 498.791C566.926 499.577 565.695 500.186 564.336 500.619C562.977 501.053 561.582 501.27 560.153 501.27C558.794 501.27 557.429 501.059 556.058 500.637C554.687 500.203 553.427 499.565 552.279 498.721L552.877 497.79ZM553.931 489.322L565.215 494.331V495.755L553.931 490.64V496.704H552.771V489.322H553.931ZM553.931 479.556L565.215 484.565V485.989L553.931 480.874V486.938H552.771V479.556H553.931ZM567.429 477.98C566.832 477.605 566.252 477.277 565.689 476.996C565.127 476.703 564.559 476.457 563.985 476.257C563.399 476.058 562.795 475.912 562.174 475.818C561.553 475.713 560.879 475.66 560.153 475.66C559.427 475.66 558.759 475.713 558.149 475.818C557.54 475.912 556.954 476.052 556.392 476.24C555.829 476.427 555.273 476.662 554.722 476.943C554.171 477.224 553.591 477.546 552.982 477.91L552.279 476.978C553.38 476.193 554.611 475.584 555.97 475.15C557.329 474.717 558.723 474.5 560.153 474.5C561.512 474.5 562.877 474.717 564.248 475.15C565.619 475.572 566.879 476.205 568.027 477.048L567.429 477.98Z" fill="white"/>
<mask id="mask3_1089_13820" style="mask-type:luminance" maskUnits="userSpaceOnUse" x="-22" y="450" width="264" height="469">
<path d="M241.927 450.553H-21.8828V918.629H241.927V450.553Z" fill="white"/>
</mask>
<g mask="url(#mask3_1089_13820)">
<path d="M220.394 459.895H0V916.791H220.394V459.895Z" fill="#FFEAD0"/>
</g>
<path d="M90.7403 491.416V476.08H93.9083V490.504H96.1883V493H93.7883C93.2603 496.768 91.0043 498.52 87.4763 498.52C83.6363 498.52 81.2843 496.504 81.2843 491.704C81.2843 490.312 81.4763 488.8 81.8603 487.408L85.1243 486.808C84.6923 488.344 84.4523 489.952 84.4523 491.416C84.4523 495.088 86.0603 496.048 87.7403 496.048C89.4923 496.048 90.7403 494.944 90.7403 491.416ZM95.8125 493V490.504H105.101C105.173 489.928 105.221 489.28 105.221 488.68C105.221 485.632 103.973 484.072 100.517 484.072C99.5325 484.072 98.6445 484.144 97.7565 484.264V481.792C98.6925 481.672 99.7965 481.576 100.829 481.576C106.229 481.576 108.365 483.952 108.365 488.56C108.365 489.76 108.245 491.272 107.957 493H95.8125ZM101.501 479.704C100.589 479.704 99.8445 478.984 99.8445 478.048C99.8445 477.136 100.589 476.392 101.501 476.392C102.413 476.392 103.157 477.136 103.157 478.048C103.157 478.96 102.413 479.704 101.501 479.704ZM110.792 493V490.504H117.92C117.776 486.952 116.023 484.744 112.256 483.784L113.024 481.144C117.944 482.44 120.704 485.152 120.992 490.504H122.552V493H110.792ZM122.203 493V490.504H125.179V476.08H128.347V493H122.203ZM132.423 493V476.08H135.591V493H132.423ZM158.508 493H153.492C146.964 493 144.684 490.288 144.684 485.896C144.684 484.6 144.948 483.112 145.308 482.128L148.692 481.576C148.188 482.68 147.876 484.264 147.876 485.536C147.876 488.92 149.34 490.504 153.828 490.504H155.46V481.864C155.46 481.864 157.692 481.408 160.284 481.408C164.508 481.408 165.828 483.424 165.828 486.712V490.504H167.844V493H162.756V487.048C162.756 484.744 162.084 483.904 160.092 483.904C159.3 483.904 158.508 484.048 158.508 484.048V493ZM156.468 496.6C156.468 497.488 155.772 498.232 154.884 498.232C153.996 498.232 153.3 497.512 153.3 496.6C153.3 495.712 153.996 494.968 154.884 494.968C155.772 494.968 156.468 495.688 156.468 496.6ZM152.508 496.6C152.508 497.488 151.812 498.232 150.9 498.232C150.012 498.232 149.316 497.512 149.316 496.6C149.316 495.712 150.012 494.968 150.9 494.968C151.812 494.968 152.508 495.688 152.508 496.6ZM174.78 479.608C173.868 479.608 173.124 478.888 173.124 477.952C173.124 477.04 173.868 476.296 174.78 476.296C175.692 476.296 176.436 477.04 176.436 477.952C176.436 478.864 175.692 479.608 174.78 479.608ZM180.516 493H167.484V490.504H168.852C169.692 490.504 170.196 490.672 170.196 490.672C169.308 490.024 168.852 488.944 168.852 487.24C168.852 484.192 170.916 481.408 175.092 481.408C178.836 481.408 180.516 483.568 180.516 486.928V493ZM177.42 490.504V487.312C177.42 484.912 176.46 483.904 174.852 483.904C173.052 483.904 171.996 485.272 171.996 487.144C171.996 489.4 173.1 490.504 175.596 490.504H177.42ZM184.22 493V476.08H187.388V490.504H189.788V493H184.22ZM206.318 487.216C206.318 489.136 206.222 491.152 205.982 493H189.422V490.504H192.35V481.72H195.518V482.32C195.518 483.376 195.446 484.72 195.254 485.872H195.278C196.454 483.04 198.878 481.408 201.446 481.408C204.758 481.408 206.318 483.616 206.318 487.216ZM203.078 487.576C203.078 485.32 202.502 483.952 200.798 483.952C198.23 483.952 196.094 487.144 195.494 490.504H202.958C203.03 489.544 203.078 488.44 203.078 487.576ZM96.4962 537.272L95.1762 537.968C92.2722 533.384 91.6722 529.592 91.6722 526.184C91.6722 522.824 92.4402 518.672 95.2002 514.304L96.4482 514.952C94.4802 518.336 93.4242 522.176 93.4242 526.064C93.4242 530.192 94.4082 533.84 96.4962 537.272ZM111.48 531.805C111.527 531.57 111.582 531.32 111.645 531.055C111.723 530.773 111.816 530.5 111.926 530.234L118.793 528.781C118.762 529.031 118.707 529.305 118.629 529.602C118.551 529.883 118.465 530.125 118.371 530.328L111.48 531.805ZM99.3164 530.07C99.3789 529.711 99.4414 529.398 99.5039 529.133C99.582 528.852 99.6523 528.641 99.7148 528.5L106.512 527.047V522.898L100.441 524.188C100.488 523.953 100.551 523.703 100.629 523.438C100.707 523.156 100.801 522.891 100.91 522.641L106.512 521.445L106.488 511.555C106.613 511.414 106.809 511.211 107.074 510.945C107.34 510.68 107.621 510.43 107.918 510.195L107.941 521.141L111.363 520.414V512.75C111.504 512.578 111.691 512.383 111.926 512.164C112.176 511.93 112.473 511.688 112.816 511.438V520.109L118.77 518.844C118.723 519.062 118.66 519.32 118.582 519.617C118.52 519.898 118.441 520.156 118.348 520.391L112.816 521.562V525.078L118.816 523.789C118.77 524.117 118.605 524.641 118.324 525.359L111.387 526.859L111.363 521.867L108.199 522.547L107.941 522.805V525.805C107.926 525.898 107.91 525.969 107.895 526.016L106.676 527.867C106.676 527.898 106.598 528.008 106.441 528.195C106.285 528.383 106.066 528.539 105.785 528.664C105.332 528.789 104.723 528.93 103.957 529.086L102.668 529.344L99.3164 530.07ZM140.63 521.72V531.968C140.63 536.36 138.47 538.544 134.462 538.544C131.39 538.544 128.654 536.864 128.654 531.896C128.654 530.264 128.846 528.68 129.23 527.24L131.126 526.88C130.694 528.488 130.478 530.12 130.478 531.728C130.478 536 132.686 537.08 134.678 537.08C137.03 537.08 138.806 535.856 138.806 532.088V521.72H140.63ZM133.334 522.776C133.334 522.152 133.862 521.6 134.486 521.6C135.11 521.6 135.662 522.128 135.662 522.776C135.662 523.424 135.11 523.928 134.486 523.928C133.838 523.928 133.334 523.424 133.334 522.776ZM148.761 539.072C146.889 539.072 144.969 538.712 144.969 538.712L145.113 537.128C145.113 537.128 147.201 537.632 148.977 537.632C151.641 537.632 153.753 536.624 153.753 533.672V533H151.113C146.529 533 144.873 530.816 144.873 527.384C144.873 524.24 146.817 521.456 150.801 521.456C153.369 521.456 155.553 522.296 155.553 522.296V531.536H158.889V533H155.553V533.624C155.553 536.24 153.849 539.072 148.761 539.072ZM153.753 531.536V523.52C153.753 523.52 152.481 522.92 150.585 522.92C148.209 522.92 146.721 524.6 146.721 527.168C146.721 530.12 148.089 531.536 151.401 531.536H153.753ZM167.439 533H158.535C158.055 533 157.095 532.736 157.095 532.256C157.095 531.8 158.055 531.536 158.535 531.536H162.255V521.72H164.079V531.536H167.439V533ZM160.335 536.504C160.335 535.88 160.839 535.352 161.463 535.352C162.087 535.352 162.615 535.856 162.615 536.504C162.615 537.128 162.087 537.632 161.463 537.632C160.839 537.632 160.335 537.128 160.335 536.504ZM163.671 536.504C163.671 535.88 164.175 535.352 164.799 535.352C165.423 535.352 165.927 535.856 165.927 536.504C165.927 537.128 165.423 537.632 164.799 537.632C164.175 537.632 163.671 537.128 163.671 536.504ZM167.089 533C166.609 533 165.649 532.736 165.649 532.256C165.649 531.8 166.609 531.536 167.089 531.536H170.809V516.08H172.633V531.536H175.993V533H167.089ZM188.868 533H175.644C175.164 533 174.204 532.736 174.204 532.256C174.204 531.8 175.164 531.536 175.644 531.536H178.476C179.316 531.536 179.868 531.632 179.868 531.632C178.596 530.864 177.924 529.496 177.924 527.336C177.924 524.216 179.94 521.456 183.828 521.456C187.164 521.456 188.868 523.352 188.868 526.784V533ZM187.068 531.536V527.168C187.068 524.096 185.796 522.92 183.636 522.92C181.26 522.92 179.796 524.6 179.796 527.192C179.796 530.144 181.164 531.536 184.476 531.536H187.068ZM196.478 526.064C196.478 529.448 195.71 533.576 192.95 537.968L191.702 537.296C193.694 533.936 194.726 530.072 194.726 526.184C194.726 522.056 193.742 518.408 191.678 514.976L192.998 514.304C195.878 518.888 196.478 522.656 196.478 526.064Z" fill="#4E5F6E"/>
<path d="M73.3672 915.451H111.641V558H92.5043C87.4288 558 82.5612 559.419 78.9723 561.944C75.3834 564.469 73.3672 567.894 73.3672 571.466V915.451Z" fill="#D0E4A5"/>
<path d="M111.641 815.365H73.3672V915.447H111.641V815.365Z" fill="#D0E4A5"/>
<path d="M99 879.433V882.861C99 886.094 97.5236 887.342 95.186 887.43V887.993C95.186 889.328 96.0121 889.785 97.84 889.504L103.57 888.59V889.908L97.9806 890.805C95.643 891.156 94.1139 890.313 94.1139 887.905V887.378C92.1278 887.096 90.546 885.655 90.546 883.124C90.546 880.699 91.9345 879.433 94.4478 879.433H99ZM97.9279 880.751H94.7291C92.4793 880.751 91.6181 881.683 91.6181 883.265C91.6181 885.005 92.8484 886.077 94.7466 886.077C96.9085 886.077 97.9279 885.075 97.9279 882.65V880.751ZM99 869.999V876.783H97.9279L95.1509 874.41C92.866 872.424 91.706 871.897 90.3351 871.897C89.1223 871.897 88.1381 872.582 88.1381 874.112C88.1381 874.885 88.4545 875.781 88.8587 876.484L87.6635 876.678C87.2593 875.852 86.9781 874.938 86.9781 873.778C86.9781 871.633 88.349 870.456 90.1417 870.456C91.8115 870.456 93.2527 871.229 95.7309 873.391L97.8048 875.166H97.8224C97.7697 874.164 97.7521 872.161 97.7521 869.999H99ZM92.9539 859.77C97.2073 859.77 99.1406 861.686 99.1406 864.094C99.1406 866.449 97.6642 868.172 93.1824 868.172C88.929 868.172 86.9957 866.256 86.9957 863.848C86.9957 861.493 88.4896 859.77 92.9539 859.77ZM93.1121 861.177C89.6848 861.177 88.0854 862.143 88.0854 863.971C88.0854 865.553 89.4563 866.766 93.0418 866.766C96.4515 866.766 98.0333 865.799 98.0333 863.971C98.0333 862.389 96.68 861.177 93.1121 861.177ZM99 851.513V858.298H97.9279L95.1509 855.925C92.866 853.939 91.706 853.411 90.3351 853.411C89.1223 853.411 88.1381 854.097 88.1381 855.626C88.1381 856.399 88.4545 857.296 88.8587 857.999L87.6635 858.192C87.2593 857.366 86.9781 856.452 86.9781 855.292C86.9781 853.148 88.349 851.97 90.1417 851.97C91.8115 851.97 93.2527 852.744 95.7309 854.905L97.8048 856.681H97.8224C97.7697 855.679 97.7521 853.675 97.7521 851.513H99ZM95.4848 843.095C97.5939 843.095 99.1406 844.993 99.1406 847.595C99.1406 848.315 99.0703 849.036 98.9473 849.493L97.7345 849.317C97.8927 848.878 97.9806 848.157 97.9806 847.507C97.9806 845.626 96.9085 844.501 95.5551 844.501C94.2018 844.501 93.323 845.679 93.323 847.806C93.323 848.175 93.3406 848.509 93.3757 848.86H92.3036C92.3739 846.136 91.4951 844.958 89.9484 844.958C88.7708 844.958 88.0854 845.749 88.0854 847.032C88.0854 847.806 88.2963 848.491 88.6302 849.141L87.4878 849.247C87.189 848.526 86.9781 847.682 86.9781 846.786C86.9781 844.554 88.2084 843.57 89.7199 843.57C91.0908 843.57 92.1454 844.361 92.6024 845.609H92.6375C92.9539 844.15 93.9733 843.095 95.4848 843.095Z" fill="#231F20"/>
<path d="M127.566 915.45H165.914V589.516H146.703C144.188 589.516 141.698 589.864 139.374 590.542C137.051 591.22 134.94 592.213 133.163 593.466C131.386 594.718 129.976 596.204 129.016 597.84C128.056 599.476 127.563 601.229 127.566 602.999V915.45Z" fill="#D0E4A5"/>
<path d="M165.813 815.365H127.539V915.447H165.813V815.365Z" fill="#D0E4A5"/>
<path d="M153 879.433V882.861C153 886.094 151.524 887.342 149.186 887.43V887.993C149.186 889.328 150.012 889.785 151.84 889.504L157.57 888.59V889.908L151.981 890.805C149.643 891.156 148.114 890.313 148.114 887.905V887.378C146.128 887.096 144.546 885.655 144.546 883.124C144.546 880.699 145.934 879.433 148.448 879.433H153ZM151.928 880.751H148.729C146.479 880.751 145.618 881.683 145.618 883.265C145.618 885.005 146.848 886.077 148.747 886.077C150.908 886.077 151.928 885.075 151.928 882.65V880.751ZM153 869.999V876.783H151.928L149.151 874.41C146.866 872.424 145.706 871.897 144.335 871.897C143.122 871.897 142.138 872.582 142.138 874.112C142.138 874.885 142.454 875.781 142.859 876.484L141.664 876.678C141.259 875.852 140.978 874.938 140.978 873.778C140.978 871.633 142.349 870.456 144.142 870.456C145.811 870.456 147.253 871.229 149.731 873.391L151.805 875.166H151.822C151.77 874.164 151.752 872.161 151.752 869.999H153ZM146.954 859.77C151.207 859.77 153.141 861.686 153.141 864.094C153.141 866.449 151.664 868.172 147.182 868.172C142.929 868.172 140.996 866.256 140.996 863.848C140.996 861.493 142.49 859.77 146.954 859.77ZM147.112 861.177C143.685 861.177 142.085 862.143 142.085 863.971C142.085 865.553 143.456 866.766 147.042 866.766C150.451 866.766 152.033 865.799 152.033 863.971C152.033 862.389 150.68 861.177 147.112 861.177ZM153 851.513V858.298H151.928L149.151 855.925C146.866 853.939 145.706 853.411 144.335 853.411C143.122 853.411 142.138 854.097 142.138 855.626C142.138 856.399 142.454 857.296 142.859 857.999L141.664 858.192C141.259 857.366 140.978 856.452 140.978 855.292C140.978 853.148 142.349 851.97 144.142 851.97C145.811 851.97 147.253 852.744 149.731 854.905L151.805 856.681H151.822C151.77 855.679 151.752 853.675 151.752 851.513H153ZM150.17 841.719V843.775H153V845.093H150.17V850.454L149.133 850.542L141.136 845.568V843.775H148.958V841.719H150.17ZM148.958 845.076H142.402V845.093L149.01 849.224C148.958 848.081 148.958 845.797 148.958 845.076Z" fill="#231F20"/>
<path d="M181.746 915.447H220.045V624.691H200.883C195.808 624.691 190.94 626.11 187.351 628.635C183.762 631.161 181.746 634.586 181.746 638.157V915.447Z" fill="#A5CF4F"/>
<path d="M207 879.433V882.861C207 886.094 205.524 887.342 203.186 887.43V887.993C203.186 889.328 204.012 889.785 205.84 889.504L211.57 888.59V889.908L205.981 890.805C203.643 891.156 202.114 890.313 202.114 887.905V887.378C200.128 887.096 198.546 885.655 198.546 883.124C198.546 880.699 199.934 879.433 202.448 879.433H207ZM205.928 880.751H202.729C200.479 880.751 199.618 881.683 199.618 883.265C199.618 885.005 200.848 886.077 202.747 886.077C204.908 886.077 205.928 885.075 205.928 882.65V880.751ZM207 869.999V876.783H205.928L203.151 874.41C200.866 872.424 199.706 871.897 198.335 871.897C197.122 871.897 196.138 872.582 196.138 874.112C196.138 874.885 196.454 875.781 196.859 876.484L195.664 876.678C195.259 875.852 194.978 874.938 194.978 873.778C194.978 871.633 196.349 870.456 198.142 870.456C199.811 870.456 201.253 871.229 203.731 873.391L205.805 875.166H205.822C205.77 874.164 205.752 872.161 205.752 869.999H207ZM200.954 859.77C205.207 859.77 207.141 861.686 207.141 864.094C207.141 866.449 205.664 868.172 201.182 868.172C196.929 868.172 194.996 866.256 194.996 863.848C194.996 861.493 196.49 859.77 200.954 859.77ZM201.112 861.177C197.685 861.177 196.085 862.143 196.085 863.971C196.085 865.553 197.456 866.766 201.042 866.766C204.451 866.766 206.033 865.799 206.033 863.971C206.033 862.389 204.68 861.177 201.112 861.177ZM207 851.513V858.298H205.928L203.151 855.925C200.866 853.939 199.706 853.411 198.335 853.411C197.122 853.411 196.138 854.097 196.138 855.626C196.138 856.399 196.454 857.296 196.859 857.999L195.664 858.192C195.259 857.366 194.978 856.452 194.978 855.292C194.978 853.148 196.349 851.97 198.142 851.97C199.811 851.97 201.253 852.744 203.731 854.905L205.805 856.681H205.822C205.77 855.679 205.752 853.675 205.752 851.513H207ZM203.116 843.148C205.524 843.148 207.123 845.099 207.123 847.788C207.123 848.438 207.053 849.124 206.947 849.546L205.735 849.37C205.875 848.948 205.981 848.262 205.981 847.665C205.981 845.732 204.926 844.536 203.309 844.536C201.762 844.536 200.936 845.644 200.936 848.192C200.936 848.456 200.936 848.825 200.971 849.124H195.136V843.816H196.419L196.402 847.876H199.847C199.811 844.624 201.077 843.148 203.116 843.148Z" fill="white"/>
<path d="M96.1094 605.653V606.919H85.2475L87.216 609.151L86.2669 609.942L83.6656 606.778V605.653H96.1094ZM98.57 599.683V600.861L94.4397 599.683V598.26L98.57 599.683ZM96.1094 590.995V592.261H85.2475L87.216 594.493L86.2669 595.284L83.6656 592.12V590.995H96.1094ZM84.8256 579.014L96.1094 584.023V585.447L84.8256 580.332V586.396H83.6656V579.014H84.8256ZM84.9311 571.533V571.568L91.9966 575.856V571.533H84.9311ZM91.9966 570.267V568.475H93.1566V570.267H96.1094V571.533H93.1566V576.911H91.7154L83.6656 571.884V570.267H91.9966Z" fill="#231F20"/>
<path d="M150.309 641.618V642.883H139.447L141.415 645.116L140.466 645.906L137.865 642.743V641.618H150.309ZM152.769 635.648V636.826L148.639 635.648V634.224L152.769 635.648ZM150.309 626.96V628.225H139.447L141.415 630.458L140.466 631.248L137.865 628.085V626.96H150.309ZM150.309 614.557V622.466H148.85L143.806 617.51C143.618 617.323 143.419 617.135 143.208 616.948C142.997 616.76 142.774 616.59 142.54 616.438C142.306 616.286 142.06 616.163 141.802 616.069C141.544 615.975 141.275 615.928 140.993 615.928C140.654 615.928 140.349 615.993 140.079 616.121C139.81 616.239 139.581 616.409 139.394 616.631C139.206 616.854 139.066 617.112 138.972 617.405C138.867 617.697 138.814 618.008 138.814 618.336C138.814 618.969 138.99 619.508 139.341 619.953C139.693 620.398 140.167 620.685 140.765 620.814L140.624 622.15C139.699 621.974 138.972 621.552 138.445 620.885C137.918 620.205 137.654 619.385 137.654 618.424C137.654 617.92 137.724 617.446 137.865 617C137.994 616.543 138.193 616.145 138.462 615.805C138.732 615.454 139.072 615.178 139.482 614.979C139.88 614.768 140.349 614.663 140.888 614.663C141.368 614.663 141.808 614.739 142.206 614.891C142.604 615.032 142.979 615.219 143.331 615.454C143.682 615.688 144.016 615.957 144.333 616.262C144.649 616.555 144.96 616.86 145.264 617.176L149.149 621.095V614.557H150.309ZM139.025 605.371V610.468L142.769 610.538C142.663 610.269 142.587 609.993 142.54 609.712C142.493 609.431 142.47 609.15 142.47 608.869C142.47 608.283 142.569 607.75 142.769 607.269C142.968 606.789 143.249 606.379 143.612 606.039C143.964 605.687 144.386 605.418 144.878 605.23C145.358 605.031 145.885 604.932 146.459 604.932C147.057 604.932 147.608 605.037 148.112 605.248C148.604 605.459 149.031 605.752 149.395 606.127C149.746 606.502 150.022 606.947 150.221 607.462C150.42 607.966 150.52 608.517 150.52 609.115C150.52 609.9 150.332 610.609 149.957 611.241C149.582 611.874 149.031 612.36 148.305 612.7L147.76 611.452C148.252 611.218 148.645 610.89 148.938 610.468C149.219 610.046 149.359 609.56 149.359 609.009C149.359 608.611 149.289 608.242 149.149 607.902C148.996 607.562 148.797 607.269 148.551 607.023C148.305 606.765 148.012 606.566 147.672 606.425C147.332 606.273 146.969 606.197 146.583 606.197C146.149 606.197 145.751 606.273 145.387 606.425C145.024 606.578 144.714 606.789 144.456 607.058C144.186 607.328 143.981 607.65 143.841 608.025C143.7 608.4 143.63 608.81 143.63 609.255C143.63 609.7 143.694 610.146 143.823 610.591C143.94 611.025 144.104 611.44 144.315 611.839L137.865 611.716V605.371H139.025Z" fill="#231F20"/>
<path d="M204.488 681.737V683.003H193.626L195.595 685.235L194.646 686.026L192.045 682.862V681.737H204.488ZM206.949 675.767V676.945L202.819 675.767V674.344L206.949 675.767ZM192.994 668.309C192.994 668.989 193.175 669.528 193.538 669.926C193.902 670.313 194.353 670.606 194.892 670.805C195.431 671.004 196.005 671.133 196.614 671.192C197.224 671.239 197.774 671.262 198.266 671.262C198.759 671.262 199.309 671.239 199.919 671.192C200.528 671.133 201.102 671.004 201.641 670.805C202.18 670.606 202.631 670.313 202.994 669.926C203.358 669.528 203.539 668.989 203.539 668.309C203.539 667.63 203.358 667.097 202.994 666.71C202.631 666.312 202.18 666.013 201.641 665.814C201.102 665.614 200.528 665.491 199.919 665.445C199.309 665.386 198.759 665.357 198.266 665.357C197.774 665.357 197.224 665.386 196.614 665.445C196.005 665.491 195.431 665.614 194.892 665.814C194.353 666.013 193.902 666.312 193.538 666.71C193.175 667.097 192.994 667.63 192.994 668.309ZM191.834 668.309C191.834 667.419 192.039 666.698 192.449 666.148C192.859 665.597 193.38 665.169 194.013 664.865C194.646 664.56 195.343 664.355 196.105 664.249C196.854 664.144 197.575 664.091 198.266 664.091C198.958 664.091 199.684 664.144 200.446 664.249C201.196 664.355 201.887 664.56 202.52 664.865C203.153 665.169 203.674 665.597 204.084 666.148C204.494 666.698 204.699 667.419 204.699 668.309C204.699 669.2 204.494 669.921 204.084 670.471C203.674 671.022 203.153 671.45 202.52 671.754C201.887 672.059 201.196 672.264 200.446 672.369C199.684 672.475 198.958 672.528 198.266 672.528C197.575 672.528 196.854 672.475 196.105 672.369C195.343 672.264 194.646 672.059 194.013 671.754C193.38 671.45 192.859 671.022 192.449 670.471C192.039 669.921 191.834 669.2 191.834 668.309ZM200.991 655.872C200.627 655.872 200.293 655.936 199.989 656.065C199.672 656.194 199.403 656.375 199.18 656.61C198.946 656.832 198.764 657.114 198.636 657.453C198.507 657.781 198.442 658.145 198.442 658.543C198.442 658.953 198.507 659.322 198.636 659.65C198.764 659.978 198.946 660.26 199.18 660.494C199.403 660.717 199.672 660.892 199.989 661.021C200.293 661.15 200.627 661.215 200.991 661.215C201.354 661.215 201.694 661.15 202.01 661.021C202.315 660.892 202.584 660.717 202.819 660.494C203.041 660.26 203.217 659.978 203.346 659.65C203.475 659.322 203.539 658.953 203.539 658.543C203.539 658.145 203.475 657.781 203.346 657.453C203.217 657.114 203.041 656.832 202.819 656.61C202.584 656.375 202.315 656.194 202.01 656.065C201.694 655.936 201.354 655.872 200.991 655.872ZM195.191 656.329C194.874 656.329 194.581 656.387 194.312 656.504C194.042 656.61 193.814 656.762 193.626 656.961C193.427 657.16 193.275 657.395 193.169 657.664C193.052 657.934 192.994 658.227 192.994 658.543C192.994 658.859 193.052 659.152 193.169 659.422C193.275 659.691 193.427 659.926 193.626 660.125C193.814 660.324 194.042 660.482 194.312 660.599C194.581 660.705 194.874 660.758 195.191 660.758C195.507 660.758 195.8 660.705 196.069 660.599C196.339 660.482 196.573 660.324 196.772 660.125C196.96 659.926 197.112 659.691 197.229 659.422C197.335 659.152 197.388 658.859 197.388 658.543C197.388 658.227 197.335 657.934 197.229 657.664C197.112 657.395 196.96 657.16 196.772 656.961C196.573 656.762 196.339 656.61 196.069 656.504C195.8 656.387 195.507 656.329 195.191 656.329ZM197.862 660.16C197.768 660.43 197.634 660.681 197.458 660.916C197.27 661.138 197.054 661.332 196.808 661.496C196.562 661.66 196.292 661.789 195.999 661.883C195.706 661.976 195.402 662.023 195.085 662.023C194.593 662.023 194.148 661.929 193.749 661.742C193.339 661.554 192.994 661.302 192.712 660.986C192.431 660.67 192.214 660.301 192.062 659.879C191.91 659.457 191.834 659.012 191.834 658.543C191.834 658.074 191.91 657.629 192.062 657.207C192.214 656.785 192.431 656.416 192.712 656.1C192.994 655.784 193.339 655.532 193.749 655.344C194.148 655.157 194.593 655.063 195.085 655.063C195.402 655.063 195.706 655.11 195.999 655.204C196.292 655.297 196.562 655.426 196.808 655.59C197.054 655.754 197.27 655.954 197.458 656.188C197.634 656.411 197.768 656.657 197.862 656.926H197.897C198.085 656.223 198.471 655.661 199.057 655.239C199.643 654.817 200.346 654.606 201.166 654.606C201.705 654.606 202.192 654.717 202.625 654.94C203.059 655.151 203.434 655.438 203.75 655.801C204.055 656.153 204.289 656.569 204.453 657.049C204.617 657.518 204.699 658.016 204.699 658.543C204.699 659.07 204.617 659.574 204.453 660.055C204.289 660.523 204.055 660.939 203.75 661.302C203.434 661.654 203.059 661.941 202.625 662.164C202.192 662.375 201.705 662.48 201.166 662.48C200.346 662.48 199.643 662.269 199.057 661.847C198.471 661.426 198.085 660.863 197.897 660.16H197.862ZM197.388 650.077V649.427C197.388 649.064 197.347 648.718 197.265 648.39C197.183 648.05 197.054 647.757 196.878 647.511C196.69 647.265 196.45 647.072 196.157 646.931C195.864 646.779 195.513 646.703 195.103 646.703C194.435 646.703 193.919 646.908 193.556 647.318C193.181 647.716 192.994 648.279 192.994 649.005C192.994 649.533 193.111 649.995 193.345 650.394C193.58 650.792 193.919 651.12 194.365 651.378L193.802 652.485C193.134 652.11 192.642 651.636 192.326 651.062C191.998 650.476 191.834 649.802 191.834 649.04C191.834 648.548 191.904 648.085 192.045 647.652C192.185 647.218 192.396 646.838 192.677 646.509C192.947 646.181 193.287 645.924 193.697 645.736C194.095 645.537 194.552 645.437 195.068 645.437C195.407 645.437 195.73 645.496 196.034 645.613C196.339 645.719 196.614 645.871 196.86 646.07C197.106 646.258 197.323 646.48 197.511 646.738C197.686 646.996 197.821 647.265 197.915 647.546L197.95 647.494C198.02 647.142 198.155 646.82 198.354 646.527C198.542 646.234 198.776 645.982 199.057 645.771C199.339 645.56 199.655 645.396 200.006 645.279C200.358 645.162 200.727 645.103 201.114 645.103C201.688 645.103 202.198 645.209 202.643 645.42C203.088 645.631 203.463 645.918 203.768 646.281C204.072 646.644 204.307 647.066 204.471 647.546C204.623 648.027 204.699 648.537 204.699 649.076C204.699 649.99 204.5 650.786 204.102 651.466C203.703 652.145 203.065 652.655 202.186 652.995L201.782 651.659C202.379 651.448 202.824 651.138 203.117 650.728C203.399 650.306 203.539 649.72 203.539 648.97C203.539 648.619 203.481 648.285 203.363 647.968C203.246 647.652 203.082 647.377 202.871 647.142C202.649 646.896 202.385 646.709 202.08 646.58C201.776 646.439 201.442 646.369 201.079 646.369C200.61 646.369 200.217 646.457 199.901 646.633C199.573 646.808 199.309 647.043 199.11 647.336C198.911 647.628 198.77 647.968 198.688 648.355C198.594 648.73 198.548 649.122 198.548 649.533V650.077H197.388Z" fill="white"/>
<path d="M46.8858 559.568L33.5117 570.307H60.2599L46.8858 559.568ZM46.8858 570.307L60.2599 581.045H33.5117L46.8858 570.307Z" fill="#A5CF4F"/>
</g>
<defs>
<linearGradient id="paint0_linear_1089_13820" x1="-17.0938" y1="455.704" x2="126.349" y2="455.704" gradientUnits="userSpaceOnUse">
<stop stop-color="white"/>
<stop offset="1"/>
</linearGradient>
<clipPath id="clip0_1089_13820">
<rect width="579" height="917" fill="white"/>
</clipPath>
<clipPath id="clip1_1089_13820">
<rect width="648.959" height="933.4" fill="white" transform="translate(0 -5.10156)"/>
</clipPath>
</defs>
</svg>
