<svg width="373" height="373" viewBox="0 0 373 373" fill="none" xmlns="http://www.w3.org/2000/svg">
<g clip-path="url(#clip0_1200_6794)">
<mask id="mask0_1200_6794" style="mask-type:luminance" maskUnits="userSpaceOnUse" x="0" y="0" width="373" height="373">
<path d="M373 0H0V373H373V0Z" fill="white"/>
</mask>
<g mask="url(#mask0_1200_6794)">
<mask id="mask1_1200_6794" style="mask-type:luminance" maskUnits="userSpaceOnUse" x="0" y="0" width="373" height="373">
<path d="M373 0H0V373H373V0Z" fill="white"/>
</mask>
<g mask="url(#mask1_1200_6794)">
<g style="mix-blend-mode:multiply">
<mask id="mask2_1200_6794" style="mask-type:luminance" maskUnits="userSpaceOnUse" x="-41" y="-36" width="455" height="414">
<path d="M413.198 -35.7305H-40.1992V377.468H413.198V-35.7305Z" fill="white"/>
</mask>
<g mask="url(#mask2_1200_6794)">
<mask id="mask3_1200_6794" style="mask-type:luminance" maskUnits="userSpaceOnUse" x="0" y="0" width="373" height="373">
<path d="M373 0H0V373H373V0Z" fill="white"/>
</mask>
<g mask="url(#mask3_1200_6794)">
<g clip-path="url(#clip1_1200_6794)">
<mask id="mask4_1200_6794" style="mask-type:luminance" maskUnits="userSpaceOnUse" x="-8" y="25" width="396" height="330">
<path d="M387.674 25.1191H-7.60547V354.851H387.674V25.1191Z" fill="white"/>
</mask>
<g mask="url(#mask4_1200_6794)">
<path d="M277.867 353.827C245.038 353.827 214.319 342.862 187.974 332.46C161.629 342.708 130.91 353.827 98.0817 353.827H92.4731C81.3267 353.782 70.3467 351.132 60.4164 346.09C52.9114 342.077 46.7829 335.921 42.8187 328.412C38.9135 320.581 37.4956 311.752 38.7537 303.099L39.5256 298.744C40.7091 294.03 46.2148 270.1 40.9663 249.758C4.33015 194.316 -10.0774 144.1 -0.661075 104.543C2.48869 91.4712 8.38112 79.2115 16.6288 68.5696C24.8764 57.9278 35.2926 49.1449 47.1924 42.7982C67.9438 31.3916 91.3659 25.6798 115.062 26.2475C177.22 26.2475 242.62 58.0678 267.215 71.3903C273.252 69.8156 279.416 68.7696 285.636 68.2646H286.048C288.055 68.2646 289.907 68.2646 291.657 68.2646C293.406 68.2646 295.361 68.2646 297.111 68.2646C298.973 68.3653 300.829 68.5707 302.668 68.8796C304.315 68.8796 305.807 69.3407 307.145 69.5969H308.122C315.432 71.1862 322.517 73.6643 329.219 76.9755C343.304 84.1345 355.354 94.707 364.26 107.72C377.332 126.63 384.051 149.179 383.453 172.129C383.453 209.329 374.551 238.229 357.056 255.753C350.483 262.374 342.449 267.374 333.593 270.357C335.033 280.861 336.731 294.03 337.452 304.124C337.452 306.02 337.812 307.916 337.761 309.812C337.597 316.17 336.034 322.414 333.181 328.105C329.214 335.641 323.065 341.818 315.532 345.834C305.606 350.886 294.623 353.537 283.475 353.571L277.867 353.827Z" fill="white"/>
<path d="M371.003 172.385C371.538 151.914 365.579 131.797 353.971 114.893C346.271 103.59 335.829 94.4069 323.612 88.1972C317.937 85.3464 311.92 83.2284 305.706 81.8946H304.677C303.437 81.6192 302.183 81.414 300.92 81.2797C299.352 81.0276 297.772 80.8565 296.187 80.7673C294.694 80.7673 293.202 80.7673 291.659 80.7673H286.513C279.404 81.377 272.382 82.7515 265.571 84.8666C247.664 74.6185 178.92 38.7503 114.961 38.7503C93.4248 38.1517 72.1157 43.2621 53.2145 53.5587C42.7906 59.0821 33.6596 66.7414 26.4226 76.0325C19.1856 85.3235 14.0068 96.0357 11.2271 107.464C2.63402 143.639 16.3725 190.576 51.2078 243.097L52.2369 244.634C59.0291 267.948 53.1116 294.85 51.3621 301.818L55.7359 312.066L57.6912 316.729C57.7073 315.419 57.8625 314.113 58.1543 312.835C61.3445 300.281 68.4454 265.13 60.9843 241.098C60.1096 238.383 -32.7672 114.381 57.9485 62.0646C124.12 23.9417 231.816 76.3095 264.284 95.3197C271.649 92.7585 279.307 91.1231 287.079 90.4518C289.785 90.2469 292.503 90.2469 295.209 90.4518C296.605 90.5122 297.996 90.649 299.377 90.8617C300.766 90.8617 302.052 91.3229 303.39 91.5791C308.828 92.7586 314.099 94.6 319.084 97.0619C329.88 102.579 339.101 110.721 345.892 120.735C356.46 136.054 361.866 154.32 361.329 172.898C361.586 226.034 340.747 255.753 309.102 251.654C311.189 272.5 314.522 293.204 319.084 313.655L325.156 309.607C324.744 296.079 321.091 271.74 319.65 260.928C330.476 259.9 340.581 255.068 348.156 247.299C363.284 232.183 371.157 206.306 371.003 172.539V172.385Z" fill="#CE202F"/>
<path d="M53.4221 180.429C51.9299 177.56 50.3862 174.383 48.8426 170.796C46.5846 165.797 44.6426 160.663 43.0281 155.424C41.1155 149.192 39.806 142.792 39.1175 136.311C38.7311 132.721 38.5935 129.108 38.7058 125.499C38.7058 123.45 38.7058 121.4 39.1689 119.812C39.632 118.223 39.6321 116.174 40.0952 114.124C40.9036 110.22 42.1105 106.408 43.697 102.749C45.3289 99.1274 47.3473 95.6916 49.7173 92.5005C52.0743 89.321 54.7463 86.3856 57.6929 83.7384C60.445 81.2685 63.4061 79.0397 66.5432 77.0771C72.3503 73.4836 78.6629 70.7723 85.2729 69.0324C91.0956 67.5684 97.0714 66.7944 103.076 66.7266H103.951C106.267 66.7266 108.582 66.7265 111.103 66.9827C113.625 67.2389 115.632 67.4439 118.41 67.8539C122.732 68.5712 126.591 69.4935 129.936 70.3646C127.415 70.3646 124.791 70.3646 121.755 70.3646H118.359C116.249 70.3646 113.728 70.3647 111.103 70.7746C108.479 71.1845 105.958 71.3383 103.334 71.7482C97.7164 72.6406 92.2012 74.0823 86.868 76.0524C81.0124 78.244 75.4618 81.1712 70.3508 84.7631C67.6558 86.6527 65.0942 88.7244 62.684 90.9633C60.2402 93.2957 58.0023 95.8328 55.9948 98.5468C53.9889 101.288 52.2651 104.224 50.8493 107.309C49.4459 110.348 48.3096 113.503 47.4532 116.737C47.0416 118.377 46.6814 120.119 46.4241 121.605C46.0943 123.299 45.8538 125.01 45.7038 126.729C45.3758 129.963 45.2384 133.214 45.2921 136.465C45.3866 142.582 45.9716 148.682 47.0416 154.706C47.8649 159.83 48.9969 164.954 50.4891 170.642C51.4153 173.512 52.4444 177.047 53.4221 180.429Z" fill="#CE202F"/>
<path d="M307.866 119.25C307.829 118.346 307.455 117.489 306.818 116.845C306.181 116.201 305.325 115.816 304.418 115.766H294.436C293.047 115.766 292.635 117.303 293.664 118.43C294.807 119.699 295.447 121.338 295.465 123.042V165.879C295.502 166.769 295.87 167.613 296.498 168.248C297.126 168.882 297.968 169.262 298.861 169.312H309.152C310.49 169.312 310.902 167.775 309.924 166.647C308.761 165.371 308.119 163.708 308.123 161.984V119.199L307.866 119.25Z" fill="#CE202F"/>
<path d="M155.297 177.561H146.344V186.476C146.394 187.379 146.78 188.231 147.427 188.866C148.074 189.501 148.935 189.873 149.843 189.909H158.693V180.994C158.643 180.091 158.256 179.239 157.609 178.604C156.963 177.969 156.101 177.597 155.194 177.561" fill="#CE202F"/>
<path d="M136.621 177.561H115.473V186.476C115.535 187.384 115.933 188.236 116.588 188.87C117.243 189.503 118.11 189.874 119.023 189.909H140.274V180.994C140.211 180.086 139.814 179.234 139.159 178.6C138.504 177.966 137.636 177.596 136.724 177.561" fill="#CE202F"/>
<path d="M93.3957 228.188H84.7511L89.4336 212.816L93.2927 228.188H93.3957ZM95.2995 207.692C95.1049 207.131 94.746 206.64 94.2691 206.284C93.7923 205.928 93.2192 205.722 92.6238 205.693H81.9726C81.0464 205.693 80.7891 206.718 81.5094 207.487C82.3634 208.288 82.8632 209.394 82.8987 210.561L72.6077 239.717C72.5327 240.106 72.5437 240.506 72.6402 240.889C72.7366 241.273 72.9161 241.631 73.1661 241.939C73.416 242.246 73.7305 242.496 74.0873 242.669C74.4441 242.843 74.8347 242.937 75.2319 242.945H80.3774L83.259 234.183H95.3509L97.1519 240.639C97.3356 241.216 97.6888 241.724 98.1658 242.099C98.6428 242.473 99.2217 242.697 99.8276 242.74H106.98L95.5568 207.487L95.2995 207.692Z" fill="black"/>
<path d="M189 231.003C189 237.716 184.523 237.767 183.855 237.767C183.359 237.823 182.857 237.768 182.385 237.606C181.914 237.443 181.485 237.178 181.13 236.829C180.774 236.48 180.502 236.057 180.333 235.59C180.163 235.122 180.101 234.623 180.15 234.129C180.15 229.517 185.656 229.415 189.154 229.415V231.003H189ZM196.924 235V224.752C196.924 218.654 194.763 214.504 184.678 214.504C181.513 214.624 178.379 215.175 175.364 216.144L175.725 222.344C178.125 220.822 180.907 220.005 183.752 219.987C184.465 219.927 185.183 220.027 185.852 220.28C186.522 220.533 187.126 220.932 187.619 221.449C188.113 221.965 188.484 222.585 188.705 223.263C188.927 223.941 188.992 224.66 188.897 225.367H186.221C183.186 225.367 171.968 225.367 171.917 234.436C171.87 235.586 172.068 236.732 172.498 237.799C172.928 238.867 173.579 239.832 174.411 240.631C175.242 241.429 176.233 242.043 177.32 242.433C178.407 242.823 179.564 242.979 180.716 242.891C182.289 243.014 183.866 242.695 185.267 241.971C186.668 241.246 187.836 240.145 188.64 238.792V239.919C188.736 240.636 189.083 241.296 189.619 241.783C190.156 242.27 190.847 242.554 191.573 242.584H197.799C198.725 242.584 198.982 241.559 198.262 240.79C197.551 240.074 197.068 239.165 196.873 238.177V234.949L196.924 235Z" fill="black"/>
<path d="M252.394 226.186C252.34 225.354 252.202 224.53 251.982 223.726C251.759 222.98 251.392 222.284 250.901 221.677C250.437 221.096 249.836 220.639 249.152 220.345C248.369 219.964 247.501 219.788 246.631 219.832C245.761 219.802 244.897 219.978 244.109 220.345C243.372 220.649 242.706 221.103 242.154 221.677C241.614 222.255 241.195 222.935 240.919 223.675C240.617 224.483 240.426 225.327 240.353 226.186H252.394ZM257.076 240.841C255.693 241.658 254.179 242.23 252.599 242.532C251.006 242.84 249.386 242.994 247.763 242.993C245.723 243.018 243.691 242.724 241.742 242.122C240.07 241.576 238.54 240.666 237.266 239.457C236.047 238.202 235.116 236.699 234.539 235.051C233.887 233.102 233.574 231.057 233.612 229.004C233.602 227.132 233.862 225.268 234.384 223.47C234.851 221.83 235.638 220.298 236.7 218.961C237.771 217.652 239.126 216.602 240.662 215.887C242.392 215.115 244.272 214.73 246.168 214.759C247.15 214.766 248.131 214.852 249.101 215.016C250.085 215.145 251.052 215.386 251.982 215.733C252.881 216.101 253.728 216.584 254.503 217.168C255.309 217.75 255.977 218.503 256.459 219.371C256.979 220.194 257.41 221.07 257.745 221.984C258.057 222.943 258.314 223.918 258.517 224.905C258.517 225.93 258.877 226.954 258.98 227.928C259.03 228.901 259.03 229.876 258.98 230.849H240.25C240.311 231.864 240.573 232.856 241.022 233.77C241.406 234.584 241.968 235.302 242.669 235.87C243.364 236.462 244.168 236.914 245.035 237.203C245.982 237.513 246.972 237.669 247.968 237.664C249.578 237.667 251.177 237.407 252.702 236.895C254.185 236.383 255.615 235.731 256.973 234.948V240.687L257.076 240.841Z" fill="black"/>
<path d="M281.679 226.186C281.625 225.354 281.487 224.53 281.267 223.726C281.044 222.98 280.677 222.284 280.187 221.677C279.722 221.096 279.122 220.639 278.437 220.345C277.654 219.964 276.786 219.788 275.916 219.832C275.047 219.802 274.183 219.978 273.395 220.345C272.657 220.649 271.991 221.103 271.439 221.677C270.899 222.255 270.48 222.935 270.204 223.675C269.902 224.483 269.712 225.327 269.638 226.186H281.679ZM286.361 240.841C284.979 241.658 283.464 242.23 281.885 242.532C280.291 242.84 278.671 242.994 277.048 242.993C275.008 243.018 272.976 242.724 271.028 242.122C269.355 241.576 267.826 240.666 266.551 239.457C265.332 238.202 264.401 236.699 263.824 235.051C263.173 233.102 262.859 231.057 262.898 229.004C262.887 227.132 263.147 225.268 263.67 223.47C264.136 221.83 264.923 220.298 265.985 218.961C267.057 217.652 268.411 216.602 269.947 215.887C271.677 215.115 273.557 214.73 275.453 214.759C276.436 214.766 277.417 214.852 278.386 215.016C279.37 215.145 280.337 215.386 281.267 215.733C282.166 216.101 283.013 216.584 283.789 217.168C284.595 217.75 285.262 218.503 285.744 219.371C286.264 220.194 286.695 221.07 287.03 221.984C287.342 222.943 287.6 223.918 287.802 224.905C287.802 225.93 288.162 226.954 288.265 227.928C288.315 228.901 288.315 229.876 288.265 230.849H269.844C269.905 231.864 270.167 232.856 270.616 233.77C271 234.584 271.562 235.302 272.263 235.87C272.958 236.462 273.762 236.914 274.629 237.203C275.576 237.513 276.566 237.669 277.562 237.664C279.172 237.667 280.771 237.407 282.296 236.895C283.779 236.383 285.209 235.731 286.567 234.948V240.687L286.361 240.841Z" fill="black"/>
<path d="M119.281 208.152C119.257 207.53 119.001 206.939 118.564 206.494C118.126 206.049 117.539 205.782 116.914 205.744H109.916C108.99 205.744 108.682 206.769 109.402 207.589C110.2 208.476 110.64 209.626 110.637 210.817V240.639C110.662 241.269 110.925 241.867 111.373 242.314C111.821 242.76 112.422 243.022 113.055 243.047H120.002C120.928 243.047 121.237 242.022 120.516 241.202C119.731 240.288 119.293 239.127 119.281 237.923V208.152Z" fill="black"/>
<path d="M309.1 215.12C307.633 214.972 306.156 215.276 304.867 215.991C303.579 216.705 302.542 217.797 301.896 219.117V217.17C301.871 216.539 301.608 215.941 301.16 215.495C300.712 215.049 300.111 214.787 299.478 214.762H292.532C291.554 214.762 291.245 215.786 291.966 216.606C292.759 217.5 293.214 218.642 293.252 219.834V240.638C293.277 241.255 293.535 241.84 293.973 242.277C294.412 242.714 294.999 242.97 295.619 242.995H302.565C303.543 242.995 303.852 241.97 303.131 241.202C302.327 240.294 301.871 239.132 301.845 237.922V228.494C302.154 225.266 303.234 222.448 307.402 222.499C308.391 222.501 309.375 222.622 310.335 222.858V215.12H309.1Z" fill="black"/>
<path d="M148.507 225.472L161.936 243.047H171.61L155.607 223.115L170.787 205.744H161.782L148.404 221.424V207.999C148.303 207.503 148.052 207.05 147.684 206.701C147.315 206.353 146.848 206.126 146.345 206.052H139.245C138.318 206.052 138.01 207.128 138.73 207.896C139.505 208.797 139.941 209.938 139.965 211.124V240.998C139.99 241.615 140.248 242.199 140.686 242.636C141.125 243.073 141.712 243.329 142.332 243.355H149.33C150.256 243.355 150.565 242.33 149.844 241.51C149.07 240.609 148.633 239.468 148.609 238.282V225.779L148.507 225.472Z" fill="black"/>
<path d="M221.68 231.671C221.503 232.655 221.174 233.606 220.703 234.489C220.245 235.329 219.614 236.063 218.85 236.642C218.003 237.215 216.993 237.502 215.969 237.461C215.015 237.495 214.071 237.265 213.242 236.795C212.466 236.237 211.817 235.521 211.338 234.694C210.822 233.816 210.441 232.866 210.206 231.876C210.049 231.202 209.946 230.517 209.897 229.827V228.033C209.95 227.343 210.053 226.658 210.206 225.984C210.386 224.985 210.752 224.029 211.286 223.165C211.755 222.316 212.426 221.594 213.242 221.064C214.122 220.546 215.126 220.273 216.149 220.273C217.172 220.273 218.176 220.546 219.056 221.064C219.827 221.6 220.447 222.323 220.857 223.165C221.288 224.042 221.6 224.973 221.783 225.932C221.941 226.898 222.027 227.875 222.041 228.853C222.037 229.851 221.934 230.847 221.732 231.825L221.68 231.671ZM228.73 223.37C228.376 221.772 227.712 220.257 226.775 218.912C225.894 217.591 224.69 216.515 223.276 215.787C221.672 215.017 219.91 214.631 218.13 214.659C216.531 214.621 214.946 214.955 213.499 215.633C212.093 216.351 210.891 217.408 210 218.707V208.152C209.975 207.535 209.717 206.95 209.279 206.513C208.84 206.076 208.253 205.82 207.633 205.795H200.635C199.709 205.795 199.4 206.82 200.121 207.64C200.907 208.513 201.346 209.643 201.356 210.816V240.69C201.381 241.307 201.638 241.892 202.077 242.328C202.515 242.765 203.103 243.021 203.723 243.047H210.72C211.647 243.047 211.955 242.022 211.235 241.253C210.798 240.742 210.465 240.15 210.257 239.511C211.125 240.556 212.215 241.396 213.448 241.971C215.016 242.678 216.717 243.044 218.439 243.044C220.16 243.044 221.862 242.678 223.43 241.971C224.846 241.222 226.05 240.129 226.929 238.794C227.879 237.437 228.543 235.903 228.884 234.285C229.707 230.762 229.707 227.098 228.884 223.575L228.73 223.37Z" fill="black"/>
<path d="M283.114 119.249C283.138 119.027 283.138 118.804 283.114 118.582C282.925 117.817 282.492 117.134 281.88 116.635C281.267 116.136 280.509 115.848 279.718 115.816H269.839C268.449 115.816 268.038 117.301 269.067 118.429C270.067 119.538 270.681 120.94 270.816 122.425C270.816 122.425 270.816 122.835 270.816 123.04V154.809C270.803 155.106 270.731 155.396 270.605 155.665C270.479 155.933 270.301 156.175 270.081 156.374C269.861 156.574 269.604 156.729 269.324 156.83C269.044 156.931 268.747 156.975 268.449 156.962H258.158V148.302C257.958 145.157 256.596 142.198 254.335 139.993C252.074 137.789 249.073 136.496 245.912 136.363H186.172C185.565 136.328 184.991 136.075 184.555 135.651C184.12 135.227 183.854 134.661 183.805 134.057V130.317C183.798 130.021 183.852 129.727 183.964 129.453C184.075 129.178 184.243 128.93 184.455 128.724C184.668 128.517 184.921 128.356 185.199 128.251C185.476 128.146 185.773 128.099 186.069 128.113H243.699C243.992 128.127 244.284 128.082 244.558 127.98C244.832 127.878 245.083 127.721 245.294 127.52C245.506 127.319 245.675 127.077 245.79 126.809C245.905 126.541 245.964 126.253 245.963 125.961V119.197C245.901 118.29 245.504 117.437 244.848 116.804C244.193 116.17 243.326 115.8 242.413 115.764H183.857C182.23 115.679 180.602 115.93 179.077 116.5C177.551 117.07 176.16 117.948 174.991 119.078C173.822 120.209 172.901 121.568 172.283 123.069C171.666 124.571 171.367 126.184 171.405 127.806V136.619C171.594 139.809 172.969 142.814 175.261 145.049C177.554 147.284 180.599 148.59 183.805 148.712H242.825C243.577 148.736 244.295 149.037 244.837 149.558C245.379 150.079 245.707 150.782 245.758 151.53V156.91H158.849V139.796C158.813 138.906 158.444 138.062 157.817 137.427C157.189 136.792 156.347 136.413 155.454 136.363H145.471C145.261 136.352 145.052 136.392 144.861 136.48C144.671 136.568 144.504 136.702 144.378 136.869C144.251 137.035 144.167 137.231 144.133 137.437C144.099 137.644 144.117 137.856 144.185 138.054C144.283 138.412 144.459 138.744 144.699 139.027C145.842 140.296 146.482 141.935 146.5 143.639V154.809C146.501 155.094 146.443 155.376 146.33 155.638C146.218 155.9 146.053 156.136 145.846 156.332C145.639 156.529 145.395 156.681 145.127 156.781C144.859 156.88 144.573 156.924 144.288 156.91H133.997V139.796C133.959 138.898 133.583 138.046 132.945 137.41C132.306 136.774 131.451 136.401 130.549 136.363H120.618C119.229 136.363 118.817 137.9 119.846 139.027C120.364 139.604 120.781 140.262 121.081 140.974V141.384C121.305 142.063 121.426 142.771 121.442 143.485V154.861C121.389 155.4 121.13 155.898 120.718 156.251C120.305 156.604 119.772 156.786 119.229 156.757H108.938V139.642C108.901 138.752 108.533 137.908 107.905 137.273C107.277 136.639 106.435 136.259 105.542 136.209H95.508C95.2276 136.2 94.9525 136.287 94.7281 136.454C94.5036 136.622 94.3432 136.861 94.2731 137.131C94.1943 137.437 94.1954 137.758 94.2764 138.063C94.3575 138.368 94.5159 138.647 94.7362 138.874C95.8999 140.129 96.5433 141.777 96.5372 143.485V170.335C96.5679 171.996 96.1554 173.634 95.3417 175.084C94.5281 176.533 93.3425 177.741 91.9062 178.585C89.3427 179.986 86.4489 180.678 83.5259 180.588C80.603 180.498 77.7577 179.629 75.2861 178.073C71.5813 176.382 70.1406 178.073 73.8968 181.659C76.7783 184.221 86.8636 192.881 97.5663 188.679C98.2029 188.431 98.8218 188.14 99.4187 187.808C102.329 186.04 104.734 183.556 106.401 180.595C108.068 177.633 108.942 174.294 108.938 170.899V169.157H280.438C280.743 169.17 281.046 169.124 281.333 169.021C281.619 168.918 281.882 168.759 282.107 168.554C282.331 168.35 282.513 168.103 282.642 167.828C282.771 167.554 282.844 167.256 282.857 166.953V119.044L283.114 119.249Z" fill="#CE202F"/>
<path d="M323.816 299.768C323.539 298.911 322.996 298.164 322.265 297.635C321.535 297.105 320.654 296.819 319.751 296.819C318.847 296.819 317.967 297.105 317.236 297.635C316.506 298.164 315.963 298.911 315.686 299.768C311.775 311.092 297.162 312.886 288.157 311.092C273.647 308.12 262.121 296.54 250.235 287.419C242.255 281.094 233.421 275.919 223.992 272.047C218.75 269.139 212.729 267.926 206.764 268.578C200.799 269.23 195.185 271.714 190.701 275.685C189.956 276.234 189.054 276.53 188.128 276.53C187.202 276.53 186.3 276.234 185.555 275.685C181.059 271.716 175.437 269.235 169.465 268.583C163.493 267.931 157.464 269.142 152.212 272.047C142.8 275.919 133.983 281.094 126.021 287.419C114.084 296.54 102.609 307.915 88.0474 311.092C79.0427 312.886 64.4809 311.092 60.5188 299.768C60.2417 298.911 59.6988 298.164 58.9683 297.635C58.2379 297.105 57.3575 296.819 56.4538 296.819C55.5501 296.819 54.6698 297.105 53.9393 297.635C53.2089 298.164 52.666 298.911 52.3889 299.768C50.0447 307.327 50.6511 315.488 54.0869 322.621C56.9327 327.968 61.3243 332.341 66.6935 335.175C74.9116 339.295 83.9922 341.42 93.1929 341.375C125.095 342.554 154.939 332.306 184.835 320.469C185.402 320.273 185.952 320.034 186.481 319.752C187.021 319.5 187.609 319.37 188.205 319.37C188.801 319.37 189.389 319.5 189.929 319.752L191.575 320.469C221.42 332.306 251.367 342.554 283.269 341.375C292.466 341.389 301.54 339.266 309.768 335.175C315.111 332.323 319.481 327.953 322.323 322.621C325.801 315.502 326.427 307.33 324.073 299.768H323.816Z" fill="black"/>
</g>
</g>
</g>
</g>
</g>
</g>
</g>
</g>
<defs>
<clipPath id="clip0_1200_6794">
<rect width="373" height="373" fill="white"/>
</clipPath>
<clipPath id="clip1_1200_6794">
<rect width="386.944" height="327.682" fill="white" transform="translate(-3.48438 26.1445)"/>
</clipPath>
</defs>
</svg>
