<svg width="48" height="48" viewBox="0 0 48 48" fill="none" xmlns="http://www.w3.org/2000/svg">
<g clip-path="url(#clip0_1218_13831)">
<path d="M47.93 0H0V47.93H47.93V0Z" fill="#B81E74"/>
<mask id="mask0_1218_13831" style="mask-type:luminance" maskUnits="userSpaceOnUse" x="0" y="0" width="48" height="48">
<path d="M47.93 0H0V47.93H47.93V0Z" fill="white"/>
</mask>
<g mask="url(#mask0_1218_13831)">
<path d="M28.8247 31.5293H19.4047C19.3789 31.5316 19.3548 31.5428 19.3365 31.5611C19.3182 31.5794 19.3069 31.6035 19.3047 31.6293V33.7693C19.3069 33.7951 19.3182 33.8192 19.3365 33.8375C19.3548 33.8558 19.3789 33.867 19.4047 33.8693H28.8247C28.8522 33.8694 28.8788 33.8592 28.8991 33.8407C28.9195 33.8222 28.9322 33.7967 28.9347 33.7693V31.6293C28.9322 31.6019 28.9195 31.5764 28.8991 31.5579C28.8788 31.5394 28.8522 31.5292 28.8247 31.5293Z" fill="white"/>
<path d="M34.3444 28.4593C33.9776 26.9596 33.2958 25.5551 32.3444 24.3392C32.648 24.7943 32.9155 25.2725 33.1444 25.7693C34.3723 28.0041 34.7001 30.6237 34.0607 33.0922C33.4213 35.5608 31.863 37.6918 29.7045 39.0495C27.5459 40.4072 24.9503 40.889 22.4483 40.3963C19.9464 39.9037 17.7271 38.4739 16.2444 36.3993C15.4375 35.3566 14.8553 34.158 14.5344 32.8793C14.0466 30.9238 14.1975 28.8636 14.9649 27C15.7323 25.1365 17.0759 23.5674 18.7992 22.5225C20.5225 21.4776 22.535 21.0116 24.5423 21.1927C26.5495 21.3739 28.446 22.1926 29.9544 23.5292L30.0144 23.5892C30.075 23.6359 30.1481 23.6638 30.2244 23.6693C30.3139 23.6661 30.3991 23.6305 30.4644 23.5693L31.6544 22.3793L31.7344 22.3092C31.7842 22.2465 31.8122 22.1693 31.8144 22.0892C31.8131 21.9994 31.7773 21.9134 31.7144 21.8493C30.5527 20.8382 29.2012 20.0689 27.7388 19.5861C26.2764 19.1034 24.7325 18.9169 23.1972 19.0376C21.662 19.1583 20.1662 19.5838 18.7972 20.2891C17.4282 20.9945 16.2135 21.9656 15.2241 23.1457C14.2347 24.3258 13.4904 25.6913 13.0347 27.1623C12.579 28.6333 12.421 30.1805 12.57 31.7132C12.719 33.246 13.1719 34.7337 13.9024 36.0895C14.6329 37.4452 15.6262 38.6418 16.8244 39.6093C18.7954 41.2312 21.2719 42.1121 23.8244 42.0993C24.6813 42.0923 25.5342 41.9815 26.3644 41.7693C27.76 41.4251 29.0741 40.8092 30.2316 39.9569C31.389 39.1046 32.3672 38.0326 33.1101 36.8021C33.8531 35.5716 34.3463 34.2067 34.5615 32.7855C34.7767 31.3643 34.7097 29.9146 34.3644 28.5193" fill="white"/>
<path d="M28.9347 27.62C28.9347 27.606 28.9319 27.5921 28.9262 27.5793C28.9206 27.5665 28.9123 27.5549 28.9019 27.5455C28.8916 27.5361 28.8793 27.5289 28.866 27.5246C28.8527 27.5202 28.8386 27.5186 28.8247 27.52H19.4047C19.3782 27.52 19.3527 27.5305 19.334 27.5493C19.3152 27.5681 19.3047 27.5935 19.3047 27.62V29.75C19.3046 29.7775 19.3148 29.8041 19.3333 29.8245C19.3518 29.8448 19.3773 29.8575 19.4047 29.86H28.8247C28.8391 29.86 28.8534 29.8572 28.8668 29.8516C28.8801 29.8461 28.8923 29.838 28.9025 29.8278C28.9127 29.8176 28.9208 29.8055 28.9263 29.7921C28.9318 29.7788 28.9347 29.7645 28.9347 29.75V27.62Z" fill="white"/>
<path d="M4.94687 6.57961V13.8596H6.54688V4.34961H5.27688L3.79688 6.07961V7.74961H3.81687L4.93688 6.57961H4.94687Z" fill="white"/>
<path d="M9.25344 11.6592V6.54926C9.25344 5.97926 9.46344 5.54926 10.0134 5.54926C10.5634 5.54926 10.7834 5.95926 10.7834 6.54926V11.6592C10.7834 12.2292 10.5734 12.6592 10.0134 12.6592C9.45344 12.6592 9.25344 12.2492 9.25344 11.6592ZM12.3834 11.3993V6.79926C12.4045 6.47575 12.3589 6.15133 12.2496 5.84613C12.1403 5.54093 11.9695 5.26141 11.7478 5.02484C11.5262 4.78828 11.2583 4.59971 10.9608 4.47079C10.6634 4.34188 10.3426 4.27539 10.0184 4.27539C9.69425 4.27539 9.37351 4.34188 9.07604 4.47079C8.77858 4.59971 8.51073 4.78828 8.28906 5.02484C8.06738 5.26141 7.8966 5.54093 7.78727 5.84613C7.67794 6.15133 7.63239 6.47575 7.65344 6.79926V11.3993C7.63239 11.7228 7.67794 12.0472 7.78727 12.3524C7.8966 12.6576 8.06738 12.9371 8.28906 13.1736C8.51073 13.4102 8.77858 13.5988 9.07604 13.7277C9.37351 13.8566 9.69425 13.9231 10.0184 13.9231C10.3426 13.9231 10.6634 13.8566 10.9608 13.7277C11.2583 13.5988 11.5262 13.4102 11.7478 13.1736C11.9695 12.9371 12.1403 12.6576 12.2496 12.3524C12.3589 12.0472 12.4045 11.7228 12.3834 11.3993Z" fill="white"/>
<path d="M16.2872 4.91006V6.14008H16.5072C16.7372 6.14008 16.8372 6.03007 16.8372 5.82007V5.26007C16.8372 5.04007 16.7372 4.94006 16.5072 4.94006L16.2872 4.91006ZM16.2872 6.51007V8.33008H15.6172V4.33008H16.6172C17.2872 4.33008 17.5372 4.67006 17.5372 5.22006V5.73007C17.5637 5.90327 17.5224 6.08002 17.4218 6.22348C17.3212 6.36694 17.1691 6.46601 16.9972 6.50006L17.6372 8.30008H16.9372L16.2872 6.51007Z" fill="white"/>
<path d="M17.875 4.36914H19.465V4.90914H18.535V6.04914H19.195V6.58914H18.535V7.78914H19.465V8.33914H17.875V4.36914Z" fill="white"/>
<path d="M20.7734 7.78836C20.8264 7.7935 20.8798 7.78651 20.9296 7.76791C20.9795 7.74932 21.0244 7.71962 21.061 7.68106C21.0977 7.6425 21.125 7.5961 21.141 7.54538C21.1571 7.49466 21.1613 7.44097 21.1534 7.38837V5.30835C21.1613 5.25575 21.1571 5.20205 21.141 5.15134C21.125 5.10062 21.0977 5.05422 21.061 5.01566C21.0244 4.9771 20.9795 4.94739 20.9296 4.9288C20.8798 4.91021 20.8264 4.90321 20.7734 4.90836H20.4934V7.78836H20.7734ZM21.7734 5.42838V7.25836C21.7734 7.86836 21.5134 8.31836 20.7734 8.31836H19.7734V4.31836H20.7734C21.4834 4.31836 21.7734 4.76837 21.7734 5.38837" fill="white"/>
<path d="M24.1353 4.35938V7.35938C24.1353 7.96938 23.8753 8.35938 23.1953 8.35938C23.0597 8.37749 22.9218 8.3641 22.7922 8.32025C22.6626 8.2764 22.5449 8.20327 22.4482 8.10654C22.3514 8.00981 22.2783 7.89206 22.2345 7.76248C22.1906 7.6329 22.1772 7.49497 22.1953 7.35938V4.35938H22.8553V7.42938C22.8553 7.66938 22.9553 7.81937 23.1853 7.81937C23.4153 7.81937 23.5153 7.66938 23.5153 7.42938V4.35938H24.1353Z" fill="white"/>
<path d="M24.5172 7.30896V5.38898C24.4974 5.24988 24.509 5.10811 24.5512 4.97409C24.5934 4.84008 24.6651 4.71722 24.761 4.61456C24.857 4.51191 24.9747 4.43208 25.1056 4.38092C25.2364 4.32977 25.3771 4.3086 25.5172 4.31897C26.2572 4.31897 26.4572 4.72897 26.4572 5.31897V5.78897H25.8472V5.25897C25.8472 5.00897 25.7672 4.86896 25.5272 4.86896C25.2872 4.86896 25.1872 5.03896 25.1872 5.27896V7.40897C25.1872 7.64897 25.2872 7.81897 25.5272 7.81897C25.7672 7.81897 25.8472 7.66897 25.8472 7.43897V6.70899H26.4572V7.38898C26.4572 7.95898 26.2272 8.38898 25.5172 8.38898C25.3771 8.39935 25.2364 8.37818 25.1056 8.32703C24.9747 8.27587 24.857 8.19604 24.761 8.09339C24.6651 7.99073 24.5934 7.86787 24.5512 7.73386C24.509 7.59984 24.4974 7.45807 24.5172 7.31897" fill="white"/>
<path d="M26.8203 4.36914H28.4203V4.90914H27.4903V6.04914H28.1503V6.58914H27.4903V7.78914H28.4203V8.33914H26.8203V4.36914Z" fill="white"/>
<path d="M29.7188 7.78836C29.7725 7.79517 29.827 7.78943 29.8782 7.77158C29.9293 7.75372 29.9756 7.72426 30.0134 7.68549C30.0512 7.64672 30.0794 7.59968 30.096 7.54813C30.1125 7.49657 30.1169 7.4419 30.1087 7.38837V5.30835C30.1169 5.25482 30.1125 5.20015 30.096 5.14859C30.0794 5.09703 30.0512 5.05003 30.0134 5.01126C29.9756 4.97249 29.9293 4.94302 29.8782 4.92517C29.827 4.90732 29.7725 4.90155 29.7188 4.90836H29.4388V7.78836H29.7188ZM30.7188 5.42838V7.25836C30.7188 7.86836 30.4688 8.31836 29.7188 8.31836H28.7188V4.31836H29.7188C30.4288 4.31836 30.7188 4.76837 30.7188 5.38837" fill="white"/>
<path d="M16.2872 9.92969H15.6172V13.8997H16.2872V9.92969Z" fill="white"/>
<path d="M17.2397 11.3997V13.8997H16.6797V9.92969H17.3297L18.0497 12.2097V9.92969H18.6097V13.8997H18.0197L17.2397 11.3997Z" fill="white"/>
<path d="M18.9844 9.92969H20.5744V10.4697H19.6544V11.6097H20.3144V12.1497H19.6544V13.3497H20.5744V13.8997H18.9844V9.92969Z" fill="white"/>
<path d="M22.2397 13.0085V10.8485C22.2397 10.6085 22.1297 10.4385 21.8897 10.4385C21.6497 10.4385 21.5497 10.6085 21.5497 10.8485V13.0085C21.5497 13.2485 21.6597 13.4185 21.8897 13.4185C22.1197 13.4185 22.2397 13.2485 22.2397 13.0085ZM21.6397 14.1685V13.8985C21.4099 13.8592 21.2036 13.734 21.0625 13.5484C20.9215 13.3628 20.8561 13.1305 20.8797 12.8985V10.9785C20.8797 10.7133 20.9851 10.4589 21.1726 10.2714C21.3602 10.0839 21.6145 9.97852 21.8797 9.97852C22.145 9.97852 22.3993 10.0839 22.5868 10.2714C22.7744 10.4589 22.8797 10.7133 22.8797 10.9785V12.8985C22.8944 13.0854 22.8562 13.2726 22.7695 13.4388C22.6829 13.605 22.5513 13.7435 22.3897 13.8385L22.8797 13.9285V14.4285L21.6397 14.1685Z" fill="white"/>
<path d="M25.2197 9.92969V12.9297C25.2197 13.5497 24.9597 13.9297 24.2797 13.9297C24.1445 13.9458 24.0075 13.931 23.8788 13.8864C23.7502 13.8418 23.6333 13.7686 23.537 13.6724C23.4408 13.5761 23.3676 13.4592 23.323 13.3306C23.2785 13.202 23.2637 13.0649 23.2797 12.9297V9.92969H23.9497V12.9897C23.9497 13.2297 24.0397 13.3897 24.2797 13.3897C24.5197 13.3897 24.6097 13.2297 24.6097 12.9897V9.92969H25.2197Z" fill="white"/>
<path d="M26.2462 12.6384H26.7762L26.5163 11.0384L26.2462 12.6384ZM25.4062 13.8984L26.1562 9.89844H26.9163L27.6663 13.8984H26.9863L26.8663 13.1684H26.1562L26.0363 13.8984H25.4062Z" fill="white"/>
<path d="M27.9453 9.92969H28.6053V13.3497H29.4053V13.8997H27.9453V9.92969Z" fill="white"/>
<path d="M30.3888 9.92969H29.7188V13.8997H30.3888V9.92969Z" fill="white"/>
<path d="M30.6953 9.92969H32.4653V10.4697H31.9153V13.8997H31.2453V10.4697H30.6953V9.92969Z" fill="white"/>
<path d="M33.4434 9.92969H32.7734V13.8997H33.4434V9.92969Z" fill="white"/>
<path d="M33.8281 9.92969H35.4281V10.4697H34.4981V11.6097H35.1581V12.1497H34.4981V13.3497H35.4281V13.8997H33.8281V9.92969Z" fill="white"/>
<path d="M35.718 13.0388V12.5088H36.348V13.0488C36.348 13.2788 36.448 13.3988 36.678 13.3988C36.908 13.3988 36.988 13.2588 36.988 13.0488V12.8988C36.9842 12.7887 36.9551 12.681 36.9031 12.5839C36.8511 12.4868 36.7775 12.403 36.688 12.3388L36.288 11.9488C36.1212 11.8261 35.9848 11.6667 35.8894 11.4829C35.7941 11.2991 35.7423 11.0958 35.738 10.8888V10.7488C35.7294 10.6271 35.7481 10.505 35.7927 10.3914C35.8373 10.2778 35.9067 10.1756 35.9958 10.0923C36.0849 10.0089 36.1915 9.94651 36.3078 9.90957C36.4241 9.87264 36.5472 9.86211 36.668 9.87878C37.338 9.87878 37.608 10.2088 37.608 10.7788V11.0988H36.998V10.7588C36.998 10.5288 36.888 10.4188 36.678 10.4188C36.6339 10.4137 36.5892 10.4189 36.5474 10.4338C36.5055 10.4488 36.4677 10.4731 36.4368 10.505C36.4059 10.5369 36.3827 10.5755 36.369 10.6177C36.3554 10.66 36.3516 10.7048 36.358 10.7488V10.8288C36.358 11.0488 36.488 11.1788 36.678 11.3688L37.108 11.7888C37.2658 11.9057 37.396 12.0559 37.4893 12.2287C37.5826 12.4015 37.6368 12.5927 37.648 12.7888V12.9788C37.6606 13.1102 37.6428 13.2428 37.5959 13.3663C37.549 13.4898 37.4743 13.6007 37.3776 13.6907C37.2809 13.7806 37.1648 13.8471 37.0383 13.8849C36.9118 13.9227 36.7782 13.9309 36.648 13.9088C36.5237 13.9279 36.3966 13.9183 36.2766 13.8804C36.1566 13.8426 36.0469 13.7777 35.956 13.6906C35.8652 13.6036 35.7955 13.4969 35.7525 13.3786C35.7095 13.2604 35.6943 13.1338 35.708 13.0088" fill="white"/>
</g>
</g>
<defs>
<clipPath id="clip0_1218_13831">
<rect width="47.93" height="47.93" fill="white"/>
</clipPath>
</defs>
</svg>
