<svg width="48" height="48" viewBox="0 0 48 48" fill="none" xmlns="http://www.w3.org/2000/svg">
<g clip-path="url(#clip0_1218_13366)">
<path d="M47.93 0H0V47.93H47.93V0Z" fill="#B9922E"/>
<mask id="mask0_1218_13366" style="mask-type:luminance" maskUnits="userSpaceOnUse" x="0" y="0" width="48" height="48">
<path d="M47.93 0H0V47.93H47.93V0Z" fill="white"/>
</mask>
<g mask="url(#mask0_1218_13366)">
<path d="M35.9127 24.8485C35.0844 24.2316 34.1408 23.7872 33.1376 23.5416C32.1345 23.296 31.0923 23.2541 30.0727 23.4185H29.9527C27.8538 23.8643 26.0003 25.0856 24.7627 26.8385C24.7529 26.8745 24.7529 26.9125 24.7627 26.9485C24.7541 26.9779 24.7541 27.0091 24.7627 27.0385L24.8127 27.1185C25.0827 27.5785 25.4227 28.1185 25.7127 28.6985C25.7282 28.7299 25.7526 28.7561 25.7828 28.7739C25.813 28.7916 25.8477 28.8002 25.8827 28.7985C25.9277 28.7984 25.9709 28.7804 26.0027 28.7485V28.6885C27.9327 26.0285 29.4427 25.6885 30.4727 25.4185H30.5927C32.0043 25.2381 33.4321 25.595 34.5927 26.4185C35.1899 26.942 35.6557 27.5984 35.9528 28.3348C36.2498 29.0713 36.3697 29.8672 36.3027 30.6585C36.3027 33.8885 34.7427 35.1485 33.4227 35.6585C32.105 36.0925 30.6701 35.9956 29.4227 35.3885H29.3327C28.2127 34.8985 26.5427 33.8885 24.9727 30.7285C21.7927 24.3585 19.1427 23.7285 17.3827 23.3585H17.2927C16.2851 23.1974 15.2553 23.2419 14.2654 23.4894C13.2755 23.7369 12.3459 24.1822 11.5327 24.7985C10.6803 25.5218 10.0099 26.4353 9.57562 27.4654C9.14134 28.4955 8.95537 29.6133 9.03271 30.7285C8.93933 32.4135 9.45781 34.0755 10.4927 35.4085C11.3292 36.4452 12.4405 37.2256 13.6996 37.6606C14.9586 38.0956 16.3147 38.1677 17.6127 37.8685C18.6322 37.6522 19.5895 37.2077 20.4127 36.5685L21.4127 37.4685C21.4268 37.4836 21.4438 37.4957 21.4627 37.504C21.4816 37.5122 21.502 37.5165 21.5227 37.5165C21.5434 37.5165 21.5638 37.5122 21.5827 37.504C21.6016 37.4957 21.6187 37.4836 21.6327 37.4685C21.6415 37.4515 21.6461 37.4326 21.6461 37.4135C21.6461 37.3944 21.6415 37.3755 21.6327 37.3585L22.3627 32.9185V32.8685C22.3619 32.8468 22.3561 32.8255 22.3457 32.8064C22.3353 32.7873 22.3206 32.7709 22.3027 32.7585C22.2705 32.7462 22.2349 32.7462 22.2027 32.7585H22.1227L17.8727 33.9485H17.7927C17.7668 33.9394 17.7386 33.9394 17.7127 33.9485C17.6973 33.9634 17.685 33.9813 17.6766 34.0011C17.6683 34.0208 17.664 34.042 17.664 34.0635C17.664 34.085 17.6683 34.1062 17.6766 34.126C17.685 34.1457 17.6973 34.1636 17.7127 34.1785H17.7627L18.7627 35.0385C18.2889 35.3548 17.7597 35.5788 17.2027 35.6985C16.302 35.9204 15.3573 35.8873 14.4743 35.603C13.5912 35.3187 12.8047 34.7943 12.2027 34.0885C11.4599 33.1258 11.1033 31.9204 11.2027 30.7085C11.138 29.9178 11.2569 29.1228 11.55 28.3856C11.8432 27.6484 12.3027 26.9889 12.8927 26.4585C14.024 25.6292 15.4327 25.2708 16.8227 25.4585H16.9227C18.3627 25.7785 20.3327 26.2285 23.0427 31.6785C24.1008 34.1549 26.0188 36.1651 28.4427 37.3385C29.4989 37.8535 30.6577 38.1235 31.8327 38.1285C32.635 38.1323 33.4314 37.99 34.1827 37.7085C35.4727 37.2285 38.4727 35.5885 38.4727 30.7085C38.5452 29.5885 38.3531 28.4672 37.9118 27.4353C37.4706 26.4034 36.7926 25.4898 35.9327 24.7685" fill="white"/>
<path d="M35.9127 24.8485C35.0844 24.2316 34.1408 23.7872 33.1376 23.5416C32.1345 23.296 31.0923 23.2541 30.0727 23.4185H29.9527C27.8538 23.8643 26.0003 25.0856 24.7627 26.8385C24.7529 26.8745 24.7529 26.9125 24.7627 26.9485C24.7541 26.9779 24.7541 27.0091 24.7627 27.0385L24.8127 27.1185C25.0827 27.5785 25.4227 28.1185 25.7127 28.6985C25.7282 28.7299 25.7526 28.7561 25.7828 28.7739C25.813 28.7916 25.8477 28.8002 25.8827 28.7985C25.9277 28.7984 25.9709 28.7804 26.0027 28.7485V28.6885C27.9327 26.0285 29.4427 25.6885 30.4727 25.4185H30.5927C32.0043 25.2381 33.4321 25.595 34.5927 26.4185C35.1899 26.942 35.6557 27.5984 35.9528 28.3348C36.2498 29.0713 36.3697 29.8672 36.3027 30.6585C36.3027 33.8885 34.7427 35.1485 33.4227 35.6585C32.105 36.0925 30.6701 35.9956 29.4227 35.3885H29.3327C28.2127 34.8985 26.5427 33.8885 24.9727 30.7285C21.7927 24.3585 19.1427 23.7285 17.3827 23.3585H17.2927C16.2851 23.1974 15.2553 23.2419 14.2654 23.4894C13.2755 23.7369 12.3459 24.1822 11.5327 24.7985C10.6803 25.5218 10.0099 26.4353 9.57562 27.4654C9.14134 28.4955 8.95537 29.6133 9.03271 30.7285C8.93933 32.4135 9.45781 34.0755 10.4927 35.4085C11.3292 36.4452 12.4405 37.2256 13.6996 37.6606C14.9586 38.0956 16.3147 38.1677 17.6127 37.8685C18.6322 37.6522 19.5895 37.2077 20.4127 36.5685L21.4127 37.4685C21.4268 37.4836 21.4438 37.4957 21.4627 37.504C21.4816 37.5122 21.502 37.5165 21.5227 37.5165C21.5434 37.5165 21.5638 37.5122 21.5827 37.504C21.6016 37.4957 21.6187 37.4836 21.6327 37.4685C21.6415 37.4515 21.6461 37.4326 21.6461 37.4135C21.6461 37.3944 21.6415 37.3755 21.6327 37.3585L22.3627 32.9185V32.8685C22.3619 32.8468 22.3561 32.8255 22.3457 32.8064C22.3353 32.7873 22.3206 32.7709 22.3027 32.7585C22.2705 32.7462 22.2349 32.7462 22.2027 32.7585H22.1227L17.8727 33.9485H17.7927C17.7668 33.9394 17.7386 33.9394 17.7127 33.9485C17.6973 33.9634 17.685 33.9813 17.6766 34.0011C17.6683 34.0208 17.664 34.042 17.664 34.0635C17.664 34.085 17.6683 34.1062 17.6766 34.126C17.685 34.1457 17.6973 34.1636 17.7127 34.1785H17.7627L18.7627 35.0385C18.2889 35.3548 17.7597 35.5788 17.2027 35.6985C16.302 35.9204 15.3573 35.8873 14.4743 35.603C13.5912 35.3187 12.8047 34.7943 12.2027 34.0885C11.4599 33.1258 11.1033 31.9204 11.2027 30.7085C11.138 29.9178 11.2569 29.1228 11.55 28.3856C11.8432 27.6484 12.3027 26.9889 12.8927 26.4585C14.024 25.6292 15.4327 25.2708 16.8227 25.4585H16.9227C18.3627 25.7785 20.3327 26.2285 23.0427 31.6785C24.1008 34.1549 26.0188 36.1651 28.4427 37.3385C29.4989 37.8535 30.6577 38.1235 31.8327 38.1285C32.635 38.1323 33.4314 37.99 34.1827 37.7085C35.4727 37.2285 38.4727 35.5885 38.4727 30.7085C38.5452 29.5885 38.3531 28.4672 37.9118 27.4353C37.4706 26.4034 36.7926 25.4898 35.9327 24.7685" stroke="white" stroke-width="0.31" stroke-miterlimit="10"/>
<path d="M5.10656 6.59914H5.12656V13.8691H6.71656V4.36914H5.44656L3.97656 6.08914V7.75914H3.98656L5.10656 6.59914Z" fill="white"/>
<path d="M7.67546 6.32934V7.47933H9.12546V6.25933C9.12546 5.67933 9.40546 5.51934 9.74546 5.51934C10.0855 5.51934 10.3155 5.63933 10.3155 6.22933V7.00933C10.3572 7.30916 10.3263 7.61462 10.2254 7.90002C10.1244 8.18542 9.95641 8.44242 9.73546 8.64935L8.83547 9.64935C8.47041 9.9528 8.17511 10.3314 7.96974 10.7594C7.76438 11.1874 7.65377 11.6547 7.64546 12.1293V13.8793H11.7955V12.5793H9.17546V12.1293C9.16568 11.8506 9.22116 11.5734 9.33748 11.3199C9.45381 11.0665 9.62776 10.8437 9.84546 10.6693L10.8455 9.58932C11.1815 9.28991 11.4459 8.91874 11.619 8.50329C11.7921 8.08784 11.8695 7.63876 11.8455 7.18933V6.25933C11.8455 4.89933 11.1855 4.25933 9.75547 4.25933C9.47281 4.22079 9.18507 4.24743 8.91429 4.33721C8.64352 4.42699 8.39688 4.57753 8.19324 4.77731C7.9896 4.97709 7.83436 5.22079 7.73941 5.4898C7.64447 5.75881 7.61234 6.046 7.64546 6.32934" fill="white"/>
<path d="M16.2091 4.91006V6.14008H16.4291C16.6591 6.14008 16.7591 6.03007 16.7591 5.82007V5.26007C16.7591 5.04007 16.6591 4.94006 16.4291 4.94006L16.2091 4.91006ZM16.2091 6.51007V8.33008H15.5391V4.33008H16.5391C17.2091 4.33008 17.4591 4.67006 17.4591 5.22006V5.73007C17.4856 5.90327 17.4442 6.08002 17.3436 6.22348C17.243 6.36694 17.0909 6.46601 16.9191 6.50006L17.5591 8.30008H16.8591L16.2091 6.51007Z" fill="white"/>
<path d="M17.7031 4.36914H19.3031V4.90914H18.3731V6.04914H19.0331V6.58914H18.3731V7.78914H19.3031V8.33914H17.7031V4.36914Z" fill="white"/>
<path d="M19.5171 7.48019V6.95019H20.1371V7.4902C20.1371 7.7102 20.2371 7.84017 20.4671 7.84017C20.6971 7.84017 20.7671 7.7002 20.7671 7.4902V7.34017C20.7652 7.2308 20.738 7.12335 20.6877 7.02621C20.6374 6.92907 20.5653 6.84487 20.4771 6.78018L20.0771 6.38018C19.9086 6.25916 19.7709 6.10012 19.6754 5.91595C19.5798 5.73178 19.529 5.52766 19.5271 5.32019V5.19018C19.5185 5.06847 19.5372 4.94637 19.5818 4.83279C19.6264 4.71921 19.6958 4.61704 19.7849 4.53369C19.874 4.45033 19.9806 4.38791 20.0969 4.35098C20.2132 4.31404 20.3362 4.30352 20.4571 4.32019C21.1271 4.32019 21.3871 4.64018 21.3871 5.22018V5.54019H20.7871V5.19018C20.7871 5.10531 20.7534 5.02394 20.6934 4.96392C20.6334 4.90391 20.552 4.87017 20.4671 4.87017C20.3822 4.87017 20.3008 4.90391 20.2408 4.96392C20.1808 5.02394 20.1471 5.10531 20.1471 5.19018V5.26019C20.1471 5.49019 20.2771 5.6202 20.4671 5.8002L20.8971 6.23019C21.0554 6.34663 21.1859 6.4967 21.2793 6.66961C21.3727 6.84252 21.4266 7.03397 21.4371 7.23019V7.42019C21.4477 7.55117 21.4285 7.68286 21.3809 7.80535C21.3334 7.92785 21.2586 8.03798 21.1624 8.12747C21.0662 8.21696 20.9509 8.28347 20.8253 8.32205C20.6997 8.36062 20.567 8.37025 20.4371 8.35018C20.3127 8.36935 20.1857 8.35966 20.0657 8.32183C19.9457 8.28401 19.836 8.21906 19.7451 8.13205C19.6542 8.04503 19.5846 7.93827 19.5416 7.82003C19.4986 7.70179 19.4833 7.57526 19.4971 7.45019" fill="white"/>
<path d="M22.3497 4.90936V6.46936H22.5997C22.6446 6.47613 22.6904 6.47226 22.7336 6.45807C22.7767 6.44388 22.8159 6.41977 22.848 6.38766C22.8801 6.35556 22.9042 6.31638 22.9184 6.27325C22.9326 6.23013 22.9365 6.18427 22.9297 6.13937V5.25937C22.9297 5.03937 22.8297 4.93936 22.5997 4.93936L22.3497 4.90936ZM21.6797 4.35938H22.6797C23.3597 4.35938 23.5997 4.69936 23.5997 5.24936V6.08936C23.5997 6.64936 23.3597 6.98938 22.6797 6.98938H22.3497V8.32938H21.6797V4.35938Z" fill="white"/>
<path d="M25.2266 7.40943V5.25943C25.2266 5.01943 25.1166 4.84943 24.8766 4.84943C24.6366 4.84943 24.5366 5.01943 24.5366 5.25943V7.38944C24.5366 7.62944 24.6466 7.79944 24.8766 7.79944C25.1066 7.79944 25.2266 7.62944 25.2266 7.38944M23.8766 7.28943V5.36942C23.8568 5.23032 23.8684 5.08858 23.9106 4.95456C23.9528 4.82055 24.0245 4.69768 24.1204 4.59503C24.2164 4.49238 24.3341 4.41255 24.4649 4.36139C24.5958 4.31024 24.7365 4.28907 24.8766 4.29944C25.014 4.2991 25.15 4.32708 25.2762 4.38165C25.4023 4.43623 25.5158 4.51621 25.6096 4.61661C25.7035 4.71701 25.7756 4.83569 25.8215 4.96521C25.8675 5.09474 25.8862 5.23233 25.8766 5.36942V7.28943C25.8862 7.42652 25.8675 7.56411 25.8215 7.69364C25.7756 7.82316 25.7035 7.94183 25.6096 8.04224C25.5158 8.14264 25.4023 8.22262 25.2762 8.27719C25.15 8.33177 25.014 8.35978 24.8766 8.35944C24.7365 8.36981 24.5958 8.34864 24.4649 8.29749C24.3341 8.24633 24.2164 8.1665 24.1204 8.06384C24.0245 7.96119 23.9528 7.83833 23.9106 7.70432C23.8684 7.5703 23.8568 7.42853 23.8766 7.28943Z" fill="white"/>
<path d="M26.7553 5.83914V8.33914H26.1953V4.36914H26.8453L27.5653 6.63914V4.36914H28.1253V8.33914H27.5353L26.7553 5.83914Z" fill="white"/>
<path d="M28.3504 7.48001V6.95001H28.9704V7.49002C28.9704 7.71002 29.0704 7.83999 29.3004 7.83999C29.5304 7.83999 29.6104 7.70002 29.6104 7.49002V7.33999C29.6065 7.22992 29.5775 7.12223 29.5255 7.02515C29.4735 6.92806 29.3999 6.84418 29.3104 6.78L28.9104 6.38C28.7418 6.25898 28.6042 6.09994 28.5086 5.91577C28.4131 5.7316 28.3623 5.52748 28.3604 5.32001V5.19C28.3534 5.06779 28.3735 4.94555 28.4193 4.83203C28.4651 4.71851 28.5354 4.6165 28.6252 4.53335C28.7151 4.45021 28.8222 4.38796 28.9389 4.35107C29.0556 4.31419 29.1791 4.30358 29.3004 4.32001C29.9604 4.32001 30.2304 4.64 30.2304 5.22V5.54001H29.6204V5.19C29.6265 5.14565 29.6226 5.10048 29.6089 5.05783C29.5953 5.01518 29.5723 4.97615 29.5416 4.94354C29.5109 4.91094 29.4733 4.8856 29.4316 4.86941C29.3898 4.85323 29.345 4.8466 29.3004 4.85C29.257 4.84657 29.2135 4.85292 29.1729 4.86859C29.1324 4.88426 29.0959 4.90887 29.0661 4.94055C29.0363 4.97224 29.0141 5.01022 29.001 5.05166C28.9879 5.09311 28.9842 5.13698 28.9904 5.18002V5.26001C28.9904 5.49001 29.1104 5.62002 29.3004 5.80002L29.7304 6.23001C29.8887 6.34645 30.0192 6.49652 30.1126 6.66943C30.2059 6.84234 30.2598 7.03378 30.2704 7.23001V7.42001C30.283 7.55147 30.2651 7.68407 30.2183 7.80752C30.1714 7.93098 30.0967 8.04196 30 8.1319C29.9033 8.22183 29.7872 8.28828 29.6606 8.32611C29.5341 8.36393 29.4006 8.37211 29.2704 8.35C29.142 8.37765 29.0089 8.37444 28.882 8.34064C28.7551 8.30683 28.638 8.2434 28.5404 8.15555C28.4428 8.06769 28.3674 7.95792 28.3205 7.83526C28.2735 7.71261 28.2563 7.58059 28.2704 7.45001" fill="white"/>
<path d="M31.2403 4.36914H30.5703V8.33914H31.2403V4.36914Z" fill="white"/>
<path d="M32.2169 6.54938V7.78937H32.5069C32.5508 7.79578 32.5957 7.79201 32.6379 7.77835C32.6802 7.76469 32.7188 7.74152 32.7507 7.7106C32.7825 7.67968 32.8069 7.64186 32.8218 7.60004C32.8368 7.55821 32.8419 7.51349 32.8369 7.46936V6.86935C32.8369 6.65935 32.7369 6.54938 32.4969 6.54938H32.2169ZM32.2169 6.03937H32.4469C32.4905 6.0462 32.535 6.04266 32.577 6.02899C32.6189 6.01533 32.6571 5.99195 32.6882 5.96075C32.7194 5.92956 32.7428 5.89143 32.7565 5.84949C32.7701 5.80754 32.7737 5.76294 32.7669 5.71936V5.25937C32.7669 5.03937 32.6669 4.93936 32.4369 4.93936H32.2169V6.03937ZM31.5469 4.35938H32.5469C33.2069 4.35938 33.4369 4.66938 33.4369 5.23938V5.63937C33.453 5.7744 33.422 5.91084 33.3491 6.02563C33.2762 6.14043 33.1659 6.22655 33.0369 6.26938C33.1872 6.29635 33.3216 6.37965 33.4127 6.50229C33.5037 6.62492 33.5445 6.77767 33.5269 6.92938V7.45938C33.5269 8.01938 33.2769 8.32938 32.6169 8.32938H31.6169L31.5469 4.35938Z" fill="white"/>
<path d="M33.75 4.36914H34.42V7.78914H35.22V8.33914H33.75V4.36914Z" fill="white"/>
<path d="M35.4375 4.36914H37.0275V4.90914H36.1075V6.04914H36.7675V6.58914H36.1075V7.78914H37.0275V8.33914H35.4375V4.36914Z" fill="white"/>
<path d="M15.5328 12.8695V10.9495C15.513 10.8104 15.5246 10.6687 15.5668 10.5346C15.609 10.4006 15.6807 10.2778 15.7767 10.1751C15.8726 10.0725 15.9903 9.99262 16.1212 9.94147C16.2521 9.89031 16.3927 9.86915 16.5328 9.87952C17.2728 9.87952 17.4728 10.2895 17.4728 10.8795V11.3495H16.8628V10.8295C16.8628 10.5895 16.7828 10.4395 16.5428 10.4395C16.3028 10.4395 16.2028 10.6095 16.2028 10.8595V12.9895C16.2028 13.2295 16.3028 13.3995 16.5428 13.3995C16.7828 13.3995 16.8628 13.2395 16.8628 13.0095V12.2595H17.4728V12.9395C17.4728 13.5095 17.2428 13.9395 16.5328 13.9395C16.3927 13.9499 16.2521 13.9287 16.1212 13.8776C15.9903 13.8264 15.8726 13.7466 15.7767 13.6439C15.6807 13.5413 15.609 13.4184 15.5668 13.2844C15.5246 13.1504 15.513 13.0086 15.5328 12.8695Z" fill="white"/>
<path d="M19.1178 12.9792V10.8492C19.1178 10.5992 19.0078 10.4292 18.7678 10.4292C18.5278 10.4292 18.4278 10.5992 18.4278 10.8492V12.9792C18.4278 13.2192 18.5378 13.3892 18.7678 13.3892C18.9978 13.3892 19.1178 13.2192 19.1178 12.9792ZM17.7578 12.8692V10.9492C17.7578 10.684 17.8632 10.4296 18.0507 10.2421C18.2382 10.0546 18.4926 9.94922 18.7578 9.94922C19.023 9.94922 19.2774 10.0546 19.4649 10.2421C19.6525 10.4296 19.7578 10.684 19.7578 10.9492V12.8692C19.7578 13.1344 19.6525 13.3888 19.4649 13.5763C19.2774 13.7639 19.023 13.8692 18.7578 13.8692C18.4926 13.8692 18.2382 13.7639 18.0507 13.5763C17.8632 13.3888 17.7578 13.1344 17.7578 12.8692Z" fill="white"/>
<path d="M20.6381 11.3997V13.8997H20.0781V9.92969H20.7381L21.4581 12.2097V9.92969H22.0081V13.8997H21.4281L20.6381 11.3997Z" fill="white"/>
<path d="M22.2771 13.0386V12.5086H22.8971V13.0486C22.8971 13.2786 22.9971 13.3986 23.2271 13.3986C23.4571 13.3986 23.5271 13.2586 23.5271 13.0486V12.8986C23.5256 12.7881 23.4976 12.6795 23.4454 12.582C23.3932 12.4846 23.3183 12.4011 23.2271 12.3386L22.8371 11.9486C22.669 11.8265 22.5311 11.6674 22.434 11.4836C22.3369 11.2999 22.2832 11.0963 22.2771 10.8886V10.7486C22.2701 10.6264 22.2902 10.5041 22.336 10.3906C22.3818 10.2771 22.4521 10.1751 22.542 10.0919C22.6318 10.0088 22.7389 9.94655 22.8556 9.90967C22.9724 9.87278 23.0958 9.86218 23.2171 9.8786C23.8871 9.8786 24.1471 10.2086 24.1471 10.7786V11.0986H23.5371V10.7586C23.5371 10.5286 23.4371 10.4186 23.2271 10.4186C23.183 10.4135 23.1383 10.4187 23.0964 10.4336C23.0546 10.4486 23.0168 10.4729 22.9859 10.5048C22.9549 10.5367 22.9318 10.5753 22.9181 10.6176C22.9045 10.6598 22.9007 10.7046 22.9071 10.7486V10.8286C22.9071 11.0486 23.0271 11.1786 23.2271 11.3686L23.6471 11.7886C23.8064 11.904 23.9377 12.0539 24.0312 12.227C24.1247 12.4001 24.178 12.5921 24.1871 12.7886V12.9786C24.2018 13.1105 24.1854 13.2441 24.1393 13.3686C24.0931 13.493 24.0184 13.6049 23.9212 13.6953C23.824 13.7857 23.707 13.8521 23.5795 13.8892C23.452 13.9262 23.3176 13.9328 23.1871 13.9086C23.0627 13.9278 22.9357 13.9181 22.8157 13.8802C22.6957 13.8424 22.586 13.7775 22.4951 13.6905C22.4042 13.6034 22.3346 13.4967 22.2916 13.3784C22.2486 13.2602 22.2333 13.1337 22.2471 13.0086" fill="white"/>
<path d="M26.3932 9.92969V12.9297C26.3932 13.5497 26.1331 13.9297 25.4531 13.9297C25.3176 13.9478 25.1796 13.9344 25.05 13.8905C24.9204 13.8467 24.8027 13.7736 24.706 13.6768C24.6093 13.5801 24.5361 13.4624 24.4923 13.3328C24.4484 13.2032 24.435 13.0653 24.4531 12.9297V9.92969H25.1231V12.9897C25.1231 13.2297 25.2131 13.3897 25.4531 13.3897C25.6931 13.3897 25.7731 13.2297 25.7731 12.9897V9.92969H26.3932Z" fill="white"/>
<path d="M28.5353 11.3197H28.5153L28.0653 13.8997H27.7553L27.2553 11.3197H27.2453V13.8997H26.6953V9.92969H27.4753L27.9053 12.1697L28.2953 9.92969H29.1453V13.8997H28.5353V11.3197Z" fill="white"/>
<path d="M30.1053 10.4697V12.0297H30.3453C30.5753 12.0297 30.6753 11.9197 30.6753 11.7097V10.7897C30.6753 10.5797 30.5753 10.4697 30.3453 10.4697H30.1053ZM29.4453 9.92969H30.4453C31.1253 9.92969 31.3753 10.2597 31.3753 10.8197V11.6497C31.3753 12.2097 31.1253 12.5497 30.4453 12.5497H30.1253V13.8997H29.4653L29.4453 9.92969Z" fill="white"/>
<path d="M31.5078 9.92969H33.2778V10.4697H32.7278V13.8997H32.0578V10.4697H31.5078V9.92969Z" fill="white"/>
<path d="M34.1778 9.92969H33.5078V13.8997H34.1778V9.92969Z" fill="white"/>
<path d="M35.8344 12.9792V10.8492C35.8344 10.5992 35.7344 10.4292 35.4944 10.4292C35.2544 10.4292 35.1444 10.5992 35.1444 10.8492V12.9792C35.1444 13.2192 35.2544 13.3892 35.4944 13.3892C35.7344 13.3892 35.8344 13.2192 35.8344 12.9792ZM34.4844 12.8692V10.9492C34.4844 10.684 34.5897 10.4296 34.7773 10.2421C34.9648 10.0546 35.2192 9.94922 35.4844 9.94922C35.7496 9.94922 36.0039 10.0546 36.1915 10.2421C36.379 10.4296 36.4844 10.684 36.4844 10.9492V12.8692C36.4844 13.1344 36.379 13.3888 36.1915 13.5763C36.0039 13.7639 35.7496 13.8692 35.4844 13.8692C35.2192 13.8692 34.9648 13.7639 34.7773 13.5763C34.5897 13.3888 34.4844 13.1344 34.4844 12.8692Z" fill="white"/>
<path d="M37.3669 11.3997V13.8997H36.7969V9.92969H37.4569L38.1769 12.2097V9.92969H38.7369V13.8997H38.1469L37.3669 11.3997Z" fill="white"/>
<path d="M16.2775 18.199H16.8075L16.5475 16.609L16.2775 18.199ZM15.4375 19.459L16.1875 15.459H16.9475L17.6975 19.459H17.0175L16.8975 18.729H16.1875L16.0675 19.459H15.4375Z" fill="white"/>
<path d="M18.4584 16.9702V19.4602H17.8984V15.4902H18.5484L19.2684 17.7702V15.4902H19.8284V19.4602H19.2384L18.4584 16.9702Z" fill="white"/>
<path d="M21.075 18.919C21.345 18.919 21.455 18.749 21.455 18.509V16.429C21.4628 16.3764 21.4586 16.3227 21.4426 16.2719C21.4266 16.2212 21.3992 16.1748 21.3626 16.1363C21.3259 16.0977 21.281 16.068 21.2312 16.0494C21.1814 16.0308 21.1279 16.0238 21.075 16.029H20.795V18.919H21.075ZM22.125 16.559V18.389C22.125 18.999 21.865 19.459 21.125 19.459H20.125V15.459H21.125C21.835 15.459 22.125 15.909 22.125 16.529" fill="white"/>
<path d="M23.6131 16.0302V17.6002H23.8631C23.908 17.607 23.9539 17.6031 23.997 17.5889C24.0401 17.5747 24.0793 17.5506 24.1114 17.5185C24.1435 17.4864 24.1676 17.4472 24.1818 17.4041C24.196 17.361 24.1999 17.3151 24.1931 17.2702V16.3602C24.1999 16.3153 24.196 16.2695 24.1818 16.2263C24.1676 16.1832 24.1435 16.144 24.1114 16.1119C24.0793 16.0798 24.0401 16.0557 23.997 16.0415C23.9539 16.0273 23.908 16.0234 23.8631 16.0302H23.6131ZM22.9531 15.4902H23.9531C24.6231 15.4902 24.8731 15.8202 24.8731 16.3802V17.2602C24.8731 17.8102 24.6231 18.1502 23.9531 18.1502H23.6231V19.5002H22.9631L22.9531 15.4902Z" fill="white"/>
<path d="M25.795 16.029V17.259H26.015C26.0599 17.2657 26.1058 17.2619 26.1489 17.2477C26.192 17.2335 26.2312 17.2094 26.2633 17.1773C26.2954 17.1452 26.3195 17.106 26.3337 17.0628C26.3479 17.0197 26.3518 16.9739 26.345 16.929V16.349C26.3518 16.3041 26.3479 16.2582 26.3337 16.2151C26.3195 16.172 26.2954 16.1328 26.2633 16.1007C26.2312 16.0686 26.192 16.0444 26.1489 16.0302C26.1058 16.0161 26.0599 16.0122 26.015 16.019L25.795 16.029ZM25.795 17.639V19.459H25.125V15.459H26.125C26.805 15.459 27.045 15.789 27.045 16.349V16.859C27.045 17.289 26.895 17.539 26.515 17.629L27.155 19.429H26.445L25.795 17.639Z" fill="white"/>
<path d="M28.6569 18.5398V16.4098C28.6569 16.1698 28.5469 15.9998 28.3069 15.9998C28.0669 15.9998 27.9669 16.1698 27.9669 16.4098V18.5398C27.9669 18.7798 28.0769 18.9498 28.3069 18.9498C28.5369 18.9498 28.6569 18.7798 28.6569 18.5398ZM27.2969 18.4398V16.5098C27.2969 16.2445 27.4022 15.9902 27.5898 15.8027C27.7773 15.6151 28.0317 15.5098 28.2969 15.5098C28.5621 15.5098 28.8164 15.6151 29.004 15.8027C29.1915 15.9902 29.2969 16.2445 29.2969 16.5098V18.4398C29.2969 18.705 29.1915 18.9593 29.004 19.1469C28.8164 19.3344 28.5621 19.4398 28.2969 19.4398C28.0317 19.4398 27.7773 19.3344 27.5898 19.1469C27.4022 18.9593 27.2969 18.705 27.2969 18.4398Z" fill="white"/>
<path d="M30.5672 18.919C30.8472 18.919 30.9472 18.749 30.9472 18.509V16.429C30.9472 16.199 30.8472 16.029 30.5672 16.029H30.2872V18.919H30.5672ZM31.6172 16.559V18.389C31.6172 18.999 31.3672 19.459 30.6172 19.459H29.6172V15.459H30.6172C31.3372 15.459 31.6172 15.909 31.6172 16.529" fill="white"/>
<path d="M33.8547 15.4902V18.4902C33.8547 19.1102 33.5847 19.4902 32.9047 19.4902C32.7695 19.5063 32.6325 19.4915 32.5038 19.4469C32.3752 19.4024 32.2583 19.3292 32.162 19.2329C32.0658 19.1366 31.9926 19.0198 31.948 18.8911C31.9035 18.7625 31.8887 18.6254 31.9047 18.4902V15.4902H32.5747V18.5602C32.5747 18.7902 32.6647 18.9502 32.8947 18.9502C33.1247 18.9502 33.2247 18.7902 33.2247 18.5602V15.4902H33.8547Z" fill="white"/>
<path d="M34.15 18.4401V16.5101C34.1302 16.371 34.1418 16.2292 34.184 16.0952C34.2262 15.9612 34.2979 15.8383 34.3939 15.7357C34.4898 15.633 34.6075 15.5532 34.7384 15.502C34.8692 15.4509 35.0099 15.4297 35.15 15.4401C35.89 15.4401 36.09 15.8501 36.09 16.4401V16.9101H35.48V16.3901C35.48 16.1401 35.4 16.0001 35.16 16.0001C34.92 16.0001 34.82 16.1701 34.82 16.4101V18.5401C34.82 18.7801 34.92 18.9501 35.16 18.9501C35.4 18.9501 35.48 18.8001 35.48 18.5601V17.8301H36.09V18.5201C36.09 19.0901 35.86 19.5201 35.15 19.5201C35.0099 19.5305 34.8692 19.5093 34.7384 19.4581C34.6075 19.407 34.4898 19.3271 34.3939 19.2245C34.2979 19.1218 34.2262 18.999 34.184 18.865C34.1418 18.7309 34.1302 18.5892 34.15 18.4501" fill="white"/>
<path d="M36.2344 15.4902H38.0044V16.0402H37.4544V19.4602H36.7844V16.0402H36.2344V15.4902Z" fill="white"/>
<path d="M38.9044 15.4902H38.2344V19.4602H38.9044V15.4902Z" fill="white"/>
<path d="M40.5631 18.5398V16.4098C40.5631 16.1698 40.4531 15.9998 40.2131 15.9998C39.9731 15.9998 39.8731 16.1698 39.8731 16.4098V18.5398C39.8731 18.7798 39.9831 18.9498 40.2131 18.9498C40.4431 18.9498 40.5631 18.7798 40.5631 18.5398ZM39.2031 18.4398V16.5098C39.2031 16.2445 39.3085 15.9902 39.496 15.8027C39.6836 15.6151 39.9379 15.5098 40.2031 15.5098C40.4683 15.5098 40.7227 15.6151 40.9102 15.8027C41.0978 15.9902 41.2031 16.2445 41.2031 16.5098V18.4398C41.2031 18.705 41.0978 18.9593 40.9102 19.1469C40.7227 19.3344 40.4683 19.4398 40.2031 19.4398C39.9379 19.4398 39.6836 19.3344 39.496 19.1469C39.3085 18.9593 39.2031 18.705 39.2031 18.4398Z" fill="white"/>
<path d="M42.0834 16.9702V19.4602H41.5234V15.4902H42.1834L42.9034 17.7702V15.4902H43.4534V19.4602H42.8734L42.0834 16.9702Z" fill="white"/>
</g>
</g>
<defs>
<clipPath id="clip0_1218_13366">
<rect width="47.93" height="47.93" fill="white"/>
</clipPath>
</defs>
</svg>
