<svg width="48" height="48" viewBox="0 0 48 48" fill="none" xmlns="http://www.w3.org/2000/svg">
<g clip-path="url(#clip0_1218_13411)">
<path d="M0.07 0L0 47.87L45.81 47.93H47.87L47.93 0.07L0.72 0H0.07Z" fill="#52763A"/>
<mask id="mask0_1218_13411" style="mask-type:luminance" maskUnits="userSpaceOnUse" x="0" y="0" width="48" height="48">
<path d="M47.93 0H0V47.93H47.93V0Z" fill="white"/>
</mask>
<g mask="url(#mask0_1218_13411)">
<path d="M31.4441 31.6299C31.2541 31.5799 30.4441 30.45 31.0841 29.71C31.1841 29.58 30.8641 29.2199 30.9541 29.2199C31.3041 29.2199 31.4941 29.4099 31.5841 29.7299C31.5841 29.8599 31.5841 30 31.5841 30.15C31.5768 30.6472 31.5233 31.1426 31.4241 31.6299M29.4241 35.2999C29.3466 35.2812 29.2724 35.2509 29.2041 35.21C28.8041 35.01 28.8541 35.3299 28.6541 35.2599C28.4541 35.1899 28.8741 34.7399 28.2941 35.1199C27.7141 35.4999 27.8641 35.0599 27.6141 34.4099C27.5329 34.1046 27.5639 33.7802 27.7015 33.4958C27.8392 33.2114 28.0742 32.9858 28.3641 32.8599C28.7955 32.7131 29.2365 32.5961 29.6841 32.5099C30.5541 32.2999 30.7441 31.7799 30.9041 32.0899L30.9841 32.2599C31.0544 32.4103 31.0919 32.574 31.0941 32.74C30.7273 33.7031 30.1578 34.5762 29.4241 35.2999ZM24.3541 37.4099C23.6766 37.404 23.0034 37.303 22.3541 37.1099C22.3017 37.0704 22.2642 37.0143 22.2479 36.9507C22.2315 36.8871 22.2372 36.8199 22.2641 36.7599C22.4015 36.4992 22.607 36.2806 22.8589 36.1274C23.1107 35.9742 23.3993 35.8921 23.6941 35.8899C24.8741 35.7799 26.4241 36.66 26.6941 36.52C26.9641 36.38 27.4441 35.7299 28.1741 35.7599C28.4069 35.7416 28.6391 35.8015 28.8341 35.93C27.5665 36.8943 26.0167 37.4144 24.4241 37.4099M23.4241 32.6699C23.3241 32.8299 23.0541 34.0499 22.8641 33.9099C22.6741 33.7699 22.9441 32.49 22.9941 32.4C23.2841 31.87 23.9041 31.8999 23.4241 32.6699ZM26.4241 31.2299C26.3148 31.2871 26.1912 31.3109 26.0686 31.2984C25.9459 31.286 25.8296 31.2378 25.7341 31.1599C25.5541 31.0199 25.8441 30.7899 25.9541 30.7799C26.0641 30.7699 26.5741 31.0999 26.4241 31.2299ZM29.6341 31.2299C29.5541 31.2299 29.4841 31.1199 29.4241 30.9399C29.3641 30.7599 29.5241 30.66 29.6641 30.74C29.8041 30.82 30.0141 31.03 30.0141 31.15C30.0141 31.27 29.7141 31.2599 29.6341 31.2299ZM29.9441 31.4499C30.1841 31.4499 30.5541 31.77 30.4141 31.9C30.3033 31.9557 30.1792 31.9796 30.0556 31.969C29.932 31.9585 29.8138 31.9137 29.7141 31.8399C29.5341 31.6899 29.8341 31.4599 29.9441 31.4499ZM22.1441 34.3399C22.0689 34.6809 21.9148 34.9995 21.6941 35.27C21.4183 35.5144 21.0626 35.6496 20.6941 35.65C20.3641 35.65 20.3141 34.7399 20.3141 34.2899C20.3141 34.1299 20.0941 34.59 19.9741 33.65C19.9041 33.04 19.5141 33.7099 19.4941 33.3099C19.4741 32.9099 19.2641 32.9799 19.0641 32.7299C18.8641 32.4799 18.6041 32.7299 18.3241 32.8799C18.0441 33.0299 18.1541 33.0699 17.7541 32.9499C17.3755 32.0546 17.1816 31.092 17.1841 30.1199C17.1689 29.8768 17.1689 29.633 17.1841 29.3899V29.3199C17.5741 28.8699 17.5641 28.7599 17.5641 28.7599L17.9941 28.6199C18.3982 28.6828 18.7963 28.7798 19.1841 28.9099C19.6041 29.0699 20.2641 29.4299 20.6541 29.2799C21.0441 29.1299 21.1541 29.0099 21.1241 28.7799C21.0941 28.5499 20.8641 28.4099 20.5841 28.6099C20.4841 28.6799 20.2641 28.1699 20.0941 28.1999C19.9241 28.2299 20.3041 28.7999 20.1541 28.8199C20.0041 28.8399 19.7241 28.2199 19.6741 28.1199C19.6241 28.0199 19.3941 27.77 19.1941 27.96C18.7641 28.37 18.0641 28.3399 17.9241 28.4499C17.5041 28.7599 17.3841 28.3399 17.3941 28.0799L17.4541 27.9099C17.5703 27.8274 17.7057 27.7759 17.8474 27.7601C17.9891 27.7444 18.1325 27.765 18.2641 27.8199C18.4441 27.9399 18.5841 27.82 18.6541 27.71C18.6837 27.6656 18.6996 27.6133 18.6996 27.5599C18.6996 27.5065 18.6837 27.4543 18.6541 27.4099C18.6541 27.3099 18.7441 27.24 18.8441 27.21C19.0352 27.1134 19.219 27.0031 19.3941 26.8799C19.7522 26.7684 20.1359 26.7684 20.4941 26.8799C20.6144 26.9427 20.7528 26.9621 20.8857 26.9348C21.0187 26.9075 21.1382 26.8351 21.2241 26.7299C21.3704 26.5528 21.5506 26.4067 21.7541 26.2999C21.8541 26.2499 21.4941 25.9099 21.1941 26.2999C20.8941 26.6899 20.7341 26.6999 20.5941 26.6999C20.4541 26.6999 19.5941 26.4899 19.5141 26.2199C19.4341 25.9499 19.7741 25.7599 20.0841 25.6099C20.5371 25.5037 20.9991 25.44 21.4641 25.4199C21.9041 25.3199 22.4641 25.0999 22.7441 25.2899C23.0241 25.4799 21.5641 25.8199 22.0441 26.0799C22.2141 26.1699 22.9941 25.63 23.2541 25.49C23.8841 25.17 22.6541 25.0599 22.8141 24.4099C22.9741 23.7599 21.3041 23.9499 20.4641 24.0099C21.4424 23.3826 22.5569 22.9989 23.7141 22.8911C24.8713 22.7833 26.0374 22.9545 27.1148 23.3903C28.1922 23.8262 29.1494 24.514 29.9061 25.3961C30.6629 26.2782 31.1971 27.3288 31.4641 28.46C31.4798 28.5694 31.4798 28.6805 31.4641 28.7899C31.4302 28.8712 31.3746 28.9416 31.3034 28.9935C31.2322 29.0453 31.1481 29.0765 31.0604 29.0837C30.9726 29.091 30.8846 29.0739 30.8058 29.0344C30.7271 28.9949 30.6608 28.9346 30.6141 28.8599C30.5441 28.7499 30.2241 28.46 30.2341 28.96C30.2441 29.46 30.7241 29.5199 30.2341 29.8199C30.0056 29.981 29.7413 30.084 29.4641 30.1199C29.3354 30.2232 29.2343 30.3567 29.1698 30.5084C29.1052 30.6602 29.0792 30.8257 29.0941 30.99C29.1441 31.27 29.8041 31.99 29.3141 31.99C28.8569 31.7644 28.4698 31.4187 28.1941 30.99C28.0341 30.59 27.8741 30.1999 27.7541 29.8899C27.7324 29.8236 27.6949 29.7636 27.6448 29.715C27.5948 29.6664 27.5336 29.6307 27.4667 29.611C27.3998 29.5914 27.329 29.5882 27.2606 29.602C27.1922 29.6157 27.1282 29.6459 27.0741 29.6899C26.8141 29.8699 27.1441 30.0499 26.9541 30.4199C26.7641 30.7899 26.6341 31.1399 26.3641 30.8299C25.6541 30.0099 24.6241 30.4099 24.4641 29.5099C24.3741 29.0199 23.9541 29.0599 23.6041 28.7899C23.2541 28.5199 23.0541 28.3599 22.9941 28.5599C22.9341 28.7599 24.1041 29.6599 24.1841 29.8899C24.2641 30.1199 23.8341 30.5599 23.4841 30.6399C23.1341 30.7199 22.9941 30.4399 22.6541 30.0899C22.3141 29.7399 22.1641 29.4899 22.1441 29.7599C22.1581 29.9989 22.2256 30.2316 22.3416 30.4411C22.4575 30.6505 22.619 30.8312 22.8141 30.9699C23.1041 31.1599 23.4341 31.2399 23.3341 31.5399C23.2341 31.8399 23.3341 31.6799 23.0041 31.9999C22.8644 32.0979 22.7554 32.2336 22.6899 32.3912C22.6244 32.5488 22.605 32.7218 22.6341 32.8899C22.6341 33.3399 22.5441 33.37 22.4641 33.74C22.3841 34.11 22.2341 33.7999 22.0941 34.3499M18.1941 26.3499C18.3544 26.2167 18.5556 26.1426 18.7641 26.1399C18.9441 26.1399 19.1841 26.1999 19.2141 26.3199C19.2441 26.4399 18.7641 26.66 18.6741 26.74C18.4241 26.97 18.0341 27.44 17.8041 27.49C17.7741 27.5029 17.7417 27.5095 17.7091 27.5095C17.6764 27.5095 17.6441 27.5029 17.6141 27.49C17.7617 27.1147 17.9424 26.7532 18.1541 26.4099M18.5241 25.6699C18.6241 25.5299 18.9341 25.1399 18.9741 25.0899C19.0681 24.9983 19.1928 24.9448 19.3241 24.9399C19.4341 24.9399 19.5841 24.9399 19.6041 25.0699C19.6117 25.2294 19.5772 25.388 19.5041 25.5299C19.2973 25.7347 19.0243 25.8588 18.7341 25.8799C18.5641 25.8799 18.4941 25.7199 18.5241 25.6699ZM41.6441 29.9999C39.6428 27.2996 37.0377 25.1048 34.0369 23.591C31.036 22.0771 27.7227 21.2861 24.3616 21.2813C21.0006 21.2764 17.685 22.0578 14.6798 23.563C11.6746 25.0682 9.06311 27.2554 7.05406 29.9499C6.99406 30.0199 6.95406 30.0899 6.91406 30.1399L7.04407 30.3399C9.04657 33.0384 11.6521 35.2315 14.6528 36.7441C17.6535 38.2567 20.9662 39.047 24.3265 39.0519C27.6869 39.0567 31.0018 38.276 34.0069 36.7721C37.0119 35.2682 39.6238 33.0827 41.6341 30.3899L41.7741 30.1899L41.6441 29.9999Z" fill="white"/>
<path d="M6.38281 4.33008L6.37281 13.8301H4.77281L4.78281 6.56008H4.77281L3.65281 7.72008H3.63281V6.05008L5.11281 4.33008H6.38281Z" fill="white"/>
<path d="M11.6509 6.40052V7.26051C11.6664 7.60209 11.5662 7.93891 11.3666 8.21653C11.167 8.49416 10.8797 8.69638 10.5509 8.79051C10.9154 8.86119 11.2392 9.06803 11.4565 9.36897C11.6739 9.66991 11.7684 10.0423 11.7209 10.4105V11.8105C11.7509 12.1152 11.7105 12.4228 11.6028 12.7095C11.4951 12.9961 11.3231 13.2542 11.0999 13.4639C10.8767 13.6736 10.6083 13.8292 10.3155 13.9187C10.0227 14.0083 9.71322 14.0294 9.41093 13.9805C7.78093 13.9805 7.21094 13.0505 7.21094 11.6105V10.3605H8.67094V11.7205C8.67094 12.2805 8.86093 12.6405 9.41093 12.6505C9.96093 12.6605 10.1209 12.3005 10.1309 11.7905V10.2205C10.1309 9.7205 9.91094 9.45051 9.35094 9.45051H8.67094V8.23051H9.27094C9.79094 8.23051 10.1209 7.97052 10.1209 7.46052V6.46052C10.1209 5.94052 9.94093 5.61052 9.44093 5.61052C8.94093 5.61052 8.75093 5.9405 8.75093 6.5305V7.5305H7.35094V6.6905C7.35094 5.2905 7.93093 4.31051 9.58093 4.32051C9.8722 4.28522 10.1677 4.31751 10.4445 4.41487C10.7212 4.51222 10.9719 4.67204 11.1769 4.88191C11.3819 5.09178 11.5359 5.34604 11.6267 5.62501C11.7176 5.90398 11.743 6.20015 11.7009 6.49052" fill="white"/>
<path d="M14.9703 7.26013V5.34012C14.9505 5.20102 14.9621 5.05928 15.0043 4.92526C15.0465 4.79125 15.1182 4.66839 15.2142 4.56574C15.3101 4.46309 15.4278 4.38325 15.5587 4.33209C15.6896 4.28094 15.8302 4.25977 15.9703 4.27014C16.7003 4.27014 16.9103 4.68014 16.9103 5.27014V5.74014H16.3503V5.22013C16.3503 4.97013 16.2703 4.83014 16.0303 4.83014C15.7903 4.83014 15.6903 5.00014 15.6903 5.24014V7.37012C15.6903 7.62012 15.7903 7.79013 16.0303 7.79013C16.2703 7.79013 16.3603 7.63015 16.3603 7.40015V6.67014H16.9703V7.35013C16.9703 7.92013 16.7303 8.35013 16.0203 8.35013C15.8802 8.3605 15.7396 8.33933 15.6087 8.28818C15.4778 8.23702 15.3601 8.15719 15.2642 8.05454C15.1682 7.95189 15.0965 7.82902 15.0543 7.69501C15.0121 7.56099 15.0005 7.41922 15.0203 7.28012" fill="white"/>
<path d="M17.2734 4.31055H17.9434L17.9334 7.74055H18.7334V8.28055H17.2734V4.31055Z" fill="white"/>
<path d="M19.0531 4.33078L19.0469 8.30078L19.7169 8.30183L19.7231 4.33184L19.0531 4.33078Z" fill="white"/>
<path d="M21.9338 5.71055H21.9137L21.4637 8.29055H21.1537L20.6537 5.71055H20.6437V8.29055L20.0938 8.28055V4.31055H20.8738L21.3037 6.55055H21.3137L21.7038 4.32055H22.5438V8.29055H21.9338V5.71055Z" fill="white"/>
<path d="M23.6525 7.0293H24.1825L23.9225 5.42932L23.6525 7.0293ZM22.8125 8.2793L23.5725 4.2793H24.3525L25.1025 8.2793H24.3525L24.2325 7.54932H23.5225L23.4025 8.2793H22.8125Z" fill="white"/>
<path d="M24.9922 4.32031H26.7622V4.87031H26.2122V8.29031H25.5322L25.5422 4.87031L24.9922 4.86031V4.32031Z" fill="white"/>
<path d="M27.0703 4.32031H28.6703V4.87031H27.7403V6.00031H28.4003V6.54031H27.7403V7.75031H28.6603V8.29031H27.0703V4.32031Z" fill="white"/>
<path d="M15.6916 12.5799H16.2316L15.9616 10.9899L15.6916 12.5799ZM14.8516 13.8398L15.6116 9.83984H16.3516L17.1016 13.8398H16.4116L16.2916 13.1099H15.5816L15.4616 13.8398H14.8516Z" fill="white"/>
<path d="M17.3563 12.8209V10.8909C17.3365 10.7518 17.3481 10.6101 17.3903 10.476C17.4325 10.342 17.5042 10.2192 17.6001 10.1165C17.696 10.0139 17.8138 9.93403 17.9446 9.88288C18.0755 9.83172 18.2162 9.81055 18.3563 9.82092C19.0963 9.82092 19.2963 10.2409 19.2963 10.8209V11.2609H18.6863V10.7409C18.6863 10.4909 18.6063 10.3509 18.3663 10.3509C18.1263 10.3509 18.0263 10.5209 18.0263 10.7609V12.8909C18.0263 13.1309 18.1263 13.3009 18.3663 13.3009C18.6063 13.3009 18.6963 13.1509 18.6963 12.9209V12.2609H19.3063V12.9409C19.3063 13.5109 19.0663 13.9409 18.3063 13.9409C18.1661 13.9513 18.0255 13.9301 17.8946 13.879C17.7638 13.8278 17.6461 13.748 17.5501 13.6453C17.4542 13.5427 17.3825 13.4198 17.3403 13.2858C17.2981 13.1518 17.2865 13.01 17.3063 12.8709" fill="white"/>
<path d="M19.4844 9.88086H21.2544V10.4209H20.7044V13.8509H20.0244L20.0344 10.4209H19.4844V9.88086Z" fill="white"/>
<path d="M21.5765 9.90891L21.5703 13.8789L22.2403 13.88L22.2466 9.90996L21.5765 9.90891Z" fill="white"/>
<path d="M23.971 12.9307V10.8007C23.971 10.5607 23.861 10.3907 23.621 10.3907C23.381 10.3907 23.281 10.5607 23.281 10.8007V12.9307C23.281 13.1707 23.381 13.3407 23.621 13.3407C23.861 13.3407 23.971 13.1707 23.971 12.9307ZM22.611 12.8207V10.9007C22.5911 10.7616 22.6028 10.6198 22.645 10.4858C22.6872 10.3518 22.7589 10.2289 22.8548 10.1263C22.9507 10.0236 23.0685 9.9438 23.1993 9.89264C23.3302 9.84149 23.4708 9.82032 23.611 9.83069C23.7484 9.83035 23.8844 9.85833 24.0105 9.9129C24.1367 9.96748 24.2502 10.0475 24.344 10.1479C24.4379 10.2483 24.51 10.3669 24.5559 10.4965C24.6018 10.626 24.6206 10.7636 24.611 10.9007V12.8307C24.611 13.0959 24.5056 13.3502 24.3181 13.5378C24.1305 13.7253 23.8762 13.8307 23.611 13.8307C23.3457 13.8307 23.0914 13.7253 22.9038 13.5378C22.7163 13.3502 22.611 13.0959 22.611 12.8307" fill="white"/>
<path d="M25.5856 11.3609L25.5756 13.8509H25.0156L25.0256 9.88086H25.6756L26.3956 12.1609V9.88086H26.9556L26.9456 13.8609H26.3656L25.5856 11.3609Z" fill="white"/>
</g>
</g>
<defs>
<clipPath id="clip0_1218_13411">
<rect width="47.93" height="47.93" fill="white"/>
</clipPath>
</defs>
</svg>
