<svg width="48" height="48" viewBox="0 0 48 48" fill="none" xmlns="http://www.w3.org/2000/svg">
<g clip-path="url(#clip0_1218_13993)">
<path d="M47.93 0H0V47.93H47.93V0Z" fill="#394A7F"/>
<mask id="mask0_1218_13993" style="mask-type:luminance" maskUnits="userSpaceOnUse" x="0" y="0" width="48" height="48">
<path d="M47.93 0H0V47.93H47.93V0Z" fill="white"/>
</mask>
<g mask="url(#mask0_1218_13993)">
<path d="M31.6908 21.3203C31.434 21.6647 31.3162 22.0931 31.3608 22.5203C31.5001 22.9261 31.7901 23.2627 32.1708 23.4603C32.4297 23.1173 32.5445 22.6867 32.4908 22.2603C32.354 21.8563 32.0678 21.52 31.6908 21.3203Z" fill="white"/>
<path d="M30.9441 24.7904C31.2011 24.4465 31.3157 24.0167 31.2642 23.5904C31.3114 23.4722 31.3254 23.3434 31.3049 23.2178C31.2843 23.0922 31.2299 22.9746 31.1475 22.8776C31.0651 22.7806 30.9578 22.7079 30.8372 22.6674C30.7165 22.6268 30.5871 22.6199 30.4629 22.6474C30.3386 22.6749 30.2242 22.7357 30.1319 22.8234C30.0396 22.9111 29.973 23.0222 29.9392 23.1449C29.9054 23.2676 29.9057 23.3972 29.94 23.5198C29.9744 23.6423 30.0415 23.7532 30.1341 23.8404C30.2712 24.2499 30.5615 24.5904 30.9441 24.7904Z" fill="white"/>
<path d="M32.8203 24.1395C33.0859 24.4075 33.4433 24.5648 33.8203 24.5795C34.221 24.5093 34.5792 24.2872 34.8203 23.9595C34.5547 23.6915 34.1973 23.5343 33.8203 23.5195C33.4196 23.5897 33.0614 23.8118 32.8203 24.1395Z" fill="white"/>
<path d="M33.6126 21.5401C33.3312 21.8931 33.1953 22.3402 33.2326 22.7901C33.6794 22.8269 34.1232 22.6909 34.4726 22.4101C34.7486 22.0505 34.8838 21.6024 34.8526 21.1501C34.4043 21.114 33.9596 21.2539 33.6126 21.5401Z" fill="white"/>
<path d="M32.6231 25.9405C33.0174 25.9463 33.3993 25.8035 33.6931 25.5405C33.4799 25.2171 33.1505 24.988 32.7731 24.9006C32.3789 24.8948 31.9969 25.0376 31.7031 25.3006C31.9163 25.624 32.2457 25.8531 32.6231 25.9405Z" fill="white"/>
<path d="M33.1076 34.7599H29.0176C28.9411 34.7585 28.865 34.7726 28.794 34.8012C28.7231 34.8299 28.6586 34.8726 28.6045 34.9267C28.5503 34.9809 28.5077 35.0453 28.479 35.1163C28.4503 35.1873 28.4362 35.2633 28.4376 35.3398C28.4376 35.4937 28.4987 35.6412 28.6075 35.75C28.7162 35.8587 28.8638 35.9199 29.0176 35.9199H33.1076C33.2614 35.9199 33.4089 35.8587 33.5177 35.75C33.6265 35.6412 33.6876 35.4937 33.6876 35.3398C33.6889 35.2633 33.6749 35.1873 33.6462 35.1163C33.6175 35.0453 33.5749 34.9809 33.5207 34.9267C33.4666 34.8726 33.4021 34.8299 33.3311 34.8012C33.2602 34.7726 33.1841 34.7585 33.1076 34.7599Z" fill="white"/>
<path d="M33.1075 41.1505H29.0175C28.9418 41.1492 28.8666 41.1629 28.7963 41.1909C28.726 41.219 28.662 41.2608 28.608 41.3138C28.554 41.3669 28.5111 41.4302 28.4818 41.5C28.4526 41.5698 28.4375 41.6448 28.4375 41.7205C28.4375 41.8743 28.4986 42.0218 28.6074 42.1306C28.7161 42.2394 28.8637 42.3005 29.0175 42.3005H33.1075C33.2613 42.3005 33.4089 42.2394 33.5176 42.1306C33.6264 42.0218 33.6875 41.8743 33.6875 41.7205C33.6875 41.6448 33.6724 41.5698 33.6432 41.5C33.6139 41.4302 33.571 41.3669 33.517 41.3138C33.463 41.2608 33.399 41.219 33.3287 41.1909C33.2584 41.1629 33.1832 41.1492 33.1075 41.1505Z" fill="white"/>
<path d="M14.6884 33.3493C14.5943 33.3166 14.4972 33.2931 14.3984 33.2793L14.6884 33.3493Z" fill="white"/>
<path d="M21.3528 35.8595H22.1628V37.9995H21.3528V35.8595ZM32.9828 36.3195H29.1928C29.1053 36.3195 29.0214 36.3543 28.9595 36.4162C28.8976 36.4781 28.8628 36.562 28.8628 36.6495V37.7995L26.3828 38.0695L22.7628 37.9895V35.7795C23.249 35.7166 23.7302 35.6197 24.2028 35.4895C27.6828 34.4895 28.4428 32.3295 28.3728 30.3395C28.3028 28.3495 28.9428 27.5195 29.8828 27.1695C30.1318 27.074 30.3898 27.0037 30.6528 26.9595C30.6771 27.5623 30.7882 28.1585 30.9828 28.7295H31.2328C31.0324 28.1562 30.9178 27.5564 30.8928 26.9495C31.1688 26.9233 31.4468 26.9233 31.7228 26.9495C31.4409 26.7905 31.1762 26.6028 30.9328 26.3895C31.1246 25.5473 31.5885 24.7917 32.2528 24.2395C32.5958 23.9085 32.9041 23.5432 33.1728 23.1495L32.9728 23.0195C32.7086 23.3987 32.4071 23.7504 32.0728 24.0695C31.4193 24.6321 30.9491 25.3775 30.7228 26.2095C30.5129 26.0197 30.3127 25.8194 30.1228 25.6095C29.2628 24.6095 28.1228 25.3495 26.5828 26.8195C25.0428 28.2895 23.0228 28.3395 21.0828 26.3595C20.3182 25.4548 19.3394 24.7558 18.2355 24.3261C17.1317 23.8965 15.9379 23.7498 14.7628 23.8995C15.8128 24.3495 16.1728 25.3295 16.7028 27.8095C17.2328 30.2895 18.7028 31.5995 20.5728 31.8095C19.6828 31.9495 19.4528 32.0695 18.0328 33.0595C17.0166 33.6096 15.8271 33.7458 14.7128 33.4395C15.8728 33.7995 17.2628 35.0295 18.4928 35.4395C19.2241 35.6878 19.9831 35.8457 20.7528 35.9095V38.0195L13.8828 37.8795V39.2595L26.3828 38.9895L28.8628 39.2595V40.4095C28.8628 40.4529 28.8714 40.4958 28.8879 40.5358C28.9045 40.5758 28.9288 40.6122 28.9595 40.6429C28.9901 40.6735 29.0265 40.6978 29.0665 40.7144C29.1066 40.731 29.1495 40.7395 29.1928 40.7395H32.9828C33.0703 40.7395 33.1543 40.7047 33.2162 40.6429C33.278 40.581 33.3128 40.497 33.3128 40.4095V36.6395C33.3128 36.552 33.278 36.4681 33.2162 36.4062C33.1543 36.3443 33.0703 36.3095 32.9828 36.3095" fill="white"/>
<path d="M13.5126 39.029C13.5208 39.168 13.474 39.3046 13.3823 39.4094C13.2907 39.5142 13.1614 39.5787 13.0225 39.589H12.7326C12.6642 39.5839 12.5975 39.5654 12.5363 39.5345C12.4751 39.5036 12.4207 39.4609 12.3761 39.4088C12.3315 39.3568 12.2976 39.2964 12.2764 39.2312C12.2552 39.166 12.2471 39.0973 12.2525 39.029V38.029C12.2457 37.9598 12.2527 37.89 12.2733 37.8237C12.2939 37.7574 12.3275 37.6958 12.3722 37.6427C12.417 37.5895 12.4719 37.5459 12.5338 37.5144C12.5957 37.4828 12.6633 37.464 12.7326 37.459H13.0225C13.0922 37.464 13.1602 37.4828 13.2226 37.5143C13.285 37.5457 13.3405 37.5891 13.3861 37.6421C13.4316 37.6951 13.4662 37.7565 13.4879 37.8229C13.5096 37.8893 13.518 37.9593 13.5126 38.029V39.029Z" fill="white"/>
<path d="M4.03125 6.07937V7.74937H4.04125L5.17125 6.58938H5.18125V13.8594H6.78125V4.35938H5.50125L4.03125 6.07937Z" fill="white"/>
<path d="M10.7931 11.7098C10.7931 12.3198 10.5631 12.7098 10.0231 12.7098C9.48312 12.7098 9.28311 12.3398 9.28311 11.7098V9.97977C9.28311 9.43977 9.53311 9.10977 10.0331 9.10977C10.5331 9.10977 10.7931 9.43975 10.7931 10.0598V11.7098ZM12.3731 11.5698V10.1698C12.3731 8.61977 11.7531 7.82977 10.6131 7.82977C10.3415 7.81248 10.0709 7.87647 9.83578 8.01361C9.60069 8.15075 9.41177 8.35481 9.29312 8.59976V6.59976C9.29312 6.01976 9.47312 5.59976 10.0431 5.59976C10.6131 5.59976 10.7831 5.92978 10.7831 6.51978V7.14978H12.2431V6.64978C12.2431 5.24978 11.7831 4.25977 10.0131 4.25977C8.24312 4.25977 7.70312 5.33977 7.70312 6.82977V11.4498C7.70312 12.9198 8.35311 13.9898 10.0331 13.9898C10.3562 14.0323 10.6847 13.9991 10.9928 13.8927C11.3008 13.7864 11.5798 13.6098 11.8078 13.377C12.0358 13.1441 12.2065 12.8614 12.3063 12.5512C12.4062 12.241 12.4325 11.9119 12.3831 11.5898" fill="white"/>
<path d="M15.9747 4.86057V6.42056H16.2147C16.4447 6.42056 16.5447 6.31056 16.5447 6.10056V5.18057C16.5447 4.97057 16.4447 4.86057 16.2147 4.86057H15.9747ZM15.3047 4.31055H16.3047C16.9747 4.31055 17.2247 4.65057 17.2247 5.21057V6.04056C17.2247 6.60056 16.9747 6.94055 16.3047 6.94055H15.9847V8.26056H15.3547L15.3047 4.31055Z" fill="white"/>
<path d="M17.5547 4.32031H19.1447V4.86031H18.2247V6.00031H18.8847V6.54031H18.2247V7.74031H19.1447V8.29031H17.5547V4.32031Z" fill="white"/>
<path d="M20.2384 7.02905H20.7684L20.5084 5.42908L20.2384 7.02905ZM19.3984 8.28906L20.1484 4.28906H20.9084L21.6684 8.28906H20.9784L20.8584 7.55905H20.1484L20.0284 8.28906H19.3984Z" fill="white"/>
<path d="M21.8531 7.26013V5.34012C21.8333 5.20102 21.8449 5.05928 21.8871 4.92526C21.9293 4.79125 22.001 4.66839 22.097 4.56574C22.1929 4.46309 22.3107 4.38325 22.4415 4.33209C22.5724 4.28094 22.713 4.25977 22.8531 4.27014C23.5931 4.27014 23.7931 4.68014 23.7931 5.27014V5.74014H23.1831V5.26013C23.1831 5.02013 23.1031 4.87012 22.8631 4.87012C22.6231 4.87012 22.5231 5.04013 22.5231 5.29013V7.42014C22.5231 7.66014 22.6231 7.83014 22.8631 7.83014C23.1031 7.83014 23.1831 7.67013 23.1831 7.44013V6.71015H23.7931V7.39014C23.7931 7.96014 23.5631 8.39014 22.8531 8.39014C22.713 8.40051 22.5724 8.37934 22.4415 8.32819C22.3107 8.27703 22.1929 8.1972 22.097 8.09455C22.001 7.99189 21.9293 7.86903 21.8871 7.73502C21.8449 7.601 21.8333 7.45923 21.8531 7.32013" fill="white"/>
<path d="M24.1484 4.32031H25.7384V4.86031H24.8184V6.00031H25.4784V6.54031H24.8184V7.74031H25.7384V8.29031H24.1484V4.32031Z" fill="white"/>
<path d="M26.7903 7.70039L26.4503 8.60039H26.0703L26.1503 7.65039H26.7903V7.70039Z" fill="white"/>
<path d="M29.5593 4.31055V7.38055C29.5593 7.96055 29.3093 8.33057 28.6393 8.33057C28.5194 8.34936 28.3969 8.33958 28.2815 8.302C28.1662 8.26443 28.0613 8.2001 27.9755 8.11432C27.8897 8.02854 27.8254 7.9237 27.7879 7.80835C27.7503 7.693 27.7405 7.57041 27.7593 7.45056V6.66055H28.3493V7.46057C28.3493 7.66057 28.4193 7.78055 28.5993 7.78055C28.7793 7.78055 28.8493 7.66056 28.8493 7.45056V4.31055H29.5593Z" fill="white"/>
<path d="M31.8682 4.31055V7.31055C31.8682 7.92055 31.6082 8.31055 30.9282 8.31055C30.793 8.32663 30.6559 8.31184 30.5273 8.26727C30.3986 8.2227 30.2818 8.14952 30.1855 8.05325C30.0892 7.95698 30.016 7.84013 29.9715 7.71149C29.9269 7.58284 29.9121 7.44574 29.9282 7.31055V4.31055H30.5982V7.38055C30.5982 7.62055 30.6882 7.78055 30.9282 7.78055C31.1682 7.78055 31.2582 7.62055 31.2582 7.38055V4.31055H31.8682Z" fill="white"/>
<path d="M32.2224 7.42993V6.89993H32.8424V7.43991C32.8424 7.66991 32.9424 7.78992 33.1724 7.78992C33.4024 7.78992 33.4724 7.64991 33.4724 7.43991V7.25992C33.4709 7.14937 33.4429 7.04078 33.3907 6.94333C33.3385 6.84587 33.2636 6.7624 33.1724 6.69992L32.7824 6.3099C32.6143 6.18775 32.4764 6.02869 32.3793 5.84494C32.2822 5.66119 32.2286 5.45763 32.2224 5.24991V5.10992C32.2154 4.98771 32.2355 4.86545 32.2813 4.75192C32.3271 4.6384 32.3974 4.53642 32.4873 4.45328C32.5771 4.37013 32.6842 4.30788 32.8009 4.27099C32.9177 4.23411 33.0411 4.2235 33.1624 4.23993C33.8324 4.23993 34.0924 4.56992 34.0924 5.13992V5.45993H33.4824V5.1199C33.4824 4.8899 33.3824 4.77991 33.1724 4.77991C33.1283 4.77485 33.0836 4.78 33.0418 4.79495C32.9999 4.8099 32.9621 4.83426 32.9312 4.86615C32.9003 4.89804 32.8771 4.93658 32.8634 4.97885C32.8498 5.02112 32.846 5.06597 32.8524 5.10992V5.25992C32.8524 5.47992 32.9724 5.60993 33.1724 5.79993L33.5924 6.21991C33.7517 6.33534 33.883 6.48517 33.9765 6.65829C34.07 6.83141 34.1233 7.02337 34.1324 7.21991V7.40991C34.1471 7.54184 34.1308 7.6754 34.0846 7.79986C34.0384 7.92433 33.9637 8.03624 33.8665 8.12665C33.7693 8.21705 33.6523 8.28343 33.5248 8.32046C33.3973 8.3575 33.2629 8.36415 33.1324 8.3399C33.0081 8.35907 32.881 8.34938 32.761 8.31155C32.641 8.27373 32.5313 8.20878 32.4404 8.12176C32.3495 8.03475 32.2799 7.92802 32.2369 7.80978C32.1939 7.69154 32.1787 7.56497 32.1924 7.43991" fill="white"/>
<path d="M34.3203 4.32031H36.0903V4.86031H35.5403V8.29031H34.8703V4.86031H34.3203V4.32031Z" fill="white"/>
<path d="M37.0684 4.32031H36.3984V8.29031H37.0684V4.32031Z" fill="white"/>
<path d="M37.4609 7.25952V5.33951C37.4609 4.71951 37.7509 4.26953 38.4609 4.26953C39.1709 4.26953 39.4609 4.67953 39.4609 5.26953V5.73953H38.8509V5.25952C38.8509 5.01952 38.7709 4.86951 38.5309 4.86951C38.2909 4.86951 38.1809 5.03952 38.1809 5.28952V7.41953C38.1809 7.65953 38.2809 7.82953 38.5309 7.82953C38.7809 7.82953 38.8509 7.66951 38.8509 7.43951V6.70953H39.4609V7.38953C39.4609 7.95953 39.2209 8.38953 38.4609 8.38953C37.7009 8.38953 37.4609 7.93952 37.4609 7.31952" fill="white"/>
<path d="M39.7578 4.32031H41.3478V4.86031H40.4178V6.00031H41.0878V6.54031H40.4178V7.74031H41.3478V8.29031H39.7578V4.32031Z" fill="white"/>
<path d="M16.0275 12.5896H16.5575L16.2975 10.9996L16.0275 12.5896ZM15.1875 13.8496L15.9375 9.84961H16.6975L17.4575 13.8496H16.7675L16.6475 13.1196H15.9375L15.8275 13.8496H15.1875Z" fill="white"/>
<path d="M18.3044 11.3609V13.8509H17.7344V9.88086H18.3944L19.1144 12.1609V9.88086H19.6644V13.8509H19.0844L18.3044 11.3609Z" fill="white"/>
<path d="M21 13.3096C21.27 13.3096 21.38 13.1396 21.38 12.8996V10.8196C21.3879 10.767 21.3836 10.7133 21.3676 10.6626C21.3516 10.6119 21.3242 10.5655 21.2876 10.5269C21.251 10.4884 21.206 10.4587 21.1562 10.4401C21.1064 10.4215 21.0529 10.4145 21 10.4196H20.72V13.3096H21ZM22 10.9396V12.7796C22 13.3896 21.74 13.8496 21 13.8496H20V9.84961H21C21.71 9.84961 22 10.2996 22 10.9096" fill="white"/>
<path d="M23.0036 12.9898V12.4598H23.6336V13.0098C23.6336 13.2298 23.7336 13.3598 23.9536 13.3598C24.1736 13.3598 24.2636 13.2198 24.2636 13.0098V12.8498C24.2583 12.74 24.2286 12.6328 24.1767 12.5359C24.1248 12.4391 24.052 12.355 23.9636 12.2898L23.5736 11.8998C23.4049 11.7782 23.2666 11.6192 23.1695 11.4353C23.0723 11.2515 23.019 11.0476 23.0136 10.8398V10.6998C23.0066 10.5776 23.0267 10.4553 23.0725 10.3418C23.1183 10.2283 23.1886 10.1263 23.2785 10.0431C23.3683 9.95997 23.4754 9.89772 23.5921 9.86084C23.7089 9.82395 23.8323 9.81335 23.9536 9.82977C24.6236 9.82977 24.8836 10.1598 24.8836 10.7298V11.0598H24.2736V10.7098C24.2736 10.4798 24.1636 10.3697 23.9536 10.3697C23.9103 10.3663 23.8667 10.3727 23.8262 10.3884C23.7856 10.404 23.7491 10.4286 23.7193 10.4603C23.6896 10.492 23.6673 10.53 23.6542 10.5714C23.6411 10.6129 23.6374 10.6567 23.6436 10.6998V10.7798C23.6436 10.9998 23.7636 11.1298 23.9536 11.3198L24.3836 11.7398C24.5414 11.8567 24.6715 12.0069 24.7649 12.1797C24.8582 12.3525 24.9124 12.5437 24.9236 12.7398V12.9298C24.9379 13.062 24.9213 13.1957 24.8751 13.3205C24.829 13.4452 24.7545 13.5576 24.6576 13.6487C24.5607 13.7398 24.4439 13.8072 24.3166 13.8455C24.1892 13.8839 24.0547 13.8922 23.9236 13.8697C23.7979 13.8889 23.6695 13.8789 23.5484 13.8405C23.4272 13.8022 23.3164 13.7365 23.2246 13.6486C23.1328 13.5607 23.0624 13.4528 23.0189 13.3334C22.9754 13.214 22.9599 13.0861 22.9736 12.9598" fill="white"/>
<path d="M25.1016 9.88086H26.8816V10.4309H26.3316V13.8509H25.6616V10.4309H25.1016V9.88086Z" fill="white"/>
<path d="M27.8575 10.4196V11.6596H28.0775C28.1224 11.6664 28.1683 11.6625 28.2114 11.6483C28.2545 11.6341 28.2937 11.61 28.3258 11.5779C28.3579 11.5458 28.382 11.5066 28.3962 11.4635C28.4104 11.4204 28.4143 11.3745 28.4075 11.3296V10.7396C28.4075 10.5296 28.3075 10.4196 28.0775 10.4196H27.8575ZM27.8575 12.0296V13.8496H27.1875V9.84961H28.1875C28.8675 9.84961 29.1075 10.1796 29.1075 10.7396V11.2596C29.1075 11.6896 28.9575 11.9396 28.5775 12.0296L29.2175 13.8296H28.5175L27.8575 12.0296Z" fill="white"/>
<path d="M30.8047 12.9307V10.8007C30.8047 10.5607 30.6947 10.3907 30.4547 10.3907C30.2147 10.3907 30.1147 10.5607 30.1147 10.8007V12.9307C30.1147 13.1707 30.2247 13.3407 30.4547 13.3407C30.6847 13.3407 30.8047 13.1707 30.8047 12.9307ZM29.4547 12.8207V10.9007C29.4349 10.7616 29.4465 10.6198 29.4887 10.4858C29.5309 10.3518 29.6026 10.2289 29.6985 10.1263C29.7945 10.0236 29.9122 9.9438 30.0431 9.89264C30.1739 9.84149 30.3146 9.82032 30.4547 9.83069C30.5921 9.83035 30.7282 9.85833 30.8543 9.9129C30.9804 9.96748 31.0939 10.0475 31.1878 10.1479C31.2816 10.2483 31.3537 10.3669 31.3997 10.4965C31.4456 10.626 31.4643 10.7636 31.4547 10.9007V12.8207C31.4658 12.9586 31.4481 13.0973 31.4028 13.228C31.3576 13.3587 31.2856 13.4786 31.1917 13.5801C31.0977 13.6816 30.9837 13.7625 30.8568 13.8177C30.73 13.8729 30.593 13.9011 30.4547 13.9007C30.3164 13.9011 30.1794 13.8729 30.0526 13.8177C29.9257 13.7625 29.8117 13.6816 29.7177 13.5801C29.6238 13.4786 29.5518 13.3587 29.5066 13.228C29.4613 13.0973 29.4436 12.9586 29.4547 12.8207Z" fill="white"/>
<path d="M32.4116 11.3609V13.8509H31.8516V9.88086H32.5016L33.2216 12.1609V9.88086H33.7816V13.8509H33.1916L32.4116 11.3609Z" fill="white"/>
<path d="M35.1725 11.7307H36.1725V13.8507H35.6925V13.4207C35.6616 13.5644 35.5798 13.6921 35.4622 13.7802C35.3446 13.8684 35.1991 13.9112 35.0525 13.9007C34.4725 13.9007 34.2125 13.4407 34.2125 12.8207V10.9007C34.1927 10.7616 34.2043 10.6198 34.2465 10.4858C34.2887 10.3518 34.3604 10.2289 34.4564 10.1263C34.5523 10.0236 34.67 9.9438 34.8009 9.89264C34.9317 9.84149 35.0724 9.82032 35.2125 9.83069C35.9525 9.83069 36.2125 10.2407 36.2125 10.8307V11.1807H35.6025V10.7707C35.6025 10.5307 35.5025 10.3907 35.2625 10.3907C35.0225 10.3907 34.9225 10.5607 34.9225 10.8007V12.9307C34.9225 13.1707 35.0225 13.3407 35.2525 13.3407C35.4825 13.3407 35.5725 13.2207 35.5725 12.9607V12.2607H35.2625L35.1725 11.7307Z" fill="white"/>
<path d="M15.9747 15.4395H15.3047V19.4095H15.9747V15.4395Z" fill="white"/>
<path d="M16.9116 16.9195V19.4195H16.3516V15.4395H17.0116L17.7316 17.7195V15.4395H18.2816V19.4195H17.7016L16.9116 16.9195Z" fill="white"/>
<path d="M18.6343 18.5608V18.0209H19.2543V18.5708C19.2543 18.7908 19.3543 18.9208 19.5843 18.9208C19.8143 18.9208 19.8843 18.7808 19.8843 18.5708V18.4208C19.8816 18.3102 19.8542 18.2015 19.804 18.1029C19.7538 18.0042 19.6822 17.9181 19.5943 17.8508L19.1943 17.4609C19.0257 17.3398 18.8881 17.1808 18.7926 16.9966C18.697 16.8124 18.6462 16.6083 18.6443 16.4009V16.2608C18.6341 16.1383 18.6516 16.0151 18.6955 15.9002C18.7394 15.7854 18.8086 15.6819 18.8979 15.5974C18.9872 15.5129 19.0943 15.4496 19.2114 15.4121C19.3285 15.3746 19.4525 15.3639 19.5743 15.3808C20.2443 15.3808 20.5043 15.7108 20.5043 16.2908V16.6109H19.9043V16.2608C19.9043 16.0308 19.7943 15.9208 19.5843 15.9208C19.5406 15.9177 19.4967 15.9242 19.4558 15.9398C19.4149 15.9554 19.3778 15.9798 19.3473 16.0112C19.3168 16.0427 19.2936 16.0804 19.2792 16.1218C19.2649 16.1632 19.2598 16.2073 19.2643 16.2508V16.3309C19.2643 16.5609 19.3943 16.6808 19.5843 16.8708L20.0143 17.2908C20.1711 17.4087 20.3005 17.5591 20.3937 17.7317C20.487 17.9043 20.5417 18.0951 20.5543 18.2908V18.4808C20.5649 18.6118 20.5457 18.7435 20.4981 18.866C20.4505 18.9885 20.3758 19.0986 20.2796 19.1881C20.1834 19.2776 20.0681 19.3442 19.9425 19.3827C19.8169 19.4213 19.6842 19.4309 19.5543 19.4108C19.4299 19.43 19.3028 19.4203 19.1829 19.3825C19.0629 19.3447 18.9532 19.2797 18.8623 19.1927C18.7714 19.1057 18.7018 18.9989 18.6588 18.8807C18.6158 18.7624 18.6005 18.6359 18.6143 18.5108" fill="white"/>
<path d="M20.7344 15.4395H22.5044V15.9895H21.9544V19.4095H21.2844V15.9895H20.7344V15.4395Z" fill="white"/>
<path d="M23.4903 15.4395H22.8203V19.4095H23.4903V15.4395Z" fill="white"/>
<path d="M23.7891 15.4395H25.5691V15.9895H25.0191V19.4095H24.3391V15.9895H23.7891V15.4395Z" fill="white"/>
<path d="M27.8213 15.4395V18.4395C27.8213 19.0495 27.5513 19.4395 26.8813 19.4395C26.7461 19.4555 26.609 19.4407 26.4804 19.3962C26.3517 19.3516 26.2349 19.2784 26.1386 19.1822C26.0423 19.0859 25.9692 18.969 25.9246 18.8404C25.88 18.7117 25.8652 18.5746 25.8813 18.4395V15.4395H26.5513V18.5095C26.5513 18.7495 26.6413 18.8995 26.8813 18.8995C27.1213 18.8995 27.2013 18.7495 27.2013 18.5095V15.4395H27.8213Z" fill="white"/>
<path d="M28.125 15.4395H29.895V15.9895H29.345V19.4095H28.675V15.9895H28.125V15.4395Z" fill="white"/>
<path d="M30.8809 15.4395H30.2109V19.4095H30.8809V15.4395Z" fill="white"/>
<path d="M32.6078 18.4907V16.3607C32.6078 16.1207 32.5078 15.9507 32.2678 15.9507C32.0278 15.9507 31.9278 16.1207 31.9278 16.3607V18.4907C31.9278 18.7307 32.0378 18.9007 32.2678 18.9007C32.4978 18.9007 32.6078 18.7307 32.6078 18.4907ZM31.2578 18.3907V16.4707C31.2578 16.2055 31.3632 15.9511 31.5507 15.7636C31.7382 15.5761 31.9926 15.4707 32.2578 15.4707C32.523 15.4707 32.7774 15.5761 32.9649 15.7636C33.1525 15.9511 33.2578 16.2055 33.2578 16.4707V18.3907C33.2578 18.6559 33.1525 18.9103 32.9649 19.0978C32.7774 19.2853 32.523 19.3907 32.2578 19.3907C31.9926 19.3907 31.7382 19.2853 31.5507 19.0978C31.3632 18.9103 31.2578 18.6559 31.2578 18.3907Z" fill="white"/>
<path d="M34.2241 16.9195V19.4195H33.6641V15.4395H34.3241L35.0441 17.7195V15.4395H35.5941V19.4195H35.0141L34.2241 16.9195Z" fill="white"/>
<path d="M35.939 18.5608V18.0209H36.559V18.5708C36.559 18.7908 36.659 18.9208 36.889 18.9208C37.119 18.9208 37.189 18.7808 37.189 18.5708V18.4208C37.1863 18.3102 37.1589 18.2015 37.1087 18.1029C37.0585 18.0042 36.9869 17.9181 36.899 17.8508L36.499 17.4609C36.3304 17.3398 36.1928 17.1808 36.0972 16.9966C36.0017 16.8124 35.9509 16.6083 35.949 16.4009V16.2608C35.9388 16.1383 35.9563 16.0151 36.0002 15.9002C36.0441 15.7854 36.1133 15.6819 36.2026 15.5974C36.2919 15.5129 36.399 15.4496 36.5161 15.4121C36.6332 15.3746 36.7572 15.3639 36.879 15.3808C37.549 15.3808 37.809 15.7108 37.809 16.2908V16.6109H37.209V16.2608C37.209 16.0308 37.099 15.9208 36.889 15.9208C36.8453 15.9177 36.8014 15.9242 36.7605 15.9398C36.7195 15.9554 36.6825 15.9798 36.652 16.0112C36.6215 16.0427 36.5983 16.0804 36.5839 16.1218C36.5696 16.1632 36.5645 16.2073 36.569 16.2508V16.3309C36.569 16.5609 36.699 16.6808 36.889 16.8708L37.319 17.2908C37.4758 17.4087 37.6052 17.5591 37.6984 17.7317C37.7916 17.9043 37.8464 18.0951 37.859 18.2908V18.4808C37.8696 18.6118 37.8504 18.7435 37.8028 18.866C37.7552 18.9885 37.6805 19.0986 37.5843 19.1881C37.4881 19.2776 37.3728 19.3442 37.2472 19.3827C37.1216 19.4213 36.9888 19.4309 36.859 19.4108C36.7346 19.43 36.6075 19.4203 36.4875 19.3825C36.3675 19.3447 36.2578 19.2797 36.167 19.1927C36.0761 19.1057 36.0065 18.9989 35.9634 18.8807C35.9204 18.7624 35.9052 18.6359 35.919 18.5108" fill="white"/>
</g>
</g>
<defs>
<clipPath id="clip0_1218_13993">
<rect width="47.93" height="47.93" fill="white"/>
</clipPath>
</defs>
</svg>
