<svg width="48" height="48" viewBox="0 0 48 48" fill="none" xmlns="http://www.w3.org/2000/svg">
<g clip-path="url(#clip0_1218_14132)">
<path d="M47.93 0H0V47.93H47.93V0Z" fill="#2F2D5B"/>
<mask id="mask0_1218_14132" style="mask-type:luminance" maskUnits="userSpaceOnUse" x="0" y="0" width="48" height="48">
<path d="M47.93 0H0V47.93H47.93V0Z" fill="white"/>
</mask>
<g mask="url(#mask0_1218_14132)">
<path d="M28.4209 29.3905C29.0467 28.8191 29.5475 28.1243 29.8917 27.3498C30.236 26.5754 30.4161 25.738 30.4209 24.8905C30.4191 24.6298 30.4024 24.3694 30.3709 24.1105C31.3102 24.2091 32.2009 24.5775 32.9354 25.1714C33.6698 25.7653 34.2166 26.5592 34.5095 27.4571C34.8025 28.355 34.8292 29.3186 34.5863 30.2313C34.3434 31.1441 33.8413 31.967 33.1408 32.6005C32.6759 31.7289 32.0079 30.9822 31.1932 30.4234C30.3786 29.8647 29.4414 29.5104 28.4609 29.3905M32.6209 35.4805C32.6182 36.7793 32.1011 38.0241 31.1828 38.9424C30.2644 39.8608 29.0196 40.3779 27.7208 40.3805C26.8721 40.3822 26.0378 40.1615 25.3008 39.7405C26.3869 38.6042 26.9923 37.0924 26.9909 35.5205C26.9916 35.1274 26.9514 34.7353 26.8709 34.3505C27.7888 34.8589 28.8215 35.124 29.8709 35.1205C30.7968 35.1226 31.7106 34.9104 32.5409 34.5005C32.6107 34.8292 32.6442 35.1645 32.6408 35.5005M15.9708 35.5005C15.9719 35.1642 16.0088 34.829 16.0808 34.5005C16.9633 34.9274 17.9355 35.1358 18.9154 35.1079C19.8953 35.0801 20.8541 34.8169 21.7109 34.3405C21.5244 35.3053 21.5753 36.301 21.8593 37.2417C22.1432 38.1825 22.6517 39.0401 23.3409 39.7405C22.5926 40.1814 21.7394 40.4129 20.8709 40.4105C19.5721 40.4079 18.3273 39.8908 17.4089 38.9724C16.4906 38.0541 15.9735 36.8093 15.9708 35.5105M13.8409 28.9705C13.8436 27.762 14.292 26.597 15.1001 25.6985C15.9083 24.7999 17.0194 24.231 18.2208 24.1005C18.1893 24.3594 18.1726 24.6198 18.1709 24.8805C18.1701 25.7348 18.3475 26.5798 18.6919 27.3615C19.0363 28.1433 19.54 28.8445 20.1709 29.4205C19.1897 29.5342 18.2503 29.8825 17.4322 30.436C16.614 30.9896 15.9413 31.732 15.4708 32.6005C14.9579 32.1451 14.5474 31.5861 14.2664 30.9604C13.9855 30.3347 13.8404 29.6564 13.8409 28.9705ZM24.3109 19.9705C25.2647 19.9741 26.1969 20.2548 26.994 20.7786C27.7912 21.3023 28.4189 22.0465 28.8008 22.9205C27.8302 23.0922 26.9153 23.4955 26.1336 24.096C25.352 24.6966 24.7267 25.4768 24.3109 26.3705C23.8913 25.4776 23.2636 24.6983 22.4806 24.098C21.6977 23.4977 20.7821 23.0939 19.8109 22.9205C20.1945 22.0457 20.824 21.3012 21.6229 20.7775C22.4218 20.2538 23.3556 19.9734 24.3109 19.9705ZM25.4708 31.1205C26.1702 30.7508 26.9497 30.5585 27.7409 30.5605C28.6556 30.5609 29.552 30.8179 30.328 31.3022C31.104 31.7866 31.7286 32.4789 32.1308 33.3005C31.4346 33.6691 30.6586 33.8614 29.8709 33.8605C28.9549 33.8597 28.0574 33.6027 27.2798 33.1185C26.5023 32.6343 25.8757 31.9422 25.4708 31.1205ZM23.1209 31.1205C22.8315 31.7015 22.4294 32.219 21.9379 32.643C21.4465 33.067 20.8756 33.3888 20.2585 33.5899C19.6414 33.7909 18.9904 33.8671 18.3436 33.814C17.6967 33.7609 17.0669 33.5795 16.4909 33.2805C16.8992 32.4682 17.5247 31.785 18.2979 31.3066C19.0711 30.8282 19.9617 30.5734 20.8709 30.5705C21.6542 30.5698 22.4261 30.7585 23.1209 31.1205ZM19.4708 24.1205C20.6317 24.293 21.6922 24.8764 22.4593 25.7646C23.2264 26.6528 23.6492 27.7869 23.6509 28.9605C23.6483 29.212 23.6249 29.4629 23.5808 29.7105C22.42 29.5381 21.3595 28.9547 20.5924 28.0664C19.8253 27.1782 19.4025 26.0441 19.4009 24.8705C19.4043 24.6191 19.4277 24.3683 19.4708 24.1205ZM24.3308 38.9705C23.864 38.515 23.493 37.9707 23.2396 37.3696C22.9863 36.7685 22.8558 36.1228 22.8558 35.4705C22.8558 34.8182 22.9863 34.1726 23.2396 33.5715C23.493 32.9704 23.864 32.426 24.3308 31.9705C24.7977 32.426 25.1687 32.9704 25.422 33.5715C25.6754 34.1726 25.8059 34.8182 25.8059 35.4705C25.8059 36.1228 25.6754 36.7685 25.422 37.3696C25.1687 37.9707 24.7977 38.515 24.3308 38.9705ZM29.2109 24.8705C29.2092 26.0441 28.7864 27.1782 28.0193 28.0664C27.2522 28.9547 26.1917 29.5381 25.0308 29.7105C24.9868 29.4629 24.9634 29.212 24.9609 28.9605C24.9625 27.7869 25.3853 26.6528 26.1524 25.7646C26.9195 24.8764 27.98 24.293 29.1408 24.1205C29.184 24.3683 29.2074 24.6191 29.2109 24.8705ZM36.0008 28.9605C35.9994 27.3729 35.383 25.8476 34.2811 24.7046C33.1792 23.5617 31.6774 22.89 30.0909 22.8305C29.666 21.6361 28.8819 20.6024 27.8461 19.8714C26.8103 19.1405 25.5736 18.748 24.3059 18.748C23.0381 18.748 21.8014 19.1405 20.7656 19.8714C19.7298 20.6024 18.9457 21.6361 18.5208 22.8305C17.2546 22.8676 16.0309 23.2961 15.0181 24.0571C14.0053 24.818 13.2531 25.8741 12.865 27.08C12.477 28.2859 12.472 29.5825 12.8509 30.7913C13.2298 32.0001 13.9739 33.0619 14.9809 33.8305C14.8164 34.3823 14.7322 34.9548 14.7309 35.5305C14.7284 36.6494 15.0322 37.7476 15.6093 38.7061C16.1864 39.6646 17.0149 40.4469 18.0049 40.9682C18.9949 41.4894 20.1087 41.7298 21.2255 41.6632C22.3424 41.5967 23.4198 41.2257 24.3409 40.5905C25.3476 41.2586 26.5327 41.6071 27.7409 41.5905C28.6911 41.5954 29.6294 41.3786 30.4811 40.9572C31.3328 40.5359 32.0746 39.9218 32.6474 39.1636C33.2202 38.4054 33.6082 37.524 33.7807 36.5895C33.9531 35.6551 33.9052 34.6932 33.6408 33.7805C34.377 33.2092 34.9725 32.4768 35.3816 31.6395C35.7907 30.8023 36.0025 29.8824 36.0008 28.9505" fill="white"/>
<path d="M7.46094 4.35938V13.8594H5.86094V6.57937H5.85094L4.72094 7.74937H4.71094V6.07937L6.18094 4.35938H7.46094Z" fill="white"/>
<path d="M8.1875 4.35938H12.1875V5.82937L10.1075 13.8594H8.5175L10.6475 5.65937H8.1875V4.35938Z" fill="white"/>
<path d="M16.3475 4.86057V6.42056H16.5975C16.6424 6.42733 16.6883 6.42346 16.7314 6.40927C16.7745 6.39508 16.8137 6.37097 16.8458 6.33887C16.8779 6.30676 16.902 6.26755 16.9162 6.22443C16.9304 6.1813 16.9343 6.13544 16.9275 6.09055V5.18057C16.9275 4.97057 16.8275 4.86057 16.5975 4.86057H16.3475ZM15.6875 4.31055H16.6875C17.3575 4.31055 17.6075 4.65057 17.6075 5.21057V6.04056C17.6075 6.60056 17.3575 6.94055 16.6875 6.94055H16.3475V8.26056H15.6875V4.31055Z" fill="white"/>
<path d="M18.4728 7.02905H19.0028L18.7428 5.42908L18.4728 7.02905ZM17.6328 8.28906L18.3828 4.28906H19.1428L19.9028 8.28906H19.2128L19.0928 7.55905H18.3528L18.2328 8.28906H17.6328Z" fill="white"/>
<path d="M20.8419 4.85977V6.09976H21.0619C21.1068 6.10653 21.1526 6.10266 21.1957 6.08847C21.2389 6.07428 21.2781 6.05017 21.3102 6.01807C21.3423 5.98596 21.3664 5.94678 21.3806 5.90366C21.3948 5.86053 21.3986 5.81467 21.3919 5.76978V5.17978C21.3919 4.96978 21.2919 4.85977 21.0619 4.85977H20.8419ZM20.8419 6.45978V8.25977H20.1719V4.25977H21.1719C21.8419 4.25977 22.0919 4.59976 22.0919 5.15976V5.65976C22.1184 5.83296 22.077 6.00971 21.9764 6.15317C21.8758 6.29662 21.7237 6.39573 21.5519 6.42978L22.1919 8.23978H21.4919L20.8419 6.45978Z" fill="white"/>
<path d="M22.2891 4.32031H24.0691V4.86031H23.5191V8.29031H22.8391V4.86031H22.2891V4.32031Z" fill="white"/>
<path d="M24.9428 5.79031V8.29031H24.3828V4.32031H25.0328L25.7528 6.60031V4.32031H26.3128V8.29031H25.7228L24.9428 5.79031Z" fill="white"/>
<path d="M26.6875 4.32031H28.2775V4.86031H27.3575V6.00031H28.0175V6.54031H27.3575V7.75031H28.2775V8.29031H26.6875V4.32031Z" fill="white"/>
<path d="M29.3497 4.85977V6.09976H29.5697C29.6146 6.10653 29.6604 6.10266 29.7036 6.08847C29.7467 6.07428 29.7859 6.05017 29.818 6.01807C29.8501 5.98596 29.8742 5.94678 29.8884 5.90366C29.9026 5.86053 29.9065 5.81467 29.8997 5.76978V5.17978C29.8997 4.96978 29.7997 4.85977 29.5697 4.85977H29.3497ZM29.3497 6.45978V8.25977H28.6797V4.25977H29.6797C30.3597 4.25977 30.5997 4.59976 30.5997 5.15976V5.65976C30.5997 6.08976 30.4497 6.33978 30.0697 6.42978L30.7097 8.23978H30.0097L29.3497 6.45978Z" fill="white"/>
<path d="M30.8347 7.42993V6.89993H31.4548V7.43991C31.4548 7.66991 31.5547 7.78992 31.7847 7.78992C32.0147 7.78992 32.0948 7.64991 32.0948 7.43991V7.25992C32.0909 7.14985 32.0619 7.04212 32.0099 6.94504C31.9578 6.84795 31.8843 6.7641 31.7948 6.69992L31.3947 6.3099C31.2279 6.18724 31.0915 6.02786 30.9962 5.84405C30.9008 5.66025 30.849 5.45694 30.8448 5.24991V5.10992C30.8377 4.98771 30.8579 4.86545 30.9037 4.75192C30.9494 4.6384 31.0198 4.53642 31.1096 4.45328C31.1995 4.37013 31.3066 4.30788 31.4233 4.27099C31.54 4.23411 31.6634 4.2235 31.7847 4.23993C32.4447 4.23993 32.7147 4.56992 32.7147 5.13992V5.45993H32.1047V5.1199C32.1047 4.8899 31.9947 4.77991 31.7847 4.77991C31.5747 4.77991 31.4747 4.87992 31.4747 5.10992V5.25992C31.4747 5.47992 31.5947 5.60993 31.7847 5.79993L32.2147 6.21991C32.3725 6.33684 32.5027 6.48701 32.596 6.65982C32.6893 6.83263 32.7435 7.02384 32.7547 7.21991V7.40991C32.7674 7.54137 32.7495 7.67397 32.7026 7.79742C32.6557 7.92088 32.5811 8.03186 32.4844 8.12179C32.3877 8.21173 32.2715 8.27818 32.145 8.31601C32.0185 8.35383 31.8849 8.362 31.7547 8.3399C31.6264 8.36755 31.4932 8.36434 31.3663 8.33053C31.2394 8.29673 31.1224 8.2333 31.0248 8.14545C30.9271 8.05759 30.8518 7.94785 30.8048 7.82519C30.7579 7.70254 30.7407 7.57049 30.7547 7.43991" fill="white"/>
<path d="M34.4116 6.54031H33.7616V8.29031H33.1016V4.32031H33.7616V6.00031H34.4116V4.32031H35.0816V8.29031H34.4116V6.54031Z" fill="white"/>
<path d="M36.1309 4.32031H35.4609V8.29031H36.1309V4.32031Z" fill="white"/>
<path d="M37.1834 4.86057V6.42056H37.4334C37.4783 6.42733 37.5242 6.42346 37.5673 6.40927C37.6104 6.39508 37.6496 6.37097 37.6817 6.33887C37.7139 6.30676 37.738 6.26755 37.7522 6.22443C37.7663 6.1813 37.7702 6.13544 37.7634 6.09055V5.18057C37.7634 4.97057 37.6634 4.86057 37.4334 4.86057H37.1834ZM36.5234 4.31055H37.5234C38.1934 4.31055 38.4434 4.65057 38.4434 5.21057V6.04056C38.4434 6.60056 38.1934 6.94055 37.5234 6.94055H37.1934V8.26056H36.5334L36.5234 4.31055Z" fill="white"/>
<path d="M38.7402 7.42993V6.89993H39.3502V7.43991C39.3502 7.66991 39.4502 7.78992 39.6802 7.78992C39.9102 7.78992 39.9802 7.64991 39.9802 7.43991V7.25992C39.9787 7.14937 39.9507 7.04078 39.8985 6.94333C39.8463 6.84587 39.7714 6.7624 39.6802 6.69992L39.2902 6.3099C39.1221 6.18775 38.9842 6.02869 38.8871 5.84494C38.79 5.66119 38.7364 5.45763 38.7302 5.24991V5.10992C38.7232 4.98771 38.7433 4.86545 38.7891 4.75192C38.8349 4.6384 38.9052 4.53642 38.9951 4.45328C39.0849 4.37013 39.192 4.30788 39.3088 4.27099C39.4255 4.23411 39.5489 4.2235 39.6702 4.23993C40.3402 4.23993 40.6002 4.56992 40.6002 5.13992V5.45993H39.9902V5.1199C39.9902 4.8899 39.8902 4.77991 39.6802 4.77991C39.6361 4.77485 39.5914 4.78 39.5496 4.79495C39.5077 4.8099 39.4699 4.83426 39.439 4.86615C39.4081 4.89804 39.3849 4.93658 39.3712 4.97885C39.3576 5.02112 39.3538 5.06597 39.3602 5.10992V5.25992C39.3602 5.47992 39.4802 5.60993 39.6802 5.79993L40.1002 6.21991C40.2595 6.33534 40.3908 6.48517 40.4843 6.65829C40.5778 6.83141 40.6311 7.02337 40.6402 7.21991V7.40991C40.6549 7.54184 40.6386 7.6754 40.5924 7.79986C40.5462 7.92433 40.4715 8.03624 40.3743 8.12665C40.2771 8.21705 40.1601 8.28343 40.0326 8.32046C39.9051 8.3575 39.7707 8.36415 39.6402 8.3399C39.5159 8.35907 39.3888 8.34938 39.2688 8.31155C39.1488 8.27373 39.0391 8.20878 38.9482 8.12176C38.8573 8.03475 38.7877 7.92802 38.7447 7.80978C38.7017 7.69154 38.6865 7.56497 38.7002 7.43991" fill="white"/>
<path d="M15.7109 9.88086H17.2809V10.4309H16.3809V11.5609H17.0509V12.1009H16.3809V13.8509H15.7109V9.88086Z" fill="white"/>
<path d="M18.8672 12.9307V10.8007C18.8672 10.5607 18.7572 10.3907 18.5172 10.3907C18.2772 10.3907 18.1772 10.5607 18.1772 10.8007V12.9307C18.1772 13.1707 18.2872 13.3407 18.5172 13.3407C18.7472 13.3407 18.8672 13.1707 18.8672 12.9307ZM17.5172 12.8207V10.9007C17.4974 10.7616 17.509 10.6198 17.5512 10.4858C17.5934 10.3518 17.6651 10.2289 17.761 10.1263C17.857 10.0236 17.9747 9.9438 18.1056 9.89264C18.2364 9.84149 18.3771 9.82032 18.5172 9.83069C18.6546 9.83035 18.7906 9.85833 18.9168 9.9129C19.0429 9.96748 19.1564 10.0475 19.2503 10.1479C19.3441 10.2483 19.4162 10.3669 19.4622 10.4965C19.5081 10.626 19.5268 10.7636 19.5172 10.9007V12.8207C19.5283 12.9586 19.5106 13.0973 19.4653 13.228C19.4201 13.3587 19.3482 13.4786 19.2542 13.5801C19.1602 13.6816 19.0462 13.7625 18.9193 13.8177C18.7925 13.8729 18.6555 13.9011 18.5172 13.9007C18.3789 13.9011 18.242 13.8729 18.1151 13.8177C17.9883 13.7625 17.8742 13.6816 17.7802 13.5801C17.6863 13.4786 17.6143 13.3587 17.5691 13.228C17.5238 13.0973 17.5061 12.9586 17.5172 12.8207Z" fill="white"/>
<path d="M20.5819 10.4196V11.6596H20.8119C20.8568 11.6664 20.9026 11.6625 20.9457 11.6483C20.9889 11.6341 21.0281 11.61 21.0602 11.5779C21.0923 11.5458 21.1164 11.5066 21.1306 11.4635C21.1448 11.4204 21.1486 11.3745 21.1419 11.3296V10.7496C21.1486 10.7047 21.1448 10.6589 21.1306 10.6157C21.1164 10.5726 21.0923 10.5334 21.0602 10.5013C21.0281 10.4692 20.9889 10.4451 20.9457 10.4309C20.9026 10.4167 20.8568 10.4128 20.8119 10.4196H20.5819ZM20.5819 12.0296V13.8496H19.9219V9.84961H20.9219C21.5919 9.84961 21.8419 10.1796 21.8419 10.7396V11.2596C21.8419 11.6896 21.6919 11.9396 21.3119 12.0296L21.9419 13.8296H21.2419L20.5819 12.0296Z" fill="white"/>
<path d="M22.7109 9.88086H24.4809V10.4309H23.9309V13.8509H23.2609V10.4309H22.7109V9.88086Z" fill="white"/>
<path d="M26.0991 12.1009H25.4591V13.8509H24.7891V9.88086H25.4591V11.5609H26.0991V9.88086H26.7791V13.8509H26.0991V12.1009Z" fill="white"/>
<path d="M27.1641 9.88086H28.7541V10.4309H27.8241V11.5609H28.4941V12.1009H27.8241V13.3109H28.7541V13.8509H27.1641V9.88086Z" fill="white"/>
<path d="M30.7272 11.7307H31.7272V13.8507H31.2472V13.4207C31.2163 13.5644 31.1345 13.6921 31.0169 13.7802C30.8993 13.8684 30.7538 13.9112 30.6072 13.9007C30.0372 13.9007 29.7672 13.4407 29.7672 12.8307V10.9007C29.7474 10.7616 29.759 10.6198 29.8012 10.4858C29.8434 10.3518 29.9151 10.2289 30.011 10.1263C30.107 10.0236 30.2247 9.9438 30.3556 9.89264C30.4864 9.84149 30.6271 9.82032 30.7672 9.83069C31.4972 9.83069 31.7672 10.2407 31.7672 10.8307V11.1807H31.1572V10.7707C31.1572 10.5307 31.0672 10.3907 30.8272 10.3907C30.5872 10.3907 30.4772 10.5607 30.4772 10.8007V12.9307C30.4772 13.1707 30.5772 13.3407 30.8072 13.3407C31.0372 13.3407 31.1372 13.2207 31.1372 12.9607V12.2607H30.8172L30.7272 11.7307Z" fill="white"/>
<path d="M33.4125 12.9304V10.8004C33.4125 10.5604 33.3125 10.3904 33.0725 10.3904C32.8325 10.3904 32.7325 10.5604 32.7325 10.8004V12.9304C32.7325 13.1704 32.8325 13.3404 33.0725 13.3404C33.3125 13.3404 33.4125 13.1704 33.4125 12.9304ZM32.0625 12.8204V10.9004C32.0625 10.6352 32.1679 10.3808 32.3554 10.1933C32.5429 10.0057 32.7973 9.90039 33.0625 9.90039C33.3277 9.90039 33.5821 10.0057 33.7696 10.1933C33.9571 10.3808 34.0625 10.6352 34.0625 10.9004V12.8204C34.0625 13.0856 33.9571 13.34 33.7696 13.5275C33.5821 13.715 33.3277 13.8204 33.0625 13.8204C32.7973 13.8204 32.5429 13.715 32.3554 13.5275C32.1679 13.34 32.0625 13.0856 32.0625 12.8204Z" fill="white"/>
<path d="M35.1134 12.5896H35.6434L35.3834 10.9996L35.1134 12.5896ZM34.2734 13.8496L35.0234 9.84961H35.7834L36.5334 13.8496H35.8534L35.7334 13.1196H35.0234L34.9034 13.8496H34.2734Z" fill="white"/>
<path d="M36.8125 9.88086H37.4825V13.3109H38.2725V13.8509H36.8125V9.88086Z" fill="white"/>
<path d="M38.5078 12.9898V12.4598H39.1378V13.0098C39.1378 13.2298 39.2378 13.3598 39.4578 13.3598C39.6778 13.3598 39.7678 13.2198 39.7678 13.0098V12.8498C39.7625 12.74 39.7328 12.6328 39.6809 12.5359C39.629 12.4391 39.5562 12.355 39.4678 12.2898L39.0778 11.8998C38.9091 11.7782 38.7708 11.6192 38.6737 11.4353C38.5765 11.2515 38.5232 11.0476 38.5178 10.8398V10.6998C38.5108 10.5776 38.5309 10.4553 38.5767 10.3418C38.6225 10.2283 38.6928 10.1263 38.7826 10.0431C38.8725 9.95997 38.9796 9.89772 39.0963 9.86084C39.213 9.82395 39.3365 9.81335 39.4578 9.82977C40.1278 9.82977 40.3878 10.1598 40.3878 10.7298V11.0598H39.7778V10.7098C39.7778 10.4798 39.6678 10.3697 39.4578 10.3697C39.4144 10.3663 39.3709 10.3727 39.3303 10.3884C39.2898 10.404 39.2533 10.4286 39.2235 10.4603C39.1937 10.492 39.1715 10.53 39.1584 10.5714C39.1453 10.6129 39.1417 10.6567 39.1478 10.6998V10.7798C39.1478 10.9998 39.2678 11.1298 39.4578 11.3198L39.8878 11.7398C40.0456 11.8567 40.1757 12.0069 40.269 12.1797C40.3624 12.3525 40.4165 12.5437 40.4278 12.7398V12.9298C40.442 13.062 40.4255 13.1957 40.3793 13.3205C40.3331 13.4452 40.2587 13.5576 40.1618 13.6487C40.0649 13.7398 39.9481 13.8072 39.8208 13.8455C39.6934 13.8839 39.5589 13.8922 39.4278 13.8697C39.2985 13.8978 39.1644 13.8945 39.0366 13.8602C38.9088 13.8259 38.7911 13.7615 38.6933 13.6725C38.5954 13.5834 38.5203 13.4723 38.4741 13.3483C38.4279 13.2243 38.412 13.0911 38.4278 12.9598" fill="white"/>
</g>
</g>
<defs>
<clipPath id="clip0_1218_14132">
<rect width="47.93" height="47.93" fill="white"/>
</clipPath>
</defs>
</svg>
