<svg width="48" height="48" viewBox="0 0 48 48" fill="none" xmlns="http://www.w3.org/2000/svg">
<g clip-path="url(#clip0_1218_13722)">
<path d="M47.93 0H0V47.93H47.93V0Z" fill="#C1A52F"/>
<mask id="mask0_1218_13722" style="mask-type:luminance" maskUnits="userSpaceOnUse" x="0" y="0" width="48" height="48">
<path d="M47.93 0H0V47.93H47.93V0Z" fill="white"/>
</mask>
<g mask="url(#mask0_1218_13722)">
<path d="M19.2017 40.44V41.14C19.2068 41.2187 19.2417 41.2925 19.2993 41.3464C19.3569 41.4003 19.4329 41.4302 19.5117 41.43H27.3517C27.392 41.43 27.4318 41.4219 27.4689 41.4062C27.5059 41.3906 27.5395 41.3675 27.5675 41.3386C27.5955 41.3097 27.6174 41.2754 27.6318 41.2379C27.6463 41.2003 27.6531 41.1602 27.6517 41.12V40.37C29.7632 39.7302 31.6598 38.5258 33.1366 36.8868C34.6135 35.2478 35.6146 33.2365 36.0317 31.07C36.0317 30.9851 35.998 30.9038 35.938 30.8438C35.878 30.7837 35.7966 30.75 35.7117 30.75H10.9117C10.8702 30.75 10.829 30.7583 10.7907 30.7745C10.7525 30.7907 10.7178 30.8144 10.6889 30.8443C10.66 30.8742 10.6374 30.9095 10.6224 30.9483C10.6074 30.9871 10.6004 31.0285 10.6017 31.07V31.21C11.0394 33.4004 12.0729 35.4275 13.5885 37.0684C15.104 38.7092 17.0429 39.9001 19.1917 40.51" fill="white"/>
<path d="M27.6116 20.1098C27.5116 20.2498 25.1116 23.6998 27.6616 26.4898C28.1021 26.8737 28.4099 27.387 28.541 27.9564C28.6721 28.5257 28.6198 29.122 28.3916 29.6598H30.0316C30.2279 28.9535 30.2263 28.2069 30.027 27.5015C29.8277 26.7961 29.4384 26.159 28.9016 25.6598C27.0216 23.6098 28.9016 20.8298 28.9016 20.7898C28.9533 20.714 28.9875 20.6277 29.0018 20.5372C29.0161 20.4466 29.0101 20.3539 28.9843 20.2659C28.9585 20.1779 28.9134 20.0968 28.8525 20.0283C28.7915 19.9598 28.7161 19.9056 28.6316 19.8698C28.4543 19.7779 28.2506 19.7507 28.0553 19.7926C27.8601 19.8346 27.6855 19.9432 27.5616 20.0998" fill="white"/>
<path d="M23.4737 29.6591H25.1037C25.2999 28.9529 25.2983 28.2063 25.099 27.5008C24.8998 26.7954 24.5104 26.1583 23.9737 25.6591C22.0937 23.6091 23.9737 20.8291 23.9737 20.7891C24.0272 20.7139 24.063 20.6276 24.0783 20.5365C24.0936 20.4455 24.0881 20.3522 24.0621 20.2636C24.0361 20.175 23.9903 20.0935 23.9282 20.0252C23.8661 19.9568 23.7894 19.9035 23.7037 19.8691C23.5259 19.7792 23.3227 19.753 23.128 19.7948C22.9332 19.8367 22.7587 19.9441 22.6337 20.0991C22.5337 20.2391 20.1337 23.6891 22.6337 26.4791C23.072 26.8645 23.379 27.3772 23.5117 27.9455C23.6443 28.5139 23.5961 29.1096 23.3737 29.6492" fill="white"/>
<path d="M17.7509 20.1089C17.6509 20.2489 15.2509 23.6989 17.7509 26.4889C18.1892 26.8742 18.4962 27.3869 18.6289 27.9553C18.7615 28.5236 18.7133 29.1193 18.4909 29.6589H20.1209C20.3171 28.9526 20.3155 28.206 20.1162 27.5006C19.9169 26.7951 19.5276 26.158 18.9909 25.6589C17.1109 23.6089 18.9909 20.8289 19.0409 20.7889C19.0928 20.7137 19.1275 20.6281 19.1425 20.5379C19.1575 20.4478 19.1524 20.3555 19.1275 20.2676C19.1027 20.1797 19.0587 20.0984 18.9988 20.0295C18.9389 19.9605 18.8644 19.9057 18.7809 19.8689C18.602 19.7763 18.3966 19.7486 18.1997 19.7906C18.0027 19.8325 17.8265 19.9415 17.7009 20.0989" fill="white"/>
<path d="M9.46126 12.5495H6.84126V12.0995C6.83379 11.8211 6.8903 11.5447 7.00645 11.2916C7.12261 11.0385 7.29532 10.8154 7.51126 10.6395L8.51126 9.5695C8.8473 9.27009 9.11165 8.89892 9.28476 8.48347C9.45786 8.06802 9.53528 7.61894 9.51126 7.16951V6.2595C9.51126 4.8995 8.85126 4.2595 7.42126 4.2595C7.13767 4.22064 6.84893 4.2474 6.57732 4.33772C6.3057 4.42804 6.05845 4.57952 5.8546 4.78047C5.65075 4.98142 5.49575 5.22648 5.40155 5.49678C5.30735 5.76707 5.27647 6.05537 5.31126 6.33949V7.4795H6.76126V6.2595C6.76126 5.6895 7.04126 5.51951 7.38126 5.51951C7.72126 5.51951 7.96126 5.64951 7.96126 6.23951V7.01951C8.00175 7.32016 7.96928 7.62612 7.86659 7.91157C7.7639 8.19702 7.594 8.45355 7.37126 8.6595L6.47125 9.60951C6.1072 9.91384 5.81261 10.2927 5.60733 10.7205C5.40205 11.1483 5.29086 11.6151 5.28125 12.0895V13.8395H9.43126L9.46126 12.5495Z" fill="white"/>
<path d="M14.7547 7.88875H15.7647V8.43875H14.0547V7.88875L15.1047 5.00875H14.1647V4.46875H15.8047V5.00875L14.7547 7.88875Z" fill="white"/>
<path d="M16.1484 4.46875H17.7484V5.00875H16.8184V6.14875H17.4784V6.68875H16.8184V7.88875H17.7484V8.43875H16.1484V4.46875Z" fill="white"/>
<path d="M18.7716 5.00967V6.25967H19.0016C19.0451 6.26651 19.0897 6.26296 19.1317 6.2493C19.1736 6.23563 19.2117 6.21222 19.2429 6.18103C19.2741 6.14984 19.2975 6.11174 19.3112 6.06979C19.3248 6.02785 19.3284 5.98325 19.3216 5.93967V5.34967C19.3284 5.30609 19.3248 5.26152 19.3112 5.21957C19.2975 5.17763 19.2741 5.1395 19.2429 5.10831C19.2117 5.07711 19.1736 5.05373 19.1317 5.04007C19.0897 5.02641 19.0451 5.02283 19.0016 5.02966L18.7716 5.00967ZM18.7716 6.60968V8.42969H18.1016V4.42969H19.1016C19.7716 4.42969 20.0216 4.76967 20.0216 5.31967V5.82968C20.0481 6.00288 20.0067 6.17963 19.9061 6.32309C19.8055 6.46655 19.6534 6.56562 19.4816 6.59967L20.1216 8.39969H19.4216L18.7716 6.60968Z" fill="white"/>
<path d="M21.7094 7.52023V5.38022C21.7094 5.14022 21.6094 4.97021 21.3694 4.97021C21.1294 4.97021 21.0294 5.14022 21.0294 5.38022V7.52023C21.0294 7.76023 21.1294 7.93024 21.3694 7.93024C21.6094 7.93024 21.7094 7.76023 21.7094 7.52023ZM20.3594 7.41022V5.49023C20.3594 5.22502 20.4647 4.97065 20.6523 4.78311C20.8398 4.59558 21.0942 4.49023 21.3594 4.49023C21.6246 4.49023 21.8789 4.59558 22.0665 4.78311C22.254 4.97065 22.3594 5.22502 22.3594 5.49023V7.41022C22.3594 7.67543 22.254 7.9298 22.0665 8.11734C21.8789 8.30488 21.6246 8.41022 21.3594 8.41022C21.0942 8.41022 20.8398 8.30488 20.6523 8.11734C20.4647 7.9298 20.3594 7.67543 20.3594 7.41022Z" fill="white"/>
<path d="M15.4116 12.2493H14.7716V13.9993H14.1016V10.0293H14.7716V11.7093H15.4116V10.0293H16.0816V13.9993H15.4116V12.2493Z" fill="white"/>
<path d="M18.401 10.0293V13.0293C18.401 13.6493 18.141 14.0293 17.461 14.0293C17.3254 14.0474 17.1874 14.034 17.0578 13.9902C16.9283 13.9463 16.8105 13.8732 16.7138 13.7765C16.6171 13.6797 16.5439 13.562 16.5001 13.4324C16.4562 13.3029 16.4428 13.1649 16.461 13.0293V10.0293H17.121V13.0893C17.121 13.3293 17.221 13.4893 17.451 13.4893C17.681 13.4893 17.781 13.3293 17.781 13.0893V10.0293H18.401Z" fill="white"/>
<path d="M19.3412 11.5093V13.9993H18.7812V10.0293H19.4412L20.1612 12.3093V10.0293H20.7112V13.9993H20.1312L19.3412 11.5093Z" fill="white"/>
<path d="M22.1031 11.8791H23.0531V13.9991H22.5731V13.5591C22.5463 13.7049 22.4655 13.8352 22.3469 13.9242C22.2283 14.0131 22.0806 14.0541 21.9331 14.0391C21.3631 14.0391 21.1031 13.5891 21.1031 12.9691V11.0491C21.0833 10.91 21.0949 10.7683 21.1371 10.6342C21.1793 10.5002 21.251 10.3774 21.347 10.2747C21.4429 10.1721 21.5607 10.0922 21.6915 10.0411C21.8224 9.98992 21.963 9.96876 22.1031 9.97913C22.8431 9.97913 23.0531 10.3891 23.0531 10.9791V11.3291H22.4431V10.9191C22.4431 10.6791 22.3531 10.5391 22.1131 10.5391C21.8731 10.5391 21.7631 10.7091 21.7631 10.9491V13.0791C21.7631 13.3191 21.8632 13.4891 22.0932 13.4891C22.3232 13.4891 22.4232 13.3691 22.4232 13.1091V12.3991H22.1031V11.8791Z" fill="white"/>
<path d="M23.4297 10.0293H25.0197V10.5693H24.0997V11.7093H24.7597V12.2493H24.0997V13.4593H25.0197V13.9993H23.4297V10.0293Z" fill="white"/>
<path d="M26.0516 10.57V11.81H26.2716C26.3165 11.8168 26.3623 11.8129 26.4054 11.7987C26.4486 11.7845 26.4878 11.7604 26.5199 11.7283C26.552 11.6962 26.5761 11.657 26.5903 11.6139C26.6045 11.5708 26.6083 11.5249 26.6016 11.48V10.89C26.6016 10.68 26.5016 10.57 26.2716 10.57H26.0516ZM26.0516 12.18V14H25.3516V10H26.3516C27.0216 10 27.2716 10.33 27.2716 10.89V11.4C27.2716 11.82 27.1116 12.08 26.7316 12.16L27.3716 13.97H26.6716L26.0516 12.18Z" fill="white"/>
</g>
</g>
<defs>
<clipPath id="clip0_1218_13722">
<rect width="47.93" height="47.93" fill="white"/>
</clipPath>
</defs>
</svg>
