<svg width="48" height="48" viewBox="0 0 48 48" fill="none" xmlns="http://www.w3.org/2000/svg">
<g clip-path="url(#clip0_1218_13744)">
<path d="M47.93 0H0V47.93H47.93V0Z" fill="#539643"/>
<mask id="mask0_1218_13744" style="mask-type:luminance" maskUnits="userSpaceOnUse" x="0" y="0" width="48" height="48">
<path d="M47.93 0H0V47.93H47.93V0Z" fill="white"/>
</mask>
<g mask="url(#mask0_1218_13744)">
<path d="M39.7932 29.8512C39.8177 29.5515 39.7811 29.2499 39.6856 28.9648C39.5901 28.6797 39.4377 28.417 39.2375 28.1925C39.0374 27.9681 38.7938 27.7866 38.5215 27.6592C38.2491 27.5318 37.9537 27.461 37.6532 27.4512C37.0132 27.4512 36.2332 28.1612 35.8132 28.5912C35.3932 28.1612 34.6632 27.4512 34.0232 27.4512C33.7197 27.4586 33.4209 27.5273 33.1447 27.6532C32.8685 27.7792 32.6207 27.9597 32.4161 28.1839C32.2115 28.4081 32.0544 28.6714 31.9542 28.9579C31.854 29.2445 31.8128 29.5483 31.8332 29.8512C31.8327 30.4842 32.0762 31.0931 32.5132 31.5512L35.8132 34.8612L39.1132 31.5512C39.5537 31.0954 39.7979 30.485 39.7932 29.8512Z" fill="white"/>
<path d="M25.7331 40.2609C25.6112 40.2535 25.4953 40.205 25.4045 40.1233C25.3137 40.0415 25.2533 39.9314 25.2331 39.8109L23.5531 30.0409L21.0131 34.7509C20.9599 34.8518 20.876 34.9332 20.7736 34.9835C20.6712 35.0338 20.5555 35.0504 20.4431 35.0309C20.3293 35.0112 20.2246 34.9561 20.1438 34.8736C20.0631 34.791 20.0103 34.6851 19.9931 34.5709L18.9131 27.0309L16.9131 31.4609C16.8723 31.5576 16.8043 31.6402 16.7173 31.6988C16.6302 31.7575 16.528 31.7894 16.4231 31.7909H8.74312C8.59899 31.7883 8.46165 31.7292 8.36066 31.6263C8.25966 31.5234 8.2031 31.3851 8.20313 31.2409C8.20313 31.0977 8.26001 30.9603 8.36128 30.8591C8.46255 30.7578 8.5999 30.7009 8.74312 30.7009H16.0631L18.6631 24.8709C18.7114 24.7636 18.7928 24.6746 18.8954 24.617C18.998 24.5594 19.1164 24.5363 19.2331 24.5509C19.3494 24.5672 19.4572 24.6209 19.5402 24.7039C19.6232 24.7869 19.6769 24.8946 19.6931 25.0109L20.8031 32.7909L23.3131 28.1409C23.3696 28.0429 23.454 27.964 23.5555 27.9141C23.657 27.8643 23.771 27.8458 23.8831 27.8609C23.9937 27.8819 24.0952 27.9363 24.1738 28.0167C24.2525 28.0972 24.3046 28.1999 24.3231 28.3109L25.8831 37.3609L31.5431 18.5509C31.5736 18.4446 31.6359 18.3501 31.7218 18.2804C31.8076 18.2106 31.9128 18.1689 32.0231 18.1609C32.1321 18.1553 32.2402 18.1817 32.3344 18.2368C32.4285 18.2919 32.5046 18.3732 32.5531 18.4709L35.5531 24.6409C35.6149 24.7723 35.6222 24.9227 35.5735 25.0594C35.5248 25.1962 35.424 25.3081 35.2931 25.3709C35.1644 25.4329 35.0164 25.4414 34.8815 25.3946C34.7465 25.3477 34.6357 25.2493 34.5731 25.1209L32.1931 20.1909L26.2731 39.8709C26.242 39.9844 26.1741 40.0843 26.0799 40.155C25.9858 40.2256 25.8708 40.2628 25.7531 40.2609" fill="white"/>
<path d="M7.56157 13.9805C9.17157 13.9805 9.87157 13.1305 9.87157 11.8105V10.4105C9.91602 10.0424 9.81882 9.6713 9.59969 9.37231C9.38055 9.07332 9.05588 8.86889 8.69156 8.80047C9.02202 8.70596 9.31069 8.50222 9.51047 8.22253C9.71024 7.94284 9.80934 7.60371 9.79156 7.26046V6.43048C9.83158 6.14049 9.80474 5.84517 9.71312 5.56714C9.6215 5.2891 9.46753 5.03572 9.26295 4.82632C9.05838 4.61693 8.80864 4.45708 8.53282 4.35901C8.257 4.26093 7.96241 4.22722 7.67157 4.26046C6.02157 4.26046 5.44156 5.26047 5.44156 6.64047V7.48047H6.90157V6.48047C6.90157 5.90047 7.08157 5.56045 7.59157 5.56045C8.10157 5.56045 8.27156 5.90046 8.27156 6.41046V7.41046C8.27725 7.52011 8.25847 7.62967 8.21658 7.73117C8.17469 7.83266 8.11075 7.92357 8.02937 7.99728C7.948 8.071 7.85124 8.12566 7.74611 8.15735C7.64098 8.18903 7.53013 8.19695 7.42157 8.18048H6.81157V9.40048H7.49156C8.05156 9.40048 8.27156 9.66047 8.27156 10.1705V11.7405C8.27156 12.2405 8.05157 12.5905 7.56157 12.5905C7.07157 12.5905 6.81157 12.2305 6.81157 11.6705V10.3105H5.35156V11.5505C5.35156 13.0005 5.92156 13.9205 7.55156 13.9205" fill="white"/>
<path d="M15.4022 6.32053H16.3522V8.44052H15.8622V8.00052C15.8354 8.14442 15.7561 8.27323 15.6397 8.36194C15.5233 8.45065 15.3781 8.49292 15.2322 8.48053C14.6522 8.48053 14.3922 8.03052 14.3922 7.41052V5.49054C14.3724 5.35144 14.384 5.20967 14.4262 5.07565C14.4684 4.94164 14.5401 4.81878 14.6361 4.71613C14.732 4.61348 14.8497 4.53364 14.9806 4.48248C15.1114 4.43133 15.2521 4.41016 15.3922 4.42053C16.1322 4.42053 16.3922 4.83053 16.3922 5.42053V5.77054H15.7822V5.37052C15.7822 5.12052 15.6822 4.98053 15.4422 4.98053C15.2022 4.98053 15.1022 5.15054 15.1022 5.39054V7.53052C15.1022 7.77052 15.2022 7.94052 15.4322 7.94052C15.6622 7.94052 15.7522 7.81052 15.7522 7.56052V6.85053H15.4422L15.4022 6.32053Z" fill="white"/>
<path d="M18.0781 7.52054V5.38053C18.0781 5.14053 17.9681 4.97052 17.7281 4.97052C17.4881 4.97052 17.3881 5.14053 17.3881 5.38053V7.52054C17.3881 7.76054 17.4981 7.93054 17.7281 7.93054C17.9581 7.93054 18.0781 7.76054 18.0781 7.52054ZM16.7281 7.41052V5.49054C16.7083 5.35144 16.7199 5.20967 16.7621 5.07565C16.8043 4.94164 16.876 4.81878 16.972 4.71613C17.0679 4.61348 17.1857 4.53364 17.3165 4.48248C17.4474 4.43133 17.588 4.41016 17.7281 4.42053C17.8656 4.4202 18.0016 4.44817 18.1277 4.50275C18.2538 4.55732 18.3674 4.63733 18.4612 4.73773C18.555 4.83814 18.6272 4.95678 18.6731 5.08631C18.719 5.21583 18.7378 5.35345 18.7281 5.49054V7.41052C18.7378 7.54761 18.719 7.68521 18.6731 7.81473C18.6272 7.94425 18.555 8.06293 18.4612 8.16333C18.3674 8.26374 18.2538 8.34371 18.1277 8.39829C18.0016 8.45286 17.8656 8.48087 17.7281 8.48053C17.588 8.4909 17.4474 8.46974 17.3165 8.41858C17.1857 8.36743 17.0679 8.28759 16.972 8.18494C16.876 8.08229 16.8043 7.95943 16.7621 7.82541C16.7199 7.6914 16.7083 7.54962 16.7281 7.41052Z" fill="white"/>
<path d="M20.4844 7.52054V5.38053C20.4844 5.14053 20.3744 4.97052 20.1344 4.97052C19.8944 4.97052 19.7944 5.14053 19.7944 5.38053V7.52054C19.7944 7.76054 19.9044 7.93054 20.1344 7.93054C20.3644 7.93054 20.4844 7.76054 20.4844 7.52054ZM19.1344 7.41052V5.49054C19.1146 5.35144 19.1262 5.20967 19.1684 5.07565C19.2106 4.94164 19.2823 4.81878 19.3782 4.71613C19.4742 4.61348 19.5919 4.53364 19.7228 4.48248C19.8536 4.43133 19.9943 4.41016 20.1344 4.42053C20.2718 4.4202 20.4078 4.44817 20.534 4.50275C20.6601 4.55732 20.7736 4.63733 20.8675 4.73773C20.9613 4.83814 21.0334 4.95678 21.0793 5.08631C21.1253 5.21583 21.144 5.35345 21.1344 5.49054V7.41052C21.144 7.54761 21.1253 7.68521 21.0793 7.81473C21.0334 7.94425 20.9613 8.06293 20.8675 8.16333C20.7736 8.26374 20.6601 8.34371 20.534 8.39829C20.4078 8.45286 20.2718 8.48087 20.1344 8.48053C19.9943 8.4909 19.8536 8.46974 19.7228 8.41858C19.5919 8.36743 19.4742 8.28759 19.3782 8.18494C19.2823 8.08229 19.2106 7.95943 19.1684 7.82541C19.1262 7.6914 19.1146 7.54962 19.1344 7.41052Z" fill="white"/>
<path d="M22.4844 7.89142C22.5373 7.89656 22.5907 7.88956 22.6405 7.87097C22.6904 7.85238 22.7353 7.82268 22.772 7.78412C22.8086 7.74556 22.8359 7.69916 22.852 7.64844C22.868 7.59772 22.8722 7.54403 22.8644 7.49142V5.41141C22.8722 5.3588 22.868 5.30511 22.852 5.25439C22.8359 5.20368 22.8086 5.15727 22.772 5.11871C22.7353 5.08015 22.6904 5.05045 22.6405 5.03186C22.5907 5.01327 22.5373 5.00627 22.4844 5.01141H22.1944V7.89142H22.4844ZM23.4844 5.5314V7.3714C23.4844 7.9814 23.2344 8.44141 22.4844 8.44141H21.4844V4.44141H22.4844C23.1944 4.44141 23.4844 4.90141 23.4844 5.51141" fill="white"/>
<path d="M25.8334 6.6907H25.1834V8.4407H24.5234V4.4707H25.1834V6.1507H25.8334V4.4707H26.5034V8.4407H25.8334V6.6907Z" fill="white"/>
<path d="M26.8828 4.4707H28.4828V5.0107H27.5528V6.1507H28.2128V6.6907H27.5528V7.8907H28.4828V8.4407H26.8828V4.4707Z" fill="white"/>
<path d="M29.5744 7.18143H30.1044L29.8444 5.58142L29.5744 7.18143ZM28.7344 8.44141L29.4844 4.44141H30.2444L31.0044 8.44141H30.3544L30.2344 7.71143H29.5244L29.4044 8.44141H28.7344Z" fill="white"/>
<path d="M31.2734 4.4707H31.9434V7.8907H32.7334V8.4407H31.2734V4.4707Z" fill="white"/>
<path d="M32.5781 4.4707H34.3581V5.0107H33.7981V8.4407H33.1281V5.0107H32.5781V4.4707Z" fill="white"/>
<path d="M35.9841 6.6907H35.3341V8.4407H34.6641V4.4707H35.3341V6.1507H35.9841V4.4707H36.6541V8.4407H35.9841V6.6907Z" fill="white"/>
<path d="M15.1213 12.74H15.6513L15.3913 11.15L15.1213 12.74ZM14.2812 14L15.0312 10H15.7913L16.5513 14H15.8613L15.7413 13.27H15.0312L14.9213 14H14.2812Z" fill="white"/>
<path d="M17.3903 11.5113V14.0013H16.8203V10.0312H17.4803L18.2003 12.3113V10.0312H18.7503V14.0013H18.1703L17.3903 11.5113Z" fill="white"/>
<path d="M20.0938 13.45C20.1467 13.4552 20.2001 13.4482 20.2499 13.4296C20.2998 13.411 20.3447 13.3813 20.3813 13.3427C20.4179 13.3042 20.4453 13.2577 20.4613 13.207C20.4773 13.1563 20.4816 13.1026 20.4737 13.05V10.97C20.4816 10.9174 20.4773 10.8637 20.4613 10.813C20.4453 10.7623 20.4179 10.7159 20.3813 10.6773C20.3447 10.6387 20.2998 10.609 20.2499 10.5905C20.2001 10.5719 20.1467 10.5649 20.0938 10.57H19.8138V13.45H20.0938ZM21.0938 11.09V12.93C21.0938 13.54 20.8338 14 20.0938 14H19.0938V10H20.0938C20.8038 10 21.0938 10.45 21.0938 11.06" fill="white"/>
<path d="M23.5712 11.5513L23.1912 14.0013H22.5712L22.0312 10.0312H22.6812L22.9912 12.5513L23.3312 10.0312H23.8713L24.2412 12.5513H24.2512L24.5512 10.0312H25.1213L24.6012 14.0013H23.9712L23.5712 11.5513Z" fill="white"/>
<path d="M25.3984 10.0312H26.9884V10.5712H26.0684V11.7113H26.7284V12.2513H26.0684V13.4613H26.9884V14.0013H25.3984V10.0312Z" fill="white"/>
<path d="M27.3516 10.0312H28.0216V13.4613H28.8216V14.0013H27.3516V10.0312Z" fill="white"/>
<path d="M29.125 10.0312H29.795V13.4613H30.585V14.0013H29.125V10.0312Z" fill="white"/>
<path d="M31.44 11.8906H30.5V12.4306H31.44V11.8906Z" fill="white"/>
<path d="M32.4434 12.2601V13.5001H32.7434C32.787 13.5069 32.8316 13.5033 32.8736 13.4897C32.9155 13.476 32.9536 13.4526 32.9848 13.4214C33.016 13.3903 33.0394 13.3521 33.0531 13.3102C33.0667 13.2682 33.0703 13.2237 33.0634 13.1801V12.5801C33.0634 12.3701 32.9634 12.2601 32.7334 12.2601H32.4434ZM32.4434 11.7501H32.6834C32.7263 11.7552 32.7697 11.7503 32.8103 11.7359C32.851 11.7215 32.8877 11.6978 32.9177 11.6669C32.9477 11.6359 32.9702 11.5984 32.9833 11.5573C32.9964 11.5163 32.9999 11.4727 32.9934 11.4301V10.9401C33.0003 10.8965 32.9967 10.8519 32.983 10.81C32.9694 10.768 32.946 10.7299 32.9148 10.6987C32.8836 10.6675 32.8455 10.6441 32.8035 10.6305C32.7616 10.6168 32.717 10.6132 32.6734 10.6201H32.4434V11.7501ZM31.7734 10.0801H32.7734C33.4434 10.0801 33.6634 10.3901 33.6634 10.9501V11.3501C33.6841 11.4869 33.6551 11.6266 33.5818 11.744C33.5084 11.8614 33.3955 11.9487 33.2634 11.9901C33.4156 12.0148 33.5524 12.0971 33.6455 12.22C33.7386 12.3429 33.7809 12.4969 33.7634 12.6501V13.1801C33.7634 13.7401 33.5134 14.0501 32.8434 14.0501H31.8434L31.7734 10.0801Z" fill="white"/>
<path d="M34.0625 10.0312H35.6625V10.5712H34.7325V11.7113H35.3925V12.2513H34.7325V13.4613H35.6625V14.0013H34.0625V10.0312Z" fill="white"/>
<path d="M36.6778 10.0312H36.0078V14.0013H36.6778V10.0312Z" fill="white"/>
<path d="M37.6303 11.5113V14.0013H37.0703V10.0312H37.7203L38.4403 12.3113V10.0312H39.0003V14.0013H38.4103L37.6303 11.5113Z" fill="white"/>
<path d="M40.3522 11.8811H41.3522V14.0011H40.8722V13.5611C40.8433 13.7066 40.7625 13.8367 40.6446 13.9269C40.5268 14.017 40.3802 14.0612 40.2322 14.0511C39.6522 14.0511 39.3922 13.5911 39.3922 12.9711V11.0511C39.3724 10.912 39.384 10.7702 39.4262 10.6362C39.4684 10.5022 39.5401 10.3793 39.636 10.2767C39.732 10.174 39.8497 10.0942 39.9806 10.043C40.1114 9.99188 40.2521 9.97071 40.3922 9.98108C41.1322 9.98108 41.3922 10.3911 41.3922 10.9811V11.3311H40.7822V10.9211C40.7822 10.6811 40.6822 10.5411 40.4422 10.5411C40.2022 10.5411 40.1022 10.7111 40.1022 10.9511V13.0811C40.1022 13.3211 40.2022 13.4911 40.4322 13.4911C40.6622 13.4911 40.7522 13.3711 40.7522 13.1111V12.4111H40.3522V11.8811Z" fill="white"/>
</g>
</g>
<defs>
<clipPath id="clip0_1218_13744">
<rect width="47.93" height="47.93" fill="white"/>
</clipPath>
</defs>
</svg>
