<svg width="48" height="48" viewBox="0 0 48 48" fill="none" xmlns="http://www.w3.org/2000/svg">
<g clip-path="url(#clip0_1218_13777)">
<path d="M47.93 0H0V47.93H47.93V0Z" fill="#9F1C35"/>
<path d="M21.3016 25.6691L12.8516 20.7891V36.5791L21.3016 39.1291V25.6691Z" fill="white"/>
<path d="M22.2266 25.6991V39.1291L30.7266 36.5791V20.7891L22.2266 25.6991Z" fill="white"/>
<path d="M35.6172 36.3H35.3672L36.3672 39.79L37.3672 36.3H37.1172H37.3672V22.25H37.1172H36.8672H36.6072H36.1072H35.8672H35.6172H35.3672V36.3H35.6172Z" fill="white"/>
<path d="M32.5491 21.47L31.6391 20.75V37.01L22.2491 40.04H21.8191H21.7291H21.2991L11.9491 37.43V20.75L11.0391 21.47V38.06L21.2591 40.89H21.7291H21.8191H22.2991L31.7191 37.9L32.5491 37.66V21.47Z" fill="white"/>
<mask id="mask0_1218_13777" style="mask-type:luminance" maskUnits="userSpaceOnUse" x="0" y="0" width="48" height="48">
<path d="M47.93 0H0V47.93H47.93V0Z" fill="white"/>
</mask>
<g mask="url(#mask0_1218_13777)">
<path d="M37.3516 20.3887C37.3516 20.1235 37.2462 19.8691 37.0587 19.6815C36.8711 19.494 36.6168 19.3887 36.3516 19.3887C36.0863 19.3887 35.832 19.494 35.6445 19.6815C35.4569 19.8691 35.3516 20.1235 35.3516 20.3887V21.4687H37.3516V20.3887Z" fill="white"/>
<path d="M6.35344 11.0696L7.78343 7.15961V11.0696H6.35344ZM7.77344 13.8496H9.35344V12.3096H10.0034V11.0696H9.35344V4.34961H7.78343L5.02344 11.3496V12.3496H7.84344L7.77344 13.8496Z" fill="white"/>
<path d="M15.6447 7.54977V5.37976C15.6447 5.13976 15.5447 4.96976 15.3047 4.96976C15.0647 4.96976 14.9647 5.13976 14.9647 5.37976V7.54977C14.9647 7.77977 15.0647 7.95978 15.3047 7.95978C15.5447 7.95978 15.6447 7.77977 15.6447 7.54977ZM15.0547 8.69977V8.42978C14.8238 8.39269 14.6161 8.26811 14.4746 8.08191C14.333 7.89571 14.2687 7.66219 14.2947 7.42978V5.50977C14.2947 5.24455 14.4001 4.99021 14.5876 4.80267C14.7752 4.61514 15.0295 4.50977 15.2947 4.50977C15.56 4.50977 15.8143 4.61514 16.0019 4.80267C16.1894 4.99021 16.2947 5.24455 16.2947 5.50977V7.42978C16.3094 7.61664 16.2712 7.80383 16.1845 7.97003C16.0979 8.13624 15.9663 8.27473 15.8047 8.36975L16.2947 8.45978V8.95978L15.0547 8.69977Z" fill="white"/>
<path d="M18.6338 4.45898V7.45898C18.6338 8.06898 18.3738 8.45898 17.6938 8.45898C17.5586 8.47506 17.4215 8.46025 17.2929 8.41568C17.1642 8.37111 17.0474 8.29793 16.9511 8.20166C16.8548 8.10539 16.7817 7.98854 16.7371 7.85989C16.6925 7.73125 16.6777 7.59418 16.6938 7.45898V4.45898H17.3538V7.52896C17.3538 7.76896 17.4438 7.91898 17.6838 7.91898C17.9238 7.91898 18.0138 7.76896 18.0138 7.52896V4.45898H18.6338Z" fill="white"/>
<path d="M19.6603 7.17969H20.1903L19.9203 5.57968L19.6603 7.17969ZM18.8203 8.42969L19.5703 4.42969H20.3503L21.1003 8.42969H20.4203L20.3003 7.70969H19.5903L19.4703 8.42969H18.8203Z" fill="white"/>
<path d="M21.3672 4.46875H22.0272V7.88875H22.8272V8.43875H21.3672V4.46875Z" fill="white"/>
<path d="M23.8028 4.46875H23.1328V8.43875H23.8028V4.46875Z" fill="white"/>
<path d="M24.1016 4.46875H25.8816V5.00875H25.3316V8.43875H24.6516V5.00875H24.1016V4.46875Z" fill="white"/>
<path d="M27.4959 6.92898V8.43898H26.8259V6.92898L26.0859 4.45898H26.7759L27.1859 5.96898L27.5959 4.45898H28.2359L27.4959 6.92898Z" fill="white"/>
<path d="M14.2969 10.0293H15.8869V10.5693H14.9669V11.7093H15.6269V12.2493H14.9669V13.4593H15.8869V13.9993H14.2969V10.0293Z" fill="white"/>
<path d="M17.1953 13.45C17.4753 13.45 17.5753 13.29 17.5753 13.05V10.97C17.5753 10.74 17.4753 10.57 17.1953 10.57H16.9153V13.45H17.1953ZM18.1953 11.09V12.93C18.1953 13.54 17.9453 14 17.1953 14H16.1953V10H17.1953C17.9153 10 18.1953 10.45 18.1953 11.06" fill="white"/>
<path d="M20.5625 10.0293V13.0293C20.5625 13.6493 20.2925 14.0293 19.5625 14.0293C19.4269 14.0474 19.289 14.034 19.1594 13.9902C19.0298 13.9463 18.9121 13.8732 18.8154 13.7765C18.7186 13.6797 18.6455 13.562 18.6016 13.4324C18.5578 13.3029 18.5444 13.1649 18.5625 13.0293V10.0293H19.2325V13.0893C19.2325 13.3293 19.3225 13.4893 19.5525 13.4893C19.7825 13.4893 19.8825 13.3293 19.8825 13.0893V10.0293H20.5625Z" fill="white"/>
<path d="M20.9453 12.9705V11.0505C20.9453 10.4305 21.2353 9.98047 21.9453 9.98047C22.6553 9.98047 22.8953 10.3905 22.8953 10.9805V11.4405H22.2853V10.9205C22.2853 10.6805 22.1953 10.5405 21.9553 10.5405C21.7153 10.5405 21.6153 10.7105 21.6153 10.9505V13.0805C21.6153 13.3205 21.7153 13.4905 21.9553 13.4905C22.1953 13.4905 22.2853 13.3405 22.2853 13.1005V12.3705H22.8953V13.0505C22.8953 13.6205 22.6553 14.0505 21.9453 14.0505C21.2353 14.0505 20.9453 13.6005 20.9453 12.9805" fill="white"/>
<path d="M23.9103 12.74H24.4403L24.1803 11.14L23.9103 12.74ZM23.0703 14L23.8203 10H24.5903L25.3403 14H24.6603L24.5303 13.27H23.8203L23.7103 14H23.0703Z" fill="white"/>
<path d="M25.25 10.0293H27.02V10.5693H26.47V13.9993H25.8V10.5693H25.25V10.0293Z" fill="white"/>
<path d="M28.0059 10.0293H27.3359V13.9993H28.0059V10.0293Z" fill="white"/>
<path d="M29.7422 13.0791V10.9491C29.7422 10.7091 29.6322 10.5391 29.3922 10.5391C29.1522 10.5391 29.0522 10.7091 29.0522 10.9491V13.0791C29.0522 13.3191 29.1622 13.4891 29.3922 13.4891C29.6222 13.4891 29.7422 13.3191 29.7422 13.0791ZM28.3922 12.9691V11.0491C28.3724 10.91 28.384 10.7683 28.4262 10.6342C28.4684 10.5002 28.5401 10.3774 28.6361 10.2747C28.732 10.1721 28.8497 10.0922 28.9806 10.0411C29.1114 9.98992 29.2521 9.96876 29.3922 9.97913C29.5296 9.97879 29.6657 10.0068 29.7918 10.0613C29.9179 10.1159 30.0314 10.1959 30.1253 10.2963C30.2191 10.3967 30.2912 10.5154 30.3372 10.6449C30.3831 10.7744 30.4018 10.912 30.3922 11.0491V12.9691C30.4018 13.1062 30.3831 13.2438 30.3372 13.3734C30.2912 13.5029 30.2191 13.6215 30.1253 13.7219C30.0314 13.8223 29.9179 13.9023 29.7918 13.9569C29.6657 14.0115 29.5296 14.0395 29.3922 14.0391C29.2521 14.0495 29.1114 14.0283 28.9806 13.9772C28.8497 13.926 28.732 13.8462 28.6361 13.7435C28.5401 13.6409 28.4684 13.518 28.4262 13.384C28.384 13.25 28.3724 13.1082 28.3922 12.9691Z" fill="white"/>
<path d="M31.3569 11.5093V13.9993H30.7969V10.0293H31.4469L32.1669 12.3093V10.0293H32.7269V13.9993H32.1369L31.3569 11.5093Z" fill="white"/>
</g>
</g>
<defs>
<clipPath id="clip0_1218_13777">
<rect width="47.93" height="47.93" fill="white"/>
</clipPath>
</defs>
</svg>
