<svg width="48" height="48" viewBox="0 0 48 48" fill="none" xmlns="http://www.w3.org/2000/svg">
<g clip-path="url(#clip0_1218_13806)">
<path d="M47.93 0H0V47.93H47.93V0Z" fill="#C43C2E"/>
<mask id="mask0_1218_13806" style="mask-type:luminance" maskUnits="userSpaceOnUse" x="0" y="0" width="48" height="48">
<path d="M47.93 0H0V47.93H47.93V0Z" fill="white"/>
</mask>
<g mask="url(#mask0_1218_13806)">
<path d="M23.8944 34.6C22.7765 34.602 21.6832 34.2723 20.7528 33.6527C19.8223 33.0331 19.0966 32.1513 18.6674 31.1191C18.2382 30.0869 18.1249 28.9505 18.3418 27.8539C18.5587 26.7572 19.096 25.7496 19.8857 24.9584C20.6755 24.1672 21.6822 23.6281 22.7785 23.4093C23.8748 23.1905 25.0113 23.3018 26.0443 23.7291C27.0773 24.1565 27.9603 24.8806 28.5815 25.81C29.2028 26.7394 29.5344 27.8321 29.5344 28.95C29.5318 30.4459 28.9371 31.88 27.8802 32.9387C26.8234 33.9974 25.3904 34.5947 23.8944 34.6ZM34.7344 18.26H28.8744C28.855 18.2625 28.8371 18.272 28.8242 18.2867C28.8113 18.3015 28.8043 18.3204 28.8044 18.34V20.26C28.8044 20.2786 28.8118 20.2964 28.8249 20.3095C28.8381 20.3226 28.8559 20.33 28.8744 20.33H31.2044L28.6244 22.92C27.6956 22.191 26.611 21.6862 25.4552 21.4451C24.2993 21.204 23.1034 21.2329 21.9605 21.5298C20.8177 21.8266 19.7588 22.3833 18.8664 23.1564C17.974 23.9296 17.2722 24.8984 16.8155 25.9872C16.3589 27.0761 16.1598 28.2557 16.2338 29.4342C16.3078 30.6126 16.6529 31.758 17.2422 32.7812C17.8314 33.8044 18.649 34.6778 19.6311 35.3332C20.6133 35.9886 21.7334 36.4085 22.9044 36.56V38.8H20.5944C20.5844 38.7986 20.5742 38.7993 20.5646 38.8022C20.5549 38.805 20.5459 38.81 20.5383 38.8166C20.5307 38.8233 20.5247 38.8315 20.5205 38.8407C20.5164 38.8499 20.5143 38.8599 20.5144 38.87V40.96C20.5143 40.9701 20.5164 40.9801 20.5205 40.9893C20.5247 40.9985 20.5307 41.0067 20.5383 41.0134C20.5459 41.02 20.5549 41.025 20.5646 41.0279C20.5742 41.0307 20.5844 41.0314 20.5944 41.03H22.9044V43.26C22.9044 43.2786 22.9118 43.2964 22.9249 43.3095C22.9381 43.3226 22.9559 43.33 22.9744 43.33H25.0644C25.083 43.33 25.1008 43.3226 25.1139 43.3095C25.1271 43.2964 25.1344 43.2786 25.1344 43.26V41.05H27.4444C27.464 41.0502 27.483 41.0431 27.4977 41.0302C27.5125 41.0173 27.522 40.9995 27.5244 40.98V38.89C27.522 38.8706 27.5125 38.8527 27.4977 38.8398C27.483 38.8269 27.464 38.8199 27.4444 38.82H25.1344V36.54C26.9282 36.2421 28.5583 35.3182 29.7355 33.9323C30.9126 32.5465 31.5606 30.7883 31.5644 28.97C31.5665 27.3888 31.0735 25.8467 30.1544 24.56L32.7144 22.01V24.19C32.7144 24.2086 32.7218 24.2264 32.7349 24.2395C32.7481 24.2526 32.7659 24.26 32.7844 24.26H34.7344C34.753 24.26 34.7708 24.2526 34.7839 24.2395C34.7971 24.2264 34.8044 24.2086 34.8044 24.19V18.33C34.8046 18.3104 34.7975 18.2914 34.7846 18.2767C34.7717 18.262 34.7539 18.2524 34.7344 18.25" fill="white"/>
<path d="M27.3497 26.6289H20.5097C20.4906 26.6306 20.4726 26.6383 20.4583 26.6509C20.4439 26.6634 20.4339 26.6803 20.4297 26.6989V28.3589C20.4321 28.3784 20.4416 28.3962 20.4564 28.4091C20.4711 28.422 20.4901 28.4291 20.5097 28.4289H27.3497C27.3597 28.4304 27.3699 28.4296 27.3795 28.4268C27.3892 28.4239 27.3982 28.419 27.4058 28.4123C27.4134 28.4057 27.4195 28.3974 27.4236 28.3882C27.4277 28.379 27.4298 28.369 27.4297 28.3589V26.6989C27.4272 26.6795 27.4177 26.6616 27.403 26.6487C27.3883 26.6358 27.3693 26.6288 27.3497 26.6289Z" fill="white"/>
<path d="M27.3497 29.5898H20.5097C20.4906 29.5915 20.4726 29.5992 20.4583 29.6118C20.4439 29.6244 20.4339 29.6412 20.4297 29.6599V31.3199C20.4321 31.3393 20.4416 31.3572 20.4564 31.3701C20.4711 31.383 20.4901 31.39 20.5097 31.3899H27.3497C27.3597 31.3913 27.3699 31.3906 27.3795 31.3877C27.3892 31.3848 27.3982 31.3799 27.4058 31.3733C27.4134 31.3666 27.4195 31.3584 27.4236 31.3492C27.4277 31.34 27.4298 31.33 27.4297 31.3199V29.6599C27.4272 29.6404 27.4177 29.6226 27.403 29.6097C27.3883 29.5967 27.3693 29.5897 27.3497 29.5898Z" fill="white"/>
<path d="M8.23157 7.35962C7.96772 7.33581 7.7024 7.38474 7.4644 7.5011C7.2264 7.61745 7.02482 7.79678 6.88156 8.01962V5.64963H9.63156V4.34961H5.42157V9.69962H6.88156V9.48962C6.88156 8.92962 7.13156 8.6196 7.58156 8.6196C8.03156 8.6196 8.27156 8.95961 8.27156 9.47961V11.7796C8.27156 12.2796 8.09157 12.6296 7.59157 12.6296C7.09157 12.6296 6.85156 12.2696 6.85156 11.7096V10.5096H5.35156V11.5896C5.35156 13.0396 5.93156 13.9596 7.55156 13.9596C7.85159 14.0035 8.15767 13.9785 8.44664 13.8866C8.73561 13.7948 8.9999 13.6384 9.21954 13.4294C9.43918 13.2203 9.60842 12.9641 9.71445 12.68C9.82048 12.3959 9.86052 12.0914 9.83156 11.7896V9.45963C9.83156 7.95963 9.05157 7.35962 8.20157 7.35962" fill="white"/>
<path d="M15.4022 6.37912H16.3522V8.49912H15.8722V8.05911C15.8432 8.20383 15.762 8.33281 15.6439 8.42136C15.5258 8.50991 15.3793 8.55184 15.2322 8.53913C14.6622 8.53913 14.3922 8.08912 14.3922 7.46912V5.54914C14.3724 5.41004 14.384 5.26826 14.4262 5.13425C14.4684 5.00023 14.5401 4.87737 14.6361 4.77472C14.732 4.67207 14.8497 4.59223 14.9806 4.54108C15.1114 4.48992 15.2521 4.46876 15.3922 4.47913C16.1222 4.47913 16.3422 4.88913 16.3422 5.47913V5.82913H15.7322V5.41913C15.7322 5.17913 15.6422 5.03913 15.4022 5.03913C15.1622 5.03913 15.0522 5.20913 15.0522 5.44913V7.57913C15.0522 7.81913 15.1522 7.98914 15.3822 7.98914C15.6122 7.98914 15.7122 7.86913 15.7122 7.60913V6.89914H15.3922L15.4022 6.37912Z" fill="white"/>
<path d="M16.7344 4.5293H18.3244V5.0693H17.4044V6.2093H18.0644V6.7493H17.4044V7.9593H18.3244V8.4993H16.7344V4.5293Z" fill="white"/>
<path d="M19.2397 6.0093V8.4993H18.6797V4.5293H19.3397L20.0497 6.8093V4.5293H20.6097V8.4993H20.0297L19.2397 6.0093Z" fill="white"/>
<path d="M21.9453 7.95001C22.2253 7.95001 22.3253 7.79002 22.3253 7.55002V5.47C22.3253 5.24 22.2253 5.07001 21.9453 5.07001H21.6653V7.95001H21.9453ZM22.9453 5.59V7.43002C22.9453 8.04002 22.6953 8.5 21.9453 8.5H20.9453V4.5H21.9453C22.6653 4.5 22.9453 4.95 22.9453 5.56" fill="white"/>
<path d="M23.375 4.5293H24.965V5.0693H24.045V6.2093H24.705V6.7493H24.045V7.9593H24.965V8.4993H23.375V4.5293Z" fill="white"/>
<path d="M25.9916 5.07001V6.31H26.2116C26.2565 6.31677 26.3023 6.31293 26.3454 6.29874C26.3886 6.28455 26.4278 6.26041 26.4599 6.2283C26.492 6.1962 26.5161 6.15702 26.5303 6.11389C26.5445 6.07076 26.5483 6.02491 26.5416 5.98001V5.39001C26.5416 5.18001 26.4416 5.07001 26.2116 5.07001H25.9916ZM25.9916 6.68002V8.5H25.3516V4.5H26.3516C27.0316 4.5 27.2716 4.83001 27.2716 5.39001V5.90002C27.2716 6.32002 27.1216 6.58 26.7416 6.66L27.3816 8.47H26.6816L25.9916 6.68002Z" fill="white"/>
<path d="M14.3906 10.0898H15.9806V10.6398H15.0606V11.7698H15.7206V12.3098H15.0606V13.5198H15.9806V14.0598H14.3906V10.0898Z" fill="white"/>
<path d="M17.6406 13.1792V11.0092C17.6406 10.7692 17.5306 10.5992 17.2906 10.5992C17.0506 10.5992 16.9506 10.7692 16.9506 11.0092V13.1792C16.9506 13.4092 17.0606 13.5892 17.2906 13.5892C17.5206 13.5892 17.6406 13.4092 17.6406 13.1792ZM17.0506 14.3292V14.0592C16.8197 14.0221 16.612 13.8976 16.4705 13.7114C16.3289 13.5252 16.2646 13.2916 16.2906 13.0592V11.1292C16.2708 10.9901 16.2824 10.8483 16.3246 10.7143C16.3668 10.5803 16.4385 10.4575 16.5345 10.3548C16.6304 10.2522 16.7482 10.1723 16.879 10.1212C17.0099 10.07 17.1505 10.0488 17.2906 10.0592C17.4281 10.0589 17.5641 10.0869 17.6902 10.1415C17.8163 10.196 17.9299 10.276 18.0237 10.3764C18.1175 10.4768 18.1897 10.5955 18.2356 10.725C18.2815 10.8545 18.3003 10.9921 18.2906 11.1292V13.0592C18.3024 13.2454 18.2618 13.4312 18.1734 13.5956C18.085 13.7599 17.9525 13.8963 17.7906 13.9892L18.2906 14.0892V14.5892L17.0506 14.3292Z" fill="white"/>
<path d="M20.6282 10.0898V13.0898C20.6282 13.7098 20.3582 14.0898 19.6782 14.0898C19.543 14.1059 19.4059 14.0911 19.2773 14.0466C19.1486 14.002 19.0318 13.9288 18.9355 13.8326C18.8392 13.7363 18.766 13.6194 18.7215 13.4908C18.6769 13.3621 18.6621 13.225 18.6782 13.0898V10.0898H19.3482V13.1599C19.3482 13.3899 19.4482 13.5499 19.6782 13.5499C19.9082 13.5499 20.0082 13.3899 20.0082 13.1599V10.0898H20.6282Z" fill="white"/>
<path d="M21.6525 12.8006H22.1825L21.9225 11.2106L21.6525 12.8006ZM20.8125 14.0605L21.5625 10.0605H22.3525L23.1125 14.0605H22.3525L22.2325 13.3306H21.5225L21.4025 14.0605H20.8125Z" fill="white"/>
<path d="M23.3516 10.0898H24.0216V13.5198H24.8216V14.0598H23.3516V10.0898Z" fill="white"/>
<path d="M25.795 10.0898H25.125V14.0598H25.795V10.0898Z" fill="white"/>
<path d="M26.1016 10.0898H27.8716V10.6398H27.3216V14.0598H26.6516V10.6398H26.1016V10.0898Z" fill="white"/>
<path d="M29.4803 12.5498V14.0598H28.8203V12.5498L28.0703 10.0898H28.7703L29.1703 11.5998H29.1803L29.5803 10.0898H30.2203L29.4803 12.5498Z" fill="white"/>
</g>
</g>
<defs>
<clipPath id="clip0_1218_13806">
<rect width="47.93" height="47.93" fill="white"/>
</clipPath>
</defs>
</svg>
