<svg width="48" height="48" viewBox="0 0 48 48" fill="none" xmlns="http://www.w3.org/2000/svg">
<g clip-path="url(#clip0_1218_13901)">
<path d="M47.93 0H0V47.93H47.93V0Z" fill="#771336"/>
<mask id="mask0_1218_13901" style="mask-type:luminance" maskUnits="userSpaceOnUse" x="0" y="0" width="48" height="48">
<path d="M47.93 0H0V47.93H47.93V0Z" fill="white"/>
</mask>
<g mask="url(#mask0_1218_13901)">
<path d="M32.9098 23.5899L28.1198 28.1399C28.0207 28.2236 27.9434 28.3301 27.8946 28.4503C27.8459 28.5705 27.8271 28.7008 27.8398 28.8299V41.5999C27.8424 41.6724 27.8731 41.7411 27.9253 41.7914C27.9775 41.8418 28.0473 41.8699 28.1198 41.8699H33.0698C33.1406 41.8674 33.2079 41.8381 33.258 41.788C33.3081 41.7379 33.3373 41.6707 33.3398 41.5999V23.6999C33.3398 23.5499 33.2198 23.2799 32.9098 23.5899Z" fill="white"/>
<path d="M19.1123 29.5211L14.3524 34.0811C14.2559 34.1643 14.1809 34.2696 14.1339 34.388C14.0869 34.5064 14.0692 34.6344 14.0824 34.7611V41.5911C14.0823 41.6637 14.1104 41.7334 14.1608 41.7857C14.2112 41.8379 14.2798 41.8685 14.3524 41.8711H19.3024C19.3749 41.8685 19.4435 41.8379 19.4939 41.7857C19.5443 41.7334 19.5724 41.6637 19.5724 41.5911V29.6411C19.5724 29.4811 19.4523 29.2111 19.1423 29.5211" fill="white"/>
<path d="M35.0781 18.0597C35.086 18.0442 35.0901 18.0271 35.0901 18.0097C35.0901 17.9923 35.086 17.9752 35.0781 17.9597C35.0656 17.9535 35.0519 17.9503 35.0381 17.9503C35.0242 17.9503 35.0105 17.9535 34.9981 17.9597H34.9281L31.2581 18.7897H31.1981C31.1981 18.7897 31.1481 18.7897 31.1181 18.7897C31.0935 18.8172 31.0799 18.8528 31.0799 18.8897C31.0799 18.9266 31.0935 18.9622 31.1181 18.9897H31.1681L31.9981 19.8297L23.6881 28.1397L19.8581 24.2997C19.8361 24.28 19.8076 24.2691 19.7781 24.2691C19.7485 24.2691 19.7201 24.28 19.6981 24.2997L18.6981 25.2997L12.5481 31.4497C12.5357 31.4579 12.5255 31.469 12.5185 31.4821C12.5115 31.4952 12.5078 31.5098 12.5078 31.5247C12.5078 31.5395 12.5115 31.5541 12.5185 31.5672C12.5255 31.5803 12.5357 31.5915 12.5481 31.5997L13.5481 32.5997C13.5563 32.612 13.5674 32.6222 13.5805 32.6292C13.5936 32.6362 13.6082 32.6399 13.6231 32.6399C13.6379 32.6399 13.6525 32.6362 13.6656 32.6292C13.6787 32.6222 13.6899 32.612 13.6981 32.5997L19.7781 26.5297L22.5581 29.3197L23.5581 30.3197C23.5801 30.3393 23.6085 30.3502 23.6381 30.3502C23.6676 30.3502 23.6961 30.3393 23.7181 30.3197L33.1481 20.8897L34.0281 21.7697C34.0556 21.7943 34.0912 21.8079 34.1281 21.8079C34.165 21.8079 34.2006 21.7943 34.2281 21.7697C34.2357 21.7402 34.2357 21.7092 34.2281 21.6797L35.0281 17.9297L35.0781 18.0597Z" fill="white"/>
<path d="M26.04 30.3195L23.72 32.6595C23.6987 32.6766 23.6723 32.6859 23.645 32.6859C23.6177 32.6859 23.5913 32.6766 23.57 32.6595L21.47 30.5195C21.09 30.1395 21 30.4495 21 30.5995V41.5995C21 41.6721 21.0281 41.7418 21.0784 41.7941C21.1288 41.8463 21.1975 41.8769 21.27 41.8795H26.27C26.3425 41.8769 26.4112 41.8463 26.4616 41.7941C26.5119 41.7418 26.5401 41.6721 26.54 41.5995V30.4095C26.54 30.2595 26.43 29.9795 26.09 30.3195" fill="white"/>
<path d="M7.96933 11.7004C7.96933 12.2704 7.75933 12.7004 7.17933 12.7004C6.59933 12.7004 6.40933 12.2904 6.40933 11.7004V10.1604C6.40933 9.5804 6.61933 9.1604 7.17933 9.1604C7.73933 9.1604 7.96933 9.5604 7.96933 10.1604V11.7004ZM6.46933 6.4404C6.46933 5.8704 6.65933 5.5304 7.17933 5.5304C7.69933 5.5304 7.90933 5.8704 7.90933 6.4404V7.09039C7.90933 7.66039 7.70933 8.0004 7.17933 8.0004C6.64933 8.0004 6.46933 7.66039 6.46933 7.09039V6.4404ZM9.55934 11.5304V10.5304C9.60293 10.1427 9.52417 9.75107 9.33409 9.41037C9.14401 9.06966 8.85213 8.79695 8.49933 8.6304C8.80213 8.47869 9.05202 8.23901 9.2162 7.94278C9.38038 7.64655 9.45119 7.30758 9.41934 6.9704V6.58041C9.43978 6.27568 9.39739 5.97 9.29483 5.68231C9.19227 5.39463 9.0317 5.13106 8.82309 4.90799C8.61448 4.68491 8.36227 4.50709 8.08209 4.3855C7.80191 4.26391 7.49975 4.20117 7.19433 4.20117C6.88891 4.20117 6.58675 4.26391 6.30658 4.3855C6.0264 4.50709 5.77418 4.68491 5.56556 4.90799C5.35695 5.13106 5.19639 5.39463 5.09382 5.68231C4.99126 5.97 4.94889 6.27568 4.96933 6.58041V6.9704C4.93845 7.30507 5.00747 7.6414 5.16766 7.93686C5.32785 8.23232 5.57203 8.47366 5.86934 8.6304C5.51557 8.79574 5.22281 9.06822 5.03256 9.40924C4.84231 9.75026 4.76421 10.1425 4.80934 10.5304V11.5304C4.78825 11.8552 4.83402 12.181 4.94383 12.4874C5.05364 12.7939 5.22515 13.0745 5.44775 13.3121C5.67036 13.5496 5.93934 13.7389 6.23803 13.8684C6.53673 13.9978 6.8588 14.0646 7.18434 14.0646C7.50987 14.0646 7.83195 13.9978 8.13064 13.8684C8.42934 13.7389 8.69831 13.5496 8.92091 13.3121C9.14352 13.0745 9.31502 12.7939 9.42483 12.4874C9.53464 12.181 9.58043 11.8552 9.55934 11.5304Z" fill="white"/>
<path d="M13.9375 7.79031C14.2075 7.79031 14.3175 7.62031 14.3175 7.38031V5.3103C14.3254 5.2577 14.3211 5.20401 14.3051 5.15329C14.2891 5.10257 14.2617 5.05617 14.2251 5.01761C14.1885 4.97905 14.1435 4.94935 14.0937 4.93076C14.0439 4.91216 13.9904 4.90517 13.9375 4.91031H13.6475V7.79031H13.9375ZM14.9375 5.43033V7.26031C14.9375 7.87032 14.6875 8.32031 13.9375 8.32031H12.9375V4.32031H13.9375C14.6475 4.32031 14.9375 4.77032 14.9375 5.39032" fill="white"/>
<path d="M15.3594 4.37109H16.9494V4.91109H16.0294V6.05109H16.6894V6.59109H16.0294V7.79109H16.9494V8.34109H15.3594V4.37109Z" fill="white"/>
<path d="M17.2516 7.31091V5.39093C17.2318 5.25183 17.2434 5.11006 17.2856 4.97605C17.3278 4.84203 17.3995 4.71917 17.4954 4.61652C17.5914 4.51387 17.7091 4.43403 17.8399 4.38288C17.9708 4.33172 18.1115 4.31055 18.2516 4.32092C18.9916 4.32092 19.1916 4.73092 19.1916 5.32092V5.79093H18.5816V5.26093C18.5816 5.01093 18.5016 4.87091 18.2616 4.87091C18.0216 4.87091 17.9216 5.04092 17.9216 5.28092V7.41092C17.9216 7.65092 18.0216 7.82092 18.2616 7.82092C18.5016 7.82092 18.5816 7.67092 18.5816 7.44092V6.71094H19.1916V7.39093C19.1916 7.96093 18.9616 8.39093 18.2516 8.39093C18.1115 8.4013 17.9708 8.38014 17.8399 8.32898C17.7091 8.27783 17.5914 8.19799 17.4954 8.09534C17.3995 7.99269 17.3278 7.86983 17.2856 7.73581C17.2434 7.6018 17.2318 7.46002 17.2516 7.32092" fill="white"/>
<path d="M19.5469 4.37109H21.1469V4.91109H20.2169V6.05109H20.8769V6.59109H20.2169V7.79109H21.1469V8.34109H19.5469V4.37109Z" fill="white"/>
<path d="M22.07 5.84109V8.34109H21.5V4.37109H22.16L22.88 6.64109V4.37109H23.44V8.34109H22.85L22.07 5.84109Z" fill="white"/>
<path d="M23.7422 4.37109H25.5222V4.91109H24.9622V8.34109H24.2922V4.91109H23.7422V4.37109Z" fill="white"/>
<path d="M27.8816 5.88109L27.5116 8.34109H26.8816L26.3516 4.37109H26.9916L27.3016 6.88109H27.3116L27.6416 4.37109H28.1916L28.5516 6.88109H28.5616L28.8716 4.37109H29.4316L28.9116 8.34109H28.2816L27.8916 5.88109H27.8816Z" fill="white"/>
<path d="M31.0063 7.4111V5.26111C31.0063 5.02111 30.9063 4.8511 30.6663 4.8511C30.4263 4.8511 30.3262 5.02111 30.3262 5.26111V7.39111C30.3262 7.63111 30.4263 7.80112 30.6663 7.80112C30.9063 7.80112 31.0063 7.63111 31.0063 7.39111M29.6562 7.29111V5.37109C29.6562 5.10588 29.7616 4.85154 29.9491 4.664C30.1367 4.47647 30.391 4.37109 30.6562 4.37109C30.9215 4.37109 31.1758 4.47647 31.3634 4.664C31.5509 4.85154 31.6562 5.10588 31.6562 5.37109V7.29111C31.6562 7.55632 31.5509 7.81069 31.3634 7.99823C31.1758 8.18577 30.9215 8.29111 30.6562 8.29111C30.391 8.29111 30.1367 8.18577 29.9491 7.99823C29.7616 7.81069 29.6562 7.55632 29.6562 7.29111Z" fill="white"/>
<path d="M32.7325 4.91006V6.14008H32.9525C33.1825 6.14008 33.2825 6.03007 33.2825 5.82007V5.26007C33.2825 5.04007 33.1825 4.94006 32.9525 4.94006L32.7325 4.91006ZM32.7325 6.51007V8.33008H32.0625V4.33008H33.0625C33.7325 4.33008 33.9825 4.67006 33.9825 5.22006V5.73007C33.9825 6.16007 33.8325 6.41006 33.4525 6.50006L34.0925 8.30008H33.3525L32.7325 6.51007Z" fill="white"/>
<path d="M34.9825 6.40109V8.34109H34.3125V4.37109H34.9825V6.11109L35.7025 4.37109H36.3625L35.5925 6.15109L36.3825 8.34109H35.6825L34.9825 6.40109Z" fill="white"/>
<path d="M37.9806 7.07007H38.5106L38.2506 5.48007L37.9806 7.07007ZM37.1406 8.33008L37.8906 4.33008H38.6506L39.4106 8.33008H38.7206L38.6006 7.61008H37.8906L37.7706 8.33008H37.1406Z" fill="white"/>
<path d="M40.2397 5.84109V8.34109H39.6797V4.37109H40.3397L41.0597 6.64109V4.37109H41.6097V8.34109H41.0297L40.2397 5.84109Z" fill="white"/>
<path d="M42.9531 7.79031C43.2231 7.79031 43.3331 7.62031 43.3331 7.38031V5.3103C43.341 5.2577 43.3367 5.20401 43.3207 5.15329C43.3047 5.10257 43.2773 5.05617 43.2407 5.01761C43.2041 4.97905 43.1591 4.94935 43.1093 4.93076C43.0595 4.91216 43.0061 4.90517 42.9531 4.91031H42.6631V7.79031H42.9531ZM43.9531 5.43033V7.26031C43.9531 7.87032 43.7031 8.32031 42.9531 8.32031H41.9531V4.32031H42.9531C43.6631 4.32031 43.9531 4.77032 43.9531 5.39032" fill="white"/>
<path d="M12.9766 9.92969H14.5766V10.4697H13.6466V11.6097H14.3066V12.1497H13.6466V13.3597H14.5766V13.8997H12.9766V9.92969Z" fill="white"/>
<path d="M14.8828 12.8708V10.9509C14.8828 10.3309 15.1728 9.88086 15.8828 9.88086C16.5928 9.88086 16.8328 10.2909 16.8328 10.8809V11.3509H16.2228V10.8309C16.2228 10.5909 16.1428 10.4409 15.8928 10.4409C15.6428 10.4409 15.5628 10.6209 15.5628 10.8609V12.9909C15.5628 13.2309 15.6528 13.4009 15.8928 13.4009C16.1328 13.4009 16.2228 13.2409 16.2228 13.0109V12.2609H16.8328V12.9409C16.8328 13.5109 16.5928 13.9409 15.8828 13.9409C15.1728 13.9409 14.8828 13.4908 14.8828 12.8708Z" fill="white"/>
<path d="M18.5297 12.9812V10.8512C18.5297 10.6112 18.4297 10.4312 18.1897 10.4312C17.9497 10.4312 17.8497 10.6112 17.8497 10.8512V12.9812C17.8497 13.2212 17.9497 13.3912 18.1897 13.3912C18.4297 13.3912 18.5297 13.2212 18.5297 12.9812ZM17.1797 12.8712V10.9512C17.1797 10.686 17.285 10.4316 17.4726 10.244C17.6601 10.0565 17.9145 9.95117 18.1797 9.95117C18.4449 9.95117 18.6993 10.0565 18.8868 10.244C19.0743 10.4316 19.1797 10.686 19.1797 10.9512V12.8712C19.1797 13.1364 19.0743 13.3907 18.8868 13.5783C18.6993 13.7658 18.4449 13.8712 18.1797 13.8712C17.9145 13.8712 17.6601 13.7658 17.4726 13.5783C17.285 13.3907 17.1797 13.1364 17.1797 12.8712Z" fill="white"/>
<path d="M20.1381 11.3997V13.8997H19.5781V9.92969H20.2281L20.9481 12.2097V9.92969H21.5081V13.8997H20.9181L20.1381 11.3997Z" fill="white"/>
<path d="M23.2506 12.9812V10.8512C23.2506 10.6112 23.1406 10.4312 22.9006 10.4312C22.6606 10.4312 22.5606 10.6112 22.5606 10.8512V12.9812C22.5606 13.2212 22.6706 13.3912 22.9006 13.3912C23.1306 13.3912 23.2506 13.2212 23.2506 12.9812ZM21.8906 12.8712V10.9512C21.8906 10.686 21.996 10.4316 22.1835 10.244C22.3711 10.0565 22.6254 9.95117 22.8906 9.95117C23.1558 9.95117 23.4102 10.0565 23.5977 10.244C23.7853 10.4316 23.8906 10.686 23.8906 10.9512V12.8712C23.8906 13.1364 23.7853 13.3907 23.5977 13.5783C23.4102 13.7658 23.1558 13.8712 22.8906 13.8712C22.6254 13.8712 22.3711 13.7658 22.1835 13.5783C21.996 13.3907 21.8906 13.1364 21.8906 12.8712Z" fill="white"/>
<path d="M26.1291 11.3197H26.1091L25.6591 13.8997H25.3491L24.8491 11.3197H24.8391V13.8997H24.2891V9.92969H25.0691L25.4991 12.1697H25.5091L25.8991 9.92969H26.7391V13.8997H26.1291V11.3197Z" fill="white"/>
<path d="M27.7872 9.92969H27.1172V13.8997H27.7872V9.92969Z" fill="white"/>
<path d="M28.1797 12.8708V10.9509C28.1797 10.3309 28.4697 9.88086 29.1797 9.88086C29.8897 9.88086 30.1797 10.2909 30.1797 10.8809V11.3509H29.5697V10.8309C29.5697 10.5909 29.4797 10.4409 29.2397 10.4409C28.9997 10.4409 28.8997 10.6209 28.8997 10.8609V12.9909C28.8997 13.2309 28.9997 13.4009 29.2397 13.4009C29.4797 13.4009 29.5697 13.2409 29.5697 13.0109V12.2609H30.1797V12.9409C30.1797 13.5109 29.9397 13.9409 29.1797 13.9409C28.4197 13.9409 28.1797 13.4908 28.1797 12.8708Z" fill="white"/>
<path d="M32.0975 11.7795H33.0475V13.8995H32.5675V13.4595C32.5366 13.6032 32.4548 13.7309 32.3372 13.8191C32.2196 13.9073 32.0741 13.95 31.9275 13.9395C31.3575 13.9395 31.0875 13.4895 31.0875 12.8695V10.9495C31.0677 10.8104 31.0793 10.6687 31.1215 10.5346C31.1637 10.4006 31.2354 10.2778 31.3314 10.1751C31.4273 10.0725 31.545 9.99262 31.6759 9.94147C31.8067 9.89031 31.9474 9.86915 32.0875 9.87952C32.8275 9.87952 33.0875 10.2895 33.0875 10.8795V11.2595H32.4775V10.8495C32.4775 10.6095 32.3875 10.4595 32.1475 10.4595C31.9075 10.4595 31.7975 10.6295 31.7975 10.8695V13.0095C31.7975 13.2495 31.8975 13.4195 32.1275 13.4195C32.3575 13.4195 32.4575 13.2895 32.4575 13.0395V12.2595H32.1375L32.0975 11.7795Z" fill="white"/>
<path d="M34.0997 10.4704V11.7104H34.3497C34.3946 11.7172 34.4404 11.7133 34.4836 11.6991C34.5267 11.6849 34.5659 11.6608 34.598 11.6287C34.6301 11.5966 34.6542 11.5574 34.6684 11.5143C34.6826 11.4711 34.6865 11.4253 34.6797 11.3804V10.7904C34.6797 10.5804 34.5797 10.4704 34.3497 10.4704H34.0997ZM34.0997 12.0804V13.9004H33.4297V9.90039H34.4297C35.0997 9.90039 35.3497 10.2304 35.3497 10.7904V11.3004C35.3497 11.7204 35.1997 11.9804 34.8197 12.0604L35.4597 13.8704H34.7497L34.0997 12.0804Z" fill="white"/>
<path d="M37.0397 12.9812V10.8512C37.0397 10.6112 36.9297 10.4312 36.6897 10.4312C36.4497 10.4312 36.3497 10.6112 36.3497 10.8512V12.9812C36.3497 13.2212 36.4597 13.3912 36.6897 13.3912C36.9197 13.3912 37.0397 13.2212 37.0397 12.9812ZM35.6797 12.8712V10.9512C35.6797 10.686 35.785 10.4316 35.9726 10.244C36.1601 10.0565 36.4145 9.95117 36.6797 9.95117C36.9449 9.95117 37.1993 10.0565 37.3868 10.244C37.5743 10.4316 37.6797 10.686 37.6797 10.9512V12.8712C37.6797 13.1364 37.5743 13.3907 37.3868 13.5783C37.1993 13.7658 36.9449 13.8712 36.6797 13.8712C36.4145 13.8712 36.1601 13.7658 35.9726 13.5783C35.785 13.3907 35.6797 13.1364 35.6797 12.8712Z" fill="white"/>
<path d="M39.4697 11.4497L39.0897 13.8997H38.4597L37.9297 9.92969H38.5697L38.8797 12.4497H38.8897L39.2297 9.92969H39.7697L40.1397 12.4497H40.1497L40.4497 9.92969H41.0097L40.4997 13.8997H39.8597L39.4697 11.4497Z" fill="white"/>
<path d="M41.2188 9.92969H42.9987V10.4697H42.4487V13.8997H41.7687V10.4697H41.2188V9.92969Z" fill="white"/>
<path d="M44.6169 12.1497H43.9669V13.8997H43.2969V9.92969H43.9669V11.6097H44.6169V9.92969H45.2869V13.8997H44.6169V12.1497Z" fill="white"/>
</g>
</g>
<defs>
<clipPath id="clip0_1218_13901">
<rect width="47.93" height="47.93" fill="white"/>
</clipPath>
</defs>
</svg>
